G04 EasyPC Gerber Version 21.0.3 Build 4286 *
G04 #@! TF.Part,Single*
G04 #@! TF.FileFunction,Legend,Top *
G04 #@! TF.FilePolarity,Positive *
%FSLAX45Y45*%
%MOIN*%
%ADD19C,0.00100*%
%ADD21C,0.00197*%
%ADD113C,0.00472*%
%ADD70C,0.00500*%
%ADD20C,0.00787*%
%ADD71C,0.01000*%
%ADD22C,0.01575*%
X0Y0D02*
D02*
D19*
X171962Y213041D02*
X172743Y211167D01*
X173525Y213041*
X174462Y211791D02*
X175712D01*
X178525Y211479D02*
X178369Y211323D01*
X178056Y211167*
X177587*
X177275Y211323*
X177119Y211479*
X176962Y211791*
Y212417*
X177119Y212729*
X177275Y212885*
X177587Y213041*
X178056*
X178369Y212885*
X178525Y212729*
X179462Y213041D02*
Y211635D01*
X179619Y211323*
X179931Y211167*
X180556*
X180869Y211323*
X181025Y211635*
Y213041*
X182743Y211167D02*
Y213041D01*
X181962D02*
X183525D01*
D02*
D70*
X50093Y183853D02*
Y173853D01*
X70093*
Y203853*
X50093*
Y193853*
X50388Y151602D02*
Y141602D01*
X70388*
Y171602*
X50388*
Y161602*
X57312Y84082D02*
Y73420D01*
X63249*
Y84082*
X57312*
X62766Y47433D02*
Y58094D01*
X56829*
Y47433*
X62766*
X68493Y14975D02*
X79154D01*
Y20912*
X68493*
Y14975*
X75096Y96946D02*
X64435D01*
Y91009*
X75096*
Y96946*
X76115Y183853D02*
Y173853D01*
X96115*
Y203853*
X76115*
Y193853*
X76294Y151646D02*
Y141646D01*
X96294*
Y171646*
X76294*
Y161646*
X100821Y184228D02*
Y174228D01*
X120821*
Y204228*
X100821*
Y194228*
X101215Y151521D02*
Y141521D01*
X121215*
Y171521*
X101215*
Y161521*
X106770Y125770D02*
X117431D01*
Y131707*
X106770*
Y125770*
X108416Y115890D02*
X97754D01*
Y109953*
X108416*
Y115890*
X108426Y108734D02*
X97764D01*
Y102797*
X108426*
Y108734*
X109235Y49233D02*
Y38572D01*
X115172*
Y49233*
X109235*
X127034Y183728D02*
Y173728D01*
X147034*
Y203728*
X127034*
Y193728*
X127219Y151396D02*
Y141396D01*
X147219*
Y171396*
X127219*
Y161396*
X141723Y85553D02*
Y96215D01*
X135786*
Y85553*
X141723*
X146194Y45234D02*
X148162D01*
Y47202*
X146194*
Y45234*
Y55234D02*
X148162D01*
Y57202*
X146194*
Y55234*
Y65234D02*
X148162D01*
Y67203*
X146194*
Y65234*
Y67202D02*
X163202D01*
X146194Y75234D02*
X148162D01*
Y77203*
X146194*
Y75234*
Y85234D02*
X148162D01*
Y87203*
X146194*
Y85234*
Y87203D02*
X163202D01*
X148162Y45234D02*
X163202D01*
X148162Y47202D02*
X163202D01*
X148162Y55234D02*
X163202D01*
X148162Y57202D02*
X163202D01*
X148162Y65234D02*
X163202D01*
X148162Y75234D02*
X163202D01*
X148162Y77203D02*
X163202D01*
X148162Y85234D02*
X163202D01*
X156194Y45234D02*
X163202D01*
X156194D02*
X158162D01*
Y47202*
X156194*
Y45234*
Y47202D02*
X163202D01*
X156194Y55234D02*
X163202D01*
X156194D02*
X158162D01*
Y57202*
X156194*
Y55234*
Y57202D02*
X163202D01*
X156194Y65234D02*
X163202D01*
X156194D02*
X158162D01*
Y67202*
X156194*
Y65234*
Y67202D02*
X163202D01*
X156194Y75234D02*
X163202D01*
X156194D02*
X158162D01*
Y77203*
X156194*
Y75234*
Y77203D02*
X163202D01*
X156194Y85234D02*
X163202D01*
X156194D02*
X158162D01*
Y87203*
X156194*
Y85234*
Y87203D02*
X163202D01*
Y45234D02*
X158162D01*
X163202Y47202D02*
X158162D01*
X163202Y55234D02*
X158162D01*
X163202Y57202D02*
X158162D01*
X163202Y65234D02*
X158162D01*
X163202Y67202D02*
X158162D01*
X163202Y75234D02*
X158162D01*
X163202Y77203D02*
X158162D01*
X163202Y85234D02*
X158162D01*
X163202Y87203D02*
X158162D01*
X164424Y122328D02*
G75*
G03Y116979I-15167J-2674D01*
G01*
X168361*
Y122328*
X164424*
X207573Y183853D02*
Y173853D01*
X227573*
Y203853*
X207573*
Y193853*
X207869Y151602D02*
Y141602D01*
X227869*
Y171602*
X207869*
Y161602*
X214792Y84082D02*
Y73420D01*
X220729*
Y84082*
X214792*
X220246Y47433D02*
Y58094D01*
X214309*
Y47433*
X220246*
X225973Y14975D02*
X236634D01*
Y20912*
X225973*
Y14975*
X232576Y96946D02*
X221915D01*
Y91009*
X232576*
Y96946*
X233595Y183853D02*
Y173853D01*
X253595*
Y203853*
X233595*
Y193853*
X233774Y151646D02*
Y141646D01*
X253774*
Y171646*
X233774*
Y161646*
X258302Y184228D02*
Y174228D01*
X278302*
Y204228*
X258302*
Y194228*
X258695Y151521D02*
Y141521D01*
X278695*
Y171521*
X258695*
Y161521*
X264250Y125770D02*
X274912D01*
Y131707*
X264250*
Y125770*
X265896Y115890D02*
X255235D01*
Y109953*
X265896*
Y115890*
X265906Y108734D02*
X255244D01*
Y102797*
X265906*
Y108734*
X266716Y49233D02*
Y38572D01*
X272653*
Y49233*
X266716*
X284515Y183728D02*
Y173728D01*
X304515*
Y203728*
X284515*
Y193728*
X284699Y151396D02*
Y141396D01*
X304699*
Y171396*
X284699*
Y161396*
X299203Y85553D02*
Y96215D01*
X293266*
Y85553*
X299203*
X303674Y45234D02*
X305643D01*
Y47202*
X303674*
Y45234*
Y55234D02*
X305643D01*
Y57202*
X303674*
Y55234*
Y65234D02*
X305643D01*
Y67203*
X303674*
Y65234*
Y67202D02*
X320682D01*
X303674Y75234D02*
X305643D01*
Y77203*
X303674*
Y75234*
Y85234D02*
X305643D01*
Y87203*
X303674*
Y85234*
Y87203D02*
X320682D01*
X305643Y45234D02*
X320682D01*
X305643Y47202D02*
X320682D01*
X305643Y55234D02*
X320682D01*
X305643Y57202D02*
X320682D01*
X305643Y65234D02*
X320682D01*
X305643Y75234D02*
X320682D01*
X305643Y77203D02*
X320682D01*
X305643Y85234D02*
X320682D01*
X313674Y45234D02*
X320682D01*
X313674D02*
X315643D01*
Y47202*
X313674*
Y45234*
Y47202D02*
X320682D01*
X313674Y55234D02*
X320682D01*
X313674D02*
X315643D01*
Y57202*
X313674*
Y55234*
Y57202D02*
X320682D01*
X313674Y65234D02*
X320682D01*
X313674D02*
X315643D01*
Y67202*
X313674*
Y65234*
Y67202D02*
X320682D01*
X313674Y75234D02*
X320682D01*
X313674D02*
X315643D01*
Y77203*
X313674*
Y75234*
Y77203D02*
X320682D01*
X313674Y85234D02*
X320682D01*
X313674D02*
X315643D01*
Y87203*
X313674*
Y85234*
Y87203D02*
X320682D01*
Y45234D02*
X315643D01*
X320682Y47202D02*
X315643D01*
X320682Y55234D02*
X315643D01*
X320682Y57202D02*
X315643D01*
X320682Y65234D02*
X315643D01*
X320682Y67202D02*
X315643D01*
X320682Y75234D02*
X315643D01*
X320682Y77203D02*
X315643D01*
X320682Y85234D02*
X315643D01*
X320682Y87203D02*
X315643D01*
X321904Y122328D02*
G75*
G03Y116979I-15167J-2674D01*
G01*
X325841*
Y122328*
X321904*
D02*
D71*
X55225Y64130D02*
Y62638D01*
Y68854D02*
Y67362D01*
Y72071D02*
X60343D01*
Y59472D02*
X55225D01*
X60343Y64130D02*
Y62638D01*
Y68949D02*
Y67457D01*
X62619Y71728D02*
G75*
G02Y72091J181D01*
G01*
X212706Y64130D02*
Y62638D01*
Y68854D02*
Y67362D01*
Y72071D02*
X217824D01*
Y59472D02*
X212706D01*
X217824Y64130D02*
Y62638D01*
Y68949D02*
Y67457D01*
X220099Y71728D02*
G75*
G02Y72091J181D01*
G01*
D02*
D20*
X61491Y20970D02*
X52140D01*
Y14474*
X61491*
X73968Y70157D02*
X98771D01*
Y45354*
X73968*
Y70157*
X100467Y132075D02*
X91117D01*
Y125579*
X100467*
X109854Y82266D02*
X115759D01*
X111323Y94142D02*
Y84791D01*
X117819*
Y94142*
X117137Y81754D02*
X129735D01*
Y62463*
X117137*
Y81754*
X119926Y94014D02*
Y84663D01*
X126422*
Y94014*
X218971Y20970D02*
X209620D01*
Y14474*
X218971*
X231448Y70157D02*
X256252D01*
Y45354*
X231448*
Y70157*
X257947Y132075D02*
X248597D01*
Y125579*
X257947*
X267334Y82266D02*
X273239D01*
X268804Y94142D02*
Y84791D01*
X275300*
Y94142*
X274617Y81754D02*
X287216D01*
Y62463*
X274617*
Y81754*
X277406Y94014D02*
Y84663D01*
X283902*
Y94014*
D02*
D21*
X108869Y82738D02*
X138003D01*
Y61478*
X108869*
Y82738*
X266350D02*
X295483D01*
Y61478*
X266350*
Y82738*
D02*
D22*
X69145Y73504D02*
G75*
G02X67570I-787D01*
G01*
X69145D02*
G75*
G02X67570I-787D01*
G01*
G75*
G02X69145I787*
G01*
X226626D02*
G75*
G02X225051I-787D01*
G01*
X226626D02*
G75*
G02X225051I-787D01*
G01*
G75*
G02X226626I787*
G01*
D02*
D113*
X42002Y22786D02*
Y26536D01*
X44190*
X44815Y26224*
X45128Y25598*
X44815Y24974*
X44190Y24661*
X42002*
X47002Y24036D02*
Y25286D01*
X47315Y25911*
X47628Y26224*
X48252Y26536*
X48878*
X49502Y26224*
X49815Y25911*
X50128Y25286*
Y24036*
X49815Y23411*
X49502Y23098*
X48878Y22786*
X48252*
X47628Y23098*
X47315Y23411*
X47002Y24036*
X52002Y26536D02*
X52315Y22786D01*
X53565Y24661*
X54815Y22786*
X55128Y26536*
X57002Y22786D02*
Y26536D01*
X60128*
X59502Y24661D02*
X57002D01*
Y22786D02*
X60128D01*
X62002D02*
Y26536D01*
X64190*
X64815Y26224*
X65128Y25598*
X64815Y24974*
X64190Y24661*
X62002*
X64190D02*
X65128Y22786D01*
X45489Y188229D02*
Y188854D01*
X45176Y189479*
X44552Y189791*
X43926Y189479*
X43614Y188854*
Y188229*
X43926Y187604*
X44552Y187291*
X45176Y187604*
X45489Y188229*
X45802Y187604*
X46426Y187291*
X47052Y187604*
X47364Y188229*
Y188854*
X47052Y189479*
X46426Y189791*
X45802Y189479*
X45489Y188854*
X51181Y125608D02*
X50556Y125296D01*
X50243Y124671*
Y123421*
X50556Y122796*
X51181Y122483*
X51806Y122796*
X52118Y123421*
Y124671*
X52431Y125296*
X53056Y125608*
X53681Y125296*
X53993Y124671*
Y123421*
X53681Y122796*
X53056Y122483*
X50243Y119046D02*
X53993D01*
Y120608D02*
Y117483D01*
X51493Y115608D02*
Y113108D01*
X53993Y110608D02*
X50243D01*
Y107483*
Y104358D02*
X52743D01*
X53681D02*
X50243Y100608*
X52743D01*
X51806D02*
X52431Y100296D01*
X52743Y99671*
Y99046*
X52431Y98421*
X51806Y98108*
X50243*
Y95608D02*
X53993D01*
X51493D02*
Y94671D01*
X52743Y93108*
X51493Y94671D02*
X50243Y93108D01*
X48654Y155141D02*
Y156391D01*
Y155766D02*
X44904D01*
X45528Y155141*
X74549Y158591D02*
Y156091D01*
X72361Y158278*
X71737Y158591*
X71111Y158278*
X70799Y157653*
Y156716*
X71111Y156091*
X74549Y187291D02*
X70799Y189791D01*
Y187291*
X91289Y133711D02*
X92539D01*
X91914D02*
Y137461D01*
X91289Y136836*
X98164Y133711D02*
X95664D01*
X97851Y135899*
X98164Y136524*
X97851Y137149*
X97226Y137461*
X96289*
X95664Y137149*
X100664Y137461D02*
X102226Y133711D01*
X103789Y137461*
X98090Y187291D02*
X97465Y187604D01*
X97152Y188229*
Y188854*
X97465Y189479*
X98090Y189791*
X98715Y189479*
X99028Y188854*
Y188229*
X98715Y187604*
X98090Y187291*
X97152*
X96215Y187604*
X95590Y188229*
X95278Y188854*
X99571Y155685D02*
X99884Y156309D01*
Y156935*
X99571Y157559*
X98946Y157872*
X98321Y157559*
X98009Y156935*
Y156309*
Y156935D02*
X97696Y157559D01*
X97071Y157872*
X96446Y157559*
X96134Y156935*
Y156309*
X96446Y155685*
X112743Y107488D02*
X116493D01*
Y105301*
X116181Y104676*
X115556Y104363*
X114931Y104676*
X114618Y105301*
Y107488*
Y105301D02*
X112743Y104363D01*
Y102488D02*
X116493Y99363D01*
Y102488D02*
X112743Y99363D01*
X121129Y106034D02*
X124879D01*
Y107596D02*
Y104471D01*
X121129Y102596D02*
X124879Y99471D01*
Y102596D02*
X121129Y99471D01*
X124473Y187291D02*
X124785Y187917D01*
Y188854*
X124473Y189479*
X123848Y189791*
X123535*
X122910Y189479*
X122598Y188854*
Y187291*
X121035*
Y189791*
X125504Y157358D02*
X121754D01*
X124254Y155795*
Y158295*
X199483Y22786D02*
Y26536D01*
X201670*
X202295Y26224*
X202608Y25598*
X202295Y24974*
X201670Y24661*
X199483*
X204483Y24036D02*
Y25286D01*
X204795Y25911*
X205108Y26224*
X205733Y26536*
X206358*
X206983Y26224*
X207295Y25911*
X207608Y25286*
Y24036*
X207295Y23411*
X206983Y23098*
X206358Y22786*
X205733*
X205108Y23098*
X204795Y23411*
X204483Y24036*
X209483Y26536D02*
X209795Y22786D01*
X211045Y24661*
X212295Y22786*
X212608Y26536*
X214483Y22786D02*
Y26536D01*
X217608*
X216983Y24661D02*
X214483D01*
Y22786D02*
X217608D01*
X219483D02*
Y26536D01*
X221670*
X222295Y26224*
X222608Y25598*
X222295Y24974*
X221670Y24661*
X219483*
X221670D02*
X222608Y22786D01*
X202969Y188229D02*
Y188854D01*
X202657Y189479*
X202032Y189791*
X201407Y189479*
X201094Y188854*
Y188229*
X201407Y187604*
X202032Y187291*
X202657Y187604*
X202969Y188229*
X203282Y187604*
X203907Y187291*
X204532Y187604*
X204844Y188229*
Y188854*
X204532Y189479*
X203907Y189791*
X203282Y189479*
X202969Y188854*
X208661Y125608D02*
X208036Y125296D01*
X207723Y124671*
Y123421*
X208036Y122796*
X208661Y122483*
X209286Y122796*
X209598Y123421*
Y124671*
X209911Y125296*
X210536Y125608*
X211161Y125296*
X211473Y124671*
Y123421*
X211161Y122796*
X210536Y122483*
X207723Y119046D02*
X211473D01*
Y120608D02*
Y117483D01*
X208973Y115608D02*
Y113108D01*
X211473Y110608D02*
X207723D01*
Y107483*
Y104358D02*
X210223D01*
X211161D02*
X207723Y100608*
X210223D01*
X209286D02*
X209911Y100296D01*
X210223Y99671*
Y99046*
X209911Y98421*
X209286Y98108*
X207723*
Y95608D02*
X211473D01*
X208973D02*
Y94671D01*
X210223Y93108*
X208973Y94671D02*
X207723Y93108D01*
X206134Y155141D02*
Y156391D01*
Y155766D02*
X202384D01*
X203009Y155141*
X232030Y158591D02*
Y156091D01*
X229842Y158278*
X229217Y158591*
X228592Y158278*
X228280Y157653*
Y156716*
X228592Y156091*
X232030Y187291D02*
X228280Y189791D01*
Y187291*
X248769Y133711D02*
X250019D01*
X249394D02*
Y137461D01*
X248769Y136836*
X255644Y133711D02*
X253144D01*
X255331Y135899*
X255644Y136524*
X255331Y137149*
X254707Y137461*
X253769*
X253144Y137149*
X258144Y137461D02*
X259707Y133711D01*
X261269Y137461*
X255570Y187291D02*
X254945Y187604D01*
X254633Y188229*
Y188854*
X254945Y189479*
X255570Y189791*
X256195Y189479*
X256508Y188854*
Y188229*
X256195Y187604*
X255570Y187291*
X254633*
X253695Y187604*
X253070Y188229*
X252758Y188854*
X257052Y155685D02*
X257364Y156309D01*
Y156935*
X257052Y157559*
X256426Y157872*
X255802Y157559*
X255489Y156935*
Y156309*
Y156935D02*
X255176Y157559D01*
X254552Y157872*
X253926Y157559*
X253614Y156935*
Y156309*
X253926Y155685*
X270223Y107488D02*
X273973D01*
Y105301*
X273661Y104676*
X273036Y104363*
X272411Y104676*
X272098Y105301*
Y107488*
Y105301D02*
X270223Y104363D01*
Y102488D02*
X273973Y99363D01*
Y102488D02*
X270223Y99363D01*
X278609Y106034D02*
X282359D01*
Y107596D02*
Y104471D01*
X278609Y102596D02*
X282359Y99471D01*
Y102596D02*
X278609Y99471D01*
X281953Y187291D02*
X282266Y187917D01*
Y188854*
X281953Y189479*
X281328Y189791*
X281016*
X280391Y189479*
X280078Y188854*
Y187291*
X278516*
Y189791*
X282984Y157358D02*
X279234D01*
X281734Y155795*
Y158295*
X0Y0D02*
M02*
