G04 EasyPC Gerber Version 21.0.3 Build 4286 *
G04 #@! TF.Part,Single*
G04 #@! TF.FileFunction,Soldermask,Top *
G04 #@! TF.FilePolarity,Negative *
%FSLAX45Y45*%
%MOIN*%
G04 #@! TA.AperFunction,SMDPad*
%ADD81R,0.03362X0.06807*%
%ADD11R,0.03559X0.04937*%
%ADD99R,0.04346X0.04740*%
G04 #@! TA.AperFunction,ComponentPad*
%ADD12C,0.07693*%
G04 #@! TA.AperFunction,WasherPad*
%ADD97C,0.14386*%
G04 #@! TA.AperFunction,SMDPad*
%ADD84R,0.09268X0.02575*%
%ADD80R,0.06807X0.03362*%
%ADD16R,0.04937X0.03559*%
%ADD98R,0.06906X0.03559*%
%ADD82R,0.04740X0.04346*%
%ADD110R,0.16748X0.09465*%
X0Y0D02*
D02*
D11*
X66714Y93977D03*
X71323Y17944D03*
X72265Y93977D03*
X76874Y17944D03*
X100034Y112921D03*
X100044Y105766D03*
X105585Y112921D03*
X105595Y105766D03*
X109601Y128738D03*
X115152D03*
X224194Y93977D03*
X228804Y17944D03*
X229746Y93977D03*
X234355Y17944D03*
X257514Y112921D03*
X257524Y105766D03*
X263065Y112921D03*
X263075Y105766D03*
X267081Y128738D03*
X272632D03*
D02*
D12*
X28341Y41115D03*
Y51115D03*
Y61115D03*
Y71115D03*
Y81115D03*
Y91115D03*
Y101115D03*
Y111115D03*
Y121115D03*
Y131115D03*
X38341Y41115D03*
Y51115D03*
Y61115D03*
Y71115D03*
Y81115D03*
Y91115D03*
Y101115D03*
Y111115D03*
Y121115D03*
Y131115D03*
X60093Y183853D03*
Y193853D03*
X60388Y151602D03*
Y161602D03*
X86115Y183853D03*
Y193853D03*
X86294Y151646D03*
Y161646D03*
X110821Y184228D03*
Y194228D03*
X111215Y151521D03*
Y161521D03*
X137034Y183728D03*
Y193728D03*
X137219Y151396D03*
Y161396D03*
X147138Y46287D03*
Y56287D03*
Y66287D03*
Y76287D03*
Y86287D03*
X157138Y46287D03*
Y56287D03*
Y66287D03*
Y76287D03*
Y86287D03*
X185821Y41115D03*
Y51115D03*
Y61115D03*
Y71115D03*
Y81115D03*
Y91115D03*
Y101115D03*
Y111115D03*
Y121115D03*
Y131115D03*
X195821Y41115D03*
Y51115D03*
Y61115D03*
Y71115D03*
Y81115D03*
Y91115D03*
Y101115D03*
Y111115D03*
Y121115D03*
Y131115D03*
X217573Y183853D03*
Y193853D03*
X217869Y151602D03*
Y161602D03*
X243595Y183853D03*
Y193853D03*
X243774Y151646D03*
Y161646D03*
X268302Y184228D03*
Y194228D03*
X268695Y151521D03*
Y161521D03*
X294515Y183728D03*
Y193728D03*
X294699Y151396D03*
Y161396D03*
X304618Y46287D03*
Y56287D03*
Y66287D03*
Y76287D03*
Y86287D03*
X314618Y46287D03*
Y56287D03*
Y66287D03*
Y76287D03*
Y86287D03*
D02*
D16*
X59798Y50264D03*
Y55815D03*
X60280Y75700D03*
Y81251D03*
X112204Y40852D03*
Y46403D03*
X138754Y88384D03*
Y93935D03*
X217278Y50264D03*
Y55815D03*
X217761Y75700D03*
Y81251D03*
X269684Y40852D03*
Y46403D03*
X296235Y88384D03*
Y93935D03*
D02*
D80*
X69685Y46732D03*
Y49882D03*
Y53031D03*
Y56181D03*
Y59331D03*
Y62480D03*
Y65630D03*
Y68780D03*
X103055Y46732D03*
Y49882D03*
Y53031D03*
Y56181D03*
Y59331D03*
Y62480D03*
Y65630D03*
Y68780D03*
X227165Y46732D03*
Y49882D03*
Y53031D03*
Y56181D03*
Y59331D03*
Y62480D03*
Y65630D03*
Y68780D03*
X260535Y46732D03*
Y49882D03*
Y53031D03*
Y56181D03*
Y59331D03*
Y62480D03*
Y65630D03*
Y68780D03*
D02*
D81*
X75346Y41071D03*
Y74441D03*
X78496Y41071D03*
Y74441D03*
X81645Y41071D03*
Y74441D03*
X84795Y41071D03*
Y74441D03*
X87944Y41071D03*
Y74441D03*
X91094Y41071D03*
Y74441D03*
X94244Y41071D03*
Y74441D03*
X97393Y41071D03*
Y74441D03*
X232826Y41071D03*
Y74441D03*
X235976Y41071D03*
Y74441D03*
X239126Y41071D03*
Y74441D03*
X242275Y41071D03*
Y74441D03*
X245425Y41071D03*
Y74441D03*
X248574Y41071D03*
Y74441D03*
X251724Y41071D03*
Y74441D03*
X254874Y41071D03*
Y74441D03*
D02*
D82*
X114571Y87843D03*
Y94142D03*
X123174Y87715D03*
Y94014D03*
X272052Y87843D03*
Y94142D03*
X280654Y87715D03*
Y94014D03*
D02*
D84*
X57784Y61047D03*
Y65772D03*
Y70496D03*
X215265Y61047D03*
Y65772D03*
Y70496D03*
D02*
D97*
X21591Y18738D03*
Y198581D03*
X162081Y18738D03*
Y198581D03*
X179072Y18738D03*
Y198581D03*
X319561Y18738D03*
Y198581D03*
D02*
D98*
X112806Y64608D03*
Y69608D03*
Y74608D03*
Y79608D03*
X134066Y64608D03*
Y69608D03*
Y74608D03*
Y79608D03*
X270287Y64608D03*
Y69608D03*
Y74608D03*
Y79608D03*
X291546Y64608D03*
Y69608D03*
Y74608D03*
Y79608D03*
D02*
D99*
X55191Y17722D03*
X61491D03*
X94168Y128827D03*
X100467D03*
X212672Y17722D03*
X218971D03*
X251648Y128827D03*
X257947D03*
D02*
D110*
X130521Y123620D03*
X160521D03*
X288001D03*
X318001D03*
X0Y0D02*
M02*
