G04 EasyPC Gerber Version 21.0.3 Build 4286 *
G04 #@! TF.Part,Single*
G04 #@! TF.FileFunction,Legend,Bot *
G04 #@! TF.FilePolarity,Positive *
%FSLAX45Y45*%
%MOIN*%
%ADD18C,0.00276*%
%ADD17C,0.00394*%
%ADD70C,0.00500*%
%ADD20C,0.00787*%
%ADD71C,0.01000*%
X0Y0D02*
D02*
D17*
X84098Y91352D02*
G75*
G02X84276Y91626I794J-321D01*
G01*
G75*
G02X84610Y91920I2004J-1939*
G01*
G75*
G02X85016Y92177I1863J-2495*
G01*
G75*
G02X85426Y92345I1050J-1979*
G01*
G75*
G02X87748Y92856I4646J-15582*
G01*
G75*
G02X90752Y93179I5958J-41298*
G01*
G75*
G02X93925Y93291I3162J-44498*
G01*
G75*
G02X96802Y93153I-7J-30260*
G01*
G75*
G02X98045Y93015I-4033J-42055*
G01*
G75*
G02X98969Y92867I-1695J-13474*
G01*
G75*
G02X99689Y92691I-1573J-7993*
G01*
G75*
G02X100280Y92470I-1205J-4123*
G01*
G75*
G02X100611Y92279I-895J-1938*
G01*
G75*
G02X100874Y92046I-882J-1259*
G01*
G75*
G02X101044Y91794I-852J-763*
G01*
G75*
G02X101102Y91551I-487J-244*
G01*
G75*
G03X101120Y91450I296*
G01*
G75*
G03X101176Y91327I818J297*
G01*
G75*
G03X101257Y91203I877J485*
G01*
G75*
G03X101352Y91096I689J522*
G01*
G75*
G02X101482Y90949I-693J-741*
G01*
G75*
G02X101556Y90800I-424J-304*
G01*
G75*
G02X101592Y90606I-798J-249*
G01*
G75*
G02X101602Y90296I-4685J-304*
G01*
G75*
G02X101548Y89785I-2432*
G01*
G75*
G02X101372Y89492I-520J111*
G01*
G75*
G02X101035Y89340I-432J507*
G01*
G75*
G02X100427Y89296I-609J4254*
G01*
G75*
G02X100149Y89304I4J5305*
G01*
G75*
G02X99905Y89326I168J3219*
G01*
G75*
G02X99709Y89357I423J3293*
G01*
G75*
G02X99652Y89396I16J85*
G01*
G75*
G03X99449Y89511I-204J-126*
G01*
G75*
G03X98283Y89502I-188J-50890*
G01*
G75*
G03X97162Y89458I554J-28845*
G01*
G75*
G03X96720Y89341I66J-1136*
G01*
G75*
G03X96250Y88995I768J-1538*
G01*
G75*
G03X96029Y88566I604J-582*
G01*
G75*
G03X96076Y88070I893J-166*
G01*
G75*
G03X96384Y87531I1959J763*
G01*
G75*
G02X97185Y86506I-103483J-81718*
G01*
G75*
G02X97871Y85606I-60161J-46543*
G01*
G75*
G02X98470Y84804I-230375J-172811*
G01*
G75*
G02X98502Y84707I-130J-96*
G01*
G75*
G03X98512Y84666I91J1*
G01*
G75*
G03X98546Y84611I398J202*
G01*
G75*
G03X98593Y84552I456J319*
G01*
G75*
G03X98650Y84498I449J422*
G01*
G75*
G02X98774Y84367I-463J-560*
G01*
G75*
G02X98902Y84167I-1677J-1215*
G01*
G75*
G02X99105Y83792I-9930J-5613*
G01*
G75*
G02X99678Y82679I-468609J-241887*
G01*
G75*
G02X99912Y82207I-17175J-8817*
G01*
G75*
G02X100120Y81754I-13874J-6650*
G01*
G75*
G02X100283Y81368I-13386J-5891*
G01*
G75*
G02X100341Y81172I-946J-386*
G01*
G75*
G02X100359Y80983I-1078J-201*
G01*
G75*
G02X100357Y80659I-8470J-111*
G01*
G75*
G02X100340Y80282I-9520J250*
G01*
G75*
G02X100308Y79900I-10183J669*
G01*
G75*
G02X100244Y79374I-16119J1672*
G01*
G75*
G02X100180Y79080I-1875J257*
G01*
G75*
G02X100087Y78874I-832J252*
G01*
G75*
G02X99938Y78682I-994J616*
G01*
G75*
G02X99794Y78552I-968J929*
G01*
G75*
G02X99652Y78464I-472J603*
G01*
G75*
G02X99502Y78414I-287J606*
G01*
G75*
G02X99337Y78396I-166J787*
G01*
G75*
G02X99053Y78453J744*
G01*
G75*
G02X98886Y78611I122J296*
G01*
G75*
G02X98839Y78882I465J222*
G01*
G75*
G02X98914Y79283I2257J-218*
G01*
G75*
G03X98962Y79475I-3015J857*
G01*
G75*
G03X98998Y79669I-3020J652*
G01*
G75*
G03X99018Y79840I-2658J400*
G01*
G75*
G03X99014Y79946I-440J39*
G01*
G75*
G03X98920Y80264I-1244J-197*
G01*
G75*
G03X98641Y80855I-14342J-6409*
G01*
G75*
G03X98317Y81467I-12519J-6229*
G01*
G75*
G03X98019Y81946I-5411J-3037*
G01*
G75*
G03X97170Y83080I-14699J-10113*
G01*
G75*
G03X96146Y84270I-20935J-16989*
G01*
G75*
G03X95160Y85300I-22807J-20836*
G01*
G75*
G03X94626Y85661I-1203J-1205*
G01*
G75*
G03X94433Y85731I-740J-1735*
G01*
G75*
G03X94298Y85747I-113J-371*
G01*
G75*
G03X94163Y85717I23J-417*
G01*
G75*
G03X93965Y85624I895J-2166*
G01*
G75*
G03X93627Y85380I698J-1322*
G01*
G75*
G03X92864Y84630I30869J-32167*
G01*
G75*
G03X92074Y83825I66914J-66460*
G01*
G75*
G03X92002Y83647I183J-178*
G01*
G75*
G02X91988Y83601I-83*
G01*
G75*
G02X91892Y83459I-5679J3746*
G01*
G75*
G02X91771Y83293I-4089J2857*
G01*
G75*
G02X91627Y83110I-6502J4956*
G01*
G75*
G03X91476Y82920I12837J-10356*
G01*
G75*
G03X91333Y82735I11426J-8960*
G01*
G75*
G03X91213Y82574I10618J-8043*
G01*
G75*
G03X91152Y82483I1073J-792*
G01*
G75*
G02X91076Y82378I-769J471*
G01*
G75*
G02X90802Y82053I-44552J37254*
G01*
G75*
G02X90473Y81670I-32972J27996*
G01*
G75*
G02X90102Y81246I-50333J43737*
G01*
G75*
G03X89733Y80822I27491J-24286*
G01*
G75*
G03X89412Y80439I17525J-15023*
G01*
G75*
G03X89148Y80113I25271J-20731*
G01*
G75*
G03X89087Y80009I318J-254*
G01*
G75*
G02X88965Y79813I-600J238*
G01*
G75*
G02X88712Y79563I-2506J2281*
G01*
G75*
G02X88400Y79312I-2557J2867*
G01*
G75*
G02X88074Y79106I-1917J2666*
G01*
G75*
G02X87660Y78948I-758J1369*
G01*
G75*
G02X87172Y78891I-521J2307*
G01*
G75*
G02X86728Y78933I-28J2050*
G01*
G75*
G02X86463Y79084I100J480*
G01*
G75*
G03X86364Y79163I-288J-261*
G01*
G75*
G03X86211Y79234I-559J-1010*
G01*
G75*
G03X86026Y79290I-516J-1363*
G01*
G75*
G03X85826Y79324I-396J-1709*
G01*
G75*
G02X85576Y79368I231J2065*
G01*
G75*
G02X85387Y79438I194J812*
G01*
G75*
G02X85218Y79553I395J764*
G01*
G75*
G02X85031Y79735I1502J1729*
G01*
G75*
G02X84843Y79965I1985J1822*
G01*
G75*
G02X84752Y80144I496J362*
G01*
G75*
G02X84712Y80369I858J268*
G01*
G75*
G02X84702Y80789I8800J424*
G01*
G75*
G02X84709Y81072I5930J-7*
G01*
G75*
G02X84729Y81348I5393J-254*
G01*
G75*
G02X84759Y81583I4748J-476*
G01*
G75*
G02X84794Y81715I589J-88*
G01*
G75*
G02X84970Y82005I947J-377*
G01*
G75*
G02X86106Y83309I195633J-169264*
G01*
G75*
G02X87533Y84913I111835J-98045*
G01*
G75*
G02X89364Y86926I281537J-254204*
G01*
G75*
G03X89954Y87580I-40278J36897*
G01*
G75*
G03X90450Y88155I-22685J20111*
G01*
G75*
G03X90867Y88654I-54272J45751*
G01*
G75*
G03X90902Y88751I-117J96*
G01*
G75*
G03X90871Y88819I-90*
G01*
G75*
G03X90786Y88865I-143J-164*
G01*
G75*
G03X90631Y88890I-192J-705*
G01*
G75*
G03X90372Y88896I-257J-4922*
G01*
G75*
G03X90162Y88890I-6J-3304*
G01*
G75*
G03X89970Y88870I156J-2371*
G01*
G75*
G03X89813Y88841I306J-2112*
G01*
G75*
G03X89747Y88806I30J-136*
G01*
G75*
G02X89680Y88767I-109J114*
G01*
G75*
G02X89519Y88727I-719J2552*
G01*
G75*
G02X89320Y88692I-596J2799*
G01*
G75*
G02X89102Y88668I-550J3919*
G01*
G75*
G03X88839Y88641I735J-8666*
G01*
G75*
G03X88493Y88599I2927J-25190*
G01*
G75*
G03X88130Y88549I3471J-26815*
G01*
G75*
G03X87802Y88499I2539J-17730*
G01*
G75*
G02X87106Y88418I-1274J7869*
G01*
G75*
G02X86565Y88429I-210J2868*
G01*
G75*
G02X86141Y88532I204J1763*
G01*
G75*
G02X85802Y88731I415J1093*
G01*
G75*
G03X85654Y88839I-809J-959*
G01*
G75*
G03X85491Y88924I-657J-1066*
G01*
G75*
G03X85329Y88978I-431J-1006*
G01*
G75*
G03X85185Y88996I-144J-564*
G01*
G75*
G02X84902Y89049I1J799*
G01*
G75*
G02X84604Y89203I507J1341*
G01*
G75*
G02X84339Y89431I871J1282*
G01*
G75*
G02X84151Y89700I893J827*
G01*
G75*
G02X84054Y90009I835J433*
G01*
G75*
G02X84013Y90513I5073J666*
G01*
G75*
G02X84022Y91021I5077J164*
G01*
G75*
G02X84098Y91352I1074J-74*
G01*
X84602Y128696D02*
X88782D01*
X88853Y127989*
G75*
G03X88895Y127647I7585J768*
G01*
G75*
G03X88945Y127427I1459J214*
G01*
G75*
G03X89007Y127290I571J175*
G01*
G75*
G03X89088Y127224I133J82*
G01*
G75*
G02X89329Y127098I-310J-881*
G01*
G75*
G02X89526Y126906I-581J-796*
G01*
G75*
G02X89657Y126676I-719J-560*
G01*
G75*
G02X89702Y126435I-622J-241*
G01*
G75*
G03X89709Y126306I1146J1*
G01*
G75*
G03X89731Y126186I870J99*
G01*
G75*
G03X89763Y126092I651J167*
G01*
G75*
G03X89802Y126046I91J38*
G01*
G75*
G02X89849Y125965I-52J-85*
G01*
G75*
G02X89876Y124842I-291089J-7604*
G01*
G75*
G02X89896Y123438I-89069J-1951*
G01*
G75*
G02X89902Y121510I-308554J-1909*
G01*
G75*
G03X89907Y119048I600317J17*
G01*
G75*
G03X89929Y117819I44979J193*
G01*
G75*
G03X89965Y117066I22836J721*
G01*
G75*
G03X90049Y116841I417J26*
G01*
G75*
G02X90106Y116756I-683J-519*
G01*
G75*
G02X90154Y116663I-851J-495*
G01*
G75*
G02X90188Y116574I-784J-353*
G01*
G75*
G02X90199Y116506I-227J-72*
G01*
G75*
G03X90270Y116200I774J18*
G01*
G75*
G03X90509Y115742I4631J2131*
G01*
G75*
G03X90804Y115299I4288J2529*
G01*
G75*
G03X91076Y115020I1185J882*
G01*
G75*
G03X91691Y114617I2623J3333*
G01*
G75*
G03X92418Y114288I2766J5148*
G01*
G75*
G03X93161Y114069I1940J5215*
G01*
G75*
G03X93823Y113996I664J3004*
G01*
X94202*
Y113490*
G75*
G03X94224Y113124I3084J2*
G01*
G75*
G03X94292Y112841I1243J148*
G01*
G75*
G03X94397Y112659I581J214*
G01*
G75*
G03X94531Y112596I135J113*
G01*
G75*
G02X94590Y112570I-1J-84*
G01*
G75*
G02X94675Y112472I-765J-750*
G01*
G75*
G02X94767Y112337I-1076J-826*
G01*
G75*
G02X94852Y112177I-1775J-1052*
G01*
G75*
G02X94967Y111814I-1226J-588*
G01*
G75*
G02X95023Y111298I-4433J-742*
G01*
G75*
G02X95047Y110399I-19589J-981*
G01*
G75*
G02X95052Y108199I-506315J-2187*
G01*
G75*
G02X95047Y106084I-464200J-20*
G01*
G75*
G02X95024Y105163I-22243J100*
G01*
G75*
G02X94977Y104640I-5987J278*
G01*
G75*
G02X94876Y104369I-648J87*
G01*
G75*
G02X94598Y104048I-1319J865*
G01*
G75*
G02X94278Y103866I-604J686*
G01*
G75*
G02X93793Y103769I-650J1993*
G01*
G75*
G02X92877Y103716I-1683J21256*
G01*
G75*
G02X91556Y103712I-720J20001*
G01*
G75*
G02X90484Y103809I265J8926*
G01*
G75*
G02X89575Y104015I973J6407*
G01*
G75*
G02X88757Y104341I1500J4946*
G01*
G75*
G02X87709Y104974I3519J7011*
G01*
G75*
G02X86690Y105806I6082J8493*
G01*
G75*
G02X85827Y106716I6578J7101*
G01*
G75*
G02X85259Y107583I3515J2923*
G01*
G75*
G02X84861Y108662I4557J2296*
G01*
G75*
G02X84678Y109881I6520J1600*
G01*
G75*
G02X84614Y112030I39815J2257*
G01*
G75*
G02X84604Y119122I2673193J7553*
G01*
X84602Y128696*
X84756Y62996D02*
G75*
G02X85160Y65469I33579J-4221D01*
G01*
G75*
G02X85702Y67488I16182J-3264*
G01*
G75*
G02X86329Y68971I10312J-3481*
G01*
G75*
G02X87002Y69646I1392J-713*
G01*
G75*
G02X87143Y69704I394J-759*
G01*
G75*
G02X87329Y69752I629J-2055*
G01*
G75*
G02X87528Y69786I479J-2239*
G01*
G75*
G02X87709Y69796I178J-1484*
G01*
G75*
G02X87943Y69781I3J-1706*
G01*
G75*
G02X88111Y69729I-77J-552*
G01*
G75*
G02X88266Y69624I-292J-598*
G01*
G75*
G02X88463Y69428I-2022J-2231*
G01*
G75*
G02X88596Y69263I-1277J-1170*
G01*
G75*
G02X88719Y69071I-1863J-1326*
G01*
G75*
G02X88815Y68882I-1795J-1024*
G01*
G75*
G02X88862Y68729I-636J-282*
G01*
G75*
G03X88911Y68574I663J125*
G01*
G75*
G03X89013Y68377I2036J926*
G01*
G75*
G03X89144Y68174I2170J1263*
G01*
G75*
G03X89288Y67996I1645J1179*
G01*
X89652Y67594*
X91202Y67787*
G75*
G02X93160Y68012I13614J-109562*
G01*
G75*
G02X94596Y68132I3415J-32196*
G01*
G75*
G02X95935Y68181I1646J-26774*
G01*
G75*
G02X97552Y68176I630J-56475*
G01*
G75*
G02X98756Y68149I-1920J-111812*
G01*
G75*
G02X99463Y68112I-414J-14847*
G01*
G75*
G02X99922Y68059I-454J-5973*
G01*
G75*
G02X100204Y67975I-162J-1052*
G01*
G75*
G02X100510Y67804I-917J-1994*
G01*
G75*
G02X100729Y67609I-603J-900*
G01*
G75*
G02X100876Y67377I-710J-611*
G01*
G75*
G02X100965Y67090I-1202J-530*
G01*
G75*
G03X101001Y66944I1250J233*
G01*
G75*
G03X101057Y66789I1750J552*
G01*
G75*
G03X101124Y66648I1572J654*
G01*
G75*
G03X101191Y66546I555J293*
G01*
G75*
G02X101492Y66094I-2291J-1851*
G01*
G75*
G02X101600Y65708I-806J-435*
G01*
G75*
G02X101525Y65357I-685J-36*
G01*
G75*
G02X101272Y65016I-1165J598*
G01*
X100943Y64696*
X99328*
G75*
G03X98666Y64690I-16J-33187*
G01*
G75*
G03X98141Y64669I265J-13261*
G01*
G75*
G03X97723Y64640I1234J-20454*
G01*
G75*
G03X97652Y64596I7J-92*
G01*
G75*
G02X97607Y64558I-83J51*
G01*
G75*
G02X97513Y64526I-261J619*
G01*
G75*
G02X97393Y64504I-219J848*
G01*
G75*
G02X97264Y64496I-131J1139*
G01*
G75*
G03X96999Y64443I0J-683*
G01*
G75*
G03X96747Y64289I374J-894*
G01*
G75*
G03X96565Y64075I567J-669*
G01*
G75*
G03X96502Y63851I370J-225*
G01*
G75*
G03X96537Y63743I186J0*
G01*
G75*
G03X96731Y63483I6042J4318*
G01*
G75*
G03X96983Y63180I5295J4150*
G01*
G75*
G03X97281Y62856I7902J6970*
G01*
G75*
G02X97628Y62480I-9182J-8827*
G01*
G75*
G02X98027Y62019I-19239J-17032*
G01*
G75*
G02X98415Y61548I-19611J-16560*
G01*
G75*
G02X98726Y61145I-9783J-7859*
G01*
G75*
G03X98997Y60780I97500J72211*
G01*
G75*
G03X99263Y60425I87458J65171*
G01*
G75*
G03X99492Y60121I79632J59795*
G01*
G75*
G03X99621Y59954I8551J6481*
G01*
G75*
G02X99715Y59831I-3375J-2675*
G01*
G75*
G02X99807Y59701I-3772J-2757*
G01*
G75*
G02X99883Y59584I-3423J-2324*
G01*
G75*
G02X99928Y59504I-667J-424*
G01*
G75*
G03X99973Y59419I1254J604*
G01*
G75*
G03X100056Y59276I9367J5349*
G01*
G75*
G03X100154Y59111I10363J6101*
G01*
G75*
G03X100257Y58946I10841J6638*
G01*
G75*
G02X100372Y58754I-3752J-2376*
G01*
G75*
G02X100510Y58503I-10285J-5813*
G01*
G75*
G02X100648Y58237I-10989J-5858*
G01*
G75*
G02X100763Y57996I-6937J-3480*
G01*
G75*
G03X100874Y57758I29837J13739*
G01*
G75*
G03X100999Y57495I44185J20772*
G01*
G75*
G03X101118Y57248I41240J19680*
G01*
G75*
G03X101209Y57062I13678J6637*
G01*
G75*
G02X101283Y56888I-1326J-662*
G01*
G75*
G02X101346Y56682I-2333J-822*
G01*
G75*
G02X101388Y56477I-2311J-586*
G01*
G75*
G02X101402Y56307I-1037J-170*
G01*
G75*
G03X101410Y56157I1407J3*
G01*
G75*
G03X101434Y56014I1247J131*
G01*
G75*
G03X101469Y55894I1002J230*
G01*
G75*
G03X101511Y55828I168J60*
G01*
G75*
G02X101593Y55664I-204J-204*
G01*
G75*
G02X101574Y55456I-461J-63*
G01*
G75*
G02X101459Y55256I-549J181*
G01*
G75*
G02X101277Y55117I-426J373*
G01*
G75*
G03X101136Y55033I379J-793*
G01*
G75*
G03X101055Y54940I170J-231*
G01*
G75*
G03X101013Y54814I310J-172*
G01*
G75*
G03X101000Y54616I1616J-206*
G01*
G75*
G02X100950Y54239I-1500J9*
G01*
G75*
G02X100802Y53830I-2461J656*
G01*
G75*
G02X100596Y53470I-2160J995*
G01*
G75*
G02X100371Y53250I-676J468*
G01*
G75*
G02X100251Y53183I-506J771*
G01*
G75*
G02X100094Y53119I-904J1962*
G01*
G75*
G02X99928Y53065I-775J2110*
G01*
G75*
G02X99776Y53031I-370J1313*
G01*
G75*
G02X99293Y53061I-176J1089*
G01*
G75*
G02X99025Y53308I113J392*
G01*
G75*
G02X99040Y53708I481J181*
G01*
G75*
G02X99352Y54153I1422J-664*
G01*
G75*
G03X99612Y54564I-785J785*
G01*
G75*
G03X99682Y55059I-1164J417*
G01*
G75*
G03X99552Y55700I-2392J-153*
G01*
G75*
G03X99197Y56573I-9263J-3252*
G01*
G75*
G02X99084Y56820I29704J13724*
G01*
G75*
G02X98989Y57034I16535J7484*
G01*
G75*
G02X98908Y57220I47170J20654*
G01*
G75*
G02X98902Y57248I64J28*
G01*
G75*
G03X98895Y57275I-53J0*
G01*
G75*
G03X98778Y57474I-51014J-29708*
G01*
G75*
G03X98643Y57702I-15945J-9330*
G01*
G75*
G03X98481Y57966I-28880J-17518*
G01*
G75*
G03X97669Y59163I-14461J-8944*
G01*
G75*
G03X96848Y60134I-8194J-6090*
G01*
G75*
G03X96104Y60813I-5378J-5148*
G01*
G75*
G03X95577Y60999I-533J-670*
G01*
G75*
G02X95308Y61042I6J893*
G01*
G75*
G02X95052Y61165I322J995*
G01*
G75*
G02X94833Y61357I612J923*
G01*
G75*
G02X94669Y61600I852J750*
G01*
G75*
G03X94540Y61781I-631J-315*
G01*
G75*
G03X94379Y61875I-256J-252*
G01*
G75*
G03X94256Y61848I-36J-131*
G01*
G75*
G03X94200Y61729I102J-122*
G01*
G75*
G02X94136Y61362I-1177J15*
G01*
G75*
G02X93787Y60384I-43208J14861*
G01*
G75*
G02X93370Y59312I-31465J11631*
G01*
G75*
G02X92937Y58313I-24891J10180*
G01*
G75*
G03X92819Y58034I5227J-2388*
G01*
G75*
G03X92835Y57952I71J-28*
G01*
G75*
G03X92906Y57951I36J35*
G01*
G75*
G03X93102Y58147I-2878J3081*
G01*
G75*
G02X93218Y58249I613J-579*
G01*
G75*
G02X93350Y58329I498J-676*
G01*
G75*
G02X93488Y58380I332J-688*
G01*
G75*
G02X93620Y58396I131J-502*
G01*
G75*
G02X93775Y58386I2J-1103*
G01*
G75*
G02X93853Y58346I-19J-133*
G01*
G75*
G02X93892Y58265I-103J-99*
G01*
G75*
G02X93902Y58102I-1270J-161*
G01*
G75*
G02X93895Y57985I-934J-2*
G01*
G75*
G02X93873Y57877I-742J94*
G01*
G75*
G02X93841Y57790I-552J156*
G01*
G75*
G02X93802Y57746I-92J43*
G01*
G75*
G03X93764Y57709I66J-106*
G01*
G75*
G03X93731Y57648I283J-189*
G01*
G75*
G03X93709Y57575I378J-154*
G01*
G75*
G03X93702Y57499I382J-76*
G01*
G75*
G02X93684Y57392I-321J-1*
G01*
G75*
G02X93604Y57182I-4372J1553*
G01*
G75*
G02X93495Y56936I-4604J1889*
G01*
G75*
G02X93366Y56680I-5822J2764*
G01*
G75*
G03X93218Y56400I176419J-93592*
G01*
G75*
G03X93049Y56080I294981J-155878*
G01*
G75*
G03X92887Y55772I285161J-150052*
G01*
G75*
G03X92759Y55528I111640J-58771*
G01*
G75*
G02X92644Y55320I-4730J2476*
G01*
G75*
G02X92526Y55127I-3935J2282*
G01*
G75*
G02X92417Y54967I-3430J2229*
G01*
G75*
G02X92345Y54891I-336J241*
G01*
G75*
G03X92290Y54837I287J-346*
G01*
G75*
G03X92244Y54773I376J-321*
G01*
G75*
G03X92212Y54709I362J-221*
G01*
G75*
G03X92202Y54657I132J-53*
G01*
G75*
G02X92111Y54438I-306J0*
G01*
G75*
G02X91477Y53836I-18739J19085*
G01*
G75*
G02X90832Y53275I-10406J11310*
G01*
G75*
G02X90408Y53007I-1296J1578*
G01*
G75*
G02X90167Y52911I-854J1806*
G01*
G75*
G02X89911Y52846I-646J2003*
G01*
G75*
G02X89626Y52809I-474J2506*
G01*
G75*
G02X89295Y52796I-332J4504*
G01*
G75*
G02X88843Y52816I4J5289*
G01*
G75*
G02X88534Y52881I111J1296*
G01*
G75*
G02X88218Y53025I564J1652*
G01*
G75*
G02X87709Y53337I6828J11719*
G01*
G75*
G03X87517Y53456I-3294J-5125*
G01*
G75*
G03X87306Y53576I-4174J-7043*
G01*
G75*
G03X87107Y53682I-3607J-6545*
G01*
G75*
G03X86959Y53752I-995J-1927*
G01*
G75*
G02X86293Y54179I902J2138*
G01*
G75*
G02X85704Y54862I2613J2850*
G01*
G75*
G02X85226Y55755I4057J2744*
G01*
G75*
G02X84893Y56806I6355J2594*
G01*
G75*
G02X84718Y57968I7391J1706*
G01*
G75*
G02X84636Y59711I34991J2517*
G01*
G75*
G02X84643Y61528I35408J778*
G01*
G75*
G02X84756Y62996I15400J-451*
G01*
X84852Y34946D02*
G75*
G02X85025Y36041I35301J-5028D01*
G01*
G75*
G02X85207Y36946I17104J-2979*
G01*
G75*
G02X85459Y37938I22146J-5090*
G01*
G75*
G02X85863Y39346I88698J-24648*
G01*
G75*
G02X86447Y41011I16563J-4884*
G01*
G75*
G02X87169Y42502I12457J-5106*
G01*
G75*
G02X87930Y43668I9120J-5127*
G01*
G75*
G02X88622Y44255I1650J-1243*
G01*
G75*
G02X88965Y44374I572J-1093*
G01*
G75*
G02X89343Y44396I272J-1440*
G01*
G75*
G02X89693Y44322I-93J-1302*
G01*
G75*
G02X89948Y44159I-237J-655*
G01*
G75*
G02X90104Y43952I-648J-648*
G01*
G75*
G02X90254Y43635I-2573J-1405*
G01*
G75*
G02X90365Y43299I-2738J-1099*
G01*
G75*
G02X90402Y43029I-1030J-276*
G01*
G75*
G03X90419Y42970I111J1*
G01*
G75*
G03X90482Y42883I742J471*
G01*
G75*
G03X90570Y42788I848J693*
G01*
G75*
G03X90674Y42697I973J1016*
G01*
G75*
G02X90903Y42462I-770J-979*
G01*
G75*
G02X91069Y42170I-1092J-813*
G01*
G75*
G02X91169Y41822I-1481J-614*
G01*
G75*
G02X91202Y41421I-2387J-399*
G01*
Y40969*
X91827Y41029*
G75*
G02X93566Y41169I5186J-53637*
G01*
G75*
G02X95285Y41250I3265J-50942*
G01*
G75*
G02X96831Y41269I1302J-43218*
G01*
G75*
G02X98018Y41216I-87J-15324*
G01*
G75*
G02X98602Y41163I-2848J-34266*
G01*
G75*
G02X99170Y41100I-3098J-30891*
G01*
G75*
G02X99656Y41038I-3331J-27972*
G01*
G75*
G02X99925Y40989I-420J-3076*
G01*
G75*
G02X100356Y40837I-439J-1924*
G01*
G75*
G02X100701Y40598I-622J-1267*
G01*
G75*
G02X100924Y40300I-744J-790*
G01*
G75*
G02X101002Y39975I-637J-324*
G01*
G75*
G03X101019Y39800I905J1*
G01*
G75*
G03X101070Y39646I635J125*
G01*
G75*
G03X101162Y39500I681J325*
G01*
G75*
G03X101302Y39346I1230J982*
G01*
G75*
G02X101511Y39065I-728J-761*
G01*
G75*
G02X101600Y38748I-743J-379*
G01*
G75*
G02X101560Y38414I-868J-64*
G01*
G75*
G02X101395Y38087I-1149J374*
G01*
X101189Y37796*
X99601*
G75*
G03X98951Y37790I-16J-31907*
G01*
G75*
G03X98434Y37769I261J-12865*
G01*
G75*
G03X98023Y37740I1204J-19658*
G01*
G75*
G03X97952Y37696I7J-92*
G01*
G75*
G02X97894Y37657I-73J45*
G01*
G75*
G02X97677Y37626I-714J4204*
G01*
G75*
G02X97409Y37604I-450J3837*
G01*
G75*
G02X97102Y37596I-311J6472*
G01*
G75*
G03X96796Y37589I-4J-6471*
G01*
G75*
G03X96527Y37567I182J-3859*
G01*
G75*
G03X96311Y37536I498J-4235*
G01*
G75*
G03X96252Y37496I15J-85*
G01*
G75*
G02X96205Y37458I-80J49*
G01*
G75*
G02X96097Y37426I-299J810*
G01*
G75*
G02X95961Y37404I-244J1080*
G01*
G75*
G02X95811Y37396I-151J1525*
G01*
X95431*
X95371Y36472*
G75*
G02X95275Y35683I-7037J461*
G01*
G75*
G02X95064Y34658I-20576J3699*
G01*
G75*
G02X94792Y33606I-21140J4908*
G01*
G75*
G02X94501Y32722I-11311J3230*
G01*
G75*
G03X94431Y32520I4117J-1533*
G01*
G75*
G03X94384Y32348I2024J-645*
G01*
G75*
G03X94358Y32214I1967J-450*
G01*
G75*
G03X94379Y32187I24J-4*
G01*
G75*
G03X94424Y32183I45J322*
G01*
G75*
G03X94526Y32185I-21J6242*
G01*
G75*
G03X94647Y32188I-120J6205*
G01*
G75*
G03X94777Y32194I-306J8165*
G01*
G75*
G02X94978Y32195I108J-1942*
G01*
G75*
G02X95058Y32155I-6J-112*
G01*
G75*
G02X95095Y32063I-119J-102*
G01*
G75*
G02X95102Y31810I-4357J-249*
G01*
G75*
G02X95095Y31652I-1715J-2*
G01*
G75*
G02X95073Y31508I-1207J111*
G01*
G75*
G02X95041Y31395I-939J203*
G01*
G75*
G02X95002Y31346I-88J31*
G01*
G75*
G03X94964Y31304I54J-86*
G01*
G75*
G03X94931Y31219I502J-239*
G01*
G75*
G03X94909Y31111I700J-200*
G01*
G75*
G03X94902Y30996I893J-116*
G01*
G75*
G02X94895Y30882I-897J-2*
G01*
G75*
G02X94873Y30775I-722J93*
G01*
G75*
G02X94841Y30690I-535J154*
G01*
G75*
G02X94802Y30646I-93J44*
G01*
G75*
G03X94764Y30610I67J-108*
G01*
G75*
G03X94731Y30550I274J-187*
G01*
G75*
G03X94709Y30478I365J-151*
G01*
G75*
G03X94702Y30405I359J-74*
G01*
G75*
G02X94645Y30150I-598J0*
G01*
G75*
G02X94317Y29482I-22149J10451*
G01*
G75*
G02X93944Y28791I-14751J7519*
G01*
G75*
G02X93596Y28235I-7065J4033*
G01*
G75*
G02X93224Y27744I-5108J3489*
G01*
G75*
G02X92727Y27186I-10107J8508*
G01*
G75*
G02X92224Y26668I-18157J17103*
G01*
G75*
G02X92052Y26596I-172J171*
G01*
G75*
G03X91995Y26584I0J-136*
G01*
G75*
G03X91918Y26541I263J-567*
G01*
G75*
G03X91837Y26480I419J-641*
G01*
G75*
G03X91763Y26409I529J-620*
G01*
G75*
G02X91658Y26325I-309J280*
G01*
G75*
G02X91461Y26225I-1334J2383*
G01*
G75*
G02X91224Y26127I-1331J2898*
G01*
G75*
G02X90975Y26047I-1181J3232*
G01*
G75*
G02X90401Y25943I-844J3015*
G01*
G75*
G02X89768Y25933I-379J4340*
G01*
G75*
G02X89190Y26011I229J3896*
G01*
G75*
G02X88802Y26174I229J1085*
G01*
G75*
G03X88489Y26376I-5674J-8477*
G01*
G75*
G03X88166Y26567I-5485J-8876*
G01*
G75*
G03X87813Y26760I-5990J-10535*
G01*
G75*
G03X87409Y26967I-9211J-17486*
G01*
G75*
G02X86615Y27503I1617J3254*
G01*
G75*
G02X85933Y28259I3059J3446*
G01*
G75*
G02X85381Y29215I4439J3196*
G01*
G75*
G02X84978Y30346I6990J3133*
G01*
G75*
G02X84820Y31223I4925J1335*
G01*
G75*
G02X84746Y32493I20305J1827*
G01*
G75*
G02X84752Y33827I21038J574*
G01*
G75*
G02X84852Y34946I10651J-384*
G01*
X87805Y56816D02*
G75*
G03X87919Y56647I1829J1117D01*
G01*
G75*
G03X88011Y56563I269J200*
G01*
G75*
G03X88107Y56535I98J159*
G01*
G75*
G03X88230Y56553I4J405*
G01*
G75*
G03X89455Y57134I-1353J4432*
G01*
G75*
G03X90613Y58104I-3933J5874*
G01*
G75*
G03X91714Y59475I-7061J6799*
G01*
G75*
G03X92769Y61266I-15809J10516*
G01*
G75*
G03X93093Y61930I-13734J7103*
G01*
G75*
G03X93257Y62382I-2700J1239*
G01*
G75*
G03X93295Y62683I-1030J282*
G01*
G75*
G03X93202Y62847I-196J-4*
G01*
G75*
G02X93157Y62895I65J106*
G01*
G75*
G02X93099Y63019I1529J791*
G01*
G75*
G02X93041Y63174I1799J759*
G01*
G75*
G02X92992Y63346I2535J820*
G01*
G75*
G03X92893Y63639I-1910J-481*
G01*
G75*
G03X92768Y63804I-392J-167*
G01*
G75*
G03X92612Y63854I-143J-179*
G01*
G75*
G03X92423Y63802I23J-448*
G01*
G75*
G02X92310Y63755I-279J519*
G01*
G75*
G02X92023Y63674I-4202J14321*
G01*
G75*
G02X91678Y63585I-3693J13602*
G01*
G75*
G02X91302Y63497I-4644J18972*
G01*
G75*
G03X90125Y63176I2915J-13023*
G01*
G75*
G03X89243Y62799I1594J-4944*
G01*
G75*
G03X88625Y62359I1487J-2744*
G01*
G75*
G03X88257Y61846I1028J-1125*
G01*
G75*
G03X87957Y61054I7534J-3309*
G01*
G75*
G03X87766Y60293I5780J-1857*
G01*
G75*
G03X87659Y59437I7472J-1366*
G01*
G75*
G03X87616Y58346I19211J-1302*
G01*
G75*
G03X87616Y57668I32093J-358*
G01*
G75*
G03X87641Y57298I3301J35*
G01*
G75*
G03X87698Y57044I1280J156*
G01*
G75*
G03X87805Y56816I1075J363*
G01*
X88455Y29992D02*
G75*
G03X88552Y29836I1008J520D01*
G01*
G75*
G03X88650Y29751I245J183*
G01*
G75*
G03X88781Y29709I172J314*
G01*
G75*
G03X88991Y29696I213J1793*
G01*
G75*
G03X90058Y30024I0J1904*
G01*
G75*
G03X91306Y31073I-4420J6526*
G01*
G75*
G03X92564Y32629I-8143J7868*
G01*
G75*
G03X93677Y34546I-14127J9485*
G01*
G75*
G03X94061Y35360I-19790J9827*
G01*
G75*
G03X94318Y36009I-7433J3321*
G01*
G75*
G03X94464Y36517I-4645J1615*
G01*
G75*
G03X94484Y36869I-1011J234*
G01*
G75*
G03X94451Y37021I-796J-93*
G01*
G75*
G03X94391Y37105I-159J-51*
G01*
G75*
G03X94282Y37151I-152J-206*
G01*
G75*
G03X94064Y37178I-422J-2501*
G01*
G75*
G03X93907Y37183I-118J-1443*
G01*
G75*
G03X93758Y37170I30J-1210*
G01*
G75*
G03X93635Y37143I148J-958*
G01*
G75*
G03X93569Y37104I42J-148*
G01*
G75*
G02X93495Y37062I-111J111*
G01*
G75*
G02X93325Y37028I-499J2062*
G01*
G75*
G02X93116Y37004I-376J2392*
G01*
G75*
G02X92888Y36996I-228J3308*
G01*
G75*
G03X92664Y36989I-3J-3461*
G01*
G75*
G03X92465Y36967I142J-2197*
G01*
G75*
G03X92306Y36936I311J-1976*
G01*
G75*
G03X92252Y36896I21J-86*
G01*
G75*
G02X92207Y36858I-82J50*
G01*
G75*
G02X92109Y36826I-269J659*
G01*
G75*
G02X91986Y36804I-224J894*
G01*
G75*
G02X91852Y36796I-135J1221*
G01*
G75*
G03X91718Y36789I-2J-1225*
G01*
G75*
G03X91595Y36767I101J-917*
G01*
G75*
G03X91498Y36735I172J-691*
G01*
G75*
G03X91452Y36696I37J-90*
G01*
G75*
G02X91407Y36658I-82J50*
G01*
G75*
G02X91309Y36626I-269J659*
G01*
G75*
G02X91186Y36604I-224J894*
G01*
G75*
G02X91052Y36596I-135J1221*
G01*
G75*
G03X90918Y36589I-2J-1225*
G01*
G75*
G03X90795Y36567I101J-917*
G01*
G75*
G03X90698Y36535I172J-691*
G01*
G75*
G03X90652Y36496I37J-90*
G01*
G75*
G02X90617Y36458I-117J72*
G01*
G75*
G02X90562Y36426I-180J244*
G01*
G75*
G02X90497Y36404I-143J314*
G01*
G75*
G02X90431Y36396I-66J284*
G01*
G75*
G03X90345Y36376I0J-194*
G01*
G75*
G03X90194Y36294I988J-1989*
G01*
G75*
G03X90021Y36181I1305J-2185*
G01*
G75*
G03X89846Y36047I1909J-2674*
G01*
G75*
G03X89474Y35646I1281J-1564*
G01*
G75*
G03X89091Y35026I5053J-3554*
G01*
G75*
G03X88790Y34383I5434J-2931*
G01*
G75*
G03X88702Y33927I1144J-458*
G01*
G75*
G02X88695Y33800I-1090J-2*
G01*
G75*
G02X88673Y33684I-836J98*
G01*
G75*
G02X88641Y33591I-624J163*
G01*
G75*
G02X88602Y33546I-91J40*
G01*
G75*
G03X88563Y33500I52J-82*
G01*
G75*
G03X88529Y33394I796J-318*
G01*
G75*
G03X88504Y33261I1057J-269*
G01*
G75*
G03X88492Y33116I1470J-189*
G01*
G75*
G02X88483Y32956I-2386J61*
G01*
G75*
G02X88462Y32781I-3474J326*
G01*
G75*
G02X88433Y32619I-3198J472*
G01*
G75*
G02X88402Y32496I-1082J214*
G01*
G75*
G03X88318Y32019I1711J-547*
G01*
G75*
G03X88310Y31190I13724J-545*
G01*
G75*
G03X88350Y30364I15609J330*
G01*
G75*
G03X88455Y29992I963J71*
G01*
X89057Y118143D02*
G75*
G03X89196Y117688I5253J1367D01*
G01*
G75*
G03X89412Y117119I13590J4825*
G01*
G75*
G03X89648Y116545I42635J17222*
G01*
G75*
G03X89722Y116496I73J31*
G01*
G75*
G03X89783Y116558J62*
G01*
G75*
G03X89723Y121087I-12355036J-159934*
G01*
G75*
G03X89662Y125590I-8601165J-115047*
G01*
G75*
G03X89598Y125741I-217J-3*
G01*
G75*
G02X89561Y125798I116J117*
G01*
G75*
G02X89530Y125896I750J288*
G01*
G75*
G02X89509Y126014I951J233*
G01*
G75*
G02X89502Y126135I1036J121*
G01*
G75*
G03X89456Y126361I-578J1*
G01*
G75*
G03X89315Y126620I-1396J-594*
G01*
G75*
G03X89137Y126834I-1190J-808*
G01*
G75*
G03X88985Y126896I-152J-154*
G01*
G75*
G03X88951Y126864J-33*
G01*
G75*
G03X88926Y125698I725747J-15784*
G01*
G75*
G03X88908Y124382I104177J-2091*
G01*
G75*
G03X88902Y122818I206495J-1614*
G01*
G75*
G03X88908Y120629I399426J55*
G01*
G75*
G03X88932Y119405I44353J244*
G01*
G75*
G03X88976Y118625I16843J553*
G01*
G75*
G03X89057Y118143I2799J222*
G01*
X89479Y104329D02*
G75*
G03X90078Y104131I1187J2580D01*
G01*
G75*
G03X90933Y103989I2017J9544*
G01*
G75*
G03X91900Y103915I1367J11379*
G01*
G75*
G03X92866Y103922I396J11248*
G01*
G75*
G03X93604Y103982I-630J12272*
G01*
G75*
G03X94024Y104088I-179J1600*
G01*
G75*
G03X94331Y104283I-367J917*
G01*
G75*
G03X94646Y104635I-1827J1951*
G01*
G75*
G03X94767Y104903I-546J407*
G01*
G75*
G03X94824Y105328I-2830J594*
G01*
G75*
G03X94848Y106108I-14488J837*
G01*
G75*
G03X94852Y108185I-491785J2064*
G01*
G75*
G03X94847Y110196I-409888J42*
G01*
G75*
G03X94822Y111035I-17069J-84*
G01*
G75*
G03X94766Y111522I-4033J-219*
G01*
G75*
G03X94652Y111877I-1356J-241*
G01*
G75*
G03X94427Y112114I-479J-229*
G01*
G75*
G03X94269Y112034I-51J-94*
G01*
G75*
G03X94206Y111209I6468J-912*
G01*
G75*
G03X94178Y108522I414956J-5600*
G01*
X94152Y104746*
X91577Y104720*
G75*
G03X90590Y104704I983J-92599*
G01*
G75*
G03X89759Y104680I978J-46674*
G01*
G75*
G03X89032Y104650I8932J-228811*
G01*
G75*
G03X89004Y104620I1J-30*
G01*
G75*
G03X89025Y104582I48J1*
G01*
G75*
G03X89144Y104504I1570J2284*
G01*
G75*
G03X89298Y104418I1292J2111*
G01*
G75*
G03X89479Y104329I1965J3787*
G01*
X92227Y128273D02*
G75*
G02X92790Y128237I-604J-13926D01*
G01*
G75*
G02X93255Y128181I-561J-6617*
G01*
G75*
G02X93663Y128101I-783J-5056*
G01*
G75*
G02X94052Y127989I-1071J-4457*
G01*
G75*
G02X94776Y127678I-1528J-4546*
G01*
G75*
G02X95523Y127221I-3434J-6462*
G01*
G75*
G02X96215Y126676I-4223J-6068*
G01*
G75*
G02X96772Y126096I-3402J-3820*
G01*
G75*
G03X97009Y125806I296990J243152*
G01*
G75*
G03X97286Y125468I537130J440327*
G01*
G75*
G03X97557Y125138I525222J431559*
G01*
G75*
G03X97778Y124871I225352J185301*
G01*
G75*
G02X97962Y124641I-9402J-7753*
G01*
G75*
G02X98124Y124428I-6578J-5168*
G01*
G75*
G02X98254Y124246I-7558J-5536*
G01*
G75*
G02X98291Y124171I-227J-159*
G01*
G75*
G03X98318Y124106I383J121*
G01*
G75*
G03X98374Y124005I2370J1234*
G01*
G75*
G03X98443Y123892I2610J1514*
G01*
G75*
G03X98517Y123781I2609J1659*
G01*
G75*
G02X98587Y123665I-889J-621*
G01*
G75*
G02X98648Y123534I-1183J-624*
G01*
G75*
G02X98689Y123409I-1100J-437*
G01*
G75*
G02X98702Y123312I-356J-96*
G01*
G75*
G03X98709Y123230I464J0*
G01*
G75*
G03X98731Y123150I449J81*
G01*
G75*
G03X98764Y123085I344J130*
G01*
G75*
G03X98802Y123046I102J62*
G01*
G75*
G02X98841Y123006I-57J-94*
G01*
G75*
G02X98873Y122933I-381J-211*
G01*
G75*
G02X98895Y122843I-528J-176*
G01*
G75*
G02X98902Y122746I-619J-94*
G01*
G75*
G03X98909Y122651I624J1*
G01*
G75*
G03X98931Y122560I550J86*
G01*
G75*
G03X98964Y122487I413J138*
G01*
G75*
G03X99002Y122446I96J53*
G01*
G75*
G02X99041Y122401I-50J-83*
G01*
G75*
G02X99073Y122304I-659J-269*
G01*
G75*
G02X99095Y122181I-894J-224*
G01*
G75*
G02X99102Y122046I-1221J-132*
G01*
G75*
G03X99109Y121913I1225J1*
G01*
G75*
G03X99131Y121790I917J101*
G01*
G75*
G03X99163Y121692I691J172*
G01*
G75*
G03X99202Y121646I90J37*
G01*
G75*
G02X99242Y121587I-44J-73*
G01*
G75*
G02X99273Y121342I-5725J-852*
G01*
G75*
G02X99295Y121041I-4776J-501*
G01*
G75*
G02X99302Y120696I-8198J-341*
G01*
G75*
G03X99309Y120352I8196J6*
G01*
G75*
G03X99331Y120051I4798J200*
G01*
G75*
G03X99363Y119807I5756J608*
G01*
G75*
G03X99402Y119746I85J12*
G01*
G75*
G02X99442Y119687I-44J-73*
G01*
G75*
G02X99473Y119442I-5725J-852*
G01*
G75*
G02X99495Y119141I-4776J-501*
G01*
G75*
G02X99502Y118796I-8198J-341*
G01*
G75*
G03X99509Y118452I8196J6*
G01*
G75*
G03X99531Y118151I4798J200*
G01*
G75*
G03X99563Y117907I5756J608*
G01*
G75*
G03X99602Y117846I85J12*
G01*
G75*
G02X99641Y117801I-50J-83*
G01*
G75*
G02X99673Y117704I-659J-269*
G01*
G75*
G02X99695Y117581I-894J-224*
G01*
G75*
G02X99702Y117446I-1221J-132*
G01*
G75*
G03X99709Y117313I1225J1*
G01*
G75*
G03X99731Y117190I917J101*
G01*
G75*
G03X99763Y117092I691J172*
G01*
G75*
G03X99802Y117046I90J37*
G01*
G75*
G02X99841Y117007I-58J-95*
G01*
G75*
G02X99873Y116935I-367J-208*
G01*
G75*
G02X99895Y116846I-511J-174*
G01*
G75*
G02X99902Y116753I-583J-91*
G01*
G75*
G03X99935Y116513I884J1*
G01*
G75*
G03X100047Y116176I3745J1054*
G01*
G75*
G03X100244Y115708I7565J2900*
G01*
G75*
G03X100568Y115018I35467J16230*
G01*
G75*
G03X101139Y114107I4325J2080*
G01*
G75*
G03X101888Y113370I3435J2739*
G01*
G75*
G03X102752Y112861I2438J3153*
G01*
G75*
G03X103664Y112624I1232J2868*
G01*
X104202Y112569*
Y112052*
G75*
G03X104215Y111731I4126J2*
G01*
G75*
G03X104263Y111564I426J33*
G01*
G75*
G03X104376Y111427I396J210*
G01*
G75*
G03X104641Y111226I2988J3663*
G01*
G75*
G02X104901Y111023I-1922J-2731*
G01*
G75*
G02X105034Y110859I-400J-461*
G01*
G75*
G02X105118Y110643I-718J-403*
G01*
G75*
G02X105205Y110219I-8236J-1912*
G01*
G75*
G02X105272Y109617I-4541J-812*
G01*
G75*
G02X105282Y108844I-11968J-539*
G01*
G75*
G02X105239Y107665I-33686J648*
G01*
G75*
G02X105114Y105496I-334956J18190*
G01*
G75*
G02X105040Y104490I-38850J2365*
G01*
G75*
G02X104954Y103959I-3658J319*
G01*
G75*
G02X104820Y103618I-1274J303*
G01*
G75*
G02X104603Y103346I-940J529*
G01*
G75*
G02X104413Y103235I-364J404*
G01*
G75*
G02X104150Y103178I-383J1130*
G01*
G75*
G02X103698Y103154I-484J4848*
G01*
G75*
G02X102667Y103152I-744J99493*
G01*
G75*
G02X101559Y103162I314J93904*
G01*
G75*
G02X101090Y103196I61J4101*
G01*
G75*
G02X100742Y103280I218J1670*
G01*
G75*
G02X100302Y103460I1713J4809*
G01*
G75*
G02X100043Y103588I2569J5520*
G01*
G75*
G02X99803Y103723I2346J4474*
G01*
G75*
G02X99606Y103847I2335J3912*
G01*
G75*
G02X99515Y103930I234J349*
G01*
G75*
G03X99456Y103994I-576J-474*
G01*
G75*
G03X99392Y104048I-444J-463*
G01*
G75*
G03X99332Y104086I-305J-412*
G01*
G75*
G03X99289Y104096I-43J-80*
G01*
G75*
G02X99106Y104161J292*
G01*
G75*
G02X98563Y104611I15613J19390*
G01*
G75*
G02X98033Y105087I8738J10253*
G01*
G75*
G02X97666Y105480I3057J3222*
G01*
G75*
G02X97036Y106420I4360J3604*
G01*
G75*
G02X96614Y107455I4764J2546*
G01*
G75*
G02X96351Y108749I7724J2246*
G01*
G75*
G02X96204Y110508I24931J2972*
G01*
G75*
G03X96102Y111843I-24689J-1201*
G01*
G75*
G03X95926Y113243I-30418J-3128*
G01*
G75*
G03X95713Y114481I-29444J-4411*
G01*
G75*
G03X95508Y115146I-3183J-617*
G01*
G75*
G02X95467Y115247I3481J1487*
G01*
G75*
G02X95411Y115391I13543J5404*
G01*
G75*
G02X95351Y115548I15008J5756*
G01*
G75*
G02X95297Y115696I11784J4366*
G01*
G75*
G03X94957Y116457I-5090J-1824*
G01*
G75*
G03X94500Y117165I-4978J-2706*
G01*
G75*
G03X93993Y117736I-3841J-2901*
G01*
G75*
G03X93502Y118072I-1259J-1313*
G01*
G75*
G02X93340Y118165I500J1068*
G01*
G75*
G02X93137Y118311I2081J3080*
G01*
G75*
G02X92931Y118484I2506J3207*
G01*
G75*
G02X92752Y118657I1991J2239*
G01*
G75*
G03X92514Y118884I-2450J-2327*
G01*
G75*
G03X92311Y119024I-715J-824*
G01*
G75*
G03X92075Y119118I-557J-1048*
G01*
G75*
G03X91727Y119200I-1203J-4311*
G01*
X91102Y119323*
Y128322*
X92227Y128273*
X98398Y121396D02*
G75*
G03X98502Y120124I31378J1913D01*
G01*
G75*
G03X98646Y119086I14298J1456*
G01*
G75*
G03X98846Y118175I10890J1918*
G01*
G75*
G03X99121Y117296I10150J2692*
G01*
G75*
G03X99366Y116684I9128J3294*
G01*
G75*
G03X99654Y116085I9107J4011*
G01*
G75*
G03X99804Y115870I913J477*
G01*
G75*
G03X99852Y115896I21J19*
G01*
G75*
G02X99822Y116012I4252J1161*
G01*
G75*
G02X99788Y116154I9485J2335*
G01*
G75*
G02X99756Y116299I9678J2212*
G01*
G75*
G02X99731Y116423I5178J1117*
G01*
G75*
G03X99705Y116533I-1110J-209*
G01*
G75*
G03X99669Y116634I-896J-264*
G01*
G75*
G03X99628Y116715I-700J-296*
G01*
G75*
G03X99591Y116754I-96J-55*
G01*
G75*
G02X99556Y116796I43J70*
G01*
G75*
G02X99528Y116892I730J265*
G01*
G75*
G02X99509Y117013I963J219*
G01*
G75*
G02X99502Y117146I1371J136*
G01*
G75*
G03X99495Y117281I-1228J2*
G01*
G75*
G03X99473Y117404I-917J-101*
G01*
G75*
G03X99441Y117501I-691J-172*
G01*
G75*
G03X99402Y117546I-89J-37*
G01*
G75*
G02X99363Y117607I45J72*
G01*
G75*
G02X99331Y117851I5725J852*
G01*
G75*
G02X99309Y118152I4776J501*
G01*
G75*
G02X99302Y118496I8188J350*
G01*
G75*
G03X99295Y118841I-8205J4*
G01*
G75*
G03X99273Y119142I-4798J-200*
G01*
G75*
G03X99242Y119387I-5756J-608*
G01*
G75*
G03X99202Y119446I-84J-13*
G01*
G75*
G02X99163Y119507I45J72*
G01*
G75*
G02X99131Y119751I5725J852*
G01*
G75*
G02X99109Y120052I4776J501*
G01*
G75*
G02X99102Y120396I8188J350*
G01*
G75*
G03X99095Y120741I-8205J4*
G01*
G75*
G03X99073Y121042I-4798J-200*
G01*
G75*
G03X99042Y121287I-5756J-608*
G01*
G75*
G03X99002Y121346I-84J-13*
G01*
G75*
G02X98963Y121392I51J82*
G01*
G75*
G02X98931Y121490I659J269*
G01*
G75*
G02X98909Y121613I894J224*
G01*
G75*
G02X98902Y121746I1218J135*
G01*
G75*
G03X98895Y121881I-1228J2*
G01*
G75*
G03X98873Y122004I-917J-101*
G01*
G75*
G03X98841Y122101I-691J-172*
G01*
G75*
G03X98802Y122146I-89J-37*
G01*
G75*
G02X98764Y122187I58J93*
G01*
G75*
G02X98731Y122260I381J211*
G01*
G75*
G02X98709Y122351I528J176*
G01*
G75*
G02X98702Y122446I616J96*
G01*
G75*
G03X98695Y122543I-626J2*
G01*
G75*
G03X98673Y122633I-550J-86*
G01*
G75*
G03X98641Y122706I-413J-138*
G01*
G75*
G03X98602Y122746I-96J-54*
G01*
G75*
G02X98564Y122787I59J94*
G01*
G75*
G02X98531Y122858I367J208*
G01*
G75*
G02X98509Y122947I509J174*
G01*
G75*
G02X98502Y123040I585J94*
G01*
G75*
G03X98490Y123139I-406*
G01*
G75*
G03X98454Y123244I-613J-152*
G01*
G75*
G03X98400Y123340I-559J-253*
G01*
G75*
G03X98336Y123409I-280J-191*
G01*
G75*
G03X98239Y123483I-945J-1143*
G01*
G75*
G03X98207Y123476I-13J-19*
G01*
G75*
G03X98199Y123429I57J-35*
G01*
G75*
G03X98237Y123246I6579J1269*
G01*
G75*
G02X98267Y123054I-1578J-351*
G01*
G75*
G02X98311Y122580I-41574J-4100*
G01*
G75*
G02X98357Y122012I-38952J-3394*
G01*
G75*
G02X98398Y121396I-53841J-3924*
G01*
X100676Y103593D02*
G75*
G03X100995Y103469I976J2039D01*
G01*
G75*
G03X101316Y103401I549J1820*
G01*
G75*
G03X101767Y103369I559J4595*
G01*
G75*
G03X102619Y103356I1161J49678*
G01*
G75*
G03X103561Y103355I541J83949*
G01*
G75*
G03X103926Y103381I-16J2750*
G01*
G75*
G03X104148Y103452I-94J687*
G01*
G75*
G03X104353Y103596I-419J811*
G01*
G75*
G03X104642Y103983I-932J996*
G01*
G75*
G03X104794Y104464I-1443J720*
G01*
G75*
G03X104888Y105353I-10127J1521*
G01*
G75*
G03X105066Y108346I-723555J44613*
G01*
G75*
G03X105080Y109178I-10197J590*
G01*
G75*
G03X105017Y109880I-5318J-126*
G01*
G75*
G03X104885Y110427I-3504J-552*
G01*
G75*
G03X104685Y110765I-859J-281*
G01*
G75*
G03X104429Y110874I-250J-235*
G01*
G75*
G03X104265Y110731I3J-169*
G01*
G75*
G03X104205Y110033I4832J-766*
G01*
G75*
G03X104178Y107572I398372J-5564*
G01*
X104152Y104146*
X102152Y104089*
G75*
G03X101383Y104066I7219J-247509*
G01*
G75*
G03X100731Y104043I4107J-128899*
G01*
G75*
G03X100148Y104022I39730J-1076944*
G01*
G75*
G03X100121Y104014I2J-59*
G01*
G75*
G03X100109Y103956I19J-34*
G01*
G75*
G03X100206Y103860I407J311*
G01*
G75*
G03X100397Y103736I939J1237*
G01*
G75*
G03X100676Y103593I2613J4746*
G01*
X103464Y37325D02*
G75*
G02X103504Y37353I93J-92D01*
G01*
G75*
G02X103569Y37376I195J-451*
G01*
G75*
G02X103645Y37391I156J-563*
G01*
G75*
G02X103722Y37396I76J-556*
G01*
G75*
G03X103798Y37408I-1J261*
G01*
G75*
G03X103870Y37441I-90J298*
G01*
G75*
G03X103930Y37489I-152J246*
G01*
G75*
G03X103966Y37546I-128J121*
G01*
G75*
G02X104078Y37655I172J-66*
G01*
G75*
G02X104302Y37693I228J-662*
G01*
G75*
G02X104524Y37658I4J-696*
G01*
G75*
G02X104637Y37551I-57J-172*
G01*
G75*
G03X104706Y37480I118J46*
G01*
G75*
G03X104865Y37431I318J752*
G01*
G75*
G03X105119Y37397I397J2012*
G01*
G75*
G03X105522Y37376I816J11637*
G01*
X106352Y37346*
Y36646*
X104652Y36546*
X104602Y36096*
G75*
G02X104566Y35839I-4296J473*
G01*
G75*
G02X104519Y35722I-300J52*
G01*
G75*
G02X104440Y35665I-115J77*
G01*
G75*
G02X104302Y35646I-139J509*
G01*
G75*
G02X104164Y35665I1J529*
G01*
G75*
G02X104085Y35721I36J133*
G01*
G75*
G02X104039Y35838I252J169*
G01*
G75*
G02X104002Y36093I4131J724*
G01*
G75*
G03X103966Y36334I-3136J-347*
G01*
G75*
G03X103915Y36467I-404J-78*
G01*
G75*
G03X103834Y36546I-187J-111*
G01*
G75*
G03X103702Y36596I-246J-441*
G01*
G75*
G02X103581Y36641I121J520*
G01*
G75*
G02X103500Y36707I109J216*
G01*
G75*
G02X103450Y36807I225J175*
G01*
G75*
G02X103422Y36954I849J235*
G01*
G75*
G02X103416Y37074I1249J126*
G01*
G75*
G02X103422Y37187I980J2*
G01*
G75*
G02X103438Y37279I786J-87*
G01*
G75*
G02X103464Y37325I94J-22*
G01*
X103472Y34520D02*
G75*
G02X103536Y34537I65J-124D01*
G01*
G75*
G02X103949Y34537I328J-63719*
G01*
G75*
G02X104429Y34532I-44J-26621*
G01*
G75*
G02X104983Y34518I-931J-47236*
G01*
X106413Y34474*
X106383Y34160*
X106352Y33846*
X103452*
X103422Y34162*
G75*
G02X103416Y34286I1244J121*
G01*
G75*
G02X103424Y34398I821J-2*
G01*
G75*
G02X103442Y34484I607J-84*
G01*
G75*
G02X103472Y34520I57J-17*
G01*
X103526Y93150D02*
G75*
G02X103626Y93170I109J-282D01*
G01*
G75*
G02X104017Y93179I913J-32430*
G01*
G75*
G02X104482Y93181I340J-21123*
G01*
G75*
G02X105007Y93175I-176J-34432*
G01*
X106352Y93146*
Y92446*
X103452*
X103421Y92772*
G75*
G02X103416Y92914I1105J108*
G01*
G75*
G02X103433Y93026I476J-16*
G01*
G75*
G02X103470Y93106I262J-73*
G01*
G75*
G02X103526Y93150I98J-67*
G01*
X103602Y58996D02*
G75*
G02X103765Y59106I356J-356D01*
G01*
G75*
G02X103982Y59164I330J-796*
G01*
G75*
G02X104342Y59191I409J-3065*
G01*
G75*
G02X105102Y59196I757J-48477*
G01*
X106402*
Y58496*
X104613*
X104583Y58022*
X104552Y57546*
X103977Y57517*
X103402Y57487*
Y58142*
G75*
G02X103411Y58484I6571J-2*
G01*
G75*
G02X103443Y58705I1256J-67*
G01*
G75*
G02X103503Y58864I618J-144*
G01*
G75*
G02X103602Y58996I508J-276*
G01*
X103696Y57896D02*
G75*
G03X103735Y57920J44D01*
G01*
G75*
G03X103772Y58007I-513J270*
G01*
G75*
G03X103802Y58128I-817J272*
G01*
G75*
G03X103821Y58272I-1522J273*
G01*
G75*
G02X103844Y58439I1633J-135*
G01*
G75*
G02X103881Y58554I453J-85*
G01*
G75*
G02X103935Y58622I185J-90*
G01*
G75*
G02X104070I68J-81*
G01*
G75*
G02X104123Y58554I-132J-158*
G01*
G75*
G02X104161Y58439I-415J-200*
G01*
G75*
G02X104183Y58272I-1611J-302*
G01*
G75*
G03X104202Y58128I1647J139*
G01*
G75*
G03X104231Y58007I899J155*
G01*
G75*
G03X104266Y57919I606J191*
G01*
G75*
G03X104338I36J18*
G01*
G75*
G03X104373Y58007I-570J278*
G01*
G75*
G03X104403Y58128I-870J276*
G01*
G75*
G03X104421Y58272I-1628J283*
G01*
X104452Y58646*
X105277Y58676*
G75*
G03X105696Y58696I-496J14178*
G01*
G75*
G03X105931Y58729I-109J1640*
G01*
G75*
G03X106059Y58778I-94J444*
G01*
G75*
G03X106102Y58851I-41J73*
G01*
G75*
G03X106054Y58925I-81J0*
G01*
G75*
G03X105905Y58968I-230J-515*
G01*
G75*
G03X105627Y58991I-324J-2243*
G01*
G75*
G03X105098Y58996I-526J-25070*
G01*
G75*
G03X104490Y58990I0J-27578*
G01*
G75*
G03X104208Y58959I35J-1649*
G01*
G75*
G03X104023Y58888I111J-565*
G01*
G75*
G03X103848Y58751I469J-781*
G01*
G75*
G03X103696Y58530I513J-513*
G01*
G75*
G03X103606Y58233I1192J-524*
G01*
G75*
G03X103600Y57982I832J-148*
G01*
G75*
G03X103696Y57896I96J12*
G01*
X103952Y36796D02*
G75*
G02X104078Y36731I-221J-584D01*
G01*
G75*
G02X104153Y36651I-131J-196*
G01*
G75*
G02X104191Y36534I-279J-156*
G01*
G75*
G02X104202Y36349I-1506J-183*
G01*
G75*
G03X104220Y36066I2196J2*
G01*
G75*
G03X104297Y36006I69J9*
G01*
G75*
G03X104380Y36080I-9J94*
G01*
G75*
G03X104421Y36372I-2419J495*
G01*
X104452Y36746*
X105252Y36796*
G75*
G03X105657Y36828I-806J12832*
G01*
G75*
G03X105885Y36867I-144J1530*
G01*
G75*
G03X106010Y36921I-106J418*
G01*
G75*
G03X106011Y37072I-47J76*
G01*
G75*
G03X105889Y37122I-206J-328*
G01*
G75*
G03X105664Y37155I-324J-1441*
G01*
G75*
G03X105255Y37176I-919J-13489*
G01*
G75*
G02X104946Y37194I255J7005*
G01*
G75*
G02X104675Y37226I342J4174*
G01*
G75*
G02X104456Y37263I699J4761*
G01*
G75*
G02X104398Y37303I17J85*
G01*
G75*
G03X104293Y37343I-78J-49*
G01*
G75*
G03X104024Y37242I611J-2042*
G01*
G75*
G03X103767Y37103I891J-1964*
G01*
G75*
G03X103702Y36987I73J-117*
G01*
G75*
G03X103719Y36944I65J0*
G01*
G75*
G03X103776Y36892I311J282*
G01*
G75*
G03X103856Y36840I357J469*
G01*
G75*
G03X103952Y36796I399J747*
G01*
X104101Y90861D02*
G75*
G02X104255Y91100I706J-285D01*
G01*
G75*
G02X104486Y91267I563J-534*
G01*
G75*
G02X104807Y91365I491J-1035*
G01*
G75*
G02X105232Y91396I422J-2852*
G01*
G75*
G02X105567Y91386I2J-5202*
G01*
G75*
G02X105767Y91347I-50J-796*
G01*
G75*
G02X105928Y91263I-178J-533*
G01*
G75*
G02X106110Y91104I-1034J-1375*
G01*
G75*
G02X106274Y90914I-1193J-1193*
G01*
G75*
G02X106357Y90747I-428J-317*
G01*
G75*
G02X106393Y90526I-895J-262*
G01*
G75*
G02X106402Y90104I-9806J-412*
G01*
Y89396*
X106102*
G75*
G02X105925Y89409I3J1326*
G01*
G75*
G02X105846Y89454I16J119*
G01*
G75*
G02X105810Y89550I140J107*
G01*
G75*
G02X105802Y89784I3463J239*
G01*
G75*
G03X105791Y89946I-1227J1*
G01*
G75*
G03X105759Y90097I-1005J-133*
G01*
G75*
G03X105711Y90221I-755J-222*
G01*
G75*
G03X105652Y90296I-205J-100*
G01*
G75*
G03X105576Y90291I-35J-42*
G01*
G75*
G03X105528Y90185I146J-131*
G01*
G75*
G03X105506Y89887I2482J-327*
G01*
G75*
G03X105502Y89159I63288J-741*
G01*
Y87896*
X104959*
G75*
G02X104656Y87907I4J4631*
G01*
G75*
G02X104476Y87943I44J674*
G01*
G75*
G02X104343Y88020I137J391*
G01*
G75*
G02X104209Y88160I656J761*
G01*
G75*
G02X104099Y88349I632J497*
G01*
G75*
G02X104039Y88568I846J351*
G01*
G75*
G02X104012Y88898I2543J372*
G01*
G75*
G02X104009Y89535I29460J464*
G01*
G75*
G02X104017Y89976I15632J-86*
G01*
G75*
G02X104038Y90383I11326J-377*
G01*
G75*
G02X104067Y90722I11616J-815*
G01*
G75*
G02X104101Y90861I504J-50*
G01*
X104118Y70246D02*
G75*
G02X104171Y70332I796J-433D01*
G01*
G75*
G02X104241Y70425I1284J-900*
G01*
G75*
G02X104316Y70509I1172J-960*
G01*
G75*
G02X104384Y70572I488J-466*
G01*
G75*
G02X104591Y70656I246J-309*
G01*
G75*
G02X105118Y70693I877J-8720*
G01*
G75*
G02X105648Y70695I298J-7293*
G01*
G75*
G02X105948Y70635I-30J-919*
G01*
G75*
G02X106136Y70488I-148J-385*
G01*
G75*
G02X106280Y70210I-930J-659*
G01*
G75*
G02X106372Y69824I-1750J-620*
G01*
G75*
G02X106402Y69352I-3715J-472*
G01*
Y68696*
X106102*
G75*
G02X105929Y68708I3J1365*
G01*
G75*
G02X105849Y68750I16J126*
G01*
G75*
G02X105811Y68839I117J103*
G01*
G75*
G02X105802Y69039I2211J200*
G01*
G75*
G03X105788Y69308I-2607J2*
G01*
G75*
G03X105744Y69517I-1030J-107*
G01*
G75*
G03X105678Y69652I-481J-154*
G01*
G75*
G03X105591Y69696I-86J-61*
G01*
G75*
G03X105556Y69664J-36*
G01*
G75*
G03X105528Y69330I17085J-1557*
G01*
G75*
G03X105509Y68926I9052J-644*
G01*
G75*
G03X105502Y68446I17894J-490*
G01*
Y67196*
X104998*
G75*
G02X104731Y67208I4J3109*
G01*
G75*
G02X104545Y67246I70J822*
G01*
G75*
G02X104395Y67320I184J565*
G01*
G75*
G02X104248Y67442I579J848*
G01*
G75*
G02X104108Y67625I610J610*
G01*
G75*
G02X104038Y67822I522J298*
G01*
G75*
G02X104009Y68134I2002J339*
G01*
G75*
G02X104005Y68867I44894J632*
G01*
G75*
G02X104014Y69338I14162J-36*
G01*
G75*
G02X104039Y69762I9344J-334*
G01*
G75*
G02X104074Y70110I9422J-773*
G01*
G75*
G02X104118Y70246I374J-45*
G01*
X104158Y53874D02*
G75*
G02X104280Y53996I400J-280D01*
G01*
G75*
G02X104431Y54061I239J-344*
G01*
G75*
G02X104678Y54090I281J-1319*
G01*
G75*
G02X105202Y54096I515J-21064*
G01*
G75*
G02X105958Y54049I1J-6015*
G01*
G75*
G02X106256Y53856I-51J-405*
G01*
G75*
G02X106381Y53435I-737J-448*
G01*
G75*
G02X106402Y52124I-40766J-1304*
G01*
Y50596*
X105802*
Y51803*
G75*
G03X105794Y52280I-15024J2*
G01*
G75*
G03X105772Y52712I-10292J-326*
G01*
G75*
G03X105739Y53071I-11123J-820*
G01*
G75*
G03X105699Y53203I-359J-38*
G01*
G75*
G03X105628Y53293I-285J-153*
G01*
G75*
G03X105530Y53353I-218J-246*
G01*
G75*
G03X105393Y53386I-195J-502*
G01*
G75*
G03X105202Y53396I-189J-1743*
G01*
G75*
G03X105012Y53386I-1J-1749*
G01*
G75*
G03X104875Y53353I58J-535*
G01*
G75*
G03X104777Y53293I120J-306*
G01*
G75*
G03X104706Y53203I213J-243*
G01*
G75*
G03X104665Y53071I319J-170*
G01*
G75*
G03X104633Y52712I11091J-1179*
G01*
G75*
G03X104610Y52280I10269J-759*
G01*
G75*
G03X104602Y51803I15017J-487*
G01*
Y50596*
X104002*
Y52124*
G75*
G02X104009Y52922I48752J-11*
G01*
G75*
G02X104033Y53391I6491J-108*
G01*
G75*
G02X104079Y53692I2525J-225*
G01*
G75*
G02X104158Y53874I487J-103*
G01*
X104209Y32333D02*
G75*
G02X104355Y32481I731J-576D01*
G01*
G75*
G02X104504Y32557I253J-311*
G01*
G75*
G02X104726Y32589I252J-945*
G01*
G75*
G02X105194Y32596I459J-14850*
G01*
G75*
G02X105885Y32549I2J-5041*
G01*
G75*
G02X106188Y32367I-62J-444*
G01*
G75*
G02X106331Y31975I-628J-452*
G01*
G75*
G02X106385Y30940I-20174J-1578*
G01*
G75*
G02X106401Y30144I-57844J-1543*
G01*
G75*
G02X106380Y29834I-1946J-25*
G01*
G75*
G02X106311Y29639I-533J79*
G01*
G75*
G02X106165Y29450I-819J482*
G01*
G75*
G02X105998Y29313I-778J779*
G01*
G75*
G02X105834Y29239I-303J453*
G01*
G75*
G02X105609Y29206I-270J1031*
G01*
G75*
G02X105202Y29196I-414J9447*
G01*
G75*
G02X104799Y29206I8J9331*
G01*
G75*
G02X104573Y29239I47J1099*
G01*
G75*
G02X104409Y29311I138J533*
G01*
G75*
G02X104248Y29442I547J840*
G01*
G75*
G02X104108Y29625I606J606*
G01*
G75*
G02X104037Y29824I531J301*
G01*
G75*
G02X104008Y30139I2042J348*
G01*
G75*
G02X104002Y30879I45769J759*
G01*
G75*
G02X104009Y31564I35161J0*
G01*
G75*
G02X104037Y31913I2873J-57*
G01*
G75*
G02X104098Y32141I967J-138*
G01*
G75*
G02X104209Y32333I730J-294*
G01*
Y49233D02*
G75*
G02X104363Y49385I668J-524D01*
G01*
G75*
G02X104526Y49460I252J-333*
G01*
G75*
G02X104786Y49491I285J-1301*
G01*
G75*
G02X105409Y49496I611J-31644*
G01*
X106402*
Y48796*
X105606*
G75*
G03X105039Y48774I-2J-6993*
G01*
G75*
G03X104773Y48679I44J-545*
G01*
G75*
G03X104642Y48482I182J-263*
G01*
G75*
G03X104602Y48103I1785J-379*
G01*
G75*
G02X104592Y47930I-1491J-2*
G01*
G75*
G02X104553Y47847I-140J17*
G01*
G75*
G02X104472Y47807I-98J96*
G01*
G75*
G02X104302Y47796I-171J1368*
G01*
G75*
G02X104118Y47813I0J1062*
G01*
G75*
G02X104040Y47870I19J107*
G01*
G75*
G02X104007Y47997I263J135*
G01*
G75*
G02X104002Y48383I13707J389*
G01*
G75*
G02X104013Y48680I4139J-5*
G01*
G75*
G02X104047Y48900I1327J-94*
G01*
G75*
G02X104111Y49075I853J-209*
G01*
G75*
G02X104209Y49233I783J-380*
G01*
X104212Y97556D02*
G75*
G02X104380Y97658I349J-386D01*
G01*
G75*
G02X104605Y97714I356J-950*
G01*
G75*
G02X104969Y97741I423J-3270*
G01*
G75*
G02X105687Y97746I696J-41018*
G01*
X106952*
Y97401*
G75*
G02X106942Y97217I-1643J-1*
G01*
G75*
G02X106905Y97110I-257J29*
G01*
G75*
G02X106831Y97043I-152J95*
G01*
G75*
G02X106702Y96997I-269J545*
G01*
G75*
G03X106557Y96923I77J-331*
G01*
G75*
G03X106479Y96796I163J-188*
G01*
G75*
G03X106439Y96539I1331J-335*
G01*
G75*
G03X106402Y95809I55081J-3188*
G01*
G75*
G02X106330Y94896I-13140J579*
G01*
G75*
G02X106170Y94520I-712J81*
G01*
G75*
G02X105849Y94343I-387J320*
G01*
G75*
G02X105148Y94296I-701J5266*
G01*
G75*
G02X104712Y94304I3J12267*
G01*
G75*
G02X104498Y94338I33J911*
G01*
G75*
G02X104353Y94413I107J384*
G01*
G75*
G02X104209Y94560I602J733*
G01*
G75*
G02X104097Y94756I609J478*
G01*
G75*
G02X104037Y94990I942J369*
G01*
G75*
G02X104009Y95356I3117J422*
G01*
G75*
G02X104002Y96094I42333J753*
G01*
G75*
G02X104008Y96855I49954J-8*
G01*
G75*
G02X104035Y97196I2688J-42*
G01*
G75*
G02X104096Y97400I704J-101*
G01*
G75*
G02X104212Y97556I452J-214*
G01*
X104233Y27879D02*
G75*
G02X104400Y27996I495J-528D01*
G01*
G75*
G02X104589Y28060I312J-609*
G01*
G75*
G02X104876Y28090I335J-1850*
G01*
G75*
G02X105433Y28096I542J-21918*
G01*
X106402*
Y27396*
X105606*
G75*
G03X105004Y27369I-4J-6503*
G01*
G75*
G03X104750Y27250I39J-413*
G01*
G75*
G03X104630Y26996I291J-292*
G01*
G75*
G03X104602Y26396I6394J-603*
G01*
G75*
G03X104630Y25797I6418J3*
G01*
G75*
G03X104750Y25544I410J39*
G01*
G75*
G03X105004Y25424I293J293*
G01*
G75*
G03X105606Y25396I602J6476*
G01*
X106402*
Y24690*
X105330Y24718*
G75*
G02X104654Y24742I1122J41816*
G01*
G75*
G02X104390Y24778I61J1435*
G01*
G75*
G02X104242Y24853I76J331*
G01*
G75*
G02X104131Y24996I315J358*
G01*
G75*
G02X104076Y25169I510J258*
G01*
G75*
G02X104038Y25496I5300J791*
G01*
G75*
G02X104012Y25924I7598J669*
G01*
G75*
G02X104004Y26454I17701J554*
G01*
G75*
G02X104009Y27195I46911J46*
G01*
G75*
G02X104037Y27515I2211J-32*
G01*
G75*
G02X104104Y27711I604J-97*
G01*
G75*
G02X104233Y27879I591J-323*
G01*
Y73079D02*
G75*
G02X104400Y73196I495J-528D01*
G01*
G75*
G02X104589Y73260I312J-609*
G01*
G75*
G02X104876Y73290I335J-1850*
G01*
G75*
G02X105433Y73296I542J-21918*
G01*
X106402*
Y72596*
X105606*
G75*
G03X105039Y72574I-2J-6993*
G01*
G75*
G03X104773Y72479I44J-545*
G01*
G75*
G03X104642Y72282I182J-263*
G01*
G75*
G03X104602Y71903I1785J-379*
G01*
G75*
G02X104592Y71730I-1491J-2*
G01*
G75*
G02X104553Y71647I-140J17*
G01*
G75*
G02X104472Y71607I-98J96*
G01*
G75*
G02X104302Y71596I-171J1368*
G01*
X104002*
Y72229*
G75*
G02X104011Y72576I6576J-5*
G01*
G75*
G02X104045Y72785I993J-52*
G01*
G75*
G02X104114Y72937I507J-138*
G01*
G75*
G02X104233Y73079I670J-443*
G01*
X104246Y81991D02*
G75*
G02X104388Y82106I827J-879D01*
G01*
G75*
G02X104513Y82163I232J-337*
G01*
G75*
G02X104653Y82178I115J-424*
G01*
G75*
G02X104846Y82154I-88J-1521*
G01*
G75*
G02X105159Y82020I-143J-766*
G01*
G75*
G02X105362Y81771I-364J-502*
G01*
G75*
G02X105471Y81358I-1195J-536*
G01*
G75*
G02X105502Y80693I-7049J-663*
G01*
G75*
G03X105508Y80298I13604J6*
G01*
G75*
G03X105530Y80069I1754J53*
G01*
G75*
G03X105568Y79947I442J70*
G01*
G75*
G03X105627Y79921I44J21*
G01*
G75*
G03X105687Y79987I-29J87*
G01*
G75*
G03X105729Y80207I-2202J531*
G01*
G75*
G03X105761Y80538I-3927J541*
G01*
G75*
G03X105781Y81030I-18154J987*
G01*
X105809Y82096*
X106402*
Y80769*
G75*
G02X106381Y79731I-25626J-4*
G01*
G75*
G02X106282Y79284I-1294J52*
G01*
G75*
G02X106063Y79071I-359J150*
G01*
G75*
G02X105662Y78996I-402J1042*
G01*
G75*
G02X105270Y79049I0J1491*
G01*
G75*
G02X105046Y79209I104J383*
G01*
G75*
G02X104932Y79524I567J383*
G01*
G75*
G02X104902Y80121I5922J600*
G01*
G75*
G03X104898Y80424I-10295J4*
G01*
G75*
G03X104884Y80704I-7646J-225*
G01*
G75*
G03X104865Y80938I-7622J-498*
G01*
G75*
G03X104841Y81039I-383J-38*
G01*
G75*
G03X104757Y81176I-412J-158*
G01*
G75*
G03X104678Y81174I-39J-35*
G01*
G75*
G03X104618Y81031I211J-173*
G01*
G75*
G03X104602Y80746I2564J-285*
G01*
G75*
G02X104595Y80465I-5796J-3*
G01*
G75*
G02X104561Y80359I-209J10*
G01*
G75*
G02X104482Y80310I-94J63*
G01*
G75*
G02X104302Y80296I-183J1237*
G01*
X104002*
Y81029*
G75*
G02X104010Y81450I10730J0*
G01*
G75*
G02X104043Y81677I1097J-44*
G01*
G75*
G02X104115Y81837I493J-126*
G01*
G75*
G02X104246Y81991I757J-510*
G01*
X104247Y46632D02*
G75*
G02X104407Y46775I855J-791D01*
G01*
G75*
G02X104561Y46852I294J-396*
G01*
G75*
G02X104769Y46887I252J-849*
G01*
G75*
G02X105139Y46896I368J-7455*
G01*
G75*
G02X105399Y46892I6J-7397*
G01*
G75*
G02X105643Y46878I-209J-5887*
G01*
G75*
G02X105849Y46859I-425J-5517*
G01*
G75*
G02X105948Y46835I-45J-402*
G01*
G75*
G02X106136Y46688I-148J-385*
G01*
G75*
G02X106280Y46410I-930J-659*
G01*
G75*
G02X106372Y46024I-1750J-620*
G01*
G75*
G02X106402Y45552I-3715J-472*
G01*
Y44896*
X106102*
G75*
G02X105929Y44908I3J1365*
G01*
G75*
G02X105849Y44950I16J126*
G01*
G75*
G02X105811Y45039I117J103*
G01*
G75*
G02X105802Y45239I2211J200*
G01*
G75*
G03X105788Y45508I-2607J2*
G01*
G75*
G03X105744Y45717I-1030J-107*
G01*
G75*
G03X105678Y45852I-481J-154*
G01*
G75*
G03X105591Y45896I-86J-61*
G01*
G75*
G03X105556Y45864J-36*
G01*
G75*
G03X105528Y45530I17085J-1557*
G01*
G75*
G03X105509Y45126I9052J-644*
G01*
G75*
G03X105502Y44646I17894J-490*
G01*
Y43396*
X105016*
G75*
G02X104779Y43409I1J2317*
G01*
G75*
G02X104582Y43446I122J1195*
G01*
G75*
G02X104414Y43510I253J906*
G01*
G75*
G02X104266Y43604I380J766*
G01*
G75*
G02X104112Y43767I467J594*
G01*
G75*
G02X104036Y43950I381J264*
G01*
G75*
G02X104007Y44258I1867J330*
G01*
G75*
G02X104002Y45089I66442J856*
G01*
G75*
G02X104008Y45886I54033J-2*
G01*
G75*
G02X104037Y46223I2367J-35*
G01*
G75*
G02X104108Y46435I677J-108*
G01*
G75*
G02X104247Y46632I817J-431*
G01*
X104258Y50935D02*
G75*
G03X104346Y50935I44J5D01*
G01*
G75*
G03X104375Y51220I-7452J917*
G01*
G75*
G03X104396Y51596I-6516J543*
G01*
G75*
G03X104402Y52089I-18874J488*
G01*
G75*
G02X104407Y52557I24813J-17*
G01*
G75*
G02X104420Y52977I16138J-304*
G01*
G75*
G02X104439Y53328I20478J-926*
G01*
G75*
G02X104463Y53439I373J-23*
G01*
G75*
G02X104528Y53515I142J-54*
G01*
G75*
G02X104653Y53564I214J-366*
G01*
G75*
G02X104858Y53590I256J-1194*
G01*
G75*
G02X105202Y53596I335J-8393*
G01*
G75*
G02X105546Y53590I9J-8409*
G01*
G75*
G02X105752Y53564I-50J-1220*
G01*
G75*
G02X105876Y53515I-90J-414*
G01*
G75*
G02X105941Y53439I-76J-131*
G01*
G75*
G02X105965Y53328I-349J-133*
G01*
G75*
G02X105984Y52977I-20459J-1277*
G01*
G75*
G02X105998Y52557I-16124J-724*
G01*
G75*
G02X106002Y52089I-24808J-464*
G01*
G75*
G03X106009Y51596I18881J10*
G01*
G75*
G03X106029Y51220I6536J167*
G01*
G75*
G03X106059Y50935I7481J632*
G01*
G75*
G03X106146Y50935I44J6*
G01*
G75*
G03X106175Y51231I-8193J957*
G01*
G75*
G03X106196Y51620I-6986J562*
G01*
G75*
G03X106202Y52133I-20506J508*
G01*
G75*
G03X106196Y52849I-39133J13*
G01*
G75*
G03X106168Y53207I-3024J-55*
G01*
G75*
G03X106107Y53439I-987J-137*
G01*
G75*
G03X105995Y53633I-724J-287*
G01*
G75*
G03X105859Y53775I-783J-616*
G01*
G75*
G03X105723Y53852I-265J-309*
G01*
G75*
G03X105535Y53887I-228J-686*
G01*
G75*
G03X105202Y53896I-328J-5939*
G01*
G75*
G03X104869Y53887I-5J-5941*
G01*
G75*
G03X104681Y53852I41J-722*
G01*
G75*
G03X104546Y53775I129J-386*
G01*
G75*
G03X104409Y53633I647J-758*
G01*
G75*
G03X104298Y53439I613J-481*
G01*
G75*
G03X104237Y53207I926J-368*
G01*
G75*
G03X104209Y52849I2996J-414*
G01*
G75*
G03X104202Y52133I39127J-724*
G01*
G75*
G03X104209Y51620I20512J11*
G01*
G75*
G03X104229Y51231I7007J172*
G01*
G75*
G03X104258Y50935I8222J662*
G01*
X104267Y85114D02*
G75*
G03X104434Y85154I-81J715D01*
G01*
G75*
G03X104519Y85229I-54J147*
G01*
G75*
G03X104565Y85378I-383J199*
G01*
G75*
G03X104602Y85761I-11270J1293*
G01*
G75*
G02X104683Y86280I3545J-289*
G01*
G75*
G02X104839Y86583I683J-159*
G01*
G75*
G02X105100Y86744I393J-344*
G01*
G75*
G02X105510Y86796I409J-1573*
G01*
G75*
G02X105770Y86785I2J-3025*
G01*
G75*
G02X105937Y86747I-53J-607*
G01*
G75*
G02X106066Y86669I-154J-403*
G01*
G75*
G02X106195Y86533I-666J-761*
G01*
G75*
G02X106307Y86335I-602J-474*
G01*
G75*
G02X106368Y86097I-965J-372*
G01*
G75*
G02X106396Y85721I-3283J-430*
G01*
G75*
G02X106402Y84952I-46886J-769*
G01*
G75*
G02X106375Y83851I-22430J-5*
G01*
G75*
G02X106238Y83439I-804J39*
G01*
G75*
G02X105929Y83247I-371J252*
G01*
G75*
G02X105214Y83196I-716J5060*
G01*
G75*
G02X104568Y83236J5317*
G01*
G75*
G02X104254Y83386I67J546*
G01*
G75*
G02X104090Y83696I389J404*
G01*
G75*
G02X104018Y84348I5503J935*
G01*
X103981Y85081*
X104267Y85114*
X104277Y40615D02*
G75*
G03X104437Y40657I-67J574D01*
G01*
G75*
G03X104522Y40739I-64J151*
G01*
G75*
G03X104568Y40904I-489J226*
G01*
G75*
G03X104611Y41338I-15465J1763*
G01*
G75*
G02X104697Y41872I3668J-316*
G01*
G75*
G02X104859Y42181I686J-162*
G01*
G75*
G02X105131Y42344I400J-361*
G01*
G75*
G02X105565Y42396I433J-1761*
G01*
G75*
G02X105817Y42385I1J-2685*
G01*
G75*
G02X105964Y42342I-38J-407*
G01*
G75*
G02X106077Y42250I-159J-311*
G01*
G75*
G02X106203Y42072I-1285J-1039*
G01*
G75*
G02X106308Y41842I-901J-549*
G01*
G75*
G02X106367Y41573I-1409J-448*
G01*
G75*
G02X106394Y41173I-3919J-475*
G01*
G75*
G02X106402Y40439I-38465J-759*
G01*
G75*
G02X106396Y39629I-58617J-6*
G01*
G75*
G02X106369Y39290I-2488J35*
G01*
G75*
G02X106302Y39085I-637J96*
G01*
G75*
G02X106171Y38914I-578J306*
G01*
G75*
G02X106017Y38802I-528J561*
G01*
G75*
G02X105848Y38737I-313J563*
G01*
G75*
G02X105611Y38705I-295J1294*
G01*
G75*
G02X105216Y38696I-395J9015*
G01*
G75*
G02X104804Y38705I2J9936*
G01*
G75*
G02X104575Y38739I47J1120*
G01*
G75*
G02X104410Y38811I136J534*
G01*
G75*
G02X104248Y38942I543J838*
G01*
G75*
G02X104117Y39103I710J710*
G01*
G75*
G02X104045Y39266I463J302*
G01*
G75*
G02X104011Y39490I1046J273*
G01*
G75*
G02X104002Y39885I8861J401*
G01*
G75*
G02X104007Y40339I19263J-8*
G01*
G75*
G02X104038Y40496I478J-11*
G01*
G75*
G02X104115Y40574I126J-48*
G01*
G75*
G02X104277Y40615I235J-592*
G01*
X104286Y63496D02*
G75*
G02X104471Y63658I1324J-1321D01*
G01*
G75*
G02X104631Y63744I351J-459*
G01*
G75*
G02X104826Y63785I249J-709*
G01*
G75*
G02X105140Y63796I313J-4296*
G01*
G75*
G02X105583Y63770I2J-3754*
G01*
G75*
G02X105908Y63687I-149J-1256*
G01*
G75*
G02X106138Y63542I-288J-711*
G01*
G75*
G02X106291Y63331I-440J-481*
G01*
G75*
G02X106335Y63179I-481J-220*
G01*
G75*
G02X106370Y62850I-7883J-1007*
G01*
G75*
G02X106394Y62457I-8379J-717*
G01*
G75*
G02X106402Y62037I-10846J-413*
G01*
G75*
G02X106361Y61041I-11953J-3*
G01*
G75*
G02X106187Y60585I-874J73*
G01*
G75*
G02X105823Y60363I-465J351*
G01*
G75*
G02X105088Y60298I-744J4233*
G01*
G75*
G02X104812Y60308I-9J3627*
G01*
G75*
G02X104600Y60341I99J1351*
G01*
G75*
G02X104430Y60399I207J870*
G01*
G75*
G02X104288Y60487I285J617*
G01*
G75*
G02X104155Y60643I361J446*
G01*
G75*
G02X104082Y60836I514J303*
G01*
G75*
G02X104045Y61164I2281J423*
G01*
G75*
G02X104019Y61937I51897J2158*
G01*
X103986Y63196*
X104286Y63496*
X104294Y95069D02*
G75*
G03X104434Y94797I1256J479D01*
G01*
G75*
G03X104612Y94623I506J339*
G01*
G75*
G03X104853Y94529I361J564*
G01*
G75*
G03X105184Y94500I319J1755*
G01*
G75*
G03X105696Y94589I-11J1581*
G01*
G75*
G03X106002Y94839I-192J548*
G01*
G75*
G03X106160Y95320I-990J591*
G01*
G75*
G03X106202Y96206I-9289J881*
G01*
G75*
G02X106207Y96779I30328J-5*
G01*
G75*
G02X106237Y96994I925J-18*
G01*
G75*
G02X106311Y97112I224J-58*
G01*
G75*
G02X106460Y97200I331J-391*
G01*
G75*
G03X106556Y97246I-209J549*
G01*
G75*
G03X106630Y97306I-193J320*
G01*
G75*
G03X106673Y97367I-166J161*
G01*
G75*
G03X106676Y97422I-67J31*
G01*
G75*
G03X106613Y97481I-85J-29*
G01*
G75*
G03X106418Y97517I-394J-1576*
G01*
G75*
G03X106122Y97540I-391J-3134*
G01*
G75*
G03X105676Y97546I-436J-15096*
G01*
G75*
G03X105106Y97539I-1J-22907*
G01*
G75*
G03X104828Y97509I39J-1629*
G01*
G75*
G03X104640Y97438I121J-606*
G01*
G75*
G03X104460Y97304I484J-840*
G01*
G75*
G03X104316Y97135I698J-740*
G01*
G75*
G03X104241Y96965I415J-283*
G01*
G75*
G03X104209Y96714I1241J-285*
G01*
G75*
G03X104202Y96186I19326J-538*
G01*
G75*
G03X104209Y95833I9284J10*
G01*
G75*
G03X104229Y95496I7699J290*
G01*
G75*
G03X104258Y95213I7023J579*
G01*
G75*
G03X104294Y95069I613J74*
G01*
X104297Y80596D02*
G75*
G03X104335Y80623J42D01*
G01*
G75*
G03X104372Y80736I-928J367*
G01*
G75*
G03X104403Y80889I-1271J335*
G01*
G75*
G03X104422Y81071I-2425J339*
G01*
G75*
G02X104446Y81315I3621J-234*
G01*
G75*
G02X104485Y81456I520J-68*
G01*
G75*
G02X104549Y81538I193J-85*
G01*
G75*
G02X104646Y81581I138J-179*
G01*
G75*
G02X104851Y81542I53J-278*
G01*
G75*
G02X104996Y81368I-202J-315*
G01*
G75*
G02X105079Y81022I-1089J-443*
G01*
G75*
G02X105102Y80459I-6787J-562*
G01*
G75*
G03X105110Y80014I12293J6*
G01*
G75*
G03X105141Y79761I1484J54*
G01*
G75*
G03X105206Y79586I637J135*
G01*
G75*
G03X105320Y79428I666J360*
G01*
G75*
G03X105513Y79257I1017J956*
G01*
G75*
G03X105667Y79211I143J195*
G01*
G75*
G03X105816Y79271I-12J243*
G01*
G75*
G03X105995Y79460I-944J1072*
G01*
G75*
G03X106104Y79646I-639J502*
G01*
G75*
G03X106166Y79859I-844J359*
G01*
G75*
G03X106195Y80176I-2365J377*
G01*
G75*
G03X106202Y80760I-23454J577*
G01*
G75*
G03X106196Y81184I-13751J8*
G01*
G75*
G03X106175Y81513I-5035J-155*
G01*
G75*
G03X106145Y81759I-5243J-510*
G01*
G75*
G03X106059Y81760I-43J-6*
G01*
G75*
G03X106029Y81515I5118J-758*
G01*
G75*
G03X106008Y81190I4919J-485*
G01*
G75*
G03X106001Y80772I13339J-435*
G01*
G75*
G02X105994Y80369I-13146J30*
G01*
G75*
G02X105975Y80008I-8556J267*
G01*
G75*
G02X105948Y79709I-10048J750*
G01*
G75*
G02X105914Y79613I-222J24*
G01*
G75*
G02X105865Y79564I-128J80*
G01*
G75*
G02X105784Y79528I-188J313*
G01*
G75*
G02X105689Y79510I-131J424*
G01*
G75*
G02X105591Y79513I-35J443*
G01*
G75*
G02X105455Y79567I43J308*
G01*
G75*
G02X105379Y79671I115J163*
G01*
G75*
G02X105339Y79886I934J287*
G01*
G75*
G02X105302Y80452I30134J2234*
G01*
G75*
G03X105269Y80879I-9952J-546*
G01*
G75*
G03X105222Y81206I-3534J-349*
G01*
G75*
G03X105158Y81452I-2074J-401*
G01*
G75*
G03X105075Y81627I-685J-220*
G01*
G75*
G03X104922Y81819I-1105J-726*
G01*
G75*
G03X104787Y81882I-152J-146*
G01*
G75*
G03X104639Y81843I-19J-231*
G01*
G75*
G03X104433Y81679I926J-1370*
G01*
G75*
G03X104324Y81552I552J-585*
G01*
G75*
G03X104253Y81415I479J-334*
G01*
G75*
G03X104215Y81247I707J-251*
G01*
G75*
G03X104202Y81029I1928J-221*
G01*
G75*
G03X104209Y80863I2015J3*
G01*
G75*
G03X104230Y80724I1061J87*
G01*
G75*
G03X104260Y80622I719J156*
G01*
G75*
G03X104297Y80596I37J14*
G01*
X104302Y48096D02*
G75*
G03X104341Y48117I0J46D01*
G01*
G75*
G03X104373Y48182I-234J157*
G01*
G75*
G03X104395Y48277I-460J157*
G01*
G75*
G03X104402Y48389I-855J110*
G01*
G75*
G02X104431Y48744I2202J-1*
G01*
G75*
G02X104536Y48907I240J-40*
G01*
G75*
G02X104758Y48981I246J-369*
G01*
G75*
G02X105313Y48996I554J-9989*
G01*
G75*
G03X105726Y49002I-1J14492*
G01*
G75*
G03X105946Y49026I-41J1388*
G01*
G75*
G03X106061Y49072I-62J325*
G01*
G75*
G03X106102Y49146I-47J74*
G01*
G75*
G03X106064Y49220I-91J0*
G01*
G75*
G03X105960Y49266I-162J-228*
G01*
G75*
G03X105761Y49291I-237J-1111*
G01*
G75*
G03X105398Y49296I-358J-10857*
G01*
G75*
G03X104998Y49288I-2J-9148*
G01*
G75*
G03X104772Y49254I47J-1090*
G01*
G75*
G03X104609Y49182I138J-534*
G01*
G75*
G03X104448Y49051I548J-840*
G01*
G75*
G03X104293Y48815I493J-493*
G01*
G75*
G03X104202Y48480I1430J-567*
G01*
G75*
G03X104197Y48191I1080J-164*
G01*
G75*
G03X104302Y48096I106J12*
G01*
Y71896D02*
G75*
G03X104341Y71917I0J46D01*
G01*
G75*
G03X104373Y71982I-234J157*
G01*
G75*
G03X104395Y72077I-460J157*
G01*
G75*
G03X104402Y72189I-855J110*
G01*
G75*
G02X104431Y72544I2202J-1*
G01*
G75*
G02X104536Y72707I240J-40*
G01*
G75*
G02X104758Y72781I246J-369*
G01*
G75*
G02X105313Y72796I554J-9989*
G01*
G75*
G03X105726Y72802I-1J14492*
G01*
G75*
G03X105946Y72826I-41J1388*
G01*
G75*
G03X106061Y72872I-62J325*
G01*
G75*
G03X106102Y72946I-47J74*
G01*
G75*
G03X106064Y73020I-91J0*
G01*
G75*
G03X105960Y73066I-162J-228*
G01*
G75*
G03X105761Y73091I-237J-1111*
G01*
G75*
G03X105398Y73096I-358J-10857*
G01*
G75*
G03X104998Y73088I-2J-9148*
G01*
G75*
G03X104772Y73054I47J-1090*
G01*
G75*
G03X104609Y72982I138J-534*
G01*
G75*
G03X104448Y72851I548J-840*
G01*
G75*
G03X104293Y72615I493J-493*
G01*
G75*
G03X104202Y72280I1430J-567*
G01*
G75*
G03X104197Y71991I1080J-164*
G01*
G75*
G03X104302Y71896I106J12*
G01*
X104443Y25107D02*
G75*
G03X104576Y24998I428J389D01*
G01*
G75*
G03X104733Y24935I278J468*
G01*
G75*
G03X104964Y24905I282J1239*
G01*
G75*
G03X105368Y24896I409J10135*
G01*
G75*
G03X105749Y24903I-9J12080*
G01*
G75*
G03X105955Y24927I-38J1221*
G01*
G75*
G03X106063Y24973I-60J291*
G01*
G75*
G03X106061Y25121I-50J74*
G01*
G75*
G03X105946Y25167I-177J-279*
G01*
G75*
G03X105726Y25191I-260J-1364*
G01*
G75*
G03X105313Y25196I-400J-14487*
G01*
G75*
G02X104904Y25203I3J12678*
G01*
G75*
G02X104670Y25229I52J1549*
G01*
G75*
G02X104533Y25276I89J482*
G01*
G75*
G02X104463Y25355I69J132*
G01*
G75*
G02X104412Y25613I717J275*
G01*
G75*
G02X104404Y26396I36471J795*
G01*
G75*
G02X104412Y27180I36498J-12*
G01*
G75*
G02X104463Y27439I768J-17*
G01*
G75*
G02X104533Y27517I139J-53*
G01*
G75*
G02X104670Y27565I226J-435*
G01*
G75*
G02X104904Y27590I285J-1523*
G01*
G75*
G02X105313Y27596I400J-12671*
G01*
G75*
G03X105726Y27602I-1J14492*
G01*
G75*
G03X105946Y27626I-41J1388*
G01*
G75*
G03X106061Y27672I-62J325*
G01*
G75*
G03X106102Y27746I-47J74*
G01*
G75*
G03X106064Y27820I-91J0*
G01*
G75*
G03X105960Y27866I-162J-228*
G01*
G75*
G03X105761Y27891I-237J-1111*
G01*
G75*
G03X105398Y27896I-358J-10857*
G01*
G75*
G03X104994Y27888I-3J-9272*
G01*
G75*
G03X104769Y27854I46J-1053*
G01*
G75*
G03X104606Y27780I139J-526*
G01*
G75*
G03X104439Y27642I622J-926*
G01*
G75*
G03X104293Y27459I736J-737*
G01*
G75*
G03X104224Y27280I420J-263*
G01*
G75*
G03X104203Y27005I1481J-255*
G01*
G75*
G03X104218Y26352I34862J493*
G01*
G75*
G03X104244Y25800I20562J676*
G01*
G75*
G03X104282Y25477I2742J163*
G01*
G75*
G03X104344Y25264I1054J191*
G01*
G75*
G03X104443Y25107I493J200*
G01*
X104466Y88399D02*
G75*
G03X104604Y88253I1312J1103D01*
G01*
G75*
G03X104729Y88163I406J432*
G01*
G75*
G03X104853Y88120I194J360*
G01*
G75*
G03X104991Y88116I82J475*
G01*
X105252Y88146*
X105302Y89446*
G75*
G02X105337Y90220I59069J-2286*
G01*
G75*
G02X105375Y90544I2541J-131*
G01*
G75*
G02X105438Y90707I459J-83*
G01*
G75*
G02X105546Y90781I139J-86*
G01*
G75*
G02X105725Y90755I51J-270*
G01*
G75*
G02X105873Y90620I-183J-350*
G01*
G75*
G02X105970Y90385I-584J-379*
G01*
G75*
G02X106002Y90078I-1456J-306*
G01*
G75*
G03X106009Y89931I1475J2*
G01*
G75*
G03X106031Y89809I789J78*
G01*
G75*
G03X106063Y89721I481J126*
G01*
G75*
G03X106141Y89722I39J18*
G01*
G75*
G03X106173Y89817I-543J235*
G01*
G75*
G03X106195Y89950I-889J216*
G01*
G75*
G03X106202Y90107I-1702J156*
G01*
G75*
G03X106121Y90494I-964J0*
G01*
G75*
G03X105887Y90853I-1198J-526*
G01*
G75*
G03X105557Y91108I-910J-835*
G01*
G75*
G03X105202Y91196I-355J-668*
G01*
G75*
G03X105035Y91177I0J-717*
G01*
G75*
G03X104878Y91119I163J-680*
G01*
G75*
G03X104718Y91015I431J-836*
G01*
G75*
G03X104542Y90857I1387J-1723*
G01*
G75*
G03X104337Y90625I1815J-1815*
G01*
G75*
G03X104246Y90444I404J-316*
G01*
G75*
G03X104209Y90197I999J-274*
G01*
G75*
G03X104202Y89614I22799J-584*
G01*
G75*
G03X104210Y89076I18514J1*
G01*
G75*
G03X104243Y88804I1489J45*
G01*
G75*
G03X104319Y88608I661J143*
G01*
G75*
G03X104466Y88399I1266J733*
G01*
X104469Y63072D02*
G75*
G02X104635Y63193I180J-72D01*
G01*
G75*
G02X105206Y63206I432J-6259*
G01*
G75*
G02X105776Y63167I-141J-6246*
G01*
G75*
G02X105941Y63039I-23J-200*
G01*
G75*
G02X106000Y62735I-834J-320*
G01*
G75*
G02X106000Y62044I-16979J-326*
G01*
G75*
G02X105971Y61348I-19056J428*
G01*
G75*
G02X105899Y61090I-622J36*
G01*
G75*
G02X105815Y60992I-267J143*
G01*
G75*
G02X105694Y60933I-207J274*
G01*
G75*
G02X105502Y60904I-233J891*
G01*
G75*
G02X105159Y60896I-349J7743*
G01*
G75*
G02X104841Y60904I5J7014*
G01*
G75*
G02X104646Y60930I50J1106*
G01*
G75*
G02X104527Y60978I88J389*
G01*
G75*
G02X104463Y61055I80J131*
G01*
G75*
G02X104417Y61294I652J251*
G01*
G75*
G02X104411Y62066I40691J656*
G01*
G75*
G02X104420Y62839I41680J-102*
G01*
G75*
G02X104469Y63072I659J-15*
G01*
X104488Y97077D02*
G75*
G02X104563Y97135I118J-75D01*
G01*
G75*
G02X104714Y97169I260J-805*
G01*
G75*
G02X104939Y97183I230J-1757*
G01*
G75*
G02X105261Y97177I12J-7191*
G01*
X105952Y97146*
X105981Y96172*
G75*
G02X105984Y95344I-16259J-476*
G01*
G75*
G02X105893Y95006I-730J16*
G01*
G75*
G02X105675Y94845I-286J159*
G01*
G75*
G02X105219Y94796I-457J2135*
G01*
G75*
G02X104989Y94806I4J2999*
G01*
G75*
G02X104776Y94832I174J2274*
G01*
G75*
G02X104603Y94870I330J1913*
G01*
G75*
G02X104522Y94917I46J174*
G01*
G75*
G02X104430Y95126I224J224*
G01*
G75*
G02X104404Y95970I28021J1298*
G01*
G75*
G02X104405Y96803I23146J373*
G01*
G75*
G02X104488Y97077I531J-11*
G01*
X104490Y90680D02*
G75*
G02X104540Y90729I128J-80D01*
G01*
G75*
G02X104620Y90765I188J-313*
G01*
G75*
G02X104716Y90783I131J-424*
G01*
G75*
G02X104813Y90780I35J-443*
G01*
G75*
G02X104950Y90720I-39J-274*
G01*
G75*
G02X105021Y90602I-130J-158*
G01*
G75*
G02X105048Y90351I-1324J-266*
G01*
G75*
G02X105052Y89598I-65246J-752*
G01*
G75*
G02X105047Y88906I-48394J-15*
G01*
G75*
G02X105022Y88622I-1938J29*
G01*
G75*
G02X104964Y88480I-337J55*
G01*
G75*
G02X104859Y88412I-137J97*
G01*
G75*
G02X104648Y88454I-54J278*
G01*
G75*
G02X104504Y88637I208J312*
G01*
G75*
G02X104424Y89008I1241J460*
G01*
G75*
G02X104404Y89641I9211J620*
G01*
G75*
G02X104411Y89998I10324J-27*
G01*
G75*
G02X104430Y90320I6924J-245*
G01*
G75*
G02X104457Y90586I7573J-637*
G01*
G75*
G02X104490Y90680I224J-27*
G01*
X104502Y43882D02*
G75*
G03X104644Y43756I1113J1115D01*
G01*
G75*
G03X104782Y43668I521J665*
G01*
G75*
G03X104911Y43620I267J524*
G01*
G75*
G03X105026Y43615I72J300*
G01*
G75*
G03X105156Y43682I-31J217*
G01*
G75*
G03X105228Y43821I-211J198*
G01*
G75*
G03X105266Y44117I-1889J392*
G01*
G75*
G03X105302Y44946I-74994J3693*
G01*
G75*
G02X105337Y45720I59069J-2286*
G01*
G75*
G02X105375Y46044I2541J-131*
G01*
G75*
G02X105438Y46207I459J-83*
G01*
G75*
G02X105546Y46281I139J-86*
G01*
G75*
G02X105725Y46255I51J-270*
G01*
G75*
G02X105873Y46120I-183J-350*
G01*
G75*
G02X105970Y45885I-584J-379*
G01*
G75*
G02X106002Y45578I-1456J-306*
G01*
G75*
G03X106010Y45428I1402J3*
G01*
G75*
G03X106035Y45306I684J73*
G01*
G75*
G03X106070Y45222I374J109*
G01*
G75*
G03X106115Y45196I44J26*
G01*
G75*
G03X106221Y45305I0J106*
G01*
G75*
G03X106181Y45721I-2740J-49*
G01*
G75*
G03X106067Y46170I-2902J-498*
G01*
G75*
G03X105899Y46450I-731J-248*
G01*
G75*
G03X105596Y46651I-580J-545*
G01*
G75*
G03X105214Y46713I-349J-942*
G01*
G75*
G03X104823Y46627I35J-1084*
G01*
G75*
G03X104494Y46404I411J-962*
G01*
G75*
G03X104324Y46202I1094J-1094*
G01*
G75*
G03X104242Y46020I426J-301*
G01*
G75*
G03X104209Y45756I1259J-292*
G01*
G75*
G03X104202Y45146I26935J-618*
G01*
G75*
G03X104209Y44533I27207J8*
G01*
G75*
G03X104243Y44271I1261J28*
G01*
G75*
G03X104326Y44089I503J119*
G01*
G75*
G03X104502Y43882I1355J973*
G01*
Y67682D02*
G75*
G03X104644Y67556I1113J1115D01*
G01*
G75*
G03X104782Y67468I521J665*
G01*
G75*
G03X104911Y67420I267J524*
G01*
G75*
G03X105026Y67415I72J300*
G01*
G75*
G03X105156Y67482I-31J217*
G01*
G75*
G03X105228Y67621I-211J198*
G01*
G75*
G03X105266Y67917I-1889J392*
G01*
G75*
G03X105302Y68746I-74994J3693*
G01*
G75*
G02X105337Y69520I59069J-2286*
G01*
G75*
G02X105375Y69844I2541J-131*
G01*
G75*
G02X105438Y70007I459J-83*
G01*
G75*
G02X105546Y70081I139J-86*
G01*
G75*
G02X105725Y70055I51J-270*
G01*
G75*
G02X105873Y69920I-183J-350*
G01*
G75*
G02X105970Y69685I-584J-379*
G01*
G75*
G02X106002Y69378I-1456J-306*
G01*
G75*
G03X106010Y69228I1402J3*
G01*
G75*
G03X106035Y69106I684J73*
G01*
G75*
G03X106070Y69022I374J109*
G01*
G75*
G03X106161Y69028I44J25*
G01*
G75*
G03X106187Y69126I-346J143*
G01*
G75*
G03X106194Y69285I-983J121*
G01*
G75*
G03X106178Y69516I-4204J-178*
G01*
G75*
G03X106081Y69947I-1756J-167*
G01*
G75*
G03X105885Y70254I-779J-282*
G01*
G75*
G03X105587Y70434I-526J-531*
G01*
G75*
G03X105189Y70496I-398J-1241*
G01*
G75*
G03X104977Y70481I0J-1499*
G01*
G75*
G03X104810Y70435I95J-672*
G01*
G75*
G03X104658Y70348I269J-640*
G01*
G75*
G03X104494Y70204I986J-1292*
G01*
G75*
G03X104324Y70002I1094J-1094*
G01*
G75*
G03X104242Y69820I426J-301*
G01*
G75*
G03X104209Y69556I1259J-292*
G01*
G75*
G03X104202Y68946I26935J-618*
G01*
G75*
G03X104209Y68333I27207J8*
G01*
G75*
G03X104243Y68071I1261J28*
G01*
G75*
G03X104326Y67889I503J119*
G01*
G75*
G03X104502Y67682I1355J973*
G01*
X104508Y83641D02*
G75*
G03X104811Y83446I536J504D01*
G01*
G75*
G03X105224Y83380I412J1233*
G01*
G75*
G03X105641Y83447I-2J1327*
G01*
G75*
G03X105957Y83642I-254J765*
G01*
G75*
G03X106094Y83820I-636J636*
G01*
G75*
G03X106165Y84007I-500J296*
G01*
G75*
G03X106196Y84297I-1711J326*
G01*
G75*
G03X106202Y84934I-31210J627*
G01*
G75*
G03X106195Y85573I-29203J13*
G01*
G75*
G03X106164Y85871I-1799J-39*
G01*
G75*
G03X106089Y86076I-680J-131*
G01*
G75*
G03X105943Y86289I-1165J-644*
G01*
G75*
G03X105831Y86407I-987J-831*
G01*
G75*
G03X105707Y86506I-793J-858*
G01*
G75*
G03X105590Y86576I-539J-774*
G01*
G75*
G03X105502Y86596I-87J-176*
G01*
G75*
G03X105415Y86576I0J-195*
G01*
G75*
G03X105297Y86506I422J-844*
G01*
G75*
G03X105174Y86407I670J-958*
G01*
G75*
G03X105061Y86289I874J-949*
G01*
G75*
G03X104914Y86075I1005J-847*
G01*
G75*
G03X104840Y85867I611J-335*
G01*
G75*
G03X104809Y85562I1850J-343*
G01*
G75*
G03X104802Y84895I32739J-681*
G01*
G75*
G02X104795Y84429I-15731J-7*
G01*
G75*
G02X104773Y84075I-5341J161*
G01*
G75*
G02X104740Y83814I-4522J433*
G01*
G75*
G02X104691Y83740I-106J16*
G01*
G75*
G02X104581Y83736I-58J94*
G01*
G75*
G02X104488Y83831I100J192*
G01*
G75*
G02X104424Y84033I596J298*
G01*
G75*
G02X104404Y84316I2022J291*
G01*
G75*
G03X104394Y84462I-1281J-6*
G01*
G75*
G03X104369Y84597I-980J-116*
G01*
G75*
G03X104332Y84704I-733J-193*
G01*
G75*
G03X104287Y84756I-104J-45*
G01*
G75*
G03X104189Y84702I-34J-55*
G01*
G75*
G03X104222Y84348I1724J-19*
G01*
G75*
G03X104343Y83911I3004J593*
G01*
G75*
G03X104508Y83641I732J262*
G01*
X104510Y31922D02*
G75*
G02X104591Y32007I217J-126D01*
G01*
G75*
G02X104715Y32060I225J-353*
G01*
G75*
G02X104904Y32089I243J-957*
G01*
G75*
G02X105204Y32096I296J-5577*
G01*
G75*
G02X105660Y32056I0J-2587*
G01*
G75*
G02X105879Y31914I-59J-329*
G01*
G75*
G02X105980Y31616I-498J-335*
G01*
G75*
G02X106002Y30911I-11195J-703*
G01*
G75*
G02X105987Y30176I-18315J-5*
G01*
G75*
G02X105904Y29933I-447J18*
G01*
G75*
G02X105711Y29822I-220J157*
G01*
G75*
G02X105202Y29796I-510J5064*
G01*
G75*
G02X104858Y29804I1J8400*
G01*
G75*
G02X104653Y29830I50J1220*
G01*
G75*
G02X104528Y29878I90J414*
G01*
G75*
G02X104463Y29955I76J131*
G01*
G75*
G02X104405Y30257I821J315*
G01*
G75*
G02X104408Y30965I18252J273*
G01*
G75*
G02X104437Y31679I21459J-518*
G01*
G75*
G02X104510Y31922I544J-31*
G01*
X104533Y29638D02*
G75*
G03X104681Y29530I710J826D01*
G01*
G75*
G03X104840Y29455I463J769*
G01*
G75*
G03X105011Y29411I313J869*
G01*
G75*
G03X105202Y29396I193J1230*
G01*
G75*
G03X105393Y29411I-2J1247*
G01*
G75*
G03X105565Y29455I-141J913*
G01*
G75*
G03X105723Y29530I-304J844*
G01*
G75*
G03X105872Y29638I-561J934*
G01*
G75*
G03X106032Y29809I-715J831*
G01*
G75*
G03X106116Y29981I-399J301*
G01*
G75*
G03X106158Y30242I-1278J341*
G01*
G75*
G03X106186Y30819I-23639J1433*
G01*
G75*
G03X106200Y31405I-24263J880*
G01*
G75*
G03X106177Y31672I-1371J15*
G01*
G75*
G03X106106Y31862I-572J-106*
G01*
G75*
G03X105952Y32078I-1389J-822*
G01*
G75*
G03X105788Y32250I-1446J-1218*
G01*
G75*
G03X105647Y32341I-332J-359*
G01*
G75*
G03X105476Y32384I-223J-526*
G01*
G75*
G03X105202Y32396I-272J-3022*
G01*
G75*
G03X104929Y32384I-2J-3030*
G01*
G75*
G03X104757Y32341I51J-569*
G01*
G75*
G03X104617Y32250I192J-450*
G01*
G75*
G03X104452Y32078I1281J-1390*
G01*
G75*
G03X104299Y31862I1236J-1038*
G01*
G75*
G03X104227Y31672I501J-297*
G01*
G75*
G03X104204Y31405I1348J-252*
G01*
G75*
G03X104218Y30819I24277J295*
G01*
G75*
G03X104246Y30242I23667J856*
G01*
G75*
G03X104288Y29981I1320J80*
G01*
G75*
G03X104372Y29809I483J128*
G01*
G75*
G03X104533Y29638I876J660*
G01*
Y60738D02*
G75*
G03X104919Y60534I640J745D01*
G01*
G75*
G03X105365Y60512I274J1022*
G01*
G75*
G03X105770Y60674I-164J998*
G01*
G75*
G03X106047Y60987I-481J705*
G01*
G75*
G03X106161Y61363I-948J491*
G01*
G75*
G03X106201Y62011I-7123J767*
G01*
G75*
G03X106182Y62661I-7117J123*
G01*
G75*
G03X106083Y63050I-1139J-85*
G01*
G75*
G03X105865Y63339I-760J-346*
G01*
G75*
G03X105535Y63526I-648J-760*
G01*
G75*
G03X105150Y63580I-336J-1000*
G01*
G75*
G03X104776Y63489I48J-1015*
G01*
G75*
G03X104491Y63288I387J-852*
G01*
G75*
G03X104317Y63005I557J-538*
G01*
G75*
G03X104233Y62581I1448J-507*
G01*
G75*
G03X104225Y61913I8074J-429*
G01*
G75*
G03X104249Y61337I23668J698*
G01*
G75*
G03X104289Y61080I1286J69*
G01*
G75*
G03X104372Y60909I470J124*
G01*
G75*
G03X104533Y60738I885J669*
G01*
X104547Y46293D02*
G75*
G02X104616Y46336I204J-246D01*
G01*
G75*
G02X104703Y46368I220J-469*
G01*
G75*
G02X104793Y46383I131J-494*
G01*
G75*
G02X104872Y46378I22J-296*
G01*
G75*
G02X104969Y46309I-27J-140*
G01*
G75*
G02X105023Y46153I-389J-221*
G01*
G75*
G02X105047Y45848I-2326J-340*
G01*
G75*
G02X105052Y45146I-48517J-678*
G01*
G75*
G02X105047Y44423I-53707J-11*
G01*
G75*
G02X105022Y44128I-2084J27*
G01*
G75*
G02X104965Y43982I-356J56*
G01*
G75*
G02X104859Y43912I-137J93*
G01*
G75*
G02X104646Y43956I-53J278*
G01*
G75*
G02X104502Y44144I214J315*
G01*
G75*
G02X104423Y44530I1340J473*
G01*
G75*
G02X104402Y45204I10870J680*
G01*
G75*
G02X104409Y45680I16181J-2*
G01*
G75*
G02X104434Y45986I2981J-87*
G01*
G75*
G02X104477Y46186I1283J-173*
G01*
G75*
G02X104547Y46293I211J-63*
G01*
Y70093D02*
G75*
G02X104616Y70136I204J-246D01*
G01*
G75*
G02X104703Y70168I220J-469*
G01*
G75*
G02X104793Y70183I131J-494*
G01*
G75*
G02X104872Y70178I22J-296*
G01*
G75*
G02X104969Y70109I-27J-140*
G01*
G75*
G02X105023Y69953I-389J-221*
G01*
G75*
G02X105047Y69648I-2326J-340*
G01*
G75*
G02X105052Y68946I-48517J-678*
G01*
G75*
G02X105047Y68223I-53707J-11*
G01*
G75*
G02X105022Y67928I-2084J27*
G01*
G75*
G02X104965Y67782I-356J56*
G01*
G75*
G02X104859Y67712I-137J93*
G01*
G75*
G02X104646Y67756I-53J278*
G01*
G75*
G02X104502Y67944I214J315*
G01*
G75*
G02X104423Y68330I1340J473*
G01*
G75*
G02X104402Y69004I10870J680*
G01*
G75*
G02X104409Y69480I16181J-2*
G01*
G75*
G02X104434Y69786I2981J-87*
G01*
G75*
G02X104477Y69986I1283J-173*
G01*
G75*
G02X104547Y70093I211J-63*
G01*
X104548Y39125D02*
G75*
G03X104872Y38939I648J754D01*
G01*
G75*
G03X105239Y38887I316J914*
G01*
G75*
G03X105603Y38978I-52J994*
G01*
G75*
G03X105919Y39198I-459J994*
G01*
X106220Y39499*
X106186Y40587*
G75*
G03X106135Y41370I-11751J-364*
G01*
G75*
G03X106022Y41796I-1344J-131*
G01*
G75*
G03X105819Y42015I-432J-196*
G01*
G75*
G03X105180Y42012I-316J-574*
G01*
G75*
G03X104978Y41786I230J-410*
G01*
G75*
G03X104867Y41338I1354J-572*
G01*
G75*
G03X104819Y40481I14973J-1283*
G01*
G75*
G02X104794Y39794I-47959J1335*
G01*
G75*
G02X104763Y39494I-2360J99*
G01*
G75*
G02X104708Y39355I-367J63*
G01*
G75*
G02X104619Y39317I-73J47*
G01*
G75*
G02X104539Y39359I27J146*
G01*
G75*
G02X104483Y39448I192J185*
G01*
G75*
G02X104444Y39595I604J235*
G01*
G75*
G02X104422Y39822I3115J428*
G01*
G75*
G03X104402Y40004I-2147J-136*
G01*
G75*
G03X104369Y40157I-1158J-176*
G01*
G75*
G03X104327Y40269I-787J-230*
G01*
G75*
G03X104284Y40296I-43J-20*
G01*
G75*
G03X104241Y40267J-46*
G01*
G75*
G03X104218Y40174I348J-136*
G01*
G75*
G03X104213Y40028I894J-102*
G01*
G75*
G03X104229Y39825I3199J153*
G01*
G75*
G03X104269Y39591I2148J244*
G01*
G75*
G03X104330Y39408I917J207*
G01*
G75*
G03X104421Y39259I682J311*
G01*
G75*
G03X104548Y39125I733J569*
G01*
X104663Y44455D02*
G75*
G03X104756Y44337I234J89D01*
G01*
G75*
G03X104837Y44364I30J44*
G01*
G75*
G03X104889Y44634I-927J320*
G01*
G75*
G03X104902Y45146I-9994J510*
G01*
G75*
G03X104889Y45643I-9096J4*
G01*
G75*
G03X104837Y45923I-1108J-61*
G01*
G75*
G03X104758Y45961I-57J-18*
G01*
G75*
G03X104669Y45872I59J-149*
G01*
G75*
G03X104623Y45661I589J-238*
G01*
G75*
G03X104611Y45165I13046J-548*
G01*
G75*
G03X104619Y44670I12867J-53*
G01*
G75*
G03X104663Y44455I666J24*
G01*
Y68255D02*
G75*
G03X104756Y68137I234J89D01*
G01*
G75*
G03X104837Y68164I30J44*
G01*
G75*
G03X104889Y68434I-927J320*
G01*
G75*
G03X104902Y68946I-9994J510*
G01*
G75*
G03X104893Y69454I-13865J6*
G01*
G75*
G03X104853Y69698I-981J-36*
G01*
G75*
G03X104775Y69765I-91J-28*
G01*
G75*
G03X104669Y69730I-19J-123*
G01*
G75*
G03X104613Y69602I134J-134*
G01*
G75*
G03X104604Y69041I21537J-643*
G01*
G75*
G03X104613Y68499I13092J-52*
G01*
G75*
G03X104663Y68255I761J28*
G01*
Y88955D02*
G75*
G03X104756Y88837I234J89D01*
G01*
G75*
G03X104837Y88864I30J44*
G01*
G75*
G03X104889Y89134I-927J320*
G01*
G75*
G03X104902Y89646I-9994J510*
G01*
G75*
G03X104889Y90143I-9096J4*
G01*
G75*
G03X104837Y90423I-1108J-61*
G01*
G75*
G03X104758Y90461I-57J-18*
G01*
G75*
G03X104669Y90372I59J-149*
G01*
G75*
G03X104623Y90161I589J-238*
G01*
G75*
G03X104611Y89665I13046J-548*
G01*
G75*
G03X104619Y89170I12867J-53*
G01*
G75*
G03X104663Y88955I666J24*
G01*
X104706Y30190D02*
G75*
G03X104777Y30100I285J153D01*
G01*
G75*
G03X104875Y30041I218J246*
G01*
G75*
G03X105012Y30007I195J502*
G01*
G75*
G03X105202Y29996I193J1739*
G01*
G75*
G03X105506Y30043J1008*
G01*
G75*
G03X105685Y30182I-100J315*
G01*
G75*
G03X105778Y30450I-522J330*
G01*
G75*
G03X105802Y30946I-4974J493*
G01*
G75*
G03X105778Y31428I-4794J2*
G01*
G75*
G03X105690Y31702I-682J-69*
G01*
G75*
G03X105522Y31846I-290J-167*
G01*
G75*
G03X105254Y31896I-268J-681*
G01*
G75*
G03X104960Y31836I0J-744*
G01*
G75*
G03X104756Y31666I185J-429*
G01*
G75*
G03X104639Y31367I631J-420*
G01*
G75*
G03X104602Y30918I2759J-451*
G01*
G75*
G03X104610Y30699I3144J4*
G01*
G75*
G03X104633Y30483I3018J210*
G01*
G75*
G03X104666Y30299I2585J368*
G01*
G75*
G03X104706Y30190I408J88*
G01*
Y61290D02*
G75*
G03X104777Y61200I285J153D01*
G01*
G75*
G03X104876Y61140I217J246*
G01*
G75*
G03X105014Y61107I195J509*
G01*
G75*
G03X105208Y61096I197J1828*
G01*
G75*
G03X105426Y61107I0J2322*
G01*
G75*
G03X105552Y61144I-32J343*
G01*
G75*
G03X105636Y61219I-104J200*
G01*
G75*
G03X105705Y61353I-563J374*
G01*
G75*
G03X105778Y61666I-1132J430*
G01*
G75*
G03X105799Y62113I-4388J429*
G01*
G75*
G03X105776Y62550I-4534J-18*
G01*
G75*
G03X105699Y62803I-678J-69*
G01*
G75*
G03X105524Y62951I-273J-146*
G01*
G75*
G03X105208Y63005I-336J-1007*
G01*
G75*
G03X104891Y62963I-19J-1060*
G01*
G75*
G03X104710Y62822I87J-296*
G01*
G75*
G03X104630Y62566I525J-305*
G01*
G75*
G03X104608Y62063I6313J-524*
G01*
G75*
G03X104627Y61558I6219J-20*
G01*
G75*
G03X104706Y61290I678J53*
G01*
X104768Y95180D02*
G75*
G03X104974Y95038I400J362D01*
G01*
G75*
G03X105229Y94999I217J564*
G01*
G75*
G03X105474Y95070I-38J589*
G01*
G75*
G03X105654Y95236I-242J442*
G01*
G75*
G03X105726Y95389I-503J330*
G01*
G75*
G03X105769Y95587I-1152J354*
G01*
G75*
G03X105787Y95850I-2147J280*
G01*
G75*
G03X105782Y96211I-7472J67*
G01*
X105752Y96946*
X105306Y96978*
G75*
G03X104943Y96957I-101J-1414*
G01*
G75*
G03X104735Y96826I61J-326*
G01*
G75*
G03X104630Y96550I459J-335*
G01*
G75*
G03X104602Y96010I5279J-540*
G01*
G75*
G03X104611Y95700I5332J7*
G01*
G75*
G03X104641Y95470I1669J96*
G01*
G75*
G03X104691Y95301I919J183*
G01*
G75*
G03X104768Y95180I381J156*
G01*
X104911Y92646D02*
G75*
G03X105528Y92652I-9J35527D01*
G01*
G75*
G03X105837Y92675I-47J2741*
G01*
G75*
G03X106000Y92719I-84J637*
G01*
G75*
G03X106052Y92796I-32J78*
G01*
G75*
G03X106003Y92874I-86*
G01*
G75*
G03X105848Y92923I-255J-543*
G01*
G75*
G03X105561Y92954I-403J-2351*
G01*
G75*
G03X105009Y92975I-1285J-26658*
G01*
G75*
G03X104283Y92987I-842J-30466*
G01*
G75*
G03X103925Y92959I-8J-2228*
G01*
G75*
G03X103763Y92889I56J-352*
G01*
G75*
G03X103727Y92772I65J-83*
G01*
G75*
G03X103795Y92711I87J29*
G01*
G75*
G03X104021Y92675I459J2168*
G01*
G75*
G03X104369Y92653I448J4229*
G01*
G75*
G03X104911Y92646I542J23333*
G01*
X104987Y77896D02*
G75*
G02X105854Y77856I1J-9276D01*
G01*
G75*
G02X106181Y77676I-44J-467*
G01*
G75*
G02X106326Y77283I-550J-425*
G01*
G75*
G02X106352Y76127I-25185J-1153*
G01*
G75*
G02X106323Y75013I-21196J-3*
G01*
G75*
G02X106171Y74619I-679J35*
G01*
G75*
G02X105830Y74437I-387J315*
G01*
G75*
G02X104941Y74396I-889J9636*
G01*
X104002*
Y75096*
X104746*
G75*
G03X105330Y75135I0J4429*
G01*
G75*
G03X105620Y75278I-67J502*
G01*
G75*
G03X105763Y75567I-355J356*
G01*
G75*
G03X105802Y76146I-4300J577*
G01*
G75*
G03X105763Y76726I-4342J2*
G01*
G75*
G03X105620Y77015I-498J-67*
G01*
G75*
G03X105330Y77158I-357J-359*
G01*
G75*
G03X104746Y77196I-580J-4391*
G01*
X104002*
Y77896*
X104987*
X105049Y77396D02*
G75*
G02X105626Y77362I0J-4816D01*
G01*
G75*
G02X105869Y77222I-43J-358*
G01*
G75*
G02X105980Y76925I-431J-329*
G01*
G75*
G02X106002Y76146I-13444J-777*
G01*
G75*
G02X105980Y75368I-13460J-2*
G01*
G75*
G02X105869Y75071I-541J31*
G01*
G75*
G02X105626Y74931I-287J219*
G01*
G75*
G02X105049Y74896I-580J4781*
G01*
G75*
G03X104661Y74891I-2J-12596*
G01*
G75*
G03X104452Y74867I39J-1257*
G01*
G75*
G03X104342Y74821I59J-298*
G01*
G75*
G03X104302Y74746I50J-74*
G01*
G75*
G03X104336Y74674I94J0*
G01*
G75*
G03X104428Y74628I148J178*
G01*
G75*
G03X104601Y74603I209J846*
G01*
G75*
G03X104909Y74596I314J7361*
G01*
G75*
G03X105570Y74673I-1J2911*
G01*
G75*
G03X105951Y74915I-155J665*
G01*
G75*
G03X106148Y75381I-744J588*
G01*
G75*
G03X106202Y76234I-6618J850*
G01*
G75*
G03X106194Y76731I-15049J11*
G01*
G75*
G03X106161Y76994I-1416J-46*
G01*
G75*
G03X106086Y77186I-663J-149*
G01*
G75*
G03X105943Y77389I-1224J-707*
G01*
G75*
G03X105771Y77565I-1270J-1070*
G01*
G75*
G03X105620Y77651I-282J-319*
G01*
G75*
G03X105415Y77688I-238J-733*
G01*
G75*
G03X104993Y77696I-413J-10287*
G01*
G75*
G03X104637Y77691I-7J-10349*
G01*
G75*
G03X104443Y77666I39J-1094*
G01*
G75*
G03X104339Y77620I57J-268*
G01*
G75*
G03X104302Y77546I54J-74*
G01*
G75*
G03X104342Y77472I89J0*
G01*
G75*
G03X104452Y77427I169J252*
G01*
G75*
G03X104661Y77403I248J1233*
G01*
G75*
G03X105049Y77396I398J12590*
G01*
X105071Y41572D02*
G75*
G02X105113Y41687I407J-80D01*
G01*
G75*
G02X105181Y41754I143J-77*
G01*
G75*
G02X105297Y41788I143J-276*
G01*
G75*
G02X105507Y41796I207J-2482*
G01*
G75*
G02X105794Y41741I0J-765*
G01*
G75*
G02X105941Y41583I-96J-237*
G01*
G75*
G02X105996Y41241I-1037J-340*
G01*
G75*
G02X105981Y40346I-33278J80*
G01*
X105952Y39346*
X105052*
X105039Y40346*
G75*
G02X105037Y40746I22780J290*
G01*
G75*
G02X105043Y41119I17328J-88*
G01*
G75*
G02X105054Y41432I17348J-454*
G01*
G75*
G02X105071Y41572I920J-41*
G01*
X105108Y86122D02*
G75*
G02X105268Y86251I254J-151D01*
G01*
G75*
G02X105543Y86299I294J-871*
G01*
G75*
G02X105809Y86262I17J-849*
G01*
G75*
G02X105941Y86139I-61J-197*
G01*
G75*
G02X105965Y86031I-350J-135*
G01*
G75*
G02X105984Y85724I-14573J-1052*
G01*
G75*
G02X105998Y85357I-12571J-642*
G01*
G75*
G02X106002Y84951I-18617J-402*
G01*
G75*
G02X105984Y84202I-15503*
G01*
G75*
G02X105900Y83880I-806J39*
G01*
G75*
G02X105719Y83737I-242J121*
G01*
G75*
G02X105384Y83715I-235J1015*
G01*
X105052Y83746*
X105028Y84846*
G75*
G02X105026Y85290I12929J279*
G01*
G75*
G02X105041Y85681I7857J-104*
G01*
G75*
G02X105068Y85998I7697J-481*
G01*
G75*
G02X105108Y86122I302J-31*
G01*
X105141Y33996D02*
G75*
G03X105568Y34003I-5J13927D01*
G01*
G75*
G03X105818Y34028I-58J1861*
G01*
G75*
G03X105968Y34072I-102J617*
G01*
G75*
G03X106038Y34146I-54J122*
G01*
G75*
G03X106019Y34222I-63J24*
G01*
G75*
G03X105920Y34269I-135J-157*
G01*
G75*
G03X105692Y34292I-260J-1446*
G01*
G75*
G03X105199Y34296I-480J-24408*
G01*
G75*
G03X104724Y34291I-7J-19906*
G01*
G75*
G03X104477Y34267I43J-1750*
G01*
G75*
G03X104347Y34222I67J-403*
G01*
G75*
G03X104345Y34072I42J-76*
G01*
G75*
G03X104467Y34026I187J314*
G01*
G75*
G03X104700Y34002I273J1530*
G01*
G75*
G03X105141Y33996I446J16880*
G01*
X105286Y83957D02*
G75*
G03X105333Y83947I37J60D01*
G01*
G75*
G03X105409Y83965I-59J426*
G01*
G75*
G03X105497Y84002I-188J561*
G01*
G75*
G03X105586Y84056I-378J723*
G01*
G75*
G03X105700Y84170I-276J394*
G01*
G75*
G03X105765Y84309I-327J235*
G01*
G75*
G03X105795Y84528I-1052J257*
G01*
G75*
G03X105802Y84944I-11775J409*
G01*
G75*
G03X105798Y85238I-9706J4*
G01*
G75*
G03X105784Y85511I-7283J-220*
G01*
G75*
G03X105765Y85738I-7169J-481*
G01*
G75*
G03X105741Y85839I-386J-39*
G01*
G75*
G03X105653Y85957I-255J-98*
G01*
G75*
G03X105530Y85989I-99J-128*
G01*
G75*
G03X105401Y85922I33J-220*
G01*
G75*
G03X105305Y85772I349J-330*
G01*
G75*
G03X105234Y85452I943J-378*
G01*
G75*
G03X105211Y84783I14143J-826*
G01*
G75*
G03X105212Y84086I26763J-288*
G01*
G75*
G03X105286Y83957I155J2*
G01*
X105300Y39548D02*
G75*
G03X105352Y39532I56J90D01*
G01*
G75*
G03X105429Y39537I14J400*
G01*
G75*
G03X105515Y39559I-81J507*
G01*
G75*
G03X105600Y39596I-189J547*
G01*
G75*
G03X105707Y39688I-150J282*
G01*
G75*
G03X105767Y39821I-289J211*
G01*
G75*
G03X105796Y40044I-1145J259*
G01*
G75*
G03X105802Y40493I-15190J438*
G01*
G75*
G03X105794Y40887I-9811J1*
G01*
G75*
G03X105767Y41147I-2016J-79*
G01*
G75*
G03X105717Y41325I-906J-156*
G01*
G75*
G03X105639Y41446I-327J-127*
G01*
G75*
G03X105459Y41512I-161J-161*
G01*
G75*
G03X105324Y41410I12J-158*
G01*
G75*
G03X105243Y41043I1191J-453*
G01*
G75*
G03X105214Y40328I14062J-939*
G01*
G75*
G03X105217Y40048I5456J-86*
G01*
G75*
G03X105234Y39802I3279J113*
G01*
G75*
G03X105262Y39604I3420J383*
G01*
G75*
G03X105300Y39548I81J14*
G01*
X132120Y27281D02*
Y24329D01*
X122278*
X132120Y39093D02*
Y42045D01*
X122278*
X241578Y91352D02*
G75*
G02X241757Y91626I794J-321D01*
G01*
G75*
G02X242090Y91920I2004J-1939*
G01*
G75*
G02X242496Y92177I1863J-2495*
G01*
G75*
G02X242906Y92345I1050J-1979*
G01*
G75*
G02X245228Y92856I4646J-15582*
G01*
G75*
G02X248232Y93179I5958J-41298*
G01*
G75*
G02X251405Y93291I3162J-44498*
G01*
G75*
G02X254282Y93153I-7J-30260*
G01*
G75*
G02X255525Y93015I-4033J-42055*
G01*
G75*
G02X256450Y92867I-1695J-13474*
G01*
G75*
G02X257169Y92691I-1573J-7993*
G01*
G75*
G02X257760Y92470I-1205J-4123*
G01*
G75*
G02X258091Y92279I-895J-1938*
G01*
G75*
G02X258354Y92046I-882J-1259*
G01*
G75*
G02X258525Y91794I-852J-763*
G01*
G75*
G02X258582Y91551I-487J-244*
G01*
G75*
G03X258600Y91450I296*
G01*
G75*
G03X258656Y91327I818J297*
G01*
G75*
G03X258737Y91203I877J485*
G01*
G75*
G03X258832Y91096I689J522*
G01*
G75*
G02X258962Y90949I-693J-741*
G01*
G75*
G02X259036Y90800I-424J-304*
G01*
G75*
G02X259072Y90606I-798J-249*
G01*
G75*
G02X259082Y90296I-4685J-304*
G01*
G75*
G02X259028Y89785I-2432*
G01*
G75*
G02X258853Y89492I-520J111*
G01*
G75*
G02X258515Y89340I-432J507*
G01*
G75*
G02X257907Y89296I-609J4254*
G01*
G75*
G02X257630Y89304I4J5305*
G01*
G75*
G02X257385Y89326I168J3219*
G01*
G75*
G02X257190Y89357I423J3293*
G01*
G75*
G02X257132Y89396I16J85*
G01*
G75*
G03X256929Y89511I-204J-126*
G01*
G75*
G03X255763Y89502I-188J-50890*
G01*
G75*
G03X254643Y89458I554J-28845*
G01*
G75*
G03X254200Y89341I66J-1136*
G01*
G75*
G03X253730Y88995I768J-1538*
G01*
G75*
G03X253509Y88566I604J-582*
G01*
G75*
G03X253556Y88070I893J-166*
G01*
G75*
G03X253865Y87531I1959J763*
G01*
G75*
G02X254665Y86506I-103483J-81718*
G01*
G75*
G02X255352Y85606I-60161J-46543*
G01*
G75*
G02X255950Y84804I-230375J-172811*
G01*
G75*
G02X255982Y84707I-130J-96*
G01*
G75*
G03X255993Y84666I91J1*
G01*
G75*
G03X256026Y84611I398J202*
G01*
G75*
G03X256074Y84552I456J319*
G01*
G75*
G03X256130Y84498I449J422*
G01*
G75*
G02X256254Y84367I-463J-560*
G01*
G75*
G02X256382Y84167I-1677J-1215*
G01*
G75*
G02X256585Y83792I-9930J-5613*
G01*
G75*
G02X257158Y82679I-468609J-241887*
G01*
G75*
G02X257392Y82207I-17175J-8817*
G01*
G75*
G02X257600Y81754I-13874J-6650*
G01*
G75*
G02X257763Y81368I-13386J-5891*
G01*
G75*
G02X257821Y81172I-946J-386*
G01*
G75*
G02X257840Y80983I-1078J-201*
G01*
G75*
G02X257838Y80659I-8470J-111*
G01*
G75*
G02X257820Y80282I-9520J250*
G01*
G75*
G02X257788Y79900I-10183J669*
G01*
G75*
G02X257725Y79374I-16119J1672*
G01*
G75*
G02X257661Y79080I-1875J257*
G01*
G75*
G02X257568Y78874I-832J252*
G01*
G75*
G02X257419Y78682I-994J616*
G01*
G75*
G02X257275Y78552I-968J929*
G01*
G75*
G02X257132Y78464I-472J603*
G01*
G75*
G02X256982Y78414I-287J606*
G01*
G75*
G02X256817Y78396I-166J787*
G01*
G75*
G02X256533Y78453J744*
G01*
G75*
G02X256367Y78611I122J296*
G01*
G75*
G02X256319Y78882I465J222*
G01*
G75*
G02X256394Y79283I2257J-218*
G01*
G75*
G03X256443Y79475I-3015J857*
G01*
G75*
G03X256478Y79669I-3020J652*
G01*
G75*
G03X256498Y79840I-2658J400*
G01*
G75*
G03X256494Y79946I-440J39*
G01*
G75*
G03X256400Y80264I-1244J-197*
G01*
G75*
G03X256121Y80855I-14342J-6409*
G01*
G75*
G03X255797Y81467I-12519J-6229*
G01*
G75*
G03X255499Y81946I-5411J-3037*
G01*
G75*
G03X254651Y83080I-14699J-10113*
G01*
G75*
G03X253626Y84270I-20935J-16989*
G01*
G75*
G03X252641Y85300I-22807J-20836*
G01*
G75*
G03X252106Y85661I-1203J-1205*
G01*
G75*
G03X251913Y85731I-740J-1735*
G01*
G75*
G03X251779Y85747I-113J-371*
G01*
G75*
G03X251643Y85717I23J-417*
G01*
G75*
G03X251445Y85624I895J-2166*
G01*
G75*
G03X251107Y85380I698J-1322*
G01*
G75*
G03X250344Y84630I30869J-32167*
G01*
G75*
G03X249554Y83825I66914J-66460*
G01*
G75*
G03X249482Y83647I183J-178*
G01*
G75*
G02X249469Y83601I-83*
G01*
G75*
G02X249372Y83459I-5679J3746*
G01*
G75*
G02X249251Y83293I-4089J2857*
G01*
G75*
G02X249107Y83110I-6502J4956*
G01*
G75*
G03X248957Y82920I12837J-10356*
G01*
G75*
G03X248813Y82735I11426J-8960*
G01*
G75*
G03X248693Y82574I10618J-8043*
G01*
G75*
G03X248632Y82483I1073J-792*
G01*
G75*
G02X248556Y82378I-769J471*
G01*
G75*
G02X248283Y82053I-44552J37254*
G01*
G75*
G02X247954Y81670I-32972J27996*
G01*
G75*
G02X247582Y81246I-50333J43737*
G01*
G75*
G03X247214Y80822I27491J-24286*
G01*
G75*
G03X246893Y80439I17525J-15023*
G01*
G75*
G03X246628Y80113I25271J-20731*
G01*
G75*
G03X246568Y80009I318J-254*
G01*
G75*
G02X246446Y79813I-600J238*
G01*
G75*
G02X246193Y79563I-2506J2281*
G01*
G75*
G02X245880Y79312I-2557J2867*
G01*
G75*
G02X245554Y79106I-1917J2666*
G01*
G75*
G02X245141Y78948I-758J1369*
G01*
G75*
G02X244652Y78891I-521J2307*
G01*
G75*
G02X244208Y78933I-28J2050*
G01*
G75*
G02X243944Y79084I100J480*
G01*
G75*
G03X243844Y79163I-288J-261*
G01*
G75*
G03X243691Y79234I-559J-1010*
G01*
G75*
G03X243506Y79290I-516J-1363*
G01*
G75*
G03X243307Y79324I-396J-1709*
G01*
G75*
G02X243056Y79368I231J2065*
G01*
G75*
G02X242867Y79438I194J812*
G01*
G75*
G02X242698Y79553I395J764*
G01*
G75*
G02X242511Y79735I1502J1729*
G01*
G75*
G02X242323Y79965I1985J1822*
G01*
G75*
G02X242232Y80144I496J362*
G01*
G75*
G02X242193Y80369I858J268*
G01*
G75*
G02X242182Y80789I8800J424*
G01*
G75*
G02X242189Y81072I5930J-7*
G01*
G75*
G02X242209Y81348I5393J-254*
G01*
G75*
G02X242239Y81583I4748J-476*
G01*
G75*
G02X242274Y81715I589J-88*
G01*
G75*
G02X242451Y82005I947J-377*
G01*
G75*
G02X243587Y83309I195633J-169264*
G01*
G75*
G02X245013Y84913I111835J-98045*
G01*
G75*
G02X246844Y86926I281537J-254204*
G01*
G75*
G03X247434Y87580I-40278J36897*
G01*
G75*
G03X247931Y88155I-22685J20111*
G01*
G75*
G03X248348Y88654I-54272J45751*
G01*
G75*
G03X248382Y88751I-117J96*
G01*
G75*
G03X248351Y88819I-90*
G01*
G75*
G03X248267Y88865I-143J-164*
G01*
G75*
G03X248111Y88890I-192J-705*
G01*
G75*
G03X247852Y88896I-257J-4922*
G01*
G75*
G03X247643Y88890I-6J-3304*
G01*
G75*
G03X247450Y88870I156J-2371*
G01*
G75*
G03X247294Y88841I306J-2112*
G01*
G75*
G03X247228Y88806I30J-136*
G01*
G75*
G02X247161Y88767I-109J114*
G01*
G75*
G02X246999Y88727I-719J2552*
G01*
G75*
G02X246800Y88692I-596J2799*
G01*
G75*
G02X246582Y88668I-550J3919*
G01*
G75*
G03X246319Y88641I735J-8666*
G01*
G75*
G03X245974Y88599I2927J-25190*
G01*
G75*
G03X245610Y88549I3471J-26815*
G01*
G75*
G03X245282Y88499I2539J-17730*
G01*
G75*
G02X244586Y88418I-1274J7869*
G01*
G75*
G02X244046Y88429I-210J2868*
G01*
G75*
G02X243621Y88532I204J1763*
G01*
G75*
G02X243283Y88731I415J1093*
G01*
G75*
G03X243134Y88839I-809J-959*
G01*
G75*
G03X242971Y88924I-657J-1066*
G01*
G75*
G03X242809Y88978I-431J-1006*
G01*
G75*
G03X242665Y88996I-144J-564*
G01*
G75*
G02X242382Y89049I1J799*
G01*
G75*
G02X242085Y89203I507J1341*
G01*
G75*
G02X241820Y89431I871J1282*
G01*
G75*
G02X241631Y89700I893J827*
G01*
G75*
G02X241534Y90009I835J433*
G01*
G75*
G02X241493Y90513I5073J666*
G01*
G75*
G02X241502Y91021I5077J164*
G01*
G75*
G02X241578Y91352I1074J-74*
G01*
X242082Y128696D02*
X246262D01*
X246333Y127989*
G75*
G03X246376Y127647I7585J768*
G01*
G75*
G03X246425Y127427I1459J214*
G01*
G75*
G03X246487Y127290I571J175*
G01*
G75*
G03X246569Y127224I133J82*
G01*
G75*
G02X246809Y127098I-310J-881*
G01*
G75*
G02X247007Y126906I-581J-796*
G01*
G75*
G02X247137Y126676I-719J-560*
G01*
G75*
G02X247182Y126435I-622J-241*
G01*
G75*
G03X247190Y126306I1146J1*
G01*
G75*
G03X247212Y126186I870J99*
G01*
G75*
G03X247244Y126092I651J167*
G01*
G75*
G03X247282Y126046I91J38*
G01*
G75*
G02X247330Y125965I-52J-85*
G01*
G75*
G02X247357Y124842I-291089J-7604*
G01*
G75*
G02X247376Y123438I-89069J-1951*
G01*
G75*
G02X247382Y121510I-308554J-1909*
G01*
G75*
G03X247387Y119048I600317J17*
G01*
G75*
G03X247409Y117819I44979J193*
G01*
G75*
G03X247446Y117066I22836J721*
G01*
G75*
G03X247529Y116841I417J26*
G01*
G75*
G02X247586Y116756I-683J-519*
G01*
G75*
G02X247634Y116663I-851J-495*
G01*
G75*
G02X247668Y116574I-784J-353*
G01*
G75*
G02X247679Y116506I-227J-72*
G01*
G75*
G03X247750Y116200I774J18*
G01*
G75*
G03X247990Y115742I4631J2131*
G01*
G75*
G03X248284Y115299I4288J2529*
G01*
G75*
G03X248556Y115020I1185J882*
G01*
G75*
G03X249171Y114617I2623J3333*
G01*
G75*
G03X249898Y114288I2766J5148*
G01*
G75*
G03X250641Y114069I1940J5215*
G01*
G75*
G03X251304Y113996I664J3004*
G01*
X251682*
Y113490*
G75*
G03X251704Y113124I3084J2*
G01*
G75*
G03X251772Y112841I1243J148*
G01*
G75*
G03X251877Y112659I581J214*
G01*
G75*
G03X252011Y112596I135J113*
G01*
G75*
G02X252070Y112570I-1J-84*
G01*
G75*
G02X252156Y112472I-765J-750*
G01*
G75*
G02X252247Y112337I-1076J-826*
G01*
G75*
G02X252332Y112177I-1775J-1052*
G01*
G75*
G02X252447Y111814I-1226J-588*
G01*
G75*
G02X252503Y111298I-4433J-742*
G01*
G75*
G02X252528Y110399I-19589J-981*
G01*
G75*
G02X252532Y108199I-506315J-2187*
G01*
G75*
G02X252528Y106084I-464200J-20*
G01*
G75*
G02X252504Y105163I-22243J100*
G01*
G75*
G02X252457Y104640I-5987J278*
G01*
G75*
G02X252356Y104369I-648J87*
G01*
G75*
G02X252078Y104048I-1319J865*
G01*
G75*
G02X251758Y103866I-604J686*
G01*
G75*
G02X251274Y103769I-650J1993*
G01*
G75*
G02X250357Y103716I-1683J21256*
G01*
G75*
G02X249037Y103712I-720J20001*
G01*
G75*
G02X247964Y103809I265J8926*
G01*
G75*
G02X247055Y104015I973J6407*
G01*
G75*
G02X246237Y104341I1500J4946*
G01*
G75*
G02X245190Y104974I3519J7011*
G01*
G75*
G02X244170Y105806I6082J8493*
G01*
G75*
G02X243307Y106716I6578J7101*
G01*
G75*
G02X242739Y107583I3515J2923*
G01*
G75*
G02X242341Y108662I4557J2296*
G01*
G75*
G02X242158Y109881I6520J1600*
G01*
G75*
G02X242094Y112030I39815J2257*
G01*
G75*
G02X242084Y119122I2673193J7553*
G01*
X242082Y128696*
X242236Y62996D02*
G75*
G02X242641Y65469I33579J-4221D01*
G01*
G75*
G02X243183Y67488I16182J-3264*
G01*
G75*
G02X243809Y68971I10312J-3481*
G01*
G75*
G02X244482Y69646I1392J-713*
G01*
G75*
G02X244623Y69704I394J-759*
G01*
G75*
G02X244809Y69752I629J-2055*
G01*
G75*
G02X245008Y69786I479J-2239*
G01*
G75*
G02X245189Y69796I178J-1484*
G01*
G75*
G02X245423Y69781I3J-1706*
G01*
G75*
G02X245591Y69729I-77J-552*
G01*
G75*
G02X245746Y69624I-292J-598*
G01*
G75*
G02X245943Y69428I-2022J-2231*
G01*
G75*
G02X246077Y69263I-1277J-1170*
G01*
G75*
G02X246200Y69071I-1863J-1326*
G01*
G75*
G02X246295Y68882I-1795J-1024*
G01*
G75*
G02X246343Y68729I-636J-282*
G01*
G75*
G03X246392Y68574I663J125*
G01*
G75*
G03X246493Y68377I2036J926*
G01*
G75*
G03X246625Y68174I2170J1263*
G01*
G75*
G03X246769Y67996I1645J1179*
G01*
X247132Y67594*
X248682Y67787*
G75*
G02X250641Y68012I13614J-109562*
G01*
G75*
G02X252076Y68132I3415J-32196*
G01*
G75*
G02X253416Y68181I1646J-26774*
G01*
G75*
G02X255032Y68176I630J-56475*
G01*
G75*
G02X256236Y68149I-1920J-111812*
G01*
G75*
G02X256944Y68112I-414J-14847*
G01*
G75*
G02X257403Y68059I-454J-5973*
G01*
G75*
G02X257685Y67975I-162J-1052*
G01*
G75*
G02X257990Y67804I-917J-1994*
G01*
G75*
G02X258209Y67609I-603J-900*
G01*
G75*
G02X258356Y67377I-710J-611*
G01*
G75*
G02X258445Y67090I-1202J-530*
G01*
G75*
G03X258481Y66944I1250J233*
G01*
G75*
G03X258538Y66789I1750J552*
G01*
G75*
G03X258604Y66648I1572J654*
G01*
G75*
G03X258671Y66546I555J293*
G01*
G75*
G02X258972Y66094I-2291J-1851*
G01*
G75*
G02X259081Y65708I-806J-435*
G01*
G75*
G02X259006Y65357I-685J-36*
G01*
G75*
G02X258753Y65016I-1165J598*
G01*
X258423Y64696*
X256809*
G75*
G03X256146Y64690I-16J-33187*
G01*
G75*
G03X255621Y64669I265J-13261*
G01*
G75*
G03X255203Y64640I1234J-20454*
G01*
G75*
G03X255132Y64596I7J-92*
G01*
G75*
G02X255087Y64558I-83J51*
G01*
G75*
G02X254993Y64526I-261J619*
G01*
G75*
G02X254874Y64504I-219J848*
G01*
G75*
G02X254744Y64496I-131J1139*
G01*
G75*
G03X254480Y64443I0J-683*
G01*
G75*
G03X254228Y64289I374J-894*
G01*
G75*
G03X254045Y64075I567J-669*
G01*
G75*
G03X253982Y63851I370J-225*
G01*
G75*
G03X254017Y63743I186J0*
G01*
G75*
G03X254211Y63483I6042J4318*
G01*
G75*
G03X254463Y63180I5295J4150*
G01*
G75*
G03X254762Y62856I7902J6970*
G01*
G75*
G02X255109Y62480I-9182J-8827*
G01*
G75*
G02X255507Y62019I-19239J-17032*
G01*
G75*
G02X255895Y61548I-19611J-16560*
G01*
G75*
G02X256206Y61145I-9783J-7859*
G01*
G75*
G03X256478Y60780I97500J72211*
G01*
G75*
G03X256743Y60425I87458J65171*
G01*
G75*
G03X256972Y60121I79632J59795*
G01*
G75*
G03X257102Y59954I8551J6481*
G01*
G75*
G02X257196Y59831I-3375J-2675*
G01*
G75*
G02X257287Y59701I-3772J-2757*
G01*
G75*
G02X257364Y59584I-3423J-2324*
G01*
G75*
G02X257408Y59504I-667J-424*
G01*
G75*
G03X257453Y59419I1254J604*
G01*
G75*
G03X257536Y59276I9367J5349*
G01*
G75*
G03X257635Y59111I10363J6101*
G01*
G75*
G03X257737Y58946I10841J6638*
G01*
G75*
G02X257852Y58754I-3752J-2376*
G01*
G75*
G02X257991Y58503I-10285J-5813*
G01*
G75*
G02X258128Y58237I-10989J-5858*
G01*
G75*
G02X258244Y57996I-6937J-3480*
G01*
G75*
G03X258355Y57758I29837J13739*
G01*
G75*
G03X258479Y57495I44185J20772*
G01*
G75*
G03X258598Y57248I41240J19680*
G01*
G75*
G03X258690Y57062I13678J6637*
G01*
G75*
G02X258763Y56888I-1326J-662*
G01*
G75*
G02X258826Y56682I-2333J-822*
G01*
G75*
G02X258869Y56477I-2311J-586*
G01*
G75*
G02X258882Y56307I-1037J-170*
G01*
G75*
G03X258891Y56157I1407J3*
G01*
G75*
G03X258914Y56014I1247J131*
G01*
G75*
G03X258949Y55894I1002J230*
G01*
G75*
G03X258991Y55828I168J60*
G01*
G75*
G02X259073Y55664I-204J-204*
G01*
G75*
G02X259054Y55456I-461J-63*
G01*
G75*
G02X258940Y55256I-549J181*
G01*
G75*
G02X258757Y55117I-426J373*
G01*
G75*
G03X258616Y55033I379J-793*
G01*
G75*
G03X258535Y54940I170J-231*
G01*
G75*
G03X258493Y54814I310J-172*
G01*
G75*
G03X258480Y54616I1616J-206*
G01*
G75*
G02X258430Y54239I-1500J9*
G01*
G75*
G02X258282Y53830I-2461J656*
G01*
G75*
G02X258077Y53470I-2160J995*
G01*
G75*
G02X257852Y53250I-676J468*
G01*
G75*
G02X257731Y53183I-506J771*
G01*
G75*
G02X257574Y53119I-904J1962*
G01*
G75*
G02X257408Y53065I-775J2110*
G01*
G75*
G02X257257Y53031I-370J1313*
G01*
G75*
G02X256773Y53061I-176J1089*
G01*
G75*
G02X256505Y53308I113J392*
G01*
G75*
G02X256520Y53708I481J181*
G01*
G75*
G02X256832Y54153I1422J-664*
G01*
G75*
G03X257093Y54564I-785J785*
G01*
G75*
G03X257162Y55059I-1164J417*
G01*
G75*
G03X257032Y55700I-2392J-153*
G01*
G75*
G03X256678Y56573I-9263J-3252*
G01*
G75*
G02X256565Y56820I29704J13724*
G01*
G75*
G02X256469Y57034I16535J7484*
G01*
G75*
G02X256388Y57220I47170J20654*
G01*
G75*
G02X256382Y57248I64J28*
G01*
G75*
G03X256375Y57275I-53J0*
G01*
G75*
G03X256259Y57474I-51014J-29708*
G01*
G75*
G03X256123Y57702I-15945J-9330*
G01*
G75*
G03X255961Y57966I-28880J-17518*
G01*
G75*
G03X255149Y59163I-14461J-8944*
G01*
G75*
G03X254328Y60134I-8194J-6090*
G01*
G75*
G03X253584Y60813I-5378J-5148*
G01*
G75*
G03X253057Y60999I-533J-670*
G01*
G75*
G02X252788Y61042I6J893*
G01*
G75*
G02X252533Y61165I322J995*
G01*
G75*
G02X252313Y61357I612J923*
G01*
G75*
G02X252149Y61600I852J750*
G01*
G75*
G03X252020Y61781I-631J-315*
G01*
G75*
G03X251859Y61875I-256J-252*
G01*
G75*
G03X251737Y61848I-36J-131*
G01*
G75*
G03X251680Y61729I102J-122*
G01*
G75*
G02X251616Y61362I-1177J15*
G01*
G75*
G02X251267Y60384I-43208J14861*
G01*
G75*
G02X250850Y59312I-31465J11631*
G01*
G75*
G02X250418Y58313I-24891J10180*
G01*
G75*
G03X250299Y58034I5227J-2388*
G01*
G75*
G03X250316Y57952I71J-28*
G01*
G75*
G03X250386Y57951I36J35*
G01*
G75*
G03X250583Y58147I-2878J3081*
G01*
G75*
G02X250698Y58249I613J-579*
G01*
G75*
G02X250830Y58329I498J-676*
G01*
G75*
G02X250968Y58380I332J-688*
G01*
G75*
G02X251100Y58396I131J-502*
G01*
G75*
G02X251255Y58386I2J-1103*
G01*
G75*
G02X251333Y58346I-19J-133*
G01*
G75*
G02X251372Y58265I-103J-99*
G01*
G75*
G02X251382Y58102I-1270J-161*
G01*
G75*
G02X251375Y57985I-934J-2*
G01*
G75*
G02X251353Y57877I-742J94*
G01*
G75*
G02X251321Y57790I-552J156*
G01*
G75*
G02X251282Y57746I-92J43*
G01*
G75*
G03X251244Y57709I66J-106*
G01*
G75*
G03X251212Y57648I283J-189*
G01*
G75*
G03X251190Y57575I378J-154*
G01*
G75*
G03X251182Y57499I382J-76*
G01*
G75*
G02X251164Y57392I-321J-1*
G01*
G75*
G02X251084Y57182I-4372J1553*
G01*
G75*
G02X250975Y56936I-4604J1889*
G01*
G75*
G02X250846Y56680I-5822J2764*
G01*
G75*
G03X250698Y56400I176419J-93592*
G01*
G75*
G03X250530Y56080I294981J-155878*
G01*
G75*
G03X250367Y55772I285161J-150052*
G01*
G75*
G03X250239Y55528I111640J-58771*
G01*
G75*
G02X250125Y55320I-4730J2476*
G01*
G75*
G02X250006Y55127I-3935J2282*
G01*
G75*
G02X249897Y54967I-3430J2229*
G01*
G75*
G02X249825Y54891I-336J241*
G01*
G75*
G03X249770Y54837I287J-346*
G01*
G75*
G03X249724Y54773I376J-321*
G01*
G75*
G03X249693Y54709I362J-221*
G01*
G75*
G03X249682Y54657I132J-53*
G01*
G75*
G02X249591Y54438I-306J0*
G01*
G75*
G02X248957Y53836I-18739J19085*
G01*
G75*
G02X248313Y53275I-10406J11310*
G01*
G75*
G02X247889Y53007I-1296J1578*
G01*
G75*
G02X247647Y52911I-854J1806*
G01*
G75*
G02X247392Y52846I-646J2003*
G01*
G75*
G02X247107Y52809I-474J2506*
G01*
G75*
G02X246775Y52796I-332J4504*
G01*
G75*
G02X246323Y52816I4J5289*
G01*
G75*
G02X246015Y52881I111J1296*
G01*
G75*
G02X245698Y53025I564J1652*
G01*
G75*
G02X245189Y53337I6828J11719*
G01*
G75*
G03X244997Y53456I-3294J-5125*
G01*
G75*
G03X244786Y53576I-4174J-7043*
G01*
G75*
G03X244588Y53682I-3607J-6545*
G01*
G75*
G03X244439Y53752I-995J-1927*
G01*
G75*
G02X243773Y54179I902J2138*
G01*
G75*
G02X243184Y54862I2613J2850*
G01*
G75*
G02X242706Y55755I4057J2744*
G01*
G75*
G02X242373Y56806I6355J2594*
G01*
G75*
G02X242198Y57968I7391J1706*
G01*
G75*
G02X242116Y59711I34991J2517*
G01*
G75*
G02X242123Y61528I35408J778*
G01*
G75*
G02X242236Y62996I15400J-451*
G01*
X242332Y34946D02*
G75*
G02X242505Y36041I35301J-5028D01*
G01*
G75*
G02X242688Y36946I17104J-2979*
G01*
G75*
G02X242939Y37938I22146J-5090*
G01*
G75*
G02X243343Y39346I88698J-24648*
G01*
G75*
G02X243928Y41011I16563J-4884*
G01*
G75*
G02X244649Y42502I12457J-5106*
G01*
G75*
G02X245411Y43668I9120J-5127*
G01*
G75*
G02X246102Y44255I1650J-1243*
G01*
G75*
G02X246445Y44374I572J-1093*
G01*
G75*
G02X246824Y44396I272J-1440*
G01*
G75*
G02X247173Y44322I-93J-1302*
G01*
G75*
G02X247429Y44159I-237J-655*
G01*
G75*
G02X247585Y43952I-648J-648*
G01*
G75*
G02X247734Y43635I-2573J-1405*
G01*
G75*
G02X247846Y43299I-2738J-1099*
G01*
G75*
G02X247882Y43029I-1030J-276*
G01*
G75*
G03X247899Y42970I111J1*
G01*
G75*
G03X247962Y42883I742J471*
G01*
G75*
G03X248050Y42788I848J693*
G01*
G75*
G03X248154Y42697I973J1016*
G01*
G75*
G02X248383Y42462I-770J-979*
G01*
G75*
G02X248549Y42170I-1092J-813*
G01*
G75*
G02X248649Y41822I-1481J-614*
G01*
G75*
G02X248682Y41421I-2387J-399*
G01*
Y40969*
X249307Y41029*
G75*
G02X251046Y41169I5186J-53637*
G01*
G75*
G02X252766Y41250I3265J-50942*
G01*
G75*
G02X254312Y41269I1302J-43218*
G01*
G75*
G02X255498Y41216I-87J-15324*
G01*
G75*
G02X256082Y41163I-2848J-34266*
G01*
G75*
G02X256650Y41100I-3098J-30891*
G01*
G75*
G02X257136Y41038I-3331J-27972*
G01*
G75*
G02X257405Y40989I-420J-3076*
G01*
G75*
G02X257836Y40837I-439J-1924*
G01*
G75*
G02X258181Y40598I-622J-1267*
G01*
G75*
G02X258405Y40300I-744J-790*
G01*
G75*
G02X258482Y39975I-637J-324*
G01*
G75*
G03X258500Y39800I905J1*
G01*
G75*
G03X258550Y39646I635J125*
G01*
G75*
G03X258642Y39500I681J325*
G01*
G75*
G03X258782Y39346I1230J982*
G01*
G75*
G02X258992Y39065I-728J-761*
G01*
G75*
G02X259081Y38748I-743J-379*
G01*
G75*
G02X259040Y38414I-868J-64*
G01*
G75*
G02X258876Y38087I-1149J374*
G01*
X258669Y37796*
X257081*
G75*
G03X256431Y37790I-16J-31907*
G01*
G75*
G03X255915Y37769I261J-12865*
G01*
G75*
G03X255503Y37740I1204J-19658*
G01*
G75*
G03X255432Y37696I7J-92*
G01*
G75*
G02X255374Y37657I-73J45*
G01*
G75*
G02X255157Y37626I-714J4204*
G01*
G75*
G02X254889Y37604I-450J3837*
G01*
G75*
G02X254582Y37596I-311J6472*
G01*
G75*
G03X254276Y37589I-4J-6471*
G01*
G75*
G03X254007Y37567I182J-3859*
G01*
G75*
G03X253791Y37536I498J-4235*
G01*
G75*
G03X253732Y37496I15J-85*
G01*
G75*
G02X253685Y37458I-80J49*
G01*
G75*
G02X253578Y37426I-299J810*
G01*
G75*
G02X253441Y37404I-244J1080*
G01*
G75*
G02X253291Y37396I-151J1525*
G01*
X252912*
X252852Y36472*
G75*
G02X252755Y35683I-7037J461*
G01*
G75*
G02X252544Y34658I-20576J3699*
G01*
G75*
G02X252272Y33606I-21140J4908*
G01*
G75*
G02X251981Y32722I-11311J3230*
G01*
G75*
G03X251911Y32520I4117J-1533*
G01*
G75*
G03X251865Y32348I2024J-645*
G01*
G75*
G03X251839Y32214I1967J-450*
G01*
G75*
G03X251859Y32187I24J-4*
G01*
G75*
G03X251904Y32183I45J322*
G01*
G75*
G03X252006Y32185I-21J6242*
G01*
G75*
G03X252128Y32188I-120J6205*
G01*
G75*
G03X252257Y32194I-306J8165*
G01*
G75*
G02X252458Y32195I108J-1942*
G01*
G75*
G02X252538Y32155I-6J-112*
G01*
G75*
G02X252575Y32063I-119J-102*
G01*
G75*
G02X252582Y31810I-4357J-249*
G01*
G75*
G02X252575Y31652I-1715J-2*
G01*
G75*
G02X252553Y31508I-1207J111*
G01*
G75*
G02X252521Y31395I-939J203*
G01*
G75*
G02X252482Y31346I-88J31*
G01*
G75*
G03X252444Y31304I54J-86*
G01*
G75*
G03X252412Y31219I502J-239*
G01*
G75*
G03X252390Y31111I700J-200*
G01*
G75*
G03X252382Y30996I893J-116*
G01*
G75*
G02X252375Y30882I-897J-2*
G01*
G75*
G02X252353Y30775I-722J93*
G01*
G75*
G02X252321Y30690I-535J154*
G01*
G75*
G02X252282Y30646I-93J44*
G01*
G75*
G03X252244Y30610I67J-108*
G01*
G75*
G03X252212Y30550I274J-187*
G01*
G75*
G03X252190Y30478I365J-151*
G01*
G75*
G03X252182Y30405I359J-74*
G01*
G75*
G02X252125Y30150I-598J0*
G01*
G75*
G02X251798Y29482I-22149J10451*
G01*
G75*
G02X251425Y28791I-14751J7519*
G01*
G75*
G02X251077Y28235I-7065J4033*
G01*
G75*
G02X250704Y27744I-5108J3489*
G01*
G75*
G02X250207Y27186I-10107J8508*
G01*
G75*
G02X249704Y26668I-18157J17103*
G01*
G75*
G02X249533Y26596I-172J171*
G01*
G75*
G03X249475Y26584I0J-136*
G01*
G75*
G03X249398Y26541I263J-567*
G01*
G75*
G03X249317Y26480I419J-641*
G01*
G75*
G03X249243Y26409I529J-620*
G01*
G75*
G02X249138Y26325I-309J280*
G01*
G75*
G02X248941Y26225I-1334J2383*
G01*
G75*
G02X248704Y26127I-1331J2898*
G01*
G75*
G02X248455Y26047I-1181J3232*
G01*
G75*
G02X247881Y25943I-844J3015*
G01*
G75*
G02X247248Y25933I-379J4340*
G01*
G75*
G02X246670Y26011I229J3896*
G01*
G75*
G02X246282Y26174I229J1085*
G01*
G75*
G03X245969Y26376I-5674J-8477*
G01*
G75*
G03X245646Y26567I-5485J-8876*
G01*
G75*
G03X245294Y26760I-5990J-10535*
G01*
G75*
G03X244889Y26967I-9211J-17486*
G01*
G75*
G02X244095Y27503I1617J3254*
G01*
G75*
G02X243413Y28259I3059J3446*
G01*
G75*
G02X242862Y29215I4439J3196*
G01*
G75*
G02X242458Y30346I6990J3133*
G01*
G75*
G02X242301Y31223I4925J1335*
G01*
G75*
G02X242226Y32493I20305J1827*
G01*
G75*
G02X242232Y33827I21038J574*
G01*
G75*
G02X242332Y34946I10651J-384*
G01*
X245285Y56816D02*
G75*
G03X245399Y56647I1829J1117D01*
G01*
G75*
G03X245491Y56563I269J200*
G01*
G75*
G03X245588Y56535I98J159*
G01*
G75*
G03X245710Y56553I4J405*
G01*
G75*
G03X246935Y57134I-1353J4432*
G01*
G75*
G03X248093Y58104I-3933J5874*
G01*
G75*
G03X249194Y59475I-7061J6799*
G01*
G75*
G03X250249Y61266I-15809J10516*
G01*
G75*
G03X250573Y61930I-13734J7103*
G01*
G75*
G03X250737Y62382I-2700J1239*
G01*
G75*
G03X250775Y62683I-1030J282*
G01*
G75*
G03X250682Y62847I-196J-4*
G01*
G75*
G02X250637Y62895I65J106*
G01*
G75*
G02X250580Y63019I1529J791*
G01*
G75*
G02X250522Y63174I1799J759*
G01*
G75*
G02X250472Y63346I2535J820*
G01*
G75*
G03X250373Y63639I-1910J-481*
G01*
G75*
G03X250248Y63804I-392J-167*
G01*
G75*
G03X250093Y63854I-143J-179*
G01*
G75*
G03X249904Y63802I23J-448*
G01*
G75*
G02X249791Y63755I-279J519*
G01*
G75*
G02X249504Y63674I-4202J14321*
G01*
G75*
G02X249159Y63585I-3693J13602*
G01*
G75*
G02X248782Y63497I-4644J18972*
G01*
G75*
G03X247606Y63176I2915J-13023*
G01*
G75*
G03X246723Y62799I1594J-4944*
G01*
G75*
G03X246105Y62359I1487J-2744*
G01*
G75*
G03X245738Y61846I1028J-1125*
G01*
G75*
G03X245437Y61054I7534J-3309*
G01*
G75*
G03X245246Y60293I5780J-1857*
G01*
G75*
G03X245139Y59437I7472J-1366*
G01*
G75*
G03X245096Y58346I19211J-1302*
G01*
G75*
G03X245096Y57668I32093J-358*
G01*
G75*
G03X245121Y57298I3301J35*
G01*
G75*
G03X245178Y57044I1280J156*
G01*
G75*
G03X245285Y56816I1075J363*
G01*
X245935Y29992D02*
G75*
G03X246032Y29836I1008J520D01*
G01*
G75*
G03X246130Y29751I245J183*
G01*
G75*
G03X246261Y29709I172J314*
G01*
G75*
G03X246471Y29696I213J1793*
G01*
G75*
G03X247538Y30024I0J1904*
G01*
G75*
G03X248786Y31073I-4420J6526*
G01*
G75*
G03X250044Y32629I-8143J7868*
G01*
G75*
G03X251157Y34546I-14127J9485*
G01*
G75*
G03X251541Y35360I-19790J9827*
G01*
G75*
G03X251798Y36009I-7433J3321*
G01*
G75*
G03X251944Y36517I-4645J1615*
G01*
G75*
G03X251965Y36869I-1011J234*
G01*
G75*
G03X251931Y37021I-796J-93*
G01*
G75*
G03X251872Y37105I-159J-51*
G01*
G75*
G03X251763Y37151I-152J-206*
G01*
G75*
G03X251544Y37178I-422J-2501*
G01*
G75*
G03X251388Y37183I-118J-1443*
G01*
G75*
G03X251239Y37170I30J-1210*
G01*
G75*
G03X251116Y37143I148J-958*
G01*
G75*
G03X251049Y37104I42J-148*
G01*
G75*
G02X250975Y37062I-111J111*
G01*
G75*
G02X250805Y37028I-499J2062*
G01*
G75*
G02X250596Y37004I-376J2392*
G01*
G75*
G02X250369Y36996I-228J3308*
G01*
G75*
G03X250144Y36989I-3J-3461*
G01*
G75*
G03X249945Y36967I142J-2197*
G01*
G75*
G03X249787Y36936I311J-1976*
G01*
G75*
G03X249732Y36896I21J-86*
G01*
G75*
G02X249687Y36858I-82J50*
G01*
G75*
G02X249589Y36826I-269J659*
G01*
G75*
G02X249467Y36804I-224J894*
G01*
G75*
G02X249332Y36796I-135J1221*
G01*
G75*
G03X249198Y36789I-2J-1225*
G01*
G75*
G03X249076Y36767I101J-917*
G01*
G75*
G03X248978Y36735I172J-691*
G01*
G75*
G03X248932Y36696I37J-90*
G01*
G75*
G02X248887Y36658I-82J50*
G01*
G75*
G02X248789Y36626I-269J659*
G01*
G75*
G02X248667Y36604I-224J894*
G01*
G75*
G02X248532Y36596I-135J1221*
G01*
G75*
G03X248398Y36589I-2J-1225*
G01*
G75*
G03X248276Y36567I101J-917*
G01*
G75*
G03X248178Y36535I172J-691*
G01*
G75*
G03X248132Y36496I37J-90*
G01*
G75*
G02X248097Y36458I-117J72*
G01*
G75*
G02X248042Y36426I-180J244*
G01*
G75*
G02X247977Y36404I-143J314*
G01*
G75*
G02X247912Y36396I-66J284*
G01*
G75*
G03X247825Y36376I0J-194*
G01*
G75*
G03X247674Y36294I988J-1989*
G01*
G75*
G03X247502Y36181I1305J-2185*
G01*
G75*
G03X247327Y36047I1909J-2674*
G01*
G75*
G03X246954Y35646I1281J-1564*
G01*
G75*
G03X246571Y35026I5053J-3554*
G01*
G75*
G03X246270Y34383I5434J-2931*
G01*
G75*
G03X246182Y33927I1144J-458*
G01*
G75*
G02X246175Y33800I-1090J-2*
G01*
G75*
G02X246153Y33684I-836J98*
G01*
G75*
G02X246121Y33591I-624J163*
G01*
G75*
G02X246082Y33546I-91J40*
G01*
G75*
G03X246043Y33500I52J-82*
G01*
G75*
G03X246009Y33394I796J-318*
G01*
G75*
G03X245984Y33261I1057J-269*
G01*
G75*
G03X245972Y33116I1470J-189*
G01*
G75*
G02X245963Y32956I-2386J61*
G01*
G75*
G02X245942Y32781I-3474J326*
G01*
G75*
G02X245914Y32619I-3198J472*
G01*
G75*
G02X245882Y32496I-1082J214*
G01*
G75*
G03X245798Y32019I1711J-547*
G01*
G75*
G03X245791Y31190I13724J-545*
G01*
G75*
G03X245830Y30364I15609J330*
G01*
G75*
G03X245935Y29992I963J71*
G01*
X246537Y118143D02*
G75*
G03X246677Y117688I5253J1367D01*
G01*
G75*
G03X246893Y117119I13590J4825*
G01*
G75*
G03X247129Y116545I42635J17222*
G01*
G75*
G03X247202Y116496I73J31*
G01*
G75*
G03X247263Y116558J62*
G01*
G75*
G03X247204Y121087I-12355036J-159934*
G01*
G75*
G03X247142Y125590I-8601165J-115047*
G01*
G75*
G03X247079Y125741I-217J-3*
G01*
G75*
G02X247041Y125798I116J117*
G01*
G75*
G02X247011Y125896I750J288*
G01*
G75*
G02X246989Y126014I951J233*
G01*
G75*
G02X246982Y126135I1036J121*
G01*
G75*
G03X246937Y126361I-578J1*
G01*
G75*
G03X246795Y126620I-1396J-594*
G01*
G75*
G03X246618Y126834I-1190J-808*
G01*
G75*
G03X246465Y126896I-152J-154*
G01*
G75*
G03X246431Y126864J-33*
G01*
G75*
G03X246407Y125698I725747J-15784*
G01*
G75*
G03X246389Y124382I104177J-2091*
G01*
G75*
G03X246382Y122818I206495J-1614*
G01*
G75*
G03X246389Y120629I399426J55*
G01*
G75*
G03X246412Y119405I44353J244*
G01*
G75*
G03X246456Y118625I16843J553*
G01*
G75*
G03X246537Y118143I2799J222*
G01*
X246959Y104329D02*
G75*
G03X247558Y104131I1187J2580D01*
G01*
G75*
G03X248413Y103989I2017J9544*
G01*
G75*
G03X249380Y103915I1367J11379*
G01*
G75*
G03X250346Y103922I396J11248*
G01*
G75*
G03X251084Y103982I-630J12272*
G01*
G75*
G03X251504Y104088I-179J1600*
G01*
G75*
G03X251812Y104283I-367J917*
G01*
G75*
G03X252126Y104635I-1827J1951*
G01*
G75*
G03X252247Y104903I-546J407*
G01*
G75*
G03X252304Y105328I-2830J594*
G01*
G75*
G03X252328Y106108I-14488J837*
G01*
G75*
G03X252332Y108185I-491785J2064*
G01*
G75*
G03X252328Y110196I-409888J42*
G01*
G75*
G03X252303Y111035I-17069J-84*
G01*
G75*
G03X252246Y111522I-4033J-219*
G01*
G75*
G03X252132Y111877I-1356J-241*
G01*
G75*
G03X251907Y112114I-479J-229*
G01*
G75*
G03X251750Y112034I-51J-94*
G01*
G75*
G03X251686Y111209I6468J-912*
G01*
G75*
G03X251659Y108522I414956J-5600*
G01*
X251632Y104746*
X249057Y104720*
G75*
G03X248070Y104704I983J-92599*
G01*
G75*
G03X247239Y104680I978J-46674*
G01*
G75*
G03X246513Y104650I8932J-228811*
G01*
G75*
G03X246484Y104620I1J-30*
G01*
G75*
G03X246505Y104582I48J1*
G01*
G75*
G03X246624Y104504I1570J2284*
G01*
G75*
G03X246778Y104418I1292J2111*
G01*
G75*
G03X246959Y104329I1965J3787*
G01*
X249707Y128273D02*
G75*
G02X250270Y128237I-604J-13926D01*
G01*
G75*
G02X250735Y128181I-561J-6617*
G01*
G75*
G02X251143Y128101I-783J-5056*
G01*
G75*
G02X251532Y127989I-1071J-4457*
G01*
G75*
G02X252256Y127678I-1528J-4546*
G01*
G75*
G02X253004Y127221I-3434J-6462*
G01*
G75*
G02X253696Y126676I-4223J-6068*
G01*
G75*
G02X254252Y126096I-3402J-3820*
G01*
G75*
G03X254490Y125806I296990J243152*
G01*
G75*
G03X254767Y125468I537130J440327*
G01*
G75*
G03X255038Y125138I525222J431559*
G01*
G75*
G03X255258Y124871I225352J185301*
G01*
G75*
G02X255443Y124641I-9402J-7753*
G01*
G75*
G02X255605Y124428I-6578J-5168*
G01*
G75*
G02X255735Y124246I-7558J-5536*
G01*
G75*
G02X255772Y124171I-227J-159*
G01*
G75*
G03X255798Y124106I383J121*
G01*
G75*
G03X255854Y124005I2370J1234*
G01*
G75*
G03X255923Y123892I2610J1514*
G01*
G75*
G03X255997Y123781I2609J1659*
G01*
G75*
G02X256068Y123665I-889J-621*
G01*
G75*
G02X256128Y123534I-1183J-624*
G01*
G75*
G02X256170Y123409I-1100J-437*
G01*
G75*
G02X256182Y123312I-356J-96*
G01*
G75*
G03X256190Y123230I464J0*
G01*
G75*
G03X256212Y123150I449J81*
G01*
G75*
G03X256244Y123085I344J130*
G01*
G75*
G03X256282Y123046I102J62*
G01*
G75*
G02X256321Y123006I-57J-94*
G01*
G75*
G02X256353Y122933I-381J-211*
G01*
G75*
G02X256375Y122843I-528J-176*
G01*
G75*
G02X256382Y122746I-619J-94*
G01*
G75*
G03X256390Y122651I624J1*
G01*
G75*
G03X256412Y122560I550J86*
G01*
G75*
G03X256444Y122487I413J138*
G01*
G75*
G03X256482Y122446I96J53*
G01*
G75*
G02X256521Y122401I-50J-83*
G01*
G75*
G02X256553Y122304I-659J-269*
G01*
G75*
G02X256575Y122181I-894J-224*
G01*
G75*
G02X256582Y122046I-1221J-132*
G01*
G75*
G03X256590Y121913I1225J1*
G01*
G75*
G03X256612Y121790I917J101*
G01*
G75*
G03X256644Y121692I691J172*
G01*
G75*
G03X256682Y121646I90J37*
G01*
G75*
G02X256722Y121587I-44J-73*
G01*
G75*
G02X256753Y121342I-5725J-852*
G01*
G75*
G02X256775Y121041I-4776J-501*
G01*
G75*
G02X256782Y120696I-8198J-341*
G01*
G75*
G03X256790Y120352I8196J6*
G01*
G75*
G03X256812Y120051I4798J200*
G01*
G75*
G03X256843Y119807I5756J608*
G01*
G75*
G03X256882Y119746I85J12*
G01*
G75*
G02X256922Y119687I-44J-73*
G01*
G75*
G02X256953Y119442I-5725J-852*
G01*
G75*
G02X256975Y119141I-4776J-501*
G01*
G75*
G02X256982Y118796I-8198J-341*
G01*
G75*
G03X256990Y118452I8196J6*
G01*
G75*
G03X257012Y118151I4798J200*
G01*
G75*
G03X257043Y117907I5756J608*
G01*
G75*
G03X257082Y117846I85J12*
G01*
G75*
G02X257121Y117801I-50J-83*
G01*
G75*
G02X257153Y117704I-659J-269*
G01*
G75*
G02X257175Y117581I-894J-224*
G01*
G75*
G02X257182Y117446I-1221J-132*
G01*
G75*
G03X257190Y117313I1225J1*
G01*
G75*
G03X257212Y117190I917J101*
G01*
G75*
G03X257244Y117092I691J172*
G01*
G75*
G03X257282Y117046I90J37*
G01*
G75*
G02X257321Y117007I-58J-95*
G01*
G75*
G02X257353Y116935I-367J-208*
G01*
G75*
G02X257375Y116846I-511J-174*
G01*
G75*
G02X257382Y116753I-583J-91*
G01*
G75*
G03X257416Y116513I884J1*
G01*
G75*
G03X257528Y116176I3745J1054*
G01*
G75*
G03X257724Y115708I7565J2900*
G01*
G75*
G03X258048Y115018I35467J16230*
G01*
G75*
G03X258619Y114107I4325J2080*
G01*
G75*
G03X259368Y113370I3435J2739*
G01*
G75*
G03X260232Y112861I2438J3153*
G01*
G75*
G03X261144Y112624I1232J2868*
G01*
X261682Y112569*
Y112052*
G75*
G03X261695Y111731I4126J2*
G01*
G75*
G03X261744Y111564I426J33*
G01*
G75*
G03X261856Y111427I396J210*
G01*
G75*
G03X262122Y111226I2988J3663*
G01*
G75*
G02X262381Y111023I-1922J-2731*
G01*
G75*
G02X262515Y110859I-400J-461*
G01*
G75*
G02X262598Y110643I-718J-403*
G01*
G75*
G02X262685Y110219I-8236J-1912*
G01*
G75*
G02X262753Y109617I-4541J-812*
G01*
G75*
G02X262763Y108844I-11968J-539*
G01*
G75*
G02X262719Y107665I-33686J648*
G01*
G75*
G02X262594Y105496I-334956J18190*
G01*
G75*
G02X262520Y104490I-38850J2365*
G01*
G75*
G02X262434Y103959I-3658J319*
G01*
G75*
G02X262301Y103618I-1274J303*
G01*
G75*
G02X262083Y103346I-940J529*
G01*
G75*
G02X261894Y103235I-364J404*
G01*
G75*
G02X261630Y103178I-383J1130*
G01*
G75*
G02X261178Y103154I-484J4848*
G01*
G75*
G02X260147Y103152I-744J99493*
G01*
G75*
G02X259039Y103162I314J93904*
G01*
G75*
G02X258570Y103196I61J4101*
G01*
G75*
G02X258222Y103280I218J1670*
G01*
G75*
G02X257782Y103460I1713J4809*
G01*
G75*
G02X257524Y103588I2569J5520*
G01*
G75*
G02X257283Y103723I2346J4474*
G01*
G75*
G02X257086Y103847I2335J3912*
G01*
G75*
G02X256995Y103930I234J349*
G01*
G75*
G03X256936Y103994I-576J-474*
G01*
G75*
G03X256872Y104048I-444J-463*
G01*
G75*
G03X256812Y104086I-305J-412*
G01*
G75*
G03X256769Y104096I-43J-80*
G01*
G75*
G02X256586Y104161J292*
G01*
G75*
G02X256043Y104611I15613J19390*
G01*
G75*
G02X255513Y105087I8738J10253*
G01*
G75*
G02X255146Y105480I3057J3222*
G01*
G75*
G02X254517Y106420I4360J3604*
G01*
G75*
G02X254094Y107455I4764J2546*
G01*
G75*
G02X253831Y108749I7724J2246*
G01*
G75*
G02X253684Y110508I24931J2972*
G01*
G75*
G03X253583Y111843I-24689J-1201*
G01*
G75*
G03X253406Y113243I-30418J-3128*
G01*
G75*
G03X253194Y114481I-29444J-4411*
G01*
G75*
G03X252989Y115146I-3183J-617*
G01*
G75*
G02X252947Y115247I3481J1487*
G01*
G75*
G02X252891Y115391I13543J5404*
G01*
G75*
G02X252831Y115548I15008J5756*
G01*
G75*
G02X252778Y115696I11784J4366*
G01*
G75*
G03X252437Y116457I-5090J-1824*
G01*
G75*
G03X251980Y117165I-4978J-2706*
G01*
G75*
G03X251473Y117736I-3841J-2901*
G01*
G75*
G03X250982Y118072I-1259J-1313*
G01*
G75*
G02X250820Y118165I500J1068*
G01*
G75*
G02X250618Y118311I2081J3080*
G01*
G75*
G02X250411Y118484I2506J3207*
G01*
G75*
G02X250232Y118657I1991J2239*
G01*
G75*
G03X249994Y118884I-2450J-2327*
G01*
G75*
G03X249791Y119024I-715J-824*
G01*
G75*
G03X249556Y119118I-557J-1048*
G01*
G75*
G03X249207Y119200I-1203J-4311*
G01*
X248582Y119323*
Y128322*
X249707Y128273*
X255878Y121396D02*
G75*
G03X255982Y120124I31378J1913D01*
G01*
G75*
G03X256126Y119086I14298J1456*
G01*
G75*
G03X256326Y118175I10890J1918*
G01*
G75*
G03X256601Y117296I10150J2692*
G01*
G75*
G03X256846Y116684I9128J3294*
G01*
G75*
G03X257134Y116085I9107J4011*
G01*
G75*
G03X257284Y115870I913J477*
G01*
G75*
G03X257332Y115896I21J19*
G01*
G75*
G02X257302Y116012I4252J1161*
G01*
G75*
G02X257269Y116154I9485J2335*
G01*
G75*
G02X257237Y116299I9678J2212*
G01*
G75*
G02X257211Y116423I5178J1117*
G01*
G75*
G03X257185Y116533I-1110J-209*
G01*
G75*
G03X257149Y116634I-896J-264*
G01*
G75*
G03X257109Y116715I-700J-296*
G01*
G75*
G03X257071Y116754I-96J-55*
G01*
G75*
G02X257037Y116796I43J70*
G01*
G75*
G02X257009Y116892I730J265*
G01*
G75*
G02X256989Y117013I963J219*
G01*
G75*
G02X256982Y117146I1371J136*
G01*
G75*
G03X256975Y117281I-1228J2*
G01*
G75*
G03X256953Y117404I-917J-101*
G01*
G75*
G03X256921Y117501I-691J-172*
G01*
G75*
G03X256882Y117546I-89J-37*
G01*
G75*
G02X256843Y117607I45J72*
G01*
G75*
G02X256812Y117851I5725J852*
G01*
G75*
G02X256790Y118152I4776J501*
G01*
G75*
G02X256782Y118496I8188J350*
G01*
G75*
G03X256775Y118841I-8205J4*
G01*
G75*
G03X256753Y119142I-4798J-200*
G01*
G75*
G03X256722Y119387I-5756J-608*
G01*
G75*
G03X256682Y119446I-84J-13*
G01*
G75*
G02X256643Y119507I45J72*
G01*
G75*
G02X256612Y119751I5725J852*
G01*
G75*
G02X256590Y120052I4776J501*
G01*
G75*
G02X256582Y120396I8188J350*
G01*
G75*
G03X256575Y120741I-8205J4*
G01*
G75*
G03X256553Y121042I-4798J-200*
G01*
G75*
G03X256522Y121287I-5756J-608*
G01*
G75*
G03X256482Y121346I-84J-13*
G01*
G75*
G02X256444Y121392I51J82*
G01*
G75*
G02X256412Y121490I659J269*
G01*
G75*
G02X256390Y121613I894J224*
G01*
G75*
G02X256382Y121746I1218J135*
G01*
G75*
G03X256375Y121881I-1228J2*
G01*
G75*
G03X256353Y122004I-917J-101*
G01*
G75*
G03X256321Y122101I-691J-172*
G01*
G75*
G03X256282Y122146I-89J-37*
G01*
G75*
G02X256244Y122187I58J93*
G01*
G75*
G02X256212Y122260I381J211*
G01*
G75*
G02X256190Y122351I528J176*
G01*
G75*
G02X256182Y122446I616J96*
G01*
G75*
G03X256175Y122543I-626J2*
G01*
G75*
G03X256153Y122633I-550J-86*
G01*
G75*
G03X256121Y122706I-413J-138*
G01*
G75*
G03X256082Y122746I-96J-54*
G01*
G75*
G02X256044Y122787I59J94*
G01*
G75*
G02X256012Y122858I367J208*
G01*
G75*
G02X255990Y122947I509J174*
G01*
G75*
G02X255982Y123040I585J94*
G01*
G75*
G03X255970Y123139I-406*
G01*
G75*
G03X255934Y123244I-613J-152*
G01*
G75*
G03X255880Y123340I-559J-253*
G01*
G75*
G03X255817Y123409I-280J-191*
G01*
G75*
G03X255720Y123483I-945J-1143*
G01*
G75*
G03X255688Y123476I-13J-19*
G01*
G75*
G03X255679Y123429I57J-35*
G01*
G75*
G03X255717Y123246I6579J1269*
G01*
G75*
G02X255748Y123054I-1578J-351*
G01*
G75*
G02X255792Y122580I-41574J-4100*
G01*
G75*
G02X255837Y122012I-38952J-3394*
G01*
G75*
G02X255878Y121396I-53841J-3924*
G01*
X258156Y103593D02*
G75*
G03X258476Y103469I976J2039D01*
G01*
G75*
G03X258796Y103401I549J1820*
G01*
G75*
G03X259248Y103369I559J4595*
G01*
G75*
G03X260099Y103356I1161J49678*
G01*
G75*
G03X261041Y103355I541J83949*
G01*
G75*
G03X261406Y103381I-16J2750*
G01*
G75*
G03X261629Y103452I-94J687*
G01*
G75*
G03X261833Y103596I-419J811*
G01*
G75*
G03X262122Y103983I-932J996*
G01*
G75*
G03X262274Y104464I-1443J720*
G01*
G75*
G03X262368Y105353I-10127J1521*
G01*
G75*
G03X262546Y108346I-723555J44613*
G01*
G75*
G03X262561Y109178I-10197J590*
G01*
G75*
G03X262497Y109880I-5318J-126*
G01*
G75*
G03X262366Y110427I-3504J-552*
G01*
G75*
G03X262165Y110765I-859J-281*
G01*
G75*
G03X261909Y110874I-250J-235*
G01*
G75*
G03X261745Y110731I3J-169*
G01*
G75*
G03X261685Y110033I4832J-766*
G01*
G75*
G03X261659Y107572I398372J-5564*
G01*
X261632Y104146*
X259632Y104089*
G75*
G03X258863Y104066I7219J-247509*
G01*
G75*
G03X258211Y104043I4107J-128899*
G01*
G75*
G03X257628Y104022I39730J-1076944*
G01*
G75*
G03X257602Y104014I2J-59*
G01*
G75*
G03X257590Y103956I19J-34*
G01*
G75*
G03X257686Y103860I407J311*
G01*
G75*
G03X257877Y103736I939J1237*
G01*
G75*
G03X258156Y103593I2613J4746*
G01*
X260944Y37325D02*
G75*
G02X260985Y37353I93J-92D01*
G01*
G75*
G02X261050Y37376I195J-451*
G01*
G75*
G02X261126Y37391I156J-563*
G01*
G75*
G02X261202Y37396I76J-556*
G01*
G75*
G03X261278Y37408I-1J261*
G01*
G75*
G03X261351Y37441I-90J298*
G01*
G75*
G03X261410Y37489I-152J246*
G01*
G75*
G03X261446Y37546I-128J121*
G01*
G75*
G02X261559Y37655I172J-66*
G01*
G75*
G02X261782Y37693I228J-662*
G01*
G75*
G02X262005Y37658I4J-696*
G01*
G75*
G02X262117Y37551I-57J-172*
G01*
G75*
G03X262186Y37480I118J46*
G01*
G75*
G03X262345Y37431I318J752*
G01*
G75*
G03X262600Y37397I397J2012*
G01*
G75*
G03X263003Y37376I816J11637*
G01*
X263832Y37346*
Y36646*
X262132Y36546*
X262082Y36096*
G75*
G02X262046Y35839I-4296J473*
G01*
G75*
G02X261999Y35722I-300J52*
G01*
G75*
G02X261920Y35665I-115J77*
G01*
G75*
G02X261782Y35646I-139J509*
G01*
G75*
G02X261644Y35665I1J529*
G01*
G75*
G02X261566Y35721I36J133*
G01*
G75*
G02X261519Y35838I252J169*
G01*
G75*
G02X261482Y36093I4131J724*
G01*
G75*
G03X261446Y36334I-3136J-347*
G01*
G75*
G03X261395Y36467I-404J-78*
G01*
G75*
G03X261314Y36546I-187J-111*
G01*
G75*
G03X261182Y36596I-246J-441*
G01*
G75*
G02X261061Y36641I121J520*
G01*
G75*
G02X260980Y36707I109J216*
G01*
G75*
G02X260930Y36807I225J175*
G01*
G75*
G02X260903Y36954I849J235*
G01*
G75*
G02X260896Y37074I1249J126*
G01*
G75*
G02X260903Y37187I980J2*
G01*
G75*
G02X260919Y37279I786J-87*
G01*
G75*
G02X260944Y37325I94J-22*
G01*
X260952Y34520D02*
G75*
G02X261017Y34537I65J-124D01*
G01*
G75*
G02X261429Y34537I328J-63719*
G01*
G75*
G02X261909Y34532I-44J-26621*
G01*
G75*
G02X262463Y34518I-931J-47236*
G01*
X263893Y34474*
X263863Y34160*
X263832Y33846*
X260932*
X260902Y34162*
G75*
G02X260896Y34286I1244J121*
G01*
G75*
G02X260904Y34398I821J-2*
G01*
G75*
G02X260922Y34484I607J-84*
G01*
G75*
G02X260952Y34520I57J-17*
G01*
X261006Y93150D02*
G75*
G02X261106Y93170I109J-282D01*
G01*
G75*
G02X261498Y93179I913J-32430*
G01*
G75*
G02X261962Y93181I340J-21123*
G01*
G75*
G02X262487Y93175I-176J-34432*
G01*
X263832Y93146*
Y92446*
X260932*
X260901Y92772*
G75*
G02X260896Y92914I1105J108*
G01*
G75*
G02X260914Y93026I476J-16*
G01*
G75*
G02X260951Y93106I262J-73*
G01*
G75*
G02X261006Y93150I98J-67*
G01*
X261082Y58996D02*
G75*
G02X261245Y59106I356J-356D01*
G01*
G75*
G02X261462Y59164I330J-796*
G01*
G75*
G02X261822Y59191I409J-3065*
G01*
G75*
G02X262582Y59196I757J-48477*
G01*
X263882*
Y58496*
X262093*
X262063Y58022*
X262032Y57546*
X261457Y57517*
X260882Y57487*
Y58142*
G75*
G02X260891Y58484I6571J-2*
G01*
G75*
G02X260923Y58705I1256J-67*
G01*
G75*
G02X260983Y58864I618J-144*
G01*
G75*
G02X261082Y58996I508J-276*
G01*
X261176Y57896D02*
G75*
G03X261215Y57920J44D01*
G01*
G75*
G03X261252Y58007I-513J270*
G01*
G75*
G03X261283Y58128I-817J272*
G01*
G75*
G03X261302Y58272I-1522J273*
G01*
G75*
G02X261324Y58439I1633J-135*
G01*
G75*
G02X261362Y58554I453J-85*
G01*
G75*
G02X261415Y58622I185J-90*
G01*
G75*
G02X261550I68J-81*
G01*
G75*
G02X261603Y58554I-132J-158*
G01*
G75*
G02X261641Y58439I-415J-200*
G01*
G75*
G02X261663Y58272I-1611J-302*
G01*
G75*
G03X261682Y58128I1647J139*
G01*
G75*
G03X261711Y58007I899J155*
G01*
G75*
G03X261746Y57919I606J191*
G01*
G75*
G03X261819I36J18*
G01*
G75*
G03X261854Y58007I-570J278*
G01*
G75*
G03X261883Y58128I-870J276*
G01*
G75*
G03X261902Y58272I-1628J283*
G01*
X261932Y58646*
X262757Y58676*
G75*
G03X263176Y58696I-496J14178*
G01*
G75*
G03X263411Y58729I-109J1640*
G01*
G75*
G03X263540Y58778I-94J444*
G01*
G75*
G03X263582Y58851I-41J73*
G01*
G75*
G03X263535Y58925I-81J0*
G01*
G75*
G03X263385Y58968I-230J-515*
G01*
G75*
G03X263107Y58991I-324J-2243*
G01*
G75*
G03X262578Y58996I-526J-25070*
G01*
G75*
G03X261970Y58990I0J-27578*
G01*
G75*
G03X261689Y58959I35J-1649*
G01*
G75*
G03X261504Y58888I111J-565*
G01*
G75*
G03X261328Y58751I469J-781*
G01*
G75*
G03X261177Y58530I513J-513*
G01*
G75*
G03X261087Y58233I1192J-524*
G01*
G75*
G03X261080Y57982I832J-148*
G01*
G75*
G03X261176Y57896I96J12*
G01*
X261432Y36796D02*
G75*
G02X261558Y36731I-221J-584D01*
G01*
G75*
G02X261633Y36651I-131J-196*
G01*
G75*
G02X261671Y36534I-279J-156*
G01*
G75*
G02X261682Y36349I-1506J-183*
G01*
G75*
G03X261701Y36066I2196J2*
G01*
G75*
G03X261777Y36006I69J9*
G01*
G75*
G03X261860Y36080I-9J94*
G01*
G75*
G03X261902Y36372I-2419J495*
G01*
X261932Y36746*
X262732Y36796*
G75*
G03X263137Y36828I-806J12832*
G01*
G75*
G03X263366Y36867I-144J1530*
G01*
G75*
G03X263491Y36921I-106J418*
G01*
G75*
G03X263491Y37072I-47J76*
G01*
G75*
G03X263370Y37122I-206J-328*
G01*
G75*
G03X263144Y37155I-324J-1441*
G01*
G75*
G03X262735Y37176I-919J-13489*
G01*
G75*
G02X262426Y37194I255J7005*
G01*
G75*
G02X262155Y37226I342J4174*
G01*
G75*
G02X261936Y37263I699J4761*
G01*
G75*
G02X261879Y37303I17J85*
G01*
G75*
G03X261774Y37343I-78J-49*
G01*
G75*
G03X261504Y37242I611J-2042*
G01*
G75*
G03X261247Y37103I891J-1964*
G01*
G75*
G03X261182Y36987I73J-117*
G01*
G75*
G03X261199Y36944I65J0*
G01*
G75*
G03X261256Y36892I311J282*
G01*
G75*
G03X261337Y36840I357J469*
G01*
G75*
G03X261432Y36796I399J747*
G01*
X261581Y90861D02*
G75*
G02X261735Y91100I706J-285D01*
G01*
G75*
G02X261966Y91267I563J-534*
G01*
G75*
G02X262288Y91365I491J-1035*
G01*
G75*
G02X262713Y91396I422J-2852*
G01*
G75*
G02X263047Y91386I2J-5202*
G01*
G75*
G02X263248Y91347I-50J-796*
G01*
G75*
G02X263408Y91263I-178J-533*
G01*
G75*
G02X263590Y91104I-1034J-1375*
G01*
G75*
G02X263754Y90914I-1193J-1193*
G01*
G75*
G02X263837Y90747I-428J-317*
G01*
G75*
G02X263874Y90526I-895J-262*
G01*
G75*
G02X263882Y90104I-9806J-412*
G01*
Y89396*
X263582*
G75*
G02X263406Y89409I3J1326*
G01*
G75*
G02X263327Y89454I16J119*
G01*
G75*
G02X263291Y89550I140J107*
G01*
G75*
G02X263282Y89784I3463J239*
G01*
G75*
G03X263272Y89946I-1227J1*
G01*
G75*
G03X263240Y90097I-1005J-133*
G01*
G75*
G03X263192Y90221I-755J-222*
G01*
G75*
G03X263132Y90296I-205J-100*
G01*
G75*
G03X263057Y90291I-35J-42*
G01*
G75*
G03X263008Y90185I146J-131*
G01*
G75*
G03X262987Y89887I2482J-327*
G01*
G75*
G03X262982Y89159I63288J-741*
G01*
Y87896*
X262440*
G75*
G02X262136Y87907I4J4631*
G01*
G75*
G02X261956Y87943I44J674*
G01*
G75*
G02X261823Y88020I137J391*
G01*
G75*
G02X261690Y88160I656J761*
G01*
G75*
G02X261579Y88349I632J497*
G01*
G75*
G02X261519Y88568I846J351*
G01*
G75*
G02X261492Y88898I2543J372*
G01*
G75*
G02X261489Y89535I29460J464*
G01*
G75*
G02X261498Y89976I15632J-86*
G01*
G75*
G02X261519Y90383I11326J-377*
G01*
G75*
G02X261547Y90722I11616J-815*
G01*
G75*
G02X261581Y90861I504J-50*
G01*
X261598Y70246D02*
G75*
G02X261651Y70332I796J-433D01*
G01*
G75*
G02X261721Y70425I1284J-900*
G01*
G75*
G02X261796Y70509I1172J-960*
G01*
G75*
G02X261864Y70572I488J-466*
G01*
G75*
G02X262071Y70656I246J-309*
G01*
G75*
G02X262598Y70693I877J-8720*
G01*
G75*
G02X263128Y70695I298J-7293*
G01*
G75*
G02X263428Y70635I-30J-919*
G01*
G75*
G02X263617Y70488I-148J-385*
G01*
G75*
G02X263761Y70210I-930J-659*
G01*
G75*
G02X263852Y69824I-1750J-620*
G01*
G75*
G02X263882Y69352I-3715J-472*
G01*
Y68696*
X263582*
G75*
G02X263409Y68708I3J1365*
G01*
G75*
G02X263330Y68750I16J126*
G01*
G75*
G02X263291Y68839I117J103*
G01*
G75*
G02X263282Y69039I2211J200*
G01*
G75*
G03X263269Y69308I-2607J2*
G01*
G75*
G03X263225Y69517I-1030J-107*
G01*
G75*
G03X263158Y69652I-481J-154*
G01*
G75*
G03X263072Y69696I-86J-61*
G01*
G75*
G03X263036Y69664J-36*
G01*
G75*
G03X263009Y69330I17085J-1557*
G01*
G75*
G03X262989Y68926I9052J-644*
G01*
G75*
G03X262982Y68446I17894J-490*
G01*
Y67196*
X262478*
G75*
G02X262211Y67208I4J3109*
G01*
G75*
G02X262026Y67246I70J822*
G01*
G75*
G02X261876Y67320I184J565*
G01*
G75*
G02X261728Y67442I579J848*
G01*
G75*
G02X261589Y67625I610J610*
G01*
G75*
G02X261518Y67822I522J298*
G01*
G75*
G02X261490Y68134I2002J339*
G01*
G75*
G02X261485Y68867I44894J632*
G01*
G75*
G02X261494Y69338I14162J-36*
G01*
G75*
G02X261519Y69762I9344J-334*
G01*
G75*
G02X261554Y70110I9422J-773*
G01*
G75*
G02X261598Y70246I374J-45*
G01*
X261638Y53874D02*
G75*
G02X261760Y53996I400J-280D01*
G01*
G75*
G02X261911Y54061I239J-344*
G01*
G75*
G02X262159Y54090I281J-1319*
G01*
G75*
G02X262682Y54096I515J-21064*
G01*
G75*
G02X263439Y54049I1J-6015*
G01*
G75*
G02X263736Y53856I-51J-405*
G01*
G75*
G02X263861Y53435I-737J-448*
G01*
G75*
G02X263882Y52124I-40766J-1304*
G01*
Y50596*
X263282*
Y51803*
G75*
G03X263275Y52280I-15024J2*
G01*
G75*
G03X263252Y52712I-10292J-326*
G01*
G75*
G03X263220Y53071I-11123J-820*
G01*
G75*
G03X263179Y53203I-359J-38*
G01*
G75*
G03X263108Y53293I-285J-153*
G01*
G75*
G03X263010Y53353I-218J-246*
G01*
G75*
G03X262873Y53386I-195J-502*
G01*
G75*
G03X262682Y53396I-189J-1743*
G01*
G75*
G03X262492Y53386I-1J-1749*
G01*
G75*
G03X262355Y53353I58J-535*
G01*
G75*
G03X262257Y53293I120J-306*
G01*
G75*
G03X262186Y53203I213J-243*
G01*
G75*
G03X262145Y53071I319J-170*
G01*
G75*
G03X262113Y52712I11091J-1179*
G01*
G75*
G03X262090Y52280I10269J-759*
G01*
G75*
G03X262082Y51803I15017J-487*
G01*
Y50596*
X261482*
Y52124*
G75*
G02X261489Y52922I48752J-11*
G01*
G75*
G02X261514Y53391I6491J-108*
G01*
G75*
G02X261559Y53692I2525J-225*
G01*
G75*
G02X261638Y53874I487J-103*
G01*
X261690Y32333D02*
G75*
G02X261835Y32481I731J-576D01*
G01*
G75*
G02X261984Y32557I253J-311*
G01*
G75*
G02X262206Y32589I252J-945*
G01*
G75*
G02X262674Y32596I459J-14850*
G01*
G75*
G02X263365Y32549I2J-5041*
G01*
G75*
G02X263668Y32367I-62J-444*
G01*
G75*
G02X263811Y31975I-628J-452*
G01*
G75*
G02X263866Y30940I-20174J-1578*
G01*
G75*
G02X263881Y30144I-57844J-1543*
G01*
G75*
G02X263861Y29834I-1946J-25*
G01*
G75*
G02X263792Y29639I-533J79*
G01*
G75*
G02X263645Y29450I-819J482*
G01*
G75*
G02X263479Y29313I-778J779*
G01*
G75*
G02X263315Y29239I-303J453*
G01*
G75*
G02X263089Y29206I-270J1031*
G01*
G75*
G02X262682Y29196I-414J9447*
G01*
G75*
G02X262280Y29206I8J9331*
G01*
G75*
G02X262053Y29239I47J1099*
G01*
G75*
G02X261890Y29311I138J533*
G01*
G75*
G02X261728Y29442I547J840*
G01*
G75*
G02X261589Y29625I606J606*
G01*
G75*
G02X261518Y29824I531J301*
G01*
G75*
G02X261489Y30139I2042J348*
G01*
G75*
G02X261482Y30879I45769J759*
G01*
G75*
G02X261489Y31564I35161J0*
G01*
G75*
G02X261517Y31913I2873J-57*
G01*
G75*
G02X261578Y32141I967J-138*
G01*
G75*
G02X261690Y32333I730J-294*
G01*
Y49233D02*
G75*
G02X261844Y49385I668J-524D01*
G01*
G75*
G02X262007Y49460I252J-333*
G01*
G75*
G02X262266Y49491I285J-1301*
G01*
G75*
G02X262890Y49496I611J-31644*
G01*
X263882*
Y48796*
X263086*
G75*
G03X262520Y48774I-2J-6993*
G01*
G75*
G03X262253Y48679I44J-545*
G01*
G75*
G03X262122Y48482I182J-263*
G01*
G75*
G03X262082Y48103I1785J-379*
G01*
G75*
G02X262072Y47930I-1491J-2*
G01*
G75*
G02X262033Y47847I-140J17*
G01*
G75*
G02X261952Y47807I-98J96*
G01*
G75*
G02X261782Y47796I-171J1368*
G01*
G75*
G02X261598Y47813I0J1062*
G01*
G75*
G02X261520Y47870I19J107*
G01*
G75*
G02X261488Y47997I263J135*
G01*
G75*
G02X261482Y48383I13707J389*
G01*
G75*
G02X261493Y48680I4139J-5*
G01*
G75*
G02X261528Y48900I1327J-94*
G01*
G75*
G02X261591Y49075I853J-209*
G01*
G75*
G02X261690Y49233I783J-380*
G01*
X261693Y97556D02*
G75*
G02X261860Y97658I349J-386D01*
G01*
G75*
G02X262085Y97714I356J-950*
G01*
G75*
G02X262450Y97741I423J-3270*
G01*
G75*
G02X263168Y97746I696J-41018*
G01*
X264432*
Y97401*
G75*
G02X264422Y97217I-1643J-1*
G01*
G75*
G02X264385Y97110I-257J29*
G01*
G75*
G02X264311Y97043I-152J95*
G01*
G75*
G02X264182Y96997I-269J545*
G01*
G75*
G03X264037Y96923I77J-331*
G01*
G75*
G03X263959Y96796I163J-188*
G01*
G75*
G03X263920Y96539I1331J-335*
G01*
G75*
G03X263882Y95809I55081J-3188*
G01*
G75*
G02X263810Y94896I-13140J579*
G01*
G75*
G02X263650Y94520I-712J81*
G01*
G75*
G02X263330Y94343I-387J320*
G01*
G75*
G02X262629Y94296I-701J5266*
G01*
G75*
G02X262193Y94304I3J12267*
G01*
G75*
G02X261979Y94338I33J911*
G01*
G75*
G02X261833Y94413I107J384*
G01*
G75*
G02X261690Y94560I602J733*
G01*
G75*
G02X261578Y94756I609J478*
G01*
G75*
G02X261517Y94990I942J369*
G01*
G75*
G02X261489Y95356I3117J422*
G01*
G75*
G02X261482Y96094I42333J753*
G01*
G75*
G02X261488Y96855I49954J-8*
G01*
G75*
G02X261515Y97196I2688J-42*
G01*
G75*
G02X261577Y97400I704J-101*
G01*
G75*
G02X261693Y97556I452J-214*
G01*
X261714Y27879D02*
G75*
G02X261880Y27996I495J-528D01*
G01*
G75*
G02X262069Y28060I312J-609*
G01*
G75*
G02X262357Y28090I335J-1850*
G01*
G75*
G02X262914Y28096I542J-21918*
G01*
X263882*
Y27396*
X263086*
G75*
G03X262484Y27369I-4J-6503*
G01*
G75*
G03X262230Y27250I39J-413*
G01*
G75*
G03X262111Y26996I291J-292*
G01*
G75*
G03X262082Y26396I6394J-603*
G01*
G75*
G03X262111Y25797I6418J3*
G01*
G75*
G03X262230Y25544I410J39*
G01*
G75*
G03X262484Y25424I293J293*
G01*
G75*
G03X263086Y25396I602J6476*
G01*
X263882*
Y24690*
X262810Y24718*
G75*
G02X262134Y24742I1122J41816*
G01*
G75*
G02X261870Y24778I61J1435*
G01*
G75*
G02X261722Y24853I76J331*
G01*
G75*
G02X261612Y24996I315J358*
G01*
G75*
G02X261557Y25169I510J258*
G01*
G75*
G02X261518Y25496I5300J791*
G01*
G75*
G02X261493Y25924I7598J669*
G01*
G75*
G02X261484Y26454I17701J554*
G01*
G75*
G02X261489Y27195I46911J46*
G01*
G75*
G02X261517Y27515I2211J-32*
G01*
G75*
G02X261584Y27711I604J-97*
G01*
G75*
G02X261714Y27879I591J-323*
G01*
Y73079D02*
G75*
G02X261880Y73196I495J-528D01*
G01*
G75*
G02X262069Y73260I312J-609*
G01*
G75*
G02X262357Y73290I335J-1850*
G01*
G75*
G02X262914Y73296I542J-21918*
G01*
X263882*
Y72596*
X263086*
G75*
G03X262520Y72574I-2J-6993*
G01*
G75*
G03X262253Y72479I44J-545*
G01*
G75*
G03X262122Y72282I182J-263*
G01*
G75*
G03X262082Y71903I1785J-379*
G01*
G75*
G02X262072Y71730I-1491J-2*
G01*
G75*
G02X262033Y71647I-140J17*
G01*
G75*
G02X261952Y71607I-98J96*
G01*
G75*
G02X261782Y71596I-171J1368*
G01*
X261482*
Y72229*
G75*
G02X261492Y72576I6576J-5*
G01*
G75*
G02X261525Y72785I993J-52*
G01*
G75*
G02X261594Y72937I507J-138*
G01*
G75*
G02X261714Y73079I670J-443*
G01*
X261727Y81991D02*
G75*
G02X261868Y82106I827J-879D01*
G01*
G75*
G02X261993Y82163I232J-337*
G01*
G75*
G02X262133Y82178I115J-424*
G01*
G75*
G02X262327Y82154I-88J-1521*
G01*
G75*
G02X262640Y82020I-143J-766*
G01*
G75*
G02X262842Y81771I-364J-502*
G01*
G75*
G02X262951Y81358I-1195J-536*
G01*
G75*
G02X262982Y80693I-7049J-663*
G01*
G75*
G03X262988Y80298I13604J6*
G01*
G75*
G03X263010Y80069I1754J53*
G01*
G75*
G03X263048Y79947I442J70*
G01*
G75*
G03X263107Y79921I44J21*
G01*
G75*
G03X263168Y79987I-29J87*
G01*
G75*
G03X263209Y80207I-2202J531*
G01*
G75*
G03X263241Y80538I-3927J541*
G01*
G75*
G03X263261Y81030I-18154J987*
G01*
X263289Y82096*
X263882*
Y80769*
G75*
G02X263861Y79731I-25626J-4*
G01*
G75*
G02X263763Y79284I-1294J52*
G01*
G75*
G02X263544Y79071I-359J150*
G01*
G75*
G02X263142Y78996I-402J1042*
G01*
G75*
G02X262751Y79049I0J1491*
G01*
G75*
G02X262526Y79209I104J383*
G01*
G75*
G02X262413Y79524I567J383*
G01*
G75*
G02X262382Y80121I5922J600*
G01*
G75*
G03X262378Y80424I-10295J4*
G01*
G75*
G03X262365Y80704I-7646J-225*
G01*
G75*
G03X262346Y80938I-7622J-498*
G01*
G75*
G03X262322Y81039I-383J-38*
G01*
G75*
G03X262237Y81176I-412J-158*
G01*
G75*
G03X262158Y81174I-39J-35*
G01*
G75*
G03X262098Y81031I211J-173*
G01*
G75*
G03X262082Y80746I2564J-285*
G01*
G75*
G02X262076Y80465I-5796J-3*
G01*
G75*
G02X262041Y80359I-209J10*
G01*
G75*
G02X261963Y80310I-94J63*
G01*
G75*
G02X261782Y80296I-183J1237*
G01*
X261482*
Y81029*
G75*
G02X261491Y81450I10730J0*
G01*
G75*
G02X261524Y81677I1097J-44*
G01*
G75*
G02X261595Y81837I493J-126*
G01*
G75*
G02X261727Y81991I757J-510*
G01*
X261728Y46632D02*
G75*
G02X261887Y46775I855J-791D01*
G01*
G75*
G02X262041Y46852I294J-396*
G01*
G75*
G02X262249Y46887I252J-849*
G01*
G75*
G02X262620Y46896I368J-7455*
G01*
G75*
G02X262879Y46892I6J-7397*
G01*
G75*
G02X263124Y46878I-209J-5887*
G01*
G75*
G02X263329Y46859I-425J-5517*
G01*
G75*
G02X263428Y46835I-45J-402*
G01*
G75*
G02X263617Y46688I-148J-385*
G01*
G75*
G02X263761Y46410I-930J-659*
G01*
G75*
G02X263852Y46024I-1750J-620*
G01*
G75*
G02X263882Y45552I-3715J-472*
G01*
Y44896*
X263582*
G75*
G02X263409Y44908I3J1365*
G01*
G75*
G02X263330Y44950I16J126*
G01*
G75*
G02X263291Y45039I117J103*
G01*
G75*
G02X263282Y45239I2211J200*
G01*
G75*
G03X263269Y45508I-2607J2*
G01*
G75*
G03X263225Y45717I-1030J-107*
G01*
G75*
G03X263158Y45852I-481J-154*
G01*
G75*
G03X263072Y45896I-86J-61*
G01*
G75*
G03X263036Y45864J-36*
G01*
G75*
G03X263009Y45530I17085J-1557*
G01*
G75*
G03X262989Y45126I9052J-644*
G01*
G75*
G03X262982Y44646I17894J-490*
G01*
Y43396*
X262496*
G75*
G02X262259Y43409I1J2317*
G01*
G75*
G02X262062Y43446I122J1195*
G01*
G75*
G02X261894Y43510I253J906*
G01*
G75*
G02X261746Y43604I380J766*
G01*
G75*
G02X261592Y43767I467J594*
G01*
G75*
G02X261517Y43950I381J264*
G01*
G75*
G02X261488Y44258I1867J330*
G01*
G75*
G02X261482Y45089I66442J856*
G01*
G75*
G02X261488Y45886I54033J-2*
G01*
G75*
G02X261517Y46223I2367J-35*
G01*
G75*
G02X261588Y46435I677J-108*
G01*
G75*
G02X261728Y46632I817J-431*
G01*
X261739Y50935D02*
G75*
G03X261826Y50935I44J5D01*
G01*
G75*
G03X261856Y51220I-7452J917*
G01*
G75*
G03X261876Y51596I-6516J543*
G01*
G75*
G03X261882Y52089I-18874J488*
G01*
G75*
G02X261887Y52557I24813J-17*
G01*
G75*
G02X261900Y52977I16138J-304*
G01*
G75*
G02X261919Y53328I20478J-926*
G01*
G75*
G02X261943Y53439I373J-23*
G01*
G75*
G02X262009Y53515I142J-54*
G01*
G75*
G02X262133Y53564I214J-366*
G01*
G75*
G02X262339Y53590I256J-1194*
G01*
G75*
G02X262682Y53596I335J-8393*
G01*
G75*
G02X263026Y53590I9J-8409*
G01*
G75*
G02X263232Y53564I-50J-1220*
G01*
G75*
G02X263356Y53515I-90J-414*
G01*
G75*
G02X263422Y53439I-76J-131*
G01*
G75*
G02X263446Y53328I-349J-133*
G01*
G75*
G02X263465Y52977I-20459J-1277*
G01*
G75*
G02X263478Y52557I-16124J-724*
G01*
G75*
G02X263482Y52089I-24808J-464*
G01*
G75*
G03X263489Y51596I18881J10*
G01*
G75*
G03X263509Y51220I6536J167*
G01*
G75*
G03X263539Y50935I7481J632*
G01*
G75*
G03X263626Y50935I44J6*
G01*
G75*
G03X263656Y51231I-8193J957*
G01*
G75*
G03X263676Y51620I-6986J562*
G01*
G75*
G03X263682Y52133I-20506J508*
G01*
G75*
G03X263676Y52849I-39133J13*
G01*
G75*
G03X263648Y53207I-3024J-55*
G01*
G75*
G03X263587Y53439I-987J-137*
G01*
G75*
G03X263475Y53633I-724J-287*
G01*
G75*
G03X263339Y53775I-783J-616*
G01*
G75*
G03X263203Y53852I-265J-309*
G01*
G75*
G03X263016Y53887I-228J-686*
G01*
G75*
G03X262682Y53896I-328J-5939*
G01*
G75*
G03X262349Y53887I-5J-5941*
G01*
G75*
G03X262162Y53852I41J-722*
G01*
G75*
G03X262026Y53775I129J-386*
G01*
G75*
G03X261890Y53633I647J-758*
G01*
G75*
G03X261778Y53439I613J-481*
G01*
G75*
G03X261717Y53207I926J-368*
G01*
G75*
G03X261689Y52849I2996J-414*
G01*
G75*
G03X261682Y52133I39127J-724*
G01*
G75*
G03X261689Y51620I20512J11*
G01*
G75*
G03X261709Y51231I7007J172*
G01*
G75*
G03X261739Y50935I8222J662*
G01*
X261747Y85114D02*
G75*
G03X261914Y85154I-81J715D01*
G01*
G75*
G03X261999Y85229I-54J147*
G01*
G75*
G03X262045Y85378I-383J199*
G01*
G75*
G03X262082Y85761I-11270J1293*
G01*
G75*
G02X262163Y86280I3545J-289*
G01*
G75*
G02X262319Y86583I683J-159*
G01*
G75*
G02X262580Y86744I393J-344*
G01*
G75*
G02X262991Y86796I409J-1573*
G01*
G75*
G02X263250Y86785I2J-3025*
G01*
G75*
G02X263417Y86747I-53J-607*
G01*
G75*
G02X263546Y86669I-154J-403*
G01*
G75*
G02X263675Y86533I-666J-761*
G01*
G75*
G02X263788Y86335I-602J-474*
G01*
G75*
G02X263848Y86097I-965J-372*
G01*
G75*
G02X263876Y85721I-3283J-430*
G01*
G75*
G02X263882Y84952I-46886J-769*
G01*
G75*
G02X263856Y83851I-22430J-5*
G01*
G75*
G02X263718Y83439I-804J39*
G01*
G75*
G02X263409Y83247I-371J252*
G01*
G75*
G02X262694Y83196I-716J5060*
G01*
G75*
G02X262048Y83236J5317*
G01*
G75*
G02X261734Y83386I67J546*
G01*
G75*
G02X261570Y83696I389J404*
G01*
G75*
G02X261498Y84348I5503J935*
G01*
X261461Y85081*
X261747Y85114*
X261757Y40615D02*
G75*
G03X261918Y40657I-67J574D01*
G01*
G75*
G03X262002Y40739I-64J151*
G01*
G75*
G03X262048Y40904I-489J226*
G01*
G75*
G03X262092Y41338I-15465J1763*
G01*
G75*
G02X262178Y41872I3668J-316*
G01*
G75*
G02X262339Y42181I686J-162*
G01*
G75*
G02X262611Y42344I400J-361*
G01*
G75*
G02X263045Y42396I433J-1761*
G01*
G75*
G02X263297Y42385I1J-2685*
G01*
G75*
G02X263444Y42342I-38J-407*
G01*
G75*
G02X263557Y42250I-159J-311*
G01*
G75*
G02X263683Y42072I-1285J-1039*
G01*
G75*
G02X263788Y41842I-901J-549*
G01*
G75*
G02X263847Y41573I-1409J-448*
G01*
G75*
G02X263875Y41173I-3919J-475*
G01*
G75*
G02X263882Y40439I-38465J-759*
G01*
G75*
G02X263877Y39629I-58617J-6*
G01*
G75*
G02X263849Y39290I-2488J35*
G01*
G75*
G02X263782Y39085I-637J96*
G01*
G75*
G02X263651Y38914I-578J306*
G01*
G75*
G02X263498Y38802I-528J561*
G01*
G75*
G02X263328Y38737I-313J563*
G01*
G75*
G02X263091Y38705I-295J1294*
G01*
G75*
G02X262696Y38696I-395J9015*
G01*
G75*
G02X262284Y38705I2J9936*
G01*
G75*
G02X262055Y38739I47J1120*
G01*
G75*
G02X261891Y38811I136J534*
G01*
G75*
G02X261728Y38942I543J838*
G01*
G75*
G02X261597Y39103I710J710*
G01*
G75*
G02X261525Y39266I463J302*
G01*
G75*
G02X261491Y39490I1046J273*
G01*
G75*
G02X261482Y39885I8861J401*
G01*
G75*
G02X261488Y40339I19263J-8*
G01*
G75*
G02X261519Y40496I478J-11*
G01*
G75*
G02X261595Y40574I126J-48*
G01*
G75*
G02X261757Y40615I235J-592*
G01*
X261767Y63496D02*
G75*
G02X261951Y63658I1324J-1321D01*
G01*
G75*
G02X262111Y63744I351J-459*
G01*
G75*
G02X262306Y63785I249J-709*
G01*
G75*
G02X262620Y63796I313J-4296*
G01*
G75*
G02X263063Y63770I2J-3754*
G01*
G75*
G02X263388Y63687I-149J-1256*
G01*
G75*
G02X263618Y63542I-288J-711*
G01*
G75*
G02X263771Y63331I-440J-481*
G01*
G75*
G02X263815Y63179I-481J-220*
G01*
G75*
G02X263850Y62850I-7883J-1007*
G01*
G75*
G02X263874Y62457I-8379J-717*
G01*
G75*
G02X263882Y62037I-10846J-413*
G01*
G75*
G02X263841Y61041I-11953J-3*
G01*
G75*
G02X263667Y60585I-874J73*
G01*
G75*
G02X263303Y60363I-465J351*
G01*
G75*
G02X262569Y60298I-744J4233*
G01*
G75*
G02X262293Y60308I-9J3627*
G01*
G75*
G02X262080Y60341I99J1351*
G01*
G75*
G02X261911Y60399I207J870*
G01*
G75*
G02X261769Y60487I285J617*
G01*
G75*
G02X261635Y60643I361J446*
G01*
G75*
G02X261563Y60836I514J303*
G01*
G75*
G02X261526Y61164I2281J423*
G01*
G75*
G02X261499Y61937I51897J2158*
G01*
X261466Y63196*
X261767Y63496*
X261774Y95069D02*
G75*
G03X261915Y94797I1256J479D01*
G01*
G75*
G03X262093Y94623I506J339*
G01*
G75*
G03X262333Y94529I361J564*
G01*
G75*
G03X262665Y94500I319J1755*
G01*
G75*
G03X263176Y94589I-11J1581*
G01*
G75*
G03X263483Y94839I-192J548*
G01*
G75*
G03X263641Y95320I-990J591*
G01*
G75*
G03X263682Y96206I-9289J881*
G01*
G75*
G02X263688Y96779I30328J-5*
G01*
G75*
G02X263717Y96994I925J-18*
G01*
G75*
G02X263792Y97112I224J-58*
G01*
G75*
G02X263941Y97200I331J-391*
G01*
G75*
G03X264036Y97246I-209J549*
G01*
G75*
G03X264111Y97306I-193J320*
G01*
G75*
G03X264154Y97367I-166J161*
G01*
G75*
G03X264157Y97422I-67J31*
G01*
G75*
G03X264093Y97481I-85J-29*
G01*
G75*
G03X263898Y97517I-394J-1576*
G01*
G75*
G03X263602Y97540I-391J-3134*
G01*
G75*
G03X263156Y97546I-436J-15096*
G01*
G75*
G03X262586Y97539I-1J-22907*
G01*
G75*
G03X262308Y97509I39J-1629*
G01*
G75*
G03X262120Y97438I121J-606*
G01*
G75*
G03X261940Y97304I484J-840*
G01*
G75*
G03X261796Y97135I698J-740*
G01*
G75*
G03X261722Y96965I415J-283*
G01*
G75*
G03X261690Y96714I1241J-285*
G01*
G75*
G03X261682Y96186I19326J-538*
G01*
G75*
G03X261689Y95833I9284J10*
G01*
G75*
G03X261709Y95496I7699J290*
G01*
G75*
G03X261739Y95213I7023J579*
G01*
G75*
G03X261774Y95069I613J74*
G01*
X261777Y80596D02*
G75*
G03X261816Y80623J42D01*
G01*
G75*
G03X261853Y80736I-928J367*
G01*
G75*
G03X261883Y80889I-1271J335*
G01*
G75*
G03X261902Y81071I-2425J339*
G01*
G75*
G02X261926Y81315I3621J-234*
G01*
G75*
G02X261965Y81456I520J-68*
G01*
G75*
G02X262030Y81538I193J-85*
G01*
G75*
G02X262126Y81581I138J-179*
G01*
G75*
G02X262331Y81542I53J-278*
G01*
G75*
G02X262476Y81368I-202J-315*
G01*
G75*
G02X262559Y81022I-1089J-443*
G01*
G75*
G02X262582Y80459I-6787J-562*
G01*
G75*
G03X262591Y80014I12293J6*
G01*
G75*
G03X262622Y79761I1484J54*
G01*
G75*
G03X262686Y79586I637J135*
G01*
G75*
G03X262800Y79428I666J360*
G01*
G75*
G03X262993Y79257I1017J956*
G01*
G75*
G03X263147Y79211I143J195*
G01*
G75*
G03X263296Y79271I-12J243*
G01*
G75*
G03X263475Y79460I-944J1072*
G01*
G75*
G03X263585Y79646I-639J502*
G01*
G75*
G03X263646Y79859I-844J359*
G01*
G75*
G03X263675Y80176I-2365J377*
G01*
G75*
G03X263682Y80760I-23454J577*
G01*
G75*
G03X263676Y81184I-13751J8*
G01*
G75*
G03X263655Y81513I-5035J-155*
G01*
G75*
G03X263625Y81759I-5243J-510*
G01*
G75*
G03X263540Y81760I-43J-6*
G01*
G75*
G03X263509Y81515I5118J-758*
G01*
G75*
G03X263488Y81190I4919J-485*
G01*
G75*
G03X263481Y80772I13339J-435*
G01*
G75*
G02X263474Y80369I-13146J30*
G01*
G75*
G02X263455Y80008I-8556J267*
G01*
G75*
G02X263428Y79709I-10048J750*
G01*
G75*
G02X263394Y79613I-222J24*
G01*
G75*
G02X263345Y79564I-128J80*
G01*
G75*
G02X263265Y79528I-188J313*
G01*
G75*
G02X263169Y79510I-131J424*
G01*
G75*
G02X263071Y79513I-35J443*
G01*
G75*
G02X262935Y79567I43J308*
G01*
G75*
G02X262859Y79671I115J163*
G01*
G75*
G02X262819Y79886I934J287*
G01*
G75*
G02X262782Y80452I30134J2234*
G01*
G75*
G03X262750Y80879I-9952J-546*
G01*
G75*
G03X262702Y81206I-3534J-349*
G01*
G75*
G03X262639Y81452I-2074J-401*
G01*
G75*
G03X262555Y81627I-685J-220*
G01*
G75*
G03X262402Y81819I-1105J-726*
G01*
G75*
G03X262268Y81882I-152J-146*
G01*
G75*
G03X262119Y81843I-19J-231*
G01*
G75*
G03X261914Y81679I926J-1370*
G01*
G75*
G03X261804Y81552I552J-585*
G01*
G75*
G03X261733Y81415I479J-334*
G01*
G75*
G03X261695Y81247I707J-251*
G01*
G75*
G03X261682Y81029I1928J-221*
G01*
G75*
G03X261689Y80863I2015J3*
G01*
G75*
G03X261710Y80724I1061J87*
G01*
G75*
G03X261740Y80622I719J156*
G01*
G75*
G03X261777Y80596I37J14*
G01*
X261782Y48096D02*
G75*
G03X261821Y48117I0J46D01*
G01*
G75*
G03X261853Y48182I-234J157*
G01*
G75*
G03X261875Y48277I-460J157*
G01*
G75*
G03X261882Y48389I-855J110*
G01*
G75*
G02X261911Y48744I2202J-1*
G01*
G75*
G02X262017Y48907I240J-40*
G01*
G75*
G02X262238Y48981I246J-369*
G01*
G75*
G02X262793Y48996I554J-9989*
G01*
G75*
G03X263206Y49002I-1J14492*
G01*
G75*
G03X263426Y49026I-41J1388*
G01*
G75*
G03X263541Y49072I-62J325*
G01*
G75*
G03X263582Y49146I-47J74*
G01*
G75*
G03X263544Y49220I-91J0*
G01*
G75*
G03X263440Y49266I-162J-228*
G01*
G75*
G03X263242Y49291I-237J-1111*
G01*
G75*
G03X262878Y49296I-358J-10857*
G01*
G75*
G03X262478Y49288I-2J-9148*
G01*
G75*
G03X262253Y49254I47J-1090*
G01*
G75*
G03X262089Y49182I138J-534*
G01*
G75*
G03X261928Y49051I548J-840*
G01*
G75*
G03X261773Y48815I493J-493*
G01*
G75*
G03X261682Y48480I1430J-567*
G01*
G75*
G03X261677Y48191I1080J-164*
G01*
G75*
G03X261782Y48096I106J12*
G01*
Y71896D02*
G75*
G03X261821Y71917I0J46D01*
G01*
G75*
G03X261853Y71982I-234J157*
G01*
G75*
G03X261875Y72077I-460J157*
G01*
G75*
G03X261882Y72189I-855J110*
G01*
G75*
G02X261911Y72544I2202J-1*
G01*
G75*
G02X262017Y72707I240J-40*
G01*
G75*
G02X262238Y72781I246J-369*
G01*
G75*
G02X262793Y72796I554J-9989*
G01*
G75*
G03X263206Y72802I-1J14492*
G01*
G75*
G03X263426Y72826I-41J1388*
G01*
G75*
G03X263541Y72872I-62J325*
G01*
G75*
G03X263582Y72946I-47J74*
G01*
G75*
G03X263544Y73020I-91J0*
G01*
G75*
G03X263440Y73066I-162J-228*
G01*
G75*
G03X263242Y73091I-237J-1111*
G01*
G75*
G03X262878Y73096I-358J-10857*
G01*
G75*
G03X262478Y73088I-2J-9148*
G01*
G75*
G03X262253Y73054I47J-1090*
G01*
G75*
G03X262089Y72982I138J-534*
G01*
G75*
G03X261928Y72851I548J-840*
G01*
G75*
G03X261773Y72615I493J-493*
G01*
G75*
G03X261682Y72280I1430J-567*
G01*
G75*
G03X261677Y71991I1080J-164*
G01*
G75*
G03X261782Y71896I106J12*
G01*
X261923Y25107D02*
G75*
G03X262056Y24998I428J389D01*
G01*
G75*
G03X262213Y24935I278J468*
G01*
G75*
G03X262444Y24905I282J1239*
G01*
G75*
G03X262848Y24896I409J10135*
G01*
G75*
G03X263229Y24903I-9J12080*
G01*
G75*
G03X263435Y24927I-38J1221*
G01*
G75*
G03X263543Y24973I-60J291*
G01*
G75*
G03X263541Y25121I-50J74*
G01*
G75*
G03X263426Y25167I-177J-279*
G01*
G75*
G03X263206Y25191I-260J-1364*
G01*
G75*
G03X262793Y25196I-400J-14487*
G01*
G75*
G02X262384Y25203I3J12678*
G01*
G75*
G02X262151Y25229I52J1549*
G01*
G75*
G02X262013Y25276I89J482*
G01*
G75*
G02X261943Y25355I69J132*
G01*
G75*
G02X261893Y25613I717J275*
G01*
G75*
G02X261884Y26396I36471J795*
G01*
G75*
G02X261893Y27180I36498J-12*
G01*
G75*
G02X261943Y27439I768J-17*
G01*
G75*
G02X262013Y27517I139J-53*
G01*
G75*
G02X262151Y27565I226J-435*
G01*
G75*
G02X262384Y27590I285J-1523*
G01*
G75*
G02X262793Y27596I400J-12671*
G01*
G75*
G03X263206Y27602I-1J14492*
G01*
G75*
G03X263426Y27626I-41J1388*
G01*
G75*
G03X263541Y27672I-62J325*
G01*
G75*
G03X263582Y27746I-47J74*
G01*
G75*
G03X263544Y27820I-91J0*
G01*
G75*
G03X263440Y27866I-162J-228*
G01*
G75*
G03X263242Y27891I-237J-1111*
G01*
G75*
G03X262878Y27896I-358J-10857*
G01*
G75*
G03X262474Y27888I-3J-9272*
G01*
G75*
G03X262250Y27854I46J-1053*
G01*
G75*
G03X262086Y27780I139J-526*
G01*
G75*
G03X261919Y27642I622J-926*
G01*
G75*
G03X261773Y27459I736J-737*
G01*
G75*
G03X261705Y27280I420J-263*
G01*
G75*
G03X261683Y27005I1481J-255*
G01*
G75*
G03X261698Y26352I34862J493*
G01*
G75*
G03X261724Y25800I20562J676*
G01*
G75*
G03X261763Y25477I2742J163*
G01*
G75*
G03X261824Y25264I1054J191*
G01*
G75*
G03X261923Y25107I493J200*
G01*
X261946Y88399D02*
G75*
G03X262084Y88253I1312J1103D01*
G01*
G75*
G03X262209Y88163I406J432*
G01*
G75*
G03X262333Y88120I194J360*
G01*
G75*
G03X262471Y88116I82J475*
G01*
X262732Y88146*
X262782Y89446*
G75*
G02X262817Y90220I59069J-2286*
G01*
G75*
G02X262855Y90544I2541J-131*
G01*
G75*
G02X262918Y90707I459J-83*
G01*
G75*
G02X263026Y90781I139J-86*
G01*
G75*
G02X263205Y90755I51J-270*
G01*
G75*
G02X263353Y90620I-183J-350*
G01*
G75*
G02X263450Y90385I-584J-379*
G01*
G75*
G02X263482Y90078I-1456J-306*
G01*
G75*
G03X263490Y89931I1475J2*
G01*
G75*
G03X263512Y89809I789J78*
G01*
G75*
G03X263544Y89721I481J126*
G01*
G75*
G03X263621Y89722I39J18*
G01*
G75*
G03X263653Y89817I-543J235*
G01*
G75*
G03X263675Y89950I-889J216*
G01*
G75*
G03X263682Y90107I-1702J156*
G01*
G75*
G03X263601Y90494I-964J0*
G01*
G75*
G03X263367Y90853I-1198J-526*
G01*
G75*
G03X263038Y91108I-910J-835*
G01*
G75*
G03X262682Y91196I-355J-668*
G01*
G75*
G03X262515Y91177I0J-717*
G01*
G75*
G03X262358Y91119I163J-680*
G01*
G75*
G03X262198Y91015I431J-836*
G01*
G75*
G03X262022Y90857I1387J-1723*
G01*
G75*
G03X261817Y90625I1815J-1815*
G01*
G75*
G03X261726Y90444I404J-316*
G01*
G75*
G03X261690Y90197I999J-274*
G01*
G75*
G03X261682Y89614I22799J-584*
G01*
G75*
G03X261690Y89076I18514J1*
G01*
G75*
G03X261724Y88804I1489J45*
G01*
G75*
G03X261799Y88608I661J143*
G01*
G75*
G03X261946Y88399I1266J733*
G01*
X261949Y63072D02*
G75*
G02X262115Y63193I180J-72D01*
G01*
G75*
G02X262686Y63206I432J-6259*
G01*
G75*
G02X263256Y63167I-141J-6246*
G01*
G75*
G02X263422Y63039I-23J-200*
G01*
G75*
G02X263481Y62735I-834J-320*
G01*
G75*
G02X263480Y62044I-16979J-326*
G01*
G75*
G02X263452Y61348I-19056J428*
G01*
G75*
G02X263379Y61090I-622J36*
G01*
G75*
G02X263295Y60992I-267J143*
G01*
G75*
G02X263174Y60933I-207J274*
G01*
G75*
G02X262982Y60904I-233J891*
G01*
G75*
G02X262640Y60896I-349J7743*
G01*
G75*
G02X262321Y60904I5J7014*
G01*
G75*
G02X262126Y60930I50J1106*
G01*
G75*
G02X262007Y60978I88J389*
G01*
G75*
G02X261943Y61055I80J131*
G01*
G75*
G02X261897Y61294I652J251*
G01*
G75*
G02X261892Y62066I40691J656*
G01*
G75*
G02X261901Y62839I41680J-102*
G01*
G75*
G02X261949Y63072I659J-15*
G01*
X261968Y97077D02*
G75*
G02X262043Y97135I118J-75D01*
G01*
G75*
G02X262194Y97169I260J-805*
G01*
G75*
G02X262419Y97183I230J-1757*
G01*
G75*
G02X262741Y97177I12J-7191*
G01*
X263432Y97146*
X263461Y96172*
G75*
G02X263464Y95344I-16259J-476*
G01*
G75*
G02X263373Y95006I-730J16*
G01*
G75*
G02X263155Y94845I-286J159*
G01*
G75*
G02X262699Y94796I-457J2135*
G01*
G75*
G02X262469Y94806I4J2999*
G01*
G75*
G02X262257Y94832I174J2274*
G01*
G75*
G02X262083Y94870I330J1913*
G01*
G75*
G02X262002Y94917I46J174*
G01*
G75*
G02X261910Y95126I224J224*
G01*
G75*
G02X261884Y95970I28021J1298*
G01*
G75*
G02X261885Y96803I23146J373*
G01*
G75*
G02X261968Y97077I531J-11*
G01*
X261970Y90680D02*
G75*
G02X262020Y90729I128J-80D01*
G01*
G75*
G02X262100Y90765I188J-313*
G01*
G75*
G02X262196Y90783I131J-424*
G01*
G75*
G02X262294Y90780I35J-443*
G01*
G75*
G02X262431Y90720I-39J-274*
G01*
G75*
G02X262502Y90602I-130J-158*
G01*
G75*
G02X262528Y90351I-1324J-266*
G01*
G75*
G02X262532Y89598I-65246J-752*
G01*
G75*
G02X262528Y88906I-48394J-15*
G01*
G75*
G02X262502Y88622I-1938J29*
G01*
G75*
G02X262444Y88480I-337J55*
G01*
G75*
G02X262339Y88412I-137J97*
G01*
G75*
G02X262128Y88454I-54J278*
G01*
G75*
G02X261984Y88637I208J312*
G01*
G75*
G02X261905Y89008I1241J460*
G01*
G75*
G02X261884Y89641I9211J620*
G01*
G75*
G02X261891Y89998I10324J-27*
G01*
G75*
G02X261910Y90320I6924J-245*
G01*
G75*
G02X261937Y90586I7573J-637*
G01*
G75*
G02X261970Y90680I224J-27*
G01*
X261982Y43882D02*
G75*
G03X262125Y43756I1113J1115D01*
G01*
G75*
G03X262262Y43668I521J665*
G01*
G75*
G03X262391Y43620I267J524*
G01*
G75*
G03X262507Y43615I72J300*
G01*
G75*
G03X262636Y43682I-31J217*
G01*
G75*
G03X262708Y43821I-211J198*
G01*
G75*
G03X262746Y44117I-1889J392*
G01*
G75*
G03X262782Y44946I-74994J3693*
G01*
G75*
G02X262817Y45720I59069J-2286*
G01*
G75*
G02X262855Y46044I2541J-131*
G01*
G75*
G02X262918Y46207I459J-83*
G01*
G75*
G02X263026Y46281I139J-86*
G01*
G75*
G02X263205Y46255I51J-270*
G01*
G75*
G02X263353Y46120I-183J-350*
G01*
G75*
G02X263450Y45885I-584J-379*
G01*
G75*
G02X263482Y45578I-1456J-306*
G01*
G75*
G03X263491Y45428I1402J3*
G01*
G75*
G03X263515Y45306I684J73*
G01*
G75*
G03X263551Y45222I374J109*
G01*
G75*
G03X263595Y45196I44J26*
G01*
G75*
G03X263701Y45305I0J106*
G01*
G75*
G03X263662Y45721I-2740J-49*
G01*
G75*
G03X263548Y46170I-2902J-498*
G01*
G75*
G03X263380Y46450I-731J-248*
G01*
G75*
G03X263076Y46651I-580J-545*
G01*
G75*
G03X262694Y46713I-349J-942*
G01*
G75*
G03X262304Y46627I35J-1084*
G01*
G75*
G03X261975Y46404I411J-962*
G01*
G75*
G03X261804Y46202I1094J-1094*
G01*
G75*
G03X261722Y46020I426J-301*
G01*
G75*
G03X261689Y45756I1259J-292*
G01*
G75*
G03X261682Y45146I26935J-618*
G01*
G75*
G03X261689Y44533I27207J8*
G01*
G75*
G03X261723Y44271I1261J28*
G01*
G75*
G03X261806Y44089I503J119*
G01*
G75*
G03X261982Y43882I1355J973*
G01*
Y67682D02*
G75*
G03X262125Y67556I1113J1115D01*
G01*
G75*
G03X262262Y67468I521J665*
G01*
G75*
G03X262391Y67420I267J524*
G01*
G75*
G03X262507Y67415I72J300*
G01*
G75*
G03X262636Y67482I-31J217*
G01*
G75*
G03X262708Y67621I-211J198*
G01*
G75*
G03X262746Y67917I-1889J392*
G01*
G75*
G03X262782Y68746I-74994J3693*
G01*
G75*
G02X262817Y69520I59069J-2286*
G01*
G75*
G02X262855Y69844I2541J-131*
G01*
G75*
G02X262918Y70007I459J-83*
G01*
G75*
G02X263026Y70081I139J-86*
G01*
G75*
G02X263205Y70055I51J-270*
G01*
G75*
G02X263353Y69920I-183J-350*
G01*
G75*
G02X263450Y69685I-584J-379*
G01*
G75*
G02X263482Y69378I-1456J-306*
G01*
G75*
G03X263491Y69228I1402J3*
G01*
G75*
G03X263515Y69106I684J73*
G01*
G75*
G03X263551Y69022I374J109*
G01*
G75*
G03X263642Y69028I44J25*
G01*
G75*
G03X263667Y69126I-346J143*
G01*
G75*
G03X263674Y69285I-983J121*
G01*
G75*
G03X263658Y69516I-4204J-178*
G01*
G75*
G03X263561Y69947I-1756J-167*
G01*
G75*
G03X263365Y70254I-779J-282*
G01*
G75*
G03X263067Y70434I-526J-531*
G01*
G75*
G03X262669Y70496I-398J-1241*
G01*
G75*
G03X262457Y70481I0J-1499*
G01*
G75*
G03X262290Y70435I95J-672*
G01*
G75*
G03X262139Y70348I269J-640*
G01*
G75*
G03X261975Y70204I986J-1292*
G01*
G75*
G03X261804Y70002I1094J-1094*
G01*
G75*
G03X261722Y69820I426J-301*
G01*
G75*
G03X261689Y69556I1259J-292*
G01*
G75*
G03X261682Y68946I26935J-618*
G01*
G75*
G03X261689Y68333I27207J8*
G01*
G75*
G03X261723Y68071I1261J28*
G01*
G75*
G03X261806Y67889I503J119*
G01*
G75*
G03X261982Y67682I1355J973*
G01*
X261988Y83641D02*
G75*
G03X262292Y83446I536J504D01*
G01*
G75*
G03X262704Y83380I412J1233*
G01*
G75*
G03X263121Y83447I-2J1327*
G01*
G75*
G03X263437Y83642I-254J765*
G01*
G75*
G03X263575Y83820I-636J636*
G01*
G75*
G03X263646Y84007I-500J296*
G01*
G75*
G03X263676Y84297I-1711J326*
G01*
G75*
G03X263682Y84934I-31210J627*
G01*
G75*
G03X263676Y85573I-29203J13*
G01*
G75*
G03X263644Y85871I-1799J-39*
G01*
G75*
G03X263570Y86076I-680J-131*
G01*
G75*
G03X263424Y86289I-1165J-644*
G01*
G75*
G03X263311Y86407I-987J-831*
G01*
G75*
G03X263187Y86506I-793J-858*
G01*
G75*
G03X263070Y86576I-539J-774*
G01*
G75*
G03X262982Y86596I-87J-176*
G01*
G75*
G03X262895Y86576I0J-195*
G01*
G75*
G03X262778Y86506I422J-844*
G01*
G75*
G03X262654Y86407I670J-958*
G01*
G75*
G03X262541Y86289I874J-949*
G01*
G75*
G03X262394Y86075I1005J-847*
G01*
G75*
G03X262320Y85867I611J-335*
G01*
G75*
G03X262289Y85562I1850J-343*
G01*
G75*
G03X262282Y84895I32739J-681*
G01*
G75*
G02X262276Y84429I-15731J-7*
G01*
G75*
G02X262253Y84075I-5341J161*
G01*
G75*
G02X262220Y83814I-4522J433*
G01*
G75*
G02X262171Y83740I-106J16*
G01*
G75*
G02X262062Y83736I-58J94*
G01*
G75*
G02X261968Y83831I100J192*
G01*
G75*
G02X261905Y84033I596J298*
G01*
G75*
G02X261884Y84316I2022J291*
G01*
G75*
G03X261875Y84462I-1281J-6*
G01*
G75*
G03X261849Y84597I-980J-116*
G01*
G75*
G03X261812Y84704I-733J-193*
G01*
G75*
G03X261768Y84756I-104J-45*
G01*
G75*
G03X261670Y84702I-34J-55*
G01*
G75*
G03X261702Y84348I1724J-19*
G01*
G75*
G03X261823Y83911I3004J593*
G01*
G75*
G03X261988Y83641I732J262*
G01*
X261991Y31922D02*
G75*
G02X262072Y32007I217J-126D01*
G01*
G75*
G02X262195Y32060I225J-353*
G01*
G75*
G02X262384Y32089I243J-957*
G01*
G75*
G02X262684Y32096I296J-5577*
G01*
G75*
G02X263141Y32056I0J-2587*
G01*
G75*
G02X263359Y31914I-59J-329*
G01*
G75*
G02X263460Y31616I-498J-335*
G01*
G75*
G02X263482Y30911I-11195J-703*
G01*
G75*
G02X263468Y30176I-18315J-5*
G01*
G75*
G02X263384Y29933I-447J18*
G01*
G75*
G02X263192Y29822I-220J157*
G01*
G75*
G02X262682Y29796I-510J5064*
G01*
G75*
G02X262339Y29804I1J8400*
G01*
G75*
G02X262133Y29830I50J1220*
G01*
G75*
G02X262009Y29878I90J414*
G01*
G75*
G02X261943Y29955I76J131*
G01*
G75*
G02X261885Y30257I821J315*
G01*
G75*
G02X261888Y30965I18252J273*
G01*
G75*
G02X261917Y31679I21459J-518*
G01*
G75*
G02X261991Y31922I544J-31*
G01*
X262013Y29638D02*
G75*
G03X262162Y29530I710J826D01*
G01*
G75*
G03X262320Y29455I463J769*
G01*
G75*
G03X262492Y29411I313J869*
G01*
G75*
G03X262682Y29396I193J1230*
G01*
G75*
G03X262873Y29411I-2J1247*
G01*
G75*
G03X263045Y29455I-141J913*
G01*
G75*
G03X263203Y29530I-304J844*
G01*
G75*
G03X263352Y29638I-561J934*
G01*
G75*
G03X263513Y29809I-715J831*
G01*
G75*
G03X263596Y29981I-399J301*
G01*
G75*
G03X263639Y30242I-1278J341*
G01*
G75*
G03X263667Y30819I-23639J1433*
G01*
G75*
G03X263681Y31405I-24263J880*
G01*
G75*
G03X263657Y31672I-1371J15*
G01*
G75*
G03X263586Y31862I-572J-106*
G01*
G75*
G03X263433Y32078I-1389J-822*
G01*
G75*
G03X263268Y32250I-1446J-1218*
G01*
G75*
G03X263128Y32341I-332J-359*
G01*
G75*
G03X262956Y32384I-223J-526*
G01*
G75*
G03X262682Y32396I-272J-3022*
G01*
G75*
G03X262409Y32384I-2J-3030*
G01*
G75*
G03X262237Y32341I51J-569*
G01*
G75*
G03X262097Y32250I192J-450*
G01*
G75*
G03X261932Y32078I1281J-1390*
G01*
G75*
G03X261779Y31862I1236J-1038*
G01*
G75*
G03X261707Y31672I501J-297*
G01*
G75*
G03X261684Y31405I1348J-252*
G01*
G75*
G03X261698Y30819I24277J295*
G01*
G75*
G03X261726Y30242I23667J856*
G01*
G75*
G03X261769Y29981I1320J80*
G01*
G75*
G03X261852Y29809I483J128*
G01*
G75*
G03X262013Y29638I876J660*
G01*
Y60738D02*
G75*
G03X262400Y60534I640J745D01*
G01*
G75*
G03X262845Y60512I274J1022*
G01*
G75*
G03X263251Y60674I-164J998*
G01*
G75*
G03X263528Y60987I-481J705*
G01*
G75*
G03X263641Y61363I-948J491*
G01*
G75*
G03X263681Y62011I-7123J767*
G01*
G75*
G03X263663Y62661I-7117J123*
G01*
G75*
G03X263563Y63050I-1139J-85*
G01*
G75*
G03X263345Y63339I-760J-346*
G01*
G75*
G03X263015Y63526I-648J-760*
G01*
G75*
G03X262630Y63580I-336J-1000*
G01*
G75*
G03X262256Y63489I48J-1015*
G01*
G75*
G03X261971Y63288I387J-852*
G01*
G75*
G03X261797Y63005I557J-538*
G01*
G75*
G03X261713Y62581I1448J-507*
G01*
G75*
G03X261705Y61913I8074J-429*
G01*
G75*
G03X261729Y61337I23668J698*
G01*
G75*
G03X261769Y61080I1286J69*
G01*
G75*
G03X261852Y60909I470J124*
G01*
G75*
G03X262013Y60738I885J669*
G01*
X262028Y46293D02*
G75*
G02X262096Y46336I204J-246D01*
G01*
G75*
G02X262183Y46368I220J-469*
G01*
G75*
G02X262273Y46383I131J-494*
G01*
G75*
G02X262353Y46378I22J-296*
G01*
G75*
G02X262450Y46309I-27J-140*
G01*
G75*
G02X262503Y46153I-389J-221*
G01*
G75*
G02X262528Y45848I-2326J-340*
G01*
G75*
G02X262532Y45146I-48517J-678*
G01*
G75*
G02X262528Y44423I-53707J-11*
G01*
G75*
G02X262503Y44128I-2084J27*
G01*
G75*
G02X262445Y43982I-356J56*
G01*
G75*
G02X262339Y43912I-137J93*
G01*
G75*
G02X262126Y43956I-53J278*
G01*
G75*
G02X261982Y44144I214J315*
G01*
G75*
G02X261904Y44530I1340J473*
G01*
G75*
G02X261882Y45204I10870J680*
G01*
G75*
G02X261889Y45680I16181J-2*
G01*
G75*
G02X261914Y45986I2981J-87*
G01*
G75*
G02X261957Y46186I1283J-173*
G01*
G75*
G02X262028Y46293I211J-63*
G01*
Y70093D02*
G75*
G02X262096Y70136I204J-246D01*
G01*
G75*
G02X262183Y70168I220J-469*
G01*
G75*
G02X262273Y70183I131J-494*
G01*
G75*
G02X262353Y70178I22J-296*
G01*
G75*
G02X262450Y70109I-27J-140*
G01*
G75*
G02X262503Y69953I-389J-221*
G01*
G75*
G02X262528Y69648I-2326J-340*
G01*
G75*
G02X262532Y68946I-48517J-678*
G01*
G75*
G02X262528Y68223I-53707J-11*
G01*
G75*
G02X262503Y67928I-2084J27*
G01*
G75*
G02X262445Y67782I-356J56*
G01*
G75*
G02X262339Y67712I-137J93*
G01*
G75*
G02X262126Y67756I-53J278*
G01*
G75*
G02X261982Y67944I214J315*
G01*
G75*
G02X261904Y68330I1340J473*
G01*
G75*
G02X261882Y69004I10870J680*
G01*
G75*
G02X261889Y69480I16181J-2*
G01*
G75*
G02X261914Y69786I2981J-87*
G01*
G75*
G02X261957Y69986I1283J-173*
G01*
G75*
G02X262028Y70093I211J-63*
G01*
X262028Y39125D02*
G75*
G03X262352Y38939I648J754D01*
G01*
G75*
G03X262719Y38887I316J914*
G01*
G75*
G03X263083Y38978I-52J994*
G01*
G75*
G03X263399Y39198I-459J994*
G01*
X263700Y39499*
X263666Y40587*
G75*
G03X263616Y41370I-11751J-364*
G01*
G75*
G03X263502Y41796I-1344J-131*
G01*
G75*
G03X263299Y42015I-432J-196*
G01*
G75*
G03X262661Y42012I-316J-574*
G01*
G75*
G03X262458Y41786I230J-410*
G01*
G75*
G03X262348Y41338I1354J-572*
G01*
G75*
G03X262299Y40481I14973J-1283*
G01*
G75*
G02X262275Y39794I-47959J1335*
G01*
G75*
G02X262243Y39494I-2360J99*
G01*
G75*
G02X262188Y39355I-367J63*
G01*
G75*
G02X262099Y39317I-73J47*
G01*
G75*
G02X262020Y39359I27J146*
G01*
G75*
G02X261963Y39448I192J185*
G01*
G75*
G02X261925Y39595I604J235*
G01*
G75*
G02X261902Y39822I3115J428*
G01*
G75*
G03X261883Y40004I-2147J-136*
G01*
G75*
G03X261849Y40157I-1158J-176*
G01*
G75*
G03X261807Y40269I-787J-230*
G01*
G75*
G03X261764Y40296I-43J-20*
G01*
G75*
G03X261721Y40267J-46*
G01*
G75*
G03X261698Y40174I348J-136*
G01*
G75*
G03X261693Y40028I894J-102*
G01*
G75*
G03X261709Y39825I3199J153*
G01*
G75*
G03X261749Y39591I2148J244*
G01*
G75*
G03X261811Y39408I917J207*
G01*
G75*
G03X261901Y39259I682J311*
G01*
G75*
G03X262028Y39125I733J569*
G01*
X262143Y44455D02*
G75*
G03X262236Y44337I234J89D01*
G01*
G75*
G03X262317Y44364I30J44*
G01*
G75*
G03X262369Y44634I-927J320*
G01*
G75*
G03X262382Y45146I-9994J510*
G01*
G75*
G03X262369Y45643I-9096J4*
G01*
G75*
G03X262317Y45923I-1108J-61*
G01*
G75*
G03X262238Y45961I-57J-18*
G01*
G75*
G03X262149Y45872I59J-149*
G01*
G75*
G03X262103Y45661I589J-238*
G01*
G75*
G03X262092Y45165I13046J-548*
G01*
G75*
G03X262099Y44670I12867J-53*
G01*
G75*
G03X262143Y44455I666J24*
G01*
Y68255D02*
G75*
G03X262236Y68137I234J89D01*
G01*
G75*
G03X262317Y68164I30J44*
G01*
G75*
G03X262369Y68434I-927J320*
G01*
G75*
G03X262382Y68946I-9994J510*
G01*
G75*
G03X262373Y69454I-13865J6*
G01*
G75*
G03X262333Y69698I-981J-36*
G01*
G75*
G03X262256Y69765I-91J-28*
G01*
G75*
G03X262149Y69730I-19J-123*
G01*
G75*
G03X262094Y69602I134J-134*
G01*
G75*
G03X262084Y69041I21537J-643*
G01*
G75*
G03X262093Y68499I13092J-52*
G01*
G75*
G03X262143Y68255I761J28*
G01*
Y88955D02*
G75*
G03X262236Y88837I234J89D01*
G01*
G75*
G03X262317Y88864I30J44*
G01*
G75*
G03X262369Y89134I-927J320*
G01*
G75*
G03X262382Y89646I-9994J510*
G01*
G75*
G03X262369Y90143I-9096J4*
G01*
G75*
G03X262317Y90423I-1108J-61*
G01*
G75*
G03X262238Y90461I-57J-18*
G01*
G75*
G03X262149Y90372I59J-149*
G01*
G75*
G03X262103Y90161I589J-238*
G01*
G75*
G03X262092Y89665I13046J-548*
G01*
G75*
G03X262099Y89170I12867J-53*
G01*
G75*
G03X262143Y88955I666J24*
G01*
X262186Y30190D02*
G75*
G03X262257Y30100I285J153D01*
G01*
G75*
G03X262355Y30041I218J246*
G01*
G75*
G03X262492Y30007I195J502*
G01*
G75*
G03X262682Y29996I193J1739*
G01*
G75*
G03X262986Y30043J1008*
G01*
G75*
G03X263165Y30182I-100J315*
G01*
G75*
G03X263258Y30450I-522J330*
G01*
G75*
G03X263282Y30946I-4974J493*
G01*
G75*
G03X263258Y31428I-4794J2*
G01*
G75*
G03X263170Y31702I-682J-69*
G01*
G75*
G03X263003Y31846I-290J-167*
G01*
G75*
G03X262735Y31896I-268J-681*
G01*
G75*
G03X262440Y31836I0J-744*
G01*
G75*
G03X262236Y31666I185J-429*
G01*
G75*
G03X262119Y31367I631J-420*
G01*
G75*
G03X262082Y30918I2759J-451*
G01*
G75*
G03X262090Y30699I3144J4*
G01*
G75*
G03X262113Y30483I3018J210*
G01*
G75*
G03X262146Y30299I2585J368*
G01*
G75*
G03X262186Y30190I408J88*
G01*
Y61290D02*
G75*
G03X262257Y61200I285J153D01*
G01*
G75*
G03X262356Y61140I217J246*
G01*
G75*
G03X262494Y61107I195J509*
G01*
G75*
G03X262689Y61096I197J1828*
G01*
G75*
G03X262906Y61107I0J2322*
G01*
G75*
G03X263032Y61144I-32J343*
G01*
G75*
G03X263116Y61219I-104J200*
G01*
G75*
G03X263185Y61353I-563J374*
G01*
G75*
G03X263258Y61666I-1132J430*
G01*
G75*
G03X263279Y62113I-4388J429*
G01*
G75*
G03X263256Y62550I-4534J-18*
G01*
G75*
G03X263179Y62803I-678J-69*
G01*
G75*
G03X263004Y62951I-273J-146*
G01*
G75*
G03X262688Y63005I-336J-1007*
G01*
G75*
G03X262371Y62963I-19J-1060*
G01*
G75*
G03X262191Y62822I87J-296*
G01*
G75*
G03X262110Y62566I525J-305*
G01*
G75*
G03X262089Y62063I6313J-524*
G01*
G75*
G03X262107Y61558I6219J-20*
G01*
G75*
G03X262186Y61290I678J53*
G01*
X262248Y95180D02*
G75*
G03X262454Y95038I400J362D01*
G01*
G75*
G03X262709Y94999I217J564*
G01*
G75*
G03X262955Y95070I-38J589*
G01*
G75*
G03X263135Y95236I-242J442*
G01*
G75*
G03X263207Y95389I-503J330*
G01*
G75*
G03X263250Y95587I-1152J354*
G01*
G75*
G03X263268Y95850I-2147J280*
G01*
G75*
G03X263262Y96211I-7472J67*
G01*
X263232Y96946*
X262786Y96978*
G75*
G03X262423Y96957I-101J-1414*
G01*
G75*
G03X262216Y96826I61J-326*
G01*
G75*
G03X262110Y96550I459J-335*
G01*
G75*
G03X262082Y96010I5279J-540*
G01*
G75*
G03X262092Y95700I5332J7*
G01*
G75*
G03X262121Y95470I1669J96*
G01*
G75*
G03X262172Y95301I919J183*
G01*
G75*
G03X262248Y95180I381J156*
G01*
X262391Y92646D02*
G75*
G03X263008Y92652I-9J35527D01*
G01*
G75*
G03X263317Y92675I-47J2741*
G01*
G75*
G03X263481Y92719I-84J637*
G01*
G75*
G03X263532Y92796I-32J78*
G01*
G75*
G03X263483Y92874I-86*
G01*
G75*
G03X263329Y92923I-255J-543*
G01*
G75*
G03X263041Y92954I-403J-2351*
G01*
G75*
G03X262489Y92975I-1285J-26658*
G01*
G75*
G03X261763Y92987I-842J-30466*
G01*
G75*
G03X261406Y92959I-8J-2228*
G01*
G75*
G03X261243Y92889I56J-352*
G01*
G75*
G03X261207Y92772I65J-83*
G01*
G75*
G03X261275Y92711I87J29*
G01*
G75*
G03X261501Y92675I459J2168*
G01*
G75*
G03X261849Y92653I448J4229*
G01*
G75*
G03X262391Y92646I542J23333*
G01*
X262467Y77896D02*
G75*
G02X263334Y77856I1J-9276D01*
G01*
G75*
G02X263662Y77676I-44J-467*
G01*
G75*
G02X263806Y77283I-550J-425*
G01*
G75*
G02X263832Y76127I-25185J-1153*
G01*
G75*
G02X263803Y75013I-21196J-3*
G01*
G75*
G02X263651Y74619I-679J35*
G01*
G75*
G02X263310Y74437I-387J315*
G01*
G75*
G02X262421Y74396I-889J9636*
G01*
X261482*
Y75096*
X262227*
G75*
G03X262810Y75135I0J4429*
G01*
G75*
G03X263100Y75278I-67J502*
G01*
G75*
G03X263244Y75567I-355J356*
G01*
G75*
G03X263282Y76146I-4300J577*
G01*
G75*
G03X263244Y76726I-4342J2*
G01*
G75*
G03X263100Y77015I-498J-67*
G01*
G75*
G03X262810Y77158I-357J-359*
G01*
G75*
G03X262227Y77196I-580J-4391*
G01*
X261482*
Y77896*
X262467*
X262529Y77396D02*
G75*
G02X263106Y77362I0J-4816D01*
G01*
G75*
G02X263350Y77222I-43J-358*
G01*
G75*
G02X263460Y76925I-431J-329*
G01*
G75*
G02X263482Y76146I-13444J-777*
G01*
G75*
G02X263460Y75368I-13460J-2*
G01*
G75*
G02X263350Y75071I-541J31*
G01*
G75*
G02X263106Y74931I-287J219*
G01*
G75*
G02X262529Y74896I-580J4781*
G01*
G75*
G03X262141Y74891I-2J-12596*
G01*
G75*
G03X261932Y74867I39J-1257*
G01*
G75*
G03X261822Y74821I59J-298*
G01*
G75*
G03X261782Y74746I50J-74*
G01*
G75*
G03X261817Y74674I94J0*
G01*
G75*
G03X261909Y74628I148J178*
G01*
G75*
G03X262081Y74603I209J846*
G01*
G75*
G03X262389Y74596I314J7361*
G01*
G75*
G03X263051Y74673I-1J2911*
G01*
G75*
G03X263431Y74915I-155J665*
G01*
G75*
G03X263628Y75381I-744J588*
G01*
G75*
G03X263682Y76234I-6618J850*
G01*
G75*
G03X263674Y76731I-15049J11*
G01*
G75*
G03X263641Y76994I-1416J-46*
G01*
G75*
G03X263566Y77186I-663J-149*
G01*
G75*
G03X263424Y77389I-1224J-707*
G01*
G75*
G03X263251Y77565I-1270J-1070*
G01*
G75*
G03X263101Y77651I-282J-319*
G01*
G75*
G03X262895Y77688I-238J-733*
G01*
G75*
G03X262474Y77696I-413J-10287*
G01*
G75*
G03X262117Y77691I-7J-10349*
G01*
G75*
G03X261923Y77666I39J-1094*
G01*
G75*
G03X261820Y77620I57J-268*
G01*
G75*
G03X261782Y77546I54J-74*
G01*
G75*
G03X261822Y77472I89J0*
G01*
G75*
G03X261932Y77427I169J252*
G01*
G75*
G03X262141Y77403I248J1233*
G01*
G75*
G03X262529Y77396I398J12590*
G01*
X262552Y41572D02*
G75*
G02X262593Y41687I407J-80D01*
G01*
G75*
G02X262661Y41754I143J-77*
G01*
G75*
G02X262778Y41788I143J-276*
G01*
G75*
G02X262987Y41796I207J-2482*
G01*
G75*
G02X263275Y41741I0J-765*
G01*
G75*
G02X263422Y41583I-96J-237*
G01*
G75*
G02X263476Y41241I-1037J-340*
G01*
G75*
G02X263462Y40346I-33278J80*
G01*
X263432Y39346*
X262532*
X262519Y40346*
G75*
G02X262518Y40746I22780J290*
G01*
G75*
G02X262524Y41119I17328J-88*
G01*
G75*
G02X262535Y41432I17348J-454*
G01*
G75*
G02X262552Y41572I920J-41*
G01*
X262589Y86122D02*
G75*
G02X262748Y86251I254J-151D01*
G01*
G75*
G02X263024Y86299I294J-871*
G01*
G75*
G02X263290Y86262I17J-849*
G01*
G75*
G02X263422Y86139I-61J-197*
G01*
G75*
G02X263446Y86031I-350J-135*
G01*
G75*
G02X263465Y85724I-14573J-1052*
G01*
G75*
G02X263478Y85357I-12571J-642*
G01*
G75*
G02X263482Y84951I-18617J-402*
G01*
G75*
G02X263464Y84202I-15503*
G01*
G75*
G02X263380Y83880I-806J39*
G01*
G75*
G02X263199Y83737I-242J121*
G01*
G75*
G02X262864Y83715I-235J1015*
G01*
X262532Y83746*
X262509Y84846*
G75*
G02X262507Y85290I12929J279*
G01*
G75*
G02X262522Y85681I7857J-104*
G01*
G75*
G02X262548Y85998I7697J-481*
G01*
G75*
G02X262589Y86122I302J-31*
G01*
X262622Y33996D02*
G75*
G03X263048Y34003I-5J13927D01*
G01*
G75*
G03X263298Y34028I-58J1861*
G01*
G75*
G03X263448Y34072I-102J617*
G01*
G75*
G03X263519Y34146I-54J122*
G01*
G75*
G03X263500Y34222I-63J24*
G01*
G75*
G03X263401Y34269I-135J-157*
G01*
G75*
G03X263172Y34292I-260J-1446*
G01*
G75*
G03X262680Y34296I-480J-24408*
G01*
G75*
G03X262204Y34291I-7J-19906*
G01*
G75*
G03X261957Y34267I43J-1750*
G01*
G75*
G03X261827Y34222I67J-403*
G01*
G75*
G03X261825Y34072I42J-76*
G01*
G75*
G03X261947Y34026I187J314*
G01*
G75*
G03X262180Y34002I273J1530*
G01*
G75*
G03X262622Y33996I446J16880*
G01*
X262766Y83957D02*
G75*
G03X262813Y83947I37J60D01*
G01*
G75*
G03X262889Y83965I-59J426*
G01*
G75*
G03X262977Y84002I-188J561*
G01*
G75*
G03X263066Y84056I-378J723*
G01*
G75*
G03X263181Y84170I-276J394*
G01*
G75*
G03X263245Y84309I-327J235*
G01*
G75*
G03X263275Y84528I-1052J257*
G01*
G75*
G03X263282Y84944I-11775J409*
G01*
G75*
G03X263278Y85238I-9706J4*
G01*
G75*
G03X263265Y85511I-7283J-220*
G01*
G75*
G03X263246Y85738I-7169J-481*
G01*
G75*
G03X263222Y85839I-386J-39*
G01*
G75*
G03X263133Y85957I-255J-98*
G01*
G75*
G03X263010Y85989I-99J-128*
G01*
G75*
G03X262881Y85922I33J-220*
G01*
G75*
G03X262785Y85772I349J-330*
G01*
G75*
G03X262714Y85452I943J-378*
G01*
G75*
G03X262691Y84783I14143J-826*
G01*
G75*
G03X262693Y84086I26763J-288*
G01*
G75*
G03X262766Y83957I155J2*
G01*
X262780Y39548D02*
G75*
G03X262832Y39532I56J90D01*
G01*
G75*
G03X262909Y39537I14J400*
G01*
G75*
G03X262996Y39559I-81J507*
G01*
G75*
G03X263080Y39596I-189J547*
G01*
G75*
G03X263187Y39688I-150J282*
G01*
G75*
G03X263248Y39821I-289J211*
G01*
G75*
G03X263276Y40044I-1145J259*
G01*
G75*
G03X263282Y40493I-15190J438*
G01*
G75*
G03X263274Y40887I-9811J1*
G01*
G75*
G03X263247Y41147I-2016J-79*
G01*
G75*
G03X263198Y41325I-906J-156*
G01*
G75*
G03X263119Y41446I-327J-127*
G01*
G75*
G03X262940Y41512I-161J-161*
G01*
G75*
G03X262804Y41410I12J-158*
G01*
G75*
G03X262724Y41043I1191J-453*
G01*
G75*
G03X262694Y40328I14062J-939*
G01*
G75*
G03X262697Y40048I5456J-86*
G01*
G75*
G03X262715Y39802I3279J113*
G01*
G75*
G03X262743Y39604I3420J383*
G01*
G75*
G03X262780Y39548I81J14*
G01*
X289601Y27281D02*
Y24329D01*
X279758*
X289601Y39093D02*
Y42045D01*
X279758*
D02*
D18*
X153758Y198839D02*
X153379Y198081D01*
X152621Y197702*
X151105*
X150347Y198081*
X149969Y198839*
X150347Y199597*
X151105Y199976*
X152621*
X153379Y200355*
X153758Y201113*
X153379Y201870*
X152621Y202250*
X151105*
X150347Y201870*
X149969Y201113*
X147695Y200734D02*
X147316Y199218D01*
X146558Y198460*
X145800*
X145042Y199218*
X144663Y200734*
X145042Y199218D02*
X145421Y197702D01*
X145800Y196944*
X146558Y196565*
X147316Y196944*
X141632Y197702D02*
Y200734D01*
Y200355D02*
X141253Y200734D01*
X140495*
X140116Y200355*
Y199218*
Y200355D02*
X139737Y200734D01*
X138979*
X138600Y200355*
Y197702*
X135569Y200734D02*
Y196565D01*
Y198839D02*
X135190Y198081D01*
X134432Y197702*
X133674*
X132916Y198081*
X132537Y198839*
Y199597*
X132916Y200355*
X133674Y200734*
X134432*
X135190Y200355*
X135569Y199597*
Y198839*
X127611Y197702D02*
X127990D01*
Y202250*
X120411Y198081D02*
X120790Y197702D01*
X121548*
X122306*
X123064Y198081*
X123443Y198839*
Y199976*
X123064Y200355*
X122306Y200734*
X121548*
X120790Y200355*
X120411Y199976*
Y199597*
X120790Y199218*
X121548Y198839*
X122306*
X123064Y199218*
X123443Y199597*
X117380Y197702D02*
X115485Y202250D01*
X113591Y197702*
X116622Y199597D02*
X114348D01*
X109801Y197702D02*
Y200734D01*
Y201870D02*
X105254Y197702*
Y200734D01*
Y199597D02*
X104875Y200355D01*
X104117Y200734*
X103359*
X102601Y200355*
X96159D02*
X96917Y200734D01*
X98054*
X98812Y200355*
X99191Y199597*
Y198839*
X98812Y198081*
X98054Y197702*
X96917*
X96159Y198081*
X93128Y200734D02*
X92749Y199218D01*
X91991Y198460*
X91233*
X90475Y199218*
X90096Y200734*
X90475Y199218D02*
X90854Y197702D01*
X91233Y196944*
X91991Y196565*
X92749Y196944*
X85170Y197702D02*
X85549D01*
Y202250*
X79486Y197702D02*
Y200734D01*
Y201870D02*
X74939Y197702*
Y200734D01*
Y199597D02*
X74560Y200355D01*
X73802Y200734*
X73044*
X72286Y200355*
X71907Y199597*
Y197702*
X65844Y199597D02*
X66223Y200355D01*
X66981Y200734*
X67739*
X68497Y200355*
X68876Y199597*
Y198839*
X68497Y198081*
X67739Y197702*
X66981*
X66223Y198081*
X65844Y198839*
Y197702D02*
Y202250D01*
X59781Y198081D02*
X60160Y197702D01*
X60918*
X61676*
X62434Y198081*
X62813Y198839*
Y199976*
X62434Y200355*
X61676Y200734*
X60918*
X60160Y200355*
X59781Y199976*
Y199597*
X60160Y199218*
X60918Y198839*
X61676*
X62434Y199218*
X62813Y199597*
X56750Y197702D02*
Y200734D01*
Y199597D02*
X56371Y200355D01*
X55613Y200734*
X54855*
X54097Y200355*
X48034Y199976D02*
X47276Y199597D01*
X46898Y198839*
X47276Y198081*
X48034Y197702*
X50687*
Y202250*
X48034*
X47276Y201870*
X46898Y201113*
X47276Y200355*
X48034Y199976*
X50687*
X44624Y198839D02*
X44245Y198081D01*
X43487Y197702*
X42729*
X41971Y198081*
X41593Y198839*
Y199597*
X41971Y200355*
X42729Y200734*
X43487*
X44245Y200355*
X44624Y199597*
Y198839*
X38561Y197702D02*
Y200734D01*
Y199597D02*
X38182Y200355D01*
X37424Y200734*
X36666*
X35908Y200355*
X29467Y199597D02*
X29845Y200355D01*
X30603Y200734*
X31361*
X32119Y200355*
X32498Y199597*
Y198839*
X32119Y198081*
X31361Y197702*
X30603*
X29845Y198081*
X29467Y198839*
Y197702D02*
Y202250D01*
X311238Y198839D02*
X310859Y198081D01*
X310101Y197702*
X308585*
X307828Y198081*
X307449Y198839*
X307828Y199597*
X308585Y199976*
X310101*
X310859Y200355*
X311238Y201113*
X310859Y201870*
X310101Y202250*
X308585*
X307828Y201870*
X307449Y201113*
X305175Y200734D02*
X304796Y199218D01*
X304038Y198460*
X303280*
X302522Y199218*
X302144Y200734*
X302522Y199218D02*
X302902Y197702D01*
X303280Y196944*
X304038Y196565*
X304796Y196944*
X299112Y197702D02*
Y200734D01*
Y200355D02*
X298733Y200734D01*
X297975*
X297596Y200355*
Y199218*
Y200355D02*
X297217Y200734D01*
X296459*
X296081Y200355*
Y197702*
X293049Y200734D02*
Y196565D01*
Y198839D02*
X292670Y198081D01*
X291912Y197702*
X291154*
X290396Y198081*
X290018Y198839*
Y199597*
X290396Y200355*
X291154Y200734*
X291912*
X292670Y200355*
X293049Y199597*
Y198839*
X285091Y197702D02*
X285470D01*
Y202250*
X277892Y198081D02*
X278270Y197702D01*
X279028*
X279786*
X280544Y198081*
X280923Y198839*
Y199976*
X280544Y200355*
X279786Y200734*
X279028*
X278270Y200355*
X277892Y199976*
Y199597*
X278270Y199218*
X279028Y198839*
X279786*
X280544Y199218*
X280923Y199597*
X274860Y197702D02*
X272965Y202250D01*
X271071Y197702*
X274102Y199597D02*
X271829D01*
X267281Y197702D02*
Y200734D01*
Y201870D02*
X262734Y197702*
Y200734D01*
Y199597D02*
X262355Y200355D01*
X261597Y200734*
X260839*
X260081Y200355*
X253640D02*
X254398Y200734D01*
X255534*
X256292Y200355*
X256671Y199597*
Y198839*
X256292Y198081*
X255534Y197702*
X254398*
X253640Y198081*
X250608Y200734D02*
X250229Y199218D01*
X249471Y198460*
X248713*
X247956Y199218*
X247577Y200734*
X247956Y199218D02*
X248335Y197702D01*
X248713Y196944*
X249471Y196565*
X250229Y196944*
X242650Y197702D02*
X243030D01*
Y202250*
X236967Y197702D02*
Y200734D01*
Y201870D02*
X232419Y197702*
Y200734D01*
Y199597D02*
X232040Y200355D01*
X231282Y200734*
X230524*
X229767Y200355*
X229388Y199597*
Y197702*
X223325Y199597D02*
X223704Y200355D01*
X224461Y200734*
X225219*
X225977Y200355*
X226356Y199597*
Y198839*
X225977Y198081*
X225219Y197702*
X224461*
X223704Y198081*
X223325Y198839*
Y197702D02*
Y202250D01*
X217262Y198081D02*
X217641Y197702D01*
X218398*
X219156*
X219914Y198081*
X220293Y198839*
Y199976*
X219914Y200355*
X219156Y200734*
X218398*
X217641Y200355*
X217262Y199976*
Y199597*
X217641Y199218*
X218398Y198839*
X219156*
X219914Y199218*
X220293Y199597*
X214230Y197702D02*
Y200734D01*
Y199597D02*
X213851Y200355D01*
X213093Y200734*
X212335*
X211578Y200355*
X205515Y199976D02*
X204757Y199597D01*
X204378Y198839*
X204757Y198081*
X205515Y197702*
X208167*
Y202250*
X205515*
X204757Y201870*
X204378Y201113*
X204757Y200355*
X205515Y199976*
X208167*
X202104Y198839D02*
X201725Y198081D01*
X200967Y197702*
X200209*
X199452Y198081*
X199073Y198839*
Y199597*
X199452Y200355*
X200209Y200734*
X200967*
X201725Y200355*
X202104Y199597*
Y198839*
X196041Y197702D02*
Y200734D01*
Y199597D02*
X195662Y200355D01*
X194904Y200734*
X194146*
X193389Y200355*
X186947Y199597D02*
X187326Y200355D01*
X188083Y200734*
X188841*
X189599Y200355*
X189978Y199597*
Y198839*
X189599Y198081*
X188841Y197702*
X188083*
X187326Y198081*
X186947Y198839*
Y197702D02*
Y202250D01*
D02*
D70*
X55507Y107579D02*
X44846D01*
Y113516*
X55507*
Y107579*
X118227Y72359D02*
X128888D01*
Y66422*
X118227*
Y72359*
X126267Y39491D02*
Y40741D01*
Y40116D02*
X130017D01*
Y39491D02*
Y40741D01*
X126892Y46679D02*
X126579Y46366D01*
X126267Y45741*
Y44804*
X126579Y44179*
X126892Y43866*
X127517Y43554*
X128767*
X129392Y43866*
X129704Y44179*
X130017Y44804*
Y45741*
X129704Y46366*
X129392Y46679*
X126267Y49179D02*
Y50429D01*
Y49804D02*
X130017D01*
X129392Y49179*
X126579Y53554D02*
X126267Y54179D01*
Y55116*
X126579Y55741*
X127204Y56054*
X127517*
X128142Y55741*
X128454Y55116*
Y53554*
X130017*
Y56054*
X128640Y13398D02*
X117979D01*
Y19335*
X128640*
Y13398*
X128646Y47192D02*
X117984D01*
Y53129*
X128646*
Y47192*
X131977Y66469D02*
Y77130D01*
X137914*
Y66469*
X131977*
X133422Y58972D02*
X137172D01*
Y57409D02*
Y60535D01*
X133422Y62409D02*
X137172D01*
Y64597*
X136860Y65222*
X136235Y65535*
X135610Y65222*
X135297Y64597*
Y62409*
Y64597D02*
X133422Y65535D01*
X212988Y107579D02*
X202326D01*
Y113516*
X212988*
Y107579*
X275707Y72359D02*
X286369D01*
Y66422*
X275707*
Y72359*
X283747Y39491D02*
Y40741D01*
Y40116D02*
X287497D01*
Y39491D02*
Y40741D01*
X284372Y46679D02*
X284059Y46366D01*
X283747Y45741*
Y44804*
X284059Y44179*
X284372Y43866*
X284997Y43554*
X286247*
X286872Y43866*
X287185Y44179*
X287497Y44804*
Y45741*
X287185Y46366*
X286872Y46679*
X283747Y51054D02*
Y48554D01*
X285935Y50741*
X286559Y51054*
X287185Y50741*
X287497Y50116*
Y49179*
X287185Y48554*
X283747Y56054D02*
Y53554D01*
X285935Y55741*
X286559Y56054*
X287185Y55741*
X287497Y55116*
Y54179*
X287185Y53554*
X286120Y13398D02*
X275459D01*
Y19335*
X286120*
Y13398*
X286126Y47192D02*
X275465D01*
Y53129*
X286126*
Y47192*
X289457Y66469D02*
Y77130D01*
X295394*
Y66469*
X289457*
X290902Y58972D02*
X294652D01*
Y57409D02*
Y60535D01*
X291840Y62409D02*
X291215Y62722D01*
X290902Y63347*
Y64597*
X291215Y65222*
X291840Y65535*
X292465Y65222*
X292778Y64597*
Y63347*
X293090Y62722*
X293715Y62409*
X294340Y62722*
X294652Y63347*
Y64597*
X294340Y65222*
X293715Y65535*
D02*
D71*
X62619Y71728D02*
G75*
G02Y72091J181D01*
G01*
G75*
G02Y71728J-181*
G01*
X220099D02*
G75*
G02Y72091J181D01*
G01*
G75*
G02Y71728J-181*
G01*
D02*
D20*
X116372Y26494D02*
Y27281*
G75*
G03Y26494J-394D01*
G01*
Y27281D02*
G75*
G02Y26494J-394D01*
G01*
X273853D02*
Y27281*
G75*
G03Y26494J-394D01*
G01*
Y27281D02*
G75*
G02Y26494J-394D01*
G01*
X0Y0D02*
M02*
