G04 EasyPC Gerber Version 21.0.3 Build 4286 *
G04 #@! TF.Part,Single*
G04 #@! TF.FileFunction,Legend,Top *
G04 #@! TF.FilePolarity,Positive *
%FSLAX45Y45*%
%MOIN*%
%ADD19C,0.00100*%
%ADD21C,0.00197*%
%ADD18C,0.00276*%
%ADD70C,0.00500*%
%ADD20C,0.00787*%
%ADD71C,0.01000*%
%ADD22C,0.01575*%
X0Y0D02*
D02*
D18*
X46087Y188030D02*
Y188522D01*
X45841Y189014*
X45349Y189260*
X44857Y189014*
X44611Y188522*
Y188030*
X44857Y187537*
X45349Y187291*
X45841Y187537*
X46087Y188030*
X46333Y187537*
X46825Y187291*
X47317Y187537*
X47563Y188030*
Y188522*
X47317Y189014*
X46825Y189260*
X46333Y189014*
X46087Y188522*
X48853Y155008D02*
Y155992D01*
Y155500D02*
X45900D01*
X46392Y155008*
X74748Y158059D02*
Y156091D01*
X73026Y157813*
X72534Y158059*
X72042Y157813*
X71796Y157321*
Y156583*
X72042Y156091*
X74748Y187291D02*
X71796Y189260D01*
Y187291*
X98489D02*
X97996Y187537D01*
X97750Y188030*
Y188522*
X97996Y189014*
X98489Y189260*
X98981Y189014*
X99227Y188522*
Y188030*
X98981Y187537*
X98489Y187291*
X97750*
X97012Y187537*
X96520Y188030*
X96274Y188522*
X99837Y155618D02*
X100083Y156110D01*
Y156602*
X99837Y157094*
X99345Y157341*
X98853Y157094*
X98607Y156602*
Y156110*
Y156602D02*
X98361Y157094D01*
X97869Y157341*
X97376Y157094*
X97130Y156602*
Y156110*
X97376Y155618*
X124739Y187291D02*
X124985Y187783D01*
Y188522*
X124739Y189014*
X124246Y189260*
X124000*
X123508Y189014*
X123262Y188522*
Y187291*
X122032*
Y189260*
X125703Y157026D02*
X122750D01*
X124719Y155795*
Y157764*
X203567Y188030D02*
Y188522D01*
X203321Y189014*
X202829Y189260*
X202337Y189014*
X202091Y188522*
Y188030*
X202337Y187537*
X202829Y187291*
X203321Y187537*
X203567Y188030*
X203813Y187537*
X204306Y187291*
X204798Y187537*
X205044Y188030*
Y188522*
X204798Y189014*
X204306Y189260*
X203813Y189014*
X203567Y188522*
X206333Y155008D02*
Y155992D01*
Y155500D02*
X203380D01*
X203872Y155008*
X232229Y158059D02*
Y156091D01*
X230506Y157813*
X230014Y158059*
X229522Y157813*
X229276Y157321*
Y156583*
X229522Y156091*
X232229Y187291D02*
X229276Y189260D01*
Y187291*
X255969D02*
X255477Y187537D01*
X255231Y188030*
Y188522*
X255477Y189014*
X255969Y189260*
X256461Y189014*
X256707Y188522*
Y188030*
X256461Y187537*
X255969Y187291*
X255231*
X254493Y187537*
X254000Y188030*
X253754Y188522*
X257317Y155618D02*
X257563Y156110D01*
Y156602*
X257317Y157094*
X256825Y157341*
X256333Y157094*
X256087Y156602*
Y156110*
Y156602D02*
X255841Y157094D01*
X255349Y157341*
X254857Y157094*
X254611Y156602*
Y156110*
X254857Y155618*
X282219Y187291D02*
X282465Y187783D01*
Y188522*
X282219Y189014*
X281727Y189260*
X281481*
X280989Y189014*
X280743Y188522*
Y187291*
X279512*
Y189260*
X283183Y157026D02*
X280231D01*
X282199Y155795*
Y157764*
D02*
D19*
X171882Y213137D02*
X172663Y211263D01*
X173445Y213137*
X174382Y211887D02*
X175632D01*
X178445Y211575D02*
X178289Y211419D01*
X177976Y211263*
X177507*
X177195Y211419*
X177039Y211575*
X176882Y211887*
Y212513*
X177039Y212825*
X177195Y212981*
X177507Y213137*
X177976*
X178289Y212981*
X178445Y212825*
X179382Y213137D02*
Y211731D01*
X179539Y211419*
X179851Y211263*
X180476*
X180789Y211419*
X180945Y211731*
Y213137*
X182663Y211263D02*
Y213137D01*
X181882D02*
X183445D01*
D02*
D70*
X42514Y23160D02*
Y26910D01*
X44702*
X45327Y26598*
X45639Y25972*
X45327Y25348*
X44702Y25035*
X42514*
X47514Y24410D02*
Y25660D01*
X47827Y26285*
X48139Y26598*
X48764Y26910*
X49389*
X50014Y26598*
X50327Y26285*
X50639Y25660*
Y24410*
X50327Y23785*
X50014Y23472*
X49389Y23160*
X48764*
X48139Y23472*
X47827Y23785*
X47514Y24410*
X52514Y26910D02*
X52827Y23160D01*
X54077Y25035*
X55327Y23160*
X55639Y26910*
X57514Y23160D02*
Y26910D01*
X60639*
X60014Y25035D02*
X57514D01*
Y23160D02*
X60639D01*
X62514D02*
Y26910D01*
X64702*
X65327Y26598*
X65639Y25972*
X65327Y25348*
X64702Y25035*
X62514*
X64702D02*
X65639Y23160D01*
X49931Y126100D02*
X49306Y125788D01*
X48993Y125163*
Y123913*
X49306Y123288*
X49931Y122975*
X50556Y123288*
X50868Y123913*
Y125163*
X51181Y125788*
X51806Y126100*
X52431Y125788*
X52743Y125163*
Y123913*
X52431Y123288*
X51806Y122975*
X48993Y119538D02*
X52743D01*
Y121100D02*
Y117975D01*
X50243Y116100D02*
Y113600D01*
X52743Y111100D02*
X48993D01*
Y107975*
Y104850D02*
X51493D01*
X52431D02*
X48993Y101100*
X51493D01*
X50556D02*
X51181Y100788D01*
X51493Y100163*
Y99538*
X51181Y98913*
X50556Y98600*
X48993*
Y96100D02*
X52743D01*
X50243D02*
Y95163D01*
X51493Y93600*
X50243Y95163D02*
X48993Y93600D01*
X50093Y183853D02*
Y173853D01*
X70093*
Y203853*
X50093*
Y193853*
X50388Y151602D02*
Y141602D01*
X70388*
Y171602*
X50388*
Y161602*
X57312Y84082D02*
Y73420D01*
X63249*
Y84082*
X57312*
X62766Y47433D02*
Y58094D01*
X56829*
Y47433*
X62766*
X68493Y14975D02*
X79154D01*
Y20912*
X68493*
Y14975*
X75096Y96946D02*
X64435D01*
Y91009*
X75096*
Y96946*
X76115Y183853D02*
Y173853D01*
X96115*
Y203853*
X76115*
Y193853*
X76294Y151646D02*
Y141646D01*
X96294*
Y171646*
X76294*
Y161646*
X91250Y133455D02*
X92500D01*
X91874D02*
Y137205D01*
X91250Y136580*
X98124Y133455D02*
X95624D01*
X97812Y135643*
X98124Y136268*
X97812Y136893*
X97187Y137205*
X96250*
X95624Y136893*
X100624Y137205D02*
X102187Y133455D01*
X103750Y137205*
X100821Y184228D02*
Y174228D01*
X120821*
Y204228*
X100821*
Y194228*
X101215Y151521D02*
Y141521D01*
X121215*
Y171521*
X101215*
Y161521*
X106770Y125770D02*
X117431D01*
Y131707*
X106770*
Y125770*
X108416Y115890D02*
X97754D01*
Y109953*
X108416*
Y115890*
X108426Y108734D02*
X97764D01*
Y102797*
X108426*
Y108734*
X109235Y49233D02*
Y38572D01*
X115172*
Y49233*
X109235*
X115750Y99632D02*
X112000D01*
Y101819*
X112312Y102444*
X112937Y102757*
X113562Y102444*
X113875Y101819*
Y99632*
Y101819D02*
X115750Y102757D01*
Y104632D02*
X112000Y107757D01*
Y104632D02*
X115750Y107757D01*
X123728Y100692D02*
X119978D01*
Y99130D02*
Y102255D01*
X123728Y104130D02*
X119978Y107255D01*
Y104130D02*
X123728Y107255D01*
X127034Y183728D02*
Y173728D01*
X147034*
Y203728*
X127034*
Y193728*
X127219Y151396D02*
Y141396D01*
X147219*
Y171396*
X127219*
Y161396*
X141723Y85553D02*
Y96215D01*
X135786*
Y85553*
X141723*
X146194Y45234D02*
X163202D01*
X146194D02*
X148162D01*
Y47202*
X146194*
Y45234*
Y47202D02*
X163202D01*
X146194Y55234D02*
X163202D01*
X146194D02*
X148162D01*
Y57202*
X146194*
Y55234*
Y57202D02*
X163202D01*
X146194Y65234D02*
X163202D01*
X146194D02*
X148162D01*
Y67203*
X146194*
Y65234*
Y67202D02*
X163202D01*
X146194Y75234D02*
X163202D01*
X146194D02*
X148162D01*
Y77203*
X146194*
Y75234*
Y77203D02*
X163202D01*
X146194Y85234D02*
X163202D01*
X146194D02*
X148162D01*
Y87203*
X146194*
Y85234*
Y87203D02*
X163202D01*
X148162Y45234D02*
X163202D01*
X148162Y47202D02*
X163202D01*
X148162Y55234D02*
X163202D01*
X148162Y57202D02*
X163202D01*
X148162Y65234D02*
X163202D01*
X148162Y67203D02*
X163202D01*
X148162Y75234D02*
X163202D01*
X148162Y77203D02*
X163202D01*
X148162Y85234D02*
X163202D01*
X148162Y87203D02*
X163202D01*
X156194Y45234D02*
X163202D01*
X156194D02*
X158162D01*
Y47202*
X156194*
Y45234*
Y47202D02*
X163202D01*
X156194Y55234D02*
X163202D01*
X156194D02*
X158162D01*
Y57202*
X156194*
Y55234*
Y57202D02*
X163202D01*
X156194Y65234D02*
X163202D01*
X156194D02*
X158162D01*
Y67202*
X156194*
Y65234*
Y67202D02*
X163202D01*
X156194Y75234D02*
X163202D01*
X156194D02*
X158162D01*
Y77203*
X156194*
Y75234*
Y77203D02*
X163202D01*
X156194Y85234D02*
X163202D01*
X156194D02*
X158162D01*
Y87203*
X156194*
Y85234*
Y87203D02*
X163202D01*
Y45234D02*
X158162D01*
X163202Y47202D02*
X158162D01*
X163202Y55234D02*
X158162D01*
X163202Y57202D02*
X158162D01*
X163202Y65234D02*
X158162D01*
X163202Y67202D02*
X158162D01*
X163202Y75234D02*
X158162D01*
X163202Y77203D02*
X158162D01*
X163202Y85234D02*
X158162D01*
X163202Y87203D02*
X158162D01*
X174619Y74289D02*
Y58147D01*
X198241*
Y26455*
X163202*
Y105982*
X198241Y105982*
Y74289*
X174619*
X198241Y31769D02*
Y100667D01*
X199994Y23160D02*
Y26910D01*
X202182*
X202807Y26598*
X203120Y25972*
X202807Y25348*
X202182Y25035*
X199994*
X204994Y24410D02*
Y25660D01*
X205307Y26285*
X205620Y26598*
X206244Y26910*
X206870*
X207494Y26598*
X207807Y26285*
X208120Y25660*
Y24410*
X207807Y23785*
X207494Y23472*
X206870Y23160*
X206244*
X205620Y23472*
X205307Y23785*
X204994Y24410*
X209994Y26910D02*
X210307Y23160D01*
X211557Y25035*
X212807Y23160*
X213120Y26910*
X214994Y23160D02*
Y26910D01*
X218120*
X217494Y25035D02*
X214994D01*
Y23160D02*
X218120D01*
X219994Y24098D02*
X220307Y23472D01*
X220932Y23160*
X222182*
X222807Y23472*
X223120Y24098*
X222807Y24722*
X222182Y25035*
X220932*
X220307Y25348*
X219994Y25972*
X220307Y26598*
X220932Y26910*
X222182*
X222807Y26598*
X223120Y25972*
X207411Y126100D02*
X206786Y125788D01*
X206473Y125163*
Y123913*
X206786Y123288*
X207411Y122975*
X208036Y123288*
X208348Y123913*
Y125163*
X208661Y125788*
X209286Y126100*
X209911Y125788*
X210223Y125163*
Y123913*
X209911Y123288*
X209286Y122975*
X206473Y119538D02*
X210223D01*
Y121100D02*
Y117975D01*
X207723Y116100D02*
Y113600D01*
X210223Y111100D02*
X206473D01*
Y107975*
Y104850D02*
X208973D01*
X209911D02*
X206473Y101100*
X208973D01*
X208036D02*
X208661Y100788D01*
X208973Y100163*
Y99538*
X208661Y98913*
X208036Y98600*
X206473*
Y94538D02*
Y94850D01*
X210223*
X207573Y183853D02*
Y173853D01*
X227573*
Y203853*
X207573*
Y193853*
X207869Y151602D02*
Y141602D01*
X227869*
Y171602*
X207869*
Y161602*
X214792Y84082D02*
Y73420D01*
X220729*
Y84082*
X214792*
X220246Y47433D02*
Y58094D01*
X214309*
Y47433*
X220246*
X225973Y14975D02*
X236634D01*
Y20912*
X225973*
Y14975*
X232576Y96946D02*
X221915D01*
Y91009*
X232576*
Y96946*
X233595Y183853D02*
Y173853D01*
X253595*
Y203853*
X233595*
Y193853*
X233774Y151646D02*
Y141646D01*
X253774*
Y171646*
X233774*
Y161646*
X248730Y133455D02*
X249980D01*
X249355D02*
Y137205D01*
X248730Y136580*
X255605Y133455D02*
X253105D01*
X255292Y135643*
X255605Y136268*
X255292Y136893*
X254667Y137205*
X253730*
X253105Y136893*
X258105Y137205D02*
X258417Y133455D01*
X259667Y135330*
X260917Y133455*
X261230Y137205*
X258302Y184228D02*
Y174228D01*
X278302*
Y204228*
X258302*
Y194228*
X258695Y151521D02*
Y141521D01*
X278695*
Y171521*
X258695*
Y161521*
X264250Y125770D02*
X274912D01*
Y131707*
X264250*
Y125770*
X265896Y115890D02*
X255235D01*
Y109953*
X265896*
Y115890*
X265906Y108734D02*
X255244D01*
Y102797*
X265906*
Y108734*
X266716Y49233D02*
Y38572D01*
X272653*
Y49233*
X266716*
X273230Y99632D02*
X269480D01*
Y101819*
X269793Y102444*
X270418Y102757*
X271043Y102444*
X271355Y101819*
Y99632*
Y101819D02*
X273230Y102757D01*
Y106194D02*
X271355D01*
X269480Y104632*
X271355Y106194D02*
X269480Y107757D01*
X281209Y100692D02*
X277459D01*
Y99130D02*
Y102255D01*
X281209Y105692D02*
X279333D01*
X277459Y104130*
X279333Y105692D02*
X277459Y107255D01*
X284515Y183728D02*
Y173728D01*
X304515*
Y203728*
X284515*
Y193728*
X284699Y151396D02*
Y141396D01*
X304699*
Y171396*
X284699*
Y161396*
X299203Y85553D02*
Y96215D01*
X293266*
Y85553*
X299203*
X303674Y45234D02*
X320682D01*
X303674D02*
X305643D01*
Y47202*
X303674*
Y45234*
Y47202D02*
X320682D01*
X303674Y55234D02*
X320682D01*
X303674D02*
X305643D01*
Y57202*
X303674*
Y55234*
Y57202D02*
X320682D01*
X303674Y65234D02*
X320682D01*
X303674D02*
X305643D01*
Y67203*
X303674*
Y65234*
Y67202D02*
X320682D01*
X303674Y75234D02*
X320682D01*
X303674D02*
X305643D01*
Y77203*
X303674*
Y75234*
Y77203D02*
X320682D01*
X303674Y85234D02*
X320682D01*
X303674D02*
X305643D01*
Y87203*
X303674*
Y85234*
Y87203D02*
X320682D01*
X305643Y45234D02*
X320682D01*
X305643Y47202D02*
X320682D01*
X305643Y55234D02*
X320682D01*
X305643Y57202D02*
X320682D01*
X305643Y65234D02*
X320682D01*
X305643Y67203D02*
X320682D01*
X305643Y75234D02*
X320682D01*
X305643Y77203D02*
X320682D01*
X305643Y85234D02*
X320682D01*
X305643Y87203D02*
X320682D01*
X313674Y45234D02*
X320682D01*
X313674D02*
X315643D01*
Y47202*
X313674*
Y45234*
Y47202D02*
X320682D01*
X313674Y55234D02*
X320682D01*
X313674D02*
X315643D01*
Y57202*
X313674*
Y55234*
Y57202D02*
X320682D01*
X313674Y65234D02*
X320682D01*
X313674D02*
X315643D01*
Y67202*
X313674*
Y65234*
Y67202D02*
X320682D01*
X313674Y75234D02*
X320682D01*
X313674D02*
X315643D01*
Y77203*
X313674*
Y75234*
Y77203D02*
X320682D01*
X313674Y85234D02*
X320682D01*
X313674D02*
X315643D01*
Y87203*
X313674*
Y85234*
Y87203D02*
X320682D01*
Y45234D02*
X315643D01*
X320682Y47202D02*
X315643D01*
X320682Y55234D02*
X315643D01*
X320682Y57202D02*
X315643D01*
X320682Y65234D02*
X315643D01*
X320682Y67202D02*
X315643D01*
X320682Y75234D02*
X315643D01*
X320682Y77203D02*
X315643D01*
X320682Y85234D02*
X315643D01*
X320682Y87203D02*
X315643D01*
X332099Y74289D02*
Y58147D01*
X355721*
Y26455*
X320682*
Y105982*
X355721Y105982*
Y74289*
X332099*
X355721Y31769D02*
Y100667D01*
D02*
D71*
X55225Y64130D02*
Y62638D01*
Y68854D02*
Y67362D01*
Y72071D02*
X60343D01*
Y59472D02*
X55225D01*
X60343Y64130D02*
Y62638D01*
Y68949D02*
Y67457D01*
X62619Y71728D02*
G75*
G02Y72091J181D01*
G01*
X129182Y129297D02*
Y139959D01*
X161859*
Y129211*
Y118093D02*
Y107281D01*
X129182*
Y118006*
X212706Y64130D02*
Y62638D01*
Y68854D02*
Y67362D01*
Y72071D02*
X217824D01*
Y59472D02*
X212706D01*
X217824Y64130D02*
Y62638D01*
Y68949D02*
Y67457D01*
X220099Y71728D02*
G75*
G02Y72091J181D01*
G01*
X286663Y129297D02*
Y139959D01*
X319340*
Y129211*
Y118093D02*
Y107281D01*
X286663*
Y118006*
D02*
D20*
X61491Y20970D02*
X52140D01*
Y14474*
X61491*
X73968Y70157D02*
X98771D01*
Y45354*
X73968*
Y70157*
X100467Y132075D02*
X91117D01*
Y125579*
X100467*
X109854Y82266D02*
X115759D01*
X111323Y94142D02*
Y84791D01*
X117819*
Y94142*
X117137Y81754D02*
X129735D01*
Y62463*
X117137*
Y81754*
X119926Y94014D02*
Y84663D01*
X126422*
Y94014*
X218971Y20970D02*
X209620D01*
Y14474*
X218971*
X231448Y70157D02*
X256252D01*
Y45354*
X231448*
Y70157*
X257947Y132075D02*
X248597D01*
Y125579*
X257947*
X267334Y82266D02*
X273239D01*
X268804Y94142D02*
Y84791D01*
X275300*
Y94142*
X274617Y81754D02*
X287216D01*
Y62463*
X274617*
Y81754*
X277406Y94014D02*
Y84663D01*
X283902*
Y94014*
D02*
D21*
X108869Y82738D02*
X138003D01*
Y61478*
X108869*
Y82738*
X266350D02*
X295483D01*
Y61478*
X266350*
Y82738*
D02*
D22*
X69145Y73504D02*
G75*
G02X67570I-787D01*
G01*
X69145D02*
G75*
G02X67570I-787D01*
G01*
G75*
G02X69145I787*
G01*
X226626D02*
G75*
G02X225051I-787D01*
G01*
X226626D02*
G75*
G02X225051I-787D01*
G01*
G75*
G02X226626I787*
G01*
X0Y0D02*
M02*
