G04 EasyPC Gerber Version 21.0.3 Build 4286 *
G04 #@! TF.Part,Single*
G04 #@! TF.FileFunction,Copper,L2,Bot *
G04 #@! TF.FilePolarity,Positive *
%FSLAX45Y45*%
%MOIN*%
G04 #@! TA.AperFunction,SMDPad*
%ADD25R,0.02559X0.03937*%
%ADD111R,0.03157X0.03827*%
G04 #@! TD.AperFunction*
%ADD70C,0.00500*%
%ADD71C,0.01000*%
%ADD78C,0.01500*%
G04 #@! TA.AperFunction,ViaPad*
%ADD77C,0.02362*%
G04 #@! TD.AperFunction*
%ADD90C,0.05000*%
G04 #@! TA.AperFunction,ComponentPad*
%ADD74C,0.06693*%
G04 #@! TA.AperFunction,WasherPad*
%ADD91C,0.13386*%
G04 #@! TA.AperFunction,SMDPad*
%ADD26R,0.03937X0.02559*%
%ADD87R,0.05512X0.03150*%
%ADD88R,0.05709X0.03150*%
%ADD89R,0.11614X0.07874*%
X0Y0D02*
D02*
D70*
X168904Y195295D02*
G75*
G02X154508Y198581I-6823J3286D01*
G01*
G75*
G02X158795Y205404I7573*
G01*
X24877*
G75*
G02X29164Y198581I-3286J-6823*
G01*
G75*
G02X14786Y195259I-7573*
G01*
Y22060*
G75*
G02X29164Y18738I6806J-3322*
G01*
G75*
G02X24877Y11915I-7573*
G01*
X158795*
G75*
G02X154508Y18738I3286J6823*
G01*
G75*
G02X168904Y22024I7573*
G01*
Y195295*
X161773Y158793D02*
G75*
G02X162252Y157639I-1151J-1154D01*
G01*
Y122903*
G75*
G02X161773Y121749I-1630*
G01*
X148404Y108380*
Y104716*
G75*
G02X147926Y103562I-1630*
G01*
X119819Y75455*
Y72238*
X123217*
Y66541*
X122565*
Y54634*
G75*
G02X121894Y53316I-1630*
G01*
Y53010*
X122424*
Y47917*
X123286*
Y53380*
X128345*
Y47917*
X143238*
G75*
G02X151037I3900J-1630*
G01*
X153238*
G75*
G02X161364Y46287I3900J-1630*
G01*
G75*
G02X153238Y44657I-4226*
G01*
X151037*
G75*
G02X143238I-3900J1630*
G01*
X121993*
G75*
G02X121841Y44068I-1781J144*
G01*
Y41941*
X123847*
Y38374*
X135930*
Y28000*
X123847*
Y24433*
X121998*
Y19215*
X122418*
Y13518*
X118099*
Y14106*
X102977*
G75*
G02X101347Y15736J1630*
G01*
Y23304*
G75*
G02X100916Y24565I1630J1261*
G01*
G75*
G02X105038I2061*
G01*
G75*
G02X104607Y23304I-2061*
G01*
Y17366*
X118099*
Y19215*
X118424*
Y24433*
X116575*
Y29343*
X121815*
Y30362*
X116205*
Y36012*
X121815*
Y37031*
X116575*
Y41941*
X118581*
Y44068*
G75*
G02X118424Y44801I1630J733*
G01*
Y47313*
X118105*
Y53010*
X118634*
Y54524*
G75*
G02X117073Y54803I-445J2013*
G01*
Y53031*
G75*
G02X116133Y51555I-1630*
G01*
G75*
G02X112991Y54193I-1439J1476*
G01*
G75*
G02X110958Y54757I-543J1988*
G01*
Y31464*
G75*
G02X111389Y30203I-1630J-1261*
G01*
G75*
G02X107267I-2061*
G01*
G75*
G02X107698Y31464I2061*
G01*
Y33216*
G75*
G02X103897Y34321I-1740J1105*
G01*
G75*
G02X104328Y35583I2061*
G01*
Y74428*
G75*
G02X101707Y74347I-1360J1549*
G01*
X42834*
G75*
G02X41680Y74826J1630*
G01*
X39465Y77041*
G75*
G02X34866Y78709I-1124J4074*
G01*
Y73520*
G75*
G02X42241Y72744I3475J-2406*
G01*
X76261*
G75*
G02X77891Y71115J-1630*
G01*
Y66891*
G75*
G02X78322Y65630I-1630J-1261*
G01*
G75*
G02X74200I-2061*
G01*
G75*
G02X74631Y66891I2061*
G01*
Y69485*
X42241*
G75*
G02X40938Y67780I-3900J1630*
G01*
X69919*
G75*
G02X71185Y67255J-1787*
G01*
X74633Y63806*
X77238Y61326*
G75*
G02X77762Y60361I-1233J-1295*
G01*
G75*
G02X78067Y59282I-1756J-1079*
G01*
G75*
G02X73944I-2062*
G01*
G75*
G02X73957Y59514I2063J1*
G01*
X72152Y61232*
G75*
G02X72119Y61265I1251J1315*
G01*
X69178Y64206*
X41223*
G75*
G02X38341Y56888I-2882J-3091*
G01*
G75*
G02X35464Y64211J4226*
G01*
G75*
G02X34337Y64731I139J1782*
G01*
X31817Y67251*
G75*
G02X31467Y67745I1262J1266*
G01*
G75*
G02X23744Y71115I-3126J3370*
G01*
G75*
G02X31291Y74639I4596*
G01*
Y77590*
G75*
G02X23744Y81115I-2950J3524*
G01*
G75*
G02X31291Y84639I4596*
G01*
Y87590*
G75*
G02X23744Y91115I-2950J3524*
G01*
G75*
G02X31291Y94639I4596*
G01*
Y97590*
G75*
G02X23744Y101115I-2950J3524*
G01*
G75*
G02X31335Y104602I4596*
G01*
G75*
G02X31815Y105475I1744J-392*
G01*
X33812Y107472*
G75*
G02X35079Y107995I1264J-1264*
G01*
X35489*
G75*
G02X38341Y115341I2852J3119*
G01*
G75*
G02X42431Y112178J-4226*
G01*
X44967*
Y113396*
X49286*
Y107699*
X47076*
X44324Y104946*
G75*
G02X43057Y104420I-1266J1262*
G01*
X40974*
G75*
G02X38341Y96888I-2633J-3306*
G01*
G75*
G02X34866Y98709J4226*
G01*
Y93520*
G75*
G02X42567Y91115I3475J-2406*
G01*
G75*
G02X34866Y88709I-4226*
G01*
Y83520*
G75*
G02X42042Y79074I3475J-2406*
G01*
X43509Y77607*
X101707*
G75*
G02X104328Y77526I1261J-1630*
G01*
Y85065*
X96853Y92540*
G75*
G02X95874Y92785I-6J2061*
G01*
Y89220*
G75*
G02X96305Y87958I-1630J-1261*
G01*
G75*
G02X92183I-2061*
G01*
G75*
G02X92614Y89220I2061*
G01*
Y89687*
G75*
G02X89574Y89453I-1626J1266*
G01*
Y87223*
G75*
G02X90006Y85961I-1630J-1261*
G01*
G75*
G02X85883I-2061*
G01*
G75*
G02X86315Y87223I2061*
G01*
Y92073*
X81968Y96420*
G75*
G02X81510Y97316I1151J1154*
G01*
Y88509*
X84868Y85151*
G75*
G02X86219Y81601I-73J-2060*
G01*
X95966*
G75*
G02X99289Y79971I1261J-1630*
G01*
G75*
G02X95966Y78341I-2061*
G01*
X52049*
G75*
G02X50895Y78820J1630*
G01*
X45732Y83982*
G75*
G02X44247Y85961I576J1979*
G01*
G75*
G02X48369I2061*
G01*
G75*
G02Y85956I-2051J-3*
G01*
X52724Y81601*
X83371*
G75*
G02X82789Y82620I1424J1490*
G01*
X79292Y86116*
G75*
G02X79445Y85337I-1908J-779*
G01*
G75*
G02X75323I-2061*
G01*
G75*
G02X75341Y85613I2061*
G01*
Y105043*
X48241Y132143*
G75*
G02X47715Y133409I1262J1266*
G01*
Y167483*
G75*
G02X48233Y168741I1787J0*
G01*
X57243Y177831*
G75*
G02X58514Y178360I1269J-1258*
G01*
X71413*
X76293Y183240*
Y183608*
X75620*
Y189195*
X80538*
Y183608*
X79868*
Y182499*
G75*
G02X79342Y181233I-1787*
G01*
X73477Y175368*
X92937*
X100413Y182844*
Y183734*
X99585*
Y189321*
X104502*
Y183734*
X103672*
Y182169*
G75*
G02X103194Y181015I-1630*
G01*
X94841Y172661*
X114278*
X124624Y183007*
Y184108*
X123796*
Y189695*
X128713*
Y184108*
X127884*
Y182332*
G75*
G02X127406Y181178I-1630*
G01*
X116107Y169880*
G75*
G02X114954Y169402I-1154J1151*
G01*
X63325*
X59694Y165771*
G75*
G02X60388Y165829I695J-4170*
G01*
G75*
G02X62926Y164982J-4226*
G01*
X74235*
G75*
G02X76684Y163931J-3380*
G01*
X76693*
Y163922*
G75*
G02X77615Y161602I-2459J-2319*
G01*
Y161139*
G75*
G02X76693Y158819I-3380*
G01*
Y158344*
X76137*
G75*
G02X72526Y158222I-1902J2794*
G01*
X62926*
G75*
G02X56419Y160151I-2537J3380*
G01*
Y153054*
G75*
G02X64615Y151602I3969J-1452*
G01*
G75*
G02X56419Y150151I-4226*
G01*
Y144333*
X84270Y116482*
G75*
G02X84749Y115328I-1151J-1154*
G01*
Y98249*
X89096Y93902*
G75*
G02X89357Y93561I-1151J-1154*
G01*
Y123321*
X77654Y135024*
G75*
G02X77176Y136178I1151J1154*
G01*
Y150904*
X76347*
Y156490*
X81264*
Y150904*
X80435*
Y136853*
X92139Y125150*
G75*
G02X92617Y123996I-1151J-1154*
G01*
Y98674*
G75*
G02X93093Y99720I1626J-107*
G01*
X107590Y114218*
Y137194*
X101898Y142887*
G75*
G02X101419Y144041I1151J1154*
G01*
Y151652*
X100589*
Y157238*
X105506*
Y151652*
X104679*
Y144716*
X110371Y139023*
G75*
G02X110850Y137869I-1151J-1154*
G01*
Y113543*
G75*
G02X110371Y112389I-1630*
G01*
X95874Y97891*
Y96418*
G75*
G02X98827Y95177I974J-1817*
G01*
X107109Y86894*
G75*
G02X107588Y85740I-1151J-1154*
G01*
Y35583*
G75*
G02X107698Y35426I-1629J-1261*
G01*
Y95586*
G75*
G02X110843Y98245I1630J1261*
G01*
G75*
G02X111297Y99114I1605J-285*
G01*
X124921Y112738*
Y151028*
X124093*
Y156614*
X129010*
Y151028*
X128181*
Y112063*
G75*
G02X127702Y110909I-1630*
G01*
X114078Y97285*
Y90374*
G75*
G02X114292Y90638I1366J-890*
G01*
X152168Y128514*
Y151404*
X151339*
Y156990*
X156256*
Y151404*
X155428*
Y127839*
G75*
G02X154949Y126685I-1630*
G01*
X117073Y88809*
Y77320*
X145144Y105391*
Y109056*
G75*
G02X145623Y110209I1630*
G01*
X158992Y123578*
Y156963*
X151811Y164144*
G75*
G02X151685Y164285I1153J1154*
G01*
Y163957*
G75*
G02X152607Y161638I-2459J-2319*
G01*
Y161396*
G75*
G02X151685Y159077I-3380*
G01*
Y158844*
X151443*
G75*
G02X149227Y158016I-2217J2552*
G01*
X139756*
G75*
G02X132993Y161396I-2537J3380*
G01*
G75*
G02X139756Y164776I4226*
G01*
X147972*
G75*
G02X151130Y164431I1255J-3138*
G01*
X151582*
G75*
G02X151332Y165298I1380J867*
G01*
Y183486*
X150502*
Y189073*
X155420*
Y183486*
X154592*
Y165974*
X161773Y158793*
X50148Y113766D02*
X55207D01*
Y107329*
X50148*
Y113766*
X82067Y151646D02*
G75*
G02X90520I4226D01*
G01*
G75*
G02X82067I-4226*
G01*
X100935Y164208D02*
G75*
G02Y159567I-2457J-2320D01*
G01*
Y159093*
X100379*
G75*
G02X98478Y158507I-1901J2795*
G01*
X89125*
G75*
G02X82067Y161646I-2831J3138*
G01*
G75*
G02X88472Y165267I4226*
G01*
X98478*
G75*
G02X100383Y164679J-3380*
G01*
X100935*
Y164208*
X90985Y157608D02*
X96642D01*
Y151281*
X90985*
Y157608*
X114487Y156984D02*
X120144D01*
Y150657*
X115352*
G75*
G02X106989Y151521I-4137J863*
G01*
G75*
G02X114487Y154196I4226*
G01*
Y156984*
X124439Y163840D02*
G75*
G02X125360Y161521I-2459J-2319D01*
G01*
Y161263*
G75*
G02X124439Y158944I-3380*
G01*
Y158470*
X123884*
G75*
G02X120686Y158141I-1904J2793*
G01*
X113752*
G75*
G02X106989Y161521I-2537J3380*
G01*
G75*
G02X113752Y164901I4226*
G01*
X121980*
G75*
G02X124215Y164057J-3380*
G01*
X124439*
Y163840*
X66743Y156860D02*
X72400D01*
Y150533*
X66743*
Y156860*
X141735Y157360D02*
X147392D01*
Y151033*
X141735*
Y157360*
X158572Y60654D02*
G75*
G02X157138Y51691I-1434J-4367D01*
G01*
G75*
G02X154168Y59795J4596*
G01*
X150107*
G75*
G02X147138Y51691I-2970J-3508*
G01*
G75*
G02X144168Y59795J4596*
G01*
X138469*
G75*
G02X136839Y61425J1630*
G01*
Y67140*
X132097*
Y68998*
G75*
G02Y70219I1969J611*
G01*
Y71459*
X133157*
G75*
G02X134976I909J-1850*
G01*
X137794*
Y71238*
X138469*
G75*
G02X140099Y69608J-1630*
G01*
Y63055*
X144414*
G75*
G02X144381Y69490I2724J3232*
G01*
X141796*
G75*
G02X140166Y71120J1630*
G01*
Y72978*
X137794*
Y72691*
X134822*
G75*
G02X133310I-756J1917*
G01*
X132097*
Y74000*
G75*
G02Y75216I1969J608*
G01*
Y77010*
X137794*
Y76238*
X141796*
G75*
G02X142944Y75765J-1630*
G01*
G75*
G02X147138Y80513I4194J522*
G01*
G75*
G02X148328Y72232J-4226*
G01*
G75*
G02X148766Y71120I-1192J-1111*
G01*
Y70187*
G75*
G02X149861Y63055I-1628J-3900*
G01*
X154414*
G75*
G02X157138Y70513I2724J3232*
G01*
G75*
G02X158766Y62387J-4226*
G01*
Y61425*
G75*
G02X158572Y60654I-1630*
G01*
X152911Y76287D02*
G75*
G02X161364I4226D01*
G01*
G75*
G02X152911I-4226*
G01*
Y86287D02*
G75*
G02X161364I4226D01*
G01*
G75*
G02X152911I-4226*
G01*
X124079Y72608D02*
X129138D01*
Y66171*
X124079*
Y72608*
X142911Y86287D02*
G75*
G02X151364I4226D01*
G01*
G75*
G02X142911I-4226*
G01*
X123280Y19585D02*
X128339D01*
Y13148*
X123280*
Y19585*
X33744Y51115D02*
G75*
G02X42937I4596D01*
G01*
G75*
G02X33744I-4596*
G01*
X66632Y36950D02*
G75*
G02X69954Y35320I1261J-1630D01*
G01*
G75*
G02X66632Y33690I-2061*
G01*
X26430*
G75*
G02X25276Y34169J1630*
G01*
X21819Y37626*
G75*
G02X21340Y38780I1151J1154*
G01*
Y45928*
G75*
G02X21819Y47082I1630*
G01*
X24379Y49643*
G75*
G02X28341Y55341I3962J1472*
G01*
G75*
G02Y46888J-4226*
G01*
G75*
G02X26607Y47260J4226*
G01*
X24600Y45253*
Y43080*
G75*
G02X32567Y41115I3741J-1966*
G01*
G75*
G02X29059Y36950I-4226*
G01*
X37623*
G75*
G02X38341Y45341I718J4165*
G01*
G75*
G02X39059Y36950J-4226*
G01*
X66632*
X24115Y61115D02*
G75*
G02X32567I4226D01*
G01*
G75*
G02X24115I-4226*
G01*
X34115Y121115D02*
G75*
G02X42567I4226D01*
G01*
G75*
G02X34115I-4226*
G01*
Y131115D02*
G75*
G02X42567I4226D01*
G01*
G75*
G02X34115I-4226*
G01*
X55867Y183853D02*
G75*
G02X64319I4226D01*
G01*
G75*
G02X55867I-4226*
G01*
X75967Y196390D02*
G75*
G02Y191301I-2457J-2544D01*
G01*
Y191053*
X75681*
G75*
G02X73509Y190308I-2172J2793*
G01*
X62394*
G75*
G02X55867Y193853I-2301J3545*
G01*
G75*
G02X62418Y197383I4226*
G01*
X73509*
G75*
G02X75678Y196640J-3537*
G01*
X75967*
Y196390*
X66016Y189565D02*
X71674D01*
Y183238*
X66016*
Y189565*
X89979Y189691D02*
X95636D01*
Y183364*
X90313*
G75*
G02X81888Y183853I-4198J489*
G01*
G75*
G02X89979Y185565I4226*
G01*
Y189691*
X99931Y196512D02*
G75*
G02Y191428I-2460J-2542D01*
G01*
Y191175*
X99640*
G75*
G02X97472Y190433I-2169J2795*
G01*
X88597*
G75*
G02X81888Y193853I-2482J3420*
G01*
G75*
G02X88238Y197507I4226*
G01*
X97472*
G75*
G02X99644Y196762J-3537*
G01*
X99931*
Y196512*
X114191Y190065D02*
X119849D01*
Y183738*
X115019*
G75*
G02X106595Y184228I-4198J489*
G01*
G75*
G02X114191Y186778I4226*
G01*
Y190065*
X124142Y196888D02*
G75*
G02Y191801I-2459J-2543D01*
G01*
Y191551*
X123854*
G75*
G02X121683Y190807I-2170J2794*
G01*
X113304*
G75*
G02X106595Y194228I-2482J3420*
G01*
G75*
G02X112944Y197882I4226*
G01*
X121683*
G75*
G02X123854Y197138J-3538*
G01*
X124142*
Y196888*
X140898Y189443D02*
X146556D01*
Y183116*
X141216*
G75*
G02X132808Y183728I-4182J612*
G01*
G75*
G02X140898Y185441I4226*
G01*
Y189443*
X132993Y151396D02*
G75*
G02X141445I4226D01*
G01*
G75*
G02X132993I-4226*
G01*
X150849Y196265D02*
G75*
G02Y191176I-2457J-2544D01*
G01*
Y190927*
X150562*
G75*
G02X148391Y190183I-2170J2794*
G01*
X139335*
G75*
G02X132808Y193728I-2301J3545*
G01*
G75*
G02X139359Y197258I4226*
G01*
X148391*
G75*
G02X150562Y196514J-3538*
G01*
X150849*
Y196265*
X23744Y121115D02*
G75*
G02X32937I4596D01*
G01*
G75*
G02X23744I-4596*
G01*
X24115Y111115D02*
G75*
G02X32567I4226D01*
G01*
G75*
G02X24115I-4226*
G01*
X23744Y131115D02*
G75*
G02X32937I4596D01*
G01*
G75*
G02X23744I-4596*
G01*
X154889Y16366D02*
G36*
X128339D01*
Y13148*
X123280*
Y16366*
X122418*
Y13518*
X118099*
Y14106*
X102977*
G75*
G02X101347Y15736J1630*
G01*
Y16366*
X28783*
G75*
G02X25352Y12165I-7192J2372*
G01*
X158320*
G75*
G02X154889Y16366I3761J6573*
G01*
G37*
X118105Y51115D02*
G36*
X115453D01*
G75*
G02X113935I-759J1917*
G01*
X110958*
Y31464*
G75*
G02X111389Y30204I-1628J-1261*
G01*
G75*
G02Y30203I-2374J0*
G01*
G75*
G02X107267I-2061*
G01*
G75*
G02Y30204I2374J0*
G01*
G75*
G02X107698Y31464I2059*
G01*
Y33216*
G75*
G02X103897Y34321I-1740J1105*
G01*
G75*
G02Y34322I2374J0*
G01*
G75*
G02X104328Y35583I2059*
G01*
Y51115*
X42937*
G75*
G02X33744I-4596*
G01*
X32567*
G75*
G02X28341Y46888I-4226*
G01*
G75*
G02X26607Y47260I0J4228*
G01*
X24600Y45253*
Y43080*
G75*
G02X32567Y41115I3741J-1966*
G01*
G75*
G02X29059Y36950I-4227J0*
G01*
X37623*
G75*
G02X34115Y41115I718J4165*
G01*
G75*
G02X38341Y45341I4226*
G01*
G75*
G02X42567Y41115J-4226*
G01*
G75*
G02X39059Y36950I-4226*
G01*
X66632*
G75*
G02X69954Y35320I1261J-1630*
G01*
G75*
G02X66632Y33690I-2061*
G01*
X26430*
G75*
G02X25276Y34169I0J1629*
G01*
X21819Y37626*
G75*
G02X21340Y38780I1150J1154*
G01*
Y38780*
Y45928*
Y45928*
G75*
G02X21819Y47082I1629*
G01*
X24379Y49643*
G75*
G02X24115Y51115I3962J1472*
G01*
X15036*
Y22530*
G75*
G02X29164Y18738I6556J-3791*
G01*
G75*
G02X28783Y16366I-7573*
G01*
X101347*
Y23304*
G75*
G02X100916Y24564I1628J1261*
G01*
G75*
G02Y24565I2374J0*
G01*
G75*
G02X105038I2061*
G01*
G75*
G02Y24564I-2374J0*
G01*
G75*
G02X104607Y23304I-2059*
G01*
Y17366*
X118099*
Y19215*
X118424*
Y24433*
X116575*
Y29343*
X121815*
Y30362*
X116205*
Y36012*
X121815*
Y37031*
X116575*
Y41941*
X118581*
Y44068*
G75*
G02X118424Y44800I1626J733*
G01*
G75*
G02Y44801I2148J0*
G01*
Y47313*
X118105*
Y51115*
G37*
X107698D02*
G36*
X107588D01*
Y35583*
G75*
G02X107698Y35426I-1609J-1248*
G01*
Y51115*
G37*
X168654Y22499D02*
G36*
Y51115D01*
X128345*
Y47917*
X143238*
G75*
G02X151037I3900J-1630*
G01*
X153238*
G75*
G02X161364Y46287I3900J-1630*
G01*
Y46287*
Y46287*
G75*
G02X153238Y44657I-4226*
G01*
X151037*
G75*
G02X143238I-3900J1630*
G01*
X121993*
G75*
G02X121841Y44068I-1774J142*
G01*
Y41941*
X123847*
Y38374*
X135930*
Y28000*
X123847*
Y24433*
X121998*
Y19215*
X122418*
Y16366*
X123280*
Y19585*
X128339*
Y16366*
X154889*
G75*
G02X154508Y18738I7192J2372*
G01*
G75*
G02X168654Y22499I7573*
G01*
G37*
X123286Y51115D02*
G36*
X122424D01*
Y47917*
X123286*
Y51115*
G37*
X104328Y61115D02*
G36*
X77427D01*
G75*
G02X77762Y60361I-1420J-1083*
G01*
G75*
G02X78067Y59283I-1752J-1078*
G01*
G75*
G02Y59282I-2148J-1*
G01*
G75*
G02X73944I-2062*
G01*
G75*
G02Y59285I2030J2*
G01*
G75*
G02X73957Y59514I2013*
G01*
X72276Y61115*
X42567*
G75*
G02X38341Y56888I-4226*
G01*
G75*
G02X34115Y61115J4226*
G01*
X32567*
G75*
G02X24115I-4226*
G01*
X15036*
Y51115*
X24115*
G75*
G02X28341Y55341I4226*
G01*
G75*
G02X32567Y51115J-4226*
G01*
X33744*
G75*
G02X42937I4596*
G01*
X104328*
Y61115*
G37*
X113935Y51115D02*
G36*
G75*
G02X112633Y53031I759J1917D01*
G01*
G75*
G02X112991Y54193I2062*
G01*
G75*
G02X110958Y54757I-543J1989*
G01*
Y51115*
X113935*
G37*
X107698Y61115D02*
G36*
X107588D01*
Y51115*
X107698*
Y61115*
G37*
X118105Y51115D02*
G36*
Y53010D01*
X118634*
Y54524*
G75*
G02X117073Y54803I-444J2015*
G01*
Y53031*
G75*
G02X116133Y51555I-1628J-1*
G01*
G75*
G02X115453Y51115I-1439J1477*
G01*
X118105*
G37*
X158736Y61115D02*
G36*
G75*
G02X158572Y60654I-1598J310D01*
G01*
G75*
G02X161734Y56287I-1434J-4367*
G01*
G75*
G02X157138Y51691I-4596*
G01*
G75*
G02X152541Y56287J4596*
G01*
G75*
G02X154168Y59795I4596*
G01*
X150107*
G75*
G02X151734Y56287I-2970J-3508*
G01*
G75*
G02X147138Y51691I-4596*
G01*
G75*
G02X142541Y56287J4596*
G01*
G75*
G02X144168Y59795I4596*
G01*
X138469*
G75*
G02X136869Y61115I0J1631*
G01*
X122565*
Y54634*
G75*
G02X121894Y53316I-1631J1*
G01*
Y53010*
X122424*
Y51115*
X123286*
Y53380*
X128345*
Y51115*
X168654*
Y61115*
X158736*
G37*
X32966Y66102D02*
G36*
X15036D01*
Y61115*
X24115*
G75*
G02X32567I4226*
G01*
X34115*
G75*
G02X35464Y64211I4227*
G01*
G75*
G02X34337Y64731I139J1782*
G01*
X32966Y66102*
G37*
X72276Y61115D02*
G36*
X72152Y61232D01*
G75*
G02X72119Y61265I670J719*
G01*
X69178Y64206*
X41223*
G75*
G02X42567Y61115I-2882J-3091*
G01*
X72276*
G37*
X104328Y66102D02*
G36*
X78267D01*
G75*
G02X78322Y65631I-2004J-472*
G01*
G75*
G02Y65630I-2374J0*
G01*
G75*
G02X74200I-2061*
G01*
G75*
G02Y65631I2374J0*
G01*
G75*
G02X74254Y66102I2059J0*
G01*
X72337*
X74633Y63806*
X77238Y61326*
G75*
G02X77427Y61115I-1231J-1295*
G01*
X104328*
Y66102*
G37*
X107698D02*
G36*
X107588D01*
Y61115*
X107698*
Y66102*
G37*
X136869Y61115D02*
G36*
G75*
G02X136839Y61425I1600J311D01*
G01*
Y66102*
X122565*
Y61115*
X136869*
G37*
X142915Y66102D02*
G36*
X140099D01*
Y63055*
X144414*
G75*
G02X142915Y66102I2724J3232*
G01*
G37*
X152915D02*
G36*
X151360D01*
G75*
G02X149861Y63055I-4222J185*
G01*
X154414*
G75*
G02X152915Y66102I2724J3232*
G01*
G37*
X161360D02*
G36*
G75*
G02X158766Y62387I-4222J185D01*
G01*
Y61425*
Y61425*
G75*
G02X158736Y61115I-1628J0*
G01*
X168654*
Y66102*
X161360*
G37*
X32966D02*
G36*
X31817Y67251D01*
G75*
G02X31467Y67745I1260J1264*
G01*
G75*
G02X24080Y69390I-3126J3370*
G01*
X15036*
Y66102*
X32966*
G37*
X74254D02*
G36*
G75*
G02X74631Y66891I2004J-471D01*
G01*
Y69390*
X42200*
G75*
G02X40938Y67780I-3859J1726*
G01*
X69919*
G75*
G02X71185Y67255J-1788*
G01*
X72337Y66102*
X74254*
G37*
X104328Y69390D02*
G36*
X77891D01*
Y66891*
G75*
G02X78267Y66102I-1628J-1261*
G01*
X104328*
Y69390*
G37*
X107698D02*
G36*
X107588D01*
Y66102*
X107698*
Y69390*
G37*
X132016D02*
G36*
X129138D01*
Y66171*
X124079*
Y69390*
X123217*
Y66541*
X122565*
Y66102*
X136839*
Y67140*
X132097*
Y68998*
G75*
G02X132016Y69390I1969J612*
G01*
G37*
X142915Y66102D02*
G36*
G75*
G02X142911Y66287I4226J183D01*
G01*
G75*
G02X144268Y69390I4226*
G01*
X140099*
Y66102*
X142915*
G37*
X152915D02*
G36*
G75*
G02X152911Y66287I4225J182D01*
G01*
G75*
G02X154268Y69390I4226*
G01*
X150007*
G75*
G02X151364Y66287I-2870J-3103*
G01*
G75*
G02X151360Y66102I-4229J-3*
G01*
X152915*
G37*
X161360D02*
G36*
X168654D01*
Y69390*
X160007*
G75*
G02X161364Y66287I-2870J-3103*
G01*
G75*
G02X161360Y66102I-4225J-3*
G01*
G37*
X24080Y69390D02*
G36*
G75*
G02X23744Y71115I4261J1725D01*
G01*
G75*
G02X31291Y74639I4596*
G01*
Y76287*
X15036*
Y69390*
X24080*
G37*
X40219Y76287D02*
G36*
X34866D01*
Y73520*
G75*
G02X42241Y72744I3475J-2406*
G01*
X76261*
G75*
G02X77891Y71115J-1630*
G01*
Y69390*
X104328*
Y74428*
G75*
G02X101707Y74347I-1360J1548*
G01*
X42834*
G75*
G02X41680Y74826I0J1629*
G01*
X40219Y76287*
G37*
X74631Y69390D02*
G36*
Y69485D01*
X42241*
G75*
G02X42200Y69390I-3901J1627*
G01*
X74631*
G37*
X107698D02*
G36*
Y76287D01*
X107588*
Y69390*
X107698*
G37*
X144268D02*
G36*
G75*
G02X144381Y69490I2870J-3106D01*
G01*
X141796*
G75*
G02X140166Y71120J1630*
G01*
Y72978*
X137794*
Y72691*
X134822*
G75*
G02X133310I-756J1917*
G01*
X132097*
Y74000*
G75*
G02X132005Y74608I1968J608*
G01*
G75*
G02X132097Y75216I2060*
G01*
Y76287*
X120651*
X119819Y75455*
Y72238*
X123217*
Y69390*
X124079*
Y72608*
X129138*
Y69390*
X132016*
G75*
G02X132004Y69608I2050J217*
G01*
G75*
G02X132097Y70219I2061*
G01*
Y71459*
X133157*
G75*
G02X134976I909J-1850*
G01*
X137794*
Y71238*
X138469*
G75*
G02X140099Y69608J-1630*
G01*
Y69390*
X144268*
G37*
X142911Y76287D02*
G36*
X137794D01*
Y76238*
X141796*
G75*
G02X142944Y75765J-1630*
G01*
G75*
G02X142911Y76287I4194J521*
G01*
G37*
X160007Y69390D02*
G36*
X168654D01*
Y76287*
X161364*
G75*
G02X152911I-4226*
G01*
X151364*
G75*
G02X148328Y72232I-4226*
G01*
G75*
G02X148766Y71120I-1192J-1111*
G01*
Y71120*
Y70187*
G75*
G02X150007Y69390I-1628J-3900*
G01*
X154268*
G75*
G02X157138Y70513I2870J-3103*
G01*
G75*
G02X160007Y69390J-4226*
G01*
G37*
X31291Y86287D02*
G36*
X15036D01*
Y76287*
X31291*
Y77590*
G75*
G02X23744Y81115I-2950J3524*
G01*
G75*
G02X31291Y84639I4596*
G01*
Y86287*
G37*
X40219Y76287D02*
G36*
X39465Y77041D01*
G75*
G02X34866Y78709I-1125J4074*
G01*
Y76287*
X40219*
G37*
X75341Y86287D02*
G36*
X48343D01*
G75*
G02X48369Y85961I-2035J-326*
G01*
Y85956*
X52724Y81601*
X83371*
G75*
G02X82789Y82620I1426J1491*
G01*
X79292Y86116*
G75*
G02X79445Y85337I-1910J-779*
G01*
G75*
G02X75323I-2061*
G01*
G75*
G02X75341Y85613I2101J-3*
G01*
Y86287*
G37*
X103106D02*
G36*
X95450D01*
G75*
G02X93037I-1206J1672*
G01*
X89980*
G75*
G02X90006Y85962I-2033J-326*
G01*
G75*
G02Y85961I-2374J0*
G01*
G75*
G02X85883I-2061*
G01*
G75*
G02Y85962I2374J0*
G01*
G75*
G02X85909Y86287I2059J-1*
G01*
X83731*
X84868Y85151*
G75*
G02X86856Y83091I-72J-2059*
G01*
G75*
G02X86219Y81601I-2061*
G01*
X95966*
G75*
G02X99289Y79971I1261J-1630*
G01*
G75*
G02X95966Y78341I-2061*
G01*
X52049*
G75*
G02X50895Y78820I0J1629*
G01*
X45732Y83982*
G75*
G02X44247Y85961I575J1979*
G01*
Y85961*
G75*
G02X44273Y86287I2061J-1*
G01*
X34866*
Y83520*
G75*
G02X42567Y81115I3475J-2406*
G01*
G75*
G02X42042Y79074I-4227*
G01*
X43509Y77607*
X101707*
G75*
G02X104328Y77526I1261J-1629*
G01*
Y85065*
X103106Y86287*
G37*
X107698Y76287D02*
G36*
Y86287D01*
X107494*
G75*
G02X107588Y85741I-1535J-547*
G01*
Y85740*
Y76287*
X107698*
G37*
X126041Y86287D02*
G36*
X117073D01*
Y77320*
X126041Y86287*
G37*
X151364Y76287D02*
G36*
X152911D01*
G75*
G02X161364I4226*
G01*
X168654*
Y86287*
X161364*
G75*
G02X152911I-4226*
G01*
X151364*
G75*
G02X142911I-4226*
G01*
X130651*
X120651Y76287*
X132097*
Y77010*
X137794*
Y76287*
X142911*
Y76287*
G75*
G02X147138Y80513I4226*
G01*
G75*
G02X151364Y76287J-4226*
G01*
G37*
X23771Y101606D02*
G36*
X15036D01*
Y86287*
X31291*
Y87590*
G75*
G02X23744Y91115I-2950J3524*
G01*
G75*
G02X31291Y94639I4596*
G01*
Y97590*
G75*
G02X23744Y101115I-2950J3524*
G01*
G75*
G02X23771Y101606I4597*
G01*
G37*
X75341D02*
G36*
X42539D01*
G75*
G02X42567Y101115I-4197J-492*
G01*
G75*
G02X38341Y96888I-4226*
G01*
G75*
G02X34866Y98709J4226*
G01*
Y93520*
G75*
G02X42567Y91115I3475J-2406*
G01*
G75*
G02X34866Y88709I-4226*
G01*
Y86287*
X44273*
G75*
G02X48343I2035J-326*
G01*
X75341*
Y101606*
G37*
X85909Y86287D02*
G36*
G75*
G02X86315Y87223I2033J-324D01*
G01*
Y92073*
X81968Y96420*
G75*
G02X81510Y97316I1152J1154*
G01*
Y88509*
X83731Y86287*
X85909*
G37*
X89357Y101606D02*
G36*
X84749D01*
Y98249*
X89096Y93902*
G75*
G02X89357Y93561I-1148J-1151*
G01*
Y101606*
G37*
X93037Y86287D02*
G36*
G75*
G02X92183Y87958I1206J1671D01*
G01*
G75*
G02Y87959I2374J0*
G01*
G75*
G02X92614Y89220I2059*
G01*
Y89687*
G75*
G02X89574Y89453I-1626J1266*
G01*
Y87223*
G75*
G02X89980Y86287I-1628J-1260*
G01*
X93037*
G37*
X94978Y101606D02*
G36*
X92617D01*
Y98674*
G75*
G02X93093Y99720I1624J-106*
G01*
X94978Y101606*
G37*
X103106Y86287D02*
G36*
X96853Y92540D01*
G75*
G02X95874Y92785I-6J2062*
G01*
Y89220*
G75*
G02X96305Y87959I-1628J-1261*
G01*
G75*
G02Y87958I-2374J0*
G01*
G75*
G02X95450Y86287I-2061*
G01*
X103106*
G37*
X113789Y101606D02*
G36*
X99589D01*
X95874Y97891*
Y96418*
G75*
G02X98827Y95177I974J-1816*
G01*
X107109Y86894*
G75*
G02X107494Y86287I-1150J-1153*
G01*
X107698*
Y95586*
G75*
G02X107267Y96848I1630J1261*
G01*
G75*
G02X110843Y98245I2061*
G01*
G75*
G02X111297Y99114I1604J-285*
G01*
X113789Y101606*
G37*
X125260D02*
G36*
X118400D01*
X114078Y97285*
Y90374*
G75*
G02X114292Y90638I1352J-879*
G01*
X125260Y101606*
G37*
X145970D02*
G36*
X130651Y86287D01*
X142911*
G75*
G02X151364I4226*
G01*
X152911*
G75*
G02X161364I4226*
G01*
X168654*
Y101606*
X145970*
G37*
X129870D02*
G36*
X117073Y88809D01*
Y86287*
X126041*
X141360Y101606*
X129870*
G37*
X34153Y110547D02*
G36*
X32529D01*
G75*
G02X24153I-4188J567*
G01*
X15036*
Y101606*
X23771*
G75*
G02X31335Y104602I4570J-492*
G01*
G75*
G02X31815Y105475I1746J-393*
G01*
X33812Y107472*
G75*
G02X35079Y107995I1263J-1262*
G01*
X35489*
G75*
G02X34153Y110547I2852J3119*
G01*
G37*
X69837D02*
G36*
X55207D01*
Y107329*
X50148*
Y110547*
X49286*
Y107699*
X47076*
X44324Y104946*
G75*
G02X43057Y104420I-1266J1262*
G01*
X40974*
G75*
G02X42539Y101606I-2633J-3306*
G01*
X75341*
Y105043*
X69837Y110547*
G37*
X89357D02*
G36*
X84749D01*
Y101606*
X89357*
Y110547*
G37*
X103919D02*
G36*
X92617D01*
Y101606*
X94978*
X103919Y110547*
G37*
X122730D02*
G36*
X108530D01*
X99589Y101606*
X113789*
X122730Y110547*
G37*
X134201D02*
G36*
X127341D01*
X118400Y101606*
X125260*
X134201Y110547*
G37*
X150571D02*
G36*
X148404Y108380D01*
Y104716*
Y104715*
G75*
G02X147926Y103562I-1629*
G01*
X145970Y101606*
X168654*
Y110547*
X150571*
G37*
X145961D02*
G36*
X138811D01*
X129870Y101606*
X141360*
X145144Y105391*
Y109056*
Y109056*
G75*
G02X145623Y110209I1629*
G01*
X145961Y110547*
G37*
X69837D02*
G36*
X59269Y121115D01*
X42567*
G75*
G02X34115I-4226*
G01*
X32937*
G75*
G02X23744I-4596*
G01*
X15036*
Y110547*
X24153*
G75*
G02X24115Y111115I4188J567*
G01*
G75*
G02X32567I4226*
G01*
G75*
G02X32529Y110547I-4226J0*
G01*
X34153*
G75*
G02X34115Y111115I4188J570*
G01*
G75*
G02X38341Y115341I4226*
G01*
G75*
G02X42431Y112178J-4226*
G01*
X44967*
Y113396*
X49286*
Y110547*
X50148*
Y113766*
X55207*
Y110547*
X69837*
G37*
X89357Y121115D02*
G36*
X79638D01*
X84270Y116482*
G75*
G02X84749Y115328I-1150J-1154*
G01*
Y115328*
Y110547*
X89357*
Y121115*
G37*
X107590D02*
G36*
X92617D01*
Y110547*
X103919*
X107590Y114218*
Y121115*
G37*
X124921D02*
G36*
X110850D01*
Y113543*
Y113543*
G75*
G02X110371Y112389I-1629*
G01*
X108530Y110547*
X122730*
X124921Y112738*
Y121115*
G37*
X144769D02*
G36*
X128181D01*
Y112063*
Y112063*
G75*
G02X127702Y110909I-1629*
G01*
X127341Y110547*
X134201*
X144769Y121115*
G37*
X156528D02*
G36*
X149379D01*
X138811Y110547*
X145961*
X156528Y121115*
G37*
X161139D02*
G36*
X150571Y110547D01*
X168654*
Y121115*
X161139*
G37*
X59269D02*
G36*
X49269Y131115D01*
X42567*
G75*
G02X34115I-4226*
G01*
X32937*
G75*
G02X23744I-4596*
G01*
X15036*
Y121115*
X23744*
G75*
G02X32937I4596*
G01*
X34115*
G75*
G02X42567I4226*
G01*
X59269*
G37*
X89357D02*
G36*
Y123321D01*
X81564Y131115*
X69638*
X79638Y121115*
X89357*
G37*
X107590Y131115D02*
G36*
X86174D01*
X92139Y125150*
G75*
G02X92617Y123996I-1150J-1154*
G01*
Y123996*
Y121115*
X107590*
Y131115*
G37*
X124921D02*
G36*
X110850D01*
Y121115*
X124921*
Y131115*
G37*
X152168D02*
G36*
X128181D01*
Y121115*
X144769*
X152168Y128514*
Y131115*
G37*
X158992D02*
G36*
X155428D01*
Y127839*
Y127838*
G75*
G02X154949Y126685I-1629*
G01*
X149379Y121115*
X156528*
X158992Y123578*
Y131115*
G37*
X162252D02*
G36*
Y122903D01*
Y122903*
G75*
G02X161773Y121749I-1629*
G01*
X161139Y121115*
X168654*
Y131115*
X162252*
G37*
X49269D02*
G36*
X48241Y132143D01*
G75*
G02X47715Y133409I1262J1266*
G01*
Y151646*
X15036*
Y131115*
X23744*
G75*
G02X32937I4596*
G01*
X34115*
G75*
G02X42567I4226*
G01*
X49269*
G37*
X81564D02*
G36*
X77654Y135024D01*
G75*
G02X77176Y136178I1150J1154*
G01*
Y136178*
Y150904*
X76347*
Y151646*
X72400*
Y150533*
X66743*
Y151646*
X64614*
G75*
G02X64615Y151602I-4227J-60*
G01*
G75*
G02X56419Y150151I-4226J0*
G01*
Y144333*
X69638Y131115*
X81564*
G37*
X107590D02*
G36*
Y137194D01*
X101898Y142887*
G75*
G02X101419Y144040I1150J1154*
G01*
Y144041*
Y151646*
X96642*
Y151281*
X90985*
Y151646*
X90520*
G75*
G02X82067I-4226*
G01*
X81264*
Y150904*
X80435*
Y136853*
X86174Y131115*
X107590*
G37*
X124093Y151646D02*
G36*
X120144D01*
Y150657*
X115352*
G75*
G02X106989Y151521I-4137J864*
G01*
Y151521*
G75*
G02X106991Y151646I4224J-5*
G01*
X104679*
Y144716*
X110371Y139023*
G75*
G02X110850Y137870I-1150J-1154*
G01*
Y137869*
Y131115*
X124921*
Y151028*
X124093*
Y151646*
G37*
X151339D02*
G36*
X147392D01*
Y151033*
X141735*
Y151646*
X141438*
G75*
G02X141445Y151396I-4220J-252*
G01*
G75*
G02X132993I-4226*
G01*
G75*
G02X133000Y151646I4228J-2*
G01*
X129010*
Y151028*
X128181*
Y131115*
X152168*
Y151404*
X151339*
Y151646*
G37*
X158992D02*
G36*
X156256D01*
Y151404*
X155428*
Y131115*
X158992*
Y151646*
G37*
X162252D02*
G36*
Y131115D01*
X168654*
Y151646*
X162252*
G37*
X47715Y161646D02*
G36*
X15036D01*
Y151646*
X47715*
Y161646*
G37*
X158992Y151646D02*
G36*
Y156963D01*
X154310Y161646*
X152607*
G75*
G02Y161638I-3456J-4*
G01*
Y161638*
Y161396*
Y161396*
G75*
G02X151685Y159077I-3379*
G01*
Y158844*
X151443*
G75*
G02X149227Y158016I-2216J2551*
G01*
X139756*
G75*
G02X132993Y161396I-2537J3380*
G01*
Y161396*
Y161396*
G75*
G02X133000Y161646I4224J-2*
G01*
X125358*
G75*
G02X125360Y161521I-3380J-126*
G01*
Y161521*
Y161263*
Y161263*
G75*
G02X124439Y158944I-3379*
G01*
Y158470*
X123884*
G75*
G02X120686Y158141I-1904J2793*
G01*
X113752*
G75*
G02X106989Y161520I-2537J3380*
G01*
Y161521*
Y161521*
G75*
G02X106991Y161646I4221J-5*
G01*
X101849*
G75*
G02X100935Y159567I-3371J242*
G01*
Y159093*
X100379*
G75*
G02X98478Y158507I-1901J2796*
G01*
X89125*
G75*
G02X82067Y161646I-2831J3138*
G01*
X77614*
G75*
G02X77615Y161603I-3391J-53*
G01*
Y161602*
Y161139*
Y161138*
G75*
G02X76693Y158819I-3379*
G01*
Y158344*
X76137*
G75*
G02X72526Y158222I-1902J2794*
G01*
X62926*
G75*
G02X56419Y160151I-2537J3380*
G01*
Y153054*
G75*
G02X64614Y151646I3969J-1452*
G01*
X66743*
Y156860*
X72400*
Y151646*
X76347*
Y156490*
X81264*
Y151646*
X82067*
G75*
G02X90520I4226*
G01*
X90985*
Y157608*
X96642*
Y151646*
X101419*
Y151652*
X100589*
Y157238*
X105506*
Y151652*
X104679*
Y151646*
X106991*
G75*
G02X114487Y154196I4224J-124*
G01*
Y156984*
X120144*
Y151646*
X124093*
Y156614*
X129010*
Y151646*
X133000*
G75*
G02X141438I4219J-250*
G01*
X141735*
Y157360*
X147392*
Y151646*
X151339*
Y156990*
X156256*
Y151646*
X158992*
G37*
X162252D02*
G36*
X168654D01*
Y161646*
X158920*
X161773Y158793*
G75*
G02X162252Y157639I-1150J-1154*
G01*
Y157639*
Y151646*
G37*
X75620Y183853D02*
G36*
X71674D01*
Y183238*
X66016*
Y183853*
X64319*
G75*
G02X55867I-4226*
G01*
X15036*
Y161646*
X47715*
Y167483*
G75*
G02X48233Y168741I1788J0*
G01*
X57243Y177831*
G75*
G02X58514Y178360I1270J-1259*
G01*
X71413*
X76293Y183240*
Y183608*
X75620*
Y183853*
G37*
X150502D02*
G36*
X146556D01*
Y183116*
X141216*
G75*
G02X132808Y183728I-4182J612*
G01*
G75*
G02X132810Y183853I4227J-4*
G01*
X127884*
Y182332*
Y182332*
G75*
G02X127406Y181178I-1629*
G01*
X116107Y169880*
G75*
G02X114954Y169402I-1154J1150*
G01*
X63325*
X59694Y165771*
G75*
G02X60388Y165829I698J-4208*
G01*
G75*
G02X62926Y164982I-1J-4229*
G01*
X74235*
G75*
G02X76684Y163931I-1J-3381*
G01*
X76693*
Y163922*
G75*
G02X77614Y161646I-2457J-2319*
G01*
X82067*
G75*
G02X88472Y165267I4226J0*
G01*
X98478*
G75*
G02X100383Y164679J-3380*
G01*
X100935*
Y164208*
G75*
G02X101858Y161887I-2457J-2320*
G01*
G75*
G02X101849Y161646I-3380*
G01*
X106991*
G75*
G02X113752Y164901I4224J-124*
G01*
X121980*
G75*
G02X124215Y164057I-1J-3383*
G01*
X124439*
Y163840*
G75*
G02X125358Y161646I-2458J-2319*
G01*
X133000*
G75*
G02X139756Y164776I4219J-249*
G01*
X147972*
G75*
G02X151130Y164431I1255J-3138*
G01*
X151582*
G75*
G02X151332Y165298I1381J868*
G01*
Y183486*
X150502*
Y183853*
G37*
X99585D02*
G36*
X95636D01*
Y183364*
X90313*
G75*
G02X81888Y183853I-4198J489*
G01*
X80538*
Y183608*
X79868*
Y182499*
G75*
G02X79342Y181233I-1788*
G01*
X73477Y175368*
X92937*
X100413Y182844*
Y183734*
X99585*
Y183853*
G37*
X124624D02*
G36*
X119849D01*
Y183738*
X115019*
G75*
G02X106611Y183853I-4198J489*
G01*
X104502*
Y183734*
X103672*
Y182169*
Y182168*
G75*
G02X103194Y181015I-1629*
G01*
X94841Y172661*
X114278*
X124624Y183007*
Y183853*
G37*
X154310Y161646D02*
G36*
X151811Y164144D01*
G75*
G02X151685Y164285I1073J1082*
G01*
Y163957*
G75*
G02X152607Y161646I-2457J-2319*
G01*
X154310*
G37*
X158920D02*
G36*
X168654D01*
Y183853*
X155420*
Y183486*
X154592*
Y165974*
X158920Y161646*
G37*
X155420Y183853D02*
G36*
X168654D01*
Y193853*
X167997*
G75*
G02X156165I-5916J4728*
G01*
X151926*
G75*
G02X151929Y193720I-3536J-129*
G01*
G75*
G02X150849Y191176I-3538*
G01*
Y190927*
X150562*
G75*
G02X148391Y190183I-2171J2796*
G01*
X139335*
G75*
G02X132808Y193728I-2301J3545*
G01*
Y193729*
G75*
G02X132810Y193853I4224J-5*
G01*
X125187*
G75*
G02X124142Y191801I-3503J491*
G01*
Y191551*
X123854*
G75*
G02X121683Y190807I-2171J2796*
G01*
X113304*
G75*
G02X106611Y193853I-2482J3420*
G01*
X101007*
G75*
G02X99931Y191428I-3535J117*
G01*
Y191175*
X99640*
G75*
G02X97472Y190433I-2169J2798*
G01*
X88597*
G75*
G02X81888Y193853I-2483J3420*
G01*
Y193853*
X77047*
G75*
G02Y193845I-3552J-4*
G01*
G75*
G02X75967Y191301I-3538*
G01*
Y191053*
X75681*
G75*
G02X73509Y190308I-2171J2791*
G01*
X62394*
G75*
G02X55867Y193853I-2301J3545*
G01*
X27507*
G75*
G02X15676I-5916J4728*
G01*
X15036*
Y183853*
X55867*
G75*
G02X64319I4226*
G01*
X66016*
Y189565*
X71674*
Y183853*
X75620*
Y189195*
X80538*
Y183853*
X81888*
G75*
G02X89979Y185565I4226J0*
G01*
Y189691*
X95636*
Y183853*
X99585*
Y189321*
X104502*
Y183853*
X106611*
G75*
G02X106595Y184228I4210J374*
G01*
Y184228*
G75*
G02X114191Y186778I4226*
G01*
Y190065*
X119849*
Y183853*
X124624*
Y184108*
X123796*
Y189695*
X128713*
Y184108*
X127884*
Y183853*
X132810*
G75*
G02X140898Y185441I4224J-125*
G01*
Y189443*
X146556*
Y183853*
X150502*
Y189073*
X155420*
Y183853*
G37*
X15676Y193853D02*
G36*
G75*
G02X15036Y194789I5915J4729D01*
G01*
Y193853*
X15676*
G37*
X158320Y205154D02*
G36*
X25352D01*
G75*
G02X29164Y198581I-3761J-6573*
G01*
G75*
G02X27507Y193853I-7573J0*
G01*
X55867*
Y193854*
G75*
G02X62418Y197383I4226*
G01*
X73509*
G75*
G02X75678Y196640J-3538*
G01*
X75967*
Y196390*
G75*
G02X77047Y193853I-2458J-2544*
G01*
X81888*
G75*
G02X88238Y197507I4226*
G01*
X97472*
G75*
G02X99644Y196762I-1J-3539*
G01*
X99931*
Y196512*
G75*
G02X101009Y193970I-2460J-2542*
G01*
G75*
G02X101007Y193853I-3538J1*
G01*
X106611*
G75*
G02X106595Y194227I4208J373*
G01*
Y194228*
G75*
G02X112944Y197882I4226*
G01*
X121683*
G75*
G02X123854Y197138I-1J-3540*
G01*
X124142*
Y196888*
G75*
G02X125221Y194344I-2459J-2543*
G01*
G75*
G02X125187Y193853I-3538J0*
G01*
X132810*
G75*
G02X139359Y197258I4224J-124*
G01*
X148391*
G75*
G02X150562Y196514I-1J-3540*
G01*
X150849*
Y196265*
G75*
G02X151926Y193853I-2458J-2544*
G01*
X156165*
G75*
G02X154508Y198581I5916J4727*
G01*
G75*
G02X158320Y205154I7573*
G01*
G37*
X168654Y194820D02*
G36*
G75*
G02X167997Y193853I-6574J3762D01*
G01*
X168654*
Y194820*
G37*
X326384Y195295D02*
G75*
G02X311989Y198581I-6823J3286D01*
G01*
G75*
G02X316276Y205404I7573*
G01*
X182357*
G75*
G02X186644Y198581I-3286J-6823*
G01*
G75*
G02X172266Y195259I-7573*
G01*
Y22060*
G75*
G02X186644Y18738I6806J-3322*
G01*
G75*
G02X182357Y11915I-7573*
G01*
X316276*
G75*
G02X311989Y18738I3286J6823*
G01*
G75*
G02X326384Y22024I7573*
G01*
Y195295*
X319254Y158793D02*
G75*
G02X319732Y157639I-1151J-1154D01*
G01*
Y122903*
G75*
G02X319254Y121749I-1630*
G01*
X305885Y108380*
Y104716*
G75*
G02X305406Y103562I-1630*
G01*
X277299Y75455*
Y72238*
X280697*
Y66541*
X280045*
Y54634*
G75*
G02X279374Y53316I-1630*
G01*
Y53010*
X279904*
Y47917*
X280766*
Y53380*
X285825*
Y47917*
X300719*
G75*
G02X308518I3900J-1630*
G01*
X310719*
G75*
G02X318844Y46287I3900J-1630*
G01*
G75*
G02X310719Y44657I-4226*
G01*
X308518*
G75*
G02X300719I-3900J1630*
G01*
X279473*
G75*
G02X279321Y44068I-1781J144*
G01*
Y41941*
X281327*
Y38374*
X293410*
Y28000*
X281327*
Y24433*
X279479*
Y19215*
X279898*
Y13518*
X275579*
Y14106*
X260457*
G75*
G02X258827Y15736J1630*
G01*
Y23304*
G75*
G02X258396Y24565I1630J1261*
G01*
G75*
G02X262518I2061*
G01*
G75*
G02X262087Y23304I-2061*
G01*
Y17366*
X275579*
Y19215*
X275904*
Y24433*
X274056*
Y29343*
X279296*
Y30362*
X273685*
Y36012*
X279296*
Y37031*
X274056*
Y41941*
X276061*
Y44068*
G75*
G02X275904Y44801I1630J733*
G01*
Y47313*
X275585*
Y53010*
X276114*
Y54524*
G75*
G02X274554Y54803I-445J2013*
G01*
Y53031*
G75*
G02X273614Y51555I-1630*
G01*
G75*
G02X270471Y54193I-1439J1476*
G01*
G75*
G02X268438Y54757I-543J1988*
G01*
Y31464*
G75*
G02X268869Y30203I-1630J-1261*
G01*
G75*
G02X264747I-2061*
G01*
G75*
G02X265178Y31464I2061*
G01*
Y33216*
G75*
G02X261378Y34321I-1740J1105*
G01*
G75*
G02X261809Y35583I2061*
G01*
Y74428*
G75*
G02X259187Y74347I-1360J1549*
G01*
X200314*
G75*
G02X199160Y74826J1630*
G01*
X196946Y77041*
G75*
G02X192346Y78709I-1124J4074*
G01*
Y73520*
G75*
G02X199721Y72744I3475J-2406*
G01*
X233741*
G75*
G02X235371Y71115J-1630*
G01*
Y66891*
G75*
G02X235802Y65630I-1630J-1261*
G01*
G75*
G02X231680I-2061*
G01*
G75*
G02X232111Y66891I2061*
G01*
Y69485*
X199721*
G75*
G02X198419Y67780I-3900J1630*
G01*
X227399*
G75*
G02X228665Y67255J-1787*
G01*
X232113Y63806*
X234718Y61326*
G75*
G02X235243Y60361I-1233J-1295*
G01*
G75*
G02X235548Y59282I-1756J-1079*
G01*
G75*
G02X231424I-2062*
G01*
G75*
G02X231437Y59514I2063J1*
G01*
X229632Y61232*
G75*
G02X229599Y61265I1251J1315*
G01*
X226658Y64206*
X198704*
G75*
G02X195821Y56888I-2882J-3091*
G01*
G75*
G02X192944Y64211J4226*
G01*
G75*
G02X191817Y64731I139J1782*
G01*
X189297Y67251*
G75*
G02X188947Y67745I1262J1266*
G01*
G75*
G02X181225Y71115I-3126J3370*
G01*
G75*
G02X188772Y74639I4596*
G01*
Y77590*
G75*
G02X181225Y81115I-2950J3524*
G01*
G75*
G02X188772Y84639I4596*
G01*
Y87590*
G75*
G02X181225Y91115I-2950J3524*
G01*
G75*
G02X188772Y94639I4596*
G01*
Y97590*
G75*
G02X181225Y101115I-2950J3524*
G01*
G75*
G02X188815Y104602I4596*
G01*
G75*
G02X189295Y105475I1744J-392*
G01*
X191292Y107472*
G75*
G02X192559Y107995I1264J-1264*
G01*
X192970*
G75*
G02X195821Y115341I2852J3119*
G01*
G75*
G02X199912Y112178J-4226*
G01*
X202447*
Y113396*
X206766*
Y107699*
X204557*
X201804Y104946*
G75*
G02X200538Y104420I-1266J1262*
G01*
X198454*
G75*
G02X195821Y96888I-2633J-3306*
G01*
G75*
G02X192346Y98709J4226*
G01*
Y93520*
G75*
G02X200048Y91115I3475J-2406*
G01*
G75*
G02X192346Y88709I-4226*
G01*
Y83520*
G75*
G02X199522Y79074I3475J-2406*
G01*
X200989Y77607*
X259187*
G75*
G02X261809Y77526I1261J-1630*
G01*
Y85065*
X254333Y92540*
G75*
G02X253354Y92785I-6J2061*
G01*
Y89220*
G75*
G02X253785Y87958I-1630J-1261*
G01*
G75*
G02X249663I-2061*
G01*
G75*
G02X250094Y89220I2061*
G01*
Y89687*
G75*
G02X247055Y89453I-1626J1266*
G01*
Y87223*
G75*
G02X247486Y85961I-1630J-1261*
G01*
G75*
G02X243364I-2061*
G01*
G75*
G02X243795Y87223I2061*
G01*
Y92073*
X239448Y96420*
G75*
G02X238990Y97316I1151J1154*
G01*
Y88509*
X242348Y85151*
G75*
G02X243699Y81601I-73J-2060*
G01*
X253446*
G75*
G02X256769Y79971I1261J-1630*
G01*
G75*
G02X253446Y78341I-2061*
G01*
X209529*
G75*
G02X208375Y78820J1630*
G01*
X203213Y83982*
G75*
G02X201727Y85961I576J1979*
G01*
G75*
G02X205849I2061*
G01*
G75*
G02Y85956I-2051J-3*
G01*
X210204Y81601*
X240852*
G75*
G02X240269Y82620I1424J1490*
G01*
X236772Y86116*
G75*
G02X236925Y85337I-1908J-779*
G01*
G75*
G02X232803I-2061*
G01*
G75*
G02X232822Y85613I2061*
G01*
Y105043*
X205721Y132143*
G75*
G02X205195Y133409I1262J1266*
G01*
Y167483*
G75*
G02X205713Y168741I1787J0*
G01*
X214723Y177831*
G75*
G02X215994Y178360I1269J-1258*
G01*
X228894*
X233773Y183240*
Y183608*
X233101*
Y189195*
X238018*
Y183608*
X237348*
Y182499*
G75*
G02X236822Y181233I-1787*
G01*
X230957Y175368*
X250417*
X257893Y182844*
Y183734*
X257065*
Y189321*
X261983*
Y183734*
X261153*
Y182169*
G75*
G02X260674Y181015I-1630*
G01*
X252321Y172661*
X271759*
X282105Y183007*
Y184108*
X281276*
Y189695*
X286193*
Y184108*
X285365*
Y182332*
G75*
G02X284886Y181178I-1630*
G01*
X273588Y169880*
G75*
G02X272434Y169402I-1154J1151*
G01*
X220805*
X217175Y165771*
G75*
G02X217869Y165829I695J-4170*
G01*
G75*
G02X220406Y164982J-4226*
G01*
X231715*
G75*
G02X234165Y163931J-3380*
G01*
X234174*
Y163922*
G75*
G02X235095Y161602I-2459J-2319*
G01*
Y161139*
G75*
G02X234174Y158819I-3380*
G01*
Y158344*
X233617*
G75*
G02X230006Y158222I-1902J2794*
G01*
X220406*
G75*
G02X213899Y160151I-2537J3380*
G01*
Y153054*
G75*
G02X222095Y151602I3969J-1452*
G01*
G75*
G02X213899Y150151I-4226*
G01*
Y144333*
X241751Y116482*
G75*
G02X242230Y115328I-1151J-1154*
G01*
Y98249*
X246576Y93902*
G75*
G02X246838Y93561I-1151J-1154*
G01*
Y123321*
X235135Y135024*
G75*
G02X234656Y136178I1151J1154*
G01*
Y150904*
X233827*
Y156490*
X238744*
Y150904*
X237916*
Y136853*
X249619Y125150*
G75*
G02X250098Y123996I-1151J-1154*
G01*
Y98674*
G75*
G02X250573Y99720I1626J-107*
G01*
X265070Y114218*
Y137194*
X259378Y142887*
G75*
G02X258899Y144041I1151J1154*
G01*
Y151652*
X258069*
Y157238*
X262987*
Y151652*
X262159*
Y144716*
X267852Y139023*
G75*
G02X268330Y137869I-1151J-1154*
G01*
Y113543*
G75*
G02X267852Y112389I-1630*
G01*
X253354Y97891*
Y96418*
G75*
G02X256307Y95177I974J-1817*
G01*
X264590Y86894*
G75*
G02X265069Y85740I-1151J-1154*
G01*
Y35583*
G75*
G02X265178Y35426I-1629J-1261*
G01*
Y95586*
G75*
G02X268324Y98245I1630J1261*
G01*
G75*
G02X268777Y99114I1605J-285*
G01*
X282402Y112738*
Y151028*
X281573*
Y156614*
X286491*
Y151028*
X285661*
Y112063*
G75*
G02X285183Y110909I-1630*
G01*
X271558Y97285*
Y90374*
G75*
G02X271772Y90638I1366J-890*
G01*
X309648Y128514*
Y151404*
X308819*
Y156990*
X313737*
Y151404*
X312908*
Y127839*
G75*
G02X312429Y126685I-1630*
G01*
X274554Y88809*
Y77320*
X302625Y105391*
Y109056*
G75*
G02X303104Y110209I1630*
G01*
X316472Y123578*
Y156963*
X309291Y164144*
G75*
G02X309166Y164285I1153J1154*
G01*
Y163957*
G75*
G02X310087Y161638I-2459J-2319*
G01*
Y161396*
G75*
G02X309166Y159077I-3380*
G01*
Y158844*
X308924*
G75*
G02X306707Y158016I-2217J2552*
G01*
X297237*
G75*
G02X290473Y161396I-2537J3380*
G01*
G75*
G02X297237Y164776I4226*
G01*
X305452*
G75*
G02X308610Y164431I1255J-3138*
G01*
X309063*
G75*
G02X308813Y165298I1380J867*
G01*
Y183486*
X307983*
Y189073*
X312900*
Y183486*
X312072*
Y165974*
X319254Y158793*
X207628Y113766D02*
X212687D01*
Y107329*
X207628*
Y113766*
X239548Y151646D02*
G75*
G02X248000I4226D01*
G01*
G75*
G02X239548I-4226*
G01*
X258416Y164208D02*
G75*
G02Y159567I-2457J-2320D01*
G01*
Y159093*
X257859*
G75*
G02X255958Y158507I-1901J2795*
G01*
X246605*
G75*
G02X239548Y161646I-2831J3138*
G01*
G75*
G02X245952Y165267I4226*
G01*
X255958*
G75*
G02X257863Y164679J-3380*
G01*
X258416*
Y164208*
X248465Y157608D02*
X254122D01*
Y151281*
X248465*
Y157608*
X271967Y156984D02*
X277624D01*
Y150657*
X272833*
G75*
G02X264469Y151521I-4137J863*
G01*
G75*
G02X271967Y154196I4226*
G01*
Y156984*
X281920Y163840D02*
G75*
G02X282841Y161521I-2459J-2319D01*
G01*
Y161263*
G75*
G02X281920Y158944I-3380*
G01*
Y158470*
X281364*
G75*
G02X278167Y158141I-1904J2793*
G01*
X271233*
G75*
G02X264469Y161521I-2537J3380*
G01*
G75*
G02X271233Y164901I4226*
G01*
X279461*
G75*
G02X281695Y164057J-3380*
G01*
X281920*
Y163840*
X224223Y156860D02*
X229880D01*
Y150533*
X224223*
Y156860*
X299215Y157360D02*
X304872D01*
Y151033*
X299215*
Y157360*
X316052Y60654D02*
G75*
G02X314618Y51691I-1434J-4367D01*
G01*
G75*
G02X311648Y59795J4596*
G01*
X307588*
G75*
G02X304618Y51691I-2970J-3508*
G01*
G75*
G02X301648Y59795J4596*
G01*
X295949*
G75*
G02X294319Y61425J1630*
G01*
Y67140*
X289577*
Y68998*
G75*
G02Y70219I1969J611*
G01*
Y71459*
X290637*
G75*
G02X292456I909J-1850*
G01*
X295274*
Y71238*
X295949*
G75*
G02X297579Y69608J-1630*
G01*
Y63055*
X301894*
G75*
G02X301861Y69490I2724J3232*
G01*
X299276*
G75*
G02X297646Y71120J1630*
G01*
Y72978*
X295274*
Y72691*
X292303*
G75*
G02X290791I-756J1917*
G01*
X289577*
Y74000*
G75*
G02Y75216I1969J608*
G01*
Y77010*
X295274*
Y76238*
X299276*
G75*
G02X300424Y75765J-1630*
G01*
G75*
G02X304618Y80513I4194J522*
G01*
G75*
G02X305809Y72232J-4226*
G01*
G75*
G02X306246Y71120I-1192J-1111*
G01*
Y70187*
G75*
G02X307342Y63055I-1628J-3900*
G01*
X311894*
G75*
G02X314618Y70513I2724J3232*
G01*
G75*
G02X316246Y62387J-4226*
G01*
Y61425*
G75*
G02X316052Y60654I-1630*
G01*
X310392Y76287D02*
G75*
G02X318844I4226D01*
G01*
G75*
G02X310392I-4226*
G01*
Y86287D02*
G75*
G02X318844I4226D01*
G01*
G75*
G02X310392I-4226*
G01*
X281559Y72608D02*
X286619D01*
Y66171*
X281559*
Y72608*
X300392Y86287D02*
G75*
G02X308844I4226D01*
G01*
G75*
G02X300392I-4226*
G01*
X280760Y19585D02*
X285819D01*
Y13148*
X280760*
Y19585*
X191225Y51115D02*
G75*
G02X200418I4596D01*
G01*
G75*
G02X191225I-4596*
G01*
X224112Y36950D02*
G75*
G02X227435Y35320I1261J-1630D01*
G01*
G75*
G02X224112Y33690I-2061*
G01*
X183911*
G75*
G02X182757Y34169J1630*
G01*
X179299Y37626*
G75*
G02X178820Y38780I1151J1154*
G01*
Y45928*
G75*
G02X179299Y47082I1630*
G01*
X181859Y49643*
G75*
G02X185821Y55341I3962J1472*
G01*
G75*
G02Y46888J-4226*
G01*
G75*
G02X184087Y47260J4226*
G01*
X182080Y45253*
Y43080*
G75*
G02X190048Y41115I3741J-1966*
G01*
G75*
G02X186539Y36950I-4226*
G01*
X195104*
G75*
G02X195821Y45341I718J4165*
G01*
G75*
G02X196539Y36950J-4226*
G01*
X224112*
X181595Y61115D02*
G75*
G02X190048I4226D01*
G01*
G75*
G02X181595I-4226*
G01*
X191595Y121115D02*
G75*
G02X200048I4226D01*
G01*
G75*
G02X191595I-4226*
G01*
Y131115D02*
G75*
G02X200048I4226D01*
G01*
G75*
G02X191595I-4226*
G01*
X213347Y183853D02*
G75*
G02X221800I4226D01*
G01*
G75*
G02X213347I-4226*
G01*
X233447Y196390D02*
G75*
G02Y191301I-2457J-2544D01*
G01*
Y191053*
X233162*
G75*
G02X230990Y190308I-2172J2793*
G01*
X219874*
G75*
G02X213347Y193853I-2301J3545*
G01*
G75*
G02X219898Y197383I4226*
G01*
X230990*
G75*
G02X233159Y196640J-3537*
G01*
X233447*
Y196390*
X223496Y189565D02*
X229154D01*
Y183238*
X223496*
Y189565*
X247459Y189691D02*
X253117D01*
Y183364*
X247793*
G75*
G02X239369Y183853I-4198J489*
G01*
G75*
G02X247459Y185565I4226*
G01*
Y189691*
X257412Y196512D02*
G75*
G02Y191428I-2460J-2542D01*
G01*
Y191175*
X257120*
G75*
G02X254952Y190433I-2169J2795*
G01*
X246077*
G75*
G02X239369Y193853I-2482J3420*
G01*
G75*
G02X245718Y197507I4226*
G01*
X254952*
G75*
G02X257124Y196762J-3537*
G01*
X257412*
Y196512*
X271672Y190065D02*
X277329D01*
Y183738*
X272500*
G75*
G02X264075Y184228I-4198J489*
G01*
G75*
G02X271672Y186778I4226*
G01*
Y190065*
X281622Y196888D02*
G75*
G02Y191801I-2459J-2543D01*
G01*
Y191551*
X281334*
G75*
G02X279164Y190807I-2170J2794*
G01*
X270784*
G75*
G02X264075Y194228I-2482J3420*
G01*
G75*
G02X270425Y197882I4226*
G01*
X279164*
G75*
G02X281334Y197138J-3538*
G01*
X281622*
Y196888*
X298378Y189443D02*
X304036D01*
Y183116*
X298696*
G75*
G02X290288Y183728I-4182J612*
G01*
G75*
G02X298378Y185441I4226*
G01*
Y189443*
X290473Y151396D02*
G75*
G02X298926I4226D01*
G01*
G75*
G02X290473I-4226*
G01*
X308329Y196265D02*
G75*
G02Y191176I-2457J-2544D01*
G01*
Y190927*
X308042*
G75*
G02X305872Y190183I-2170J2794*
G01*
X296815*
G75*
G02X290288Y193728I-2301J3545*
G01*
G75*
G02X296839Y197258I4226*
G01*
X305872*
G75*
G02X308042Y196514J-3538*
G01*
X308329*
Y196265*
X181225Y121115D02*
G75*
G02X190418I4596D01*
G01*
G75*
G02X181225I-4596*
G01*
X181595Y111115D02*
G75*
G02X190048I4226D01*
G01*
G75*
G02X181595I-4226*
G01*
X181225Y131115D02*
G75*
G02X190418I4596D01*
G01*
G75*
G02X181225I-4596*
G01*
X312370Y16366D02*
G36*
X285819D01*
Y13148*
X280760*
Y16366*
X279898*
Y13518*
X275579*
Y14106*
X260457*
G75*
G02X258827Y15736J1630*
G01*
Y16366*
X186263*
G75*
G02X182833Y12165I-7192J2372*
G01*
X315800*
G75*
G02X312370Y16366I3761J6573*
G01*
G37*
X275585Y51115D02*
G36*
X272933D01*
G75*
G02X271416I-759J1917*
G01*
X268438*
Y31464*
G75*
G02X268869Y30204I-1628J-1261*
G01*
G75*
G02Y30203I-2374J0*
G01*
G75*
G02X264747I-2061*
G01*
G75*
G02Y30204I2374J0*
G01*
G75*
G02X265178Y31464I2059*
G01*
Y33216*
G75*
G02X261378Y34321I-1740J1105*
G01*
G75*
G02Y34322I2374J0*
G01*
G75*
G02X261809Y35583I2059*
G01*
Y51115*
X200418*
G75*
G02X191225I-4596*
G01*
X190048*
G75*
G02X185821Y46888I-4226*
G01*
G75*
G02X184087Y47260I0J4228*
G01*
X182080Y45253*
Y43080*
G75*
G02X190048Y41115I3741J-1966*
G01*
G75*
G02X186539Y36950I-4227J0*
G01*
X195104*
G75*
G02X191595Y41115I718J4165*
G01*
G75*
G02X195821Y45341I4226*
G01*
G75*
G02X200048Y41115J-4226*
G01*
G75*
G02X196539Y36950I-4226*
G01*
X224112*
G75*
G02X227435Y35320I1261J-1630*
G01*
G75*
G02X224112Y33690I-2061*
G01*
X183911*
G75*
G02X182757Y34169I0J1629*
G01*
X179299Y37626*
G75*
G02X178820Y38780I1150J1154*
G01*
Y38780*
Y45928*
Y45928*
G75*
G02X179299Y47082I1629*
G01*
X181859Y49643*
G75*
G02X181595Y51115I3962J1472*
G01*
X172516*
Y22530*
G75*
G02X186644Y18738I6556J-3791*
G01*
G75*
G02X186263Y16366I-7573*
G01*
X258827*
Y23304*
G75*
G02X258396Y24564I1628J1261*
G01*
G75*
G02Y24565I2374J0*
G01*
G75*
G02X262518I2061*
G01*
G75*
G02Y24564I-2374J0*
G01*
G75*
G02X262087Y23304I-2059*
G01*
Y17366*
X275579*
Y19215*
X275904*
Y24433*
X274056*
Y29343*
X279296*
Y30362*
X273685*
Y36012*
X279296*
Y37031*
X274056*
Y41941*
X276061*
Y44068*
G75*
G02X275904Y44800I1626J733*
G01*
G75*
G02Y44801I2148J0*
G01*
Y47313*
X275585*
Y51115*
G37*
X265178D02*
G36*
X265069D01*
Y35583*
G75*
G02X265178Y35426I-1609J-1248*
G01*
Y51115*
G37*
X326134Y22499D02*
G36*
Y51115D01*
X285825*
Y47917*
X300719*
G75*
G02X308518I3900J-1630*
G01*
X310719*
G75*
G02X318844Y46287I3900J-1630*
G01*
Y46287*
Y46287*
G75*
G02X310719Y44657I-4226*
G01*
X308518*
G75*
G02X300719I-3900J1630*
G01*
X279473*
G75*
G02X279321Y44068I-1774J142*
G01*
Y41941*
X281327*
Y38374*
X293410*
Y28000*
X281327*
Y24433*
X279479*
Y19215*
X279898*
Y16366*
X280760*
Y19585*
X285819*
Y16366*
X312370*
G75*
G02X311989Y18738I7192J2372*
G01*
G75*
G02X326134Y22499I7573*
G01*
G37*
X280766Y51115D02*
G36*
X279904D01*
Y47917*
X280766*
Y51115*
G37*
X261809Y61115D02*
G36*
X234907D01*
G75*
G02X235243Y60361I-1420J-1083*
G01*
G75*
G02X235548Y59283I-1752J-1078*
G01*
G75*
G02Y59282I-2148J-1*
G01*
G75*
G02X231424I-2062*
G01*
G75*
G02Y59285I2030J2*
G01*
G75*
G02X231437Y59514I2013*
G01*
X229756Y61115*
X200048*
G75*
G02X195821Y56888I-4226*
G01*
G75*
G02X191595Y61115J4226*
G01*
X190048*
G75*
G02X181595I-4226*
G01*
X172516*
Y51115*
X181595*
G75*
G02X185821Y55341I4226*
G01*
G75*
G02X190048Y51115J-4226*
G01*
X191225*
G75*
G02X200418I4596*
G01*
X261809*
Y61115*
G37*
X271416Y51115D02*
G36*
G75*
G02X270113Y53031I759J1917D01*
G01*
G75*
G02X270471Y54193I2062*
G01*
G75*
G02X268438Y54757I-543J1989*
G01*
Y51115*
X271416*
G37*
X265178Y61115D02*
G36*
X265069D01*
Y51115*
X265178*
Y61115*
G37*
X275585Y51115D02*
G36*
Y53010D01*
X276114*
Y54524*
G75*
G02X274554Y54803I-444J2015*
G01*
Y53031*
G75*
G02X273614Y51555I-1628J-1*
G01*
G75*
G02X272933Y51115I-1439J1477*
G01*
X275585*
G37*
X316217Y61115D02*
G36*
G75*
G02X316052Y60654I-1598J310D01*
G01*
G75*
G02X319215Y56287I-1434J-4367*
G01*
G75*
G02X314618Y51691I-4596*
G01*
G75*
G02X310022Y56287J4596*
G01*
G75*
G02X311648Y59795I4596*
G01*
X307588*
G75*
G02X309215Y56287I-2970J-3508*
G01*
G75*
G02X304618Y51691I-4596*
G01*
G75*
G02X300022Y56287J4596*
G01*
G75*
G02X301648Y59795I4596*
G01*
X295949*
G75*
G02X294349Y61115I0J1631*
G01*
X280045*
Y54634*
G75*
G02X279374Y53316I-1631J1*
G01*
Y53010*
X279904*
Y51115*
X280766*
Y53380*
X285825*
Y51115*
X326134*
Y61115*
X316217*
G37*
X190446Y66102D02*
G36*
X172516D01*
Y61115*
X181595*
G75*
G02X190048I4226*
G01*
X191595*
G75*
G02X192944Y64211I4227*
G01*
G75*
G02X191817Y64731I139J1782*
G01*
X190446Y66102*
G37*
X229756Y61115D02*
G36*
X229632Y61232D01*
G75*
G02X229599Y61265I670J719*
G01*
X226658Y64206*
X198704*
G75*
G02X200048Y61115I-2882J-3091*
G01*
X229756*
G37*
X261809Y66102D02*
G36*
X235747D01*
G75*
G02X235802Y65631I-2004J-472*
G01*
G75*
G02Y65630I-2374J0*
G01*
G75*
G02X231680I-2061*
G01*
G75*
G02Y65631I2374J0*
G01*
G75*
G02X231735Y66102I2059J0*
G01*
X229818*
X232113Y63806*
X234718Y61326*
G75*
G02X234907Y61115I-1231J-1295*
G01*
X261809*
Y66102*
G37*
X265178D02*
G36*
X265069D01*
Y61115*
X265178*
Y66102*
G37*
X294349Y61115D02*
G36*
G75*
G02X294319Y61425I1600J311D01*
G01*
Y66102*
X280045*
Y61115*
X294349*
G37*
X300396Y66102D02*
G36*
X297579D01*
Y63055*
X301894*
G75*
G02X300396Y66102I2724J3232*
G01*
G37*
X310396D02*
G36*
X308841D01*
G75*
G02X307342Y63055I-4222J185*
G01*
X311894*
G75*
G02X310396Y66102I2724J3232*
G01*
G37*
X318841D02*
G36*
G75*
G02X316246Y62387I-4222J185D01*
G01*
Y61425*
Y61425*
G75*
G02X316217Y61115I-1628J0*
G01*
X326134*
Y66102*
X318841*
G37*
X190446D02*
G36*
X189297Y67251D01*
G75*
G02X188947Y67745I1260J1264*
G01*
G75*
G02X181561Y69390I-3126J3370*
G01*
X172516*
Y66102*
X190446*
G37*
X231735D02*
G36*
G75*
G02X232111Y66891I2004J-471D01*
G01*
Y69390*
X199680*
G75*
G02X198419Y67780I-3859J1726*
G01*
X227399*
G75*
G02X228665Y67255J-1788*
G01*
X229818Y66102*
X231735*
G37*
X261809Y69390D02*
G36*
X235371D01*
Y66891*
G75*
G02X235747Y66102I-1628J-1261*
G01*
X261809*
Y69390*
G37*
X265178D02*
G36*
X265069D01*
Y66102*
X265178*
Y69390*
G37*
X289496D02*
G36*
X286619D01*
Y66171*
X281559*
Y69390*
X280697*
Y66541*
X280045*
Y66102*
X294319*
Y67140*
X289577*
Y68998*
G75*
G02X289496Y69390I1969J612*
G01*
G37*
X300396Y66102D02*
G36*
G75*
G02X300392Y66287I4226J183D01*
G01*
G75*
G02X301748Y69390I4226*
G01*
X297579*
Y66102*
X300396*
G37*
X310396D02*
G36*
G75*
G02X310392Y66287I4225J182D01*
G01*
G75*
G02X311748Y69390I4226*
G01*
X307488*
G75*
G02X308844Y66287I-2870J-3103*
G01*
G75*
G02X308841Y66102I-4229J-3*
G01*
X310396*
G37*
X318841D02*
G36*
X326134D01*
Y69390*
X317488*
G75*
G02X318844Y66287I-2870J-3103*
G01*
G75*
G02X318841Y66102I-4225J-3*
G01*
G37*
X181561Y69390D02*
G36*
G75*
G02X181225Y71115I4261J1725D01*
G01*
G75*
G02X188772Y74639I4596*
G01*
Y76287*
X172516*
Y69390*
X181561*
G37*
X197699Y76287D02*
G36*
X192346D01*
Y73520*
G75*
G02X199721Y72744I3475J-2406*
G01*
X233741*
G75*
G02X235371Y71115J-1630*
G01*
Y69390*
X261809*
Y74428*
G75*
G02X259187Y74347I-1360J1548*
G01*
X200314*
G75*
G02X199160Y74826I0J1629*
G01*
X197699Y76287*
G37*
X232111Y69390D02*
G36*
Y69485D01*
X199721*
G75*
G02X199680Y69390I-3901J1627*
G01*
X232111*
G37*
X265178D02*
G36*
Y76287D01*
X265069*
Y69390*
X265178*
G37*
X301748D02*
G36*
G75*
G02X301861Y69490I2870J-3106D01*
G01*
X299276*
G75*
G02X297646Y71120J1630*
G01*
Y72978*
X295274*
Y72691*
X292303*
G75*
G02X290791I-756J1917*
G01*
X289577*
Y74000*
G75*
G02X289485Y74608I1968J608*
G01*
G75*
G02X289577Y75216I2060*
G01*
Y76287*
X278131*
X277299Y75455*
Y72238*
X280697*
Y69390*
X281559*
Y72608*
X286619*
Y69390*
X289496*
G75*
G02X289485Y69608I2050J217*
G01*
G75*
G02X289577Y70219I2061*
G01*
Y71459*
X290637*
G75*
G02X292456I909J-1850*
G01*
X295274*
Y71238*
X295949*
G75*
G02X297579Y69608J-1630*
G01*
Y69390*
X301748*
G37*
X300392Y76287D02*
G36*
X295274D01*
Y76238*
X299276*
G75*
G02X300424Y75765J-1630*
G01*
G75*
G02X300392Y76287I4194J521*
G01*
G37*
X317488Y69390D02*
G36*
X326134D01*
Y76287*
X318844*
G75*
G02X310392I-4226*
G01*
X308844*
G75*
G02X305809Y72232I-4226*
G01*
G75*
G02X306246Y71120I-1192J-1111*
G01*
Y71120*
Y70187*
G75*
G02X307488Y69390I-1628J-3900*
G01*
X311748*
G75*
G02X314618Y70513I2870J-3103*
G01*
G75*
G02X317488Y69390J-4226*
G01*
G37*
X188772Y86287D02*
G36*
X172516D01*
Y76287*
X188772*
Y77590*
G75*
G02X181225Y81115I-2950J3524*
G01*
G75*
G02X188772Y84639I4596*
G01*
Y86287*
G37*
X197699Y76287D02*
G36*
X196946Y77041D01*
G75*
G02X192346Y78709I-1125J4074*
G01*
Y76287*
X197699*
G37*
X232822Y86287D02*
G36*
X205823D01*
G75*
G02X205849Y85961I-2035J-326*
G01*
Y85956*
X210204Y81601*
X240852*
G75*
G02X240269Y82620I1426J1491*
G01*
X236772Y86116*
G75*
G02X236925Y85337I-1910J-779*
G01*
G75*
G02X232803I-2061*
G01*
G75*
G02X232822Y85613I2101J-3*
G01*
Y86287*
G37*
X260587D02*
G36*
X252930D01*
G75*
G02X250518I-1206J1672*
G01*
X247460*
G75*
G02X247486Y85962I-2033J-326*
G01*
G75*
G02Y85961I-2374J0*
G01*
G75*
G02X243364I-2061*
G01*
G75*
G02Y85962I2374J0*
G01*
G75*
G02X243390Y86287I2059J-1*
G01*
X241212*
X242348Y85151*
G75*
G02X244336Y83091I-72J-2059*
G01*
G75*
G02X243699Y81601I-2061*
G01*
X253446*
G75*
G02X256769Y79971I1261J-1630*
G01*
G75*
G02X253446Y78341I-2061*
G01*
X209529*
G75*
G02X208375Y78820I0J1629*
G01*
X203213Y83982*
G75*
G02X201727Y85961I575J1979*
G01*
Y85961*
G75*
G02X201753Y86287I2061J-1*
G01*
X192346*
Y83520*
G75*
G02X200048Y81115I3475J-2406*
G01*
G75*
G02X199522Y79074I-4227*
G01*
X200989Y77607*
X259187*
G75*
G02X261809Y77526I1261J-1629*
G01*
Y85065*
X260587Y86287*
G37*
X265178Y76287D02*
G36*
Y86287D01*
X264974*
G75*
G02X265069Y85741I-1535J-547*
G01*
Y85740*
Y76287*
X265178*
G37*
X283521Y86287D02*
G36*
X274554D01*
Y77320*
X283521Y86287*
G37*
X308844Y76287D02*
G36*
X310392D01*
G75*
G02X318844I4226*
G01*
X326134*
Y86287*
X318844*
G75*
G02X310392I-4226*
G01*
X308844*
G75*
G02X300392I-4226*
G01*
X288131*
X278131Y76287*
X289577*
Y77010*
X295274*
Y76287*
X300392*
Y76287*
G75*
G02X304618Y80513I4226*
G01*
G75*
G02X308844Y76287J-4226*
G01*
G37*
X181251Y101606D02*
G36*
X172516D01*
Y86287*
X188772*
Y87590*
G75*
G02X181225Y91115I-2950J3524*
G01*
G75*
G02X188772Y94639I4596*
G01*
Y97590*
G75*
G02X181225Y101115I-2950J3524*
G01*
G75*
G02X181251Y101606I4597*
G01*
G37*
X232822D02*
G36*
X200019D01*
G75*
G02X200048Y101115I-4197J-492*
G01*
G75*
G02X195821Y96888I-4226*
G01*
G75*
G02X192346Y98709J4226*
G01*
Y93520*
G75*
G02X200048Y91115I3475J-2406*
G01*
G75*
G02X192346Y88709I-4226*
G01*
Y86287*
X201753*
G75*
G02X205823I2035J-326*
G01*
X232822*
Y101606*
G37*
X243390Y86287D02*
G36*
G75*
G02X243795Y87223I2033J-324D01*
G01*
Y92073*
X239448Y96420*
G75*
G02X238990Y97316I1152J1154*
G01*
Y88509*
X241212Y86287*
X243390*
G37*
X246838Y101606D02*
G36*
X242230D01*
Y98249*
X246576Y93902*
G75*
G02X246838Y93561I-1148J-1151*
G01*
Y101606*
G37*
X250518Y86287D02*
G36*
G75*
G02X249663Y87958I1206J1671D01*
G01*
G75*
G02Y87959I2374J0*
G01*
G75*
G02X250094Y89220I2059*
G01*
Y89687*
G75*
G02X247055Y89453I-1626J1266*
G01*
Y87223*
G75*
G02X247460Y86287I-1628J-1260*
G01*
X250518*
G37*
X252459Y101606D02*
G36*
X250098D01*
Y98674*
G75*
G02X250573Y99720I1624J-106*
G01*
X252459Y101606*
G37*
X260587Y86287D02*
G36*
X254333Y92540D01*
G75*
G02X253354Y92785I-6J2062*
G01*
Y89220*
G75*
G02X253785Y87959I-1628J-1261*
G01*
G75*
G02Y87958I-2374J0*
G01*
G75*
G02X252930Y86287I-2061*
G01*
X260587*
G37*
X271270Y101606D02*
G36*
X257069D01*
X253354Y97891*
Y96418*
G75*
G02X256307Y95177I974J-1816*
G01*
X264590Y86894*
G75*
G02X264974Y86287I-1150J-1153*
G01*
X265178*
Y95586*
G75*
G02X264747Y96848I1630J1261*
G01*
G75*
G02X268324Y98245I2061*
G01*
G75*
G02X268777Y99114I1604J-285*
G01*
X271270Y101606*
G37*
X282741D02*
G36*
X275880D01*
X271558Y97285*
Y90374*
G75*
G02X271772Y90638I1352J-879*
G01*
X282741Y101606*
G37*
X303450D02*
G36*
X288131Y86287D01*
X300392*
G75*
G02X308844I4226*
G01*
X310392*
G75*
G02X318844I4226*
G01*
X326134*
Y101606*
X303450*
G37*
X287351D02*
G36*
X274554Y88809D01*
Y86287*
X283521*
X298840Y101606*
X287351*
G37*
X191633Y110547D02*
G36*
X190009D01*
G75*
G02X181633I-4188J567*
G01*
X172516*
Y101606*
X181251*
G75*
G02X188815Y104602I4570J-492*
G01*
G75*
G02X189295Y105475I1746J-393*
G01*
X191292Y107472*
G75*
G02X192559Y107995I1263J-1262*
G01*
X192970*
G75*
G02X191633Y110547I2852J3119*
G01*
G37*
X227317D02*
G36*
X212687D01*
Y107329*
X207628*
Y110547*
X206766*
Y107699*
X204557*
X201804Y104946*
G75*
G02X200538Y104420I-1266J1262*
G01*
X198454*
G75*
G02X200019Y101606I-2633J-3306*
G01*
X232822*
Y105043*
X227317Y110547*
G37*
X246838D02*
G36*
X242230D01*
Y101606*
X246838*
Y110547*
G37*
X261400D02*
G36*
X250098D01*
Y101606*
X252459*
X261400Y110547*
G37*
X280211D02*
G36*
X266010D01*
X257069Y101606*
X271270*
X280211Y110547*
G37*
X291681D02*
G36*
X284821D01*
X275880Y101606*
X282741*
X291681Y110547*
G37*
X308052D02*
G36*
X305885Y108380D01*
Y104716*
Y104715*
G75*
G02X305406Y103562I-1629*
G01*
X303450Y101606*
X326134*
Y110547*
X308052*
G37*
X303441D02*
G36*
X296292D01*
X287351Y101606*
X298840*
X302625Y105391*
Y109056*
Y109056*
G75*
G02X303104Y110209I1629*
G01*
X303441Y110547*
G37*
X227317D02*
G36*
X216750Y121115D01*
X200048*
G75*
G02X191595I-4226*
G01*
X190418*
G75*
G02X181225I-4596*
G01*
X172516*
Y110547*
X181633*
G75*
G02X181595Y111115I4188J567*
G01*
G75*
G02X190048I4226*
G01*
G75*
G02X190009Y110547I-4226J0*
G01*
X191633*
G75*
G02X191595Y111115I4188J570*
G01*
G75*
G02X195821Y115341I4226*
G01*
G75*
G02X199912Y112178J-4226*
G01*
X202447*
Y113396*
X206766*
Y110547*
X207628*
Y113766*
X212687*
Y110547*
X227317*
G37*
X246838Y121115D02*
G36*
X237118D01*
X241751Y116482*
G75*
G02X242230Y115328I-1150J-1154*
G01*
Y115328*
Y110547*
X246838*
Y121115*
G37*
X265070D02*
G36*
X250098D01*
Y110547*
X261400*
X265070Y114218*
Y121115*
G37*
X282402D02*
G36*
X268330D01*
Y113543*
Y113543*
G75*
G02X267852Y112389I-1629*
G01*
X266010Y110547*
X280211*
X282402Y112738*
Y121115*
G37*
X302249D02*
G36*
X285661D01*
Y112063*
Y112063*
G75*
G02X285183Y110909I-1629*
G01*
X284821Y110547*
X291681*
X302249Y121115*
G37*
X314009D02*
G36*
X306859D01*
X296292Y110547*
X303441*
X314009Y121115*
G37*
X318619D02*
G36*
X308052Y110547D01*
X326134*
Y121115*
X318619*
G37*
X216750D02*
G36*
X206750Y131115D01*
X200048*
G75*
G02X191595I-4226*
G01*
X190418*
G75*
G02X181225I-4596*
G01*
X172516*
Y121115*
X181225*
G75*
G02X190418I4596*
G01*
X191595*
G75*
G02X200048I4226*
G01*
X216750*
G37*
X246838D02*
G36*
Y123321D01*
X239044Y131115*
X227118*
X237118Y121115*
X246838*
G37*
X265070Y131115D02*
G36*
X243654D01*
X249619Y125150*
G75*
G02X250098Y123996I-1150J-1154*
G01*
Y123996*
Y121115*
X265070*
Y131115*
G37*
X282402D02*
G36*
X268330D01*
Y121115*
X282402*
Y131115*
G37*
X309648D02*
G36*
X285661D01*
Y121115*
X302249*
X309648Y128514*
Y131115*
G37*
X316472D02*
G36*
X312908D01*
Y127839*
Y127838*
G75*
G02X312429Y126685I-1629*
G01*
X306859Y121115*
X314009*
X316472Y123578*
Y131115*
G37*
X319732D02*
G36*
Y122903D01*
Y122903*
G75*
G02X319254Y121749I-1629*
G01*
X318619Y121115*
X326134*
Y131115*
X319732*
G37*
X206750D02*
G36*
X205721Y132143D01*
G75*
G02X205195Y133409I1262J1266*
G01*
Y151646*
X172516*
Y131115*
X181225*
G75*
G02X190418I4596*
G01*
X191595*
G75*
G02X200048I4226*
G01*
X206750*
G37*
X239044D02*
G36*
X235135Y135024D01*
G75*
G02X234656Y136178I1150J1154*
G01*
Y136178*
Y150904*
X233827*
Y151646*
X229880*
Y150533*
X224223*
Y151646*
X222094*
G75*
G02X222095Y151602I-4227J-60*
G01*
G75*
G02X213899Y150151I-4226J0*
G01*
Y144333*
X227118Y131115*
X239044*
G37*
X265070D02*
G36*
Y137194D01*
X259378Y142887*
G75*
G02X258899Y144040I1150J1154*
G01*
Y144041*
Y151646*
X254122*
Y151281*
X248465*
Y151646*
X248000*
G75*
G02X239548I-4226*
G01*
X238744*
Y150904*
X237916*
Y136853*
X243654Y131115*
X265070*
G37*
X281573Y151646D02*
G36*
X277624D01*
Y150657*
X272833*
G75*
G02X264469Y151521I-4137J864*
G01*
Y151521*
G75*
G02X264471Y151646I4224J-5*
G01*
X262159*
Y144716*
X267852Y139023*
G75*
G02X268330Y137870I-1150J-1154*
G01*
Y137869*
Y131115*
X282402*
Y151028*
X281573*
Y151646*
G37*
X308819D02*
G36*
X304872D01*
Y151033*
X299215*
Y151646*
X298918*
G75*
G02X298926Y151396I-4220J-252*
G01*
G75*
G02X290473I-4226*
G01*
G75*
G02X290480Y151646I4228J-2*
G01*
X286491*
Y151028*
X285661*
Y131115*
X309648*
Y151404*
X308819*
Y151646*
G37*
X316472D02*
G36*
X313737D01*
Y151404*
X312908*
Y131115*
X316472*
Y151646*
G37*
X319732D02*
G36*
Y131115D01*
X326134*
Y151646*
X319732*
G37*
X205195Y161646D02*
G36*
X172516D01*
Y151646*
X205195*
Y161646*
G37*
X316472Y151646D02*
G36*
Y156963D01*
X311790Y161646*
X310087*
G75*
G02Y161638I-3456J-4*
G01*
Y161638*
Y161396*
Y161396*
G75*
G02X309166Y159077I-3379*
G01*
Y158844*
X308924*
G75*
G02X306707Y158016I-2216J2551*
G01*
X297237*
G75*
G02X290473Y161396I-2537J3380*
G01*
Y161396*
Y161396*
G75*
G02X290480Y161646I4224J-2*
G01*
X282838*
G75*
G02X282841Y161521I-3380J-126*
G01*
Y161521*
Y161263*
Y161263*
G75*
G02X281920Y158944I-3379*
G01*
Y158470*
X281364*
G75*
G02X278167Y158141I-1904J2793*
G01*
X271233*
G75*
G02X264469Y161520I-2537J3380*
G01*
Y161521*
Y161521*
G75*
G02X264471Y161646I4221J-5*
G01*
X259330*
G75*
G02X258416Y159567I-3371J242*
G01*
Y159093*
X257859*
G75*
G02X255958Y158507I-1901J2796*
G01*
X246605*
G75*
G02X239548Y161646I-2831J3138*
G01*
X235094*
G75*
G02X235095Y161603I-3391J-53*
G01*
Y161602*
Y161139*
Y161138*
G75*
G02X234174Y158819I-3379*
G01*
Y158344*
X233617*
G75*
G02X230006Y158222I-1902J2794*
G01*
X220406*
G75*
G02X213899Y160151I-2537J3380*
G01*
Y153054*
G75*
G02X222094Y151646I3969J-1452*
G01*
X224223*
Y156860*
X229880*
Y151646*
X233827*
Y156490*
X238744*
Y151646*
X239548*
G75*
G02X248000I4226*
G01*
X248465*
Y157608*
X254122*
Y151646*
X258899*
Y151652*
X258069*
Y157238*
X262987*
Y151652*
X262159*
Y151646*
X264471*
G75*
G02X271967Y154196I4224J-124*
G01*
Y156984*
X277624*
Y151646*
X281573*
Y156614*
X286491*
Y151646*
X290480*
G75*
G02X298918I4219J-250*
G01*
X299215*
Y157360*
X304872*
Y151646*
X308819*
Y156990*
X313737*
Y151646*
X316472*
G37*
X319732D02*
G36*
X326134D01*
Y161646*
X316400*
X319254Y158793*
G75*
G02X319732Y157639I-1150J-1154*
G01*
Y157639*
Y151646*
G37*
X233101Y183853D02*
G36*
X229154D01*
Y183238*
X223496*
Y183853*
X221800*
G75*
G02X213347I-4226*
G01*
X172516*
Y161646*
X205195*
Y167483*
G75*
G02X205713Y168741I1788J0*
G01*
X214723Y177831*
G75*
G02X215994Y178360I1270J-1259*
G01*
X228894*
X233773Y183240*
Y183608*
X233101*
Y183853*
G37*
X307983D02*
G36*
X304036D01*
Y183116*
X298696*
G75*
G02X290288Y183728I-4182J612*
G01*
G75*
G02X290290Y183853I4227J-4*
G01*
X285365*
Y182332*
Y182332*
G75*
G02X284886Y181178I-1629*
G01*
X273588Y169880*
G75*
G02X272434Y169402I-1154J1150*
G01*
X220805*
X217175Y165771*
G75*
G02X217869Y165829I698J-4208*
G01*
G75*
G02X220406Y164982I-1J-4229*
G01*
X231715*
G75*
G02X234165Y163931I-1J-3381*
G01*
X234174*
Y163922*
G75*
G02X235094Y161646I-2457J-2319*
G01*
X239548*
G75*
G02X245952Y165267I4226J0*
G01*
X255958*
G75*
G02X257863Y164679J-3380*
G01*
X258416*
Y164208*
G75*
G02X259338Y161887I-2457J-2320*
G01*
G75*
G02X259330Y161646I-3380*
G01*
X264471*
G75*
G02X271233Y164901I4224J-124*
G01*
X279461*
G75*
G02X281695Y164057I-1J-3383*
G01*
X281920*
Y163840*
G75*
G02X282838Y161646I-2458J-2319*
G01*
X290480*
G75*
G02X297237Y164776I4219J-249*
G01*
X305452*
G75*
G02X308610Y164431I1255J-3138*
G01*
X309063*
G75*
G02X308813Y165298I1381J868*
G01*
Y183486*
X307983*
Y183853*
G37*
X257065D02*
G36*
X253117D01*
Y183364*
X247793*
G75*
G02X239369Y183853I-4198J489*
G01*
X238018*
Y183608*
X237348*
Y182499*
G75*
G02X236822Y181233I-1788*
G01*
X230957Y175368*
X250417*
X257893Y182844*
Y183734*
X257065*
Y183853*
G37*
X282105D02*
G36*
X277329D01*
Y183738*
X272500*
G75*
G02X264092Y183853I-4198J489*
G01*
X261983*
Y183734*
X261153*
Y182169*
Y182168*
G75*
G02X260674Y181015I-1629*
G01*
X252321Y172661*
X271759*
X282105Y183007*
Y183853*
G37*
X311790Y161646D02*
G36*
X309291Y164144D01*
G75*
G02X309166Y164285I1073J1082*
G01*
Y163957*
G75*
G02X310087Y161646I-2457J-2319*
G01*
X311790*
G37*
X316400D02*
G36*
X326134D01*
Y183853*
X312900*
Y183486*
X312072*
Y165974*
X316400Y161646*
G37*
X312900Y183853D02*
G36*
X326134D01*
Y193853*
X325477*
G75*
G02X313645I-5916J4728*
G01*
X309407*
G75*
G02X309409Y193720I-3536J-129*
G01*
G75*
G02X308329Y191176I-3538*
G01*
Y190927*
X308042*
G75*
G02X305872Y190183I-2171J2796*
G01*
X296815*
G75*
G02X290288Y193728I-2301J3545*
G01*
Y193729*
G75*
G02X290290Y193853I4224J-5*
G01*
X282667*
G75*
G02X281622Y191801I-3503J491*
G01*
Y191551*
X281334*
G75*
G02X279164Y190807I-2171J2796*
G01*
X270784*
G75*
G02X264092Y193853I-2482J3420*
G01*
X258487*
G75*
G02X257412Y191428I-3535J117*
G01*
Y191175*
X257120*
G75*
G02X254952Y190433I-2169J2798*
G01*
X246077*
G75*
G02X239369Y193853I-2483J3420*
G01*
Y193853*
X234527*
G75*
G02Y193845I-3552J-4*
G01*
G75*
G02X233447Y191301I-3538*
G01*
Y191053*
X233162*
G75*
G02X230990Y190308I-2171J2791*
G01*
X219874*
G75*
G02X213347Y193853I-2301J3545*
G01*
X184987*
G75*
G02X173156I-5916J4728*
G01*
X172516*
Y183853*
X213347*
G75*
G02X221800I4226*
G01*
X223496*
Y189565*
X229154*
Y183853*
X233101*
Y189195*
X238018*
Y183853*
X239369*
G75*
G02X247459Y185565I4226J0*
G01*
Y189691*
X253117*
Y183853*
X257065*
Y189321*
X261983*
Y183853*
X264092*
G75*
G02X264075Y184228I4210J374*
G01*
Y184228*
G75*
G02X271672Y186778I4226*
G01*
Y190065*
X277329*
Y183853*
X282105*
Y184108*
X281276*
Y189695*
X286193*
Y184108*
X285365*
Y183853*
X290290*
G75*
G02X298378Y185441I4224J-125*
G01*
Y189443*
X304036*
Y183853*
X307983*
Y189073*
X312900*
Y183853*
G37*
X173156Y193853D02*
G36*
G75*
G02X172516Y194789I5915J4729D01*
G01*
Y193853*
X173156*
G37*
X315800Y205154D02*
G36*
X182833D01*
G75*
G02X186644Y198581I-3761J-6573*
G01*
G75*
G02X184987Y193853I-7573J0*
G01*
X213347*
Y193854*
G75*
G02X219898Y197383I4226*
G01*
X230990*
G75*
G02X233159Y196640J-3538*
G01*
X233447*
Y196390*
G75*
G02X234527Y193853I-2458J-2544*
G01*
X239369*
G75*
G02X245718Y197507I4226*
G01*
X254952*
G75*
G02X257124Y196762I-1J-3539*
G01*
X257412*
Y196512*
G75*
G02X258489Y193970I-2460J-2542*
G01*
G75*
G02X258487Y193853I-3538J1*
G01*
X264092*
G75*
G02X264075Y194227I4208J373*
G01*
Y194228*
G75*
G02X270425Y197882I4226*
G01*
X279164*
G75*
G02X281334Y197138I-1J-3540*
G01*
X281622*
Y196888*
G75*
G02X282701Y194344I-2459J-2543*
G01*
G75*
G02X282667Y193853I-3538J0*
G01*
X290290*
G75*
G02X296839Y197258I4224J-124*
G01*
X305872*
G75*
G02X308042Y196514I-1J-3540*
G01*
X308329*
Y196265*
G75*
G02X309407Y193853I-2458J-2544*
G01*
X313645*
G75*
G02X311989Y198581I5916J4727*
G01*
G75*
G02X315800Y205154I7573*
G01*
G37*
X326134Y194820D02*
G36*
G75*
G02X325477Y193853I-6574J3762D01*
G01*
X326134*
Y194820*
G37*
D02*
D71*
X25494Y71115D02*
X23494D01*
X25494Y81115D02*
X23494D01*
X25494Y91115D02*
X23494D01*
X25494Y101115D02*
X23494D01*
X25494Y121115D02*
X23494D01*
X25494Y131115D02*
X23494D01*
X28341Y68268D02*
Y66268D01*
Y73961D02*
Y75961D01*
Y78268D02*
Y76268D01*
Y83961D02*
Y85961D01*
Y88268D02*
Y86268D01*
Y93961D02*
Y95961D01*
Y98268D02*
Y96268D01*
Y103961D02*
Y105961D01*
Y118268D02*
Y116268D01*
Y123961D02*
Y125961D01*
Y128268D02*
Y126268D01*
Y133961D02*
Y135961D01*
X31187Y121115D02*
X33187D01*
X31187Y131115D02*
X33187D01*
X35494Y51115D02*
X33494D01*
X38341Y48268D02*
Y46268D01*
Y53961D02*
Y55961D01*
X41187Y51115D02*
X43187D01*
X51897Y110548D02*
X49896D01*
X52677Y109079D02*
Y107081D01*
Y112016D02*
Y114018D01*
X53456Y110548D02*
X55455D01*
X67766Y186403D02*
X65766D01*
X68491Y153696D02*
X66491D01*
X68845Y184989D02*
Y182990D01*
Y187816D02*
Y189817D01*
X69570Y152283D02*
Y150281D01*
Y155109D02*
Y157108D01*
X69924Y186403D02*
X71924D01*
X70649Y153696D02*
X72648D01*
X91728Y186528D02*
X89727D01*
X92735Y154445D02*
X90735D01*
X92807Y185114D02*
Y183114D01*
Y187941D02*
Y189941D01*
X93813Y153031D02*
Y151031D01*
Y155858D02*
Y157858D01*
X93886Y186528D02*
X95884D01*
X94892Y154445D02*
X96892D01*
X117019Y185489D02*
Y183490D01*
Y188315D02*
Y190317D01*
X117316Y152407D02*
Y150407D01*
Y155234D02*
Y157234D01*
X117955Y33187D02*
X115955D01*
X118098Y186902D02*
X120097D01*
X118394Y153821D02*
X120396D01*
X120309Y32112D02*
Y30112D01*
Y34262D02*
Y36262D01*
X125030Y16367D02*
X123030D01*
X125035Y50160D02*
X123034D01*
X125809Y14898D02*
Y12900D01*
Y17835D02*
Y19837D01*
X125815Y51629D02*
Y53628D01*
X125829Y69391D02*
X123829D01*
X126589Y16367D02*
X128589D01*
X126594Y50160D02*
X128593D01*
X126609Y67922D02*
Y65923D01*
Y70859D02*
Y72860D01*
X127388Y69391D02*
X129388D01*
X128872Y29750D02*
Y27750D01*
Y36624D02*
Y38624D01*
X134180Y33187D02*
X136180D01*
X143483Y154195D02*
X141483D01*
X143727Y184865D02*
Y182864D01*
Y187691D02*
Y189691D01*
X144291Y56287D02*
X142291D01*
X144562Y152782D02*
Y150781D01*
Y155609D02*
Y157608D01*
X144806Y186278D02*
X146806D01*
X145641Y154195D02*
X147640D01*
X147138Y53441D02*
Y51441D01*
X149984Y56287D02*
X151984D01*
X154291D02*
X152291D01*
X157138Y53441D02*
Y51441D01*
X159984Y56287D02*
X161984D01*
X182975Y71115D02*
X180975D01*
X182975Y81115D02*
X180975D01*
X182975Y91115D02*
X180975D01*
X182975Y101115D02*
X180975D01*
X182975Y121115D02*
X180975D01*
X182975Y131115D02*
X180975D01*
X185821Y68268D02*
Y66268D01*
Y73961D02*
Y75961D01*
Y78268D02*
Y76268D01*
Y83961D02*
Y85961D01*
Y88268D02*
Y86268D01*
Y93961D02*
Y95961D01*
Y98268D02*
Y96268D01*
Y103961D02*
Y105961D01*
Y118268D02*
Y116268D01*
Y123961D02*
Y125961D01*
Y128268D02*
Y126268D01*
Y133961D02*
Y135961D01*
X188668Y121115D02*
X190668D01*
X188668Y131115D02*
X190668D01*
X192975Y51115D02*
X190975D01*
X195821Y48268D02*
Y46268D01*
Y53961D02*
Y55961D01*
X198668Y51115D02*
X200668D01*
X209378Y110548D02*
X207376D01*
X210157Y109079D02*
Y107081D01*
Y112016D02*
Y114018D01*
X210937Y110548D02*
X212935D01*
X225246Y186403D02*
X223246D01*
X225972Y153696D02*
X223971D01*
X226325Y184989D02*
Y182990D01*
Y187816D02*
Y189817D01*
X227050Y152283D02*
Y150281D01*
Y155109D02*
Y157108D01*
X227404Y186403D02*
X229404D01*
X228129Y153696D02*
X230128D01*
X249209Y186528D02*
X247207D01*
X250215Y154445D02*
X248215D01*
X250287Y185114D02*
Y183114D01*
Y187941D02*
Y189941D01*
X251294Y153031D02*
Y151031D01*
Y155858D02*
Y157858D01*
X251366Y186528D02*
X253365D01*
X252372Y154445D02*
X254372D01*
X274499Y185489D02*
Y183490D01*
Y188315D02*
Y190317D01*
X274796Y152407D02*
Y150407D01*
Y155234D02*
Y157234D01*
X275435Y33187D02*
X273435D01*
X275578Y186902D02*
X277577D01*
X275875Y153821D02*
X277876D01*
X277790Y32112D02*
Y30112D01*
Y34262D02*
Y36262D01*
X282510Y16367D02*
X280510D01*
X282516Y50160D02*
X280514D01*
X283290Y14898D02*
Y12900D01*
Y17835D02*
Y19837D01*
X283295Y51629D02*
Y53628D01*
X283309Y69391D02*
X281309D01*
X284069Y16367D02*
X286069D01*
X284075Y50160D02*
X286073D01*
X284089Y67922D02*
Y65923D01*
Y70859D02*
Y72860D01*
X284869Y69391D02*
X286869D01*
X286353Y29750D02*
Y27750D01*
Y36624D02*
Y38624D01*
X291660Y33187D02*
X293660D01*
X300964Y154195D02*
X298963D01*
X301207Y184865D02*
Y182864D01*
Y187691D02*
Y189691D01*
X301772Y56287D02*
X299772D01*
X302043Y152782D02*
Y150781D01*
Y155609D02*
Y157608D01*
X302286Y186278D02*
X304286D01*
X303121Y154195D02*
X305120D01*
X304618Y53441D02*
Y51441D01*
X307465Y56287D02*
X309465D01*
X311772D02*
X309772D01*
X314618Y53441D02*
Y51441D01*
X317465Y56287D02*
X319465D01*
D02*
D25*
X47126Y110548D03*
X52677D03*
X120258Y16367D03*
X120264Y50160D03*
X121057Y69391D03*
X125809Y16367D03*
X125815Y50160D03*
X126609Y69391D03*
X204606Y110548D03*
X210157D03*
X277739Y16367D03*
X277744Y50160D03*
X278538Y69391D03*
X283290Y16367D03*
X283295Y50160D03*
X284089Y69391D03*
D02*
D26*
X134945Y69299D03*
Y74850D03*
X292426Y69299D03*
Y74850D03*
D02*
D74*
X28341Y41115D03*
Y51115D03*
Y61115D03*
Y71115D03*
Y81115D03*
Y91115D03*
Y101115D03*
Y111115D03*
Y121115D03*
Y131115D03*
X38341Y41115D03*
Y51115D03*
Y61115D03*
Y71115D03*
Y81115D03*
Y91115D03*
Y101115D03*
Y111115D03*
Y121115D03*
Y131115D03*
X60093Y183853D03*
Y193853D03*
X60388Y151602D03*
Y161602D03*
X86115Y183853D03*
Y193853D03*
X86294Y151646D03*
Y161646D03*
X110821Y184228D03*
Y194228D03*
X111215Y151521D03*
Y161521D03*
X137034Y183728D03*
Y193728D03*
X137219Y151396D03*
Y161396D03*
X147138Y46287D03*
Y56287D03*
Y66287D03*
Y76287D03*
Y86287D03*
X157138Y46287D03*
Y56287D03*
Y66287D03*
Y76287D03*
Y86287D03*
X185821Y41115D03*
Y51115D03*
Y61115D03*
Y71115D03*
Y81115D03*
Y91115D03*
Y101115D03*
Y111115D03*
Y121115D03*
Y131115D03*
X195821Y41115D03*
Y51115D03*
Y61115D03*
Y71115D03*
Y81115D03*
Y91115D03*
Y101115D03*
Y111115D03*
Y121115D03*
Y131115D03*
X217573Y183853D03*
Y193853D03*
X217869Y151602D03*
Y161602D03*
X243595Y183853D03*
Y193853D03*
X243774Y151646D03*
Y161646D03*
X268302Y184228D03*
Y194228D03*
X268695Y151521D03*
Y161521D03*
X294515Y183728D03*
Y193728D03*
X294699Y151396D03*
Y161396D03*
X304618Y46287D03*
Y56287D03*
Y66287D03*
Y76287D03*
Y86287D03*
X314618Y46287D03*
Y56287D03*
Y66287D03*
Y76287D03*
Y86287D03*
D02*
D77*
X36372Y165697D03*
X46308Y85961D03*
X54789Y99219D03*
X59781Y30203D03*
X64024Y108829D03*
X67893Y35320D03*
X76006Y59282D03*
X76261Y65630D03*
X77384Y85337D03*
X80005Y55509D03*
Y60626D03*
X80254Y50268D03*
X84248Y55634D03*
Y60751D03*
X84498Y50393D03*
X84795Y83091D03*
X87944Y85961D03*
X88491Y55634D03*
Y60751D03*
X88741Y50393D03*
X90987Y90954D03*
X92984Y55634D03*
Y60751D03*
X93234Y50393D03*
X94244Y87958D03*
X96848Y94601D03*
X97228Y79971D03*
X102969Y75977D03*
X102977Y24565D03*
X105958Y34321D03*
X109328Y30203D03*
Y96848D03*
X112448Y56181D03*
X114089Y34909D03*
X114694Y53031D03*
X114788Y26661D03*
X114876Y23236D03*
X116941Y115923D03*
X118189Y56536D03*
X120935Y69612D03*
X122432Y74383D03*
X124180Y77753D03*
X124304Y169992D03*
X126028Y23846D03*
X129709D03*
X133134D03*
X134066Y69608D03*
Y74608D03*
X136559Y23846D03*
X136845Y40352D03*
X137268Y33856D03*
X137435Y28856D03*
X193853Y165697D03*
X203788Y85961D03*
X212269Y99219D03*
X217261Y30203D03*
X221505Y108829D03*
X225374Y35320D03*
X233486Y59282D03*
X233741Y65630D03*
X234864Y85337D03*
X237485Y55509D03*
Y60626D03*
X237735Y50268D03*
X241728Y55634D03*
Y60751D03*
X241978Y50393D03*
X242275Y83091D03*
X245425Y85961D03*
X245972Y55634D03*
Y60751D03*
X246221Y50393D03*
X248468Y90954D03*
X250465Y55634D03*
Y60751D03*
X250714Y50393D03*
X251724Y87958D03*
X254328Y94601D03*
X254708Y79971D03*
X260449Y75977D03*
X260457Y24565D03*
X263439Y34321D03*
X266808Y30203D03*
Y96848D03*
X269928Y56181D03*
X271569Y34909D03*
X272175Y53031D03*
X272268Y26661D03*
X272357Y23236D03*
X274421Y115923D03*
X275669Y56536D03*
X278415Y69612D03*
X279913Y74383D03*
X281660Y77753D03*
X281785Y169992D03*
X283508Y23846D03*
X287189D03*
X290615D03*
X291546Y69608D03*
Y74608D03*
X294040Y23846D03*
X294325Y40352D03*
X294748Y33856D03*
X294916Y28856D03*
D02*
D78*
X28341Y51115D02*
X28156D01*
X22970Y45928*
Y38780*
X26430Y35320*
X67893*
X38341Y81115D02*
Y80470D01*
X42834Y75977*
X102969*
X46308Y85961D02*
Y85712D01*
X52049Y79971*
X97228*
X47126Y110548D02*
Y110276D01*
X43057Y106208*
X35076*
X33079Y104211*
Y68517*
X35603Y65993*
X69919*
X73385Y62527*
X73509*
X76006Y60031*
Y59282*
X47126Y110548D02*
X38341D01*
Y111115*
X76261Y65630D02*
Y71115D01*
X38341*
X77384Y85337D02*
X77129D01*
Y105783*
X49502Y133409*
Y138042*
X49422Y138122*
Y167483*
X58512Y176573*
X72154*
X78080Y182499*
Y186403*
X78806Y153696D02*
Y136178D01*
X90987Y123996*
Y90954*
X84795Y83091D02*
X84622D01*
X79880Y87833*
Y113708*
X52168Y141420*
Y164503*
X61403Y173738*
X93612*
X102043Y182169*
Y186528*
X87944Y85961D02*
Y92748D01*
X83119Y97574*
Y115328*
X54789Y143658*
Y163171*
X62650Y171031*
X114954*
X126254Y182332*
Y186902*
X103049Y154445D02*
Y144041D01*
X109220Y137869*
Y113543*
X94244Y98567*
Y87958*
X105958Y34321D02*
Y85740D01*
X97097Y94601*
X96848*
X109328Y30203D02*
Y96848D01*
X112448Y56181D02*
Y97960D01*
X126551Y112063*
Y153821*
X114694Y53031D02*
X115443D01*
Y89484*
X153798Y127839*
Y154195*
X118189Y56536D02*
Y76130D01*
X146774Y104716*
Y109056*
X160622Y122903*
Y157639*
X152962Y165298*
Y186278*
X120211Y26888D02*
Y15736D01*
X102977*
Y24565*
X120211Y26888D02*
Y16367D01*
X120258*
X120211Y39486D02*
Y44801D01*
Y50160*
X120264*
Y54634*
X120935*
Y69612*
X121057*
Y69391*
X134066Y69608D02*
X138469D01*
Y61425*
X157138*
Y66287*
X134066Y74608D02*
X141796D01*
Y71120*
X147138*
Y66287*
X134945Y69299D02*
Y69608D01*
X134066*
X134945Y74850D02*
X134066D01*
Y74608*
X147138Y46287D02*
X120211D01*
Y44801*
X157138Y46287D02*
X147138D01*
X185821Y51115D02*
X185637D01*
X180450Y45928*
Y38780*
X183911Y35320*
X225374*
X195821Y81115D02*
Y80470D01*
X200314Y75977*
X260449*
X203788Y85961D02*
Y85712D01*
X209529Y79971*
X254708*
X204606Y110548D02*
Y110276D01*
X200538Y106208*
X192556*
X190559Y104211*
Y68517*
X193083Y65993*
X227399*
X230865Y62527*
X230990*
X233486Y60031*
Y59282*
X204606Y110548D02*
X195821D01*
Y111115*
X233741Y65630D02*
Y71115D01*
X195821*
X234864Y85337D02*
X234609D01*
Y105783*
X206983Y133409*
Y138042*
X206903Y138122*
Y167483*
X215993Y176573*
X229634*
X235561Y182499*
Y186403*
X236286Y153696D02*
Y136178D01*
X248468Y123996*
Y90954*
X242275Y83091D02*
X242103D01*
X237360Y87833*
Y113708*
X209648Y141420*
Y164503*
X218883Y173738*
X251093*
X259523Y182169*
Y186528*
X245425Y85961D02*
Y92748D01*
X240600Y97574*
Y115328*
X212269Y143658*
Y163171*
X220130Y171031*
X272434*
X283735Y182332*
Y186902*
X260529Y154445D02*
Y144041D01*
X266700Y137869*
Y113543*
X251724Y98567*
Y87958*
X263439Y34321D02*
Y85740D01*
X254578Y94601*
X254328*
X266808Y30203D02*
Y96848D01*
X269928Y56181D02*
Y97960D01*
X284031Y112063*
Y153821*
X272175Y53031D02*
X272924D01*
Y89484*
X311278Y127839*
Y154195*
X275669Y56536D02*
Y76130D01*
X304255Y104716*
Y109056*
X318102Y122903*
Y157639*
X310443Y165298*
Y186278*
X277691Y26888D02*
Y15736D01*
X260457*
Y24565*
X277691Y26888D02*
Y16367D01*
X277739*
X277691Y39486D02*
Y44801D01*
Y50160*
X277744*
Y54634*
X278415*
Y69612*
X278538*
Y69391*
X291546Y69608D02*
X295949D01*
Y61425*
X314618*
Y66287*
X291546Y74608D02*
X299276D01*
Y71120*
X304618*
Y66287*
X292426Y69299D02*
Y69608D01*
X291546*
X292426Y74850D02*
X291546D01*
Y74608*
X304618Y46287D02*
X277691D01*
Y44801*
X314618Y46287D02*
X304618D01*
D02*
D87*
X120211Y26888D03*
Y39486D03*
X277691Y26888D03*
Y39486D03*
D02*
D88*
X120309Y33187D03*
X277790D03*
D02*
D89*
X128872D03*
X286353D03*
D02*
D90*
X60388Y161602D02*
X74235D01*
Y161139*
X73509Y193845D02*
X60093D01*
Y193853*
X97472Y193970D02*
Y193853D01*
X86115*
X98478Y161887D02*
X86294D01*
Y161646*
X121683Y194344D02*
Y194228D01*
X110821*
X121980Y161263D02*
Y161521D01*
X111215*
X137219Y161396D02*
X149227D01*
Y161638*
X148391Y193720D02*
X137034D01*
Y193728*
X217869Y161602D02*
X231715D01*
Y161139*
X230990Y193845D02*
X217573D01*
Y193853*
X254952Y193970D02*
Y193853D01*
X243595*
X255958Y161887D02*
X243774D01*
Y161646*
X279164Y194344D02*
Y194228D01*
X268302*
X279461Y161263D02*
Y161521D01*
X268695*
X294699Y161396D02*
X306707D01*
Y161638*
X305872Y193720D02*
X294515D01*
Y193728*
D02*
D91*
X21591Y18738D03*
Y198581D03*
X162081Y18738D03*
Y198581D03*
X179072Y18738D03*
Y198581D03*
X319561Y18738D03*
Y198581D03*
D02*
D111*
X68845Y186403D03*
X69570Y153696D03*
X73509Y193845D03*
X74235Y161139D03*
X78080Y186403D03*
X78806Y153696D03*
X92807Y186528D03*
X93813Y154445D03*
X97472Y193970D03*
X98478Y161887D03*
X102043Y186528D03*
X103049Y154445D03*
X117019Y186902D03*
X117316Y153821D03*
X121683Y194344D03*
X121980Y161263D03*
X126254Y186902D03*
X126551Y153821D03*
X143727Y186278D03*
X144562Y154195D03*
X148391Y193720D03*
X149227Y161638D03*
X152962Y186278D03*
X153798Y154195D03*
X226325Y186403D03*
X227050Y153696D03*
X230990Y193845D03*
X231715Y161139D03*
X235561Y186403D03*
X236286Y153696D03*
X250287Y186528D03*
X251294Y154445D03*
X254952Y193970D03*
X255958Y161887D03*
X259523Y186528D03*
X260529Y154445D03*
X274499Y186902D03*
X274796Y153821D03*
X279164Y194344D03*
X279461Y161263D03*
X283735Y186902D03*
X284031Y153821D03*
X301207Y186278D03*
X302043Y154195D03*
X305872Y193720D03*
X306707Y161638D03*
X310443Y186278D03*
X311278Y154195D03*
X0Y0D02*
M02*
