G04 EasyPC Gerber Version 21.0.3 Build 4286 *
G04 #@! TF.Part,Single*
G04 #@! TF.FileFunction,Copper,L1,Top *
G04 #@! TF.FilePolarity,Positive *
%FSLAX45Y45*%
%MOIN*%
G04 #@! TA.AperFunction,SMDPad*
%ADD28R,0.02362X0.05807*%
%ADD25R,0.02559X0.03937*%
%ADD93R,0.03346X0.03740*%
G04 #@! TD.AperFunction*
%ADD70C,0.00500*%
%ADD71C,0.01000*%
%ADD78C,0.01500*%
G04 #@! TA.AperFunction,ViaPad*
%ADD77C,0.02362*%
G04 #@! TD.AperFunction*
%ADD90C,0.05000*%
G04 #@! TA.AperFunction,ComponentPad*
%ADD74C,0.06693*%
G04 #@! TA.AperFunction,WasherPad*
%ADD91C,0.13386*%
G04 #@! TA.AperFunction,SMDPad*
%ADD73R,0.08268X0.01575*%
%ADD27R,0.05807X0.02362*%
%ADD26R,0.03937X0.02559*%
%ADD92R,0.05906X0.02559*%
%ADD29R,0.03740X0.03346*%
X0Y0D02*
D02*
D70*
X43063Y64081D02*
X41352D01*
G75*
G02X38341Y56888I-3011J-2966*
G01*
G75*
G02X35116Y58383J4226*
G01*
Y54389*
G75*
G02X42937Y51115I3225J-3275*
G01*
G75*
G02X35116Y47840I-4596*
G01*
Y43846*
G75*
G02X41696Y43685I3225J-2731*
G01*
X51168*
Y55815*
G75*
G02X52798Y57445I1630*
G01*
X56949*
Y57974*
X62646*
Y57969*
X65900*
Y60693*
X65757*
X64962Y59833*
G75*
G02X63648Y59260I-1312J1214*
G01*
X57784*
G75*
G02X57140Y59380J1787*
G01*
X52770*
Y62715*
X57140*
G75*
G02X57784Y62835I644J-1667*
G01*
X62869*
X63665Y63694*
G75*
G02X64978Y64268I1312J-1214*
G01*
X65239*
G75*
G02X65128Y64370I1159J1363*
G01*
X63168Y66342*
Y63734*
X52400*
Y67809*
X61739*
X60885Y68709*
X57784*
G75*
G02X57140Y68829J1787*
G01*
X52770*
Y72163*
X57140*
G75*
G02X57784Y72283I644J-1667*
G01*
X61652*
G75*
G02X62297Y72163I2J-1787*
G01*
X62798*
Y71869*
G75*
G02X62950Y71727I-1143J-1374*
G01*
X64932Y69638*
X65900Y68664*
Y70148*
X62507Y73541*
X57431*
Y73913*
X53604*
X47320Y67597*
G75*
G02X47315Y67592I-1251J1156*
G01*
X44329Y64606*
G75*
G02X43063Y64081I-1266J1262*
G01*
G36*
X41352*
G75*
G02X38341Y56888I-3011J-2966*
G01*
G75*
G02X35116Y58383J4226*
G01*
Y54389*
G75*
G02X42937Y51115I3225J-3275*
G01*
G75*
G02X35116Y47840I-4596*
G01*
Y43846*
G75*
G02X41696Y43685I3225J-2731*
G01*
X51168*
Y55815*
G75*
G02X52798Y57445I1630*
G01*
X56949*
Y57974*
X62646*
Y57969*
X65900*
Y60693*
X65757*
X64962Y59833*
G75*
G02X63648Y59260I-1312J1214*
G01*
X57784*
G75*
G02X57140Y59380J1787*
G01*
X52770*
Y62715*
X57140*
G75*
G02X57784Y62835I644J-1667*
G01*
X62869*
X63665Y63694*
G75*
G02X64978Y64268I1312J-1214*
G01*
X65239*
G75*
G02X65128Y64370I1159J1363*
G01*
X63168Y66342*
Y63734*
X52400*
Y67809*
X61739*
X60885Y68709*
X57784*
G75*
G02X57140Y68829J1787*
G01*
X52770*
Y72163*
X57140*
G75*
G02X57784Y72283I644J-1667*
G01*
X61652*
G75*
G02X62297Y72163I2J-1787*
G01*
X62798*
Y71869*
G75*
G02X62950Y71727I-1143J-1374*
G01*
X64932Y69638*
X65900Y68664*
Y70148*
X62507Y73541*
X57431*
Y73913*
X53604*
X47320Y67597*
G75*
G02X47315Y67592I-1251J1156*
G01*
X44329Y64606*
G75*
G02X43063Y64081I-1266J1262*
G01*
G37*
X73467Y57494D02*
Y44854D01*
X94963*
Y45224*
X99270*
Y64000*
X77522*
G75*
G02X74200Y65630I-1261J1630*
G01*
G75*
G02X77522Y67260I2061*
G01*
X99270*
Y70657*
X77778*
Y70287*
X73467*
Y61069*
X74980*
G75*
G02X78067Y59282I1026J-1787*
G01*
G75*
G02X74980Y57494I-2061*
G01*
X73467*
G36*
Y44854*
X94963*
Y45224*
X99270*
Y64000*
X77522*
G75*
G02X74200Y65630I-1261J1630*
G01*
G75*
G02X77522Y67260I2061*
G01*
X99270*
Y70657*
X77778*
Y70287*
X73467*
Y61069*
X74980*
G75*
G02X78067Y59282I1026J-1787*
G01*
G75*
G02X74980Y57494I-2061*
G01*
X73467*
G37*
X99825Y36917D02*
X97555D01*
X98521Y35951*
X104697*
G75*
G02X108019Y34321I1261J-1630*
G01*
G75*
G02X104697Y32691I-2061*
G01*
X97900*
X98758Y31833*
X108067*
G75*
G02X111389Y30203I1261J-1630*
G01*
G75*
G02X108067Y28573I-2061*
G01*
X98083*
G75*
G02X96929Y29052J1630*
G01*
X89943Y36038*
G75*
G02X89464Y37192I1151J1154*
G01*
Y37287*
X73286*
Y44671*
X69681*
Y36346*
G75*
G02X69954Y35320I-1787J-1026*
G01*
G75*
G02X65832I-2061*
G01*
G75*
G02X66106Y36346I2061*
G01*
Y44671*
X65900*
Y54394*
X62646*
Y53656*
X56949*
Y54185*
X54428*
Y42957*
X71180Y26382*
X76874*
G75*
G02X77670Y26195J-1788*
G01*
X104827*
G75*
G02X105981Y25716J-1630*
G01*
X109404Y22293*
X116307Y29197*
Y42972*
X115037Y44242*
X109357*
Y45102*
X106837*
Y44671*
X99825*
Y36917*
X108987Y43380D02*
X115424D01*
Y38321*
X108987*
Y43380*
X56579Y52793D02*
X63016D01*
Y47734*
X56579*
Y52793*
X116057Y28947D02*
G36*
Y40850D01*
X115424*
Y38321*
X108987*
Y40850*
X99825*
Y36917*
X97555*
X98521Y35951*
X104697*
G75*
G02X108019Y34321I1261J-1630*
G01*
G75*
G02X104697Y32691I-2061*
G01*
X97900*
X98758Y31833*
X108067*
G75*
G02X111389Y30203I1261J-1630*
G01*
G75*
G02X108067Y28573I-2061*
G01*
X98083*
G75*
G02X96929Y29052I0J1629*
G01*
X89943Y36038*
G75*
G02X89464Y37191I1150J1154*
G01*
Y37192*
Y37287*
X73286*
Y40850*
X69681*
Y36346*
G75*
G02X69954Y35320I-1788J-1026*
G01*
G75*
G02X65832I-2061*
G01*
G75*
G02X66106Y36346I2062J0*
G01*
Y40850*
X56556*
X71180Y26382*
X76874*
G75*
G02X77670Y26195I2J-1781*
G01*
X104827*
G75*
G02X105981Y25716I0J-1629*
G01*
X109154Y22543*
X109654*
X116057Y28947*
G37*
X65900Y50264D02*
G36*
X63016D01*
Y47734*
X56579*
Y50264*
X54678*
Y42709*
X56556Y40850*
X66106*
Y44671*
X65900*
Y50264*
G37*
X73286Y40850D02*
G36*
Y44671D01*
X69681*
Y40850*
X73286*
G37*
X116057Y43222D02*
G36*
X115037Y44242D01*
X109357*
Y45102*
X106837*
Y44671*
X99825*
Y40850*
X108987*
Y43380*
X115424*
Y40850*
X116057*
Y43222*
G37*
X65900Y54144D02*
G36*
X62646D01*
Y53656*
X56949*
Y54144*
X54678*
Y50264*
X56579*
Y52793*
X63016*
Y50264*
X65900*
Y54144*
G37*
X168904Y195295D02*
G75*
G02X154508Y198581I-6823J3286D01*
G01*
G75*
G02X158795Y205404I7573*
G01*
X24877*
G75*
G02X29164Y198581I-3286J-6823*
G01*
G75*
G02X14786Y195259I-7573*
G01*
Y22060*
G75*
G02X29164Y18738I6806J-3322*
G01*
G75*
G02X24877Y11915I-7573*
G01*
X158795*
G75*
G02X154508Y18738I3286J6823*
G01*
G75*
G02X168904Y22024I7573*
G01*
Y195295*
X119902Y71396D02*
G75*
G02X122996Y69612I1033J-1783D01*
G01*
G75*
G02X119915Y67821I-2061*
G01*
X116640*
Y67449*
X109341*
Y66768*
X116640*
Y62449*
X113227*
X108847Y58069*
G75*
G02X108522Y57811I-1266J1262*
G01*
X111187*
G75*
G02X114150Y55019I1261J-1630*
G01*
G75*
G02X116559Y53910I544J-1988*
G01*
Y55275*
G75*
G02X116128Y56536I1630J1261*
G01*
G75*
G02X120250I2061*
G01*
G75*
G02X119819Y55275I-2061*
G01*
Y52418*
G75*
G02X119340Y51264I-1630*
G01*
X116807Y48731*
G75*
G02X115653Y48252I-1154J1151*
G01*
X115054*
Y48033*
X115181*
G75*
G02X116335Y47555J-1630*
G01*
X119089Y44800*
G75*
G02X119567Y43647I-1151J-1154*
G01*
Y28522*
G75*
G02X119089Y27368I-1630*
G01*
X111448Y19728*
G75*
G02X107359I-2044J261*
G01*
X104152Y22935*
X78662*
Y20793*
X79034*
Y15096*
X74715*
Y20793*
X75087*
Y22807*
X70446*
G75*
G02X69188Y23324I-1J1787*
G01*
X51904Y40425*
X42511*
G75*
G02X34570Y39207I-4170J689*
G01*
X34062*
G75*
G02X32595I-733J1630*
G01*
X32112*
G75*
G02X24115Y41115I-3771J1908*
G01*
G75*
G02X31541Y43876I4226*
G01*
Y48354*
G75*
G02X24115Y51115I-3200J2761*
G01*
G75*
G02X31541Y53876I4226*
G01*
Y58354*
G75*
G02X24339Y62472I-3200J2761*
G01*
X20945Y65866*
G75*
G02X20466Y67020I1151J1154*
G01*
Y82620*
G75*
G02X20945Y83774I1630*
G01*
X24283Y87113*
G75*
G02X25390Y87591I1154J-1151*
G01*
G75*
G02X28341Y95711I2951J3524*
G01*
G75*
G02X31293Y87591J-4596*
G01*
X36007*
G75*
G02X38341Y95341I2334J3523*
G01*
G75*
G02X40675Y87591J-4226*
G01*
X45046*
G75*
G02X48369Y85961I1261J-1630*
G01*
G75*
G02X45046Y84331I-2061*
G01*
X41082*
G75*
G02X38341Y76888I-2741J-3217*
G01*
G75*
G02X35600Y84331J4226*
G01*
X31624*
G75*
G02X28341Y76518I-3283J-3217*
G01*
G75*
G02X23843Y82062J4596*
G01*
X23726Y81945*
Y67695*
X26501Y64920*
G75*
G02X31541Y63876I1840J-3805*
G01*
Y65868*
G75*
G02X33328Y67656I1787*
G01*
X35913*
G75*
G02X38341Y75341I2428J3459*
G01*
G75*
G02X40769Y67656J-4226*
G01*
X42322*
X44787Y70119*
X51594Y76961*
G75*
G02X52861Y77487I1267J-1261*
G01*
X57431*
Y77860*
X63128*
Y77470*
G75*
G02X64143Y76962I-252J-1770*
G01*
X70264Y70841*
X72916*
Y78594*
X74989*
X71004Y82579*
G75*
G02X70479Y83845I1262J1266*
G01*
Y91128*
X70105*
Y96825*
X74424*
Y91128*
X74054*
Y84585*
X78373Y80265*
X79699Y79057*
G75*
G02X79857Y78893I-1206J-1320*
G01*
Y80133*
X76446Y83502*
G75*
G02X75323Y85337I938J1835*
G01*
G75*
G02X79431Y85579I2061*
G01*
X82431Y82615*
G75*
G02X82441Y82604I-1268J-1233*
G01*
X82908Y82137*
G75*
G02X83165Y81812I-1264J-1265*
G01*
Y81830*
G75*
G02X86315Y84483I1630J1261*
G01*
Y84700*
G75*
G02X89200Y87596I1630J1261*
G01*
Y89928*
G75*
G02X88926Y90954I1787J1026*
G01*
G75*
G02X93048I2061*
G01*
G75*
G02X92775Y89928I-2061*
G01*
Y89404*
G75*
G02X95874Y86697I1469J-1446*
G01*
Y81525*
G75*
G02X98857Y78709I1354J-1554*
G01*
Y78224*
X99455*
Y70841*
X101181*
Y74951*
G75*
G02X100907Y75977I1787J1026*
G01*
G75*
G02X105030I2061*
G01*
G75*
G02X104756Y74951I-2061*
G01*
Y70841*
X106081*
Y76879*
G75*
G02X106560Y78033I1630*
G01*
X108975Y80448*
Y81768*
X116640*
Y77449*
X110586*
X110275Y77138*
X117010*
Y72079*
X109341*
Y71768*
X116640*
Y71396*
X119902*
X23744Y71115D02*
G75*
G02X32937I4596D01*
G01*
G75*
G02X23744I-4596*
G01*
X52268Y20843D02*
X58115D01*
Y14602*
X52268*
Y20843*
X69164Y20793D02*
X73483D01*
Y15096*
X69164*
Y16093*
X64044*
Y14972*
X58937*
Y20472*
X64044*
Y19352*
X69164*
Y20793*
X34115Y101115D02*
G75*
G02X42567I4226D01*
G01*
G75*
G02X34115I-4226*
G01*
Y111115D02*
G75*
G02X42567I4226D01*
G01*
G75*
G02X34115I-4226*
G01*
Y121115D02*
G75*
G02X42567I4226D01*
G01*
G75*
G02X34115I-4226*
G01*
Y131115D02*
G75*
G02X42567I4226D01*
G01*
G75*
G02X34115I-4226*
G01*
X162909Y163414D02*
G75*
G02X163901Y161022I-2388J-2392D01*
G01*
Y136248*
G75*
G02X160521Y132868I-3380*
G01*
X157557*
Y123007*
G75*
G02X160518Y119654I-420J-3354*
G01*
Y88824*
G75*
G02X154600Y82907I-3380J-2537*
G01*
X149675*
G75*
G02X142911Y86287I-2537J3380*
G01*
G75*
G02X149675Y89667I4226*
G01*
X153758*
Y115448*
G75*
G02X150798Y122191I420J4206*
G01*
Y132868*
X123688*
X118282Y127462*
G75*
G02X117311Y126138I-3130J1277*
G01*
Y125890*
X116971*
G75*
G02X113333I-1819J2848*
G01*
X112993*
Y126138*
G75*
G02X111772Y128738I2159J2600*
G01*
Y129112*
G75*
G02X112764Y131504I3380*
G01*
X119896Y138636*
G75*
G02X122288Y139628I2392J-2388*
G01*
X157141*
Y148016*
X139756*
G75*
G02X134726Y147983I-2537J3380*
G01*
X113528*
G75*
G02X108902I-2313J3538*
G01*
X88403*
G75*
G02X84048Y148065I-2109J3663*
G01*
X62701*
G75*
G02X56162Y151602I-2313J3537*
G01*
G75*
G02X62701Y155140I4227J0*
G01*
X83916*
G75*
G02X88787Y155058I2378J-3494*
G01*
X108902*
G75*
G02X113528I2313J-3538*
G01*
X135109*
G75*
G02X139756Y154776I2109J-3662*
G01*
X157141*
Y159622*
X137255Y179508*
G75*
G02X137034Y179502I-223J4219*
G01*
G75*
G02X133942Y180848J4226*
G01*
X113359*
G75*
G02X108880Y180473I-2537J3380*
G01*
X88652*
G75*
G02X83577I-2537J3380*
G01*
X62630*
G75*
G02X55867Y183853I-2537J3380*
G01*
G75*
G02X62630Y187233I4226*
G01*
X83577*
G75*
G02X88652I2537J-3380*
G01*
X107850*
G75*
G02X113359Y187607I2971J-3006*
G01*
X135357*
G75*
G02X140911Y185412I1678J-3879*
G01*
X162909Y163414*
X152541Y56287D02*
G75*
G02X161734I4596D01*
G01*
G75*
G02X152541I-4596*
G01*
X152911Y46287D02*
G75*
G02X161364I4226D01*
G01*
G75*
G02X152911I-4226*
G01*
Y66287D02*
G75*
G02X161364I4226D01*
G01*
G75*
G02X152911I-4226*
G01*
Y76287D02*
G75*
G02X161364I4226D01*
G01*
G75*
G02X152911I-4226*
G01*
X130235Y66768D02*
X137900D01*
Y62449*
X130235*
Y66768*
Y71768D02*
X137900D01*
Y67449*
X130235*
Y71768*
Y76768D02*
X137900D01*
Y72449*
X130235*
Y76768*
X135906Y90543D02*
X141603D01*
Y86224*
X140384*
Y79608*
G75*
G02X138754Y77978I-1630*
G01*
X137900*
Y77449*
X130235*
Y81768*
X137124*
Y86224*
X135906*
Y90543*
X135536Y96465D02*
X141973D01*
Y91406*
X135536*
Y96465*
X139739Y119654D02*
G75*
G02X148931I4596D01*
G01*
G75*
G02X139739I-4596*
G01*
X142541Y56287D02*
G75*
G02X151734I4596D01*
G01*
G75*
G02X142541I-4596*
G01*
X142911Y46287D02*
G75*
G02X151364I4226D01*
G01*
G75*
G02X142911I-4226*
G01*
Y66287D02*
G75*
G02X151364I4226D01*
G01*
G75*
G02X142911I-4226*
G01*
Y76287D02*
G75*
G02X151364I4226D01*
G01*
G75*
G02X142911I-4226*
G01*
X91244Y131947D02*
X97091D01*
Y125707*
X91244*
Y131947*
X116201Y96695D02*
X117321D01*
Y91589*
X111821*
Y96695*
X112941*
Y99665*
X108471Y104136*
X107754*
Y102917*
X104259*
X108459Y98717*
G75*
G02X111390Y96848I869J-1870*
G01*
G75*
G02X108065Y95218I-2062*
G01*
X108024*
G75*
G02X106870Y95696J1630*
G01*
X99649Y102917*
X98731*
Y95863*
G75*
G02X99162Y94601I-1630J-1261*
G01*
G75*
G02X95040I-2061*
G01*
G75*
G02X95471Y95863I2061*
G01*
Y110224*
G75*
G02X95950Y111378I1630*
G01*
X97874Y113303*
Y115770*
X102193*
Y110073*
X99254*
X98731Y109549*
Y108614*
X102203*
Y104974*
X103435Y103741*
Y108614*
X107754*
Y107396*
X109146*
G75*
G02X110300Y106917J-1630*
G01*
X115722Y101494*
G75*
G02X116201Y100341I-1151J-1154*
G01*
Y96695*
X111451Y90766D02*
X117691D01*
Y84919*
X111451*
Y90766*
X107441Y131587D02*
X111760D01*
Y125890*
X107441*
Y126951*
X103020*
Y126077*
X97914*
Y131577*
X103020*
Y130526*
X107441*
Y131587*
X124804Y96567D02*
X125924D01*
Y91461*
X120424*
Y96567*
X121544*
Y99805*
X110057Y111291*
X107744*
Y110073*
X103426*
Y115770*
X107744*
Y114551*
X110732*
G75*
G02X111886Y114072J-1630*
G01*
X124325Y101634*
G75*
G02X124804Y100480I-1151J-1154*
G01*
Y96567*
X120054Y90638D02*
X126294D01*
Y84791*
X120054*
Y90638*
X64183Y97195D02*
X69243D01*
Y90758*
X64183*
Y97195*
X57061Y83781D02*
X63498D01*
Y78722*
X57061*
Y83781*
X132993Y161396D02*
G75*
G02X141445I4226D01*
G01*
G75*
G02X132993I-4226*
G01*
X106989Y161521D02*
G75*
G02X115441I4226D01*
G01*
G75*
G02X106989I-4226*
G01*
X82067Y161646D02*
G75*
G02X90520I4226D01*
G01*
G75*
G02X82067I-4226*
G01*
X56162Y161602D02*
G75*
G02X64615I4226D01*
G01*
G75*
G02X56162I-4226*
G01*
X55867Y193853D02*
G75*
G02X64319I4226D01*
G01*
G75*
G02X55867I-4226*
G01*
X81888D02*
G75*
G02X90341I4226D01*
G01*
G75*
G02X81888I-4226*
G01*
X106595Y194228D02*
G75*
G02X115048I4226D01*
G01*
G75*
G02X106595I-4226*
G01*
X132808Y193728D02*
G75*
G02X141261I4226D01*
G01*
G75*
G02X132808I-4226*
G01*
X23744Y101115D02*
G75*
G02X32937I4596D01*
G01*
G75*
G02X23744I-4596*
G01*
Y121115D02*
G75*
G02X32937I4596D01*
G01*
G75*
G02X23744I-4596*
G01*
X24115Y111115D02*
G75*
G02X32567I4226D01*
G01*
G75*
G02X24115I-4226*
G01*
X23744Y131115D02*
G75*
G02X32937I4596D01*
G01*
G75*
G02X23744I-4596*
G01*
X154577Y17722D02*
G36*
X79034D01*
Y15096*
X74715*
Y17722*
X73483*
Y15096*
X69164*
Y16093*
X64044*
Y14972*
X58937*
Y17722*
X58115*
Y14602*
X52268*
Y17722*
X29096*
G75*
G02X25352Y12165I-7505J1016*
G01*
X158320*
G75*
G02X154577Y17722I3761J6573*
G01*
G37*
X31541Y46287D02*
G36*
X15036D01*
Y22530*
G75*
G02X29164Y18738I6556J-3791*
G01*
G75*
G02X29096Y17722I-7573J0*
G01*
X52268*
Y20843*
X58115*
Y17722*
X58937*
Y20472*
X64044*
Y19352*
X69164*
Y20793*
X73483*
Y17722*
X74715*
Y20793*
X75087*
Y22807*
X70446*
G75*
G02X69188Y23324I0J1789*
G01*
X51904Y40425*
X42511*
G75*
G02X34570Y39207I-4170J689*
G01*
X34062*
G75*
G02X32595I-733J1630*
G01*
X32112*
G75*
G02X24115Y41115I-3771J1908*
G01*
G75*
G02X31541Y43876I4226*
G01*
Y46287*
G37*
X168654Y22499D02*
G36*
Y46287D01*
X161364*
G75*
G02X152911I-4226*
G01*
X151364*
G75*
G02X142911I-4226*
G01*
X117603*
X119089Y44800*
G75*
G02X119567Y43647I-1150J-1154*
G01*
Y28522*
Y28521*
G75*
G02X119089Y27368I-1629*
G01*
X111448Y19728*
G75*
G02X107359I-2044J261*
G01*
X104152Y22935*
X78662*
Y20793*
X79034*
Y17722*
X154577*
G75*
G02X154508Y18738I7505J1016*
G01*
G75*
G02X168654Y22499I7573*
G01*
G37*
X31541Y46287D02*
G36*
Y48354D01*
G75*
G02X24115Y51115I-3200J2761*
G01*
G75*
G02X31541Y53876I4226*
G01*
Y55961*
X15036*
Y46287*
X31541*
G37*
X116210Y55961D02*
G36*
X114497D01*
G75*
G02X114150Y55019I-2049J220*
G01*
G75*
G02X116559Y53910I544J-1988*
G01*
Y55275*
G75*
G02X116210Y55961I1628J1261*
G01*
G37*
X161723D02*
G36*
G75*
G02X152553I-4585J326D01*
G01*
X151723*
G75*
G02X142553I-4585J326*
G01*
X120168*
G75*
G02X119819Y55275I-1977J575*
G01*
Y52418*
Y52417*
G75*
G02X119340Y51264I-1629*
G01*
X116807Y48731*
G75*
G02X115653Y48252I-1154J1150*
G01*
X115054*
Y48033*
X115181*
G75*
G02X116335Y47555I0J-1629*
G01*
X117603Y46287*
X142911*
G75*
G02X151364I4226*
G01*
X152911*
G75*
G02X161364I4226*
G01*
X168654*
Y55961*
X161723*
G37*
X31541D02*
G36*
Y58354D01*
G75*
G02X24115Y61114I-3200J2761*
G01*
G75*
G02X24339Y62472I4226*
G01*
X20945Y65866*
G75*
G02X20640Y66287I1150J1153*
G01*
X15036*
Y55961*
X31541*
G37*
X31591Y66287D02*
G36*
X25134D01*
X26501Y64920*
G75*
G02X31541Y63876I1840J-3805*
G01*
Y65868*
G75*
G02X31591Y66287I1788J-1*
G01*
G37*
X137900D02*
G36*
Y62449D01*
X130235*
Y66287*
X116640*
Y62449*
X113227*
X108847Y58069*
G75*
G02X108522Y57811I-1255J1248*
G01*
X111187*
G75*
G02X114509Y56181I1261J-1630*
G01*
G75*
G02X114497Y55961I-2060*
G01*
X116210*
G75*
G02X116128Y56535I1977J575*
G01*
G75*
G02Y56536I2374J0*
G01*
G75*
G02X120250I2061*
G01*
G75*
G02Y56535I-2374J0*
G01*
G75*
G02X120168Y55961I-2059*
G01*
X142553*
G75*
G02X142541Y56287I4586J324*
G01*
G75*
G02X151734I4596*
G01*
G75*
G02X151723Y55961I-4597J-3*
G01*
X152553*
G75*
G02X152541Y56287I4586J324*
G01*
G75*
G02X161734I4596*
G01*
G75*
G02X161723Y55961I-4597J-3*
G01*
X168654*
Y66287*
X161364*
G75*
G02X152911I-4226*
G01*
X151364*
G75*
G02X142911I-4226*
G01*
X137900*
G37*
X20640D02*
G36*
G75*
G02X20466Y67019I1455J733D01*
G01*
Y67020*
Y71115*
X15036*
Y66287*
X20640*
G37*
X31591D02*
G36*
G75*
G02X33328Y67656I1738J-419D01*
G01*
X35913*
G75*
G02X34115Y71115I2428J3459*
G01*
X32937*
G75*
G02X23744I-4596*
G01*
X23726*
Y67695*
X25134Y66287*
X31591*
G37*
X45777Y71115D02*
G36*
X42567D01*
G75*
G02X40769Y67656I-4226*
G01*
X42322*
X44787Y70119*
X45777Y71115*
G37*
X72916D02*
G36*
X69990D01*
X70264Y70841*
X72916*
Y71115*
G37*
X101181D02*
G36*
X99455D01*
Y70841*
X101181*
Y71115*
G37*
X106081D02*
G36*
X104756D01*
Y70841*
X106081*
Y71115*
G37*
X137900D02*
G36*
Y67449D01*
X130235*
Y71115*
X122346*
G75*
G02X122996Y69612I-1411J-1502*
G01*
G75*
G02X119915Y67821I-2061*
G01*
X116640*
Y67449*
X109341*
Y66768*
X116640*
Y66287*
X130235*
Y66768*
X137900*
Y66287*
X142911*
G75*
G02X151364I4226*
G01*
X152911*
G75*
G02X161364I4226*
G01*
X168654*
Y71115*
X137900*
G37*
X20466Y76287D02*
G36*
X15036D01*
Y71115*
X20466*
Y76287*
G37*
X45777Y71115D02*
G36*
X50924Y76287D01*
X23726*
Y71115*
X23744*
G75*
G02X32937I4596*
G01*
X34115*
G75*
G02X38341Y75341I4226*
G01*
G75*
G02X42567Y71115J-4226*
G01*
X45777*
G37*
X72916Y76287D02*
G36*
X64817D01*
X69990Y71115*
X72916*
Y76287*
G37*
X100931D02*
G36*
X99455D01*
Y71115*
X101181*
Y74951*
G75*
G02X100907Y75977I1788J1026*
G01*
G75*
G02X100931Y76287I2061J1*
G01*
G37*
X106081Y71115D02*
G36*
Y76287D01*
X105006*
G75*
G02X105030Y75977I-2038J-309*
G01*
G75*
G02X104756Y74951I-2062J0*
G01*
Y71115*
X106081*
G37*
X137900Y76287D02*
G36*
Y72449D01*
X130235*
Y76287*
X117010*
Y72079*
X109341*
Y71768*
X116640*
Y71396*
X119902*
G75*
G02X122346Y71115I1033J-1783*
G01*
X130235*
Y71768*
X137900*
Y71115*
X168654*
Y76287*
X161364*
G75*
G02X152911I-4226*
G01*
X151364*
G75*
G02X142911I-4226*
G01*
X137900*
G37*
X20466Y81252D02*
G36*
X15036D01*
Y76287*
X20466*
Y81252*
G37*
X72916Y76287D02*
G36*
Y78594D01*
X74989*
X72331Y81252*
X63498*
Y78722*
X57061*
Y81252*
X42565*
G75*
G02X42567Y81115I-4220J-129*
G01*
G75*
G02X38341Y76888I-4226*
G01*
G75*
G02X34115Y81115J4226*
G01*
G75*
G02X34117Y81252I4222J8*
G01*
X32935*
G75*
G02X32937Y81115I-4597J-135*
G01*
G75*
G02X28341Y76518I-4596*
G01*
G75*
G02X23744Y81115J4596*
G01*
G75*
G02X23746Y81252I4594J3*
G01*
X23726*
Y76287*
X50924*
X51594Y76961*
G75*
G02X52861Y77487I1268J-1262*
G01*
X57431*
Y77860*
X63128*
Y77470*
G75*
G02X64143Y76962I-251J-1768*
G01*
X64817Y76287*
X72916*
G37*
X78724Y81252D02*
G36*
X77386D01*
X78373Y80265*
X79699Y79057*
G75*
G02X79857Y78893I-1257J-1370*
G01*
Y80133*
X78724Y81252*
G37*
X106081Y76287D02*
G36*
Y76879D01*
Y76880*
G75*
G02X106560Y78033I1629*
G01*
X108975Y80448*
Y81252*
X98842*
G75*
G02X99289Y79971I-1615J-1281*
G01*
G75*
G02X98857Y78709I-2061*
G01*
Y78224*
X99455*
Y76287*
X100931*
G75*
G02X105006I2038J-310*
G01*
X106081*
G37*
X140384Y81252D02*
G36*
Y79608D01*
G75*
G02X138754Y77978I-1630*
G01*
X137900*
Y77449*
X130235*
Y81252*
X116640*
Y77449*
X110586*
X110275Y77138*
X117010*
Y76287*
X130235*
Y76768*
X137900*
Y76287*
X142911*
G75*
G02X151364I4226*
G01*
X152911*
G75*
G02X161364I4226*
G01*
X168654*
Y81252*
X140384*
G37*
X21167Y83996D02*
G36*
X15036D01*
Y81252*
X20466*
Y82620*
Y82620*
G75*
G02X20945Y83774I1629*
G01*
X21167Y83996*
G37*
X23746Y81252D02*
G36*
G75*
G02X23843Y82062I4594J-138D01*
G01*
X23726Y81945*
Y81252*
X23746*
G37*
X34117D02*
G36*
G75*
G02X35249Y83996I4224J-138D01*
G01*
X31922*
G75*
G02X32935Y81252I-3581J-2882*
G01*
X34117*
G37*
X72331D02*
G36*
X71004Y82579D01*
G75*
G02X70479Y83845I1262J1266*
G01*
Y83996*
X46929*
G75*
G02X45687I-621J1965*
G01*
X41433*
G75*
G02X42565Y81252I-3091J-2882*
G01*
X57061*
Y83781*
X63498*
Y81252*
X72331*
G37*
X78724D02*
G36*
X76446Y83502D01*
G75*
G02X75819Y83996I938J1836*
G01*
X74643*
X77386Y81252*
X78724*
G37*
X82943Y83996D02*
G36*
X81033D01*
X82431Y82615*
G75*
G02X82441Y82604I-144J-149*
G01*
X82908Y82137*
G75*
G02X83165Y81812I-1266J-1266*
G01*
Y81830*
G75*
G02X82734Y83091I1630J1261*
G01*
G75*
G02X82943Y83996I2061*
G01*
G37*
X137124D02*
G36*
X95874D01*
Y81525*
G75*
G02X98842Y81252I1354J-1554*
G01*
X108975*
Y81768*
X116640*
Y81252*
X130235*
Y81768*
X137124*
Y83996*
G37*
X160689D02*
G36*
G75*
G02X154600Y82907I-3552J2291D01*
G01*
X149675*
G75*
G02X143586Y83996I-2537J3380*
G01*
X140384*
Y81252*
X168654*
Y83996*
X160689*
G37*
X21167D02*
G36*
X24283Y87113D01*
G75*
G02X25390Y87591I1155J-1153*
G01*
G75*
G02X25113Y87843I2951J3525*
G01*
X15036*
Y83996*
X21167*
G37*
X35666Y87843D02*
G36*
X31569D01*
G75*
G02X31293Y87591I-3229J3270*
G01*
X36007*
G75*
G02X35666Y87843I2334J3526*
G01*
G37*
X35249Y83996D02*
G36*
G75*
G02X35600Y84331I3092J-2882D01*
G01*
X31624*
G75*
G02X31922Y83996I-3283J-3217*
G01*
X35249*
G37*
X45466Y87843D02*
G36*
X41016D01*
G75*
G02X40675Y87591I-2675J3274*
G01*
X45046*
G75*
G02X45466Y87843I1262J-1630*
G01*
G37*
X45687Y83996D02*
G36*
G75*
G02X45046Y84331I621J1965D01*
G01*
X41082*
G75*
G02X41433Y83996I-2741J-3217*
G01*
X45687*
G37*
X70479D02*
G36*
Y87843D01*
X47150*
G75*
G02X48369Y85961I-843J-1881*
G01*
G75*
G02X46929Y83996I-2061*
G01*
X70479*
G37*
X82943D02*
G36*
G75*
G02X86315Y84483I1852J-905D01*
G01*
Y84700*
G75*
G02X85883Y85961I1630J1261*
G01*
G75*
G02X87102Y87843I2061*
G01*
X74054*
Y84585*
X74643Y83996*
X75819*
G75*
G02X75323Y85337I1565J1341*
G01*
G75*
G02X79431Y85579I2061*
G01*
X81033Y83996*
X82943*
G37*
X135906Y87843D02*
G36*
X126294D01*
Y84791*
X120054*
Y87843*
X117691*
Y84919*
X111451*
Y87843*
X96301*
G75*
G02X95874Y86697I-2058J115*
G01*
Y83996*
X137124*
Y86224*
X135906*
Y87843*
G37*
X89200D02*
G36*
X88787D01*
G75*
G02X89200Y87596I-843J-1881*
G01*
Y87843*
G37*
X143208D02*
G36*
X141603D01*
Y86224*
X140384*
Y83996*
X143586*
G75*
G02X142911Y86287I3551J2291*
G01*
Y86287*
Y86287*
G75*
G02X143208Y87843I4226J0*
G01*
G37*
X161068D02*
G36*
G75*
G02X161364Y86287I-3930J-1555D01*
G01*
G75*
G02X160689Y83996I-4227*
G01*
X168654*
Y87843*
X161068*
G37*
X24711Y93935D02*
G36*
X15036D01*
Y87843*
X25113*
G75*
G02X23744Y91115I3228J3272*
G01*
G75*
G02X24711Y93935I4596J0*
G01*
G37*
X35193D02*
G36*
X31970D01*
G75*
G02X32937Y91115I-3629J-2821*
G01*
G75*
G02X31569Y87843I-4597J0*
G01*
X35666*
G75*
G02X34115Y91115I2675J3272*
G01*
G75*
G02X35193Y93935I4226*
G01*
G37*
X70105D02*
G36*
X69243D01*
Y90758*
X64183*
Y93935*
X41489*
G75*
G02X42567Y91115I-3148J-2820*
G01*
G75*
G02X41016Y87843I-4226J0*
G01*
X45466*
G75*
G02X47150I843J-1881*
G01*
X70479*
Y91128*
X70105*
Y93935*
G37*
X143208Y87843D02*
G36*
G75*
G02X149675Y89667I3930J-1556D01*
G01*
X153758*
Y93935*
X141973*
Y91406*
X135536*
Y93935*
X125924*
Y91461*
X120424*
Y93935*
X117321*
Y91589*
X111821*
Y93935*
X99051*
G75*
G02X95150I-1950J666*
G01*
X74424*
Y91128*
X74054*
Y87843*
X87102*
G75*
G02X88787I843J-1881*
G01*
X89200*
Y89928*
G75*
G02X88926Y90954I1788J1026*
G01*
G75*
G02X93048I2061*
G01*
G75*
G02X92775Y89928I-2062J0*
G01*
Y89404*
G75*
G02X96305Y87958I1469J-1446*
G01*
G75*
G02X96301Y87843I-2064J5*
G01*
X111451*
Y90766*
X117691*
Y87843*
X120054*
Y90638*
X126294*
Y87843*
X135906*
Y90543*
X141603*
Y87843*
X143208*
G37*
X161068D02*
G36*
X168654D01*
Y93935*
X160518*
Y88824*
G75*
G02X161068Y87843I-3380J-2538*
G01*
G37*
X95150Y93935D02*
G36*
G75*
G02X95040Y94601I1950J666D01*
G01*
G75*
G02Y94602I2374J0*
G01*
G75*
G02X95471Y95863I2059*
G01*
Y101115*
X42567*
G75*
G02X34115I-4226*
G01*
X32937*
G75*
G02X23744I-4596*
G01*
X15036*
Y93935*
X24711*
G75*
G02X28341Y95711I3630J-2820*
G01*
G75*
G02X31970Y93935I0J-4596*
G01*
X35193*
G75*
G02X38341Y95341I3148J-2820*
G01*
G75*
G02X41489Y93935J-4226*
G01*
X64183*
Y97195*
X69243*
Y93935*
X70105*
Y96825*
X74424*
Y93935*
X95150*
G37*
X111821D02*
G36*
Y96695D01*
X112941*
Y99665*
X111492Y101115*
X106062*
X108459Y98717*
G75*
G02X111390Y96848I869J-1870*
G01*
G75*
G02X108065Y95218I-2062*
G01*
X108024*
G75*
G02X106870Y95696I0J1629*
G01*
X101452Y101115*
X98731*
Y95863*
G75*
G02X99162Y94602I-1628J-1261*
G01*
G75*
G02Y94601I-2374J0*
G01*
G75*
G02X99051Y93935I-2061*
G01*
X111821*
G37*
X120424D02*
G36*
Y96567D01*
X121544*
Y99805*
X120234Y101115*
X116006*
G75*
G02X116201Y100341I-1434J-773*
G01*
Y100341*
Y96695*
X117321*
Y93935*
X120424*
G37*
X153758Y101115D02*
G36*
X124675D01*
G75*
G02X124804Y100480I-1501J-634*
G01*
Y100480*
Y96567*
X125924*
Y93935*
X135536*
Y96465*
X141973*
Y93935*
X153758*
Y101115*
G37*
X160518D02*
G36*
Y93935D01*
X168654*
Y101115*
X160518*
G37*
X95735Y111115D02*
G36*
X42567D01*
G75*
G02X34115I-4226*
G01*
X32567*
G75*
G02X24115I-4226*
G01*
X15036*
Y101115*
X23744*
G75*
G02X32937I4596*
G01*
X34115*
G75*
G02X42567I4226*
G01*
X95471*
Y110224*
Y110225*
G75*
G02X95735Y111115I1629J0*
G01*
G37*
X120234Y101115D02*
G36*
X110234Y111115D01*
X107744*
Y110073*
X103426*
Y111115*
X102193*
Y110073*
X99254*
X98731Y109549*
Y108614*
X102203*
Y104974*
X103435Y103741*
Y108614*
X107754*
Y107396*
X109146*
G75*
G02X110300Y106917I0J-1629*
G01*
X115722Y101494*
G75*
G02X116006Y101115I-1150J-1154*
G01*
X120234*
G37*
X101452D02*
G36*
X99649Y102917D01*
X98731*
Y101115*
X101452*
G37*
X111492D02*
G36*
X108471Y104136D01*
X107754*
Y102917*
X104259*
X106062Y101115*
X111492*
G37*
X153758Y111115D02*
G36*
X114844D01*
X124325Y101634*
G75*
G02X124675Y101115I-1150J-1154*
G01*
X153758*
Y111115*
G37*
X160518D02*
G36*
Y101115D01*
X168654*
Y111115*
X160518*
G37*
X153758D02*
G36*
Y115448D01*
G75*
G02X149951Y119654I420J4206*
G01*
G75*
G02X150212Y121115I4226*
G01*
X148693*
G75*
G02X148931Y119654I-4358J-1461*
G01*
G75*
G02X139739I-4596*
G01*
G75*
G02X139977Y121115I4596J0*
G01*
X42567*
G75*
G02X34115I-4226*
G01*
X32937*
G75*
G02X23744I-4596*
G01*
X15036*
Y111115*
X24115*
G75*
G02X32567I4226*
G01*
X34115*
G75*
G02X42567I4226*
G01*
X95735*
G75*
G02X95950Y111378I1365J-889*
G01*
X97874Y113303*
Y115770*
X102193*
Y111115*
X103426*
Y115770*
X107744*
Y114551*
X110732*
G75*
G02X111886Y114072I0J-1629*
G01*
X114844Y111115*
X153758*
G37*
X110234D02*
G36*
X110057Y111291D01*
X107744*
Y111115*
X110234*
G37*
X160518D02*
G36*
X168654D01*
Y121115*
X160185*
G75*
G02X160518Y119654I-3048J-1461*
G01*
Y111115*
G37*
X150212Y121115D02*
G36*
G75*
G02X150798Y122191I3966J-1461D01*
G01*
Y131115*
X121934*
X118282Y127462*
G75*
G02X117311Y126138I-3130J1277*
G01*
Y125890*
X116971*
G75*
G02X113333I-1819J2848*
G01*
X112993*
Y126138*
G75*
G02X111772Y128738I2160J2600*
G01*
Y129112*
G75*
G02X112429Y131115I3382J-1*
G01*
X111760*
Y125890*
X107441*
Y126951*
X103020*
Y126077*
X97914*
Y131115*
X97091*
Y125707*
X91244*
Y131115*
X42567*
G75*
G02X34115I-4226*
G01*
X32937*
G75*
G02X23744I-4596*
G01*
X15036*
Y121115*
X23744*
G75*
G02X32937I4596*
G01*
X34115*
G75*
G02X42567I4226*
G01*
X139977*
G75*
G02X148693I4358J-1461*
G01*
X150212*
G37*
X107441Y131115D02*
G36*
X103020D01*
Y130526*
X107441*
Y131115*
G37*
X160185Y121115D02*
G36*
X168654D01*
Y131115*
X157557*
Y123007*
G75*
G02X160185Y121115I-420J-3354*
G01*
G37*
X155367Y161396D02*
G36*
X141445D01*
G75*
G02X132993I-4226*
G01*
X115439*
G75*
G02X106991I-4224J125*
G01*
X90513*
G75*
G02X82075I-4219J250*
G01*
X64609*
G75*
G02X56167I-4221J206*
G01*
X15036*
Y131115*
X23744*
G75*
G02X32937I4596*
G01*
X34115*
G75*
G02X42567I4226*
G01*
X91244*
Y131947*
X97091*
Y131115*
X97914*
Y131577*
X103020*
Y131115*
X107441*
Y131587*
X111760*
Y131115*
X112429*
G75*
G02X112764Y131504I2725J-2003*
G01*
X119896Y138636*
G75*
G02X122288Y139628I2393J-2390*
G01*
X157141*
Y148016*
X139756*
G75*
G02X134726Y147983I-2537J3380*
G01*
X113528*
G75*
G02X108902I-2313J3538*
G01*
X88403*
G75*
G02X84048Y148065I-2109J3663*
G01*
X62701*
G75*
G02X56162Y151602I-2313J3537*
G01*
G75*
G02X62701Y155140I4227J0*
G01*
X83916*
G75*
G02X88787Y155058I2378J-3495*
G01*
X108902*
G75*
G02X113528I2313J-3538*
G01*
X135109*
G75*
G02X139756Y154776I2109J-3663*
G01*
X157141*
Y159622*
X155367Y161396*
G37*
X150798Y131115D02*
G36*
Y132868D01*
X123688*
X121934Y131115*
X150798*
G37*
X163880Y161396D02*
G36*
G75*
G02X163901Y161022I-3361J-375D01*
G01*
Y136248*
G75*
G02X160521Y132868I-3380*
G01*
X157557*
Y131115*
X168654*
Y161396*
X163880*
G37*
G36*
X168654*
Y193853*
X167997*
G75*
G02X156165I-5916J4728*
G01*
X141259*
G75*
G02X141261Y193728I-4225J-129*
G01*
G75*
G02X132808I-4226*
G01*
G75*
G02X132810Y193853I4227J-4*
G01*
X115031*
G75*
G02X106611I-4210J374*
G01*
X90341*
G75*
G02X81888I-4226*
G01*
X64319*
G75*
G02X55867I-4226*
G01*
X27507*
G75*
G02X15676I-5916J4728*
G01*
X15036*
Y161396*
X56167*
G75*
G02X56162Y161602I4222J208*
G01*
G75*
G02X64615I4226*
G01*
G75*
G02X64609Y161396I-4228J2*
G01*
X82075*
G75*
G02X82067Y161646I4220J252*
G01*
G75*
G02X90520I4226*
G01*
G75*
G02X90513Y161396I-4228J2*
G01*
X106991*
G75*
G02X106989Y161521I4225J129*
G01*
G75*
G02X115441I4226*
G01*
G75*
G02X115439Y161396I-4227J4*
G01*
X132993*
G75*
G02X141445I4226*
G01*
X155367*
X137255Y179508*
G75*
G02X137034Y179502I-228J4409*
G01*
G75*
G02X133942Y180848I1J4229*
G01*
X113359*
G75*
G02X108880Y180473I-2537J3379*
G01*
X88652*
G75*
G02X83577I-2537J3380*
G01*
X62630*
G75*
G02X55867Y183853I-2537J3380*
G01*
Y183853*
Y183854*
G75*
G02X62630Y187233I4226*
G01*
X83577*
G75*
G02X88652I2537J-3380*
G01*
X107850*
G75*
G02X113359Y187607I2971J-3006*
G01*
X135357*
G75*
G02X140911Y185412I1678J-3880*
G01*
X162909Y163414*
G75*
G02X163880Y161396I-2390J-2393*
G01*
G37*
X15676Y193853D02*
G36*
G75*
G02X15036Y194789I5915J4729D01*
G01*
Y193853*
X15676*
G37*
X158320Y205154D02*
G36*
X25352D01*
G75*
G02X29164Y198581I-3761J-6573*
G01*
G75*
G02X27507Y193853I-7573J0*
G01*
X55867*
G75*
G02X64319I4226*
G01*
X81888*
G75*
G02X90341I4226*
G01*
X106611*
G75*
G02X106595Y194228I4210J374*
G01*
G75*
G02X115048I4226*
G01*
G75*
G02X115031Y193853I-4227J-1*
G01*
X132810*
G75*
G02X141259I4224J-125*
G01*
X156165*
G75*
G02X154508Y198581I5916J4727*
G01*
G75*
G02X158320Y205154I7573*
G01*
G37*
X168654Y194820D02*
G36*
G75*
G02X167997Y193853I-6574J3762D01*
G01*
X168654*
Y194820*
G37*
X200543Y64081D02*
X198832D01*
G75*
G02X195821Y56888I-3011J-2966*
G01*
G75*
G02X192596Y58383J4226*
G01*
Y54389*
G75*
G02X200418Y51115I3225J-3275*
G01*
G75*
G02X192596Y47840I-4596*
G01*
Y43846*
G75*
G02X199176Y43685I3225J-2731*
G01*
X208648*
Y55815*
G75*
G02X210278Y57445I1630*
G01*
X214430*
Y57974*
X220126*
Y57969*
X223380*
Y60693*
X223238*
X222442Y59833*
G75*
G02X221128Y59260I-1312J1214*
G01*
X215265*
G75*
G02X214620Y59380J1787*
G01*
X210250*
Y62715*
X214620*
G75*
G02X215265Y62835I644J-1667*
G01*
X220349*
X221145Y63694*
G75*
G02X222459Y64268I1312J-1214*
G01*
X222719*
G75*
G02X222608Y64370I1159J1363*
G01*
X220648Y66342*
Y63734*
X209880*
Y67809*
X219220*
X218366Y68709*
X215265*
G75*
G02X214620Y68829J1787*
G01*
X210250*
Y72163*
X214620*
G75*
G02X215265Y72283I644J-1667*
G01*
X219132*
G75*
G02X219778Y72163I2J-1787*
G01*
X220278*
Y71869*
G75*
G02X220430Y71727I-1143J-1374*
G01*
X222413Y69638*
X223380Y68664*
Y70148*
X219987Y73541*
X214912*
Y73913*
X211084*
X204800Y67597*
G75*
G02X204795Y67592I-1251J1156*
G01*
X201809Y64606*
G75*
G02X200543Y64081I-1266J1262*
G01*
G36*
X198832*
G75*
G02X195821Y56888I-3011J-2966*
G01*
G75*
G02X192596Y58383J4226*
G01*
Y54389*
G75*
G02X200418Y51115I3225J-3275*
G01*
G75*
G02X192596Y47840I-4596*
G01*
Y43846*
G75*
G02X199176Y43685I3225J-2731*
G01*
X208648*
Y55815*
G75*
G02X210278Y57445I1630*
G01*
X214430*
Y57974*
X220126*
Y57969*
X223380*
Y60693*
X223238*
X222442Y59833*
G75*
G02X221128Y59260I-1312J1214*
G01*
X215265*
G75*
G02X214620Y59380J1787*
G01*
X210250*
Y62715*
X214620*
G75*
G02X215265Y62835I644J-1667*
G01*
X220349*
X221145Y63694*
G75*
G02X222459Y64268I1312J-1214*
G01*
X222719*
G75*
G02X222608Y64370I1159J1363*
G01*
X220648Y66342*
Y63734*
X209880*
Y67809*
X219220*
X218366Y68709*
X215265*
G75*
G02X214620Y68829J1787*
G01*
X210250*
Y72163*
X214620*
G75*
G02X215265Y72283I644J-1667*
G01*
X219132*
G75*
G02X219778Y72163I2J-1787*
G01*
X220278*
Y71869*
G75*
G02X220430Y71727I-1143J-1374*
G01*
X222413Y69638*
X223380Y68664*
Y70148*
X219987Y73541*
X214912*
Y73913*
X211084*
X204800Y67597*
G75*
G02X204795Y67592I-1251J1156*
G01*
X201809Y64606*
G75*
G02X200543Y64081I-1266J1262*
G01*
G37*
X230947Y57494D02*
Y44854D01*
X252443*
Y45224*
X256750*
Y64000*
X235002*
G75*
G02X231680Y65630I-1261J1630*
G01*
G75*
G02X235002Y67260I2061*
G01*
X256750*
Y70657*
X235258*
Y70287*
X230947*
Y61069*
X232460*
G75*
G02X235547Y59282I1026J-1787*
G01*
G75*
G02X232460Y57494I-2061*
G01*
X230947*
G36*
Y44854*
X252443*
Y45224*
X256750*
Y64000*
X235002*
G75*
G02X231680Y65630I-1261J1630*
G01*
G75*
G02X235002Y67260I2061*
G01*
X256750*
Y70657*
X235258*
Y70287*
X230947*
Y61069*
X232460*
G75*
G02X235547Y59282I1026J-1787*
G01*
G75*
G02X232460Y57494I-2061*
G01*
X230947*
G37*
X257306Y36917D02*
X255035D01*
X256002Y35951*
X262177*
G75*
G02X265500Y34321I1261J-1630*
G01*
G75*
G02X262177Y32691I-2061*
G01*
X255380*
X256239Y31833*
X265547*
G75*
G02X268869Y30203I1261J-1630*
G01*
G75*
G02X265547Y28573I-2061*
G01*
X255563*
G75*
G02X254409Y29052J1630*
G01*
X247423Y36038*
G75*
G02X246944Y37192I1151J1154*
G01*
Y37287*
X230766*
Y44671*
X227161*
Y36346*
G75*
G02X227435Y35320I-1787J-1026*
G01*
G75*
G02X223313I-2061*
G01*
G75*
G02X223586Y36346I2061*
G01*
Y44671*
X223380*
Y54394*
X220126*
Y53656*
X214430*
Y54185*
X211908*
Y42957*
X228660Y26382*
X234355*
G75*
G02X235151Y26195J-1788*
G01*
X262307*
G75*
G02X263461Y25716J-1630*
G01*
X266884Y22293*
X273788Y29197*
Y42972*
X272518Y44242*
X266837*
Y45102*
X264317*
Y44671*
X257306*
Y36917*
X266467Y43380D02*
X272904D01*
Y38321*
X266467*
Y43380*
X214059Y52793D02*
X220496D01*
Y47734*
X214059*
Y52793*
X273538Y28947D02*
G36*
Y40850D01*
X272904*
Y38321*
X266467*
Y40850*
X257306*
Y36917*
X255035*
X256002Y35951*
X262177*
G75*
G02X265500Y34321I1261J-1630*
G01*
G75*
G02X262177Y32691I-2061*
G01*
X255380*
X256239Y31833*
X265547*
G75*
G02X268869Y30203I1261J-1630*
G01*
G75*
G02X265547Y28573I-2061*
G01*
X255563*
G75*
G02X254409Y29052I0J1629*
G01*
X247423Y36038*
G75*
G02X246944Y37191I1150J1154*
G01*
Y37192*
Y37287*
X230766*
Y40850*
X227161*
Y36346*
G75*
G02X227435Y35320I-1788J-1026*
G01*
G75*
G02X223313I-2061*
G01*
G75*
G02X223586Y36346I2062J0*
G01*
Y40850*
X214037*
X228660Y26382*
X234355*
G75*
G02X235151Y26195I2J-1781*
G01*
X262307*
G75*
G02X263461Y25716I0J-1629*
G01*
X266634Y22543*
X267134*
X273538Y28947*
G37*
X223380Y50264D02*
G36*
X220496D01*
Y47734*
X214059*
Y50264*
X212158*
Y42709*
X214037Y40850*
X223586*
Y44671*
X223380*
Y50264*
G37*
X230766Y40850D02*
G36*
Y44671D01*
X227161*
Y40850*
X230766*
G37*
X273538Y43222D02*
G36*
X272518Y44242D01*
X266837*
Y45102*
X264317*
Y44671*
X257306*
Y40850*
X266467*
Y43380*
X272904*
Y40850*
X273538*
Y43222*
G37*
X223380Y54144D02*
G36*
X220126D01*
Y53656*
X214430*
Y54144*
X212158*
Y50264*
X214059*
Y52793*
X220496*
Y50264*
X223380*
Y54144*
G37*
X326384Y195295D02*
G75*
G02X311989Y198581I-6823J3286D01*
G01*
G75*
G02X316276Y205404I7573*
G01*
X182357*
G75*
G02X186644Y198581I-3286J-6823*
G01*
G75*
G02X172266Y195259I-7573*
G01*
Y22060*
G75*
G02X186644Y18738I6806J-3322*
G01*
G75*
G02X182357Y11915I-7573*
G01*
X316276*
G75*
G02X311989Y18738I3286J6823*
G01*
G75*
G02X326384Y22024I7573*
G01*
Y195295*
X277382Y71396D02*
G75*
G02X280476Y69612I1033J-1783D01*
G01*
G75*
G02X277396Y67821I-2061*
G01*
X274120*
Y67449*
X266821*
Y66768*
X274120*
Y62449*
X270707*
X266327Y58069*
G75*
G02X266002Y57811I-1266J1262*
G01*
X268667*
G75*
G02X271631Y55019I1261J-1630*
G01*
G75*
G02X274039Y53910I544J-1988*
G01*
Y55275*
G75*
G02X273608Y56536I1630J1261*
G01*
G75*
G02X277730I2061*
G01*
G75*
G02X277299Y55275I-2061*
G01*
Y52418*
G75*
G02X276820Y51264I-1630*
G01*
X274287Y48731*
G75*
G02X273133Y48252I-1154J1151*
G01*
X272534*
Y48033*
X272662*
G75*
G02X273816Y47555J-1630*
G01*
X276569Y44800*
G75*
G02X277048Y43647I-1151J-1154*
G01*
Y28522*
G75*
G02X276569Y27368I-1630*
G01*
X268929Y19728*
G75*
G02X264840I-2044J261*
G01*
X261632Y22935*
X236142*
Y20793*
X236514*
Y15096*
X232195*
Y20793*
X232567*
Y22807*
X227927*
G75*
G02X226669Y23324I-1J1787*
G01*
X209384Y40425*
X199991*
G75*
G02X192050Y39207I-4170J689*
G01*
X191542*
G75*
G02X190075I-733J1630*
G01*
X189593*
G75*
G02X181595Y41115I-3771J1908*
G01*
G75*
G02X189021Y43876I4226*
G01*
Y48354*
G75*
G02X181595Y51115I-3200J2761*
G01*
G75*
G02X189021Y53876I4226*
G01*
Y58354*
G75*
G02X181819Y62472I-3200J2761*
G01*
X178425Y65866*
G75*
G02X177946Y67020I1151J1154*
G01*
Y82620*
G75*
G02X178425Y83774I1630*
G01*
X181764Y87113*
G75*
G02X182870Y87591I1154J-1151*
G01*
G75*
G02X185821Y95711I2951J3524*
G01*
G75*
G02X188773Y87591J-4596*
G01*
X193487*
G75*
G02X195821Y95341I2334J3523*
G01*
G75*
G02X198156Y87591J-4226*
G01*
X202527*
G75*
G02X205849Y85961I1261J-1630*
G01*
G75*
G02X202527Y84331I-2061*
G01*
X198562*
G75*
G02X195821Y76888I-2741J-3217*
G01*
G75*
G02X193080Y84331J4226*
G01*
X189104*
G75*
G02X185821Y76518I-3283J-3217*
G01*
G75*
G02X181324Y82062J4596*
G01*
X181206Y81945*
Y67695*
X183981Y64920*
G75*
G02X189021Y63876I1840J-3805*
G01*
Y65868*
G75*
G02X190809Y67656I1787*
G01*
X193393*
G75*
G02X195821Y75341I2428J3459*
G01*
G75*
G02X198250Y67656J-4226*
G01*
X199803*
X202267Y70119*
X209074Y76961*
G75*
G02X210342Y77487I1267J-1261*
G01*
X214912*
Y77860*
X220609*
Y77470*
G75*
G02X221623Y76962I-252J-1770*
G01*
X227744Y70841*
X230396*
Y78594*
X232469*
X228485Y82579*
G75*
G02X227959Y83845I1262J1266*
G01*
Y91128*
X227585*
Y96825*
X231904*
Y91128*
X231534*
Y84585*
X235853Y80265*
X237179Y79057*
G75*
G02X237337Y78893I-1206J-1320*
G01*
Y80133*
X233926Y83502*
G75*
G02X232803Y85337I938J1835*
G01*
G75*
G02X236911Y85579I2061*
G01*
X239911Y82615*
G75*
G02X239922Y82604I-1268J-1233*
G01*
X240388Y82137*
G75*
G02X240645Y81812I-1264J-1265*
G01*
Y81830*
G75*
G02X243795Y84483I1630J1261*
G01*
Y84700*
G75*
G02X246680Y87596I1630J1261*
G01*
Y89928*
G75*
G02X246407Y90954I1787J1026*
G01*
G75*
G02X250529I2061*
G01*
G75*
G02X250255Y89928I-2061*
G01*
Y89404*
G75*
G02X253354Y86697I1469J-1446*
G01*
Y81525*
G75*
G02X256338Y78709I1354J-1554*
G01*
Y78224*
X256935*
Y70841*
X258661*
Y74951*
G75*
G02X258388Y75977I1787J1026*
G01*
G75*
G02X262510I2061*
G01*
G75*
G02X262236Y74951I-2061*
G01*
Y70841*
X263561*
Y76879*
G75*
G02X264040Y78033I1630*
G01*
X266455Y80448*
Y81768*
X274120*
Y77449*
X268066*
X267755Y77138*
X274491*
Y72079*
X266821*
Y71768*
X274120*
Y71396*
X277382*
X181225Y71115D02*
G75*
G02X190418I4596D01*
G01*
G75*
G02X181225I-4596*
G01*
X209748Y20843D02*
X215595D01*
Y14602*
X209748*
Y20843*
X226644Y20793D02*
X230963D01*
Y15096*
X226644*
Y16093*
X221524*
Y14972*
X216418*
Y20472*
X221524*
Y19352*
X226644*
Y20793*
X191595Y101115D02*
G75*
G02X200048I4226D01*
G01*
G75*
G02X191595I-4226*
G01*
Y111115D02*
G75*
G02X200048I4226D01*
G01*
G75*
G02X191595I-4226*
G01*
Y121115D02*
G75*
G02X200048I4226D01*
G01*
G75*
G02X191595I-4226*
G01*
Y131115D02*
G75*
G02X200048I4226D01*
G01*
G75*
G02X191595I-4226*
G01*
X320389Y163414D02*
G75*
G02X321381Y161022I-2388J-2392D01*
G01*
Y136248*
G75*
G02X318001Y132868I-3380*
G01*
X315038*
Y123007*
G75*
G02X317998Y119654I-420J-3354*
G01*
Y88824*
G75*
G02X312081Y82907I-3380J-2537*
G01*
X307156*
G75*
G02X300392Y86287I-2537J3380*
G01*
G75*
G02X307156Y89667I4226*
G01*
X311238*
Y115448*
G75*
G02X308278Y122191I420J4206*
G01*
Y132868*
X281168*
X275762Y127462*
G75*
G02X274792Y126138I-3130J1277*
G01*
Y125890*
X274452*
G75*
G02X270813I-1819J2848*
G01*
X270473*
Y126138*
G75*
G02X269252Y128738I2159J2600*
G01*
Y129112*
G75*
G02X270244Y131504I3380*
G01*
X277376Y138636*
G75*
G02X279768Y139628I2392J-2388*
G01*
X314621*
Y148016*
X297237*
G75*
G02X292206Y147983I-2537J3380*
G01*
X271008*
G75*
G02X266382I-2313J3538*
G01*
X245883*
G75*
G02X241529Y148065I-2109J3663*
G01*
X220181*
G75*
G02X213642Y151602I-2313J3537*
G01*
G75*
G02X220181Y155140I4227J0*
G01*
X241396*
G75*
G02X246267Y155058I2378J-3494*
G01*
X266382*
G75*
G02X271008I2313J-3538*
G01*
X292590*
G75*
G02X297237Y154776I2109J-3662*
G01*
X314621*
Y159622*
X294735Y179508*
G75*
G02X294515Y179502I-223J4219*
G01*
G75*
G02X291422Y180848J4226*
G01*
X270839*
G75*
G02X266361Y180473I-2537J3380*
G01*
X246132*
G75*
G02X241057I-2537J3380*
G01*
X220111*
G75*
G02X213347Y183853I-2537J3380*
G01*
G75*
G02X220111Y187233I4226*
G01*
X241057*
G75*
G02X246132I2537J-3380*
G01*
X265330*
G75*
G02X270839Y187607I2971J-3006*
G01*
X292837*
G75*
G02X298391Y185412I1678J-3879*
G01*
X320389Y163414*
X310022Y56287D02*
G75*
G02X319215I4596D01*
G01*
G75*
G02X310022I-4596*
G01*
X310392Y46287D02*
G75*
G02X318844I4226D01*
G01*
G75*
G02X310392I-4226*
G01*
Y66287D02*
G75*
G02X318844I4226D01*
G01*
G75*
G02X310392I-4226*
G01*
Y76287D02*
G75*
G02X318844I4226D01*
G01*
G75*
G02X310392I-4226*
G01*
X287715Y66768D02*
X295380D01*
Y62449*
X287715*
Y66768*
Y71768D02*
X295380D01*
Y67449*
X287715*
Y71768*
Y76768D02*
X295380D01*
Y72449*
X287715*
Y76768*
X293386Y90543D02*
X299083D01*
Y86224*
X297865*
Y79608*
G75*
G02X296235Y77978I-1630*
G01*
X295380*
Y77449*
X287715*
Y81768*
X294605*
Y86224*
X293386*
Y90543*
X293016Y96465D02*
X299453D01*
Y91406*
X293016*
Y96465*
X297219Y119654D02*
G75*
G02X306412I4596D01*
G01*
G75*
G02X297219I-4596*
G01*
X300022Y56287D02*
G75*
G02X309215I4596D01*
G01*
G75*
G02X300022I-4596*
G01*
X300392Y46287D02*
G75*
G02X308844I4226D01*
G01*
G75*
G02X300392I-4226*
G01*
Y66287D02*
G75*
G02X308844I4226D01*
G01*
G75*
G02X300392I-4226*
G01*
Y76287D02*
G75*
G02X308844I4226D01*
G01*
G75*
G02X300392I-4226*
G01*
X248725Y131947D02*
X254571D01*
Y125707*
X248725*
Y131947*
X273681Y96695D02*
X274802D01*
Y91589*
X269302*
Y96695*
X270422*
Y99665*
X265951Y104136*
X265235*
Y102917*
X261740*
X265939Y98717*
G75*
G02X268870Y96848I869J-1870*
G01*
G75*
G02X265546Y95218I-2062*
G01*
X265504*
G75*
G02X264350Y95696J1630*
G01*
X257130Y102917*
X256211*
Y95863*
G75*
G02X256642Y94601I-1630J-1261*
G01*
G75*
G02X252520I-2061*
G01*
G75*
G02X252951Y95863I2061*
G01*
Y110224*
G75*
G02X253430Y111378I1630*
G01*
X255355Y113303*
Y115770*
X259674*
Y110073*
X256735*
X256211Y109549*
Y108614*
X259683*
Y104974*
X260916Y103741*
Y108614*
X265235*
Y107396*
X266626*
G75*
G02X267780Y106917J-1630*
G01*
X273203Y101494*
G75*
G02X273681Y100341I-1151J-1154*
G01*
Y96695*
X268931Y90766D02*
X275172D01*
Y84919*
X268931*
Y90766*
X264922Y131587D02*
X269241D01*
Y125890*
X264922*
Y126951*
X260500*
Y126077*
X255394*
Y131577*
X260500*
Y130526*
X264922*
Y131587*
X282284Y96567D02*
X283404D01*
Y91461*
X277904*
Y96567*
X279024*
Y99805*
X267537Y111291*
X265225*
Y110073*
X260906*
Y115770*
X265225*
Y114551*
X268213*
G75*
G02X269367Y114072J-1630*
G01*
X281805Y101634*
G75*
G02X282284Y100480I-1151J-1154*
G01*
Y96567*
X277534Y90638D02*
X283774D01*
Y84791*
X277534*
Y90638*
X221664Y97195D02*
X226723D01*
Y90758*
X221664*
Y97195*
X214542Y83781D02*
X220979D01*
Y78722*
X214542*
Y83781*
X290473Y161396D02*
G75*
G02X298926I4226D01*
G01*
G75*
G02X290473I-4226*
G01*
X264469Y161521D02*
G75*
G02X272922I4226D01*
G01*
G75*
G02X264469I-4226*
G01*
X239548Y161646D02*
G75*
G02X248000I4226D01*
G01*
G75*
G02X239548I-4226*
G01*
X213642Y161602D02*
G75*
G02X222095I4226D01*
G01*
G75*
G02X213642I-4226*
G01*
X213347Y193853D02*
G75*
G02X221800I4226D01*
G01*
G75*
G02X213347I-4226*
G01*
X239369D02*
G75*
G02X247821I4226D01*
G01*
G75*
G02X239369I-4226*
G01*
X264075Y194228D02*
G75*
G02X272528I4226D01*
G01*
G75*
G02X264075I-4226*
G01*
X290288Y193728D02*
G75*
G02X298741I4226D01*
G01*
G75*
G02X290288I-4226*
G01*
X181225Y101115D02*
G75*
G02X190418I4596D01*
G01*
G75*
G02X181225I-4596*
G01*
Y121115D02*
G75*
G02X190418I4596D01*
G01*
G75*
G02X181225I-4596*
G01*
X181595Y111115D02*
G75*
G02X190048I4226D01*
G01*
G75*
G02X181595I-4226*
G01*
X181225Y131115D02*
G75*
G02X190418I4596D01*
G01*
G75*
G02X181225I-4596*
G01*
X312057Y17722D02*
G36*
X236514D01*
Y15096*
X232195*
Y17722*
X230963*
Y15096*
X226644*
Y16093*
X221524*
Y14972*
X216418*
Y17722*
X215595*
Y14602*
X209748*
Y17722*
X186576*
G75*
G02X182833Y12165I-7505J1016*
G01*
X315800*
G75*
G02X312057Y17722I3761J6573*
G01*
G37*
X189021Y46287D02*
G36*
X172516D01*
Y22530*
G75*
G02X186644Y18738I6556J-3791*
G01*
G75*
G02X186576Y17722I-7573J0*
G01*
X209748*
Y20843*
X215595*
Y17722*
X216418*
Y20472*
X221524*
Y19352*
X226644*
Y20793*
X230963*
Y17722*
X232195*
Y20793*
X232567*
Y22807*
X227927*
G75*
G02X226669Y23324I0J1789*
G01*
X209384Y40425*
X199991*
G75*
G02X192050Y39207I-4170J689*
G01*
X191542*
G75*
G02X190075I-733J1630*
G01*
X189593*
G75*
G02X181595Y41115I-3771J1908*
G01*
G75*
G02X189021Y43876I4226*
G01*
Y46287*
G37*
X326134Y22499D02*
G36*
Y46287D01*
X318844*
G75*
G02X310392I-4226*
G01*
X308844*
G75*
G02X300392I-4226*
G01*
X275083*
X276569Y44800*
G75*
G02X277048Y43647I-1150J-1154*
G01*
Y28522*
Y28521*
G75*
G02X276569Y27368I-1629*
G01*
X268929Y19728*
G75*
G02X264840I-2044J261*
G01*
X261632Y22935*
X236142*
Y20793*
X236514*
Y17722*
X312057*
G75*
G02X311989Y18738I7505J1016*
G01*
G75*
G02X326134Y22499I7573*
G01*
G37*
X189021Y46287D02*
G36*
Y48354D01*
G75*
G02X181595Y51115I-3200J2761*
G01*
G75*
G02X189021Y53876I4226*
G01*
Y55961*
X172516*
Y46287*
X189021*
G37*
X273690Y55961D02*
G36*
X271978D01*
G75*
G02X271631Y55019I-2049J220*
G01*
G75*
G02X274039Y53910I544J-1988*
G01*
Y55275*
G75*
G02X273690Y55961I1628J1261*
G01*
G37*
X319203D02*
G36*
G75*
G02X310033I-4585J326D01*
G01*
X309203*
G75*
G02X300033I-4585J326*
G01*
X277648*
G75*
G02X277299Y55275I-1977J575*
G01*
Y52418*
Y52417*
G75*
G02X276820Y51264I-1629*
G01*
X274287Y48731*
G75*
G02X273133Y48252I-1154J1150*
G01*
X272534*
Y48033*
X272662*
G75*
G02X273816Y47555I0J-1629*
G01*
X275083Y46287*
X300392*
G75*
G02X308844I4226*
G01*
X310392*
G75*
G02X318844I4226*
G01*
X326134*
Y55961*
X319203*
G37*
X189021D02*
G36*
Y58354D01*
G75*
G02X181595Y61114I-3200J2761*
G01*
G75*
G02X181819Y62472I4226*
G01*
X178425Y65866*
G75*
G02X178120Y66287I1150J1153*
G01*
X172516*
Y55961*
X189021*
G37*
X189071Y66287D02*
G36*
X182614D01*
X183981Y64920*
G75*
G02X189021Y63876I1840J-3805*
G01*
Y65868*
G75*
G02X189071Y66287I1788J-1*
G01*
G37*
X295380D02*
G36*
Y62449D01*
X287715*
Y66287*
X274120*
Y62449*
X270707*
X266327Y58069*
G75*
G02X266002Y57811I-1255J1248*
G01*
X268667*
G75*
G02X271989Y56181I1261J-1630*
G01*
G75*
G02X271978Y55961I-2060*
G01*
X273690*
G75*
G02X273608Y56535I1977J575*
G01*
G75*
G02Y56536I2374J0*
G01*
G75*
G02X277730I2061*
G01*
G75*
G02Y56535I-2374J0*
G01*
G75*
G02X277648Y55961I-2059*
G01*
X300033*
G75*
G02X300022Y56287I4586J324*
G01*
G75*
G02X309215I4596*
G01*
G75*
G02X309203Y55961I-4597J-3*
G01*
X310033*
G75*
G02X310022Y56287I4586J324*
G01*
G75*
G02X319215I4596*
G01*
G75*
G02X319203Y55961I-4597J-3*
G01*
X326134*
Y66287*
X318844*
G75*
G02X310392I-4226*
G01*
X308844*
G75*
G02X300392I-4226*
G01*
X295380*
G37*
X178120D02*
G36*
G75*
G02X177946Y67019I1455J733D01*
G01*
Y67020*
Y71115*
X172516*
Y66287*
X178120*
G37*
X189071D02*
G36*
G75*
G02X190809Y67656I1738J-419D01*
G01*
X193393*
G75*
G02X191595Y71115I2428J3459*
G01*
X190418*
G75*
G02X181225I-4596*
G01*
X181206*
Y67695*
X182614Y66287*
X189071*
G37*
X203257Y71115D02*
G36*
X200048D01*
G75*
G02X198250Y67656I-4226*
G01*
X199803*
X202267Y70119*
X203257Y71115*
G37*
X230396D02*
G36*
X227470D01*
X227744Y70841*
X230396*
Y71115*
G37*
X258661D02*
G36*
X256935D01*
Y70841*
X258661*
Y71115*
G37*
X263561D02*
G36*
X262236D01*
Y70841*
X263561*
Y71115*
G37*
X295380D02*
G36*
Y67449D01*
X287715*
Y71115*
X279826*
G75*
G02X280476Y69612I-1411J-1502*
G01*
G75*
G02X277396Y67821I-2061*
G01*
X274120*
Y67449*
X266821*
Y66768*
X274120*
Y66287*
X287715*
Y66768*
X295380*
Y66287*
X300392*
G75*
G02X308844I4226*
G01*
X310392*
G75*
G02X318844I4226*
G01*
X326134*
Y71115*
X295380*
G37*
X177946Y76287D02*
G36*
X172516D01*
Y71115*
X177946*
Y76287*
G37*
X203257Y71115D02*
G36*
X208404Y76287D01*
X181206*
Y71115*
X181225*
G75*
G02X190418I4596*
G01*
X191595*
G75*
G02X195821Y75341I4226*
G01*
G75*
G02X200048Y71115J-4226*
G01*
X203257*
G37*
X230396Y76287D02*
G36*
X222298D01*
X227470Y71115*
X230396*
Y76287*
G37*
X258411D02*
G36*
X256935D01*
Y71115*
X258661*
Y74951*
G75*
G02X258388Y75977I1788J1026*
G01*
G75*
G02X258411Y76287I2061J1*
G01*
G37*
X263561Y71115D02*
G36*
Y76287D01*
X262487*
G75*
G02X262510Y75977I-2038J-309*
G01*
G75*
G02X262236Y74951I-2062J0*
G01*
Y71115*
X263561*
G37*
X295380Y76287D02*
G36*
Y72449D01*
X287715*
Y76287*
X274491*
Y72079*
X266821*
Y71768*
X274120*
Y71396*
X277382*
G75*
G02X279826Y71115I1033J-1783*
G01*
X287715*
Y71768*
X295380*
Y71115*
X326134*
Y76287*
X318844*
G75*
G02X310392I-4226*
G01*
X308844*
G75*
G02X300392I-4226*
G01*
X295380*
G37*
X177946Y81252D02*
G36*
X172516D01*
Y76287*
X177946*
Y81252*
G37*
X230396Y76287D02*
G36*
Y78594D01*
X232469*
X229812Y81252*
X220979*
Y78722*
X214542*
Y81252*
X200046*
G75*
G02X200048Y81115I-4220J-129*
G01*
G75*
G02X195821Y76888I-4226*
G01*
G75*
G02X191595Y81115J4226*
G01*
G75*
G02X191597Y81252I4222J8*
G01*
X190416*
G75*
G02X190418Y81115I-4597J-135*
G01*
G75*
G02X185821Y76518I-4596*
G01*
G75*
G02X181225Y81115J4596*
G01*
G75*
G02X181227Y81252I4594J3*
G01*
X181206*
Y76287*
X208404*
X209074Y76961*
G75*
G02X210342Y77487I1268J-1262*
G01*
X214912*
Y77860*
X220609*
Y77470*
G75*
G02X221623Y76962I-251J-1768*
G01*
X222298Y76287*
X230396*
G37*
X236204Y81252D02*
G36*
X234867D01*
X235853Y80265*
X237179Y79057*
G75*
G02X237337Y78893I-1257J-1370*
G01*
Y80133*
X236204Y81252*
G37*
X263561Y76287D02*
G36*
Y76879D01*
Y76880*
G75*
G02X264040Y78033I1629*
G01*
X266455Y80448*
Y81252*
X256322*
G75*
G02X256769Y79971I-1615J-1281*
G01*
G75*
G02X256338Y78709I-2061*
G01*
Y78224*
X256935*
Y76287*
X258411*
G75*
G02X262487I2038J-310*
G01*
X263561*
G37*
X297865Y81252D02*
G36*
Y79608D01*
G75*
G02X296235Y77978I-1630*
G01*
X295380*
Y77449*
X287715*
Y81252*
X274120*
Y77449*
X268066*
X267755Y77138*
X274491*
Y76287*
X287715*
Y76768*
X295380*
Y76287*
X300392*
G75*
G02X308844I4226*
G01*
X310392*
G75*
G02X318844I4226*
G01*
X326134*
Y81252*
X297865*
G37*
X178647Y83996D02*
G36*
X172516D01*
Y81252*
X177946*
Y82620*
Y82620*
G75*
G02X178425Y83774I1629*
G01*
X178647Y83996*
G37*
X181227Y81252D02*
G36*
G75*
G02X181324Y82062I4594J-138D01*
G01*
X181206Y81945*
Y81252*
X181227*
G37*
X191597D02*
G36*
G75*
G02X192730Y83996I4224J-138D01*
G01*
X189402*
G75*
G02X190416Y81252I-3581J-2882*
G01*
X191597*
G37*
X229812D02*
G36*
X228485Y82579D01*
G75*
G02X227959Y83845I1262J1266*
G01*
Y83996*
X204409*
G75*
G02X203167I-621J1965*
G01*
X198913*
G75*
G02X200046Y81252I-3091J-2882*
G01*
X214542*
Y83781*
X220979*
Y81252*
X229812*
G37*
X236204D02*
G36*
X233926Y83502D01*
G75*
G02X233299Y83996I938J1836*
G01*
X232123*
X234867Y81252*
X236204*
G37*
X240424Y83996D02*
G36*
X238513D01*
X239911Y82615*
G75*
G02X239922Y82604I-144J-149*
G01*
X240388Y82137*
G75*
G02X240645Y81812I-1266J-1266*
G01*
Y81830*
G75*
G02X240214Y83091I1630J1261*
G01*
G75*
G02X240424Y83996I2061*
G01*
G37*
X294605D02*
G36*
X253354D01*
Y81525*
G75*
G02X256322Y81252I1354J-1554*
G01*
X266455*
Y81768*
X274120*
Y81252*
X287715*
Y81768*
X294605*
Y83996*
G37*
X318170D02*
G36*
G75*
G02X312081Y82907I-3552J2291D01*
G01*
X307156*
G75*
G02X301067Y83996I-2537J3380*
G01*
X297865*
Y81252*
X326134*
Y83996*
X318170*
G37*
X178647D02*
G36*
X181764Y87113D01*
G75*
G02X182870Y87591I1155J-1153*
G01*
G75*
G02X182593Y87843I2951J3525*
G01*
X172516*
Y83996*
X178647*
G37*
X193146Y87843D02*
G36*
X189049D01*
G75*
G02X188773Y87591I-3229J3270*
G01*
X193487*
G75*
G02X193146Y87843I2334J3526*
G01*
G37*
X192730Y83996D02*
G36*
G75*
G02X193080Y84331I3092J-2882D01*
G01*
X189104*
G75*
G02X189402Y83996I-3283J-3217*
G01*
X192730*
G37*
X202946Y87843D02*
G36*
X198496D01*
G75*
G02X198156Y87591I-2675J3274*
G01*
X202527*
G75*
G02X202946Y87843I1262J-1630*
G01*
G37*
X203167Y83996D02*
G36*
G75*
G02X202527Y84331I621J1965D01*
G01*
X198562*
G75*
G02X198913Y83996I-2741J-3217*
G01*
X203167*
G37*
X227959D02*
G36*
Y87843D01*
X204631*
G75*
G02X205849Y85961I-843J-1881*
G01*
G75*
G02X204409Y83996I-2061*
G01*
X227959*
G37*
X240424D02*
G36*
G75*
G02X243795Y84483I1852J-905D01*
G01*
Y84700*
G75*
G02X243364Y85961I1630J1261*
G01*
G75*
G02X244582Y87843I2061*
G01*
X231534*
Y84585*
X232123Y83996*
X233299*
G75*
G02X232803Y85337I1565J1341*
G01*
G75*
G02X236911Y85579I2061*
G01*
X238513Y83996*
X240424*
G37*
X293386Y87843D02*
G36*
X283774D01*
Y84791*
X277534*
Y87843*
X275172*
Y84919*
X268931*
Y87843*
X253781*
G75*
G02X253354Y86697I-2058J115*
G01*
Y83996*
X294605*
Y86224*
X293386*
Y87843*
G37*
X246680D02*
G36*
X246267D01*
G75*
G02X246680Y87596I-843J-1881*
G01*
Y87843*
G37*
X300688D02*
G36*
X299083D01*
Y86224*
X297865*
Y83996*
X301067*
G75*
G02X300392Y86287I3551J2291*
G01*
Y86287*
Y86287*
G75*
G02X300688Y87843I4226J0*
G01*
G37*
X318548D02*
G36*
G75*
G02X318844Y86287I-3930J-1555D01*
G01*
G75*
G02X318170Y83996I-4227*
G01*
X326134*
Y87843*
X318548*
G37*
X182192Y93935D02*
G36*
X172516D01*
Y87843*
X182593*
G75*
G02X181225Y91115I3228J3272*
G01*
G75*
G02X182192Y93935I4596J0*
G01*
G37*
X192674D02*
G36*
X189450D01*
G75*
G02X190418Y91115I-3629J-2821*
G01*
G75*
G02X189049Y87843I-4597J0*
G01*
X193146*
G75*
G02X191595Y91115I2675J3272*
G01*
G75*
G02X192674Y93935I4226*
G01*
G37*
X227585D02*
G36*
X226723D01*
Y90758*
X221664*
Y93935*
X198969*
G75*
G02X200048Y91115I-3148J-2820*
G01*
G75*
G02X198496Y87843I-4226J0*
G01*
X202946*
G75*
G02X204631I843J-1881*
G01*
X227959*
Y91128*
X227585*
Y93935*
G37*
X300688Y87843D02*
G36*
G75*
G02X307156Y89667I3930J-1556D01*
G01*
X311238*
Y93935*
X299453*
Y91406*
X293016*
Y93935*
X283404*
Y91461*
X277904*
Y93935*
X274802*
Y91589*
X269302*
Y93935*
X256531*
G75*
G02X252631I-1950J666*
G01*
X231904*
Y91128*
X231534*
Y87843*
X244582*
G75*
G02X246267I843J-1881*
G01*
X246680*
Y89928*
G75*
G02X246407Y90954I1788J1026*
G01*
G75*
G02X250529I2061*
G01*
G75*
G02X250255Y89928I-2062J0*
G01*
Y89404*
G75*
G02X253785Y87958I1469J-1446*
G01*
G75*
G02X253781Y87843I-2064J5*
G01*
X268931*
Y90766*
X275172*
Y87843*
X277534*
Y90638*
X283774*
Y87843*
X293386*
Y90543*
X299083*
Y87843*
X300688*
G37*
X318548D02*
G36*
X326134D01*
Y93935*
X317998*
Y88824*
G75*
G02X318548Y87843I-3380J-2538*
G01*
G37*
X252631Y93935D02*
G36*
G75*
G02X252520Y94601I1950J666D01*
G01*
G75*
G02Y94602I2374J0*
G01*
G75*
G02X252951Y95863I2059*
G01*
Y101115*
X200048*
G75*
G02X191595I-4226*
G01*
X190418*
G75*
G02X181225I-4596*
G01*
X172516*
Y93935*
X182192*
G75*
G02X185821Y95711I3630J-2820*
G01*
G75*
G02X189450Y93935I0J-4596*
G01*
X192674*
G75*
G02X195821Y95341I3148J-2820*
G01*
G75*
G02X198969Y93935J-4226*
G01*
X221664*
Y97195*
X226723*
Y93935*
X227585*
Y96825*
X231904*
Y93935*
X252631*
G37*
X269302D02*
G36*
Y96695D01*
X270422*
Y99665*
X268972Y101115*
X263543*
X265939Y98717*
G75*
G02X268870Y96848I869J-1870*
G01*
G75*
G02X265546Y95218I-2062*
G01*
X265504*
G75*
G02X264350Y95696I0J1629*
G01*
X258932Y101115*
X256211*
Y95863*
G75*
G02X256642Y94602I-1628J-1261*
G01*
G75*
G02Y94601I-2374J0*
G01*
G75*
G02X256531Y93935I-2061*
G01*
X269302*
G37*
X277904D02*
G36*
Y96567D01*
X279024*
Y99805*
X277714Y101115*
X273486*
G75*
G02X273681Y100341I-1434J-773*
G01*
Y100341*
Y96695*
X274802*
Y93935*
X277904*
G37*
X311238Y101115D02*
G36*
X282156D01*
G75*
G02X282284Y100480I-1501J-634*
G01*
Y100480*
Y96567*
X283404*
Y93935*
X293016*
Y96465*
X299453*
Y93935*
X311238*
Y101115*
G37*
X317998D02*
G36*
Y93935D01*
X326134*
Y101115*
X317998*
G37*
X253216Y111115D02*
G36*
X200048D01*
G75*
G02X191595I-4226*
G01*
X190048*
G75*
G02X181595I-4226*
G01*
X172516*
Y101115*
X181225*
G75*
G02X190418I4596*
G01*
X191595*
G75*
G02X200048I4226*
G01*
X252951*
Y110224*
Y110225*
G75*
G02X253216Y111115I1629J0*
G01*
G37*
X277714Y101115D02*
G36*
X267714Y111115D01*
X265225*
Y110073*
X260906*
Y111115*
X259674*
Y110073*
X256735*
X256211Y109549*
Y108614*
X259683*
Y104974*
X260916Y103741*
Y108614*
X265235*
Y107396*
X266626*
G75*
G02X267780Y106917I0J-1629*
G01*
X273203Y101494*
G75*
G02X273486Y101115I-1150J-1154*
G01*
X277714*
G37*
X258932D02*
G36*
X257130Y102917D01*
X256211*
Y101115*
X258932*
G37*
X268972D02*
G36*
X265951Y104136D01*
X265235*
Y102917*
X261740*
X263543Y101115*
X268972*
G37*
X311238Y111115D02*
G36*
X272324D01*
X281805Y101634*
G75*
G02X282156Y101115I-1150J-1154*
G01*
X311238*
Y111115*
G37*
X317998D02*
G36*
Y101115D01*
X326134*
Y111115*
X317998*
G37*
X311238D02*
G36*
Y115448D01*
G75*
G02X307431Y119654I420J4206*
G01*
G75*
G02X307692Y121115I4226*
G01*
X306174*
G75*
G02X306412Y119654I-4358J-1461*
G01*
G75*
G02X297219I-4596*
G01*
G75*
G02X297457Y121115I4596J0*
G01*
X200048*
G75*
G02X191595I-4226*
G01*
X190418*
G75*
G02X181225I-4596*
G01*
X172516*
Y111115*
X181595*
G75*
G02X190048I4226*
G01*
X191595*
G75*
G02X200048I4226*
G01*
X253216*
G75*
G02X253430Y111378I1365J-889*
G01*
X255355Y113303*
Y115770*
X259674*
Y111115*
X260906*
Y115770*
X265225*
Y114551*
X268213*
G75*
G02X269367Y114072I0J-1629*
G01*
X272324Y111115*
X311238*
G37*
X267714D02*
G36*
X267537Y111291D01*
X265225*
Y111115*
X267714*
G37*
X317998D02*
G36*
X326134D01*
Y121115*
X317666*
G75*
G02X317998Y119654I-3048J-1461*
G01*
Y111115*
G37*
X307692Y121115D02*
G36*
G75*
G02X308278Y122191I3966J-1461D01*
G01*
Y131115*
X279415*
X275762Y127462*
G75*
G02X274792Y126138I-3130J1277*
G01*
Y125890*
X274452*
G75*
G02X270813I-1819J2848*
G01*
X270473*
Y126138*
G75*
G02X269252Y128738I2160J2600*
G01*
Y129112*
G75*
G02X269909Y131115I3382J-1*
G01*
X269241*
Y125890*
X264922*
Y126951*
X260500*
Y126077*
X255394*
Y131115*
X254571*
Y125707*
X248725*
Y131115*
X200048*
G75*
G02X191595I-4226*
G01*
X190418*
G75*
G02X181225I-4596*
G01*
X172516*
Y121115*
X181225*
G75*
G02X190418I4596*
G01*
X191595*
G75*
G02X200048I4226*
G01*
X297457*
G75*
G02X306174I4358J-1461*
G01*
X307692*
G37*
X264922Y131115D02*
G36*
X260500D01*
Y130526*
X264922*
Y131115*
G37*
X317666Y121115D02*
G36*
X326134D01*
Y131115*
X315038*
Y123007*
G75*
G02X317666Y121115I-420J-3354*
G01*
G37*
X312847Y161396D02*
G36*
X298926D01*
G75*
G02X290473I-4226*
G01*
X272920*
G75*
G02X264471I-4224J125*
G01*
X247993*
G75*
G02X239555I-4219J250*
G01*
X222090*
G75*
G02X213647I-4221J206*
G01*
X172516*
Y131115*
X181225*
G75*
G02X190418I4596*
G01*
X191595*
G75*
G02X200048I4226*
G01*
X248725*
Y131947*
X254571*
Y131115*
X255394*
Y131577*
X260500*
Y131115*
X264922*
Y131587*
X269241*
Y131115*
X269909*
G75*
G02X270244Y131504I2725J-2003*
G01*
X277376Y138636*
G75*
G02X279768Y139628I2393J-2390*
G01*
X314621*
Y148016*
X297237*
G75*
G02X292206Y147983I-2537J3380*
G01*
X271008*
G75*
G02X266382I-2313J3538*
G01*
X245883*
G75*
G02X241529Y148065I-2109J3663*
G01*
X220181*
G75*
G02X213642Y151602I-2313J3537*
G01*
G75*
G02X220181Y155140I4227J0*
G01*
X241396*
G75*
G02X246267Y155058I2378J-3495*
G01*
X266382*
G75*
G02X271008I2313J-3538*
G01*
X292590*
G75*
G02X297237Y154776I2109J-3663*
G01*
X314621*
Y159622*
X312847Y161396*
G37*
X308278Y131115D02*
G36*
Y132868D01*
X281168*
X279415Y131115*
X308278*
G37*
X321360Y161396D02*
G36*
G75*
G02X321381Y161022I-3361J-375D01*
G01*
Y136248*
G75*
G02X318001Y132868I-3380*
G01*
X315038*
Y131115*
X326134*
Y161396*
X321360*
G37*
G36*
X326134*
Y193853*
X325477*
G75*
G02X313645I-5916J4728*
G01*
X298739*
G75*
G02X298741Y193728I-4225J-129*
G01*
G75*
G02X290288I-4226*
G01*
G75*
G02X290290Y193853I4227J-4*
G01*
X272511*
G75*
G02X264092I-4210J374*
G01*
X247821*
G75*
G02X239369I-4226*
G01*
X221800*
G75*
G02X213347I-4226*
G01*
X184987*
G75*
G02X173156I-5916J4728*
G01*
X172516*
Y161396*
X213647*
G75*
G02X213642Y161602I4222J208*
G01*
G75*
G02X222095I4226*
G01*
G75*
G02X222090Y161396I-4228J2*
G01*
X239555*
G75*
G02X239548Y161646I4220J252*
G01*
G75*
G02X248000I4226*
G01*
G75*
G02X247993Y161396I-4228J2*
G01*
X264471*
G75*
G02X264469Y161521I4225J129*
G01*
G75*
G02X272922I4226*
G01*
G75*
G02X272920Y161396I-4227J4*
G01*
X290473*
G75*
G02X298926I4226*
G01*
X312847*
X294735Y179508*
G75*
G02X294515Y179502I-228J4409*
G01*
G75*
G02X291422Y180848I1J4229*
G01*
X270839*
G75*
G02X266361Y180473I-2537J3379*
G01*
X246132*
G75*
G02X241057I-2537J3380*
G01*
X220111*
G75*
G02X213347Y183853I-2537J3380*
G01*
Y183853*
Y183854*
G75*
G02X220111Y187233I4226*
G01*
X241057*
G75*
G02X246132I2537J-3380*
G01*
X265330*
G75*
G02X270839Y187607I2971J-3006*
G01*
X292837*
G75*
G02X298391Y185412I1678J-3880*
G01*
X320389Y163414*
G75*
G02X321360Y161396I-2390J-2393*
G01*
G37*
X173156Y193853D02*
G36*
G75*
G02X172516Y194789I5915J4729D01*
G01*
Y193853*
X173156*
G37*
X315800Y205154D02*
G36*
X182833D01*
G75*
G02X186644Y198581I-3761J-6573*
G01*
G75*
G02X184987Y193853I-7573J0*
G01*
X213347*
G75*
G02X221800I4226*
G01*
X239369*
G75*
G02X247821I4226*
G01*
X264092*
G75*
G02X264075Y194228I4210J374*
G01*
G75*
G02X272528I4226*
G01*
G75*
G02X272511Y193853I-4227J-1*
G01*
X290290*
G75*
G02X298739I4224J-125*
G01*
X313645*
G75*
G02X311989Y198581I5916J4727*
G01*
G75*
G02X315800Y205154I7573*
G01*
G37*
X326134Y194820D02*
G36*
G75*
G02X325477Y193853I-6574J3762D01*
G01*
X326134*
Y194820*
G37*
D02*
D71*
X25494Y91115D02*
X23494D01*
X25494Y101115D02*
X23494D01*
X25494Y121115D02*
X23494D01*
X25494Y131115D02*
X23494D01*
X26328Y69102D02*
X24914Y67688D01*
X26328Y73127D02*
X24914Y74541D01*
X28341Y78268D02*
Y76268D01*
Y93961D02*
Y95961D01*
Y98268D02*
Y96268D01*
Y103961D02*
Y105961D01*
Y118268D02*
Y116268D01*
Y123961D02*
Y125961D01*
Y128268D02*
Y126268D01*
Y133961D02*
Y135961D01*
X30354Y69102D02*
X31768Y67688D01*
X30354Y73127D02*
X31768Y74541D01*
X31187Y81115D02*
X33187D01*
X31187Y91115D02*
X33187D01*
X31187Y101115D02*
X33187D01*
X31187Y121115D02*
X33187D01*
X31187Y131115D02*
X33187D01*
X38341Y48268D02*
Y46268D01*
Y53961D02*
Y55961D01*
X41187Y51115D02*
X43187D01*
X54018Y17722D02*
X52018D01*
X55191Y16352D02*
Y14352D01*
Y19093D02*
Y21093D01*
X56365Y17722D02*
X58365D01*
X57350Y65338D02*
X55497Y63484D01*
X57350Y66206D02*
X55497Y68059D01*
X58218Y65338D02*
X60072Y63484D01*
X58218Y66206D02*
X60072Y68059D01*
X58329Y50264D02*
X56329D01*
X58812Y81251D02*
X56813D01*
X59798Y49484D02*
Y47484D01*
Y51043D02*
Y53043D01*
X60280Y80472D02*
Y78470D01*
Y82031D02*
Y84030D01*
X61266Y50264D02*
X63266D01*
X61749Y81251D02*
X63750D01*
X65935Y93977D02*
X63935D01*
X66714Y92509D02*
Y90510D01*
Y95446D02*
Y97447D01*
X67494Y93977D02*
X69494D01*
X74665Y74441D02*
X72664D01*
X75346Y72037D02*
Y70037D01*
X92994Y128827D02*
X90994D01*
X94168Y127457D02*
Y125457D01*
Y130197D02*
Y132197D01*
X95341Y128827D02*
X97341D01*
X97393Y43474D02*
Y45474D01*
X98074Y41071D02*
X100073D01*
X110735Y40852D02*
X108735D01*
X112204Y40072D02*
Y38073D01*
Y41631D02*
Y43632D01*
X113201Y87843D02*
X111201D01*
X113672Y40852D02*
X115672D01*
X114571Y86669D02*
Y84669D01*
Y89016D02*
Y91016D01*
X115259Y74608D02*
X117258D01*
X115941Y87843D02*
X117941D01*
X121804Y87715D02*
X119804D01*
X123174Y86541D02*
Y84541D01*
Y88888D02*
Y90888D01*
X124544Y87715D02*
X126544D01*
X137286Y93935D02*
X135286D01*
X138754Y93156D02*
Y91156D01*
Y94715D02*
Y96715D01*
X140223Y93935D02*
X142223D01*
X141489Y119654D02*
X139489D01*
X144291Y56287D02*
X142291D01*
X144335Y116807D02*
Y114807D01*
Y122500D02*
Y124500D01*
X147138Y53441D02*
Y51441D01*
Y59133D02*
Y61133D01*
X147181Y119654D02*
X149181D01*
X149984Y56287D02*
X151984D01*
X154291D02*
X152291D01*
X157138Y53441D02*
Y51441D01*
Y59133D02*
Y61133D01*
X159984Y56287D02*
X161984D01*
X182975Y91115D02*
X180975D01*
X182975Y101115D02*
X180975D01*
X182975Y121115D02*
X180975D01*
X182975Y131115D02*
X180975D01*
X183809Y69102D02*
X182394Y67688D01*
X183809Y73127D02*
X182394Y74541D01*
X185821Y78268D02*
Y76268D01*
Y93961D02*
Y95961D01*
Y98268D02*
Y96268D01*
Y103961D02*
Y105961D01*
Y118268D02*
Y116268D01*
Y123961D02*
Y125961D01*
Y128268D02*
Y126268D01*
Y133961D02*
Y135961D01*
X187834Y69102D02*
X189248Y67688D01*
X187834Y73127D02*
X189248Y74541D01*
X188668Y81115D02*
X190668D01*
X188668Y91115D02*
X190668D01*
X188668Y101115D02*
X190668D01*
X188668Y121115D02*
X190668D01*
X188668Y131115D02*
X190668D01*
X195821Y48268D02*
Y46268D01*
Y53961D02*
Y55961D01*
X198668Y51115D02*
X200668D01*
X211498Y17722D02*
X209498D01*
X212672Y16352D02*
Y14352D01*
Y19093D02*
Y21093D01*
X213845Y17722D02*
X215845D01*
X214831Y65338D02*
X212977Y63484D01*
X214831Y66206D02*
X212977Y68059D01*
X215698Y65338D02*
X217552Y63484D01*
X215698Y66206D02*
X217552Y68059D01*
X215809Y50264D02*
X213809D01*
X216292Y81251D02*
X214294D01*
X217278Y49484D02*
Y47484D01*
Y51043D02*
Y53043D01*
X217761Y80472D02*
Y78470D01*
Y82031D02*
Y84030D01*
X218746Y50264D02*
X220746D01*
X219229Y81251D02*
X221231D01*
X223415Y93977D02*
X221416D01*
X224194Y92509D02*
Y90510D01*
Y95446D02*
Y97447D01*
X224974Y93977D02*
X226975D01*
X232145Y74441D02*
X230144D01*
X232826Y72037D02*
Y70037D01*
X250475Y128827D02*
X248475D01*
X251648Y127457D02*
Y125457D01*
Y130197D02*
Y132197D01*
X252821Y128827D02*
X254821D01*
X254874Y43474D02*
Y45474D01*
X255555Y41071D02*
X257554D01*
X268216Y40852D02*
X266215D01*
X269684Y40072D02*
Y38073D01*
Y41631D02*
Y43632D01*
X270681Y87843D02*
X268681D01*
X271153Y40852D02*
X273152D01*
X272052Y86669D02*
Y84669D01*
Y89016D02*
Y91016D01*
X272739Y74608D02*
X274739D01*
X273422Y87843D02*
X275422D01*
X279284Y87715D02*
X277284D01*
X280654Y86541D02*
Y84541D01*
Y88888D02*
Y90888D01*
X282024Y87715D02*
X284024D01*
X294766Y93935D02*
X292766D01*
X296235Y93156D02*
Y91156D01*
Y94715D02*
Y96715D01*
X297703Y93935D02*
X299703D01*
X298969Y119654D02*
X296969D01*
X301772Y56287D02*
X299772D01*
X301815Y116807D02*
Y114807D01*
Y122500D02*
Y124500D01*
X304618Y53441D02*
Y51441D01*
Y59133D02*
Y61133D01*
X304662Y119654D02*
X306662D01*
X307465Y56287D02*
X309465D01*
X311772D02*
X309772D01*
X314618Y53441D02*
Y51441D01*
Y59133D02*
Y61133D01*
X317465Y56287D02*
X319465D01*
D02*
D25*
X66714Y93977D03*
X71323Y17944D03*
X72265Y93977D03*
X76874Y17944D03*
X100034Y112921D03*
X100044Y105766D03*
X105585Y112921D03*
X105595Y105766D03*
X109601Y128738D03*
X115152D03*
X224194Y93977D03*
X228804Y17944D03*
X229746Y93977D03*
X234355Y17944D03*
X257514Y112921D03*
X257524Y105766D03*
X263065Y112921D03*
X263075Y105766D03*
X267081Y128738D03*
X272632D03*
D02*
D26*
X59798Y50264D03*
Y55815D03*
X60280Y75700D03*
Y81251D03*
X112204Y40852D03*
Y46403D03*
X138754Y88384D03*
Y93935D03*
X217278Y50264D03*
Y55815D03*
X217761Y75700D03*
Y81251D03*
X269684Y40852D03*
Y46403D03*
X296235Y88384D03*
Y93935D03*
D02*
D27*
X69685Y46732D03*
Y49882D03*
Y53031D03*
Y56181D03*
Y59331D03*
Y62480D03*
Y65630D03*
Y68780D03*
X103055Y46732D03*
Y49882D03*
Y53031D03*
Y56181D03*
Y59331D03*
Y62480D03*
Y65630D03*
Y68780D03*
X227165Y46732D03*
Y49882D03*
Y53031D03*
Y56181D03*
Y59331D03*
Y62480D03*
Y65630D03*
Y68780D03*
X260535Y46732D03*
Y49882D03*
Y53031D03*
Y56181D03*
Y59331D03*
Y62480D03*
Y65630D03*
Y68780D03*
D02*
D28*
X75346Y41071D03*
Y74441D03*
X78496Y41071D03*
Y74441D03*
X81645Y41071D03*
Y74441D03*
X84795Y41071D03*
Y74441D03*
X87944Y41071D03*
Y74441D03*
X91094Y41071D03*
Y74441D03*
X94244Y41071D03*
Y74441D03*
X97393Y41071D03*
Y74441D03*
X232826Y41071D03*
Y74441D03*
X235976Y41071D03*
Y74441D03*
X239126Y41071D03*
Y74441D03*
X242275Y41071D03*
Y74441D03*
X245425Y41071D03*
Y74441D03*
X248574Y41071D03*
Y74441D03*
X251724Y41071D03*
Y74441D03*
X254874Y41071D03*
Y74441D03*
D02*
D29*
X114571Y87843D03*
Y94142D03*
X123174Y87715D03*
Y94014D03*
X272052Y87843D03*
Y94142D03*
X280654Y87715D03*
Y94014D03*
D02*
D73*
X57784Y61047D03*
Y65772D03*
Y70496D03*
X215265Y61047D03*
Y65772D03*
Y70496D03*
D02*
D74*
X28341Y41115D03*
Y51115D03*
Y61115D03*
Y71115D03*
Y81115D03*
Y91115D03*
Y101115D03*
Y111115D03*
Y121115D03*
Y131115D03*
X38341Y41115D03*
Y51115D03*
Y61115D03*
Y71115D03*
Y81115D03*
Y91115D03*
Y101115D03*
Y111115D03*
Y121115D03*
Y131115D03*
X60093Y183853D03*
Y193853D03*
X60388Y151602D03*
Y161602D03*
X86115Y183853D03*
Y193853D03*
X86294Y151646D03*
Y161646D03*
X110821Y184228D03*
Y194228D03*
X111215Y151521D03*
Y161521D03*
X137034Y183728D03*
Y193728D03*
X137219Y151396D03*
Y161396D03*
X144335Y119654D03*
X147138Y46287D03*
Y56287D03*
Y66287D03*
Y76287D03*
Y86287D03*
X154178Y119654D03*
X157138Y46287D03*
Y56287D03*
Y66287D03*
Y76287D03*
Y86287D03*
X185821Y41115D03*
Y51115D03*
Y61115D03*
Y71115D03*
Y81115D03*
Y91115D03*
Y101115D03*
Y111115D03*
Y121115D03*
Y131115D03*
X195821Y41115D03*
Y51115D03*
Y61115D03*
Y71115D03*
Y81115D03*
Y91115D03*
Y101115D03*
Y111115D03*
Y121115D03*
Y131115D03*
X217573Y183853D03*
Y193853D03*
X217869Y151602D03*
Y161602D03*
X243595Y183853D03*
Y193853D03*
X243774Y151646D03*
Y161646D03*
X268302Y184228D03*
Y194228D03*
X268695Y151521D03*
Y161521D03*
X294515Y183728D03*
Y193728D03*
X294699Y151396D03*
Y161396D03*
X301815Y119654D03*
X304618Y46287D03*
Y56287D03*
Y66287D03*
Y76287D03*
Y86287D03*
X311658Y119654D03*
X314618Y46287D03*
Y56287D03*
Y66287D03*
Y76287D03*
Y86287D03*
D02*
D77*
X36372Y165697D03*
X46308Y85961D03*
X54789Y99219D03*
X59781Y30203D03*
X64024Y108829D03*
X67893Y35320D03*
X76006Y59282D03*
X76261Y65630D03*
X77384Y85337D03*
X80005Y55509D03*
Y60626D03*
X80254Y50268D03*
X84248Y55634D03*
Y60751D03*
X84498Y50393D03*
X84795Y83091D03*
X87944Y85961D03*
X88491Y55634D03*
Y60751D03*
X88741Y50393D03*
X90987Y90954D03*
X92984Y55634D03*
Y60751D03*
X93234Y50393D03*
X94244Y87958D03*
X97101Y94601D03*
X97228Y79971D03*
X102969Y75977D03*
X105958Y34321D03*
X109328Y30203D03*
Y96848D03*
X109404Y19988D03*
X112448Y56181D03*
X114694Y53031D03*
X116941Y115923D03*
X118189Y56536D03*
X120935Y69612D03*
X122432Y74383D03*
X122741Y38787D03*
X123252Y30352D03*
X124180Y77753D03*
X124304Y169992D03*
X126559Y38876D03*
X126904Y30539D03*
X128538Y34732D03*
X132780Y34506D03*
X134066Y69608D03*
Y74608D03*
X145191Y101711D03*
X193853Y165697D03*
X203788Y85961D03*
X212269Y99219D03*
X217261Y30203D03*
X221505Y108829D03*
X225374Y35320D03*
X233486Y59282D03*
X233741Y65630D03*
X234864Y85337D03*
X237485Y55509D03*
Y60626D03*
X237735Y50268D03*
X241728Y55634D03*
Y60751D03*
X241978Y50393D03*
X242275Y83091D03*
X245425Y85961D03*
X245972Y55634D03*
Y60751D03*
X246221Y50393D03*
X248468Y90954D03*
X250465Y55634D03*
Y60751D03*
X250714Y50393D03*
X251724Y87958D03*
X254581Y94601D03*
X254708Y79971D03*
X260449Y75977D03*
X263439Y34321D03*
X266808Y30203D03*
Y96848D03*
X266884Y19988D03*
X269928Y56181D03*
X272175Y53031D03*
X274421Y115923D03*
X275669Y56536D03*
X278415Y69612D03*
X279913Y74383D03*
X280221Y38787D03*
X280733Y30352D03*
X281660Y77753D03*
X281785Y169992D03*
X284040Y38876D03*
X284384Y30539D03*
X286018Y34732D03*
X290260Y34506D03*
X291546Y69608D03*
Y74608D03*
X302672Y101711D03*
D02*
D78*
X28341Y41115D02*
X30827D01*
Y40837*
X33328*
X28341Y61115D02*
X28001D01*
X22096Y67020*
Y82620*
X25437Y85961*
X46308*
X33328Y40837D02*
X35819D01*
Y41115*
X38341*
X33328Y40837D02*
Y65868D01*
X43063*
X46053Y68858*
Y68892*
X52861Y75700*
X60280*
X52798Y42055D02*
X38341D01*
Y41115*
X52798Y42055D02*
Y42193D01*
X52847*
X70445Y24594*
X76874*
Y17944*
X57784Y61047D02*
X63650D01*
Y61154*
X64976Y62480*
X69685*
X57784Y70496D02*
Y70389D01*
X61653*
X63650Y68393*
Y68376*
X66396Y65630*
X69685*
X59798Y55815D02*
X52798D01*
Y42055*
X60280Y75700D02*
X62876D01*
X69685Y68892*
Y68780*
X67893Y35320D02*
Y46761D01*
X69685*
Y46732*
Y56181D02*
Y56140D01*
X59798*
Y55815*
X69685Y68807D02*
Y68780D01*
X71323Y17944D02*
Y17722D01*
X61491*
X72265Y93977D02*
Y83845D01*
X77138Y78972*
X77259*
X78496Y77736*
Y74441*
X76006Y59282D02*
Y59331D01*
X69685*
X81645Y74441D02*
Y80873D01*
X81174Y81344*
X81128*
X77384Y85088*
Y85337*
X84795Y74441D02*
Y83091D01*
X87944Y74441D02*
Y85961D01*
X90987Y90954D02*
X91094D01*
Y74441*
Y41071D02*
Y37192D01*
X98083Y30203*
X109328*
X94244Y41071D02*
Y37924D01*
X97846Y34321*
X105958*
X94244Y87958D02*
Y74441D01*
X97101Y94601D02*
Y110224D01*
X99798Y112921*
X100034*
X97228Y79971D02*
Y74441D01*
X97393*
X102969Y75977D02*
X103055D01*
Y68780*
Y49882D02*
X115653D01*
X118189Y52418*
Y56536*
X103055Y53031D02*
X114694D01*
X103055Y56181D02*
X112448D01*
X103055Y59331D02*
X107581D01*
X112806Y64556*
Y64608*
X103055Y65630D02*
X76261D01*
X105585Y112921D02*
X110732D01*
X123174Y100480*
Y94014*
X105595Y105766D02*
X109146D01*
X114571Y100341*
Y94142*
X109328Y96848D02*
X108024D01*
X100044Y104828*
Y105766*
X109404Y19988D02*
X104827Y24565D01*
X76874*
Y17944*
X109601Y128738D02*
X100467D01*
Y128827*
X112204Y46403D02*
X115181D01*
X117937Y43647*
Y28522*
X109404Y19988*
X112204Y46403D02*
Y46732D01*
X103055*
X112806Y69608D02*
X115948D01*
Y69612*
X120935*
X112806Y79608D02*
X110440D01*
X107711Y76879*
Y63359*
X106832Y62480*
X103055*
X134066Y69608D02*
Y74608*
Y79608*
X138754D01*
Y88384*
X185821Y41115D02*
X188307D01*
Y40837*
X190809*
X185821Y61115D02*
X185481D01*
X179576Y67020*
Y82620*
X182918Y85961*
X203788*
X190809Y40837D02*
X193299D01*
Y41115*
X195821*
X190809Y40837D02*
Y65868D01*
X200543*
X203533Y68858*
Y68892*
X210341Y75700*
X217761*
X210278Y42055D02*
X195821D01*
Y41115*
X210278Y42055D02*
Y42193D01*
X210327*
X227926Y24594*
X234355*
Y17944*
X215265Y61047D02*
X221130D01*
Y61154*
X222457Y62480*
X227165*
X215265Y70496D02*
Y70389D01*
X219133*
X221130Y68393*
Y68376*
X223876Y65630*
X227165*
X217278Y55815D02*
X210278D01*
Y42055*
X217761Y75700D02*
X220357D01*
X227165Y68892*
Y68780*
X225374Y35320D02*
Y46761D01*
X227165*
Y46732*
Y56181D02*
Y56140D01*
X217278*
Y55815*
X227165Y68807D02*
Y68780D01*
X228804Y17944D02*
Y17722D01*
X218971*
X229746Y93977D02*
Y83845D01*
X234619Y78972*
X234739*
X235976Y77736*
Y74441*
X233486Y59282D02*
Y59331D01*
X227165*
X239126Y74441D02*
Y80873D01*
X238655Y81344*
X238608*
X234864Y85088*
Y85337*
X242275Y74441D02*
Y83091D01*
X245425Y74441D02*
Y85961D01*
X248468Y90954D02*
X248574D01*
Y74441*
Y41071D02*
Y37192D01*
X255563Y30203*
X266808*
X251724Y41071D02*
Y37924D01*
X255326Y34321*
X263439*
X251724Y87958D02*
Y74441D01*
X254581Y94601D02*
Y110224D01*
X257278Y112921*
X257514*
X254708Y79971D02*
Y74441D01*
X254874*
X260449Y75977D02*
X260535D01*
Y68780*
Y49882D02*
X273133D01*
X275669Y52418*
Y56536*
X260535Y53031D02*
X272175D01*
X260535Y56181D02*
X269928D01*
X260535Y59331D02*
X265061D01*
X270287Y64556*
Y64608*
X260535Y65630D02*
X233741D01*
X263065Y112921D02*
X268213D01*
X280654Y100480*
Y94014*
X263075Y105766D02*
X266626D01*
X272052Y100341*
Y94142*
X266808Y96848D02*
X265504D01*
X257524Y104828*
Y105766*
X266884Y19988D02*
X262307Y24565D01*
X234355*
Y17944*
X267081Y128738D02*
X257947D01*
Y128827*
X269684Y46403D02*
X272662D01*
X275418Y43647*
Y28522*
X266884Y19988*
X269684Y46403D02*
Y46732D01*
X260535*
X270287Y69608D02*
X273428D01*
Y69612*
X278415*
X270287Y79608D02*
X267920D01*
X265191Y76879*
Y63359*
X264312Y62480*
X260535*
X291546Y69608D02*
Y74608*
Y79608*
X296235D01*
Y88384*
D02*
D90*
X60093Y183853D02*
X86115D01*
X60388Y151602D02*
Y151646D01*
X86294*
X86115Y183853D02*
X110821D01*
Y184228*
X137034*
Y183728*
X111215Y151521D02*
X86294D01*
Y151646*
X111215Y151521D02*
X137219D01*
Y151396*
X115152Y128738D02*
Y129112D01*
X122288Y136248*
X154178*
X136785Y151521D02*
Y151455D01*
X137219*
Y151396*
X137034Y183728D02*
X137815D01*
X160521Y161022*
Y151396*
X137034Y184228D02*
Y183728D01*
X154178Y119654D02*
Y136248D01*
X160521*
Y151396*
X157138Y86287D02*
Y119654D01*
X154178*
X157138Y86287D02*
X147138D01*
X160521Y151396D02*
X137219D01*
X217573Y183853D02*
X243595D01*
X217869Y151602D02*
Y151646D01*
X243774*
X243595Y183853D02*
X268302D01*
Y184228*
X294515*
Y183728*
X268695Y151521D02*
X243774D01*
Y151646*
X268695Y151521D02*
X294699D01*
Y151396*
X272632Y128738D02*
Y129112D01*
X279768Y136248*
X311658*
X294265Y151521D02*
Y151455D01*
X294699*
Y151396*
X294515Y183728D02*
X295295D01*
X318001Y161022*
Y151396*
X294515Y184228D02*
Y183728D01*
X311658Y119654D02*
Y136248D01*
X318001*
Y151396*
X314618Y86287D02*
Y119654D01*
X311658*
X314618Y86287D02*
X304618D01*
X318001Y151396D02*
X294699D01*
D02*
D91*
X21591Y18738D03*
Y198581D03*
X162081Y18738D03*
Y198581D03*
X179072Y18738D03*
Y198581D03*
X319561Y18738D03*
Y198581D03*
D02*
D92*
X112806Y64608D03*
Y69608D03*
Y74608D03*
Y79608D03*
X134066Y64608D03*
Y69608D03*
Y74608D03*
Y79608D03*
X270287Y64608D03*
Y69608D03*
Y74608D03*
Y79608D03*
X291546Y64608D03*
Y69608D03*
Y74608D03*
Y79608D03*
D02*
D93*
X55191Y17722D03*
X61491D03*
X94168Y128827D03*
X100467D03*
X212672Y17722D03*
X218971D03*
X251648Y128827D03*
X257947D03*
X0Y0D02*
M02*
