G04 EasyPC Gerber Version 21.0.3 Build 4286 *
G04 #@! TF.Part,Single*
G04 #@! TF.FileFunction,Copper,L1,Top *
G04 #@! TF.FilePolarity,Positive *
%FSLAX45Y45*%
%MOIN*%
G04 #@! TA.AperFunction,SMDPad*
%ADD119R,0.02362X0.05807*%
%ADD73R,0.02559X0.03937*%
%ADD76R,0.02559X0.05906*%
%ADD78R,0.03346X0.03740*%
G04 #@! TA.AperFunction,ComponentPad*
%ADD80R,0.10630X0.10630*%
G04 #@! TD.AperFunction*
%ADD22C,0.00500*%
%ADD25C,0.01000*%
%ADD120C,0.01500*%
G04 #@! TA.AperFunction,ViaPad*
%ADD84C,0.02362*%
G04 #@! TD.AperFunction*
%ADD88C,0.05000*%
G04 #@! TA.AperFunction,ViaPad*
%ADD87C,0.05600*%
G04 #@! TA.AperFunction,ComponentPad*
%ADD79C,0.06000*%
%ADD77C,0.06693*%
%ADD81C,0.10630*%
G04 #@! TA.AperFunction,WasherPad*
%ADD27C,0.24016*%
G04 #@! TA.AperFunction,SMDPad*
%ADD75R,0.08268X0.01575*%
%ADD118R,0.05807X0.02362*%
%ADD74R,0.03937X0.02559*%
%ADD139R,0.03740X0.03346*%
X0Y0D02*
D02*
D22*
X26915Y100587D02*
X22819D01*
G75*
G02X19591Y92719I-3229J-3272*
G01*
G75*
G02X15203Y95946J4596*
G01*
Y94119*
X18065Y91257*
G75*
G02X22852Y90003I1526J-3941*
G01*
Y92140*
G75*
G02X24640Y93928I1787*
G01*
X27064*
G75*
G02X26915Y100587I2527J3388*
G01*
G36*
X22819*
G75*
G02X19591Y92719I-3229J-3272*
G01*
G75*
G02X15203Y95946J4596*
G01*
Y94119*
X18065Y91257*
G75*
G02X22852Y90003I1526J-3941*
G01*
Y92140*
G75*
G02X24640Y93928I1787*
G01*
X27064*
G75*
G02X26915Y100587I2527J3388*
G01*
G37*
X48750Y90353D02*
X32530D01*
G75*
G02X29591Y83089I-2939J-3037*
G01*
G75*
G02X26427Y84513J4226*
G01*
Y80650*
G75*
G02X34187Y77315I3163J-3335*
G01*
G75*
G02X26427Y73981I-4596*
G01*
Y70118*
G75*
G02X33638Y68532I3163J-2803*
G01*
X42486*
Y71508*
G75*
G02X44116Y73138I1630*
G01*
X48268*
Y73668*
X53965*
Y73662*
X57219*
Y76386*
X57076*
X56280Y75526*
G75*
G02X54967Y74953I-1312J1214*
G01*
X49103*
G75*
G02X48459Y75073J1787*
G01*
X44089*
Y78408*
X48459*
G75*
G02X49103Y78528I644J-1667*
G01*
X54187*
X54983Y79388*
G75*
G02X56297Y79961I1312J-1214*
G01*
X56557*
G75*
G02X56446Y80063I1159J1363*
G01*
X54486Y82035*
Y79428*
X43719*
Y83502*
X53058*
X52204Y84402*
X49103*
G75*
G02X48459Y84522J1787*
G01*
X44089*
Y87857*
X48459*
G75*
G02X49103Y87977I644J-1667*
G01*
X52970*
G75*
G02X53616Y87857I2J-1787*
G01*
X54116*
Y87562*
G75*
G02X54268Y87420I-1143J-1374*
G01*
X56251Y85331*
X57219Y84357*
Y85842*
X53826Y89235*
X48750*
Y90353*
G36*
X32530*
G75*
G02X29591Y83089I-2939J-3037*
G01*
G75*
G02X26427Y84513J4226*
G01*
Y80650*
G75*
G02X34187Y77315I3163J-3335*
G01*
G75*
G02X26427Y73981I-4596*
G01*
Y70118*
G75*
G02X33638Y68532I3163J-2803*
G01*
X42486*
Y71508*
G75*
G02X44116Y73138I1630*
G01*
X48268*
Y73668*
X53965*
Y73662*
X57219*
Y76386*
X57076*
X56280Y75526*
G75*
G02X54967Y74953I-1312J1214*
G01*
X49103*
G75*
G02X48459Y75073J1787*
G01*
X44089*
Y78408*
X48459*
G75*
G02X49103Y78528I644J-1667*
G01*
X54187*
X54983Y79388*
G75*
G02X56297Y79961I1312J-1214*
G01*
X56557*
G75*
G02X56446Y80063I1159J1363*
G01*
X54486Y82035*
Y79428*
X43719*
Y83502*
X53058*
X52204Y84402*
X49103*
G75*
G02X48459Y84522J1787*
G01*
X44089*
Y87857*
X48459*
G75*
G02X49103Y87977I644J-1667*
G01*
X52970*
G75*
G02X53616Y87857I2J-1787*
G01*
X54116*
Y87562*
G75*
G02X54268Y87420I-1143J-1374*
G01*
X56251Y85331*
X57219Y84357*
Y85842*
X53826Y89235*
X48750*
Y90353*
G37*
X64785Y73188D02*
Y60548D01*
X86281*
Y60918*
X90589*
Y79693*
X68841*
G75*
G02X65518Y81323I-1261J1630*
G01*
G75*
G02X68841Y82953I2061*
G01*
X90589*
Y86351*
X69096*
Y85981*
X64785*
Y76763*
X66298*
G75*
G02X69385Y74975I1026J-1787*
G01*
G75*
G02X66298Y73188I-2061*
G01*
X64785*
G36*
Y60548*
X86281*
Y60918*
X90589*
Y79693*
X68841*
G75*
G02X65518Y81323I-1261J1630*
G01*
G75*
G02X68841Y82953I2061*
G01*
X90589*
Y86351*
X69096*
Y85981*
X64785*
Y76763*
X66298*
G75*
G02X69385Y74975I1026J-1787*
G01*
G75*
G02X66298Y73188I-2061*
G01*
X64785*
G37*
X87192Y52611D02*
Y52469D01*
X96764*
G75*
G02X99816Y49818I1261J-1630*
G01*
G75*
G02X102307Y46544I1143J-1715*
G01*
X104004*
Y54014*
X98626*
Y59073*
X104004*
Y59935*
X98996*
Y60796*
X98156*
Y60365*
X91144*
Y52611*
X87192*
G36*
Y52469*
X96764*
G75*
G02X99816Y49818I1261J-1630*
G01*
G75*
G02X102307Y46544I1143J-1715*
G01*
X104004*
Y54014*
X98626*
Y59073*
X104004*
Y59935*
X98996*
Y60796*
X98156*
Y60365*
X91144*
Y52611*
X87192*
G37*
X176638Y93113D02*
X163206D01*
G75*
G02X162904Y92570I-1932J719*
G01*
Y86994*
X164122*
Y82676*
X158425*
Y86994*
X159644*
Y92570*
G75*
G02X159342Y93113I1630J1262*
G01*
X154915*
Y146154*
X40555*
Y169599*
X6104*
Y43850*
G75*
G02X31248Y39865I12256J-3986*
G01*
G75*
G02X22346Y27609I-12888J0*
G01*
X135683*
Y27680*
X135614*
Y56380*
X171494*
X176638Y61524*
Y93113*
X166884Y68870D02*
X173124D01*
Y63024*
X166884*
Y68870*
X167126Y81788D02*
X172823D01*
Y77469*
X171762*
Y74800*
X172754*
Y69693*
X167254*
Y74800*
X168187*
Y77469*
X167126*
Y81788*
X171604Y87339D02*
X172823D01*
Y83020*
X167126*
Y87339*
X168344*
Y89204*
G75*
G02X167913Y90465I1630J1261*
G01*
G75*
G02X172035I2061*
G01*
G75*
G02X171604Y89204I-2061*
G01*
Y87339*
X158409Y68733D02*
X164650D01*
Y62886*
X158409*
Y68733*
X162904Y74662D02*
X164280D01*
Y69556*
X158780*
Y74662*
X159644*
Y77124*
X158425*
Y81443*
X164122*
Y77124*
X162904*
Y74662*
X46500Y110180D02*
X51559D01*
Y103743*
X46500*
Y110180*
X48380Y99475D02*
X54817D01*
Y94416*
X48380*
Y99475*
X52325Y135317D02*
G75*
G02X60085I3880D01*
G01*
G75*
G02X52325I-3880*
G01*
X138553Y95528D02*
X139083D01*
Y87863*
X134764*
Y95528*
X135293*
Y105252*
X102687*
Y78174*
G75*
G02X101646Y76654I-1630*
G01*
X105517*
X114417Y85553*
G75*
G02X115570Y86032I1154J-1151*
G01*
X120293*
Y87863*
X119764*
Y95528*
X124083*
Y87863*
X123553*
Y84402*
G75*
G02X121923Y82772I-1630*
G01*
X116246*
X107346Y73873*
G75*
G02X106193Y73394I-1154J1151*
G01*
X105159*
G75*
G02Y70355I-1392J-1520*
G01*
X105189*
G75*
G02X107878Y70212I1261J-1630*
G01*
Y70968*
G75*
G02X107446Y72230I1630J1261*
G01*
G75*
G02X111569I2061*
G01*
G75*
G02X111137Y70968I-2061*
G01*
Y67079*
G75*
G02X110659Y65925I-1630*
G01*
X109157Y64424*
G75*
G02X108004Y63945I-1154J1151*
G01*
X104693*
Y63727*
X105634*
G75*
G02X107264Y62097J-1630*
G01*
Y53681*
G75*
G02X109929Y55491I3527J-2328*
G01*
Y57916*
G75*
G02X110408Y59070I1630*
G01*
X114152Y62813*
Y74924*
G75*
G02X114630Y76078I1630*
G01*
X119864Y81311*
G75*
G02X121018Y81790I1154J-1151*
G01*
X125293*
Y87863*
X124764*
Y95528*
X129083*
Y87863*
X128553*
Y81910*
G75*
G02X129526Y80160I-1089J-1750*
G01*
G75*
G02X126203Y78530I-2061*
G01*
X121693*
X117411Y74248*
Y62138*
G75*
G02X116933Y60984I-1630*
G01*
X113189Y57241*
Y54833*
G75*
G02X115017Y51353I-2398J-3480*
G01*
G75*
G02X107264Y49025I-4226*
G01*
Y44914*
G75*
G02X105634Y43284I-1630*
G01*
X85551*
Y34846*
G75*
G02X85982Y33585I-1630J-1261*
G01*
G75*
G02X81860I-2061*
G01*
G75*
G02X82291Y34846I2061*
G01*
Y44914*
G75*
G02X83446Y46473I1630*
G01*
X82413*
G75*
G02X80783Y48103J1630*
G01*
Y52981*
X64604*
Y60365*
X61358*
Y56904*
G75*
G02X61632Y55878I-1787J-1026*
G01*
G75*
G02X57510I-2061*
G01*
G75*
G02X57783Y56904I2061*
G01*
Y60365*
X57219*
Y70087*
X53965*
Y69349*
X48268*
Y69878*
X45746*
Y67635*
G75*
G02X45904Y66902I-1630J-733*
G01*
Y58628*
X62503Y42075*
X68193*
G75*
G02X69980Y40288J-1787*
G01*
Y36487*
X70352*
Y35267*
X71134*
G75*
G02X74457Y33637I1261J-1630*
G01*
G75*
G02X71134Y32007I-2061*
G01*
X70352*
Y30790*
X66033*
Y36487*
X66406*
Y38500*
X61764*
G75*
G02X60500Y39024I0J1787*
G01*
X42855Y56619*
G75*
G02X42329Y57886I1261J1267*
G01*
Y65272*
X33290*
G75*
G02X25784Y65479I-3700J2043*
G01*
X25373*
G75*
G02X23906I-733J1630*
G01*
X23397*
G75*
G02X15364Y67315I-3806J1837*
G01*
G75*
G02X22852Y70003I4226*
G01*
Y74628*
G75*
G02X15364Y77315I-3262J2687*
G01*
G75*
G02X22852Y80003I4226*
G01*
Y84628*
G75*
G02X15589Y88676I-3262J2687*
G01*
X12152Y92115*
G75*
G02X11628Y93378I1264J1264*
G01*
Y100393*
G75*
G02Y100395I654J1*
G01*
G75*
G02Y100396I663J0*
G01*
G75*
G02X12151Y101659I1787*
G01*
X14129Y103638*
G75*
G02X15396Y104162I1264J-1264*
G01*
X16246*
G75*
G02X19591Y111912I3344J3154*
G01*
G75*
G02X22935Y104162J-4596*
G01*
X26777*
G75*
G02X29591Y111542I2814J3154*
G01*
G75*
G02X32404Y104162J-4226*
G01*
X35238*
G75*
G02X38325Y102374I1026J-1787*
G01*
G75*
G02X35238Y100587I-2061*
G01*
X32266*
G75*
G02X32117Y93928I-2676J-3272*
G01*
X51599*
G75*
G02X52693Y93554J-1787*
G01*
X54447*
Y93163*
G75*
G02X55461Y92655I-252J-1770*
G01*
X61582Y86534*
X64234*
Y94288*
X66307*
X56482Y104113*
X52421*
Y109809*
X56740*
Y108652*
G75*
G02X57428Y108223I-578J-1691*
G01*
X69691Y95959*
X71017Y94750*
G75*
G02X71175Y94586I-1206J-1320*
G01*
Y95826*
X67086Y99870*
G75*
G02X66553Y101143I1255J1273*
G01*
Y106073*
G75*
G02X66280Y107099I1787J1026*
G01*
G75*
G02X70402I2061*
G01*
G75*
G02X70128Y106073I-2061*
G01*
Y101889*
X73748Y98309*
G75*
G02X73758Y98299I-1301J-1261*
G01*
X74226Y97830*
G75*
G02X74483Y97505I-1264J-1265*
G01*
Y105306*
G75*
G02X77633Y107959I1630J1261*
G01*
Y108692*
G75*
G02X77202Y109953I1630J1261*
G01*
G75*
G02X81324I2061*
G01*
G75*
G02X80893Y108692I-2061*
G01*
Y108639*
G75*
G02X83737Y108621I1413J-1500*
G01*
G75*
G02X83501Y109579I1825J958*
G01*
G75*
G02X87623I2061*
G01*
G75*
G02X87192Y108318I-2061*
G01*
Y101793*
G75*
G02X90176Y98977I1354J-1554*
G01*
Y93918*
X90774*
Y86534*
X92500*
Y102569*
G75*
G02X92226Y103595I1787J1026*
G01*
G75*
G02X96348I2061*
G01*
G75*
G02X96074Y102569I-2061*
G01*
Y86534*
X98156*
Y79804*
X99427*
Y106882*
G75*
G02X101057Y108512I1630*
G01*
X136923*
G75*
G02X138553Y106882J-1630*
G01*
Y95528*
X129394Y95898D02*
X134453D01*
Y87493*
X129394*
Y95898*
X132421Y55253D02*
G75*
G02X135017Y51353I-1630J-3900D01*
G01*
G75*
G02X127677Y48495I-4226*
G01*
Y44211*
G75*
G02X135017Y41353I3114J-2858*
G01*
G75*
G02X126891Y39723I-4226*
G01*
X126047*
G75*
G02X125176Y39976J1630*
G01*
G75*
G02X116194Y41353I-4385J1378*
G01*
G75*
G02X124417Y44178I4596*
G01*
Y48529*
G75*
G02X116194Y51353I-3626J2824*
G01*
G75*
G02X124417Y54178I4596*
G01*
Y59132*
X123888*
Y64829*
X124417*
Y70435*
G75*
G02X124764Y71440I1630*
G01*
Y74268*
X129083*
Y66603*
X127677*
Y64829*
X128207*
Y59132*
X127677*
Y54211*
G75*
G02X129161Y55253I3114J-2858*
G01*
Y61981*
G75*
G02X129439Y62891I1630*
G01*
Y64829*
X129969*
Y66603*
X129764*
Y74268*
X134083*
Y66603*
X133228*
Y64829*
X133758*
Y59132*
X132421*
Y55253*
X145276Y64750D02*
X145805D01*
Y59054*
X141486*
Y64750*
X142016*
Y68806*
X139083*
Y66603*
X134764*
Y74268*
X139083*
Y72065*
X143646*
G75*
G02X145276Y70435J-1630*
G01*
Y64750*
X119764Y74268D02*
X124083D01*
Y66603*
X119764*
Y74268*
X106565Y41353D02*
G75*
G02X115017I4226D01*
G01*
G75*
G02X106565I-4226*
G01*
X47898Y68487D02*
X54335D01*
Y63428*
X47898*
Y68487*
X43587Y36536D02*
X49433D01*
Y30296*
X43587*
Y36536*
X60482Y36487D02*
X64801D01*
Y30790*
X60482*
Y31786*
X55362*
Y30666*
X50256*
Y36166*
X55362*
Y35046*
X60482*
Y36487*
X62325Y135317D02*
G75*
G02X70085I3880D01*
G01*
G75*
G02X62325I-3880*
G01*
X72325D02*
G75*
G02X80085I3880D01*
G01*
G75*
G02X72325I-3880*
G01*
X82325D02*
G75*
G02X90085I3880D01*
G01*
G75*
G02X82325I-3880*
G01*
X91955D02*
G75*
G02X100455I4250D01*
G01*
G75*
G02X91955I-4250*
G01*
X102325D02*
G75*
G02X110085I3880D01*
G01*
G75*
G02X102325I-3880*
G01*
X112325D02*
G75*
G02X120085I3880D01*
G01*
G75*
G02X112325I-3880*
G01*
X122325D02*
G75*
G02X130085I3880D01*
G01*
G75*
G02X122325I-3880*
G01*
X132325D02*
G75*
G02X140085I3880D01*
G01*
G75*
G02X132325I-3880*
G01*
X141955D02*
G75*
G02X150455I4250D01*
G01*
G75*
G02X141955I-4250*
G01*
X146667Y65120D02*
X151726D01*
Y58683*
X146667*
Y65120*
X14994Y117315D02*
G75*
G02X24187I4596D01*
G01*
G75*
G02X14994I-4596*
G01*
Y127315D02*
G75*
G02X24187I4596D01*
G01*
G75*
G02X14994I-4596*
G01*
Y147315D02*
G75*
G02X24187I4596D01*
G01*
G75*
G02X14994I-4596*
G01*
X15364Y137315D02*
G75*
G02X23817I4226D01*
G01*
G75*
G02X15364I-4226*
G01*
X14994Y157315D02*
G75*
G02X24187I4596D01*
G01*
G75*
G02X14994I-4596*
G01*
X25364Y117315D02*
G75*
G02X33817I4226D01*
G01*
G75*
G02X25364I-4226*
G01*
Y127315D02*
G75*
G02X33817I4226D01*
G01*
G75*
G02X25364I-4226*
G01*
Y137315D02*
G75*
G02X33817I4226D01*
G01*
G75*
G02X25364I-4226*
G01*
Y147315D02*
G75*
G02X33817I4226D01*
G01*
G75*
G02X25364I-4226*
G01*
Y157315D02*
G75*
G02X33817I4226D01*
G01*
G75*
G02X25364I-4226*
G01*
X135614Y33416D02*
G36*
X85975D01*
G75*
G02X81867I-2054J169*
G01*
X74445*
G75*
G02X71134Y32007I-2049J221*
G01*
X70352*
Y30790*
X66033*
Y33416*
X64801*
Y30790*
X60482*
Y31786*
X55362*
Y30666*
X50256*
Y33416*
X49433*
Y30296*
X43587*
Y33416*
X29519*
G75*
G02X23046Y27859I-11159J6449*
G01*
X135614*
Y33416*
G37*
X66033D02*
G36*
Y36487D01*
X66406*
Y38500*
X61764*
G75*
G02X60500Y39024I1J1789*
G01*
X58164Y41353*
X31162*
G75*
G02X31248Y39865I-12803J-1488*
G01*
G75*
G02X29519Y33416I-12888*
G01*
X43587*
Y36536*
X49433*
Y33416*
X50256*
Y36166*
X55362*
Y35046*
X60482*
Y36487*
X64801*
Y33416*
X66033*
G37*
X81867D02*
G36*
G75*
G02X81860Y33585I2054J171D01*
G01*
G75*
G02Y33586I2374J0*
G01*
G75*
G02X82291Y34846I2059*
G01*
Y41353*
X69628*
G75*
G02X69980Y40288I-1435J-1066*
G01*
Y36487*
X70352*
Y35267*
X71134*
G75*
G02X74457Y33637I1261J-1630*
G01*
G75*
G02X74445Y33416I-2063J-1*
G01*
X81867*
G37*
X135614Y41353D02*
G36*
X135017D01*
G75*
G02X126891Y39723I-4226J0*
G01*
X126047*
G75*
G02X125176Y39976I-1J1626*
G01*
G75*
G02X116194Y41353I-4385J1378*
G01*
X115017*
G75*
G02X106565I-4226*
G01*
X85551*
Y34846*
G75*
G02X85982Y33586I-1628J-1261*
G01*
G75*
G02Y33585I-2374J0*
G01*
G75*
G02X85975Y33416I-2061J2*
G01*
X135614*
Y41353*
G37*
X58164D02*
G36*
X42855Y56619D01*
G75*
G02X42329Y57885I1260J1266*
G01*
G75*
G02Y57886I1961J0*
G01*
Y61902*
X6354*
Y44550*
G75*
G02X31162Y41353I12006J-4685*
G01*
X58164*
G37*
X57219Y61902D02*
G36*
X45904D01*
Y58628*
X62503Y42075*
X68193*
G75*
G02X69628Y41353I0J-1788*
G01*
X82291*
Y44914*
G75*
G02X83446Y46473I1630*
G01*
X82413*
G75*
G02X80783Y48103J1630*
G01*
Y52981*
X64604*
Y60365*
X61358*
Y56904*
G75*
G02X61632Y55878I-1788J-1026*
G01*
G75*
G02X57510I-2061*
G01*
G75*
G02X57783Y56904I2062J0*
G01*
Y60365*
X57219*
Y61902*
G37*
X113240D02*
G36*
X107264D01*
Y53681*
G75*
G02X109929Y55491I3526J-2328*
G01*
Y57916*
Y57916*
G75*
G02X110408Y59070I1629*
G01*
X113240Y61902*
G37*
X129161D02*
G36*
X128207D01*
Y59132*
X127677*
Y54211*
G75*
G02X129161Y55253I3118J-2864*
G01*
Y61902*
G37*
X116194Y41353D02*
G36*
G75*
G02X124417Y44178I4596D01*
G01*
Y48529*
G75*
G02X116194Y51353I-3626J2824*
G01*
G75*
G02X124417Y54178I4596*
G01*
Y59132*
X123888*
Y61902*
X117394*
G75*
G02X116933Y60984I-1612J235*
G01*
X113189Y57241*
Y54833*
G75*
G02X115017Y51353I-2399J-3481*
G01*
G75*
G02X107264Y49025I-4226J0*
G01*
Y44914*
G75*
G02X105634Y43284I-1630*
G01*
X85551*
Y41353*
X106565*
G75*
G02X115017I4226*
G01*
X116194*
G37*
X176388Y61274D02*
G36*
Y61902D01*
X151726*
Y58683*
X146667*
Y61902*
X145805*
Y59054*
X141486*
Y61902*
X133758*
Y59132*
X132421*
Y55253*
G75*
G02X135017Y51353I-1631J-3900*
G01*
Y51353*
G75*
G02X127677Y48495I-4226*
G01*
Y44211*
G75*
G02X135017Y41354I3114J-2857*
G01*
Y41353*
X135614*
Y56380*
X171494*
X176388Y61274*
G37*
X15592Y65947D02*
G36*
X6354D01*
Y61902*
X42329*
Y65272*
X33290*
G75*
G02X25784Y65479I-3700J2043*
G01*
X25373*
G75*
G02X23906I-733J1630*
G01*
X23397*
G75*
G02X15592Y65947I-3806J1837*
G01*
G37*
X57219D02*
G36*
X54335D01*
Y63428*
X47898*
Y65947*
X45904*
Y61902*
X57219*
Y65947*
G37*
X114152D02*
G36*
X110680D01*
G75*
G02X110659Y65925I-1173J1130*
G01*
X109157Y64424*
G75*
G02X108004Y63945I-1154J1150*
G01*
X104693*
Y63727*
X105634*
G75*
G02X107264Y62097J-1630*
G01*
Y61902*
X113240*
X114152Y62813*
Y65947*
G37*
X123888Y61902D02*
G36*
Y64829D01*
X124417*
Y65947*
X117411*
Y62138*
Y62138*
G75*
G02X117394Y61902I-1630J1*
G01*
X123888*
G37*
X129161D02*
G36*
Y61981D01*
G75*
G02Y61982I1471J1*
G01*
G75*
G02X129439Y62891I1625*
G01*
Y64829*
X129969*
Y65947*
X127677*
Y64829*
X128207*
Y61902*
X129161*
G37*
X141486D02*
G36*
Y64750D01*
X142016*
Y65947*
X133228*
Y64829*
X133758*
Y61902*
X141486*
G37*
X173124Y65947D02*
G36*
Y63024D01*
X166884*
Y65947*
X164650*
Y62886*
X158409*
Y65947*
X145276*
Y64750*
X145805*
Y61902*
X146667*
Y65120*
X151726*
Y61902*
X176388*
Y65947*
X173124*
G37*
X15592D02*
G36*
G75*
G02X15364Y67315I3999J1368D01*
G01*
G75*
G02X16740Y70435I4226*
G01*
X6354*
Y65947*
X15592*
G37*
X22852Y70435D02*
G36*
X22441D01*
G75*
G02X22852Y70003I-2851J-3120*
G01*
Y70435*
G37*
X57219Y65947D02*
G36*
Y70087D01*
X53965*
Y69349*
X48268*
Y69878*
X45746*
Y67635*
G75*
G02X45904Y66903I-1626J-733*
G01*
G75*
G02Y66902I-2148J0*
G01*
Y65947*
X47898*
Y68487*
X54335*
Y65947*
X57219*
G37*
X105301Y70435D02*
G36*
X105242D01*
G75*
G02X105159Y70355I-1475J1442*
G01*
X105189*
G75*
G02X105301Y70435I1261J-1630*
G01*
G37*
X107878D02*
G36*
X107600D01*
G75*
G02X107878Y70212I-1150J-1711*
G01*
Y70435*
G37*
X114152D02*
G36*
X111137D01*
Y67079*
Y67079*
G75*
G02X110680Y65947I-1629*
G01*
X114152*
Y70435*
G37*
X124417D02*
G36*
X124083D01*
Y66603*
X119764*
Y70435*
X117411*
Y65947*
X124417*
Y70435*
G37*
X129764D02*
G36*
X129083D01*
Y66603*
X127677*
Y65947*
X129969*
Y66603*
X129764*
Y70435*
G37*
X134764D02*
G36*
X134083D01*
Y66603*
X133228*
Y65947*
X142016*
Y68806*
X139083*
Y66603*
X134764*
Y70435*
G37*
X172754D02*
G36*
Y69693D01*
X167254*
Y70435*
X164280*
Y69556*
X158780*
Y70435*
X145276*
Y65947*
X158409*
Y68733*
X164650*
Y65947*
X166884*
Y68870*
X173124*
Y65947*
X176388*
Y70435*
X172754*
G37*
X15669Y75741D02*
G36*
X6354D01*
Y70435*
X16740*
G75*
G02X22441I2851J-3120*
G01*
X22852*
Y74628*
G75*
G02X15669Y75741I-3262J2687*
G01*
G37*
X114371D02*
G36*
X109214D01*
X107346Y73873*
G75*
G02X106193Y73394I-1154J1150*
G01*
X105159*
G75*
G02X105828Y71874I-1392J-1520*
G01*
G75*
G02X105242Y70435I-2061J0*
G01*
X105301*
G75*
G02X107600I1150J-1710*
G01*
X107878*
Y70968*
G75*
G02X107446Y72229I1628J1261*
G01*
G75*
G02Y72230I2374J0*
G01*
G75*
G02X111569I2061*
G01*
G75*
G02Y72229I-2374J0*
G01*
G75*
G02X111137Y70968I-2059*
G01*
Y70435*
X114152*
Y74924*
Y74924*
G75*
G02X114371Y75741I1629J0*
G01*
G37*
X158780Y70435D02*
G36*
Y74662D01*
X159644*
Y75741*
X118904*
X117411Y74248*
Y70435*
X119764*
Y74268*
X124083*
Y70435*
X124417*
G75*
G02Y70436I2148J0*
G01*
G75*
G02X124764Y71440I1628*
G01*
Y74268*
X129083*
Y70435*
X129764*
Y74268*
X134083*
Y70435*
X134764*
Y74268*
X139083*
Y72065*
X143646*
G75*
G02X145276Y70435J-1630*
G01*
X158780*
G37*
X167254D02*
G36*
Y74800D01*
X168187*
Y75741*
X162904*
Y74662*
X164280*
Y70435*
X167254*
G37*
X172754D02*
G36*
X176388D01*
Y75741*
X171762*
Y74800*
X172754*
Y70435*
G37*
X15669Y75741D02*
G36*
G75*
G02X15364Y77315I3922J1575D01*
G01*
G75*
G02X22852Y80003I4226*
G01*
Y84628*
G75*
G02X15364Y87315I-3262J2687*
G01*
G75*
G02X15389Y87773I4226J0*
G01*
X6354*
Y75741*
X15669*
G37*
X64234Y87773D02*
G36*
X60343D01*
X61582Y86534*
X64234*
Y87773*
G37*
X92500D02*
G36*
X90774D01*
Y86534*
X92500*
Y87773*
G37*
X99427D02*
G36*
X96074D01*
Y86534*
X98156*
Y79804*
X99427*
Y87773*
G37*
X120293D02*
G36*
X102687D01*
Y78174*
G75*
G02X101646Y76654I-1630*
G01*
X105517*
X114417Y85553*
G75*
G02X115570Y86032I1154J-1150*
G01*
X120293*
Y87773*
G37*
X125293D02*
G36*
X123553D01*
Y84402*
G75*
G02X121923Y82772I-1630*
G01*
X116246*
X109214Y75741*
X114371*
G75*
G02X114630Y76078I1410J-817*
G01*
X119864Y81311*
G75*
G02X121018Y81790I1154J-1150*
G01*
X125293*
Y87773*
G37*
X171762Y75741D02*
G36*
X176388D01*
Y87773*
X171604*
Y87339*
X172823*
Y83020*
X167126*
Y87339*
X168344*
Y87773*
X162904*
Y86994*
X164122*
Y82676*
X158425*
Y86994*
X159644*
Y87773*
X134453*
Y87493*
X129394*
Y87773*
X128553*
Y81910*
G75*
G02X129526Y80160I-1088J-1750*
G01*
Y80160*
G75*
G02X126203Y78530I-2061*
G01*
X121693*
X118904Y75741*
X159644*
Y77124*
X158425*
Y81443*
X164122*
Y77124*
X162904*
Y75741*
X168187*
Y77469*
X167126*
Y81788*
X172823*
Y77469*
X171762*
Y75741*
G37*
X15389Y87773D02*
G36*
G75*
G02X15589Y88676I4202J-458D01*
G01*
X12152Y92115*
G75*
G02X11628Y93378I1265J1265*
G01*
Y96945*
X6354*
Y87773*
X15389*
G37*
X70044Y96945D02*
G36*
X68705D01*
X69691Y95959*
X71017Y94750*
G75*
G02X71175Y94586I-1257J-1370*
G01*
Y95826*
X70044Y96945*
G37*
X64234Y87773D02*
G36*
Y94288D01*
X66307*
X63649Y96945*
X54817*
Y94416*
X48380*
Y96945*
X33800*
G75*
G02X32117Y93928I-4210J370*
G01*
X51599*
G75*
G02X52693Y93554I0J-1788*
G01*
X54447*
Y93163*
G75*
G02X55461Y92655I-251J-1768*
G01*
X60343Y87773*
X64234*
G37*
X92500Y96945D02*
G36*
X90176D01*
Y93918*
X90774*
Y87773*
X92500*
Y96945*
G37*
X99427D02*
G36*
X96074D01*
Y87773*
X99427*
Y96945*
G37*
X154915D02*
G36*
X138553D01*
Y95528*
X139083*
Y87863*
X134764*
Y95528*
X135293*
Y96945*
X102687*
Y87773*
X120293*
Y87863*
X119764*
Y95528*
X124083*
Y87863*
X123553*
Y87773*
X125293*
Y87863*
X124764*
Y95528*
X129083*
Y87863*
X128553*
Y87773*
X129394*
Y95898*
X134453*
Y87773*
X159644*
Y92570*
G75*
G02X159342Y93113I1617J1255*
G01*
X154915*
Y96945*
G37*
X176388Y93113D02*
G36*
X163206D01*
G75*
G02X162904Y92570I-1919J712*
G01*
Y87773*
X168344*
Y89204*
G75*
G02X167913Y90464I1628J1261*
G01*
G75*
G02Y90465I2374J0*
G01*
G75*
G02X172035I2061*
G01*
G75*
G02Y90464I-2374J0*
G01*
G75*
G02X171604Y89204I-2059*
G01*
Y87773*
X176388*
Y93113*
G37*
X11628Y96945D02*
G36*
Y100393D01*
Y100395*
Y100396*
G75*
G02X12151Y101659I1786J1*
G01*
X14129Y103638*
G75*
G02X15396Y104162I1264J-1264*
G01*
X16246*
G75*
G02X15008Y106961I3344J3153*
G01*
X6354*
Y96945*
X11628*
G37*
X25379Y106961D02*
G36*
X24173D01*
G75*
G02X22935Y104162I-4583J354*
G01*
X26777*
G75*
G02X25379Y106961I2814J3154*
G01*
G37*
X63649Y96945D02*
G36*
X56482Y104113D01*
X52421*
Y106961*
X51559*
Y103743*
X46500*
Y106961*
X33802*
G75*
G02X32404Y104162I-4211J354*
G01*
X35238*
G75*
G02X38325Y102374I1026J-1788*
G01*
G75*
G02X35238Y100587I-2061J0*
G01*
X32266*
G75*
G02X33817Y97315I-2676J-3272*
G01*
G75*
G02X33800Y96945I-4226J4*
G01*
X48380*
Y99475*
X54817*
Y96945*
X63649*
G37*
X74091Y106961D02*
G36*
X70397D01*
G75*
G02X70128Y106073I-2057J138*
G01*
Y101889*
X73748Y98309*
G75*
G03X73758Y98299I133J118*
G01*
X74226Y97830*
G75*
G02X74483Y97505I-1266J-1266*
G01*
Y105306*
G75*
G02X74052Y106567I1630J1261*
G01*
G75*
G02X74091Y106961I2061J-1*
G01*
G37*
X70044Y96945D02*
G36*
X67086Y99870D01*
G75*
G02X66553Y101143I1256J1273*
G01*
Y106073*
G75*
G02X66284Y106961I1788J1026*
G01*
X58689*
X68705Y96945*
X70044*
G37*
X99429Y106961D02*
G36*
X87192D01*
Y101793*
G75*
G02X90607Y100239I1354J-1554*
G01*
G75*
G02X90176Y98977I-2061*
G01*
Y96945*
X92500*
Y102569*
G75*
G02X92226Y103595I1788J1026*
G01*
G75*
G02X96348I2061*
G01*
G75*
G02X96074Y102569I-2062J0*
G01*
Y96945*
X99427*
Y106882*
G75*
G02X99429Y106961I1631J-1*
G01*
G37*
X135293Y96945D02*
G36*
Y105252D01*
X102687*
Y96945*
X135293*
G37*
X154915Y106961D02*
G36*
X138551D01*
G75*
G02X138553Y106882I-1629J-80*
G01*
Y96945*
X154915*
Y106961*
G37*
Y117315D02*
G36*
X33817D01*
G75*
G02X25364I-4226*
G01*
X24187*
G75*
G02X14994I-4596*
G01*
X6354*
Y106961*
X15008*
G75*
G02X14994Y107315I4583J356*
G01*
G75*
G02X19591Y111912I4596*
G01*
G75*
G02X24187Y107315J-4596*
G01*
G75*
G02X24173Y106961I-4597J1*
G01*
X25379*
G75*
G02X25364Y107315I4212J355*
G01*
G75*
G02X29591Y111542I4226*
G01*
G75*
G02X33817Y107315J-4226*
G01*
G75*
G02X33802Y106961I-4227J1*
G01*
X46500*
Y110180*
X51559*
Y106961*
X52421*
Y109809*
X56740*
Y108652*
G75*
G02X57428Y108223I-578J-1691*
G01*
X58689Y106961*
X66284*
G75*
G02X66280Y107099I2058J139*
G01*
G75*
G02X70402I2061*
G01*
G75*
G02X70397Y106961I-2063J2*
G01*
X74091*
G75*
G02X77633Y107959I2023J-394*
G01*
Y108692*
G75*
G02X77202Y109952I1628J1261*
G01*
G75*
G02Y109953I2374J0*
G01*
G75*
G02X81324I2061*
G01*
G75*
G02Y109952I-2374J0*
G01*
G75*
G02X80893Y108692I-2059*
G01*
Y108639*
G75*
G02X83737Y108621I1413J-1500*
G01*
G75*
G02X83501Y109579I1824J958*
G01*
Y109579*
G75*
G02X87623I2061*
G01*
G75*
G02Y109578I-2374J0*
G01*
G75*
G02X87192Y108318I-2059*
G01*
Y106961*
X99429*
G75*
G02X101057Y108512I1628J-79*
G01*
X136923*
G75*
G02X138551Y106961I0J-1630*
G01*
X154915*
Y117315*
G37*
Y127315D02*
G36*
X33817D01*
G75*
G02X25364I-4226*
G01*
X24187*
G75*
G02X14994I-4596*
G01*
X6354*
Y117315*
X14994*
G75*
G02X24187I4596*
G01*
X25364*
G75*
G02X33817I4226*
G01*
X154915*
Y127315*
G37*
Y135317D02*
G36*
X150455D01*
G75*
G02X141955I-4250*
G01*
X140085*
G75*
G02X132325I-3880*
G01*
X130085*
G75*
G02X122325I-3880*
G01*
X120085*
G75*
G02X112325I-3880*
G01*
X110085*
G75*
G02X102325I-3880*
G01*
X100455*
G75*
G02X91955I-4250*
G01*
X90085*
G75*
G02X82325I-3880*
G01*
X80085*
G75*
G02X72325I-3880*
G01*
X70085*
G75*
G02X62325I-3880*
G01*
X60085*
G75*
G02X52325I-3880*
G01*
X33315*
G75*
G02X25866I-3724J1998*
G01*
X23315*
G75*
G02X15866I-3724J1998*
G01*
X6354*
Y127315*
X14994*
G75*
G02X24187I4596*
G01*
X25364*
G75*
G02X33817I4226*
G01*
X154915*
Y135317*
G37*
X40555Y147315D02*
G36*
X33817D01*
G75*
G02X25364I-4226*
G01*
X24187*
G75*
G02X14994I-4596*
G01*
X6354*
Y135317*
X15866*
G75*
G02X15364Y137315I3724J1998*
G01*
G75*
G02X23817I4226*
G01*
G75*
G02X23315Y135317I-4226J0*
G01*
X25866*
G75*
G02X25364Y137315I3724J1998*
G01*
G75*
G02X33817I4226*
G01*
G75*
G02X33315Y135317I-4226J0*
G01*
X52325*
G75*
G02X60085I3880*
G01*
X62325*
G75*
G02X70085I3880*
G01*
X72325*
G75*
G02X80085I3880*
G01*
X82325*
G75*
G02X90085I3880*
G01*
X91955*
G75*
G02X100455I4250*
G01*
X102325*
G75*
G02X110085I3880*
G01*
X112325*
G75*
G02X120085I3880*
G01*
X122325*
G75*
G02X130085I3880*
G01*
X132325*
G75*
G02X140085I3880*
G01*
X141955*
G75*
G02X150455I4250*
G01*
X154915*
Y146154*
X40555*
Y147315*
G37*
Y157315D02*
G36*
X33817D01*
G75*
G02X25364I-4226*
G01*
X24187*
G75*
G02X14994I-4596*
G01*
X6354*
Y147315*
X14994*
G75*
G02X24187I4596*
G01*
X25364*
G75*
G02X33817I4226*
G01*
X40555*
Y157315*
G37*
Y169349D02*
G36*
X6354D01*
Y157315*
X14994*
G75*
G02X24187I4596*
G01*
X25364*
G75*
G02X33817I4226*
G01*
X40555*
Y169349*
G37*
X198370Y224491D02*
X175502D01*
Y219790*
X176031*
Y217946*
G75*
G02X177264Y219743I3392J-1005*
G01*
Y219790*
X177326*
G75*
G02X179423Y220479I2098J-2849*
G01*
X188301*
G75*
G02X191839Y216941J-3537*
G01*
Y179525*
G75*
G02Y176523I-3951J-1501*
G01*
Y164382*
G75*
G02X188301Y160845I-3537*
G01*
X182311*
Y148160*
G75*
G02X183157Y145622I-3380J-2537*
G01*
G75*
G02X174705I-4226*
G01*
G75*
G02X175551Y148160I4226*
G01*
Y160983*
X163562*
G75*
G02X160182Y164363J3380*
G01*
Y194014*
X142797*
G75*
G02X137767Y193981I-2537J3380*
G01*
X116569*
G75*
G02X111943I-2313J3538*
G01*
X91444*
G75*
G02X87089Y194063I-2109J3663*
G01*
X65742*
G75*
G02X59203Y197600I-2313J3537*
G01*
G75*
G02X65742Y201138I4227J0*
G01*
X86957*
G75*
G02X91828Y201056I2378J-3494*
G01*
X111943*
G75*
G02X116569I2313J-3538*
G01*
X138150*
G75*
G02X142797Y200774I2109J-3662*
G01*
X160182*
Y205620*
X140296Y225506*
G75*
G02X140075Y225500I-223J4219*
G01*
G75*
G02X136983Y226846J4226*
G01*
X116400*
G75*
G02X111921Y226471I-2537J3380*
G01*
X91693*
G75*
G02X86618I-2537J3380*
G01*
X65671*
G75*
G02X58907Y229851I-2537J3380*
G01*
G75*
G02X65671Y233231I4226*
G01*
X86618*
G75*
G02X91693I2537J-3380*
G01*
X110891*
G75*
G02X116400Y233606I2971J-3006*
G01*
X138398*
G75*
G02X143952Y231410I1678J-3879*
G01*
X165950Y209412*
G75*
G02X166942Y207020I-2388J-2392*
G01*
Y167743*
X176822*
G75*
G02X177927Y167920I1106J-3361*
G01*
X184764*
Y175178*
G75*
G02Y180870I3124J2846*
G01*
Y213404*
X179423*
G75*
G02X177326Y214093J3538*
G01*
X177264*
Y214140*
G75*
G02X176031Y215937I2159J2802*
G01*
Y214093*
X171713*
Y219790*
X172242*
Y224376*
X165815*
Y223453*
X160315*
Y228559*
X165815*
Y227636*
X170919*
Y250790*
X33124Y250504*
X31982Y250790*
Y173309*
X43134*
Y151016*
X156913*
Y115829*
X192264*
Y135786*
X188931*
G75*
G02X185551Y139166J3380*
G01*
Y143085*
G75*
G02X184705Y145622I3380J2537*
G01*
G75*
G02X193157I4226*
G01*
G75*
G02X192311Y143085I-4226*
G01*
Y142546*
X195644*
G75*
G02X198370Y141163J-3380*
G01*
Y224491*
X178341Y130061D02*
X191470D01*
Y116931*
X178341*
Y130061*
X164705Y145622D02*
G75*
G02X173157I4226D01*
G01*
G75*
G02X164705I-4226*
G01*
X141955Y171617D02*
G75*
G02X150455I4250D01*
G01*
G75*
G02X141955I-4250*
G01*
X122325D02*
G75*
G02X130085I3880D01*
G01*
G75*
G02X122325I-3880*
G01*
X132325D02*
G75*
G02X140085I3880D01*
G01*
G75*
G02X132325I-3880*
G01*
X112325D02*
G75*
G02X120085I3880D01*
G01*
G75*
G02X112325I-3880*
G01*
X91955D02*
G75*
G02X100455I4250D01*
G01*
G75*
G02X91955I-4250*
G01*
X102325D02*
G75*
G02X110085I3880D01*
G01*
G75*
G02X102325I-3880*
G01*
X72325D02*
G75*
G02X80085I3880D01*
G01*
G75*
G02X72325I-3880*
G01*
X82325D02*
G75*
G02X90085I3880D01*
G01*
G75*
G02X82325I-3880*
G01*
X62325D02*
G75*
G02X70085I3880D01*
G01*
G75*
G02X62325I-3880*
G01*
X136033Y207394D02*
G75*
G02X144486I4226D01*
G01*
G75*
G02X136033I-4226*
G01*
X110030Y207519D02*
G75*
G02X118482I4226D01*
G01*
G75*
G02X110030I-4226*
G01*
X85108Y207644D02*
G75*
G02X93561I4226D01*
G01*
G75*
G02X85108I-4226*
G01*
X59203Y207600D02*
G75*
G02X67656I4226D01*
G01*
G75*
G02X59203I-4226*
G01*
X173449Y178024D02*
G75*
G02X182642I4596D01*
G01*
G75*
G02X173449I-4596*
G01*
X175748Y197542D02*
G75*
G02X179870I2061D01*
G01*
G75*
G02X175748I-2061*
G01*
X60574Y243215D02*
G75*
G02X67360Y239851I2559J-3363D01*
G01*
G75*
G02X61721Y235868I-4226*
G01*
X52370Y226516*
Y174996*
X54300*
G75*
G02X60085Y171617I1905J-3380*
G01*
G75*
G02X54300Y168237I-3880*
G01*
X48990*
G75*
G02X45610Y171617J3380*
G01*
Y227916*
G75*
G02X46602Y230307I3380*
G01*
X58534Y242241*
G75*
G02X60574Y243215I2392J-2388*
G01*
X84929Y239851D02*
G75*
G02X93382I4226D01*
G01*
G75*
G02X84929I-4226*
G01*
X109636Y240226D02*
G75*
G02X118089I4226D01*
G01*
G75*
G02X109636I-4226*
G01*
X135849Y239726D02*
G75*
G02X144302I4226D01*
G01*
G75*
G02X135849I-4226*
G01*
X159945Y235229D02*
X166185D01*
Y229382*
X159945*
Y235229*
X192264Y123496D02*
G36*
X191470D01*
Y116931*
X178341*
Y123496*
X156913*
Y116079*
X192264*
Y123496*
G37*
G36*
Y135786*
X188931*
G75*
G02X185551Y139166J3380*
G01*
Y143085*
G75*
G02X184705Y145622I3382J2538*
G01*
X183157*
G75*
G02X174705I-4226*
G01*
X173157*
G75*
G02X164705I-4226*
G01*
X156913*
Y123496*
X178341*
Y130061*
X191470*
Y123496*
X192264*
G37*
X198120Y141466D02*
G36*
Y145622D01*
X193157*
G75*
G02X192311Y143085I-4229J1*
G01*
Y142546*
X195644*
G75*
G02X198120Y141466J-3380*
G01*
G37*
X174705Y145622D02*
G36*
G75*
G02X175551Y148160I4229J-1D01*
G01*
Y160983*
X163562*
G75*
G02X160182Y164363J3380*
G01*
Y171617*
X150455*
G75*
G02X141955I-4250*
G01*
X140085*
G75*
G02X132325I-3880*
G01*
X130085*
G75*
G02X122325I-3880*
G01*
X120085*
G75*
G02X112325I-3880*
G01*
X110085*
G75*
G02X102325I-3880*
G01*
X100455*
G75*
G02X91955I-4250*
G01*
X90085*
G75*
G02X82325I-3880*
G01*
X80085*
G75*
G02X72325I-3880*
G01*
X70085*
G75*
G02X62325I-3880*
G01*
X60085*
G75*
G02X54300Y168237I-3880*
G01*
X48990*
G75*
G02X45610Y171617J3380*
G01*
X43134*
Y151016*
X156913*
Y145622*
X164705*
G75*
G02X173157I4226*
G01*
X174705*
G37*
X184764Y171617D02*
G36*
X166942D01*
Y167743*
X176822*
G75*
G02X177927Y167920I1104J-3354*
G01*
X184764*
Y171617*
G37*
X193157Y145622D02*
G36*
X198120D01*
Y171617*
X191839*
Y164382*
G75*
G02X188301Y160845I-3537*
G01*
X182311*
Y148160*
G75*
G02X183157Y145622I-3382J-2538*
G01*
X184705*
G75*
G02X193157I4226*
G01*
G37*
X45610Y171617D02*
G36*
Y178024D01*
X32232*
Y173309*
X43134*
Y171617*
X45610*
G37*
X160182Y178024D02*
G36*
X52370D01*
Y174996*
X54300*
G75*
G02X60085Y171617I1905J-3380*
G01*
X62325*
G75*
G02X70085I3880*
G01*
X72325*
G75*
G02X80085I3880*
G01*
X82325*
G75*
G02X90085I3880*
G01*
X91955*
G75*
G02X100455I4250*
G01*
X102325*
G75*
G02X110085I3880*
G01*
X112325*
G75*
G02X120085I3880*
G01*
X122325*
G75*
G02X130085I3880*
G01*
X132325*
G75*
G02X140085I3880*
G01*
X141955*
G75*
G02X150455I4250*
G01*
X160182*
Y178024*
G37*
X183661D02*
G36*
X182642D01*
G75*
G02X173449I-4596*
G01*
X166942*
Y171617*
X184764*
Y175178*
G75*
G02X183661Y178024I3124J2846*
G01*
G37*
X192114D02*
G36*
G75*
G02X191839Y176523I-4226D01*
G01*
Y171617*
X198120*
Y178024*
X192114*
G37*
X45610Y197542D02*
G36*
X32232D01*
Y178024*
X45610*
Y197542*
G37*
X59203D02*
G36*
X52370D01*
Y178024*
X160182*
Y194014*
X142797*
G75*
G02X137767Y193981I-2537J3380*
G01*
X116569*
G75*
G02X111943I-2313J3538*
G01*
X91444*
G75*
G02X87089Y194063I-2109J3663*
G01*
X65742*
G75*
G02X59203Y197542I-2313J3537*
G01*
G37*
X183661Y178024D02*
G36*
G75*
G02X184764Y180870I4226D01*
G01*
Y197542*
X179870*
G75*
G02X175748I-2061*
G01*
X166942*
Y178024*
X173449*
G75*
G02X182642I4596*
G01*
X183661*
G37*
X192114D02*
G36*
X198120D01*
Y197542*
X191839*
Y179525*
G75*
G02X192114Y178024I-3951J-1501*
G01*
G37*
X45610Y207394D02*
G36*
X32232D01*
Y197542*
X45610*
Y207394*
G37*
X59203Y197542D02*
G36*
G75*
G02X59203Y197600I4233J58D01*
G01*
G75*
G02X65742Y201138I4227J0*
G01*
X86957*
G75*
G02X91828Y201056I2378J-3495*
G01*
X111943*
G75*
G02X116569I2313J-3538*
G01*
X138150*
G75*
G02X142797Y200774I2109J-3663*
G01*
X160182*
Y205620*
X158408Y207394*
X144486*
G75*
G02X136033I-4226*
G01*
X118480*
G75*
G02X110031I-4224J125*
G01*
X93554*
G75*
G02X85116I-4219J250*
G01*
X67650*
G75*
G02X59208I-4221J206*
G01*
X52370*
Y197542*
X59203*
G37*
X184764Y207394D02*
G36*
X166921D01*
G75*
G02X166942Y207020I-3361J-375*
G01*
Y197542*
X175748*
G75*
G02X179870I2061*
G01*
X184764*
Y207394*
G37*
X191839D02*
G36*
Y197542D01*
X198120*
Y207394*
X191839*
G37*
X48600Y232306D02*
G36*
X32232D01*
Y207394*
X45610*
Y227916*
G75*
G02X46602Y230307I3381J-1*
G01*
X48600Y232306*
G37*
X158408Y207394D02*
G36*
X140296Y225506D01*
G75*
G02X140075Y225500I-228J4409*
G01*
G75*
G02X136983Y226846I1J4229*
G01*
X116400*
G75*
G02X111921Y226471I-2537J3379*
G01*
X91693*
G75*
G02X86618I-2537J3380*
G01*
X65671*
G75*
G02X58907Y229851I-2537J3380*
G01*
Y229851*
Y229852*
G75*
G02X59693Y232306I4226*
G01*
X58159*
X52370Y226516*
Y207394*
X59208*
G75*
G02X59203Y207600I4222J208*
G01*
G75*
G02X67656I4226*
G01*
G75*
G02X67650Y207394I-4228J2*
G01*
X85116*
G75*
G02X85108Y207644I4220J252*
G01*
G75*
G02X93561I4226*
G01*
G75*
G02X93554Y207394I-4228J2*
G01*
X110031*
G75*
G02X110030Y207519I4225J129*
G01*
G75*
G02X118482I4226*
G01*
G75*
G02X118480Y207394I-4227J4*
G01*
X136033*
G75*
G02X144486I4226*
G01*
X158408*
G37*
X170919Y232306D02*
G36*
X166185D01*
Y229382*
X159945*
Y232306*
X143423*
G75*
G02X143952Y231410I-3348J-2580*
G01*
X165950Y209412*
G75*
G02X166921Y207394I-2390J-2393*
G01*
X184764*
Y213404*
X179423*
G75*
G02X177326Y214093I1J3540*
G01*
X177264*
Y214140*
G75*
G02X176031Y215937I2160J2802*
G01*
Y214093*
X171713*
Y219790*
X172242*
Y224376*
X165815*
Y223453*
X160315*
Y228559*
X165815*
Y227636*
X170919*
Y232306*
G37*
X198120Y224491D02*
G36*
X175502D01*
Y219790*
X176031*
Y217946*
G75*
G02X177264Y219743I3395J-1007*
G01*
Y219790*
X177326*
G75*
G02X179423Y220479I2098J-2851*
G01*
X188301*
G75*
G02X191839Y216941J-3537*
G01*
Y207394*
X198120*
Y224491*
G37*
X56144Y239851D02*
G36*
X32232D01*
Y232306*
X48600*
X56144Y239851*
G37*
X170919D02*
G36*
X144300D01*
G75*
G02X144302Y239726I-4225J-129*
G01*
G75*
G02X135849I-4226*
G01*
G75*
G02X135851Y239851I4227J-4*
G01*
X118072*
G75*
G02X109652I-4210J374*
G01*
X93382*
G75*
G02X84929I-4226*
G01*
X67360*
G75*
G02X61721Y235868I-4226J0*
G01*
X58159Y232306*
X59693*
G75*
G02X65671Y233231I3441J-2454*
G01*
X86618*
G75*
G02X91693I2537J-3380*
G01*
X110891*
G75*
G02X116400Y233606I2971J-3006*
G01*
X138398*
G75*
G02X143423Y232306I1678J-3880*
G01*
X159945*
Y235229*
X166185*
Y232306*
X170919*
Y239851*
G37*
Y250540D02*
G36*
X50230D01*
X33124Y250504*
X32982Y250540*
X32232*
Y239851*
X56144*
X58534Y242241*
G75*
G02X60574Y243215I2392J-2388*
G01*
G75*
G02X67360Y239852I2559J-3363*
G01*
Y239851*
X84929*
G75*
G02X93382I4226*
G01*
X109652*
G75*
G02X109636Y240226I4210J374*
G01*
G75*
G02X118089I4226*
G01*
G75*
G02X118072Y239851I-4227J-1*
G01*
X135851*
G75*
G02X144300I4224J-125*
G01*
X170919*
Y250540*
G37*
D02*
D25*
X16744Y107315D02*
X14744D01*
X16744Y117315D02*
X14744D01*
X16744Y127315D02*
X14744D01*
X16744Y147315D02*
X14744D01*
X16744Y157315D02*
X14744D01*
X19591Y94469D02*
Y92469D01*
Y110162D02*
Y112162D01*
Y114469D02*
Y112469D01*
Y120162D02*
Y122162D01*
Y124469D02*
Y122469D01*
Y130162D02*
Y132162D01*
Y144469D02*
Y142469D01*
Y150162D02*
Y152162D01*
Y154469D02*
Y152469D01*
Y160162D02*
Y162162D01*
X22437Y97315D02*
X24437D01*
X22437Y107315D02*
X24437D01*
X22437Y117315D02*
X24437D01*
X22437Y127315D02*
X24437D01*
X22437Y147315D02*
X24437D01*
X22437Y157315D02*
X24437D01*
X29591Y74469D02*
Y72469D01*
Y80162D02*
Y82162D01*
X32437Y77315D02*
X34437D01*
X45337Y33416D02*
X43337D01*
X46510Y32046D02*
Y30046D01*
Y34786D02*
Y36786D01*
X47683Y33416D02*
X49683D01*
X48250Y106961D02*
X46250D01*
X48669Y81031D02*
X46815Y79178D01*
X48669Y81899D02*
X46815Y83752D01*
X49030Y105493D02*
Y103493D01*
Y108430D02*
Y110430D01*
X49537Y81031D02*
X51390Y79178D01*
X49537Y81899D02*
X51390Y83752D01*
X49648Y65957D02*
X47648D01*
X49809Y106961D02*
X51809D01*
X50130Y96944D02*
X48132D01*
X51116Y65178D02*
Y63178D01*
Y66737D02*
Y68737D01*
X51599Y97724D02*
Y99723D01*
X52585Y65957D02*
X54585D01*
X53067Y96944D02*
X55069D01*
X65983Y90134D02*
X63982D01*
X66665Y87731D02*
Y85731D01*
X88712Y59168D02*
Y61168D01*
X89393Y56764D02*
X91392D01*
X93705Y135317D02*
X91705D01*
X93705Y171617D02*
X91705D01*
X96205Y132817D02*
Y130817D01*
Y137817D02*
Y139817D01*
Y169117D02*
Y167117D01*
Y174117D02*
Y176117D01*
X98705Y135317D02*
X100705D01*
X98705Y171617D02*
X100705D01*
X100376Y56545D02*
X98376D01*
X101844Y55765D02*
Y53766D01*
Y57324D02*
Y59325D01*
X117944Y41353D02*
X115944D01*
X117944Y51353D02*
X115944D01*
X120791Y38507D02*
Y36507D01*
Y44200D02*
Y46200D01*
Y48507D02*
Y46507D01*
Y54200D02*
Y56200D01*
X131923Y89243D02*
Y87243D01*
Y94148D02*
Y96148D01*
X143705Y135317D02*
X141705D01*
X143705Y171617D02*
X141705D01*
X146205Y132817D02*
Y130817D01*
Y137817D02*
Y139817D01*
Y169117D02*
Y167117D01*
Y174117D02*
Y176117D01*
X148417Y61902D02*
X146417D01*
X148705Y135317D02*
X150705D01*
X148705Y171617D02*
X150705D01*
X149197Y60433D02*
Y58433D01*
Y63370D02*
Y65370D01*
X149976Y61902D02*
X151976D01*
X160159Y65809D02*
X158159D01*
X161530Y64636D02*
Y62636D01*
Y66983D02*
Y68983D01*
X161695Y232306D02*
X159695D01*
X162900Y65809D02*
X164900D01*
X163065Y231132D02*
Y229132D01*
Y233479D02*
Y235479D01*
X164435Y232306D02*
X166435D01*
X168634Y65947D02*
X166634D01*
X170004Y64774D02*
Y62774D01*
Y67120D02*
Y69120D01*
X171374Y65947D02*
X173374D01*
X175199Y178024D02*
X173199D01*
X178045Y175178D02*
Y173178D01*
Y180870D02*
Y182870D01*
X180091Y123496D02*
X178091D01*
X180892Y178024D02*
X182892D01*
X184906Y118681D02*
Y116681D01*
Y128311D02*
Y130311D01*
X189720Y123496D02*
X191720D01*
D02*
D27*
X18360Y39865D03*
Y239865D03*
X187691Y39865D03*
Y239865D03*
D02*
D73*
X49030Y106961D03*
X54581D03*
X62642Y33637D03*
X68193D03*
X126047Y61981D03*
X131598D03*
X143646Y61902D03*
X149197D03*
X173872Y216941D03*
X179423D03*
D02*
D74*
X51116Y65957D03*
Y71508D03*
X51599Y91393D03*
Y96944D03*
X101844Y56545D03*
Y62096D03*
X161274Y79284D03*
Y84835D03*
X169974Y79628D03*
Y85180D03*
D02*
D75*
X49103Y76741D03*
Y81465D03*
Y86189D03*
D02*
D76*
X121923Y70435D03*
Y91695D03*
X126923Y70435D03*
Y91695D03*
X131923Y70435D03*
Y91695D03*
X136923Y70435D03*
Y91695D03*
D02*
D77*
X19591Y67315D03*
Y77315D03*
Y87315D03*
Y97315D03*
Y107315D03*
Y117315D03*
Y127315D03*
Y137315D03*
Y147315D03*
Y157315D03*
X29591Y67315D03*
Y77315D03*
Y87315D03*
Y97315D03*
Y107315D03*
Y117315D03*
Y127315D03*
Y137315D03*
Y147315D03*
Y157315D03*
X63134Y229851D03*
Y239851D03*
X63429Y197600D03*
Y207600D03*
X89156Y229851D03*
Y239851D03*
X89335Y197644D03*
Y207644D03*
X110791Y41353D03*
Y51353D03*
X113862Y230226D03*
Y240226D03*
X114256Y197519D03*
Y207519D03*
X120791Y41353D03*
Y51353D03*
X130791Y41353D03*
Y51353D03*
X140075Y229726D03*
Y239726D03*
X140260Y197394D03*
Y207394D03*
X140791Y41353D03*
Y51353D03*
X150791Y41353D03*
Y51353D03*
X168931Y145622D03*
X178045Y178024D03*
X178931Y145622D03*
X187888Y178024D03*
X188931Y145622D03*
D02*
D78*
X46510Y33416D03*
X52809D03*
D02*
D79*
X56205Y135317D03*
Y171617D03*
X66205Y135317D03*
Y171617D03*
X76205Y135317D03*
Y171617D03*
X86205Y135317D03*
Y171617D03*
X96205Y135317D03*
Y171617D03*
X106205Y135317D03*
Y171617D03*
X116205Y135317D03*
Y171617D03*
X126205Y135317D03*
Y171617D03*
X136205Y135317D03*
Y171617D03*
X146205Y135317D03*
Y171617D03*
D02*
D80*
X184906Y123496D03*
D02*
D81*
Y107906D03*
D02*
D84*
X11972Y147660D03*
X36264Y102374D03*
X39157Y33319D03*
X43902Y121095D03*
X48537Y113349D03*
X51136Y59520D03*
X59571Y55878D03*
X67324Y74975D03*
X67579Y81323D03*
X68341Y107099D03*
X71323Y71203D03*
Y76320D03*
X71573Y65961D03*
X72396Y33637D03*
X75567Y71328D03*
Y76444D03*
X75816Y66086D03*
X76113Y106567D03*
X76982Y44008D03*
X79263Y109953D03*
X79810Y71328D03*
Y76444D03*
X80059Y66086D03*
X82306Y107138D03*
X83921Y33585D03*
X84303Y71328D03*
Y76444D03*
X84552Y66086D03*
X85562Y109579D03*
X87937Y37620D03*
X88546Y100239D03*
X91539Y41203D03*
X94287Y103595D03*
X96274Y141567D03*
X98026Y50839D03*
X100959Y48103D03*
X103767Y71874D03*
X103892Y39451D03*
X106451Y68725D03*
X109507Y72230D03*
X127465Y80160D03*
X131933Y100888D03*
X150663Y70583D03*
X154640Y61882D03*
X161274Y93831D03*
X166490Y58949D03*
X169974Y90465D03*
X177809Y197542D03*
D02*
D87*
X153085Y126380D03*
X159610Y125967D03*
D02*
D88*
X56205Y171617D02*
X48990D01*
Y227916*
X60926Y239851*
X63134*
Y229851D02*
X89156D01*
X63429Y197600D02*
Y197644D01*
X89335*
X89156Y229851D02*
X113862D01*
Y230226*
X140075*
Y229726*
X114256Y197519D02*
X89335D01*
Y197644*
X114256Y197519D02*
X140260D01*
Y197394*
X139826Y197519D02*
Y197453D01*
X140260*
Y197394*
X140075Y229726D02*
X140856D01*
X163562Y207020*
Y197394*
X140075Y230226D02*
Y229726D01*
X150791Y41353D02*
Y51353D01*
X171246*
X195644Y75750*
Y139166*
X188931*
Y145622*
X153085Y126380D02*
X160024D01*
Y125967*
X159610*
X163562Y197394D02*
X140260D01*
X177927Y164363D02*
X163562D01*
Y197394*
X178931Y145622D02*
Y164363D01*
X177927*
X179423Y216941D02*
X188301D01*
Y164382*
X183026*
Y164363*
X177927*
X188370Y178024D02*
X187888D01*
D02*
D118*
X61003Y62426D03*
Y65575D03*
Y68725D03*
Y71874D03*
Y75024D03*
Y78174D03*
Y81323D03*
Y84473D03*
X94373Y62426D03*
Y65575D03*
Y68725D03*
Y71874D03*
Y75024D03*
Y78174D03*
Y81323D03*
Y84473D03*
D02*
D119*
X66665Y56764D03*
Y90134D03*
X69814Y56764D03*
Y90134D03*
X72964Y56764D03*
Y90134D03*
X76113Y56764D03*
Y90134D03*
X79263Y56764D03*
Y90134D03*
X82413Y56764D03*
Y90134D03*
X85562Y56764D03*
Y90134D03*
X88712Y56764D03*
Y90134D03*
D02*
D120*
X19591Y67315D02*
X22145D01*
Y67109*
X24640*
Y92140*
X37371*
Y92069*
X51599*
Y91393*
X24640Y67109D02*
X27137D01*
Y67315*
X29591*
X36264Y102374D02*
X15393D01*
X13415Y100396*
Y93378*
X19478Y87315*
X19591*
X44116Y66902D02*
X29591D01*
Y67315*
X44116Y66902D02*
Y57886D01*
X44165*
X61764Y40288*
X68193*
Y33637*
X49103Y76741D02*
X54969D01*
Y76847*
X56295Y78174*
X61003*
X49103Y86189D02*
Y86083D01*
X52972*
X54969Y84086*
Y84069*
X57714Y81323*
X61003*
X51116Y71508D02*
X44116D01*
Y66902*
X51599Y91393D02*
X54195D01*
X61003Y84585*
Y84473*
X54581Y106961D02*
X56161D01*
X68457Y94666*
X68578*
X69814Y93429*
Y90134*
X59571Y55878D02*
Y62454D01*
X61003*
Y62426*
Y71874D02*
Y71833D01*
X51116*
Y71508*
X61003Y84501D02*
Y84473D01*
X62642Y33637D02*
Y33416D01*
X52809*
X67324Y74975D02*
Y75024D01*
X61003*
X68193Y33637D02*
X72396D01*
X72964Y90134D02*
Y96566D01*
X72493Y97037*
X72446*
X68341Y101143*
Y107099*
X76113Y90134D02*
Y106567D01*
X79263Y90134D02*
Y109953D01*
X82306Y107138D02*
X82413D01*
Y90134*
Y56764D02*
Y48103D01*
X100959*
X83921Y33585D02*
Y44914D01*
X105634*
Y62096*
X101844*
X85562Y56764D02*
Y50839D01*
X98026*
X85562Y109579D02*
Y90134D01*
X88546Y100239D02*
Y90134D01*
X88712*
X94287Y103595D02*
X94373D01*
Y84473*
Y65575D02*
X108004D01*
X109507Y67079*
Y72230*
X94373Y68725D02*
X106451D01*
X94373Y71874D02*
X103767D01*
X94373Y75024D02*
X106193D01*
X115570Y84402*
X121923*
Y91695*
X94373Y78174D02*
X101057D01*
Y106882*
X136923*
Y91695*
X94373Y81323D02*
X67579D01*
X101844Y62096D02*
Y62426D01*
X94373*
X110791Y51353D02*
X111559D01*
Y57916*
X115781Y62138*
Y74924*
X121018Y80160*
X127465*
X126047Y61981D02*
Y41353D01*
X130791*
X126047Y61981D02*
Y70435D01*
X126923*
X127465Y80160D02*
X126923D01*
Y91695*
X131598Y61981D02*
X130791D01*
Y51353*
X131598Y61981D02*
Y70435D01*
X131923*
X136923D02*
X143646D01*
Y61902*
X161274Y79284D02*
Y72109D01*
X161530*
X161274Y93831D02*
Y84835D01*
X169974Y79628D02*
X170004D01*
Y72246*
X169974Y90465D02*
Y85180D01*
X173872Y216941D02*
Y226006D01*
X163065*
D02*
D139*
X161530Y65809D03*
Y72109D03*
X163065Y226006D03*
Y232306D03*
X170004Y65947D03*
Y72246D03*
X0Y0D02*
M02*
