G04 EasyPC Gerber Version 21.0.3 Build 4286 *
G04 #@! TF.Part,Single*
G04 #@! TF.FileFunction,Legend,Bot *
G04 #@! TF.FilePolarity,Positive *
%FSLAX45Y45*%
%MOIN*%
%ADD117C,0.00276*%
%ADD20C,0.00394*%
%ADD22C,0.00500*%
%ADD23C,0.00787*%
%ADD25C,0.01000*%
X0Y0D02*
D02*
D20*
X75417Y107045D02*
G75*
G02X75595Y107320I794J-321D01*
G01*
G75*
G02X75928Y107613I2004J-1939*
G01*
G75*
G02X76335Y107870I1863J-2495*
G01*
G75*
G02X76744Y108038I1050J-1979*
G01*
G75*
G02X79067Y108549I4646J-15582*
G01*
G75*
G02X82070Y108872I5958J-41298*
G01*
G75*
G02X85243Y108984I3162J-44498*
G01*
G75*
G02X88120Y108846I-7J-30260*
G01*
G75*
G02X89363Y108709I-4033J-42055*
G01*
G75*
G02X90288Y108560I-1695J-13474*
G01*
G75*
G02X91007Y108384I-1573J-7993*
G01*
G75*
G02X91598Y108163I-1205J-4123*
G01*
G75*
G02X91929Y107972I-895J-1938*
G01*
G75*
G02X92192Y107739I-882J-1259*
G01*
G75*
G02X92363Y107488I-852J-763*
G01*
G75*
G02X92420Y107244I-487J-244*
G01*
G75*
G03X92438Y107143I296*
G01*
G75*
G03X92494Y107020I818J297*
G01*
G75*
G03X92575Y106896I877J485*
G01*
G75*
G03X92670Y106790I689J522*
G01*
G75*
G02X92800Y106642I-693J-741*
G01*
G75*
G02X92874Y106494I-424J-304*
G01*
G75*
G02X92911Y106300I-798J-249*
G01*
G75*
G02X92920Y105990I-4685J-304*
G01*
G75*
G02X92866Y105479I-2432*
G01*
G75*
G02X92691Y105185I-520J111*
G01*
G75*
G02X92354Y105033I-432J507*
G01*
G75*
G02X91745Y104990I-609J4254*
G01*
G75*
G02X91468Y104997I4J5305*
G01*
G75*
G02X91224Y105019I168J3219*
G01*
G75*
G02X91028Y105050I423J3293*
G01*
G75*
G02X90970Y105090I16J85*
G01*
G75*
G03X90767Y105204I-204J-126*
G01*
G75*
G03X89601Y105195I-188J-50890*
G01*
G75*
G03X88481Y105152I554J-28845*
G01*
G75*
G03X88039Y105034I66J-1136*
G01*
G75*
G03X87568Y104688I768J-1538*
G01*
G75*
G03X87347Y104259I604J-582*
G01*
G75*
G03X87394Y103763I893J-166*
G01*
G75*
G03X87703Y103224I1959J763*
G01*
G75*
G02X88504Y102200I-103483J-81718*
G01*
G75*
G02X89190Y101299I-60161J-46543*
G01*
G75*
G02X89789Y100498I-230375J-172811*
G01*
G75*
G02X89820Y100401I-130J-96*
G01*
G75*
G03X89831Y100359I91J1*
G01*
G75*
G03X89864Y100304I398J202*
G01*
G75*
G03X89912Y100245I456J319*
G01*
G75*
G03X89969Y100192I449J422*
G01*
G75*
G02X90093Y100060I-463J-560*
G01*
G75*
G02X90220Y99861I-1677J-1215*
G01*
G75*
G02X90423Y99485I-9930J-5613*
G01*
G75*
G02X90996Y98372I-468609J-241887*
G01*
G75*
G02X91230Y97900I-17175J-8817*
G01*
G75*
G02X91438Y97448I-13874J-6650*
G01*
G75*
G02X91602Y97061I-13386J-5891*
G01*
G75*
G02X91659Y96865I-946J-386*
G01*
G75*
G02X91678Y96677I-1078J-201*
G01*
G75*
G02X91676Y96352I-8470J-111*
G01*
G75*
G02X91659Y95976I-9520J250*
G01*
G75*
G02X91626Y95594I-10183J669*
G01*
G75*
G02X91563Y95067I-16119J1672*
G01*
G75*
G02X91499Y94774I-1875J257*
G01*
G75*
G02X91406Y94568I-832J252*
G01*
G75*
G02X91257Y94375I-994J616*
G01*
G75*
G02X91113Y94246I-968J929*
G01*
G75*
G02X90970Y94157I-472J603*
G01*
G75*
G02X90820Y94107I-287J606*
G01*
G75*
G02X90656Y94090I-166J787*
G01*
G75*
G02X90372Y94146J744*
G01*
G75*
G02X90205Y94304I122J296*
G01*
G75*
G02X90157Y94576I465J222*
G01*
G75*
G02X90233Y94977I2257J-218*
G01*
G75*
G03X90281Y95169I-3015J857*
G01*
G75*
G03X90316Y95363I-3020J652*
G01*
G75*
G03X90336Y95533I-2658J400*
G01*
G75*
G03X90333Y95640I-440J39*
G01*
G75*
G03X90238Y95957I-1244J-197*
G01*
G75*
G03X89959Y96548I-14342J-6409*
G01*
G75*
G03X89635Y97161I-12519J-6229*
G01*
G75*
G03X89337Y97640I-5411J-3037*
G01*
G75*
G03X88489Y98773I-14699J-10113*
G01*
G75*
G03X87465Y99963I-20935J-16989*
G01*
G75*
G03X86479Y100993I-22807J-20836*
G01*
G75*
G03X85944Y101354I-1203J-1205*
G01*
G75*
G03X85752Y101424I-740J-1735*
G01*
G75*
G03X85617Y101441I-113J-371*
G01*
G75*
G03X85481Y101410I23J-417*
G01*
G75*
G03X85283Y101317I895J-2166*
G01*
G75*
G03X84945Y101073I698J-1322*
G01*
G75*
G03X84182Y100323I30869J-32167*
G01*
G75*
G03X83393Y99518I66914J-66460*
G01*
G75*
G03X83320Y99340I183J-178*
G01*
G75*
G02X83307Y99294I-83*
G01*
G75*
G02X83211Y99153I-5679J3746*
G01*
G75*
G02X83089Y98987I-4089J2857*
G01*
G75*
G02X82946Y98804I-6502J4956*
G01*
G75*
G03X82795Y98614I12837J-10356*
G01*
G75*
G03X82652Y98428I11426J-8960*
G01*
G75*
G03X82531Y98267I10618J-8043*
G01*
G75*
G03X82470Y98177I1073J-792*
G01*
G75*
G02X82394Y98071I-769J471*
G01*
G75*
G02X82121Y97746I-44552J37254*
G01*
G75*
G02X81792Y97363I-32972J27996*
G01*
G75*
G02X81420Y96939I-50333J43737*
G01*
G75*
G03X81052Y96516I27491J-24286*
G01*
G75*
G03X80731Y96133I17525J-15023*
G01*
G75*
G03X80466Y95806I25271J-20731*
G01*
G75*
G03X80406Y95702I318J-254*
G01*
G75*
G02X80284Y95507I-600J238*
G01*
G75*
G02X80031Y95256I-2506J2281*
G01*
G75*
G02X79718Y95006I-2557J2867*
G01*
G75*
G02X79393Y94799I-1917J2666*
G01*
G75*
G02X78979Y94642I-758J1369*
G01*
G75*
G02X78490Y94584I-521J2307*
G01*
G75*
G02X78046Y94626I-28J2050*
G01*
G75*
G02X77782Y94778I100J480*
G01*
G75*
G03X77682Y94857I-288J-261*
G01*
G75*
G03X77530Y94927I-559J-1010*
G01*
G75*
G03X77344Y94983I-516J-1363*
G01*
G75*
G03X77145Y95018I-396J-1709*
G01*
G75*
G02X76894Y95061I231J2065*
G01*
G75*
G02X76706Y95131I194J812*
G01*
G75*
G02X76537Y95246I395J764*
G01*
G75*
G02X76349Y95429I1502J1729*
G01*
G75*
G02X76161Y95658I1985J1822*
G01*
G75*
G02X76070Y95838I496J362*
G01*
G75*
G02X76031Y96063I858J268*
G01*
G75*
G02X76020Y96482I8800J424*
G01*
G75*
G02X76028Y96765I5930J-7*
G01*
G75*
G02X76048Y97041I5393J-254*
G01*
G75*
G02X76077Y97276I4748J-476*
G01*
G75*
G02X76113Y97408I589J-88*
G01*
G75*
G02X76289Y97698I947J-377*
G01*
G75*
G02X77425Y99002I195633J-169264*
G01*
G75*
G02X78852Y100606I111835J-98045*
G01*
G75*
G02X80682Y102619I281537J-254204*
G01*
G75*
G03X81272Y103274I-40278J36897*
G01*
G75*
G03X81769Y103848I-22685J20111*
G01*
G75*
G03X82186Y104348I-54272J45751*
G01*
G75*
G03X82220Y104444I-117J96*
G01*
G75*
G03X82189Y104513I-90*
G01*
G75*
G03X82105Y104558I-143J-164*
G01*
G75*
G03X81950Y104583I-192J-705*
G01*
G75*
G03X81691Y104590I-257J-4922*
G01*
G75*
G03X81481Y104583I-6J-3304*
G01*
G75*
G03X81289Y104563I156J-2371*
G01*
G75*
G03X81132Y104534I306J-2112*
G01*
G75*
G03X81066Y104499I30J-136*
G01*
G75*
G02X80999Y104461I-109J114*
G01*
G75*
G02X80837Y104420I-719J2552*
G01*
G75*
G02X80638Y104385I-596J2799*
G01*
G75*
G02X80420Y104361I-550J3919*
G01*
G75*
G03X80157Y104335I735J-8666*
G01*
G75*
G03X79812Y104292I2927J-25190*
G01*
G75*
G03X79448Y104243I3471J-26815*
G01*
G75*
G03X79120Y104193I2539J-17730*
G01*
G75*
G02X78424Y104111I-1274J7869*
G01*
G75*
G02X77884Y104122I-210J2868*
G01*
G75*
G02X77459Y104226I204J1763*
G01*
G75*
G02X77121Y104424I415J1093*
G01*
G75*
G03X76972Y104532I-809J-959*
G01*
G75*
G03X76809Y104617I-657J-1066*
G01*
G75*
G03X76648Y104672I-431J-1006*
G01*
G75*
G03X76504Y104690I-144J-564*
G01*
G75*
G02X76220Y104742I1J799*
G01*
G75*
G02X75923Y104896I507J1341*
G01*
G75*
G02X75658Y105124I871J1282*
G01*
G75*
G02X75469Y105393I893J827*
G01*
G75*
G02X75372Y105702I835J433*
G01*
G75*
G02X75331Y106206I5073J666*
G01*
G75*
G02X75340Y106715I5077J164*
G01*
G75*
G02X75417Y107045I1074J-74*
G01*
X75920Y144390D02*
X80100D01*
X80171Y143683*
G75*
G03X80214Y143340I7585J768*
G01*
G75*
G03X80263Y143120I1459J214*
G01*
G75*
G03X80325Y142983I571J175*
G01*
G75*
G03X80407Y142918I133J82*
G01*
G75*
G02X80647Y142791I-310J-881*
G01*
G75*
G02X80845Y142600I-581J-796*
G01*
G75*
G02X80976Y142369I-719J-560*
G01*
G75*
G02X81020Y142128I-622J-241*
G01*
G75*
G03X81028Y141999I1146J1*
G01*
G75*
G03X81050Y141880I870J99*
G01*
G75*
G03X81082Y141785I651J167*
G01*
G75*
G03X81120Y141740I91J38*
G01*
G75*
G02X81168Y141658I-52J-85*
G01*
G75*
G02X81195Y140535I-291089J-7604*
G01*
G75*
G02X81215Y139131I-89069J-1951*
G01*
G75*
G02X81220Y137203I-308554J-1909*
G01*
G75*
G03X81226Y134741I600317J17*
G01*
G75*
G03X81248Y133513I44979J193*
G01*
G75*
G03X81284Y132759I22836J721*
G01*
G75*
G03X81367Y132534I417J26*
G01*
G75*
G02X81424Y132450I-683J-519*
G01*
G75*
G02X81472Y132356I-851J-495*
G01*
G75*
G02X81506Y132267I-784J-353*
G01*
G75*
G02X81517Y132200I-227J-72*
G01*
G75*
G03X81588Y131894I774J18*
G01*
G75*
G03X81828Y131435I4631J2131*
G01*
G75*
G03X82122Y130992I4288J2529*
G01*
G75*
G03X82394Y130713I1185J882*
G01*
G75*
G03X83009Y130310I2623J3333*
G01*
G75*
G03X83736Y129981I2766J5148*
G01*
G75*
G03X84479Y129762I1940J5215*
G01*
G75*
G03X85142Y129690I664J3004*
G01*
X85520*
Y129183*
G75*
G03X85543Y128818I3084J2*
G01*
G75*
G03X85610Y128535I1243J148*
G01*
G75*
G03X85715Y128352I581J214*
G01*
G75*
G03X85849Y128289I135J113*
G01*
G75*
G02X85908Y128264I-1J-84*
G01*
G75*
G02X85994Y128165I-765J-750*
G01*
G75*
G02X86085Y128030I-1076J-826*
G01*
G75*
G02X86170Y127870I-1775J-1052*
G01*
G75*
G02X86285Y127507I-1226J-588*
G01*
G75*
G02X86341Y126992I-4433J-742*
G01*
G75*
G02X86366Y126093I-19589J-981*
G01*
G75*
G02X86370Y123892I-506315J-2187*
G01*
G75*
G02X86366Y121778I-464200J-20*
G01*
G75*
G02X86343Y120856I-22243J100*
G01*
G75*
G02X86295Y120333I-5987J278*
G01*
G75*
G02X86194Y120062I-648J87*
G01*
G75*
G02X85916Y119742I-1319J865*
G01*
G75*
G02X85596Y119559I-604J686*
G01*
G75*
G02X85112Y119462I-650J1993*
G01*
G75*
G02X84196Y119409I-1683J21256*
G01*
G75*
G02X82875Y119406I-720J20001*
G01*
G75*
G02X81802Y119502I265J8926*
G01*
G75*
G02X80893Y119708I973J6407*
G01*
G75*
G02X80076Y120035I1500J4946*
G01*
G75*
G02X79028Y120667I3519J7011*
G01*
G75*
G02X78009Y121499I6082J8493*
G01*
G75*
G02X77146Y122409I6578J7101*
G01*
G75*
G02X76578Y123276I3515J2923*
G01*
G75*
G02X76179Y124356I4557J2296*
G01*
G75*
G02X75996Y125574I6520J1600*
G01*
G75*
G02X75933Y127723I39815J2257*
G01*
G75*
G02X75922Y134815I2673193J7553*
G01*
X75920Y144390*
X76074Y78690D02*
G75*
G02X76479Y81163I33579J-4221D01*
G01*
G75*
G02X77021Y83181I16182J-3264*
G01*
G75*
G02X77647Y84664I10312J-3481*
G01*
G75*
G02X78320Y85340I1392J-713*
G01*
G75*
G02X78461Y85398I394J-759*
G01*
G75*
G02X78648Y85446I629J-2055*
G01*
G75*
G02X78846Y85479I479J-2239*
G01*
G75*
G02X79027Y85490I178J-1484*
G01*
G75*
G02X79261Y85474I3J-1706*
G01*
G75*
G02X79429Y85422I-77J-552*
G01*
G75*
G02X79584Y85317I-292J-598*
G01*
G75*
G02X79781Y85122I-2022J-2231*
G01*
G75*
G02X79915Y84956I-1277J-1170*
G01*
G75*
G02X80038Y84764I-1863J-1326*
G01*
G75*
G02X80133Y84575I-1795J-1024*
G01*
G75*
G02X80181Y84422I-636J-282*
G01*
G75*
G03X80230Y84267I663J125*
G01*
G75*
G03X80331Y84070I2036J926*
G01*
G75*
G03X80463Y83867I2170J1263*
G01*
G75*
G03X80607Y83689I1645J1179*
G01*
X80970Y83287*
X82520Y83480*
G75*
G02X84479Y83706I13614J-109562*
G01*
G75*
G02X85915Y83826I3415J-32196*
G01*
G75*
G02X87254Y83874I1646J-26774*
G01*
G75*
G02X88870Y83869I630J-56475*
G01*
G75*
G02X90074Y83842I-1920J-111812*
G01*
G75*
G02X90782Y83806I-414J-14847*
G01*
G75*
G02X91241Y83753I-454J-5973*
G01*
G75*
G02X91523Y83668I-162J-1052*
G01*
G75*
G02X91828Y83497I-917J-1994*
G01*
G75*
G02X92047Y83303I-603J-900*
G01*
G75*
G02X92194Y83070I-710J-611*
G01*
G75*
G02X92283Y82783I-1202J-530*
G01*
G75*
G03X92319Y82637I1250J233*
G01*
G75*
G03X92376Y82482I1750J552*
G01*
G75*
G03X92443Y82341I1572J654*
G01*
G75*
G03X92509Y82240I555J293*
G01*
G75*
G02X92810Y81787I-2291J-1851*
G01*
G75*
G02X92919Y81401I-806J-435*
G01*
G75*
G02X92844Y81051I-685J-36*
G01*
G75*
G02X92591Y80709I-1165J598*
G01*
X92261Y80390*
X90647*
G75*
G03X89984Y80383I-16J-33187*
G01*
G75*
G03X89459Y80363I265J-13261*
G01*
G75*
G03X89041Y80333I1234J-20454*
G01*
G75*
G03X88970Y80290I7J-92*
G01*
G75*
G02X88926Y80251I-83J51*
G01*
G75*
G02X88831Y80219I-261J619*
G01*
G75*
G02X88712Y80197I-219J848*
G01*
G75*
G02X88582Y80190I-131J1139*
G01*
G75*
G03X88318Y80137I0J-683*
G01*
G75*
G03X88066Y79982I374J-894*
G01*
G75*
G03X87883Y79769I567J-669*
G01*
G75*
G03X87820Y79544I370J-225*
G01*
G75*
G03X87856Y79436I186J0*
G01*
G75*
G03X88050Y79176I6042J4318*
G01*
G75*
G03X88302Y78874I5295J4150*
G01*
G75*
G03X88600Y78549I7902J6970*
G01*
G75*
G02X88947Y78174I-9182J-8827*
G01*
G75*
G02X89346Y77712I-19239J-17032*
G01*
G75*
G02X89733Y77242I-19611J-16560*
G01*
G75*
G02X90044Y76839I-9783J-7859*
G01*
G75*
G03X90316Y76473I97500J72211*
G01*
G75*
G03X90581Y76118I87458J65171*
G01*
G75*
G03X90811Y75814I79632J59795*
G01*
G75*
G03X90940Y75647I8551J6481*
G01*
G75*
G02X91034Y75524I-3375J-2675*
G01*
G75*
G02X91125Y75394I-3772J-2757*
G01*
G75*
G02X91202Y75277I-3423J-2324*
G01*
G75*
G02X91246Y75197I-667J-424*
G01*
G75*
G03X91291Y75112I1254J604*
G01*
G75*
G03X91374Y74969I9367J5349*
G01*
G75*
G03X91473Y74805I10363J6101*
G01*
G75*
G03X91576Y74640I10841J6638*
G01*
G75*
G02X91691Y74448I-3752J-2376*
G01*
G75*
G02X91829Y74196I-10285J-5813*
G01*
G75*
G02X91967Y73930I-10989J-5858*
G01*
G75*
G02X92082Y73690I-6937J-3480*
G01*
G75*
G03X92193Y73451I29837J13739*
G01*
G75*
G03X92317Y73189I44185J20772*
G01*
G75*
G03X92436Y72941I41240J19680*
G01*
G75*
G03X92528Y72756I13678J6637*
G01*
G75*
G02X92602Y72581I-1326J-662*
G01*
G75*
G02X92664Y72375I-2333J-822*
G01*
G75*
G02X92707Y72170I-2311J-586*
G01*
G75*
G02X92720Y72000I-1037J-170*
G01*
G75*
G03X92729Y71851I1407J3*
G01*
G75*
G03X92752Y71707I1247J131*
G01*
G75*
G03X92787Y71588I1002J230*
G01*
G75*
G03X92829Y71522I168J60*
G01*
G75*
G02X92911Y71357I-204J-204*
G01*
G75*
G02X92892Y71149I-461J-63*
G01*
G75*
G02X92778Y70949I-549J181*
G01*
G75*
G02X92596Y70811I-426J373*
G01*
G75*
G03X92454Y70726I379J-793*
G01*
G75*
G03X92373Y70633I170J-231*
G01*
G75*
G03X92331Y70507I310J-172*
G01*
G75*
G03X92319Y70309I1616J-206*
G01*
G75*
G02X92268Y69932I-1500J9*
G01*
G75*
G02X92120Y69523I-2461J656*
G01*
G75*
G02X91915Y69163I-2160J995*
G01*
G75*
G02X91690Y68943I-676J468*
G01*
G75*
G02X91570Y68877I-506J771*
G01*
G75*
G02X91413Y68812I-904J1962*
G01*
G75*
G02X91246Y68758I-775J2110*
G01*
G75*
G02X91095Y68724I-370J1313*
G01*
G75*
G02X90611Y68754I-176J1089*
G01*
G75*
G02X90343Y69002I113J392*
G01*
G75*
G02X90359Y69401I481J181*
G01*
G75*
G02X90670Y69846I1422J-664*
G01*
G75*
G03X90931Y70257I-785J785*
G01*
G75*
G03X91000Y70753I-1164J417*
G01*
G75*
G03X90870Y71393I-2392J-153*
G01*
G75*
G03X90516Y72266I-9263J-3252*
G01*
G75*
G02X90403Y72513I29704J13724*
G01*
G75*
G02X90307Y72728I16535J7484*
G01*
G75*
G02X90226Y72914I47170J20654*
G01*
G75*
G02X90220Y72941I64J28*
G01*
G75*
G03X90213Y72968I-53J0*
G01*
G75*
G03X90097Y73167I-51014J-29708*
G01*
G75*
G03X89961Y73396I-15945J-9330*
G01*
G75*
G03X89800Y73659I-28880J-17518*
G01*
G75*
G03X88987Y74856I-14461J-8944*
G01*
G75*
G03X88166Y75828I-8194J-6090*
G01*
G75*
G03X87422Y76506I-5378J-5148*
G01*
G75*
G03X86895Y76692I-533J-670*
G01*
G75*
G02X86626Y76735I6J893*
G01*
G75*
G02X86371Y76859I322J995*
G01*
G75*
G02X86151Y77050I612J923*
G01*
G75*
G02X85987Y77294I852J750*
G01*
G75*
G03X85858Y77474I-631J-315*
G01*
G75*
G03X85698Y77569I-256J-252*
G01*
G75*
G03X85575Y77542I-36J-131*
G01*
G75*
G03X85518Y77422I102J-122*
G01*
G75*
G02X85454Y77056I-1177J15*
G01*
G75*
G02X85106Y76078I-43208J14861*
G01*
G75*
G02X84688Y75006I-31465J11631*
G01*
G75*
G02X84256Y74007I-24891J10180*
G01*
G75*
G03X84137Y73727I5227J-2388*
G01*
G75*
G03X84154Y73645I71J-28*
G01*
G75*
G03X84224Y73644I36J35*
G01*
G75*
G03X84421Y73841I-2878J3081*
G01*
G75*
G02X84537Y73943I613J-579*
G01*
G75*
G02X84669Y74022I498J-676*
G01*
G75*
G02X84806Y74073I332J-688*
G01*
G75*
G02X84938Y74090I131J-502*
G01*
G75*
G02X85093Y74079I2J-1103*
G01*
G75*
G02X85172Y74039I-19J-133*
G01*
G75*
G02X85210Y73958I-103J-99*
G01*
G75*
G02X85220Y73796I-1270J-161*
G01*
G75*
G02X85213Y73679I-934J-2*
G01*
G75*
G02X85191Y73570I-742J94*
G01*
G75*
G02X85159Y73483I-552J156*
G01*
G75*
G02X85120Y73440I-92J43*
G01*
G75*
G03X85082Y73403I66J-106*
G01*
G75*
G03X85050Y73342I283J-189*
G01*
G75*
G03X85028Y73268I378J-154*
G01*
G75*
G03X85020Y73193I382J-76*
G01*
G75*
G02X85002Y73085I-321J-1*
G01*
G75*
G02X84922Y72875I-4372J1553*
G01*
G75*
G02X84813Y72630I-4604J1889*
G01*
G75*
G02X84685Y72373I-5822J2764*
G01*
G75*
G03X84536Y72093I176419J-93592*
G01*
G75*
G03X84368Y71774I294981J-155878*
G01*
G75*
G03X84206Y71465I285161J-150052*
G01*
G75*
G03X84078Y71221I111640J-58771*
G01*
G75*
G02X83963Y71014I-4730J2476*
G01*
G75*
G02X83844Y70820I-3935J2282*
G01*
G75*
G02X83735Y70661I-3430J2229*
G01*
G75*
G02X83663Y70584I-336J241*
G01*
G75*
G03X83609Y70530I287J-346*
G01*
G75*
G03X83563Y70467I376J-321*
G01*
G75*
G03X83531Y70403I362J-221*
G01*
G75*
G03X83520Y70350I132J-53*
G01*
G75*
G02X83429Y70131I-306J0*
G01*
G75*
G02X82796Y69530I-18739J19085*
G01*
G75*
G02X82151Y68969I-10406J11310*
G01*
G75*
G02X81727Y68700I-1296J1578*
G01*
G75*
G02X81485Y68604I-854J1806*
G01*
G75*
G02X81230Y68539I-646J2003*
G01*
G75*
G02X80945Y68502I-474J2506*
G01*
G75*
G02X80613Y68490I-332J4504*
G01*
G75*
G02X80161Y68509I4J5289*
G01*
G75*
G02X79853Y68574I111J1296*
G01*
G75*
G02X79537Y68719I564J1652*
G01*
G75*
G02X79028Y69030I6828J11719*
G01*
G75*
G03X78835Y69149I-3294J-5125*
G01*
G75*
G03X78624Y69270I-4174J-7043*
G01*
G75*
G03X78426Y69375I-3607J-6545*
G01*
G75*
G03X78278Y69445I-995J-1927*
G01*
G75*
G02X77611Y69872I902J2138*
G01*
G75*
G02X77022Y70556I2613J2850*
G01*
G75*
G02X76544Y71448I4057J2744*
G01*
G75*
G02X76211Y72500I6355J2594*
G01*
G75*
G02X76036Y73661I7391J1706*
G01*
G75*
G02X75954Y75404I34991J2517*
G01*
G75*
G02X75961Y77222I35408J778*
G01*
G75*
G02X76074Y78690I15400J-451*
G01*
X76170Y50640D02*
G75*
G02X76343Y51734I35301J-5028D01*
G01*
G75*
G02X76526Y52639I17104J-2979*
G01*
G75*
G02X76778Y53631I22146J-5090*
G01*
G75*
G02X77181Y55040I88698J-24648*
G01*
G75*
G02X77766Y56704I16563J-4884*
G01*
G75*
G02X78487Y58196I12457J-5106*
G01*
G75*
G02X79249Y59361I9120J-5127*
G01*
G75*
G02X79941Y59948I1650J-1243*
G01*
G75*
G02X80283Y60068I572J-1093*
G01*
G75*
G02X80662Y60089I272J-1440*
G01*
G75*
G02X81011Y60015I-93J-1302*
G01*
G75*
G02X81267Y59853I-237J-655*
G01*
G75*
G02X81423Y59645I-648J-648*
G01*
G75*
G02X81572Y59328I-2573J-1405*
G01*
G75*
G02X81684Y58993I-2738J-1099*
G01*
G75*
G02X81720Y58722I-1030J-276*
G01*
G75*
G03X81737Y58663I111J1*
G01*
G75*
G03X81800Y58576I742J471*
G01*
G75*
G03X81888Y58481I848J693*
G01*
G75*
G03X81993Y58391I973J1016*
G01*
G75*
G02X82222Y58155I-770J-979*
G01*
G75*
G02X82387Y57863I-1092J-813*
G01*
G75*
G02X82487Y57515I-1481J-614*
G01*
G75*
G02X82520Y57115I-2387J-399*
G01*
Y56662*
X83146Y56722*
G75*
G02X84885Y56862I5186J-53637*
G01*
G75*
G02X86604Y56943I3265J-50942*
G01*
G75*
G02X88150Y56962I1302J-43218*
G01*
G75*
G02X89337Y56909I-87J-15324*
G01*
G75*
G02X89920Y56856I-2848J-34266*
G01*
G75*
G02X90488Y56794I-3098J-30891*
G01*
G75*
G02X90974Y56731I-3331J-27972*
G01*
G75*
G02X91243Y56683I-420J-3076*
G01*
G75*
G02X91674Y56530I-439J-1924*
G01*
G75*
G02X92020Y56291I-622J-1267*
G01*
G75*
G02X92243Y55993I-744J-790*
G01*
G75*
G02X92320Y55669I-637J-324*
G01*
G75*
G03X92338Y55493I905J1*
G01*
G75*
G03X92389Y55340I635J125*
G01*
G75*
G03X92480Y55193I681J325*
G01*
G75*
G03X92620Y55040I1230J982*
G01*
G75*
G02X92830Y54759I-728J-761*
G01*
G75*
G02X92919Y54441I-743J-379*
G01*
G75*
G02X92878Y54107I-868J-64*
G01*
G75*
G02X92714Y53780I-1149J374*
G01*
X92507Y53490*
X90920*
G75*
G03X90269Y53483I-16J-31907*
G01*
G75*
G03X89753Y53463I261J-12865*
G01*
G75*
G03X89341Y53433I1204J-19658*
G01*
G75*
G03X89270Y53390I7J-92*
G01*
G75*
G02X89212Y53350I-73J45*
G01*
G75*
G02X88996Y53319I-714J4204*
G01*
G75*
G02X88727Y53297I-450J3837*
G01*
G75*
G02X88420Y53290I-311J6472*
G01*
G75*
G03X88114Y53283I-4J-6471*
G01*
G75*
G03X87846Y53261I182J-3859*
G01*
G75*
G03X87629Y53230I498J-4235*
G01*
G75*
G03X87570Y53190I15J-85*
G01*
G75*
G02X87523Y53151I-80J49*
G01*
G75*
G02X87416Y53119I-299J810*
G01*
G75*
G02X87279Y53097I-244J1080*
G01*
G75*
G02X87130Y53090I-151J1525*
G01*
X86750*
X86690Y52165*
G75*
G02X86593Y51377I-7037J461*
G01*
G75*
G02X86382Y50351I-20576J3699*
G01*
G75*
G02X86110Y49300I-21140J4908*
G01*
G75*
G02X85819Y48415I-11311J3230*
G01*
G75*
G03X85750Y48213I4117J-1533*
G01*
G75*
G03X85703Y48041I2024J-645*
G01*
G75*
G03X85677Y47907I1967J-450*
G01*
G75*
G03X85697Y47880I24J-4*
G01*
G75*
G03X85743Y47877I45J322*
G01*
G75*
G03X85844Y47878I-21J6242*
G01*
G75*
G03X85966Y47881I-120J6205*
G01*
G75*
G03X86096Y47887I-306J8165*
G01*
G75*
G02X86296Y47888I108J-1942*
G01*
G75*
G02X86376Y47848I-6J-112*
G01*
G75*
G02X86413Y47756I-119J-102*
G01*
G75*
G02X86420Y47504I-4357J-249*
G01*
G75*
G02X86413Y47345I-1715J-2*
G01*
G75*
G02X86391Y47202I-1207J111*
G01*
G75*
G02X86359Y47088I-939J203*
G01*
G75*
G02X86320Y47040I-88J31*
G01*
G75*
G03X86282Y46997I54J-86*
G01*
G75*
G03X86250Y46912I502J-239*
G01*
G75*
G03X86228Y46805I700J-200*
G01*
G75*
G03X86220Y46690I893J-116*
G01*
G75*
G02X86213Y46575I-897J-2*
G01*
G75*
G02X86191Y46468I-722J93*
G01*
G75*
G02X86159Y46383I-535J154*
G01*
G75*
G02X86120Y46340I-93J44*
G01*
G75*
G03X86082Y46303I67J-108*
G01*
G75*
G03X86050Y46243I274J-187*
G01*
G75*
G03X86028Y46171I365J-151*
G01*
G75*
G03X86020Y46098I359J-74*
G01*
G75*
G02X85963Y45843I-598J0*
G01*
G75*
G02X85636Y45175I-22149J10451*
G01*
G75*
G02X85263Y44485I-14751J7519*
G01*
G75*
G02X84915Y43928I-7065J4033*
G01*
G75*
G02X84542Y43437I-5108J3489*
G01*
G75*
G02X84045Y42880I-10107J8508*
G01*
G75*
G02X83543Y42361I-18157J17103*
G01*
G75*
G02X83371Y42290I-172J171*
G01*
G75*
G03X83313Y42277I0J-136*
G01*
G75*
G03X83237Y42235I263J-567*
G01*
G75*
G03X83156Y42174I419J-641*
G01*
G75*
G03X83081Y42102I529J-620*
G01*
G75*
G02X82976Y42018I-309J280*
G01*
G75*
G02X82780Y41918I-1334J2383*
G01*
G75*
G02X82542Y41820I-1331J2898*
G01*
G75*
G02X82293Y41740I-1181J3232*
G01*
G75*
G02X81720Y41636I-844J3015*
G01*
G75*
G02X81086Y41627I-379J4340*
G01*
G75*
G02X80508Y41704I229J3896*
G01*
G75*
G02X80120Y41868I229J1085*
G01*
G75*
G03X79807Y42069I-5674J-8477*
G01*
G75*
G03X79485Y42261I-5485J-8876*
G01*
G75*
G03X79132Y42454I-5990J-10535*
G01*
G75*
G03X78728Y42661I-9211J-17486*
G01*
G75*
G02X77933Y43196I1617J3254*
G01*
G75*
G02X77251Y43952I3059J3446*
G01*
G75*
G02X76700Y44908I4439J3196*
G01*
G75*
G02X76296Y46040I6990J3133*
G01*
G75*
G02X76139Y46917I4925J1335*
G01*
G75*
G02X76065Y48186I20305J1827*
G01*
G75*
G02X76070Y49520I21038J574*
G01*
G75*
G02X76170Y50640I10651J-384*
G01*
X79123Y72509D02*
G75*
G03X79237Y72341I1829J1117D01*
G01*
G75*
G03X79329Y72256I269J200*
G01*
G75*
G03X79426Y72228I98J159*
G01*
G75*
G03X79548Y72246I4J405*
G01*
G75*
G03X80773Y72828I-1353J4432*
G01*
G75*
G03X81931Y73797I-3933J5874*
G01*
G75*
G03X83033Y75168I-7061J6799*
G01*
G75*
G03X84087Y76959I-15809J10516*
G01*
G75*
G03X84411Y77623I-13734J7103*
G01*
G75*
G03X84576Y78076I-2700J1239*
G01*
G75*
G03X84613Y78377I-1030J282*
G01*
G75*
G03X84520Y78540I-196J-4*
G01*
G75*
G02X84476Y78589I65J106*
G01*
G75*
G02X84418Y78712I1529J791*
G01*
G75*
G02X84360Y78867I1799J759*
G01*
G75*
G02X84311Y79039I2535J820*
G01*
G75*
G03X84211Y79333I-1910J-481*
G01*
G75*
G03X84086Y79498I-392J-167*
G01*
G75*
G03X83931Y79548I-143J-179*
G01*
G75*
G03X83742Y79495I23J-448*
G01*
G75*
G02X83629Y79448I-279J519*
G01*
G75*
G02X83342Y79367I-4202J14321*
G01*
G75*
G02X82997Y79278I-3693J13602*
G01*
G75*
G02X82620Y79190I-4644J18972*
G01*
G75*
G03X81444Y78870I2915J-13023*
G01*
G75*
G03X80561Y78492I1594J-4944*
G01*
G75*
G03X79943Y78052I1487J-2744*
G01*
G75*
G03X79576Y77540I1028J-1125*
G01*
G75*
G03X79276Y76747I7534J-3309*
G01*
G75*
G03X79084Y75986I5780J-1857*
G01*
G75*
G03X78978Y75130I7472J-1366*
G01*
G75*
G03X78935Y74040I19211J-1302*
G01*
G75*
G03X78934Y73361I32093J-358*
G01*
G75*
G03X78959Y72991I3301J35*
G01*
G75*
G03X79017Y72737I1280J156*
G01*
G75*
G03X79123Y72509I1075J363*
G01*
X79773Y45685D02*
G75*
G03X79870Y45530I1008J520D01*
G01*
G75*
G03X79968Y45444I245J183*
G01*
G75*
G03X80099Y45402I172J314*
G01*
G75*
G03X80309Y45390I213J1793*
G01*
G75*
G03X81376Y45717I0J1904*
G01*
G75*
G03X82624Y46766I-4420J6526*
G01*
G75*
G03X83882Y48322I-8143J7868*
G01*
G75*
G03X84996Y50240I-14127J9485*
G01*
G75*
G03X85379Y51053I-19790J9827*
G01*
G75*
G03X85636Y51702I-7433J3321*
G01*
G75*
G03X85783Y52210I-4645J1615*
G01*
G75*
G03X85803Y52562I-1011J234*
G01*
G75*
G03X85770Y52715I-796J-93*
G01*
G75*
G03X85710Y52798I-159J-51*
G01*
G75*
G03X85601Y52844I-152J-206*
G01*
G75*
G03X85383Y52872I-422J-2501*
G01*
G75*
G03X85226Y52876I-118J-1443*
G01*
G75*
G03X85077Y52863I30J-1210*
G01*
G75*
G03X84954Y52836I148J-958*
G01*
G75*
G03X84887Y52797I42J-148*
G01*
G75*
G02X84813Y52755I-111J111*
G01*
G75*
G02X84643Y52721I-499J2062*
G01*
G75*
G02X84434Y52698I-376J2392*
G01*
G75*
G02X84207Y52690I-228J3308*
G01*
G75*
G03X83982Y52683I-3J-3461*
G01*
G75*
G03X83783Y52661I142J-2197*
G01*
G75*
G03X83625Y52629I311J-1976*
G01*
G75*
G03X83570Y52590I21J-86*
G01*
G75*
G02X83525Y52551I-82J50*
G01*
G75*
G02X83428Y52519I-269J659*
G01*
G75*
G02X83305Y52497I-224J894*
G01*
G75*
G02X83170Y52490I-135J1221*
G01*
G75*
G03X83037Y52483I-2J-1225*
G01*
G75*
G03X82914Y52461I101J-917*
G01*
G75*
G03X82816Y52429I172J-691*
G01*
G75*
G03X82770Y52390I37J-90*
G01*
G75*
G02X82725Y52351I-82J50*
G01*
G75*
G02X82628Y52319I-269J659*
G01*
G75*
G02X82505Y52297I-224J894*
G01*
G75*
G02X82370Y52290I-135J1221*
G01*
G75*
G03X82237Y52283I-2J-1225*
G01*
G75*
G03X82114Y52261I101J-917*
G01*
G75*
G03X82016Y52229I172J-691*
G01*
G75*
G03X81970Y52190I37J-90*
G01*
G75*
G02X81935Y52152I-117J72*
G01*
G75*
G02X81880Y52119I-180J244*
G01*
G75*
G02X81815Y52097I-143J314*
G01*
G75*
G02X81750Y52090I-66J284*
G01*
G75*
G03X81663Y52070I0J-194*
G01*
G75*
G03X81513Y51987I988J-1989*
G01*
G75*
G03X81340Y51874I1305J-2185*
G01*
G75*
G03X81165Y51741I1909J-2674*
G01*
G75*
G03X80793Y51340I1281J-1564*
G01*
G75*
G03X80409Y50720I5053J-3554*
G01*
G75*
G03X80109Y50077I5434J-2931*
G01*
G75*
G03X80020Y49620I1144J-458*
G01*
G75*
G02X80013Y49494I-1090J-2*
G01*
G75*
G02X79991Y49377I-836J98*
G01*
G75*
G02X79959Y49285I-624J163*
G01*
G75*
G02X79920Y49240I-91J40*
G01*
G75*
G03X79881Y49193I52J-82*
G01*
G75*
G03X79847Y49088I796J-318*
G01*
G75*
G03X79822Y48955I1057J-269*
G01*
G75*
G03X79811Y48809I1470J-189*
G01*
G75*
G02X79801Y48650I-2386J61*
G01*
G75*
G02X79780Y48475I-3474J326*
G01*
G75*
G02X79752Y48312I-3198J472*
G01*
G75*
G02X79720Y48190I-1082J214*
G01*
G75*
G03X79637Y47713I1711J-547*
G01*
G75*
G03X79629Y46883I13724J-545*
G01*
G75*
G03X79668Y46057I15609J330*
G01*
G75*
G03X79773Y45685I963J71*
G01*
X80375Y133836D02*
G75*
G03X80515Y133381I5253J1367D01*
G01*
G75*
G03X80731Y132812I13590J4825*
G01*
G75*
G03X80967Y132239I42635J17222*
G01*
G75*
G03X81040Y132190I73J31*
G01*
G75*
G03X81101Y132252J62*
G01*
G75*
G03X81042Y136780I-12355036J-159934*
G01*
G75*
G03X80980Y141283I-8601165J-115047*
G01*
G75*
G03X80917Y141434I-217J-3*
G01*
G75*
G02X80880Y141491I116J117*
G01*
G75*
G02X80849Y141589I750J288*
G01*
G75*
G02X80828Y141707I951J233*
G01*
G75*
G02X80820Y141828I1036J121*
G01*
G75*
G03X80775Y142054I-578J1*
G01*
G75*
G03X80633Y142314I-1396J-594*
G01*
G75*
G03X80456Y142527I-1190J-808*
G01*
G75*
G03X80303Y142590I-152J-154*
G01*
G75*
G03X80269Y142557J-33*
G01*
G75*
G03X80245Y141392I725747J-15784*
G01*
G75*
G03X80227Y140075I104177J-2091*
G01*
G75*
G03X80220Y138511I206495J-1614*
G01*
G75*
G03X80227Y136322I399426J55*
G01*
G75*
G03X80250Y135098I44353J244*
G01*
G75*
G03X80294Y134319I16843J553*
G01*
G75*
G03X80375Y133836I2799J222*
G01*
X80797Y120022D02*
G75*
G03X81396Y119824I1187J2580D01*
G01*
G75*
G03X82251Y119683I2017J9544*
G01*
G75*
G03X83219Y119608I1367J11379*
G01*
G75*
G03X84184Y119615I396J11248*
G01*
G75*
G03X84922Y119676I-630J12272*
G01*
G75*
G03X85342Y119781I-179J1600*
G01*
G75*
G03X85650Y119977I-367J917*
G01*
G75*
G03X85965Y120328I-1827J1951*
G01*
G75*
G03X86085Y120596I-546J407*
G01*
G75*
G03X86142Y121022I-2830J594*
G01*
G75*
G03X86166Y121802I-14488J837*
G01*
G75*
G03X86170Y123879I-491785J2064*
G01*
G75*
G03X86166Y125889I-409888J42*
G01*
G75*
G03X86141Y126728I-17069J-84*
G01*
G75*
G03X86085Y127216I-4033J-219*
G01*
G75*
G03X85970Y127570I-1356J-241*
G01*
G75*
G03X85746Y127807I-479J-229*
G01*
G75*
G03X85588Y127728I-51J-94*
G01*
G75*
G03X85524Y126902I6468J-912*
G01*
G75*
G03X85497Y124215I414956J-5600*
G01*
X85470Y120440*
X82896Y120413*
G75*
G03X81908Y120398I983J-92599*
G01*
G75*
G03X81078Y120373I978J-46674*
G01*
G75*
G03X80351Y120343I8932J-228811*
G01*
G75*
G03X80322Y120313I1J-30*
G01*
G75*
G03X80343Y120275I48J1*
G01*
G75*
G03X80463Y120198I1570J2284*
G01*
G75*
G03X80616Y120111I1292J2111*
G01*
G75*
G03X80797Y120022I1965J3787*
G01*
X83546Y143967D02*
G75*
G02X84109Y143931I-604J-13926D01*
G01*
G75*
G02X84573Y143875I-561J-6617*
G01*
G75*
G02X84981Y143794I-783J-5056*
G01*
G75*
G02X85370Y143683I-1071J-4457*
G01*
G75*
G02X86094Y143371I-1528J-4546*
G01*
G75*
G02X86842Y142915I-3434J-6462*
G01*
G75*
G02X87534Y142369I-4223J-6068*
G01*
G75*
G02X88090Y141789I-3402J-3820*
G01*
G75*
G03X88328Y141499I296990J243152*
G01*
G75*
G03X88605Y141161I537130J440327*
G01*
G75*
G03X88876Y140831I525222J431559*
G01*
G75*
G03X89096Y140564I225352J185301*
G01*
G75*
G02X89281Y140335I-9402J-7753*
G01*
G75*
G02X89443Y140121I-6578J-5168*
G01*
G75*
G02X89573Y139939I-7558J-5536*
G01*
G75*
G02X89610Y139864I-227J-159*
G01*
G75*
G03X89637Y139800I383J121*
G01*
G75*
G03X89692Y139698I2370J1234*
G01*
G75*
G03X89761Y139585I2610J1514*
G01*
G75*
G03X89835Y139474I2609J1659*
G01*
G75*
G02X89906Y139358I-889J-621*
G01*
G75*
G02X89966Y139227I-1183J-624*
G01*
G75*
G02X90008Y139102I-1100J-437*
G01*
G75*
G02X90020Y139006I-356J-96*
G01*
G75*
G03X90028Y138923I464J0*
G01*
G75*
G03X90050Y138843I449J81*
G01*
G75*
G03X90082Y138778I344J130*
G01*
G75*
G03X90120Y138740I102J62*
G01*
G75*
G02X90159Y138700I-57J-94*
G01*
G75*
G02X90191Y138626I-381J-211*
G01*
G75*
G02X90213Y138536I-528J-176*
G01*
G75*
G02X90220Y138440I-619J-94*
G01*
G75*
G03X90228Y138344I624J1*
G01*
G75*
G03X90250Y138254I550J86*
G01*
G75*
G03X90282Y138180I413J138*
G01*
G75*
G03X90320Y138140I96J53*
G01*
G75*
G02X90359Y138094I-50J-83*
G01*
G75*
G02X90391Y137997I-659J-269*
G01*
G75*
G02X90413Y137874I-894J-224*
G01*
G75*
G02X90420Y137740I-1221J-132*
G01*
G75*
G03X90428Y137606I1225J1*
G01*
G75*
G03X90450Y137483I917J101*
G01*
G75*
G03X90482Y137385I691J172*
G01*
G75*
G03X90520Y137340I90J37*
G01*
G75*
G02X90560Y137280I-44J-73*
G01*
G75*
G02X90591Y137035I-5725J-852*
G01*
G75*
G02X90613Y136735I-4776J-501*
G01*
G75*
G02X90620Y136390I-8198J-341*
G01*
G75*
G03X90628Y136045I8196J6*
G01*
G75*
G03X90650Y135744I4798J200*
G01*
G75*
G03X90681Y135500I5756J608*
G01*
G75*
G03X90720Y135440I85J12*
G01*
G75*
G02X90760Y135380I-44J-73*
G01*
G75*
G02X90791Y135135I-5725J-852*
G01*
G75*
G02X90813Y134835I-4776J-501*
G01*
G75*
G02X90820Y134490I-8198J-341*
G01*
G75*
G03X90828Y134145I8196J6*
G01*
G75*
G03X90850Y133844I4798J200*
G01*
G75*
G03X90881Y133600I5756J608*
G01*
G75*
G03X90920Y133540I85J12*
G01*
G75*
G02X90959Y133494I-50J-83*
G01*
G75*
G02X90991Y133397I-659J-269*
G01*
G75*
G02X91013Y133274I-894J-224*
G01*
G75*
G02X91020Y133140I-1221J-132*
G01*
G75*
G03X91028Y133006I1225J1*
G01*
G75*
G03X91050Y132883I917J101*
G01*
G75*
G03X91082Y132785I691J172*
G01*
G75*
G03X91120Y132740I90J37*
G01*
G75*
G02X91159Y132700I-58J-95*
G01*
G75*
G02X91191Y132628I-367J-208*
G01*
G75*
G02X91213Y132539I-511J-174*
G01*
G75*
G02X91220Y132446I-583J-91*
G01*
G75*
G03X91254Y132207I884J1*
G01*
G75*
G03X91366Y131869I3745J1054*
G01*
G75*
G03X91562Y131401I7565J2900*
G01*
G75*
G03X91886Y130711I35467J16230*
G01*
G75*
G03X92457Y129801I4325J2080*
G01*
G75*
G03X93206Y129063I3435J2739*
G01*
G75*
G03X94070Y128555I2438J3153*
G01*
G75*
G03X94982Y128318I1232J2868*
G01*
X95520Y128262*
Y127745*
G75*
G03X95533Y127425I4126J2*
G01*
G75*
G03X95582Y127257I426J33*
G01*
G75*
G03X95694Y127120I396J210*
G01*
G75*
G03X95960Y126919I2988J3663*
G01*
G75*
G02X96220Y126716I-1922J-2731*
G01*
G75*
G02X96353Y126552I-400J-461*
G01*
G75*
G02X96437Y126336I-718J-403*
G01*
G75*
G02X96524Y125913I-8236J-1912*
G01*
G75*
G02X96591Y125310I-4541J-812*
G01*
G75*
G02X96601Y124537I-11968J-539*
G01*
G75*
G02X96557Y123358I-33686J648*
G01*
G75*
G02X96433Y121190I-334956J18190*
G01*
G75*
G02X96358Y120183I-38850J2365*
G01*
G75*
G02X96272Y119652I-3658J319*
G01*
G75*
G02X96139Y119311I-1274J303*
G01*
G75*
G02X95922Y119040I-940J529*
G01*
G75*
G02X95732Y118929I-364J404*
G01*
G75*
G02X95469Y118872I-383J1130*
G01*
G75*
G02X95017Y118848I-484J4848*
G01*
G75*
G02X93985Y118845I-744J99493*
G01*
G75*
G02X92877Y118856I314J93904*
G01*
G75*
G02X92409Y118889I61J4101*
G01*
G75*
G02X92061Y118973I218J1670*
G01*
G75*
G02X91620Y119154I1713J4809*
G01*
G75*
G02X91362Y119281I2569J5520*
G01*
G75*
G02X91121Y119416I2346J4474*
G01*
G75*
G02X90924Y119541I2335J3912*
G01*
G75*
G02X90833Y119623I234J349*
G01*
G75*
G03X90774Y119687I-576J-474*
G01*
G75*
G03X90710Y119741I-444J-463*
G01*
G75*
G03X90650Y119779I-305J-412*
G01*
G75*
G03X90607Y119790I-43J-80*
G01*
G75*
G02X90424Y119854J292*
G01*
G75*
G02X89881Y118880I-34654J18678*
G01*
G75*
G02X89351Y120781I35650J10965*
G01*
G75*
G02X88985Y121173I3057J3222*
G01*
G75*
G02X88355Y122113I4360J3604*
G01*
G75*
G02X87933Y123148I4764J2546*
G01*
G75*
G02X87669Y124442I7724J2246*
G01*
G75*
G02X87522Y126202I24931J2972*
G01*
G75*
G03X87421Y127536I-24689J-1201*
G01*
G75*
G03X87244Y128936I-30418J-3128*
G01*
G75*
G03X87032Y130174I-29444J-4411*
G01*
G75*
G03X86827Y130840I-3183J-617*
G01*
G75*
G02X86785Y130941I3481J1487*
G01*
G75*
G02X86729Y131084I13543J5404*
G01*
G75*
G02X86670Y131241I15008J5756*
G01*
G75*
G02X86616Y131390I11784J4366*
G01*
G75*
G03X86275Y132150I-5090J-1824*
G01*
G75*
G03X85819Y132859I-4978J-2706*
G01*
G75*
G03X85311Y133430I-3841J-2901*
G01*
G75*
G03X84820Y133766I-1259J-1313*
G01*
G75*
G02X84658Y133858I500J1068*
G01*
G75*
G02X84456Y134005I2081J3080*
G01*
G75*
G02X84250Y134177I2506J3207*
G01*
G75*
G02X84070Y134350I1991J2239*
G01*
G75*
G03X83833Y134578I-2450J-2327*
G01*
G75*
G03X83630Y134717I-715J-824*
G01*
G75*
G03X83394Y134811I-557J-1048*
G01*
G75*
G03X83046Y134894I-1203J-4311*
G01*
X82420Y135016*
Y144015*
X83546Y143967*
X89717Y137090D02*
G75*
G03X89820Y135817I31378J1913D01*
G01*
G75*
G03X89964Y134780I14298J1456*
G01*
G75*
G03X90165Y133869I10890J1918*
G01*
G75*
G03X90439Y132990I10150J2692*
G01*
G75*
G03X90684Y132377I9128J3294*
G01*
G75*
G03X90972Y131779I9107J4011*
G01*
G75*
G03X91122Y131563I913J477*
G01*
G75*
G03X91170Y131590I21J19*
G01*
G75*
G02X91141Y131706I4252J1161*
G01*
G75*
G02X91107Y131848I9485J2335*
G01*
G75*
G02X91075Y131992I9678J2212*
G01*
G75*
G02X91050Y132116I5178J1117*
G01*
G75*
G03X91023Y132226I-1110J-209*
G01*
G75*
G03X90987Y132327I-896J-264*
G01*
G75*
G03X90947Y132408I-700J-296*
G01*
G75*
G03X90909Y132447I-96J-55*
G01*
G75*
G02X90875Y132489I43J70*
G01*
G75*
G02X90847Y132585I730J265*
G01*
G75*
G02X90827Y132706I963J219*
G01*
G75*
G02X90820Y132840I1371J136*
G01*
G75*
G03X90813Y132974I-1228J2*
G01*
G75*
G03X90791Y133097I-917J-101*
G01*
G75*
G03X90759Y133194I-691J-172*
G01*
G75*
G03X90720Y133240I-89J-37*
G01*
G75*
G02X90681Y133300I45J72*
G01*
G75*
G02X90650Y133544I5725J852*
G01*
G75*
G02X90628Y133845I4776J501*
G01*
G75*
G02X90620Y134190I8188J350*
G01*
G75*
G03X90613Y134535I-8205J4*
G01*
G75*
G03X90591Y134835I-4798J-200*
G01*
G75*
G03X90560Y135080I-5756J-608*
G01*
G75*
G03X90520Y135140I-84J-13*
G01*
G75*
G02X90481Y135200I45J72*
G01*
G75*
G02X90450Y135444I5725J852*
G01*
G75*
G02X90428Y135745I4776J501*
G01*
G75*
G02X90420Y136090I8188J350*
G01*
G75*
G03X90413Y136435I-8205J4*
G01*
G75*
G03X90391Y136735I-4798J-200*
G01*
G75*
G03X90360Y136980I-5756J-608*
G01*
G75*
G03X90320Y137040I-84J-13*
G01*
G75*
G02X90282Y137085I51J82*
G01*
G75*
G02X90250Y137183I659J269*
G01*
G75*
G02X90228Y137306I894J224*
G01*
G75*
G02X90220Y137440I1218J135*
G01*
G75*
G03X90213Y137574I-1228J2*
G01*
G75*
G03X90191Y137697I-917J-101*
G01*
G75*
G03X90159Y137794I-691J-172*
G01*
G75*
G03X90120Y137840I-89J-37*
G01*
G75*
G02X90082Y137880I58J93*
G01*
G75*
G02X90050Y137954I381J211*
G01*
G75*
G02X90028Y138044I528J176*
G01*
G75*
G02X90020Y138140I616J96*
G01*
G75*
G03X90013Y138236I-626J2*
G01*
G75*
G03X89991Y138326I-550J-86*
G01*
G75*
G03X89959Y138400I-413J-138*
G01*
G75*
G03X89920Y138440I-96J-54*
G01*
G75*
G02X89882Y138480I59J94*
G01*
G75*
G02X89850Y138552I367J208*
G01*
G75*
G02X89828Y138640I509J174*
G01*
G75*
G02X89820Y138733I585J94*
G01*
G75*
G03X89808Y138832I-406*
G01*
G75*
G03X89772Y138938I-613J-152*
G01*
G75*
G03X89718Y139033I-559J-253*
G01*
G75*
G03X89655Y139103I-280J-191*
G01*
G75*
G03X89558Y139176I-945J-1143*
G01*
G75*
G03X89526Y139170I-13J-19*
G01*
G75*
G03X89517Y139122I57J-35*
G01*
G75*
G03X89555Y138940I6579J1269*
G01*
G75*
G02X89586Y138748I-1578J-351*
G01*
G75*
G02X89630Y138273I-41574J-4100*
G01*
G75*
G02X89675Y137706I-38952J-3394*
G01*
G75*
G02X89717Y137090I-53841J-3924*
G01*
X91994Y119286D02*
G75*
G03X92314Y119162I976J2039D01*
G01*
G75*
G03X92635Y119094I549J1820*
G01*
G75*
G03X93086Y119062I559J4595*
G01*
G75*
G03X93937Y119049I1161J49678*
G01*
G75*
G03X94880Y119048I541J83949*
G01*
G75*
G03X95244Y119075I-16J2750*
G01*
G75*
G03X95467Y119145I-94J687*
G01*
G75*
G03X95672Y119290I-419J811*
G01*
G75*
G03X95960Y119677I-932J996*
G01*
G75*
G03X96112Y120157I-1443J720*
G01*
G75*
G03X96206Y121046I-10127J1521*
G01*
G75*
G03X96385Y124040I-723555J44613*
G01*
G75*
G03X96399Y124871I-10197J590*
G01*
G75*
G03X96335Y125573I-5318J-126*
G01*
G75*
G03X96204Y126120I-3504J-552*
G01*
G75*
G03X96003Y126459I-859J-281*
G01*
G75*
G03X95747Y126567I-250J-235*
G01*
G75*
G03X95583Y126424I3J-169*
G01*
G75*
G03X95524Y125726I4832J-766*
G01*
G75*
G03X95497Y123265I398372J-5564*
G01*
X95470Y119840*
X93470Y119783*
G75*
G03X92702Y119759I7219J-247509*
G01*
G75*
G03X92049Y119737I4107J-128899*
G01*
G75*
G03X91467Y119715I39730J-1076944*
G01*
G75*
G03X91440Y119707I2J-59*
G01*
G75*
G03X91428Y119650I19J-34*
G01*
G75*
G03X91524Y119553I407J311*
G01*
G75*
G03X91715Y119429I939J1237*
G01*
G75*
G03X91994Y119286I2613J4746*
G01*
X94783Y53019D02*
G75*
G02X94823Y53046I93J-92D01*
G01*
G75*
G02X94888Y53069I195J-451*
G01*
G75*
G02X94964Y53085I156J-563*
G01*
G75*
G02X95041Y53090I76J-556*
G01*
G75*
G03X95116Y53101I-1J261*
G01*
G75*
G03X95189Y53134I-90J298*
G01*
G75*
G03X95248Y53183I-152J246*
G01*
G75*
G03X95285Y53240I-128J121*
G01*
G75*
G02X95397Y53348I172J-66*
G01*
G75*
G02X95620Y53387I228J-662*
G01*
G75*
G02X95843Y53351I4J-696*
G01*
G75*
G02X95955Y53244I-57J-172*
G01*
G75*
G03X96024Y53173I118J46*
G01*
G75*
G03X96183Y53124I318J752*
G01*
G75*
G03X96438Y53090I397J2012*
G01*
G75*
G03X96841Y53069I816J11637*
G01*
X97670Y53040*
Y52340*
X95970Y52240*
X95920Y51790*
G75*
G02X95884Y51532I-4296J473*
G01*
G75*
G02X95837Y51415I-300J52*
G01*
G75*
G02X95759Y51358I-115J77*
G01*
G75*
G02X95620Y51340I-139J509*
G01*
G75*
G02X95483Y51358I1J529*
G01*
G75*
G02X95404Y51415I36J133*
G01*
G75*
G02X95357Y51531I252J169*
G01*
G75*
G02X95320Y51786I4131J724*
G01*
G75*
G03X95284Y52027I-3136J-347*
G01*
G75*
G03X95233Y52160I-404J-78*
G01*
G75*
G03X95152Y52239I-187J-111*
G01*
G75*
G03X95020Y52290I-246J-441*
G01*
G75*
G02X94900Y52334I121J520*
G01*
G75*
G02X94819Y52400I109J216*
G01*
G75*
G02X94769Y52500I225J175*
G01*
G75*
G02X94741Y52648I849J235*
G01*
G75*
G02X94735Y52767I1249J126*
G01*
G75*
G02X94741Y52880I980J2*
G01*
G75*
G02X94757Y52972I786J-87*
G01*
G75*
G02X94783Y53019I94J-22*
G01*
X94790Y50214D02*
G75*
G02X94855Y50230I65J-124D01*
G01*
G75*
G02X95267Y50231I328J-63719*
G01*
G75*
G02X95747Y50226I-44J-26621*
G01*
G75*
G02X96301Y50211I-931J-47236*
G01*
X97731Y50167*
X97701Y49854*
X97670Y49540*
X94770*
X94740Y49856*
G75*
G02X94734Y49980I1244J121*
G01*
G75*
G02X94742Y50091I821J-2*
G01*
G75*
G02X94761Y50178I607J-84*
G01*
G75*
G02X94790Y50214I57J-17*
G01*
X94844Y108844D02*
G75*
G02X94944Y108864I109J-282D01*
G01*
G75*
G02X95336Y108872I913J-32430*
G01*
G75*
G02X95800Y108875I340J-21123*
G01*
G75*
G02X96326Y108868I-176J-34432*
G01*
X97670Y108840*
Y108140*
X94770*
X94739Y108466*
G75*
G02X94735Y108607I1105J108*
G01*
G75*
G02X94752Y108720I476J-16*
G01*
G75*
G02X94789Y108800I262J-73*
G01*
G75*
G02X94844Y108844I98J-67*
G01*
X94920Y74690D02*
G75*
G02X95083Y74799I356J-356D01*
G01*
G75*
G02X95300Y74857I330J-796*
G01*
G75*
G02X95661Y74884I409J-3065*
G01*
G75*
G02X96420Y74890I757J-48477*
G01*
X97720*
Y74190*
X95931*
X95901Y73715*
X95870Y73240*
X95296Y73210*
X94720Y73180*
Y73835*
G75*
G02X94730Y74178I6571J-2*
G01*
G75*
G02X94761Y74398I1256J-67*
G01*
G75*
G02X94821Y74557I618J-144*
G01*
G75*
G02X94920Y74690I508J-276*
G01*
X95015Y73590D02*
G75*
G03X95053Y73613J44D01*
G01*
G75*
G03X95090Y73700I-513J270*
G01*
G75*
G03X95121Y73821I-817J272*
G01*
G75*
G03X95140Y73965I-1522J273*
G01*
G75*
G02X95162Y74132I1633J-135*
G01*
G75*
G02X95200Y74247I453J-85*
G01*
G75*
G02X95253Y74315I185J-90*
G01*
G75*
G02X95388I68J-81*
G01*
G75*
G02X95441Y74247I-132J-158*
G01*
G75*
G02X95479Y74132I-415J-200*
G01*
G75*
G02X95502Y73965I-1611J-302*
G01*
G75*
G03X95520Y73821I1647J139*
G01*
G75*
G03X95550Y73700I899J155*
G01*
G75*
G03X95585Y73612I606J191*
G01*
G75*
G03X95657I36J18*
G01*
G75*
G03X95692Y73700I-570J278*
G01*
G75*
G03X95721Y73821I-870J276*
G01*
G75*
G03X95740Y73965I-1628J283*
G01*
X95770Y74340*
X96596Y74369*
G75*
G03X97015Y74390I-496J14178*
G01*
G75*
G03X97249Y74422I-109J1640*
G01*
G75*
G03X97378Y74471I-94J444*
G01*
G75*
G03X97420Y74544I-41J73*
G01*
G75*
G03X97373Y74618I-81J0*
G01*
G75*
G03X97224Y74661I-230J-515*
G01*
G75*
G03X96946Y74684I-324J-2243*
G01*
G75*
G03X96416Y74690I-526J-25070*
G01*
G75*
G03X95808Y74683I0J-27578*
G01*
G75*
G03X95527Y74653I35J-1649*
G01*
G75*
G03X95342Y74581I111J-565*
G01*
G75*
G03X95166Y74444I469J-781*
G01*
G75*
G03X95015Y74224I513J-513*
G01*
G75*
G03X94925Y73926I1192J-524*
G01*
G75*
G03X94918Y73675I832J-148*
G01*
G75*
G03X95015Y73590I96J12*
G01*
X95270Y52490D02*
G75*
G02X95396Y52425I-221J-584D01*
G01*
G75*
G02X95471Y52344I-131J-196*
G01*
G75*
G02X95509Y52227I-279J-156*
G01*
G75*
G02X95520Y52043I-1506J-183*
G01*
G75*
G03X95539Y51759I2196J2*
G01*
G75*
G03X95615Y51699I69J9*
G01*
G75*
G03X95698Y51774I-9J94*
G01*
G75*
G03X95740Y52065I-2419J495*
G01*
X95770Y52440*
X96570Y52490*
G75*
G03X96976Y52522I-806J12832*
G01*
G75*
G03X97204Y52561I-144J1530*
G01*
G75*
G03X97329Y52614I-106J418*
G01*
G75*
G03X97329Y52765I-47J76*
G01*
G75*
G03X97208Y52815I-206J-328*
G01*
G75*
G03X96983Y52848I-324J-1441*
G01*
G75*
G03X96574Y52870I-919J-13489*
G01*
G75*
G02X96264Y52888I255J7005*
G01*
G75*
G02X95993Y52919I342J4174*
G01*
G75*
G02X95774Y52956I699J4761*
G01*
G75*
G02X95717Y52996I17J85*
G01*
G75*
G03X95612Y53036I-78J-49*
G01*
G75*
G03X95343Y52935I611J-2042*
G01*
G75*
G03X95085Y52796I891J-1964*
G01*
G75*
G03X95020Y52680I73J-117*
G01*
G75*
G03X95037Y52637I65J0*
G01*
G75*
G03X95094Y52585I311J282*
G01*
G75*
G03X95175Y52533I357J469*
G01*
G75*
G03X95270Y52490I399J747*
G01*
X95420Y106554D02*
G75*
G02X95573Y106793I706J-285D01*
G01*
G75*
G02X95804Y106961I563J-534*
G01*
G75*
G02X96126Y107059I491J-1035*
G01*
G75*
G02X96551Y107090I422J-2852*
G01*
G75*
G02X96885Y107079I2J-5202*
G01*
G75*
G02X97086Y107040I-50J-796*
G01*
G75*
G02X97246Y106956I-178J-533*
G01*
G75*
G02X97428Y106798I-1034J-1375*
G01*
G75*
G02X97592Y106607I-1193J-1193*
G01*
G75*
G02X97675Y106441I-428J-317*
G01*
G75*
G02X97712Y106219I-895J-262*
G01*
G75*
G02X97720Y105798I-9806J-412*
G01*
Y105090*
X97420*
G75*
G02X97244Y105102I3J1326*
G01*
G75*
G02X97165Y105147I16J119*
G01*
G75*
G02X97129Y105243I140J107*
G01*
G75*
G02X97120Y105478I3463J239*
G01*
G75*
G03X97110Y105639I-1227J1*
G01*
G75*
G03X97078Y105791I-1005J-133*
G01*
G75*
G03X97030Y105914I-755J-222*
G01*
G75*
G03X96970Y105990I-205J-100*
G01*
G75*
G03X96895Y105985I-35J-42*
G01*
G75*
G03X96846Y105879I146J-131*
G01*
G75*
G03X96825Y105580I2482J-327*
G01*
G75*
G03X96820Y104852I63288J-741*
G01*
Y103590*
X96278*
G75*
G02X95974Y103600I4J4631*
G01*
G75*
G02X95794Y103637I44J674*
G01*
G75*
G02X95661Y103714I137J391*
G01*
G75*
G02X95528Y103854I656J761*
G01*
G75*
G02X95417Y104043I632J497*
G01*
G75*
G02X95357Y104261I846J351*
G01*
G75*
G02X95330Y104592I2543J372*
G01*
G75*
G02X95327Y105228I29460J464*
G01*
G75*
G02X95336Y105670I15632J-86*
G01*
G75*
G02X95357Y106076I11326J-377*
G01*
G75*
G02X95385Y106415I11616J-815*
G01*
G75*
G02X95420Y106554I504J-50*
G01*
X95436Y85940D02*
G75*
G02X95489Y86026I796J-433D01*
G01*
G75*
G02X95559Y86118I1284J-900*
G01*
G75*
G02X95634Y86203I1172J-960*
G01*
G75*
G02X95702Y86265I488J-466*
G01*
G75*
G02X95909Y86349I246J-309*
G01*
G75*
G02X96437Y86386I877J-8720*
G01*
G75*
G02X96967Y86389I298J-7293*
G01*
G75*
G02X97266Y86328I-30J-919*
G01*
G75*
G02X97455Y86181I-148J-385*
G01*
G75*
G02X97599Y85903I-930J-659*
G01*
G75*
G02X97691Y85518I-1750J-620*
G01*
G75*
G02X97720Y85045I-3715J-472*
G01*
Y84390*
X97420*
G75*
G02X97247Y84401I3J1365*
G01*
G75*
G02X97168Y84443I16J126*
G01*
G75*
G02X97130Y84532I117J103*
G01*
G75*
G02X97120Y84732I2211J200*
G01*
G75*
G03X97107Y85001I-2607J2*
G01*
G75*
G03X97063Y85210I-1030J-107*
G01*
G75*
G03X96996Y85345I-481J-154*
G01*
G75*
G03X96910Y85390I-86J-61*
G01*
G75*
G03X96874Y85357J-36*
G01*
G75*
G03X96847Y85023I17085J-1557*
G01*
G75*
G03X96827Y84619I9052J-644*
G01*
G75*
G03X96820Y84140I17894J-490*
G01*
Y82890*
X96316*
G75*
G02X96050Y82902I4J3109*
G01*
G75*
G02X95864Y82939I70J822*
G01*
G75*
G02X95714Y83013I184J565*
G01*
G75*
G02X95566Y83135I579J848*
G01*
G75*
G02X95427Y83318I610J610*
G01*
G75*
G02X95356Y83515I522J298*
G01*
G75*
G02X95328Y83828I2002J339*
G01*
G75*
G02X95324Y84560I44894J632*
G01*
G75*
G02X95333Y85031I14162J-36*
G01*
G75*
G02X95357Y85456I9344J-334*
G01*
G75*
G02X95393Y85804I9422J-773*
G01*
G75*
G02X95436Y85940I374J-45*
G01*
X95476Y69568D02*
G75*
G02X95598Y69689I400J-280D01*
G01*
G75*
G02X95750Y69754I239J-344*
G01*
G75*
G02X95997Y69783I281J-1319*
G01*
G75*
G02X96520Y69790I515J-21064*
G01*
G75*
G02X97277Y69742I1J-6015*
G01*
G75*
G02X97574Y69550I-51J-405*
G01*
G75*
G02X97700Y69129I-737J-448*
G01*
G75*
G02X97720Y67818I-40766J-1304*
G01*
Y66290*
X97120*
Y67496*
G75*
G03X97113Y67973I-15024J2*
G01*
G75*
G03X97090Y68406I-10292J-326*
G01*
G75*
G03X97058Y68764I-11123J-820*
G01*
G75*
G03X97017Y68896I-359J-38*
G01*
G75*
G03X96946Y68986I-285J-153*
G01*
G75*
G03X96848Y69046I-218J-246*
G01*
G75*
G03X96711Y69080I-195J-502*
G01*
G75*
G03X96520Y69090I-189J-1743*
G01*
G75*
G03X96330Y69080I-1J-1749*
G01*
G75*
G03X96193Y69046I58J-535*
G01*
G75*
G03X96095Y68986I120J-306*
G01*
G75*
G03X96024Y68896I213J-243*
G01*
G75*
G03X95983Y68764I319J-170*
G01*
G75*
G03X95951Y68406I11091J-1179*
G01*
G75*
G03X95928Y67973I10269J-759*
G01*
G75*
G03X95920Y67496I15017J-487*
G01*
Y66290*
X95320*
Y67818*
G75*
G02X95327Y68615I48752J-11*
G01*
G75*
G02X95352Y69084I6491J-108*
G01*
G75*
G02X95397Y69385I2525J-225*
G01*
G75*
G02X95476Y69568I487J-103*
G01*
X95528Y48026D02*
G75*
G02X95674Y48174I731J-576D01*
G01*
G75*
G02X95822Y48250I253J-311*
G01*
G75*
G02X96044Y48283I252J-945*
G01*
G75*
G02X96513Y48290I459J-14850*
G01*
G75*
G02X97204Y48243I2J-5041*
G01*
G75*
G02X97506Y48060I-62J-444*
G01*
G75*
G02X97650Y47669I-628J-452*
G01*
G75*
G02X97704Y46633I-20174J-1578*
G01*
G75*
G02X97720Y45838I-57844J-1543*
G01*
G75*
G02X97699Y45528I-1946J-25*
G01*
G75*
G02X97630Y45333I-533J79*
G01*
G75*
G02X97483Y45143I-819J482*
G01*
G75*
G02X97317Y45007I-778J779*
G01*
G75*
G02X97153Y44933I-303J453*
G01*
G75*
G02X96927Y44899I-270J1031*
G01*
G75*
G02X96520Y44890I-414J9447*
G01*
G75*
G02X96118Y44899I8J9331*
G01*
G75*
G02X95891Y44932I47J1099*
G01*
G75*
G02X95728Y45004I138J533*
G01*
G75*
G02X95566Y45135I547J840*
G01*
G75*
G02X95427Y45319I606J606*
G01*
G75*
G02X95356Y45517I531J301*
G01*
G75*
G02X95327Y45832I2042J348*
G01*
G75*
G02X95320Y46572I45769J759*
G01*
G75*
G02X95327Y47257I35161J0*
G01*
G75*
G02X95356Y47607I2873J-57*
G01*
G75*
G02X95417Y47834I967J-138*
G01*
G75*
G02X95528Y48026I730J-294*
G01*
Y64926D02*
G75*
G02X95682Y65078I668J-524D01*
G01*
G75*
G02X95845Y65153I252J-333*
G01*
G75*
G02X96104Y65184I285J-1301*
G01*
G75*
G02X96728Y65190I611J-31644*
G01*
X97720*
Y64490*
X96924*
G75*
G03X96358Y64467I-2J-6993*
G01*
G75*
G03X96091Y64372I44J-545*
G01*
G75*
G03X95960Y64175I182J-263*
G01*
G75*
G03X95920Y63796I1785J-379*
G01*
G75*
G02X95911Y63623I-1491J-2*
G01*
G75*
G02X95871Y63541I-140J17*
G01*
G75*
G02X95790Y63500I-98J96*
G01*
G75*
G02X95620Y63490I-171J1368*
G01*
G75*
G02X95437Y63506I0J1062*
G01*
G75*
G02X95358Y63564I19J107*
G01*
G75*
G02X95326Y63690I263J135*
G01*
G75*
G02X95320Y64076I13707J389*
G01*
G75*
G02X95331Y64373I4139J-5*
G01*
G75*
G02X95366Y64593I1327J-94*
G01*
G75*
G02X95429Y64769I853J-209*
G01*
G75*
G02X95528Y64926I783J-380*
G01*
X95531Y113250D02*
G75*
G02X95698Y113351I349J-386D01*
G01*
G75*
G02X95923Y113407I356J-950*
G01*
G75*
G02X96288Y113434I423J-3270*
G01*
G75*
G02X97006Y113440I696J-41018*
G01*
X98270*
Y113094*
G75*
G02X98260Y112910I-1643J-1*
G01*
G75*
G02X98223Y112803I-257J29*
G01*
G75*
G02X98150Y112737I-152J95*
G01*
G75*
G02X98020Y112690I-269J545*
G01*
G75*
G03X97876Y112617I77J-331*
G01*
G75*
G03X97797Y112489I163J-188*
G01*
G75*
G03X97758Y112232I1331J-335*
G01*
G75*
G03X97720Y111502I55081J-3188*
G01*
G75*
G02X97648Y110590I-13140J579*
G01*
G75*
G02X97488Y110214I-712J81*
G01*
G75*
G02X97168Y110036I-387J320*
G01*
G75*
G02X96467Y109990I-701J5266*
G01*
G75*
G02X96031Y109998I3J12267*
G01*
G75*
G02X95817Y110031I33J911*
G01*
G75*
G02X95672Y110107I107J384*
G01*
G75*
G02X95528Y110254I602J733*
G01*
G75*
G02X95416Y110450I609J478*
G01*
G75*
G02X95355Y110683I942J369*
G01*
G75*
G02X95327Y111050I3117J422*
G01*
G75*
G02X95320Y111788I42333J753*
G01*
G75*
G02X95326Y112548I49954J-8*
G01*
G75*
G02X95354Y112890I2688J-42*
G01*
G75*
G02X95415Y113094I704J-101*
G01*
G75*
G02X95531Y113250I452J-214*
G01*
X95552Y43572D02*
G75*
G02X95718Y43689I495J-528D01*
G01*
G75*
G02X95907Y43754I312J-609*
G01*
G75*
G02X96195Y43783I335J-1850*
G01*
G75*
G02X96752Y43790I542J-21918*
G01*
X97720*
Y43090*
X96924*
G75*
G03X96322Y43062I-4J-6503*
G01*
G75*
G03X96068Y42943I39J-413*
G01*
G75*
G03X95949Y42690I291J-292*
G01*
G75*
G03X95920Y42090I6394J-603*
G01*
G75*
G03X95949Y41490I6418J3*
G01*
G75*
G03X96068Y41237I410J39*
G01*
G75*
G03X96322Y41118I293J293*
G01*
G75*
G03X96924Y41090I602J6476*
G01*
X97720*
Y40383*
X96648Y40411*
G75*
G02X95972Y40435I1122J41816*
G01*
G75*
G02X95708Y40471I61J1435*
G01*
G75*
G02X95561Y40546I76J331*
G01*
G75*
G02X95450Y40690I315J358*
G01*
G75*
G02X95395Y40863I510J258*
G01*
G75*
G02X95356Y41189I5300J791*
G01*
G75*
G02X95331Y41617I7598J669*
G01*
G75*
G02X95322Y42148I17701J554*
G01*
G75*
G02X95327Y42889I46911J46*
G01*
G75*
G02X95355Y43209I2211J-32*
G01*
G75*
G02X95422Y43405I604J-97*
G01*
G75*
G02X95552Y43572I591J-323*
G01*
Y88772D02*
G75*
G02X95718Y88889I495J-528D01*
G01*
G75*
G02X95907Y88954I312J-609*
G01*
G75*
G02X96195Y88983I335J-1850*
G01*
G75*
G02X96752Y88990I542J-21918*
G01*
X97720*
Y88290*
X96924*
G75*
G03X96358Y88267I-2J-6993*
G01*
G75*
G03X96091Y88172I44J-545*
G01*
G75*
G03X95960Y87975I182J-263*
G01*
G75*
G03X95920Y87596I1785J-379*
G01*
G75*
G02X95911Y87423I-1491J-2*
G01*
G75*
G02X95871Y87341I-140J17*
G01*
G75*
G02X95790Y87300I-98J96*
G01*
G75*
G02X95620Y87290I-171J1368*
G01*
X95320*
Y87922*
G75*
G02X95330Y88270I6576J-5*
G01*
G75*
G02X95363Y88478I993J-52*
G01*
G75*
G02X95432Y88630I507J-138*
G01*
G75*
G02X95552Y88772I670J-443*
G01*
X95565Y97685D02*
G75*
G02X95706Y97799I827J-879D01*
G01*
G75*
G02X95831Y97857I232J-337*
G01*
G75*
G02X95972Y97871I115J-424*
G01*
G75*
G02X96165Y97848I-88J-1521*
G01*
G75*
G02X96478Y97713I-143J-766*
G01*
G75*
G02X96680Y97465I-364J-502*
G01*
G75*
G02X96789Y97051I-1195J-536*
G01*
G75*
G02X96820Y96387I-7049J-663*
G01*
G75*
G03X96826Y95991I13604J6*
G01*
G75*
G03X96848Y95762I1754J53*
G01*
G75*
G03X96886Y95640I442J70*
G01*
G75*
G03X96946Y95615I44J21*
G01*
G75*
G03X97006Y95680I-29J87*
G01*
G75*
G03X97048Y95901I-2202J531*
G01*
G75*
G03X97079Y96231I-3927J541*
G01*
G75*
G03X97099Y96723I-18154J987*
G01*
X97128Y97790*
X97720*
Y96462*
G75*
G02X97700Y95424I-25626J-4*
G01*
G75*
G02X97601Y94978I-1294J52*
G01*
G75*
G02X97382Y94765I-359J150*
G01*
G75*
G02X96980Y94690I-402J1042*
G01*
G75*
G02X96589Y94742I0J1491*
G01*
G75*
G02X96365Y94903I104J383*
G01*
G75*
G02X96251Y95217I567J383*
G01*
G75*
G02X96220Y95815I5922J600*
G01*
G75*
G03X96216Y96117I-10295J4*
G01*
G75*
G03X96203Y96397I-7646J-225*
G01*
G75*
G03X96184Y96631I-7622J-498*
G01*
G75*
G03X96160Y96732I-383J-38*
G01*
G75*
G03X96076Y96869I-412J-158*
G01*
G75*
G03X95996Y96867I-39J-35*
G01*
G75*
G03X95936Y96724I211J-173*
G01*
G75*
G03X95920Y96440I2564J-285*
G01*
G75*
G02X95914Y96158I-5796J-3*
G01*
G75*
G02X95879Y96052I-209J10*
G01*
G75*
G02X95801Y96003I-94J63*
G01*
G75*
G02X95620Y95990I-183J1237*
G01*
X95320*
Y96722*
G75*
G02X95329Y97143I10730J0*
G01*
G75*
G02X95362Y97370I1097J-44*
G01*
G75*
G02X95433Y97530I493J-126*
G01*
G75*
G02X95565Y97685I757J-510*
G01*
X95566Y62325D02*
G75*
G02X95725Y62469I855J-791D01*
G01*
G75*
G02X95879Y62545I294J-396*
G01*
G75*
G02X96087Y62581I252J-849*
G01*
G75*
G02X96458Y62590I368J-7455*
G01*
G75*
G02X96717Y62585I6J-7397*
G01*
G75*
G02X96962Y62572I-209J-5887*
G01*
G75*
G02X97167Y62552I-425J-5517*
G01*
G75*
G02X97266Y62528I-45J-402*
G01*
G75*
G02X97455Y62381I-148J-385*
G01*
G75*
G02X97599Y62103I-930J-659*
G01*
G75*
G02X97691Y61718I-1750J-620*
G01*
G75*
G02X97720Y61245I-3715J-472*
G01*
Y60590*
X97420*
G75*
G02X97247Y60601I3J1365*
G01*
G75*
G02X97168Y60643I16J126*
G01*
G75*
G02X97130Y60732I117J103*
G01*
G75*
G02X97120Y60932I2211J200*
G01*
G75*
G03X97107Y61201I-2607J2*
G01*
G75*
G03X97063Y61410I-1030J-107*
G01*
G75*
G03X96996Y61545I-481J-154*
G01*
G75*
G03X96910Y61590I-86J-61*
G01*
G75*
G03X96874Y61557J-36*
G01*
G75*
G03X96847Y61223I17085J-1557*
G01*
G75*
G03X96827Y60819I9052J-644*
G01*
G75*
G03X96820Y60340I17894J-490*
G01*
Y59090*
X96334*
G75*
G02X96098Y59102I1J2317*
G01*
G75*
G02X95900Y59139I122J1195*
G01*
G75*
G02X95733Y59204I253J906*
G01*
G75*
G02X95584Y59297I380J766*
G01*
G75*
G02X95430Y59461I467J594*
G01*
G75*
G02X95355Y59644I381J264*
G01*
G75*
G02X95326Y59951I1867J330*
G01*
G75*
G02X95320Y60783I66442J856*
G01*
G75*
G02X95326Y61580I54033J-2*
G01*
G75*
G02X95356Y61916I2367J-35*
G01*
G75*
G02X95426Y62128I677J-108*
G01*
G75*
G02X95566Y62325I817J-431*
G01*
X95577Y66629D02*
G75*
G03X95664Y66628I44J5D01*
G01*
G75*
G03X95694Y66913I-7452J917*
G01*
G75*
G03X95714Y67289I-6516J543*
G01*
G75*
G03X95720Y67782I-18874J488*
G01*
G75*
G02X95725Y68250I24813J-17*
G01*
G75*
G02X95739Y68670I16138J-304*
G01*
G75*
G02X95757Y69021I20478J-926*
G01*
G75*
G02X95781Y69132I373J-23*
G01*
G75*
G02X95847Y69209I142J-54*
G01*
G75*
G02X95971Y69257I214J-366*
G01*
G75*
G02X96177Y69283I256J-1194*
G01*
G75*
G02X96520Y69290I335J-8393*
G01*
G75*
G02X96865Y69283I9J-8409*
G01*
G75*
G02X97070Y69257I-50J-1220*
G01*
G75*
G02X97194Y69209I-90J-414*
G01*
G75*
G02X97260Y69132I-76J-131*
G01*
G75*
G02X97284Y69021I-349J-133*
G01*
G75*
G02X97303Y68670I-20459J-1277*
G01*
G75*
G02X97316Y68250I-16124J-724*
G01*
G75*
G02X97320Y67782I-24808J-464*
G01*
G75*
G03X97327Y67289I18881J10*
G01*
G75*
G03X97348Y66913I6536J167*
G01*
G75*
G03X97377Y66628I7481J632*
G01*
G75*
G03X97465Y66629I44J6*
G01*
G75*
G03X97494Y66924I-8193J957*
G01*
G75*
G03X97514Y67314I-6986J562*
G01*
G75*
G03X97520Y67826I-20506J508*
G01*
G75*
G03X97514Y68542I-39133J13*
G01*
G75*
G03X97486Y68901I-3024J-55*
G01*
G75*
G03X97425Y69132I-987J-137*
G01*
G75*
G03X97313Y69326I-724J-287*
G01*
G75*
G03X97177Y69468I-783J-616*
G01*
G75*
G03X97041Y69545I-265J-309*
G01*
G75*
G03X96854Y69581I-228J-686*
G01*
G75*
G03X96520Y69590I-328J-5939*
G01*
G75*
G03X96187Y69581I-5J-5941*
G01*
G75*
G03X96000Y69545I41J-722*
G01*
G75*
G03X95864Y69468I129J-386*
G01*
G75*
G03X95728Y69326I647J-758*
G01*
G75*
G03X95616Y69132I613J-481*
G01*
G75*
G03X95555Y68901I926J-368*
G01*
G75*
G03X95527Y68542I2996J-414*
G01*
G75*
G03X95520Y67826I39127J-724*
G01*
G75*
G03X95527Y67314I20512J11*
G01*
G75*
G03X95548Y66924I7007J172*
G01*
G75*
G03X95577Y66629I8222J662*
G01*
X95585Y100807D02*
G75*
G03X95752Y100847I-81J715D01*
G01*
G75*
G03X95837Y100922I-54J147*
G01*
G75*
G03X95883Y101071I-383J199*
G01*
G75*
G03X95920Y101455I-11270J1293*
G01*
G75*
G02X96002Y101973I3545J-289*
G01*
G75*
G02X96157Y102276I683J-159*
G01*
G75*
G02X96418Y102437I393J-344*
G01*
G75*
G02X96829Y102490I409J-1573*
G01*
G75*
G02X97089Y102479I2J-3025*
G01*
G75*
G02X97255Y102440I-53J-607*
G01*
G75*
G02X97384Y102363I-154J-403*
G01*
G75*
G02X97513Y102226I-666J-761*
G01*
G75*
G02X97626Y102029I-602J-474*
G01*
G75*
G02X97687Y101791I-965J-372*
G01*
G75*
G02X97714Y101415I-3283J-430*
G01*
G75*
G02X97720Y100645I-46886J-769*
G01*
G75*
G02X97694Y99544I-22430J-5*
G01*
G75*
G02X97556Y99133I-804J39*
G01*
G75*
G02X97248Y98940I-371J252*
G01*
G75*
G02X96532Y98890I-716J5060*
G01*
G75*
G02X95887Y98929J5317*
G01*
G75*
G02X95572Y99079I67J546*
G01*
G75*
G02X95408Y99389I389J404*
G01*
G75*
G02X95337Y100041I5503J935*
G01*
X95300Y100775*
X95585Y100807*
X95596Y56308D02*
G75*
G03X95756Y56351I-67J574D01*
G01*
G75*
G03X95841Y56433I-64J151*
G01*
G75*
G03X95887Y56598I-489J226*
G01*
G75*
G03X95930Y57031I-15465J1763*
G01*
G75*
G02X96016Y57565I3668J-316*
G01*
G75*
G02X96178Y57875I686J-162*
G01*
G75*
G02X96449Y58037I400J-361*
G01*
G75*
G02X96883Y58090I433J-1761*
G01*
G75*
G02X97135Y58078I1J-2685*
G01*
G75*
G02X97283Y58035I-38J-407*
G01*
G75*
G02X97396Y57944I-159J-311*
G01*
G75*
G02X97522Y57765I-1285J-1039*
G01*
G75*
G02X97626Y57535I-901J-549*
G01*
G75*
G02X97685Y57266I-1409J-448*
G01*
G75*
G02X97713Y56866I-3919J-475*
G01*
G75*
G02X97720Y56132I-38465J-759*
G01*
G75*
G02X97715Y55322I-58617J-6*
G01*
G75*
G02X97687Y54983I-2488J35*
G01*
G75*
G02X97620Y54779I-637J96*
G01*
G75*
G02X97489Y54607I-578J306*
G01*
G75*
G02X97336Y54495I-528J561*
G01*
G75*
G02X97166Y54430I-313J563*
G01*
G75*
G02X96930Y54398I-295J1294*
G01*
G75*
G02X96535Y54390I-395J9015*
G01*
G75*
G02X96122Y54398I2J9936*
G01*
G75*
G02X95893Y54432I47J1120*
G01*
G75*
G02X95729Y54504I136J534*
G01*
G75*
G02X95566Y54635I543J838*
G01*
G75*
G02X95435Y54796I710J710*
G01*
G75*
G02X95363Y54959I463J302*
G01*
G75*
G02X95330Y55183I1046J273*
G01*
G75*
G02X95320Y55579I8861J401*
G01*
G75*
G02X95326Y56032I19263J-8*
G01*
G75*
G02X95357Y56189I478J-11*
G01*
G75*
G02X95433Y56267I126J-48*
G01*
G75*
G02X95596Y56308I235J-592*
G01*
X95605Y79189D02*
G75*
G02X95789Y79352I1324J-1321D01*
G01*
G75*
G02X95949Y79438I351J-459*
G01*
G75*
G02X96144Y79478I249J-709*
G01*
G75*
G02X96458Y79490I313J-4296*
G01*
G75*
G02X96901Y79464I2J-3754*
G01*
G75*
G02X97226Y79380I-149J-1256*
G01*
G75*
G02X97456Y79235I-288J-711*
G01*
G75*
G02X97609Y79024I-440J-481*
G01*
G75*
G02X97653Y78872I-481J-220*
G01*
G75*
G02X97688Y78544I-7883J-1007*
G01*
G75*
G02X97713Y78150I-8379J-717*
G01*
G75*
G02X97720Y77730I-10846J-413*
G01*
G75*
G02X97679Y76734I-11953J-3*
G01*
G75*
G02X97505Y76279I-874J73*
G01*
G75*
G02X97141Y76056I-465J351*
G01*
G75*
G02X96407Y75991I-744J4233*
G01*
G75*
G02X96131Y76001I-9J3627*
G01*
G75*
G02X95918Y76034I99J1351*
G01*
G75*
G02X95749Y76093I207J870*
G01*
G75*
G02X95607Y76181I285J617*
G01*
G75*
G02X95473Y76336I361J446*
G01*
G75*
G02X95401Y76530I514J303*
G01*
G75*
G02X95364Y76857I2281J423*
G01*
G75*
G02X95337Y77630I51897J2158*
G01*
X95304Y78889*
X95605Y79189*
X95612Y110762D02*
G75*
G03X95753Y110491I1256J479D01*
G01*
G75*
G03X95931Y110317I506J339*
G01*
G75*
G03X96171Y110222I361J564*
G01*
G75*
G03X96503Y110193I319J1755*
G01*
G75*
G03X97014Y110282I-11J1581*
G01*
G75*
G03X97321Y110532I-192J548*
G01*
G75*
G03X97479Y111014I-990J591*
G01*
G75*
G03X97520Y111899I-9289J881*
G01*
G75*
G02X97526Y112472I30328J-5*
G01*
G75*
G02X97556Y112687I925J-18*
G01*
G75*
G02X97630Y112805I224J-58*
G01*
G75*
G02X97779Y112893I331J-391*
G01*
G75*
G03X97874Y112940I-209J549*
G01*
G75*
G03X97949Y112999I-193J320*
G01*
G75*
G03X97992Y113061I-166J161*
G01*
G75*
G03X97995Y113116I-67J31*
G01*
G75*
G03X97931Y113174I-85J-29*
G01*
G75*
G03X97737Y113211I-394J-1576*
G01*
G75*
G03X97440Y113233I-391J-3134*
G01*
G75*
G03X96994Y113240I-436J-15096*
G01*
G75*
G03X96424Y113233I-1J-22907*
G01*
G75*
G03X96146Y113202I39J-1629*
G01*
G75*
G03X95959Y113131I121J-606*
G01*
G75*
G03X95778Y112998I484J-840*
G01*
G75*
G03X95634Y112828I698J-740*
G01*
G75*
G03X95560Y112659I415J-283*
G01*
G75*
G03X95528Y112407I1241J-285*
G01*
G75*
G03X95520Y111879I19326J-538*
G01*
G75*
G03X95528Y111526I9284J10*
G01*
G75*
G03X95548Y111189I7699J290*
G01*
G75*
G03X95577Y110906I7023J579*
G01*
G75*
G03X95612Y110762I613J74*
G01*
X95615Y96290D02*
G75*
G03X95654Y96316J42D01*
G01*
G75*
G03X95691Y96429I-928J367*
G01*
G75*
G03X95722Y96582I-1271J335*
G01*
G75*
G03X95740Y96764I-2425J339*
G01*
G75*
G02X95764Y97008I3621J-234*
G01*
G75*
G02X95804Y97150I520J-68*
G01*
G75*
G02X95868Y97231I193J-85*
G01*
G75*
G02X95964Y97275I138J-179*
G01*
G75*
G02X96170Y97235I53J-278*
G01*
G75*
G02X96315Y97061I-202J-315*
G01*
G75*
G02X96397Y96715I-1089J-443*
G01*
G75*
G02X96420Y96152I-6787J-562*
G01*
G75*
G03X96429Y95707I12293J6*
G01*
G75*
G03X96460Y95455I1484J54*
G01*
G75*
G03X96524Y95279I637J135*
G01*
G75*
G03X96638Y95121I666J360*
G01*
G75*
G03X96831Y94950I1017J956*
G01*
G75*
G03X96985Y94904I143J195*
G01*
G75*
G03X97135Y94965I-12J243*
G01*
G75*
G03X97313Y95154I-944J1072*
G01*
G75*
G03X97423Y95339I-639J502*
G01*
G75*
G03X97484Y95552I-844J359*
G01*
G75*
G03X97513Y95870I-2365J377*
G01*
G75*
G03X97520Y96454I-23454J577*
G01*
G75*
G03X97514Y96878I-13751J8*
G01*
G75*
G03X97493Y97206I-5035J-155*
G01*
G75*
G03X97463Y97453I-5243J-510*
G01*
G75*
G03X97378Y97453I-43J-6*
G01*
G75*
G03X97348Y97208I5118J-758*
G01*
G75*
G03X97326Y96883I4919J-485*
G01*
G75*
G03X97319Y96465I13339J-435*
G01*
G75*
G02X97312Y96063I-13146J30*
G01*
G75*
G02X97293Y95702I-8556J267*
G01*
G75*
G02X97267Y95403I-10048J750*
G01*
G75*
G02X97233Y95306I-222J24*
G01*
G75*
G02X97183Y95257I-128J80*
G01*
G75*
G02X97103Y95222I-188J313*
G01*
G75*
G02X97007Y95203I-131J424*
G01*
G75*
G02X96909Y95206I-35J443*
G01*
G75*
G02X96774Y95260I43J308*
G01*
G75*
G02X96698Y95365I115J163*
G01*
G75*
G02X96657Y95580I934J287*
G01*
G75*
G02X96620Y96145I30134J2234*
G01*
G75*
G03X96588Y96572I-9952J-546*
G01*
G75*
G03X96540Y96899I-3534J-349*
G01*
G75*
G03X96477Y97146I-2074J-401*
G01*
G75*
G03X96393Y97320I-685J-220*
G01*
G75*
G03X96240Y97512I-1105J-726*
G01*
G75*
G03X96106Y97576I-152J-146*
G01*
G75*
G03X95957Y97536I-19J-231*
G01*
G75*
G03X95752Y97372I926J-1370*
G01*
G75*
G03X95643Y97245I552J-585*
G01*
G75*
G03X95572Y97108I479J-334*
G01*
G75*
G03X95533Y96941I707J-251*
G01*
G75*
G03X95520Y96722I1928J-221*
G01*
G75*
G03X95528Y96557I2015J3*
G01*
G75*
G03X95548Y96417I1061J87*
G01*
G75*
G03X95578Y96315I719J156*
G01*
G75*
G03X95615Y96290I37J14*
G01*
X95620Y63790D02*
G75*
G03X95659Y63811I0J46D01*
G01*
G75*
G03X95691Y63876I-234J157*
G01*
G75*
G03X95713Y63970I-460J157*
G01*
G75*
G03X95720Y64082I-855J110*
G01*
G75*
G02X95750Y64438I2202J-1*
G01*
G75*
G02X95855Y64600I240J-40*
G01*
G75*
G02X96076Y64674I246J-369*
G01*
G75*
G02X96631Y64690I554J-9989*
G01*
G75*
G03X97044Y64696I-1J14492*
G01*
G75*
G03X97264Y64720I-41J1388*
G01*
G75*
G03X97380Y64765I-62J325*
G01*
G75*
G03X97420Y64840I-47J74*
G01*
G75*
G03X97383Y64914I-91J0*
G01*
G75*
G03X97278Y64959I-162J-228*
G01*
G75*
G03X97080Y64984I-237J-1111*
G01*
G75*
G03X96716Y64990I-358J-10857*
G01*
G75*
G03X96316Y64981I-2J-9148*
G01*
G75*
G03X96091Y64948I47J-1090*
G01*
G75*
G03X95928Y64876I138J-534*
G01*
G75*
G03X95766Y64744I548J-840*
G01*
G75*
G03X95611Y64508I493J-493*
G01*
G75*
G03X95520Y64174I1430J-567*
G01*
G75*
G03X95515Y63884I1080J-164*
G01*
G75*
G03X95620Y63790I106J12*
G01*
Y87590D02*
G75*
G03X95659Y87611I0J46D01*
G01*
G75*
G03X95691Y87676I-234J157*
G01*
G75*
G03X95713Y87770I-460J157*
G01*
G75*
G03X95720Y87882I-855J110*
G01*
G75*
G02X95750Y88238I2202J-1*
G01*
G75*
G02X95855Y88400I240J-40*
G01*
G75*
G02X96076Y88474I246J-369*
G01*
G75*
G02X96631Y88490I554J-9989*
G01*
G75*
G03X97044Y88496I-1J14492*
G01*
G75*
G03X97264Y88520I-41J1388*
G01*
G75*
G03X97380Y88565I-62J325*
G01*
G75*
G03X97420Y88640I-47J74*
G01*
G75*
G03X97383Y88714I-91J0*
G01*
G75*
G03X97278Y88759I-162J-228*
G01*
G75*
G03X97080Y88784I-237J-1111*
G01*
G75*
G03X96716Y88790I-358J-10857*
G01*
G75*
G03X96316Y88781I-2J-9148*
G01*
G75*
G03X96091Y88748I47J-1090*
G01*
G75*
G03X95928Y88676I138J-534*
G01*
G75*
G03X95766Y88544I548J-840*
G01*
G75*
G03X95611Y88308I493J-493*
G01*
G75*
G03X95520Y87974I1430J-567*
G01*
G75*
G03X95515Y87684I1080J-164*
G01*
G75*
G03X95620Y87590I106J12*
G01*
X95761Y40800D02*
G75*
G03X95894Y40691I428J389D01*
G01*
G75*
G03X96052Y40629I278J468*
G01*
G75*
G03X96283Y40598I282J1239*
G01*
G75*
G03X96686Y40590I409J10135*
G01*
G75*
G03X97067Y40596I-9J12080*
G01*
G75*
G03X97273Y40620I-38J1221*
G01*
G75*
G03X97381Y40666I-60J291*
G01*
G75*
G03X97380Y40815I-50J74*
G01*
G75*
G03X97264Y40860I-177J-279*
G01*
G75*
G03X97044Y40884I-260J-1364*
G01*
G75*
G03X96631Y40890I-400J-14487*
G01*
G75*
G02X96222Y40896I3J12678*
G01*
G75*
G02X95989Y40922I52J1549*
G01*
G75*
G02X95852Y40969I89J482*
G01*
G75*
G02X95781Y41048I69J132*
G01*
G75*
G02X95731Y41307I717J275*
G01*
G75*
G02X95722Y42090I36471J795*
G01*
G75*
G02X95731Y42873I36498J-12*
G01*
G75*
G02X95781Y43132I768J-17*
G01*
G75*
G02X95852Y43211I139J-53*
G01*
G75*
G02X95989Y43258I226J-435*
G01*
G75*
G02X96222Y43283I285J-1523*
G01*
G75*
G02X96631Y43290I400J-12671*
G01*
G75*
G03X97044Y43296I-1J14492*
G01*
G75*
G03X97264Y43320I-41J1388*
G01*
G75*
G03X97380Y43365I-62J325*
G01*
G75*
G03X97420Y43440I-47J74*
G01*
G75*
G03X97383Y43514I-91J0*
G01*
G75*
G03X97278Y43559I-162J-228*
G01*
G75*
G03X97080Y43584I-237J-1111*
G01*
G75*
G03X96716Y43590I-358J-10857*
G01*
G75*
G03X96312Y43581I-3J-9272*
G01*
G75*
G03X96088Y43547I46J-1053*
G01*
G75*
G03X95924Y43473I139J-526*
G01*
G75*
G03X95757Y43335I622J-926*
G01*
G75*
G03X95611Y43153I736J-737*
G01*
G75*
G03X95543Y42973I420J-263*
G01*
G75*
G03X95521Y42698I1481J-255*
G01*
G75*
G03X95537Y42046I34862J493*
G01*
G75*
G03X95562Y41493I20562J676*
G01*
G75*
G03X95601Y41170I2742J163*
G01*
G75*
G03X95663Y40957I1054J191*
G01*
G75*
G03X95761Y40800I493J200*
G01*
X95784Y104092D02*
G75*
G03X95922Y103946I1312J1103D01*
G01*
G75*
G03X96047Y103856I406J432*
G01*
G75*
G03X96172Y103813I194J360*
G01*
G75*
G03X96309Y103809I82J475*
G01*
X96570Y103840*
X96620Y105139*
G75*
G02X96656Y105913I59069J-2286*
G01*
G75*
G02X96693Y106238I2541J-131*
G01*
G75*
G02X96756Y106401I459J-83*
G01*
G75*
G02X96864Y106475I139J-86*
G01*
G75*
G02X97043Y106448I51J-270*
G01*
G75*
G02X97191Y106313I-183J-350*
G01*
G75*
G02X97289Y106078I-584J-379*
G01*
G75*
G02X97320Y105771I-1456J-306*
G01*
G75*
G03X97328Y105625I1475J2*
G01*
G75*
G03X97350Y105502I789J78*
G01*
G75*
G03X97382Y105415I481J126*
G01*
G75*
G03X97459Y105415I39J18*
G01*
G75*
G03X97491Y105510I-543J235*
G01*
G75*
G03X97513Y105643I-889J216*
G01*
G75*
G03X97520Y105800I-1702J156*
G01*
G75*
G03X97439Y106187I-964J0*
G01*
G75*
G03X97206Y106546I-1198J-526*
G01*
G75*
G03X96876Y106801I-910J-835*
G01*
G75*
G03X96520Y106890I-355J-668*
G01*
G75*
G03X96353Y106870I0J-717*
G01*
G75*
G03X96196Y106812I163J-680*
G01*
G75*
G03X96037Y106708I431J-836*
G01*
G75*
G03X95861Y106550I1387J-1723*
G01*
G75*
G03X95656Y106319I1815J-1815*
G01*
G75*
G03X95565Y106137I404J-316*
G01*
G75*
G03X95528Y105891I999J-274*
G01*
G75*
G03X95520Y105307I22799J-584*
G01*
G75*
G03X95528Y104769I18514J1*
G01*
G75*
G03X95562Y104497I1489J45*
G01*
G75*
G03X95637Y104301I661J143*
G01*
G75*
G03X95784Y104092I1266J733*
G01*
X95787Y78765D02*
G75*
G02X95954Y78886I180J-72D01*
G01*
G75*
G02X96524Y78899I432J-6259*
G01*
G75*
G02X97094Y78860I-141J-6246*
G01*
G75*
G02X97260Y78732I-23J-200*
G01*
G75*
G02X97319Y78429I-834J-320*
G01*
G75*
G02X97318Y77737I-16979J-326*
G01*
G75*
G02X97290Y77041I-19056J428*
G01*
G75*
G02X97217Y76783I-622J36*
G01*
G75*
G02X97133Y76685I-267J143*
G01*
G75*
G02X97013Y76627I-207J274*
G01*
G75*
G02X96820Y76598I-233J891*
G01*
G75*
G02X96478Y76590I-349J7743*
G01*
G75*
G02X96159Y76597I5J7014*
G01*
G75*
G02X95964Y76624I50J1106*
G01*
G75*
G02X95845Y76672I88J389*
G01*
G75*
G02X95781Y76748I80J131*
G01*
G75*
G02X95735Y76987I652J251*
G01*
G75*
G02X95730Y77759I40691J656*
G01*
G75*
G02X95739Y78532I41680J-102*
G01*
G75*
G02X95787Y78765I659J-15*
G01*
X95806Y112770D02*
G75*
G02X95881Y112828I118J-75D01*
G01*
G75*
G02X96033Y112862I260J-805*
G01*
G75*
G02X96257Y112877I230J-1757*
G01*
G75*
G02X96580Y112870I12J-7191*
G01*
X97270Y112840*
X97299Y111865*
G75*
G02X97302Y111038I-16259J-476*
G01*
G75*
G02X97211Y110700I-730J16*
G01*
G75*
G02X96993Y110538I-286J159*
G01*
G75*
G02X96537Y110490I-457J2135*
G01*
G75*
G02X96307Y110499I4J2999*
G01*
G75*
G02X96095Y110525I174J2274*
G01*
G75*
G02X95921Y110563I330J1913*
G01*
G75*
G02X95841Y110610I46J174*
G01*
G75*
G02X95748Y110819I224J224*
G01*
G75*
G02X95722Y111663I28021J1298*
G01*
G75*
G02X95724Y112496I23146J373*
G01*
G75*
G02X95806Y112770I531J-11*
G01*
X95809Y106374D02*
G75*
G02X95858Y106422I128J-80D01*
G01*
G75*
G02X95939Y106458I188J-313*
G01*
G75*
G02X96034Y106477I131J-424*
G01*
G75*
G02X96132Y106474I35J-443*
G01*
G75*
G02X96269Y106413I-39J-274*
G01*
G75*
G02X96340Y106296I-130J-158*
G01*
G75*
G02X96366Y106044I-1324J-266*
G01*
G75*
G02X96370Y105291I-65246J-752*
G01*
G75*
G02X96366Y104600I-48394J-15*
G01*
G75*
G02X96341Y104315I-1938J29*
G01*
G75*
G02X96283Y104174I-337J55*
G01*
G75*
G02X96177Y104106I-137J97*
G01*
G75*
G02X95967Y104148I-54J278*
G01*
G75*
G02X95822Y104330I208J312*
G01*
G75*
G02X95743Y104701I1241J460*
G01*
G75*
G02X95722Y105334I9211J620*
G01*
G75*
G02X95729Y105691I10324J-27*
G01*
G75*
G02X95748Y106013I6924J-245*
G01*
G75*
G02X95775Y106280I7573J-637*
G01*
G75*
G02X95809Y106374I224J-27*
G01*
X95820Y59575D02*
G75*
G03X95963Y59449I1113J1115D01*
G01*
G75*
G03X96100Y59361I521J665*
G01*
G75*
G03X96229Y59313I267J524*
G01*
G75*
G03X96345Y59308I72J300*
G01*
G75*
G03X96474Y59375I-31J217*
G01*
G75*
G03X96546Y59515I-211J198*
G01*
G75*
G03X96584Y59810I-1889J392*
G01*
G75*
G03X96620Y60639I-74994J3693*
G01*
G75*
G02X96656Y61413I59069J-2286*
G01*
G75*
G02X96693Y61738I2541J-131*
G01*
G75*
G02X96756Y61901I459J-83*
G01*
G75*
G02X96864Y61975I139J-86*
G01*
G75*
G02X97043Y61948I51J-270*
G01*
G75*
G02X97191Y61813I-183J-350*
G01*
G75*
G02X97289Y61578I-584J-379*
G01*
G75*
G02X97320Y61271I-1456J-306*
G01*
G75*
G03X97329Y61122I1402J3*
G01*
G75*
G03X97353Y61000I684J73*
G01*
G75*
G03X97389Y60915I374J109*
G01*
G75*
G03X97433Y60890I44J26*
G01*
G75*
G03X97539Y60998I0J106*
G01*
G75*
G03X97500Y61414I-2740J-49*
G01*
G75*
G03X97386Y61863I-2902J-498*
G01*
G75*
G03X97218Y62143I-731J-248*
G01*
G75*
G03X96915Y62344I-580J-545*
G01*
G75*
G03X96533Y62407I-349J-942*
G01*
G75*
G03X96142Y62320I35J-1084*
G01*
G75*
G03X95813Y62098I411J-962*
G01*
G75*
G03X95643Y61895I1094J-1094*
G01*
G75*
G03X95561Y61713I426J-301*
G01*
G75*
G03X95528Y61450I1259J-292*
G01*
G75*
G03X95520Y60840I26935J-618*
G01*
G75*
G03X95528Y60227I27207J8*
G01*
G75*
G03X95561Y59965I1261J28*
G01*
G75*
G03X95644Y59782I503J119*
G01*
G75*
G03X95820Y59575I1355J973*
G01*
Y83375D02*
G75*
G03X95963Y83249I1113J1115D01*
G01*
G75*
G03X96100Y83161I521J665*
G01*
G75*
G03X96229Y83113I267J524*
G01*
G75*
G03X96345Y83108I72J300*
G01*
G75*
G03X96474Y83175I-31J217*
G01*
G75*
G03X96546Y83315I-211J198*
G01*
G75*
G03X96584Y83610I-1889J392*
G01*
G75*
G03X96620Y84439I-74994J3693*
G01*
G75*
G02X96656Y85213I59069J-2286*
G01*
G75*
G02X96693Y85538I2541J-131*
G01*
G75*
G02X96756Y85701I459J-83*
G01*
G75*
G02X96864Y85775I139J-86*
G01*
G75*
G02X97043Y85748I51J-270*
G01*
G75*
G02X97191Y85613I-183J-350*
G01*
G75*
G02X97289Y85378I-584J-379*
G01*
G75*
G02X97320Y85071I-1456J-306*
G01*
G75*
G03X97329Y84922I1402J3*
G01*
G75*
G03X97353Y84800I684J73*
G01*
G75*
G03X97389Y84715I374J109*
G01*
G75*
G03X97480Y84721I44J25*
G01*
G75*
G03X97506Y84819I-346J143*
G01*
G75*
G03X97512Y84978I-983J121*
G01*
G75*
G03X97496Y85209I-4204J-178*
G01*
G75*
G03X97399Y85641I-1756J-167*
G01*
G75*
G03X97204Y85947I-779J-282*
G01*
G75*
G03X96906Y86128I-526J-531*
G01*
G75*
G03X96507Y86190I-398J-1241*
G01*
G75*
G03X96296Y86175I0J-1499*
G01*
G75*
G03X96128Y86129I95J-672*
G01*
G75*
G03X95977Y86041I269J-640*
G01*
G75*
G03X95813Y85898I986J-1292*
G01*
G75*
G03X95643Y85695I1094J-1094*
G01*
G75*
G03X95561Y85513I426J-301*
G01*
G75*
G03X95528Y85250I1259J-292*
G01*
G75*
G03X95520Y84640I26935J-618*
G01*
G75*
G03X95528Y84027I27207J8*
G01*
G75*
G03X95561Y83765I1261J28*
G01*
G75*
G03X95644Y83582I503J119*
G01*
G75*
G03X95820Y83375I1355J973*
G01*
X95826Y99334D02*
G75*
G03X96130Y99140I536J504D01*
G01*
G75*
G03X96543Y99073I412J1233*
G01*
G75*
G03X96959Y99141I-2J1327*
G01*
G75*
G03X97275Y99335I-254J765*
G01*
G75*
G03X97413Y99513I-636J636*
G01*
G75*
G03X97484Y99701I-500J296*
G01*
G75*
G03X97514Y99990I-1711J326*
G01*
G75*
G03X97520Y100628I-31210J627*
G01*
G75*
G03X97514Y101266I-29203J13*
G01*
G75*
G03X97482Y101565I-1799J-39*
G01*
G75*
G03X97408Y101770I-680J-131*
G01*
G75*
G03X97262Y101982I-1165J-644*
G01*
G75*
G03X97149Y102100I-987J-831*
G01*
G75*
G03X97026Y102200I-793J-858*
G01*
G75*
G03X96908Y102269I-539J-774*
G01*
G75*
G03X96820Y102290I-87J-176*
G01*
G75*
G03X96733Y102269I0J-195*
G01*
G75*
G03X96616Y102200I422J-844*
G01*
G75*
G03X96492Y102100I670J-958*
G01*
G75*
G03X96380Y101982I874J-949*
G01*
G75*
G03X96233Y101768I1005J-847*
G01*
G75*
G03X96159Y101560I611J-335*
G01*
G75*
G03X96128Y101255I1850J-343*
G01*
G75*
G03X96120Y100588I32739J-681*
G01*
G75*
G02X96114Y100122I-15731J-7*
G01*
G75*
G02X96091Y99769I-5341J161*
G01*
G75*
G02X96059Y99507I-4522J433*
G01*
G75*
G02X96009Y99433I-106J16*
G01*
G75*
G02X95900Y99429I-58J94*
G01*
G75*
G02X95806Y99524I100J192*
G01*
G75*
G02X95743Y99727I596J298*
G01*
G75*
G02X95722Y100009I2022J291*
G01*
G75*
G03X95713Y100156I-1281J-6*
G01*
G75*
G03X95687Y100291I-980J-116*
G01*
G75*
G03X95650Y100398I-733J-193*
G01*
G75*
G03X95606Y100449I-104J-45*
G01*
G75*
G03X95508Y100395I-34J-55*
G01*
G75*
G03X95541Y100041I1724J-19*
G01*
G75*
G03X95661Y99604I3004J593*
G01*
G75*
G03X95826Y99334I732J262*
G01*
X95829Y47615D02*
G75*
G02X95910Y47700I217J-126D01*
G01*
G75*
G02X96033Y47753I225J-353*
G01*
G75*
G02X96222Y47782I243J-957*
G01*
G75*
G02X96522Y47790I296J-5577*
G01*
G75*
G02X96979Y47749I0J-2587*
G01*
G75*
G02X97197Y47607I-59J-329*
G01*
G75*
G02X97298Y47309I-498J-335*
G01*
G75*
G02X97320Y46605I-11195J-703*
G01*
G75*
G02X97306Y45870I-18315J-5*
G01*
G75*
G02X97222Y45627I-447J18*
G01*
G75*
G02X97030Y45515I-220J157*
G01*
G75*
G02X96520Y45490I-510J5064*
G01*
G75*
G02X96177Y45497I1J8400*
G01*
G75*
G02X95971Y45523I50J1220*
G01*
G75*
G02X95847Y45571I90J414*
G01*
G75*
G02X95781Y45648I76J131*
G01*
G75*
G02X95723Y45950I821J315*
G01*
G75*
G02X95726Y46658I18252J273*
G01*
G75*
G02X95756Y47372I21459J-518*
G01*
G75*
G02X95829Y47615I544J-31*
G01*
X95851Y45331D02*
G75*
G03X96000Y45224I710J826D01*
G01*
G75*
G03X96158Y45148I463J769*
G01*
G75*
G03X96330Y45105I313J869*
G01*
G75*
G03X96520Y45090I193J1230*
G01*
G75*
G03X96711Y45105I-2J1247*
G01*
G75*
G03X96883Y45148I-141J913*
G01*
G75*
G03X97041Y45224I-304J844*
G01*
G75*
G03X97190Y45331I-561J934*
G01*
G75*
G03X97351Y45502I-715J831*
G01*
G75*
G03X97435Y45675I-399J301*
G01*
G75*
G03X97477Y45935I-1278J341*
G01*
G75*
G03X97505Y46513I-23639J1433*
G01*
G75*
G03X97519Y47098I-24263J880*
G01*
G75*
G03X97496Y47365I-1371J15*
G01*
G75*
G03X97424Y47556I-572J-106*
G01*
G75*
G03X97271Y47772I-1389J-822*
G01*
G75*
G03X97106Y47944I-1446J-1218*
G01*
G75*
G03X96966Y48035I-332J-359*
G01*
G75*
G03X96794Y48078I-223J-526*
G01*
G75*
G03X96520Y48090I-272J-3022*
G01*
G75*
G03X96247Y48078I-2J-3030*
G01*
G75*
G03X96076Y48035I51J-569*
G01*
G75*
G03X95935Y47944I192J-450*
G01*
G75*
G03X95770Y47772I1281J-1390*
G01*
G75*
G03X95617Y47556I1236J-1038*
G01*
G75*
G03X95546Y47365I501J-297*
G01*
G75*
G03X95522Y47098I1348J-252*
G01*
G75*
G03X95537Y46513I24277J295*
G01*
G75*
G03X95565Y45935I23667J856*
G01*
G75*
G03X95607Y45675I1320J80*
G01*
G75*
G03X95691Y45502I483J128*
G01*
G75*
G03X95851Y45331I876J660*
G01*
Y76431D02*
G75*
G03X96238Y76227I640J745D01*
G01*
G75*
G03X96683Y76205I274J1022*
G01*
G75*
G03X97089Y76368I-164J998*
G01*
G75*
G03X97366Y76681I-481J705*
G01*
G75*
G03X97479Y77056I-948J491*
G01*
G75*
G03X97519Y77704I-7123J767*
G01*
G75*
G03X97501Y78354I-7117J123*
G01*
G75*
G03X97401Y78743I-1139J-85*
G01*
G75*
G03X97183Y79032I-760J-346*
G01*
G75*
G03X96853Y79219I-648J-760*
G01*
G75*
G03X96468Y79273I-336J-1000*
G01*
G75*
G03X96094Y79182I48J-1015*
G01*
G75*
G03X95809Y78981I387J-852*
G01*
G75*
G03X95635Y78698I557J-538*
G01*
G75*
G03X95551Y78274I1448J-507*
G01*
G75*
G03X95543Y77606I8074J-429*
G01*
G75*
G03X95567Y77030I23668J698*
G01*
G75*
G03X95607Y76773I1286J69*
G01*
G75*
G03X95691Y76602I470J124*
G01*
G75*
G03X95851Y76431I885J669*
G01*
X95866Y61986D02*
G75*
G02X95935Y62030I204J-246D01*
G01*
G75*
G02X96021Y62061I220J-469*
G01*
G75*
G02X96111Y62076I131J-494*
G01*
G75*
G02X96191Y62072I22J-296*
G01*
G75*
G02X96288Y62002I-27J-140*
G01*
G75*
G02X96341Y61846I-389J-221*
G01*
G75*
G02X96366Y61541I-2326J-340*
G01*
G75*
G02X96370Y60840I-48517J-678*
G01*
G75*
G02X96366Y60116I-53707J-11*
G01*
G75*
G02X96341Y59822I-2084J27*
G01*
G75*
G02X96283Y59675I-356J56*
G01*
G75*
G02X96177Y59606I-137J93*
G01*
G75*
G02X95965Y59650I-53J278*
G01*
G75*
G02X95820Y59837I214J315*
G01*
G75*
G02X95742Y60223I1340J473*
G01*
G75*
G02X95720Y60897I10870J680*
G01*
G75*
G02X95728Y61373I16181J-2*
G01*
G75*
G02X95752Y61680I2981J-87*
G01*
G75*
G02X95796Y61880I1283J-173*
G01*
G75*
G02X95866Y61986I211J-63*
G01*
Y85786D02*
G75*
G02X95935Y85830I204J-246D01*
G01*
G75*
G02X96021Y85861I220J-469*
G01*
G75*
G02X96111Y85876I131J-494*
G01*
G75*
G02X96191Y85872I22J-296*
G01*
G75*
G02X96288Y85802I-27J-140*
G01*
G75*
G02X96341Y85646I-389J-221*
G01*
G75*
G02X96366Y85341I-2326J-340*
G01*
G75*
G02X96370Y84640I-48517J-678*
G01*
G75*
G02X96366Y83916I-53707J-11*
G01*
G75*
G02X96341Y83622I-2084J27*
G01*
G75*
G02X96283Y83475I-356J56*
G01*
G75*
G02X96177Y83406I-137J93*
G01*
G75*
G02X95965Y83450I-53J278*
G01*
G75*
G02X95820Y83637I214J315*
G01*
G75*
G02X95742Y84023I1340J473*
G01*
G75*
G02X95720Y84697I10870J680*
G01*
G75*
G02X95728Y85173I16181J-2*
G01*
G75*
G02X95752Y85480I2981J-87*
G01*
G75*
G02X95796Y85680I1283J-173*
G01*
G75*
G02X95866Y85786I211J-63*
G01*
X95867Y54818D02*
G75*
G03X96190Y54632I648J754D01*
G01*
G75*
G03X96557Y54581I316J914*
G01*
G75*
G03X96922Y54671I-52J994*
G01*
G75*
G03X97237Y54891I-459J994*
G01*
X97538Y55192*
X97504Y56281*
G75*
G03X97454Y57063I-11751J-364*
G01*
G75*
G03X97340Y57489I-1344J-131*
G01*
G75*
G03X97137Y57709I-432J-196*
G01*
G75*
G03X96499Y57706I-316J-574*
G01*
G75*
G03X96296Y57479I230J-410*
G01*
G75*
G03X96186Y57031I1354J-572*
G01*
G75*
G03X96137Y56174I14973J-1283*
G01*
G75*
G02X96113Y55488I-47959J1335*
G01*
G75*
G02X96081Y55188I-2360J99*
G01*
G75*
G02X96026Y55048I-367J63*
G01*
G75*
G02X95937Y55010I-73J47*
G01*
G75*
G02X95858Y55053I27J146*
G01*
G75*
G02X95801Y55141I192J185*
G01*
G75*
G02X95763Y55288I604J235*
G01*
G75*
G02X95740Y55516I3115J428*
G01*
G75*
G03X95721Y55698I-2147J-136*
G01*
G75*
G03X95687Y55851I-1158J-176*
G01*
G75*
G03X95646Y55962I-787J-230*
G01*
G75*
G03X95602Y55990I-43J-20*
G01*
G75*
G03X95559Y55961J-46*
G01*
G75*
G03X95536Y55868I348J-136*
G01*
G75*
G03X95531Y55721I894J-102*
G01*
G75*
G03X95548Y55518I3199J153*
G01*
G75*
G03X95587Y55284I2148J244*
G01*
G75*
G03X95649Y55102I917J207*
G01*
G75*
G03X95739Y54952I682J311*
G01*
G75*
G03X95867Y54818I733J569*
G01*
X95981Y60148D02*
G75*
G03X96074Y60030I234J89D01*
G01*
G75*
G03X96155Y60057I30J44*
G01*
G75*
G03X96207Y60328I-927J320*
G01*
G75*
G03X96220Y60840I-9994J510*
G01*
G75*
G03X96207Y61337I-9096J4*
G01*
G75*
G03X96155Y61617I-1108J-61*
G01*
G75*
G03X96076Y61654I-57J-18*
G01*
G75*
G03X95987Y61565I59J-149*
G01*
G75*
G03X95941Y61354I589J-238*
G01*
G75*
G03X95930Y60859I13046J-548*
G01*
G75*
G03X95937Y60364I12867J-53*
G01*
G75*
G03X95981Y60148I666J24*
G01*
Y83948D02*
G75*
G03X96074Y83830I234J89D01*
G01*
G75*
G03X96155Y83857I30J44*
G01*
G75*
G03X96207Y84128I-927J320*
G01*
G75*
G03X96220Y84640I-9994J510*
G01*
G75*
G03X96211Y85147I-13865J6*
G01*
G75*
G03X96171Y85391I-981J-36*
G01*
G75*
G03X96094Y85458I-91J-28*
G01*
G75*
G03X95987Y85423I-19J-123*
G01*
G75*
G03X95932Y85295I134J-134*
G01*
G75*
G03X95922Y84735I21537J-643*
G01*
G75*
G03X95931Y84193I13092J-52*
G01*
G75*
G03X95981Y83948I761J28*
G01*
Y104648D02*
G75*
G03X96074Y104530I234J89D01*
G01*
G75*
G03X96155Y104557I30J44*
G01*
G75*
G03X96207Y104828I-927J320*
G01*
G75*
G03X96220Y105340I-9994J510*
G01*
G75*
G03X96207Y105837I-9096J4*
G01*
G75*
G03X96155Y106117I-1108J-61*
G01*
G75*
G03X96076Y106154I-57J-18*
G01*
G75*
G03X95987Y106065I59J-149*
G01*
G75*
G03X95941Y105854I589J-238*
G01*
G75*
G03X95930Y105359I13046J-548*
G01*
G75*
G03X95937Y104864I12867J-53*
G01*
G75*
G03X95981Y104648I666J24*
G01*
X96024Y45883D02*
G75*
G03X96095Y45794I285J153D01*
G01*
G75*
G03X96193Y45734I218J246*
G01*
G75*
G03X96330Y45700I195J502*
G01*
G75*
G03X96520Y45690I193J1739*
G01*
G75*
G03X96824Y45737J1008*
G01*
G75*
G03X97004Y45875I-100J315*
G01*
G75*
G03X97096Y46144I-522J330*
G01*
G75*
G03X97120Y46640I-4974J493*
G01*
G75*
G03X97096Y47121I-4794J2*
G01*
G75*
G03X97008Y47395I-682J-69*
G01*
G75*
G03X96841Y47539I-290J-167*
G01*
G75*
G03X96573Y47590I-268J-681*
G01*
G75*
G03X96278Y47529I0J-744*
G01*
G75*
G03X96074Y47359I185J-429*
G01*
G75*
G03X95957Y47061I631J-420*
G01*
G75*
G03X95920Y46611I2759J-451*
G01*
G75*
G03X95928Y46393I3144J4*
G01*
G75*
G03X95951Y46177I3018J210*
G01*
G75*
G03X95984Y45992I2585J368*
G01*
G75*
G03X96024Y45883I408J88*
G01*
Y76983D02*
G75*
G03X96096Y76893I285J153D01*
G01*
G75*
G03X96194Y76833I217J246*
G01*
G75*
G03X96333Y76800I195J509*
G01*
G75*
G03X96527Y76790I197J1828*
G01*
G75*
G03X96744Y76800I0J2322*
G01*
G75*
G03X96870Y76837I-32J343*
G01*
G75*
G03X96954Y76913I-104J200*
G01*
G75*
G03X97023Y77046I-563J374*
G01*
G75*
G03X97096Y77359I-1132J430*
G01*
G75*
G03X97117Y77806I-4388J429*
G01*
G75*
G03X97094Y78243I-4534J-18*
G01*
G75*
G03X97017Y78496I-678J-69*
G01*
G75*
G03X96842Y78644I-273J-146*
G01*
G75*
G03X96526Y78698I-336J-1007*
G01*
G75*
G03X96209Y78656I-19J-1060*
G01*
G75*
G03X96029Y78515I87J-296*
G01*
G75*
G03X95948Y78259I525J-305*
G01*
G75*
G03X95927Y77756I6313J-524*
G01*
G75*
G03X95946Y77251I6219J-20*
G01*
G75*
G03X96024Y76983I678J53*
G01*
X96086Y110873D02*
G75*
G03X96293Y110731I400J362D01*
G01*
G75*
G03X96548Y110692I217J564*
G01*
G75*
G03X96793Y110763I-38J589*
G01*
G75*
G03X96973Y110930I-242J442*
G01*
G75*
G03X97045Y111083I-503J330*
G01*
G75*
G03X97088Y111280I-1152J354*
G01*
G75*
G03X97106Y111543I-2147J280*
G01*
G75*
G03X97100Y111904I-7472J67*
G01*
X97070Y112640*
X96624Y112672*
G75*
G03X96261Y112651I-101J-1414*
G01*
G75*
G03X96054Y112520I61J-326*
G01*
G75*
G03X95948Y112244I459J-335*
G01*
G75*
G03X95920Y111704I5279J-540*
G01*
G75*
G03X95930Y111393I5332J7*
G01*
G75*
G03X95959Y111164I1669J96*
G01*
G75*
G03X96010Y110994I919J183*
G01*
G75*
G03X96086Y110873I381J156*
G01*
X96229Y108340D02*
G75*
G03X96846Y108345I-9J35527D01*
G01*
G75*
G03X97156Y108368I-47J2741*
G01*
G75*
G03X97319Y108412I-84J637*
G01*
G75*
G03X97370Y108490I-32J78*
G01*
G75*
G03X97321Y108568I-86*
G01*
G75*
G03X97167Y108616I-255J-543*
G01*
G75*
G03X96879Y108648I-403J-2351*
G01*
G75*
G03X96328Y108669I-1285J-26658*
G01*
G75*
G03X95602Y108680I-842J-30466*
G01*
G75*
G03X95244Y108652I-8J-2228*
G01*
G75*
G03X95081Y108582I56J-352*
G01*
G75*
G03X95046Y108465I65J-83*
G01*
G75*
G03X95113Y108404I87J29*
G01*
G75*
G03X95339Y108369I459J2168*
G01*
G75*
G03X95687Y108346I448J4229*
G01*
G75*
G03X96229Y108340I542J23333*
G01*
X96305Y93590D02*
G75*
G02X97172Y93549I1J-9276D01*
G01*
G75*
G02X97500Y93369I-44J-467*
G01*
G75*
G02X97644Y92976I-550J-425*
G01*
G75*
G02X97670Y91820I-25185J-1153*
G01*
G75*
G02X97641Y90707I-21196J-3*
G01*
G75*
G02X97489Y90313I-679J35*
G01*
G75*
G02X97148Y90131I-387J315*
G01*
G75*
G02X96259Y90090I-889J9636*
G01*
X95320*
Y90790*
X96065*
G75*
G03X96648Y90828I0J4429*
G01*
G75*
G03X96938Y90971I-67J502*
G01*
G75*
G03X97082Y91261I-355J356*
G01*
G75*
G03X97120Y91840I-4300J577*
G01*
G75*
G03X97082Y92419I-4342J2*
G01*
G75*
G03X96938Y92709I-498J-67*
G01*
G75*
G03X96648Y92852I-357J-359*
G01*
G75*
G03X96065Y92890I-580J-4391*
G01*
X95320*
Y93590*
X96305*
X96367Y93090D02*
G75*
G02X96944Y93055I0J-4816D01*
G01*
G75*
G02X97188Y92916I-43J-358*
G01*
G75*
G02X97298Y92619I-431J-329*
G01*
G75*
G02X97320Y91840I-13444J-777*
G01*
G75*
G02X97298Y91061I-13460J-2*
G01*
G75*
G02X97188Y90764I-541J31*
G01*
G75*
G02X96944Y90625I-287J219*
G01*
G75*
G02X96367Y90590I-580J4781*
G01*
G75*
G03X95979Y90584I-2J-12596*
G01*
G75*
G03X95770Y90560I39J-1257*
G01*
G75*
G03X95660Y90514I59J-298*
G01*
G75*
G03X95620Y90440I50J-74*
G01*
G75*
G03X95655Y90368I94J0*
G01*
G75*
G03X95747Y90321I148J178*
G01*
G75*
G03X95920Y90296I209J846*
G01*
G75*
G03X96227Y90290I314J7361*
G01*
G75*
G03X96889Y90366I-1J2911*
G01*
G75*
G03X97270Y90608I-155J665*
G01*
G75*
G03X97466Y91075I-744J588*
G01*
G75*
G03X97520Y91927I-6618J850*
G01*
G75*
G03X97513Y92425I-15049J11*
G01*
G75*
G03X97479Y92688I-1416J-46*
G01*
G75*
G03X97404Y92879I-663J-149*
G01*
G75*
G03X97262Y93082I-1224J-707*
G01*
G75*
G03X97089Y93259I-1270J-1070*
G01*
G75*
G03X96939Y93344I-282J-319*
G01*
G75*
G03X96733Y93381I-238J-733*
G01*
G75*
G03X96312Y93390I-413J-10287*
G01*
G75*
G03X95956Y93384I-7J-10349*
G01*
G75*
G03X95761Y93359I39J-1094*
G01*
G75*
G03X95658Y93313I57J-268*
G01*
G75*
G03X95620Y93240I54J-74*
G01*
G75*
G03X95660Y93166I89J0*
G01*
G75*
G03X95770Y93120I169J252*
G01*
G75*
G03X95979Y93096I248J1233*
G01*
G75*
G03X96367Y93090I398J12590*
G01*
X96390Y57265D02*
G75*
G02X96431Y57381I407J-80D01*
G01*
G75*
G02X96500Y57448I143J-77*
G01*
G75*
G02X96616Y57481I143J-276*
G01*
G75*
G02X96826Y57490I207J-2482*
G01*
G75*
G02X97113Y57434I0J-765*
G01*
G75*
G02X97260Y57276I-96J-237*
G01*
G75*
G02X97314Y56935I-1037J-340*
G01*
G75*
G02X97300Y56040I-33278J80*
G01*
X97270Y55040*
X96370*
X96357Y56040*
G75*
G02X96356Y56439I22780J290*
G01*
G75*
G02X96362Y56812I17328J-88*
G01*
G75*
G02X96373Y57125I17348J-454*
G01*
G75*
G02X96390Y57265I920J-41*
G01*
X96427Y101815D02*
G75*
G02X96587Y101944I254J-151D01*
G01*
G75*
G02X96862Y101993I294J-871*
G01*
G75*
G02X97128Y101955I17J-849*
G01*
G75*
G02X97260Y101832I-61J-197*
G01*
G75*
G02X97284Y101724I-350J-135*
G01*
G75*
G02X97303Y101418I-14573J-1052*
G01*
G75*
G02X97316Y101050I-12571J-642*
G01*
G75*
G02X97320Y100644I-18617J-402*
G01*
G75*
G02X97302Y99895I-15503*
G01*
G75*
G02X97218Y99573I-806J39*
G01*
G75*
G02X97037Y99430I-242J121*
G01*
G75*
G02X96702Y99408I-235J1015*
G01*
X96370Y99440*
X96347Y100540*
G75*
G02X96345Y100983I12929J279*
G01*
G75*
G02X96360Y101375I7857J-104*
G01*
G75*
G02X96386Y101692I7697J-481*
G01*
G75*
G02X96427Y101815I302J-31*
G01*
X96460Y49690D02*
G75*
G03X96887Y49696I-5J13927D01*
G01*
G75*
G03X97137Y49721I-58J1861*
G01*
G75*
G03X97286Y49766I-102J617*
G01*
G75*
G03X97357Y49840I-54J122*
G01*
G75*
G03X97338Y49915I-63J24*
G01*
G75*
G03X97239Y49962I-135J-157*
G01*
G75*
G03X97010Y49985I-260J-1446*
G01*
G75*
G03X96518Y49990I-480J-24408*
G01*
G75*
G03X96042Y49984I-7J-19906*
G01*
G75*
G03X95795Y49961I43J-1750*
G01*
G75*
G03X95665Y49916I67J-403*
G01*
G75*
G03X95663Y49765I42J-76*
G01*
G75*
G03X95785Y49719I187J314*
G01*
G75*
G03X96018Y49696I273J1530*
G01*
G75*
G03X96460Y49690I446J16880*
G01*
X96604Y99650D02*
G75*
G03X96651Y99640I37J60D01*
G01*
G75*
G03X96727Y99658I-59J426*
G01*
G75*
G03X96815Y99696I-188J561*
G01*
G75*
G03X96904Y99750I-378J723*
G01*
G75*
G03X97019Y99863I-276J394*
G01*
G75*
G03X97083Y100003I-327J235*
G01*
G75*
G03X97113Y100221I-1052J257*
G01*
G75*
G03X97120Y100637I-11775J409*
G01*
G75*
G03X97116Y100931I-9706J4*
G01*
G75*
G03X97103Y101204I-7283J-220*
G01*
G75*
G03X97084Y101431I-7169J-481*
G01*
G75*
G03X97060Y101532I-386J-39*
G01*
G75*
G03X96972Y101650I-255J-98*
G01*
G75*
G03X96848Y101682I-99J-128*
G01*
G75*
G03X96720Y101615I33J-220*
G01*
G75*
G03X96624Y101465I349J-330*
G01*
G75*
G03X96552Y101145I943J-378*
G01*
G75*
G03X96529Y100476I14143J-826*
G01*
G75*
G03X96531Y99780I26763J-288*
G01*
G75*
G03X96604Y99650I155J2*
G01*
X96619Y55241D02*
G75*
G03X96670Y55226I56J90D01*
G01*
G75*
G03X96747Y55230I14J400*
G01*
G75*
G03X96834Y55252I-81J507*
G01*
G75*
G03X96919Y55289I-189J547*
G01*
G75*
G03X97026Y55381I-150J282*
G01*
G75*
G03X97086Y55515I-289J211*
G01*
G75*
G03X97114Y55738I-1145J259*
G01*
G75*
G03X97120Y56186I-15190J438*
G01*
G75*
G03X97113Y56580I-9811J1*
G01*
G75*
G03X97085Y56841I-2016J-79*
G01*
G75*
G03X97036Y57019I-906J-156*
G01*
G75*
G03X96957Y57139I-327J-127*
G01*
G75*
G03X96778Y57205I-161J-161*
G01*
G75*
G03X96642Y57104I12J-158*
G01*
G75*
G03X96562Y56736I1191J-453*
G01*
G75*
G03X96532Y56021I14062J-939*
G01*
G75*
G03X96535Y55741I5456J-86*
G01*
G75*
G03X96553Y55495I3279J113*
G01*
G75*
G03X96581Y55298I3420J383*
G01*
G75*
G03X96619Y55241I81J14*
G01*
D02*
D22*
X46826Y123272D02*
X36165D01*
Y129209*
X46826*
Y123272*
X52055Y117851D02*
Y128512D01*
X57992*
Y117851*
X52055*
X63020Y116965D02*
Y127626D01*
X68957*
Y116965*
X63020*
X73443Y117477D02*
Y128138D01*
X79380*
Y117477*
X73443*
X79941Y41996D02*
Y31335D01*
X74004*
Y41996*
X79941*
X83394Y117309D02*
Y127971D01*
X89331*
Y117309*
X83394*
X95277Y24709D02*
X94027D01*
X94652D02*
Y28459D01*
X95277D02*
X94027D01*
X88089Y25335D02*
X88402Y25022D01*
X89027Y24709*
X89965*
X90589Y25022*
X90902Y25335*
X91215Y25959*
Y27209*
X90902Y27835*
X90589Y28147*
X89965Y28459*
X89027*
X88402Y28147*
X88089Y27835*
X85589Y24709D02*
X84339D01*
X84965D02*
Y28459D01*
X85589Y27835*
X80902Y25022D02*
X80277Y24709D01*
X79652*
X79027Y25022*
X78715Y25647*
Y27522*
X79027Y28147*
X79652Y28459*
X80277*
X80902Y28147*
X81215Y27522*
Y25647*
X80902Y25022*
X79027Y28147*
X101811Y42095D02*
Y31433D01*
X95874*
Y42095*
X101811*
X103079Y117664D02*
Y128325D01*
X109016*
Y117664*
X103079*
X113551Y117300D02*
Y127961D01*
X119488*
Y117300*
X113551*
X123305Y117231D02*
Y127892D01*
X129242*
Y117231*
X123305*
X124634Y83128D02*
X135295D01*
Y77191*
X124634*
Y83128*
X133344Y117378D02*
Y128040D01*
X139281*
Y117378*
X133344*
D02*
D23*
X93409Y37030D02*
Y38802D01*
X81992*
Y37030*
X93409*
X93744Y31518D02*
Y35652D01*
D02*
D25*
X53937Y87421D02*
G75*
G02Y87784J181D01*
G01*
G75*
G02Y87421J-181*
G01*
D02*
D117*
X145076Y214532D02*
X144697Y213774D01*
X143939Y213396*
X142424*
X141666Y213774*
X141287Y214532*
X141666Y215290*
X142424Y215669*
X143939*
X144697Y216048*
X145076Y216806*
X144697Y217564*
X143939Y217943*
X142424*
X141666Y217564*
X141287Y216806*
X139013Y216427D02*
X138634Y214911D01*
X137876Y214154*
X137119*
X136361Y214911*
X135982Y216427*
X136361Y214911D02*
X136740Y213396D01*
X137119Y212638*
X137876Y212259*
X138634Y212638*
X132950Y213396D02*
Y216427D01*
Y216048D02*
X132571Y216427D01*
X131813*
X131435Y216048*
Y214911*
Y216048D02*
X131056Y216427D01*
X130298*
X129919Y216048*
Y213396*
X126887Y216427D02*
Y212259D01*
Y214532D02*
X126508Y213774D01*
X125750Y213396*
X124993*
X124235Y213774*
X123856Y214532*
Y215290*
X124235Y216048*
X124993Y216427*
X125750*
X126508Y216048*
X126887Y215290*
Y214532*
X118930Y213396D02*
X119309D01*
Y217943*
X111730Y213774D02*
X112109Y213396D01*
X112867*
X113624*
X114382Y213774*
X114761Y214532*
Y215669*
X114382Y216048*
X113624Y216427*
X112867*
X112109Y216048*
X111730Y215669*
Y215290*
X112109Y214911*
X112867Y214532*
X113624*
X114382Y214911*
X114761Y215290*
X108698Y213396D02*
X106804Y217943D01*
X104909Y213396*
X107941Y215290D02*
X105667D01*
X101120Y213396D02*
Y216427D01*
Y217564D02*
X96572Y213396*
Y216427D01*
Y215290D02*
X96193Y216048D01*
X95435Y216427*
X94678*
X93920Y216048*
X87478D02*
X88236Y216427D01*
X89372*
X90130Y216048*
X90509Y215290*
Y214532*
X90130Y213774*
X89372Y213396*
X88236*
X87478Y213774*
X84446Y216427D02*
X84067Y214911D01*
X83309Y214154*
X82552*
X81794Y214911*
X81415Y216427*
X81794Y214911D02*
X82173Y213396D01*
X82552Y212638*
X83309Y212259*
X84067Y212638*
X76489Y213396D02*
X76868D01*
Y217943*
X70805Y213396D02*
Y216427D01*
Y217564D02*
X66257Y213396*
Y216427D01*
Y215290D02*
X65878Y216048D01*
X65120Y216427*
X64363*
X63605Y216048*
X63226Y215290*
Y213396*
X57163Y215290D02*
X57542Y216048D01*
X58300Y216427*
X59057*
X59815Y216048*
X60194Y215290*
Y214532*
X59815Y213774*
X59057Y213396*
X58300*
X57542Y213774*
X57163Y214532*
Y213396D02*
Y217943D01*
X51100Y213774D02*
X51479Y213396D01*
X52237*
X52994*
X53752Y213774*
X54131Y214532*
Y215669*
X53752Y216048*
X52994Y216427*
X52237*
X51479Y216048*
X51100Y215669*
Y215290*
X51479Y214911*
X52237Y214532*
X52994*
X53752Y214911*
X54131Y215290*
X48069Y213396D02*
Y216427D01*
Y215290D02*
X47689Y216048D01*
X46931Y216427*
X46174*
X45416Y216048*
X39353Y215669D02*
X38595Y215290D01*
X38216Y214532*
X38595Y213774*
X39353Y213396*
X42006*
Y217943*
X39353*
X38595Y217564*
X38216Y216806*
X38595Y216048*
X39353Y215669*
X42006*
X35943Y214532D02*
X35563Y213774D01*
X34806Y213396*
X34048*
X33290Y213774*
X32911Y214532*
Y215290*
X33290Y216048*
X34048Y216427*
X34806*
X35563Y216048*
X35943Y215290*
Y214532*
X29880Y213396D02*
Y216427D01*
Y215290D02*
X29500Y216048D01*
X28743Y216427*
X27985*
X27227Y216048*
X20785Y215290D02*
X21164Y216048D01*
X21922Y216427*
X22680*
X23437Y216048*
X23817Y215290*
Y214532*
X23437Y213774*
X22680Y213396*
X21922*
X21164Y213774*
X20785Y214532*
Y213396D02*
Y217943D01*
X0Y0D02*
M02*
