G04 EasyPC Gerber Version 21.0.3 Build 4286 *
G04 #@! TF.Part,Single*
G04 #@! TF.FileFunction,Copper,L2,Bot *
G04 #@! TF.FilePolarity,Positive *
%FSLAX45Y45*%
%MOIN*%
G04 #@! TA.AperFunction,SMDPad*
%ADD73R,0.02559X0.03937*%
%ADD100R,0.02559X0.04134*%
G04 #@! TA.AperFunction,ComponentPad*
%ADD80R,0.10630X0.10630*%
G04 #@! TD.AperFunction*
%ADD22C,0.00500*%
%ADD25C,0.01000*%
%ADD120C,0.01500*%
G04 #@! TA.AperFunction,ViaPad*
%ADD84C,0.02362*%
G04 #@! TD.AperFunction*
%ADD88C,0.05000*%
G04 #@! TA.AperFunction,ViaPad*
%ADD87C,0.05600*%
G04 #@! TA.AperFunction,ComponentPad*
%ADD79C,0.06000*%
%ADD77C,0.06693*%
%ADD81C,0.10630*%
G04 #@! TA.AperFunction,WasherPad*
%ADD27C,0.24016*%
G04 #@! TA.AperFunction,SMDPad*
%ADD74R,0.03937X0.02559*%
X0Y0D02*
D02*
D22*
X26185Y104813D02*
Y99818D01*
G75*
G02X33490Y98945I3406J-2502*
G01*
X42375*
G75*
G02X42213Y99087I992J1293*
G01*
X40556Y100744*
X37525*
G75*
G02X34203Y102374I-1261J1630*
G01*
G75*
G02X37525Y104004I2061*
G01*
X41231*
G75*
G02X42385Y103526J-1630*
G01*
X44043Y101869*
X87285*
G75*
G02X87420Y101965I1261J-1628*
G01*
X46293*
G75*
G02X45139Y102444J1630*
G01*
X41898Y105685*
X33490*
G75*
G02X26185Y104813I-3900J1630*
G01*
G36*
Y99818*
G75*
G02X33490Y98945I3406J-2502*
G01*
X42375*
G75*
G02X42213Y99087I992J1293*
G01*
X40556Y100744*
X37525*
G75*
G02X34203Y102374I-1261J1630*
G01*
G75*
G02X37525Y104004I2061*
G01*
X41231*
G75*
G02X42385Y103526J-1630*
G01*
X44043Y101869*
X87285*
G75*
G02X87420Y101965I1261J-1628*
G01*
X46293*
G75*
G02X45139Y102444J1630*
G01*
X41898Y105685*
X33490*
G75*
G02X26185Y104813I-3900J1630*
G01*
G37*
X176785Y92975D02*
X163148D01*
G75*
G02X162598Y92252I-1875J857*
G01*
X168948*
G75*
G02X172035Y90465I1026J-1787*
G01*
G75*
G02X168948Y88678I-2061*
G01*
X117677*
Y69323*
G75*
G02X117146Y68052I-1787*
G01*
X106225Y57259*
X105472Y56506*
Y48103*
G75*
G02X103685Y46315I-1787*
G01*
X101985*
G75*
G02X99168Y49124I-1026J1787*
G01*
G75*
G02X96396Y52100I-1143J1715*
G01*
Y55239*
G75*
G02X96874Y56393I1630*
G01*
X103309Y62827*
G75*
G02X103891Y63202I1154J-1152*
G01*
X110972Y70284*
Y70780*
G75*
G02X108081Y70742I-1465J1450*
G01*
Y69986*
G75*
G02X108512Y68725I-1630J-1261*
G01*
G75*
G02X104390I-2061*
G01*
G75*
G02X104821Y69986I2061*
G01*
Y70104*
G75*
G02X101979Y72900I-1054J1770*
G01*
Y112886*
G75*
G02X103767Y114674I1787*
G01*
X108545*
X113671Y119800*
Y122290*
X119368*
Y117971*
X116898*
X110549Y111622*
G75*
G02X109930Y111219I-1264J1264*
G01*
X115313*
X123425Y119331*
Y122221*
X129122*
Y117902*
X126606*
X117226Y108522*
X122117*
X133465Y119886*
Y122369*
X139161*
Y118050*
X136683*
X124123Y105472*
G75*
G02X122857Y104947I-1265J1263*
G01*
X111295*
Y94804*
G75*
G02X112602Y95461I1307J-973*
G01*
X154915*
Y146154*
X40270*
Y170170*
X6104*
Y43850*
G75*
G02X31248Y39865I12256J-3986*
G01*
G75*
G02X22346Y27609I-12888J0*
G01*
X176785*
Y32997*
G75*
G02Y46732I10906J6868*
G01*
Y92975*
X125305Y83008D02*
X129624D01*
Y77311*
X125305*
Y83008*
X126565Y41353D02*
G75*
G02X135017I4226D01*
G01*
G75*
G02X126565I-4226*
G01*
Y51353D02*
G75*
G02X135017I4226D01*
G01*
G75*
G02X126565I-4226*
G01*
X130486Y83378D02*
X135545D01*
Y76941*
X130486*
Y83378*
X136565Y41353D02*
G75*
G02X145017I4226D01*
G01*
G75*
G02X136565I-4226*
G01*
Y51353D02*
G75*
G02X145017I4226D01*
G01*
G75*
G02X136565I-4226*
G01*
X146565Y41353D02*
G75*
G02X155017I4226D01*
G01*
G75*
G02X146565I-4226*
G01*
Y51353D02*
G75*
G02X155017I4226D01*
G01*
G75*
G02X146565I-4226*
G01*
X106565D02*
G75*
G02X115017I4226D01*
G01*
G75*
G02X112421Y47454I-4226*
G01*
Y45253*
G75*
G02X114171Y38816I-1630J-3900*
G01*
Y33713*
G75*
G02X110791Y30333I-3380*
G01*
X100235*
G75*
G02X98843Y30048I-1392J3252*
G01*
X91480*
G75*
G02X89524Y30638J3537*
G01*
X89321*
Y30783*
G75*
G02Y36387I2160J2802*
G01*
Y36532*
X89524*
G75*
G02X91480Y37122I1957J-2947*
G01*
X95624*
Y41794*
X102061*
Y37093*
X107411*
Y38816*
G75*
G02X109161Y45253I3380J2537*
G01*
Y47454*
G75*
G02X106565Y51353I1630J3900*
G01*
X116194Y41353D02*
G75*
G02X125387I4596D01*
G01*
G75*
G02X116194I-4596*
G01*
Y51353D02*
G75*
G02X125387I4596D01*
G01*
G75*
G02X116194I-4596*
G01*
X41467Y129459D02*
X46526D01*
Y123022*
X41467*
Y129459*
X103199Y122654D02*
X108896D01*
Y118335*
X106459*
X96552Y108428*
G75*
G02X95398Y107949I-1154J1151*
G01*
X86824*
G75*
G02X84131Y108096I-1261J1630*
G01*
G75*
G02X83072Y105225I-1825J-958*
G01*
X93026*
G75*
G02X96348Y103595I1261J-1630*
G01*
G75*
G02X93026Y101965I-2061*
G01*
X89672*
G75*
G02X90607Y100239I-1126J-1726*
G01*
G75*
G02X87285Y98609I-2061*
G01*
X68571*
G75*
G02X69209Y97315I-992J-1293*
G01*
Y82585*
G75*
G02X69640Y81323I-1630J-1261*
G01*
G75*
G02X65518I-2061*
G01*
G75*
G02X65949Y82585I2061*
G01*
Y95685*
X33490*
G75*
G02X26185Y94813I-3900J1630*
G01*
Y89818*
G75*
G02X33817Y87315I3406J-2502*
G01*
G75*
G02X32437Y84191I-4226*
G01*
X60660*
G75*
G02X61927Y83668I3J-1787*
G01*
X65518Y80077*
G75*
G02X65525Y80070I-1040J-1047*
G01*
X68590Y76986*
G75*
G02X69081Y76055I-1266J-1263*
G01*
G75*
G02X69386Y74975I-1756J-1079*
G01*
G75*
G02X65262I-2062*
G01*
G75*
G02X65280Y75245I2063J0*
G01*
X62990Y77550*
X59923Y80617*
X32789*
G75*
G02X29591Y72719I-3198J-3301*
G01*
G75*
G02X26457Y80678J4596*
G01*
G75*
G02X25656Y81142I465J1726*
G01*
X23135Y83662*
G75*
G02X22680Y84431I1262J1266*
G01*
G75*
G02X15364Y87315I-3090J2884*
G01*
G75*
G02X22610Y90273I4226*
G01*
Y93850*
G75*
G02X14994Y97315I-3019J3466*
G01*
G75*
G02X22610Y100781I4596*
G01*
Y103850*
G75*
G02X14994Y107315I-3019J3466*
G01*
G75*
G02X22610Y110781I4596*
G01*
Y113850*
G75*
G02X14994Y117315I-3019J3466*
G01*
G75*
G02X22624Y120769I4596*
G01*
G75*
G02X23133Y121809I1773J-224*
G01*
X25130Y123806*
G75*
G02X26397Y124329I1264J-1264*
G01*
X26600*
G75*
G02X29591Y131542I2991J2986*
G01*
G75*
G02X32581Y124329J-4226*
G01*
X33635*
X36238Y126932*
Y128219*
X31092Y133365*
G75*
G02X25364Y137315I-1502J3951*
G01*
G75*
G02X33817I4226*
G01*
G75*
G02X33583Y135929I-4227J0*
G01*
X39289Y130223*
G75*
G02X39808Y129089I-1264J-1264*
G01*
X40604*
Y123392*
X37754*
X35642Y121280*
G75*
G02X34376Y120754I-1266J1262*
G01*
X32047*
G75*
G02X29591Y113089I-2457J-3439*
G01*
G75*
G02X26185Y114813J4226*
G01*
Y109818*
G75*
G02X33490Y108945I3406J-2503*
G01*
X42573*
G75*
G02X43727Y108467J-1630*
G01*
X46969Y105225*
X67483*
G75*
G02X67079Y105469I858J1874*
G01*
X62233*
G75*
G02X61079Y105948J1630*
G01*
X53872Y113154*
G75*
G02X53394Y114308I1151J1154*
G01*
Y118522*
X52175*
Y122841*
X57872*
Y118522*
X56654*
Y114983*
X62908Y108729*
X67079*
G75*
G02X70402Y107099I1261J-1630*
G01*
G75*
G02X69198Y105225I-2061*
G01*
X74548*
G75*
G02X74114Y107071I1565J1342*
G01*
X64837Y116348*
G75*
G02X64358Y117502I1151J1154*
G01*
Y117636*
X63140*
Y121955*
X68837*
Y117636*
X68159*
X76392Y109403*
G75*
G02X77742Y107832I-280J-1606*
G01*
G75*
G02X77678Y105225I-1628J-1265*
G01*
X81540*
G75*
G02X80519Y108164I766J1913*
G01*
Y108319*
G75*
G02X77633Y111215I-1256J1635*
G01*
Y117270*
X76755Y118148*
X73563*
Y122467*
X79260*
Y120254*
X80414Y119099*
G75*
G02X80893Y117945I-1151J-1154*
G01*
Y117229*
G75*
G02X81042Y117398I1414J-1096*
G01*
X83514Y119870*
Y122300*
X89211*
Y117981*
X86680*
X84093Y115394*
Y111025*
G75*
G02X86824Y111209I1469J-1446*
G01*
X94722*
X103199Y119685*
Y122654*
X81762Y36532D02*
X86081D01*
Y30638*
X81762*
Y31798*
X79821*
Y31455*
X74124*
Y31850*
X73422*
G75*
G02X70335Y33637I-1026J1787*
G01*
G75*
G02X73422Y35424I2061*
G01*
X74124*
Y35774*
X79821*
Y35372*
X81762*
Y36532*
X73754Y41695D02*
X80191D01*
Y36636*
X73754*
Y41695*
X85171Y45563D02*
X90230D01*
Y38930*
X85171*
Y45563*
X25364Y67315D02*
G75*
G02X33817I4226D01*
G01*
G75*
G02X25364I-4226*
G01*
X52325Y135317D02*
G75*
G02X60085I3880D01*
G01*
G75*
G02X57835Y131796I-3880*
G01*
Y128392*
X57872*
Y124073*
X52175*
Y128392*
X54575*
Y131796*
G75*
G02X52325Y135317I1630J3521*
G01*
X62325D02*
G75*
G02X70085I3880D01*
G01*
G75*
G02X67618Y131704I-3880*
G01*
Y127506*
X68837*
Y123187*
X63140*
Y127506*
X64358*
Y131905*
G75*
G02X62325Y135317I1846J3412*
G01*
X72325D02*
G75*
G02X80085I3880D01*
G01*
G75*
G02X77835Y131796I-3880*
G01*
Y128018*
X79260*
Y123699*
X73563*
Y128018*
X74575*
Y131796*
G75*
G02X72325Y135317I1630J3521*
G01*
X82325D02*
G75*
G02X90085I3880D01*
G01*
G75*
G02X88150Y131960I-3880*
G01*
Y127851*
X89211*
Y123532*
X83514*
Y127851*
X84575*
Y131796*
G75*
G02X82325Y135317I1630J3521*
G01*
X91955D02*
G75*
G02X100455I4250D01*
G01*
G75*
G02X91955I-4250*
G01*
X102325D02*
G75*
G02X110085I3880D01*
G01*
G75*
G02X107835Y131796I-3880*
G01*
Y128205*
X108896*
Y123886*
X103199*
Y128205*
X104260*
Y131960*
G75*
G02X102325Y135317I1945J3357*
G01*
X112325D02*
G75*
G02X120085I3880D01*
G01*
G75*
G02X118150Y131960I-3880*
G01*
Y127841*
X119368*
Y123522*
X113671*
Y127841*
X114890*
Y131667*
G75*
G02X112325Y135317I1315J3650*
G01*
X122325D02*
G75*
G02X130085I3880D01*
G01*
G75*
G02X128061Y131910I-3880*
G01*
Y127772*
X129122*
Y123453*
X123425*
Y127772*
X124486*
Y131839*
G75*
G02X122325Y135317I1719J3479*
G01*
X132325D02*
G75*
G02X140085I3880D01*
G01*
G75*
G02X138100Y131932I-3880*
G01*
Y127920*
X139161*
Y123601*
X133465*
Y127920*
X134526*
Y131820*
G75*
G02X132325Y135317I1679J3498*
G01*
X141955D02*
G75*
G02X150455I4250D01*
G01*
G75*
G02X141955I-4250*
G01*
X58309Y57508D02*
G75*
G02X61632Y55878I1261J-1630D01*
G01*
G75*
G02X58309Y54248I-2061*
G01*
X13508*
G75*
G02X11878Y55878J1630*
G01*
Y77315*
G75*
G02X13508Y78945I1630*
G01*
X15691*
G75*
G02X23817Y77315I3900J-1630*
G01*
G75*
G02X15691Y75685I-4226*
G01*
X15138*
Y57508*
X58309*
X15364Y67315D02*
G75*
G02X23817I4226D01*
G01*
G75*
G02X15364I-4226*
G01*
X14994Y127315D02*
G75*
G02X24187I4596D01*
G01*
G75*
G02X14994I-4596*
G01*
Y147315D02*
G75*
G02X24187I4596D01*
G01*
G75*
G02X14994I-4596*
G01*
X15364Y137315D02*
G75*
G02X23817I4226D01*
G01*
G75*
G02X15364I-4226*
G01*
X14994Y157315D02*
G75*
G02X24187I4596D01*
G01*
G75*
G02X14994I-4596*
G01*
X25364Y147315D02*
G75*
G02X33817I4226D01*
G01*
G75*
G02X25364I-4226*
G01*
Y157315D02*
G75*
G02X33817I4226D01*
G01*
G75*
G02X25364I-4226*
G01*
X176437Y33585D02*
G36*
X114169D01*
G75*
G02X110791Y30333I-3378J128*
G01*
X100235*
G75*
G02X98843Y30048I-1392J3249*
G01*
X91480*
G75*
G02X89524Y30638I-1J3535*
G01*
X89321*
Y30783*
G75*
G02X87943Y33585I2159J2802*
G01*
X86081*
Y30638*
X81762*
Y31798*
X79821*
Y31455*
X74124*
Y31850*
X73422*
G75*
G02X70335Y33585I-1026J1787*
G01*
X29615*
G75*
G02X23046Y27859I-11254J6280*
G01*
X176535*
Y33411*
G75*
G02X176437Y33585I11153J6448*
G01*
G37*
X174889Y41353D02*
G36*
X155017D01*
G75*
G02X146565I-4226*
G01*
X145017*
G75*
G02X136565I-4226*
G01*
X135017*
G75*
G02X126565I-4226*
G01*
X125387*
G75*
G02X116194I-4596*
G01*
X115017*
G75*
G02X114171Y38816I-4226*
G01*
Y33713*
G75*
G02X114169Y33585I-3381J-2*
G01*
X176437*
G75*
G02X174803Y39865I11255J6280*
G01*
G75*
G02X174889Y41353I12889J0*
G01*
G37*
X87943Y33585D02*
G36*
Y33585D01*
G75*
G02X89321Y36387I3537*
G01*
Y36532*
X89524*
G75*
G02X91480Y37122I1956J-2944*
G01*
X95624*
Y41353*
X90230*
Y38930*
X85171*
Y41353*
X80191*
Y36636*
X73754*
Y41353*
X31162*
G75*
G02X31248Y39865I-12803J-1488*
G01*
G75*
G02X29615Y33585I-12888J0*
G01*
X70335*
G75*
G02X70335Y33637I2061J57*
G01*
G75*
G02X73422Y35424I2061J0*
G01*
X74124*
Y35774*
X79821*
Y35372*
X81762*
Y36532*
X86081*
Y33585*
X87943*
G37*
X106565Y41353D02*
G36*
X102061D01*
Y37093*
X107411*
Y38816*
G75*
G02X106565Y41353I3380J2537*
G01*
G37*
X12520Y51353D02*
G36*
X6354D01*
Y44550*
G75*
G02X12520Y51353I12006J-4686*
G01*
G37*
X106565Y41353D02*
G36*
G75*
G02X109161Y45253I4226D01*
G01*
Y47454*
G75*
G02X106565Y51353I1631J3900*
G01*
X105472*
Y48103*
G75*
G02X103685Y46315I-1787*
G01*
X101985*
G75*
G02X98898Y48103I-1026J1787*
G01*
G75*
G02X99168Y49124I2061*
G01*
G75*
G02X95965Y50839I-1143J1715*
G01*
G75*
G02X96030Y51353I2061J1*
G01*
X24200*
G75*
G02X31162Y41353I-5840J-11489*
G01*
X73754*
Y41695*
X80191*
Y41353*
X85171*
Y45563*
X90230*
Y41353*
X95624*
Y41794*
X102061*
Y41353*
X106565*
G37*
X176535Y46318D02*
G36*
Y51353D01*
X155017*
G75*
G02X146565I-4226*
G01*
X145017*
G75*
G02X136565I-4226*
G01*
X135017*
G75*
G02X126565I-4226*
G01*
X125387*
G75*
G02X116194I-4596*
G01*
X115017*
G75*
G02Y51352I-5013J0*
G01*
G75*
G02X112421Y47454I-4226*
G01*
Y45253*
G75*
G02X115017Y41353I-1630J-3900*
G01*
X116194*
G75*
G02X125387I4596*
G01*
X126565*
G75*
G02X135017I4226*
G01*
X136565*
G75*
G02X145017I4226*
G01*
X146565*
G75*
G02X155017I4226*
G01*
X174889*
G75*
G02X176535Y46318I12802J-1489*
G01*
G37*
X108004Y67315D02*
G36*
X107955D01*
G75*
G02X104947I-1504J1409*
G01*
X33817*
G75*
G02X25364I-4226*
G01*
X23817*
G75*
G02X15364I-4226*
G01*
X15138*
Y57508*
X58309*
G75*
G02X61632Y55878I1261J-1630*
G01*
G75*
G02X58309Y54248I-2061*
G01*
X13508*
G75*
G02X11878Y55878J1630*
G01*
Y67315*
X6354*
Y51353*
X12520*
G75*
G02X24200I5840J-11489*
G01*
X96030*
G75*
G02X96396Y52100I1996J-515*
G01*
Y55239*
Y55239*
G75*
G02X96874Y56393I1629*
G01*
X103309Y62827*
G75*
G02X103891Y63202I1154J-1151*
G01*
X108004Y67315*
G37*
X116401D02*
G36*
X106225Y57259D01*
X105472Y56506*
Y51353*
X106565*
G75*
G02X115017I4226*
G01*
X116194*
G75*
G02X125387I4596*
G01*
X126565*
G75*
G02X135017I4226*
G01*
X136565*
G75*
G02X145017I4226*
G01*
X146565*
G75*
G02X155017I4226*
G01*
X176535*
Y67315*
X116401*
G37*
X16465Y80160D02*
G36*
X6354D01*
Y67315*
X11878*
Y77315*
G75*
G02X13508Y78945I1630*
G01*
X15691*
G75*
G02X16465Y80160I3900J-1630*
G01*
G37*
X101979D02*
G36*
X69280D01*
G75*
G02X65878I-1701J1163*
G01*
X65435*
X65518Y80077*
X65525Y80070*
X68590Y76986*
G75*
G02X69081Y76055I-1271J-1265*
G01*
G75*
G02X69386Y74977I-1752J-1078*
G01*
G75*
G02Y74975I-2148J-1*
G01*
G75*
G02X65262I-2062*
G01*
G75*
G02Y74978I1961J2*
G01*
G75*
G02X65280Y75245I2019*
G01*
X62990Y77550*
X60380Y80160*
X33201*
G75*
G02X34187Y77315I-3611J-2844*
G01*
G75*
G02X29591Y72719I-4596*
G01*
G75*
G02X24994Y77315J4596*
G01*
G75*
G02X25980Y80160I4597*
G01*
X22717*
G75*
G02X23817Y77316I-3126J-2844*
G01*
Y77315*
Y77315*
G75*
G02X15691Y75685I-4226*
G01*
X15138*
Y67315*
X15364*
G75*
G02X23817I4226*
G01*
X25364*
G75*
G02X33817I4226*
G01*
X104947*
G75*
G02X104390Y68725I1504J1409*
G01*
G75*
G02Y68726I2374J0*
G01*
G75*
G02X104821Y69986I2059*
G01*
Y70104*
G75*
G02X101706Y71874I-1054J1771*
G01*
G75*
G02X101979Y72900I2061*
G01*
Y80160*
G37*
X108004Y67315D02*
G36*
X110972Y70284D01*
Y70780*
G75*
G02X108081Y70742I-1465J1450*
G01*
Y69986*
G75*
G02X108512Y68726I-1628J-1261*
G01*
G75*
G02Y68725I-2374J0*
G01*
G75*
G02X107955Y67315I-2061J0*
G01*
X108004*
G37*
X135545Y80160D02*
G36*
Y76941D01*
X130486*
Y80160*
X129624*
Y77311*
X125305*
Y80160*
X117677*
Y69323*
G75*
G02X117146Y68052I-1787*
G01*
X116401Y67315*
X176535*
Y80160*
X135545*
G37*
X25503Y126241D02*
G36*
X24059D01*
G75*
G02X15122I-4469J1075*
G01*
X6354*
Y80160*
X16465*
G75*
G02X22717I3126J-2844*
G01*
X25980*
G75*
G02X26457Y80678I3611J-2844*
G01*
G75*
G02X25656Y81142I463J1723*
G01*
X23135Y83662*
G75*
G02X22680Y84431I1265J1268*
G01*
G75*
G02X15364Y87315I-3090J2884*
G01*
G75*
G02X22610Y90273I4226*
G01*
Y93850*
G75*
G02X14994Y97315I-3019J3466*
G01*
G75*
G02X22610Y100781I4596*
G01*
Y103850*
G75*
G02X14994Y107315I-3019J3466*
G01*
G75*
G02X22610Y110781I4596*
G01*
Y113850*
G75*
G02X14994Y117315I-3019J3466*
G01*
G75*
G02X22624Y120769I4597J0*
G01*
G75*
G02X23133Y121809I1772J-224*
G01*
X25130Y123806*
G75*
G02X26397Y124329I1263J-1262*
G01*
X26600*
G75*
G02X25503Y126241I2991J2986*
G01*
G37*
X176535Y92975D02*
G36*
X163148D01*
G75*
G02X162598Y92252I-1876J857*
G01*
X168948*
G75*
G02X172035Y90465I1026J-1788*
G01*
G75*
G02X168948Y88678I-2061J0*
G01*
X117677*
Y80160*
X125305*
Y83008*
X129624*
Y80160*
X130486*
Y83378*
X135545*
Y80160*
X176535*
Y92975*
G37*
X35547Y126241D02*
G36*
X33678D01*
G75*
G02X32581Y124329I-4088J1075*
G01*
X33635*
X35547Y126241*
G37*
X60380Y80160D02*
G36*
X59923Y80617D01*
X32789*
G75*
G02X33201Y80160I-3199J-3302*
G01*
X60380*
G37*
X65878D02*
G36*
G75*
G02X65518Y81323I1701J1163D01*
G01*
G75*
G02Y81324I2374J0*
G01*
G75*
G02X65949Y82585I2059*
G01*
Y95685*
X33490*
G75*
G02X26185Y94813I-3900J1630*
G01*
Y89818*
G75*
G02X33817Y87315I3406J-2502*
G01*
Y87315*
G75*
G02X32437Y84191I-4226*
G01*
X60660*
G75*
G02X61927Y83668I4J-1786*
G01*
X65435Y80160*
X65878*
G37*
X154915Y126241D02*
G36*
X139161D01*
Y123601*
X133465*
Y126241*
X129122*
Y123453*
X123425*
Y126241*
X119368*
Y123522*
X113671*
Y126241*
X108896*
Y123886*
X103199*
Y126241*
X89211*
Y123532*
X83514*
Y126241*
X79260*
Y123699*
X73563*
Y126241*
X68837*
Y123187*
X63140*
Y126241*
X57872*
Y124073*
X52175*
Y126241*
X46526*
Y123022*
X41467*
Y126241*
X40604*
Y123392*
X37754*
X35642Y121280*
G75*
G02X34376Y120754I-1266J1262*
G01*
X32047*
G75*
G02X33817Y117315I-2457J-3439*
G01*
G75*
G02X29591Y113089I-4226*
G01*
G75*
G02X26185Y114813J4226*
G01*
Y109818*
G75*
G02X33490Y108945I3406J-2503*
G01*
X42573*
G75*
G02X43727Y108467I0J-1629*
G01*
X46969Y105225*
X67483*
G75*
G02X67079Y105469I874J1900*
G01*
X62233*
G75*
G02X61079Y105948I0J1629*
G01*
X53872Y113154*
G75*
G02X53394Y114308I1150J1154*
G01*
Y114308*
Y118522*
X52175*
Y122841*
X57872*
Y118522*
X56654*
Y114983*
X62908Y108729*
X67079*
G75*
G02X70402Y107099I1261J-1630*
G01*
G75*
G02X69198Y105225I-2062J0*
G01*
X74548*
G75*
G02X74052Y106567I1565J1342*
G01*
G75*
G02X74114Y107071I2063*
G01*
X64837Y116348*
G75*
G02X64358Y117502I1150J1154*
G01*
Y117502*
Y117636*
X63140*
Y121955*
X68837*
Y117636*
X68159*
X76392Y109403*
G75*
G02X77742Y107832I-280J-1606*
G01*
G75*
G02X78175Y106567I-1629J-1265*
G01*
G75*
G02X77678Y105225I-2063*
G01*
X81540*
G75*
G02X80245Y107138I766J1913*
G01*
G75*
G02X80519Y108164I2061*
G01*
Y108319*
G75*
G02X77202Y109953I-1256J1635*
G01*
G75*
G02X77633Y111215I2061*
G01*
Y117270*
X76755Y118148*
X73563*
Y122467*
X79260*
Y120254*
X80414Y119099*
G75*
G02X80893Y117946I-1150J-1154*
G01*
Y117945*
Y117229*
G75*
G02X81042Y117398I1445J-1123*
G01*
X83514Y119870*
Y122300*
X89211*
Y117981*
X86680*
X84093Y115394*
Y111025*
G75*
G02X86824Y111209I1469J-1446*
G01*
X94722*
X103199Y119685*
Y122654*
X108896*
Y118335*
X106459*
X96552Y108428*
G75*
G02X95398Y107949I-1154J1150*
G01*
X86824*
G75*
G02X84131Y108096I-1261J1630*
G01*
G75*
G02X84367Y107138I-1825J-958*
G01*
G75*
G02X83072Y105225I-2061*
G01*
X93026*
G75*
G02X96348Y103595I1261J-1630*
G01*
G75*
G02X93026Y101965I-2061*
G01*
X89672*
G75*
G02X90607Y100239I-1127J-1727*
G01*
G75*
G02X87285Y98609I-2061*
G01*
X68571*
G75*
G02X69209Y97315I-993J-1294*
G01*
Y82585*
G75*
G02X69640Y81324I-1628J-1261*
G01*
G75*
G02Y81323I-2374J0*
G01*
G75*
G02X69280Y80160I-2061*
G01*
X101979*
Y112886*
G75*
G02X103767Y114674I1787*
G01*
X108545*
X113671Y119800*
Y122290*
X119368*
Y117971*
X116898*
X110549Y111622*
G75*
G02X109930Y111219I-1260J1257*
G01*
X115313*
X123425Y119331*
Y122221*
X129122*
Y117902*
X126606*
X117226Y108522*
X122117*
X133465Y119886*
Y122369*
X139161*
Y118050*
X136683*
X124123Y105472*
G75*
G02X122857Y104947I-1264J1262*
G01*
X111295*
Y94804*
G75*
G02X112602Y95461I1307J-972*
G01*
X154915*
Y126241*
G37*
X35547D02*
G36*
X36238Y126932D01*
Y128219*
X31092Y133365*
G75*
G02X25866Y135317I-1502J3951*
G01*
X23315*
G75*
G02X15866I-3724J1998*
G01*
X6354*
Y126241*
X15122*
G75*
G02X14994Y127315I4469J1075*
G01*
G75*
G02X24187I4596*
G01*
G75*
G02X24059Y126241I-4597J0*
G01*
X25503*
G75*
G02X25364Y127315I4088J1075*
G01*
G75*
G02X29591Y131542I4226*
G01*
G75*
G02X33817Y127315J-4226*
G01*
G75*
G02X33678Y126241I-4227J0*
G01*
X35547*
G37*
X52325Y135317D02*
G36*
X34195D01*
X39289Y130223*
G75*
G02X39808Y129089I-1265J-1264*
G01*
X40604*
Y126241*
X41467*
Y129459*
X46526*
Y126241*
X52175*
Y128392*
X54575*
Y131796*
G75*
G02X52325Y135317I1630J3521*
G01*
G37*
X62325D02*
G36*
X60085D01*
G75*
G02X57835Y131796I-3881J1*
G01*
Y128392*
X57872*
Y126241*
X63140*
Y127506*
X64358*
Y131905*
G75*
G02X62325Y135317I1845J3412*
G01*
Y135317*
G37*
X72325D02*
G36*
X70085D01*
G75*
G02X67618Y131704I-3881J1*
G01*
Y127506*
X68837*
Y126241*
X73563*
Y128018*
X74575*
Y131796*
G75*
G02X72325Y135317I1630J3521*
G01*
G37*
X82325D02*
G36*
X80085D01*
G75*
G02X77835Y131796I-3881J1*
G01*
Y128018*
X79260*
Y126241*
X83514*
Y127851*
X84575*
Y131796*
G75*
G02X82325Y135317I1630J3521*
G01*
G37*
X102325D02*
G36*
X100455D01*
G75*
G02X91955I-4250*
G01*
X90085*
G75*
G02X88150Y131960I-3880J0*
G01*
Y127851*
X89211*
Y126241*
X103199*
Y128205*
X104260*
Y131960*
G75*
G02X102325Y135317I1945J3357*
G01*
G37*
X112325D02*
G36*
X110085D01*
G75*
G02X107835Y131796I-3881J1*
G01*
Y128205*
X108896*
Y126241*
X113671*
Y127841*
X114890*
Y131667*
G75*
G02X112325Y135317I1316J3651*
G01*
G37*
X122325D02*
G36*
X120085D01*
G75*
G02X118150Y131960I-3880J0*
G01*
Y127841*
X119368*
Y126241*
X123425*
Y127772*
X124486*
Y131839*
G75*
G02X122325Y135317I1719J3479*
G01*
G37*
X132325D02*
G36*
X130085D01*
G75*
G02X128061Y131910I-3880*
G01*
Y127772*
X129122*
Y126241*
X133465*
Y127920*
X134526*
Y131820*
G75*
G02X132325Y135317I1680J3498*
G01*
G37*
X154915D02*
G36*
X150455D01*
G75*
G02X141955I-4250*
G01*
X140085*
G75*
G02X138100Y131932I-3880*
G01*
Y127920*
X139161*
Y126241*
X154915*
Y135317*
G37*
X140085D02*
G36*
X141955D01*
G75*
G02X150455I4250*
G01*
X154915*
Y146154*
X40270*
Y147315*
X33817*
G75*
G02X25364I-4226*
G01*
X24187*
G75*
G02X14994I-4596*
G01*
X6354*
Y135317*
X15866*
G75*
G02X15364Y137315I3724J1998*
G01*
G75*
G02X23817I4226*
G01*
G75*
G02X23315Y135317I-4226J0*
G01*
X25866*
G75*
G02X25364Y137315I3724J1998*
G01*
G75*
G02X33817I4226*
G01*
G75*
G02X33583Y135929I-4240J2*
G01*
X34195Y135317*
X52325*
G75*
G02X60085I3880*
G01*
X62325*
G75*
G02X70085I3880*
G01*
X72325*
G75*
G02X80085I3880*
G01*
X82325*
G75*
G02X90085I3880*
G01*
X91955*
G75*
G02X100455I4250*
G01*
X102325*
G75*
G02X110085I3880*
G01*
X112325*
G75*
G02X120085I3880*
G01*
X122325*
G75*
G02X130085I3880*
G01*
X132325*
G75*
G02X140085I3880*
G01*
G37*
X40270Y157315D02*
G36*
X33817D01*
G75*
G02X25364I-4226*
G01*
X24187*
G75*
G02X14994I-4596*
G01*
X6354*
Y147315*
X14994*
G75*
G02X24187I4596*
G01*
X25364*
G75*
G02X33817I4226*
G01*
X40270*
Y157315*
G37*
Y169920D02*
G36*
X6354D01*
Y157315*
X14994*
G75*
G02X24187I4596*
G01*
X25364*
G75*
G02X33817I4226*
G01*
X40270*
Y169920*
G37*
X198085Y224766D02*
X170634D01*
Y250219*
X32839Y250504*
Y172739*
X42848*
Y150731*
X157199*
Y115504*
X165551*
Y143085*
G75*
G02X164705Y145622I3380J2537*
G01*
G75*
G02X173157I4226*
G01*
G75*
G02X172311Y143085I-4226*
G01*
Y115504*
X198085*
Y224766*
X173449Y178024D02*
G75*
G02X182642I4596D01*
G01*
G75*
G02X173449I-4596*
G01*
X174705Y145622D02*
G75*
G02X183157I4226D01*
G01*
G75*
G02X174705I-4226*
G01*
X178341Y130061D02*
X191470D01*
Y116931*
X178341*
Y130061*
X175748Y197542D02*
G75*
G02X179870I2061D01*
G01*
G75*
G02X175748I-2061*
G01*
X183661Y178024D02*
G75*
G02X192114I4226D01*
G01*
G75*
G02X183661I-4226*
G01*
X184705Y145622D02*
G75*
G02X193157I4226D01*
G01*
G75*
G02X184705I-4226*
G01*
X82325Y171617D02*
G75*
G02X90085I3880D01*
G01*
G75*
G02X89585Y169711I-3880*
G01*
Y168359*
G75*
G02X88593Y165967I-3380*
G01*
X82258Y159632*
G75*
G02X79866Y158640I-2392J2388*
G01*
X49138*
G75*
G02X45758Y162020J3380*
G01*
Y196754*
G75*
G02X46750Y199146I3380*
G01*
X57592Y209989*
G75*
G02X59984Y210980I2392J-2388*
G01*
X60892*
G75*
G02X67656Y207600I2537J-3380*
G01*
G75*
G02X61183Y204020I-4226*
G01*
X52518Y195354*
Y172825*
G75*
G02X60085Y171617I3687J-1208*
G01*
G75*
G02X52518Y170408I-3880*
G01*
Y165400*
X78466*
X82808Y169742*
G75*
G02X82325Y171617I3397J1875*
G01*
X59203Y197600D02*
G75*
G02X67656I4226D01*
G01*
G75*
G02X59203I-4226*
G01*
X111549Y243763D02*
G75*
G02X118089Y240226I2313J-3537D01*
G01*
G75*
G02X112089Y236389I-4226J0*
G01*
X101683Y225862*
G75*
G02X101665Y225843I-2800J2723*
G01*
X92951Y217130*
G75*
G02X90447Y216091I-2504J2498*
G01*
X90347*
X84978Y210722*
Y184180*
G75*
G02Y184177I-1420J-2*
G01*
G75*
G02Y184176I-1471J0*
G01*
G75*
G02X83942Y181674I-3537J0*
G01*
X79742Y177474*
Y173211*
G75*
G02X80085Y171617I-3538J-1594*
G01*
G75*
G02X72325I-3880*
G01*
G75*
G02X72667Y173211I3880*
G01*
Y179176*
G75*
G02X74581Y182319I3537*
G01*
X77904Y185641*
Y190450*
G75*
G02X76929Y188667I-3461J733*
G01*
X69742Y181557*
Y173211*
G75*
G02X70085Y171617I-3538J-1594*
G01*
G75*
G02X62325I-3880*
G01*
G75*
G02X62667Y173211I3880*
G01*
Y183034*
G75*
G02X63719Y185550I3537J0*
G01*
X70906Y192660*
Y228211*
G75*
G02X71944Y230715I3537*
G01*
X83579Y242350*
G75*
G02X86083Y243389I2504J-2498*
G01*
X86843*
G75*
G02X93382Y239851I2313J-3537*
G01*
G75*
G02X87292Y236058I-4226*
G01*
X77980Y226746*
Y212920*
G75*
G02X78943Y214692I3461J-733*
G01*
X86378Y222127*
G75*
G02X88882Y223166I2504J-2498*
G01*
X88981*
X96658Y230842*
X108391Y242712*
G75*
G02X110910Y243763I2516J-2487*
G01*
X111549*
X84929Y229851D02*
G75*
G02X93382I4226D01*
G01*
G75*
G02X84929I-4226*
G01*
X109636Y230226D02*
G75*
G02X118089I4226D01*
G01*
G75*
G02X109636I-4226*
G01*
X110030Y197519D02*
G75*
G02X118482I4226D01*
G01*
G75*
G02X110030I-4226*
G01*
X125544Y204249D02*
G75*
G02X126583Y201744I-2498J-2504D01*
G01*
Y190180*
G75*
G02X125525Y187657I-3537*
G01*
X119742Y181974*
Y173211*
G75*
G02X120085Y171617I-3538J-1594*
G01*
G75*
G02X112325I-3880*
G01*
G75*
G02X112667Y173211I3880*
G01*
Y183457*
G75*
G02X113725Y185980I3537*
G01*
X119508Y191663*
Y200279*
X116080Y203707*
G75*
G02X110030Y207519I-1824J3812*
G01*
G75*
G02X116569Y211056I4227J0*
G01*
X117271*
G75*
G02X119775Y210017J-3537*
G01*
X125544Y204249*
X137436Y210539D02*
G75*
G02X144486Y207394I2824J-3144D01*
G01*
G75*
G02X139332Y203271I-4226*
G01*
X135421Y199360*
Y188605*
G75*
G02X134430Y186213I-3380*
G01*
X129585Y181368*
Y173522*
G75*
G02X130085Y171617I-3380J-1905*
G01*
G75*
G02X122325I-3880*
G01*
G75*
G02X122825Y173522I3880*
G01*
Y183034*
G75*
G02X124733Y186077I3380*
G01*
X128661Y190005*
Y200760*
G75*
G02X129653Y203152I3380*
G01*
X136283Y209782*
G75*
G02X137436Y210539I2392J-2389*
G01*
X136033Y197394D02*
G75*
G02X144486I4226D01*
G01*
G75*
G02X136033I-4226*
G01*
X153989Y234426D02*
G75*
G02X155028Y231922I-2498J-2504D01*
G01*
Y190327*
G75*
G02X153968Y187803I-3537*
G01*
X145968Y179950*
X139742Y173724*
Y173211*
G75*
G02X140085Y171617I-3538J-1594*
G01*
G75*
G02X132325I-3880*
G01*
G75*
G02X132667Y173211I3880*
G01*
Y175189*
G75*
G02X133706Y177694I3537*
G01*
X140974Y184961*
G75*
G02X141000Y184987I2426J-2437*
G01*
X147953Y191812*
Y230456*
X142285Y236124*
G75*
G02X135849Y239726I-2210J3602*
G01*
G75*
G02X142388Y243264I4227J0*
G01*
X143685*
G75*
G02X146190Y242225J-3537*
G01*
X153989Y234426*
X141955Y171617D02*
G75*
G02X150455I4250D01*
G01*
G75*
G02X141955I-4250*
G01*
X85108Y197644D02*
G75*
G02X93561I4226D01*
G01*
G75*
G02X85108I-4226*
G01*
X91955Y171617D02*
G75*
G02X100455I4250D01*
G01*
G75*
G02X91955I-4250*
G01*
X109585Y173522D02*
G75*
G02X110085Y171617I-3380J-1905D01*
G01*
G75*
G02X102325I-3880*
G01*
G75*
G02X102825Y173522I3880*
G01*
Y182085*
X101736*
G75*
G02X98356Y185465J3380*
G01*
Y197077*
X91449Y203984*
G75*
G02X85108Y207644I-2114J3659*
G01*
G75*
G02X91872Y211024I4226*
G01*
X92569*
G75*
G02X94961Y210032J-3380*
G01*
X104124Y200869*
G75*
G02X105116Y198477I-2388J-2392*
G01*
Y188845*
X106205*
G75*
G02X109585Y185465J-3380*
G01*
Y173522*
X58907Y229851D02*
G75*
G02X67360I4226D01*
G01*
G75*
G02X58907I-4226*
G01*
Y239851D02*
G75*
G02X67360I4226D01*
G01*
G75*
G02X58907I-4226*
G01*
X135849Y229726D02*
G75*
G02X144302I4226D01*
G01*
G75*
G02X135849I-4226*
G01*
X165551Y123496D02*
G36*
X157199D01*
Y115754*
X165551*
Y123496*
G37*
X191470D02*
G36*
Y116931D01*
X178341*
Y123496*
X172311*
Y115754*
X197835*
Y123496*
X191470*
G37*
X164705Y145622D02*
G36*
X157199D01*
Y123496*
X165551*
Y143085*
G75*
G02X164705Y145622I3382J2538*
G01*
G37*
X173157D02*
G36*
G75*
G02X172311Y143085I-4229J1D01*
G01*
Y123496*
X178341*
Y130061*
X191470*
Y123496*
X197835*
Y145622*
X193157*
G75*
G02X184705I-4226*
G01*
X183157*
G75*
G02X174705I-4226*
G01*
X173157*
G37*
X82325Y171617D02*
G36*
X80085D01*
G75*
G02X72325I-3880*
G01*
X70085*
G75*
G02X62325I-3880*
G01*
X60085*
G75*
G02X52518Y170408I-3880*
G01*
Y165400*
X78466*
X82808Y169742*
G75*
G02X82325Y171617I3400J1876*
G01*
G37*
X173157Y145622D02*
G36*
X174705D01*
G75*
G02X183157I4226*
G01*
X184705*
G75*
G02X193157I4226*
G01*
X197835*
Y171617*
X150455*
G75*
G02X141955I-4250*
G01*
X140085*
G75*
G02X132325I-3880*
G01*
X130085*
G75*
G02X122325I-3880*
G01*
X120085*
G75*
G02X112325I-3880*
G01*
X110085*
G75*
G02X102325I-3880*
G01*
X100455*
G75*
G02X91955I-4250*
G01*
X90085*
G75*
G02X89585Y169711I-3883J1*
G01*
Y168359*
G75*
G02X88593Y165967I-3381J1*
G01*
X82258Y159632*
G75*
G02X79866Y158640I-2393J2390*
G01*
X49138*
G75*
G02X45758Y162020J3380*
G01*
Y171617*
X42848*
Y150731*
X157199*
Y145622*
X164705*
G75*
G02X173157I4226*
G01*
G37*
X45758Y171617D02*
G36*
Y178024D01*
X33089*
Y172739*
X42848*
Y171617*
X45758*
G37*
X72667Y178024D02*
G36*
X69742D01*
Y173211*
G75*
G02X70085Y171617I-3538J-1594*
G01*
X72325*
G75*
G02X72667Y173211I3881*
G01*
Y178024*
G37*
X62325Y171617D02*
G36*
G75*
G02X62667Y173211I3881D01*
G01*
Y178024*
X52518*
Y172825*
G75*
G02X60085Y171617I3687J-1208*
G01*
X62325*
G37*
X102325D02*
G36*
G75*
G02X102825Y173522I3883J-1D01*
G01*
Y178024*
X80292*
X79742Y177474*
Y173211*
G75*
G02X80085Y171617I-3538J-1594*
G01*
X82325*
G75*
G02X90085I3880*
G01*
X91955*
G75*
G02X100455I4250*
G01*
X102325*
G37*
X112325D02*
G36*
G75*
G02X112667Y173211I3881D01*
G01*
Y178024*
X109585*
Y173522*
G75*
G02X110085Y171617I-3380J-1906*
G01*
X112325*
G37*
X122325D02*
G36*
G75*
G02X122825Y173522I3883J-1D01*
G01*
Y178024*
X119742*
Y173211*
G75*
G02X120085Y171617I-3538J-1594*
G01*
X122325*
G37*
X134037Y178024D02*
G36*
X129585D01*
Y173522*
G75*
G02X130085Y171617I-3380J-1906*
G01*
X132325*
G75*
G02X132667Y173211I3881*
G01*
Y175189*
G75*
G02X133706Y177694I3539J0*
G01*
X134037Y178024*
G37*
X144042D02*
G36*
X139742Y173724D01*
Y173211*
G75*
G02X140085Y171617I-3538J-1594*
G01*
X141955*
G75*
G02X150455I4250*
G01*
X197835*
Y178024*
X192114*
G75*
G02X183661I-4226*
G01*
X182642*
G75*
G02X173449I-4596*
G01*
X144042*
G37*
X45851Y197542D02*
G36*
X33089D01*
Y178024*
X45758*
Y196754*
G75*
G02X45851Y197542I3382J-2*
G01*
G37*
X70906D02*
G36*
X67655D01*
G75*
G02X59203I-4226J59*
G01*
X54705*
X52518Y195354*
Y178024*
X62667*
Y183034*
G75*
G02X63719Y185550I3538J0*
G01*
X70906Y192660*
Y197542*
G37*
X72667Y178024D02*
G36*
Y179176D01*
G75*
G02X74581Y182319I3538J0*
G01*
X77904Y185641*
Y190450*
G75*
G02X76929Y188667I-3462J734*
G01*
X69742Y181557*
Y178024*
X72667*
G37*
X102825D02*
G36*
Y182085D01*
X101736*
G75*
G02X98356Y185465J3380*
G01*
Y197077*
X97891Y197542*
X93560*
G75*
G02X85109I-4225J102*
G01*
X84978*
Y184180*
Y184177*
Y184176*
G75*
G02X83942Y181674I-3537*
G01*
X80292Y178024*
X102825*
G37*
X119508Y197542D02*
G36*
X118482D01*
G75*
G02Y197519I-4234J-11*
G01*
G75*
G02X110030I-4226*
G01*
G75*
G02Y197542I4234J11*
G01*
X105116*
Y188845*
X106205*
G75*
G02X109585Y185465J-3380*
G01*
Y178024*
X112667*
Y183457*
G75*
G02X113725Y185980I3538J0*
G01*
X119508Y191663*
Y197542*
G37*
X128661D02*
G36*
X126583D01*
Y190180*
G75*
G02X125525Y187657I-3538J0*
G01*
X119742Y181974*
Y178024*
X122825*
Y183034*
Y183034*
G75*
G02X124733Y186077I3379*
G01*
X128661Y190005*
Y197542*
G37*
X147953D02*
G36*
X144483D01*
G75*
G02X144486Y197394I-4226J-153*
G01*
G75*
G02X136033I-4226*
G01*
G75*
G02X136036Y197542I4228J-5*
G01*
X135421*
Y188605*
G75*
G02X134430Y186213I-3381J1*
G01*
X129585Y181368*
Y178024*
X134037*
X140974Y184961*
G75*
G02X141000Y184987I884J-871*
G01*
X147953Y191812*
Y197542*
G37*
X155028D02*
G36*
Y190327D01*
G75*
G02X153968Y187803I-3537*
G01*
X145968Y179950*
X144042Y178024*
X173449*
G75*
G02X182642I4596*
G01*
X183661*
G75*
G02X192114I4226*
G01*
X197835*
Y197542*
X179870*
G75*
G02X175748I-2061*
G01*
X155028*
G37*
X70906D02*
G36*
Y228211D01*
G75*
G02X71309Y229851I3539*
G01*
X67360*
G75*
G02X58907I-4226*
G01*
X33089*
Y197542*
X45851*
G75*
G02X46750Y199146I3289J-788*
G01*
X57592Y209989*
G75*
G02X59984Y210980I2393J-2390*
G01*
X60892*
G75*
G02X67656Y207601I2537J-3380*
G01*
Y207600*
G75*
G02X61183Y204020I-4226*
G01*
X54705Y197542*
X59203*
G75*
G02X59203Y197600I4228J58*
G01*
G75*
G02X67656I4226*
G01*
G75*
G02X67655Y197542I-4228J-1*
G01*
X70906*
G37*
X95667Y229851D02*
G36*
X93382D01*
G75*
G02X84929I-4226*
G01*
X81086*
X77980Y226746*
Y212920*
G75*
G02X78943Y214692I3463J-735*
G01*
X86378Y222127*
G75*
G02X88882Y223166I2505J-2500*
G01*
X88981*
X95667Y229851*
G37*
X147953D02*
G36*
X144300D01*
G75*
G02X144302Y229726I-4225J-129*
G01*
G75*
G02X135849I-4226*
G01*
G75*
G02X135851Y229851I4227J-4*
G01*
X118072*
G75*
G02X109652I-4210J374*
G01*
X105626*
X101683Y225862*
G75*
G02X101665Y225843I-454J426*
G01*
X92951Y217130*
G75*
G02X90447Y216091I-2505J2500*
G01*
X90347*
X84978Y210722*
Y197542*
X85109*
G75*
G02X85108Y197644I4227J100*
G01*
G75*
G02X93561I4226*
G01*
G75*
G02X93560Y197542I-4228J-2*
G01*
X97891*
X91449Y203984*
G75*
G02X85108Y207644I-2114J3660*
G01*
Y207644*
G75*
G02X91872Y211024I4226*
G01*
X92569*
G75*
G02X94961Y210032I-1J-3381*
G01*
X104124Y200869*
G75*
G02X105116Y198477I-2390J-2393*
G01*
Y197542*
X110030*
G75*
G02X118482I4226J-23*
G01*
X119508*
Y200279*
X116080Y203707*
G75*
G02X110030Y207519I-1824J3812*
G01*
G75*
G02X116569Y211056I4227J0*
G01*
X117271*
G75*
G02X119775Y210017I0J-3539*
G01*
X125544Y204249*
G75*
G02X126583Y201744I-2500J-2505*
G01*
Y197542*
X128661*
Y200760*
G75*
G02X129653Y203152I3381J-1*
G01*
X136283Y209782*
G75*
G02X137436Y210539I2395J-2393*
G01*
G75*
G02X144486Y207394I2824J-3144*
G01*
Y207394*
G75*
G02X139332Y203271I-4226*
G01*
X135421Y199360*
Y197542*
X136036*
G75*
G02X144483I4224J-148*
G01*
X147953*
Y229851*
G37*
X197835Y224766D02*
G36*
X170634D01*
Y229851*
X155028*
Y197542*
X175748*
G75*
G02X179870I2061*
G01*
X197835*
Y224766*
G37*
X81080Y239851D02*
G36*
X67360D01*
G75*
G02X58907I-4226*
G01*
X33089*
Y229851*
X58907*
G75*
G02X67360I4226*
G01*
X71309*
G75*
G02X71944Y230715I3135J-1641*
G01*
X81080Y239851*
G37*
X105563D02*
G36*
X93382D01*
G75*
G02X87292Y236058I-4226J0*
G01*
X81086Y229851*
X84929*
G75*
G02X93382I4226*
G01*
X95667*
X96658Y230842*
X105563Y239851*
G37*
X147953Y229851D02*
G36*
Y230456D01*
X142285Y236124*
G75*
G02X135849Y239726I-2210J3602*
G01*
Y239726*
G75*
G02X135851Y239851I4227J-4*
G01*
X118072*
G75*
G02X112089Y236389I-4209J374*
G01*
X105626Y229851*
X109652*
G75*
G02X109636Y230226I4210J374*
G01*
G75*
G02X118089I4226*
G01*
G75*
G02X118072Y229851I-4227J-1*
G01*
X135851*
G75*
G02X144300I4224J-125*
G01*
X147953*
G37*
X170634Y239851D02*
G36*
X148563D01*
X153989Y234426*
G75*
G02X155028Y231922I-2500J-2505*
G01*
Y229851*
X170634*
Y239851*
G37*
X153528Y250254D02*
G36*
X33089D01*
Y239851*
X58907*
G75*
G02X67360I4226*
G01*
X81080*
X83579Y242350*
G75*
G02X86083Y243389I2505J-2500*
G01*
X86843*
G75*
G02X93382Y239851I2313J-3538*
G01*
X105563*
X108391Y242712*
G75*
G02X110910Y243763I2515J-2485*
G01*
X111549*
G75*
G02X118089Y240226I2313J-3538*
G01*
Y240225*
G75*
G02X118072Y239851I-4227J0*
G01*
X135851*
G75*
G02X142388Y243264I4225J-125*
G01*
X143685*
G75*
G02X146190Y242225I0J-3539*
G01*
X148563Y239851*
X170634*
Y250219*
X153528Y250254*
G37*
D02*
D25*
X16744Y97315D02*
X14744D01*
X16744Y107315D02*
X14744D01*
X16744Y117315D02*
X14744D01*
X16744Y127315D02*
X14744D01*
X16744Y147315D02*
X14744D01*
X16744Y157315D02*
X14744D01*
X19591Y94469D02*
Y92469D01*
Y100162D02*
Y102162D01*
Y104469D02*
Y102469D01*
Y110162D02*
Y112162D01*
Y114469D02*
Y112469D01*
Y120162D02*
Y122162D01*
Y124469D02*
Y122469D01*
Y130162D02*
Y132162D01*
Y144469D02*
Y142469D01*
Y150162D02*
Y152162D01*
Y154469D02*
Y152469D01*
Y160162D02*
Y162162D01*
X22437Y127315D02*
X24437D01*
X22437Y147315D02*
X24437D01*
X22437Y157315D02*
X24437D01*
X26744Y77315D02*
X24744D01*
X29591Y74469D02*
Y72469D01*
X32437Y77315D02*
X34437D01*
X43216Y126241D02*
X41215D01*
X43995Y124772D02*
Y122774D01*
Y127709D02*
Y129711D01*
X44775Y126241D02*
X46774D01*
X75504Y39166D02*
X73504D01*
X76972Y38386D02*
Y36386D01*
Y39945D02*
Y41945D01*
X78441Y39166D02*
X80441D01*
X86921Y42246D02*
X84921D01*
X87701Y40680D02*
Y38680D01*
Y43813D02*
Y45813D01*
X88480Y42246D02*
X90480D01*
X93705Y135317D02*
X91705D01*
X93705Y171617D02*
X91705D01*
X96205Y132817D02*
Y130817D01*
Y137817D02*
Y139817D01*
Y169117D02*
Y167117D01*
Y174117D02*
Y176117D01*
X97374Y39264D02*
X95374D01*
X98705Y135317D02*
X100705D01*
X98705Y171617D02*
X100705D01*
X98843Y40044D02*
Y42044D01*
X100311Y39264D02*
X102311D01*
X117944Y41353D02*
X115944D01*
X117944Y51353D02*
X115944D01*
X120791Y38507D02*
Y36507D01*
Y44200D02*
Y46200D01*
Y48507D02*
Y46507D01*
Y54200D02*
Y56200D01*
X123637Y41353D02*
X125637D01*
X123637Y51353D02*
X125637D01*
X132236Y80160D02*
X130236D01*
X133016Y78691D02*
Y76691D01*
Y81628D02*
Y83628D01*
X133795Y80160D02*
X135795D01*
X143705Y135317D02*
X141705D01*
X143705Y171617D02*
X141705D01*
X146205Y132817D02*
Y130817D01*
Y137817D02*
Y139817D01*
Y169117D02*
Y167117D01*
Y174117D02*
Y176117D01*
X148705Y135317D02*
X150705D01*
X148705Y171617D02*
X150705D01*
X175199Y178024D02*
X173199D01*
X178045Y175178D02*
Y173178D01*
Y180870D02*
Y182870D01*
X180091Y123496D02*
X178091D01*
X180892Y178024D02*
X182892D01*
X184906Y118681D02*
Y116681D01*
Y128311D02*
Y130311D01*
X189720Y123496D02*
X191720D01*
D02*
D27*
X18360Y39865D03*
Y239865D03*
X187691Y39865D03*
Y239865D03*
D02*
D73*
X38444Y126241D03*
X43995D03*
X127465Y80160D03*
X133016D03*
D02*
D74*
X55024Y120681D03*
Y126233D03*
X65988Y119796D03*
Y125347D03*
X76411Y120307D03*
Y125859D03*
X76972Y33615D03*
Y39166D03*
X86362Y120140D03*
Y125691D03*
X98843Y33713D03*
Y39264D03*
X106047Y120494D03*
Y126046D03*
X116520Y120130D03*
Y125681D03*
X126274Y120061D03*
Y125613D03*
X136313Y120209D03*
Y125760D03*
D02*
D77*
X19591Y67315D03*
Y77315D03*
Y87315D03*
Y97315D03*
Y107315D03*
Y117315D03*
Y127315D03*
Y137315D03*
Y147315D03*
Y157315D03*
X29591Y67315D03*
Y77315D03*
Y87315D03*
Y97315D03*
Y107315D03*
Y117315D03*
Y127315D03*
Y137315D03*
Y147315D03*
Y157315D03*
X63134Y229851D03*
Y239851D03*
X63429Y197600D03*
Y207600D03*
X89156Y229851D03*
Y239851D03*
X89335Y197644D03*
Y207644D03*
X110791Y41353D03*
Y51353D03*
X113862Y230226D03*
Y240226D03*
X114256Y197519D03*
Y207519D03*
X120791Y41353D03*
Y51353D03*
X130791Y41353D03*
Y51353D03*
X140075Y229726D03*
Y239726D03*
X140260Y197394D03*
Y207394D03*
X140791Y41353D03*
Y51353D03*
X150791Y41353D03*
Y51353D03*
X168931Y145622D03*
X178045Y178024D03*
X178931Y145622D03*
X187888Y178024D03*
X188931Y145622D03*
D02*
D79*
X56205Y135317D03*
Y171617D03*
X66205Y135317D03*
Y171617D03*
X76205Y135317D03*
Y171617D03*
X86205Y135317D03*
Y171617D03*
X96205Y135317D03*
Y171617D03*
X106205Y135317D03*
Y171617D03*
X116205Y135317D03*
Y171617D03*
X126205Y135317D03*
Y171617D03*
X136205Y135317D03*
Y171617D03*
X146205Y135317D03*
Y171617D03*
D02*
D80*
X184906Y123496D03*
D02*
D81*
Y107906D03*
D02*
D84*
X11972Y147660D03*
X36264Y102374D03*
X39157Y33319D03*
X43902Y121095D03*
X48537Y113349D03*
X51136Y59520D03*
X59571Y55878D03*
X67324Y74975D03*
X67579Y81323D03*
X68341Y107099D03*
X71323Y71203D03*
Y76320D03*
X71573Y65961D03*
X72396Y33637D03*
X75567Y71328D03*
Y76444D03*
X75816Y66086D03*
X76113Y106567D03*
X76982Y44008D03*
X79263Y109953D03*
X79810Y71328D03*
Y76444D03*
X80059Y66086D03*
X82306Y107138D03*
X83921Y33585D03*
X84303Y71328D03*
Y76444D03*
X84552Y66086D03*
X85562Y109579D03*
X87937Y37620D03*
X88546Y100239D03*
X91539Y41203D03*
X94287Y103595D03*
X96274Y141567D03*
X98026Y50839D03*
X100959Y48103D03*
X103767Y71874D03*
X103892Y39451D03*
X106451Y68725D03*
X109507Y72230D03*
X127465Y80160D03*
X131933Y100888D03*
X150663Y70583D03*
X154640Y61882D03*
X161274Y93831D03*
X166490Y58949D03*
X169974Y90465D03*
X177809Y197542D03*
D02*
D87*
X153085Y126380D03*
X159610Y125967D03*
D02*
D88*
X66205Y171617D02*
Y183034D01*
X66293*
X74443Y191183*
Y228211*
X86083Y239851*
X89156*
X76205Y171617D02*
Y179176D01*
X76441*
X81441Y184176*
Y212187*
X88882Y219628*
X90447*
X99167Y228349*
Y228487*
X110906Y240226*
X113862*
X86205Y171617D02*
Y168359D01*
X79866Y162020*
X49138*
Y196754*
X59984Y207600*
X63429*
X91480Y33585D02*
X98843D01*
Y33713*
X110791*
Y41353*
X106205Y171617D02*
Y185465D01*
X101736*
Y198477*
X92569Y207644*
X89335*
X116205Y171617D02*
Y183457D01*
X116323*
X123045Y190180*
Y201744*
X117271Y207519*
X114256*
X126205Y171617D02*
Y183034D01*
X126470*
X132041Y188605*
Y200760*
X138675Y207394*
X140260*
X136205Y171617D02*
Y175189D01*
X143478Y182463*
X143626*
X151490Y190327*
Y231922*
X143685Y239726*
X140075*
X152671Y127266D02*
Y126823D01*
X153085*
Y126380*
Y121134D02*
X159935D01*
X159610Y125967D02*
X168931Y145622*
Y107906D01*
X184906*
D02*
D100*
X83921Y33585D03*
X87701Y42246D03*
X91480Y33585D03*
D02*
D120*
X19591Y77315D02*
X13508D01*
Y55878*
X59571*
X29591Y107315D02*
X42573D01*
X46293Y103595*
X94287*
X36264Y102374D02*
X41231D01*
X43367Y100239*
X88546*
X38444Y126241D02*
X38075D01*
X34376Y122542*
X26394*
X24397Y120545*
Y84928*
X26922Y82404*
X60663*
X64254Y78813*
Y78794*
X67324Y75724*
Y74975*
X38444Y126241D02*
X38026D01*
Y128959*
X29669Y137315*
X29591*
X55024Y126233D02*
X56205D01*
Y135317*
X65988Y125347D02*
Y135317D01*
X66205*
X67579Y81323D02*
Y97315D01*
X29591*
X68341Y107099D02*
X62233D01*
X55024Y114308*
Y120681*
X72396Y33637D02*
Y33615D01*
X76972*
X76113Y106567D02*
Y107798D01*
X75693*
X65988Y117502*
Y119796*
X76411Y125859D02*
X76205D01*
Y135317*
X79263Y109953D02*
Y117945D01*
X76901Y120307*
X76411*
X82306Y107138D02*
Y116134D01*
X86312Y120140*
X86362*
X83921Y33585D02*
X83193D01*
Y33615*
X76972*
X85562Y109579D02*
X95398D01*
X106047Y120229*
Y120494*
X86362Y125691D02*
Y135317D01*
X86205*
X98026Y50839D02*
Y55239D01*
X104463Y61676*
X104669*
X112602Y69609*
Y93831*
X161274*
X100959Y48103D02*
X103685D01*
Y57246*
X104965Y58526*
X105093*
X115890Y69323*
Y90465*
X169974*
X103767Y71874D02*
Y112886D01*
X109285*
X116520Y120120*
Y120130*
X106047Y126046D02*
Y135317D01*
X106205*
X106451Y68725D02*
Y109589D01*
X115988*
X126274Y119874*
Y120061*
X110791Y41353D02*
Y51353D01*
X116520Y125681D02*
Y135317D01*
X116205*
X126274Y125613D02*
Y135317D01*
X126205*
X127465Y80160D02*
X136313Y120209*
Y120189D01*
X122858Y106735*
X109507*
Y72230*
X136313Y125760D02*
X136205D01*
Y135317*
X0Y0D02*
M02*
