G04 EasyPC Gerber Version 21.0.3 Build 4286 *
G04 #@! TF.Part,Single*
G04 #@! TF.FileFunction,Soldermask,Bot *
G04 #@! TF.FilePolarity,Negative *
%FSLAX45Y45*%
%MOIN*%
G04 #@! TA.AperFunction,SMDPad*
%ADD11R,0.03559X0.04937*%
%ADD102R,0.03559X0.05134*%
G04 #@! TA.AperFunction,ComponentPad*
%ADD16R,0.11630X0.11630*%
%ADD97C,0.07000*%
%ADD19C,0.07693*%
%ADD17C,0.11630*%
G04 #@! TA.AperFunction,SMDPad*
%ADD93R,0.04937X0.03559*%
G04 #@! TA.AperFunction,WasherPad*
%ADD89C,0.25016*%
X0Y0D02*
D02*
D11*
X38444Y126241D03*
X43995D03*
X127465Y80160D03*
X133016D03*
D02*
D16*
X184906Y123496D03*
D02*
D17*
Y107906D03*
D02*
D19*
X19591Y67315D03*
Y77315D03*
Y87315D03*
Y97315D03*
Y107315D03*
Y117315D03*
Y127315D03*
Y137315D03*
Y147315D03*
Y157315D03*
X29591Y67315D03*
Y77315D03*
Y87315D03*
Y97315D03*
Y107315D03*
Y117315D03*
Y127315D03*
Y137315D03*
Y147315D03*
Y157315D03*
X63134Y229851D03*
Y239851D03*
X63429Y197600D03*
Y207600D03*
X89156Y229851D03*
Y239851D03*
X89335Y197644D03*
Y207644D03*
X110791Y41353D03*
Y51353D03*
X113862Y230226D03*
Y240226D03*
X114256Y197519D03*
Y207519D03*
X120791Y41353D03*
Y51353D03*
X130791Y41353D03*
Y51353D03*
X140075Y229726D03*
Y239726D03*
X140260Y197394D03*
Y207394D03*
X140791Y41353D03*
Y51353D03*
X150791Y41353D03*
Y51353D03*
X168931Y145622D03*
X178045Y178024D03*
X178931Y145622D03*
X187888Y178024D03*
X188931Y145622D03*
D02*
D89*
X18360Y39865D03*
Y239865D03*
X187691Y39865D03*
Y239865D03*
D02*
D93*
X55024Y120681D03*
Y126233D03*
X65988Y119796D03*
Y125347D03*
X76411Y120307D03*
Y125859D03*
X76972Y33615D03*
Y39166D03*
X86362Y120140D03*
Y125691D03*
X98843Y33713D03*
Y39264D03*
X106047Y120494D03*
Y126046D03*
X116520Y120130D03*
Y125681D03*
X126274Y120061D03*
Y125613D03*
X136313Y120209D03*
Y125760D03*
D02*
D97*
X56205Y135317D03*
Y171617D03*
X66205Y135317D03*
Y171617D03*
X76205Y135317D03*
Y171617D03*
X86205Y135317D03*
Y171617D03*
X96205Y135317D03*
Y171617D03*
X106205Y135317D03*
Y171617D03*
X116205Y135317D03*
Y171617D03*
X126205Y135317D03*
Y171617D03*
X136205Y135317D03*
Y171617D03*
X146205Y135317D03*
Y171617D03*
D02*
D102*
X83921Y33585D03*
X87701Y42246D03*
X91480Y33585D03*
X0Y0D02*
M02*
