G04 EasyPC Gerber Version 21.0.3 Build 4286 *
G04 #@! TF.Part,Single*
G04 #@! TF.FileFunction,Soldermask,Top *
G04 #@! TF.FilePolarity,Negative *
%FSLAX45Y45*%
%MOIN*%
G04 #@! TA.AperFunction,SMDPad*
%ADD122R,0.03362X0.06807*%
%ADD11R,0.03559X0.04937*%
%ADD95R,0.03559X0.06906*%
%ADD96R,0.04346X0.04740*%
G04 #@! TA.AperFunction,ComponentPad*
%ADD16R,0.11630X0.11630*%
%ADD97C,0.07000*%
%ADD19C,0.07693*%
%ADD17C,0.11630*%
G04 #@! TA.AperFunction,SMDPad*
%ADD94R,0.09268X0.02575*%
%ADD121R,0.06807X0.03362*%
%ADD93R,0.04937X0.03559*%
G04 #@! TA.AperFunction,WasherPad*
%ADD89C,0.25016*%
G04 #@! TA.AperFunction,SMDPad*
%ADD140R,0.04740X0.04346*%
X0Y0D02*
D02*
D11*
X49030Y106961D03*
X54581D03*
X62642Y33637D03*
X68193D03*
X126047Y61981D03*
X131598D03*
X143646Y61902D03*
X149197D03*
X173872Y216941D03*
X179423D03*
D02*
D16*
X184906Y123496D03*
D02*
D17*
Y107906D03*
D02*
D19*
X19591Y67315D03*
Y77315D03*
Y87315D03*
Y97315D03*
Y107315D03*
Y117315D03*
Y127315D03*
Y137315D03*
Y147315D03*
Y157315D03*
X29591Y67315D03*
Y77315D03*
Y87315D03*
Y97315D03*
Y107315D03*
Y117315D03*
Y127315D03*
Y137315D03*
Y147315D03*
Y157315D03*
X63134Y229851D03*
Y239851D03*
X63429Y197600D03*
Y207600D03*
X89156Y229851D03*
Y239851D03*
X89335Y197644D03*
Y207644D03*
X110791Y41353D03*
Y51353D03*
X113862Y230226D03*
Y240226D03*
X114256Y197519D03*
Y207519D03*
X120791Y41353D03*
Y51353D03*
X130791Y41353D03*
Y51353D03*
X140075Y229726D03*
Y239726D03*
X140260Y197394D03*
Y207394D03*
X140791Y41353D03*
Y51353D03*
X150791Y41353D03*
Y51353D03*
X168931Y145622D03*
X178045Y178024D03*
X178931Y145622D03*
X187888Y178024D03*
X188931Y145622D03*
D02*
D89*
X18360Y39865D03*
Y239865D03*
X187691Y39865D03*
Y239865D03*
D02*
D93*
X51116Y65957D03*
Y71508D03*
X51599Y91393D03*
Y96944D03*
X101844Y56545D03*
Y62096D03*
X161274Y79284D03*
Y84835D03*
X169974Y79628D03*
Y85180D03*
D02*
D94*
X49103Y76741D03*
Y81465D03*
Y86189D03*
D02*
D95*
X121923Y70435D03*
Y91695D03*
X126923Y70435D03*
Y91695D03*
X131923Y70435D03*
Y91695D03*
X136923Y70435D03*
Y91695D03*
D02*
D96*
X46510Y33416D03*
X52809D03*
D02*
D97*
X56205Y135317D03*
Y171617D03*
X66205Y135317D03*
Y171617D03*
X76205Y135317D03*
Y171617D03*
X86205Y135317D03*
Y171617D03*
X96205Y135317D03*
Y171617D03*
X106205Y135317D03*
Y171617D03*
X116205Y135317D03*
Y171617D03*
X126205Y135317D03*
Y171617D03*
X136205Y135317D03*
Y171617D03*
X146205Y135317D03*
Y171617D03*
D02*
D121*
X61003Y62426D03*
Y65575D03*
Y68725D03*
Y71874D03*
Y75024D03*
Y78174D03*
Y81323D03*
Y84473D03*
X94373Y62426D03*
Y65575D03*
Y68725D03*
Y71874D03*
Y75024D03*
Y78174D03*
Y81323D03*
Y84473D03*
D02*
D122*
X66665Y56764D03*
Y90134D03*
X69814Y56764D03*
Y90134D03*
X72964Y56764D03*
Y90134D03*
X76113Y56764D03*
Y90134D03*
X79263Y56764D03*
Y90134D03*
X82413Y56764D03*
Y90134D03*
X85562Y56764D03*
Y90134D03*
X88712Y56764D03*
Y90134D03*
D02*
D140*
X161530Y65809D03*
Y72109D03*
X163065Y226006D03*
Y232306D03*
X170004Y65947D03*
Y72246D03*
X0Y0D02*
M02*
