G04 EasyPC Gerber Version 21.0.3 Build 4286 *
G04 #@! TF.Part,Single*
G04 #@! TF.FileFunction,Copper,L1,Top *
G04 #@! TF.FilePolarity,Positive *
%FSLAX45Y45*%
%MOIN*%
G04 #@! TA.AperFunction,SMDPad*
%ADD119R,0.02362X0.05807*%
%ADD92R,0.02559X0.03937*%
%ADD101R,0.08268X0.01575*%
%ADD118R,0.05807X0.02362*%
%ADD14R,0.03937X0.02559*%
%ADD102R,0.02559X0.05906*%
%ADD93R,0.03346X0.03740*%
%ADD120R,0.03740X0.03346*%
G04 #@! TA.AperFunction,ComponentPad*
%ADD15R,0.10630X0.10630*%
G04 #@! TD.AperFunction*
%ADD10C,0.00500*%
%ADD11C,0.01000*%
%ADD25C,0.01500*%
G04 #@! TA.AperFunction,ViaPad*
%ADD104C,0.02362*%
G04 #@! TD.AperFunction*
%ADD24C,0.05000*%
G04 #@! TA.AperFunction,ViaPad*
%ADD23C,0.05600*%
G04 #@! TA.AperFunction,ComponentPad*
%ADD18C,0.06000*%
%ADD13C,0.06693*%
%ADD16C,0.10630*%
G04 #@! TA.AperFunction,WasherPad*
%ADD12C,0.24016*%
X0Y0D02*
D02*
D10*
X26915Y100587D02*
X22819D01*
G75*
G02X19591Y92719I-3229J-3272*
G01*
G75*
G02X15203Y95946J4596*
G01*
Y94119*
X18065Y91257*
G75*
G02X22852Y90003I1526J-3941*
G01*
Y92140*
G75*
G02X24640Y93928I1787*
G01*
X27064*
G75*
G02X26915Y100587I2527J3388*
G01*
G36*
X22819*
G75*
G02X19591Y92719I-3229J-3272*
G01*
G75*
G02X15203Y95946J4596*
G01*
Y94119*
X18065Y91257*
G75*
G02X22852Y90003I1526J-3941*
G01*
Y92140*
G75*
G02X24640Y93928I1787*
G01*
X27064*
G75*
G02X26915Y100587I2527J3388*
G01*
G37*
X48750Y90353D02*
X32530D01*
G75*
G02X29591Y83089I-2939J-3037*
G01*
G75*
G02X26427Y84513J4226*
G01*
Y80650*
G75*
G02X34187Y77315I3163J-3335*
G01*
G75*
G02X26427Y73981I-4596*
G01*
Y70118*
G75*
G02X33638Y68532I3163J-2803*
G01*
X42486*
Y71508*
G75*
G02X44116Y73138I1630*
G01*
X48268*
Y73668*
X53965*
Y73662*
X57219*
Y76386*
X57076*
X56280Y75526*
G75*
G02X54967Y74953I-1312J1214*
G01*
X49103*
G75*
G02X48459Y75073J1787*
G01*
X44089*
Y78408*
X48459*
G75*
G02X49103Y78528I644J-1667*
G01*
X54187*
X54983Y79388*
G75*
G02X56297Y79961I1312J-1214*
G01*
X56557*
G75*
G02X56446Y80063I1159J1363*
G01*
X54486Y82035*
Y79428*
X43719*
Y83502*
X53058*
X52204Y84402*
X49103*
G75*
G02X48459Y84522J1787*
G01*
X44089*
Y87857*
X48459*
G75*
G02X49103Y87977I644J-1667*
G01*
X52970*
G75*
G02X53616Y87857I2J-1787*
G01*
X54116*
Y87562*
G75*
G02X54268Y87420I-1143J-1374*
G01*
X56251Y85331*
X57219Y84357*
Y85842*
X53826Y89235*
X48750*
Y90353*
G36*
X32530*
G75*
G02X29591Y83089I-2939J-3037*
G01*
G75*
G02X26427Y84513J4226*
G01*
Y80650*
G75*
G02X34187Y77315I3163J-3335*
G01*
G75*
G02X26427Y73981I-4596*
G01*
Y70118*
G75*
G02X33638Y68532I3163J-2803*
G01*
X42486*
Y71508*
G75*
G02X44116Y73138I1630*
G01*
X48268*
Y73668*
X53965*
Y73662*
X57219*
Y76386*
X57076*
X56280Y75526*
G75*
G02X54967Y74953I-1312J1214*
G01*
X49103*
G75*
G02X48459Y75073J1787*
G01*
X44089*
Y78408*
X48459*
G75*
G02X49103Y78528I644J-1667*
G01*
X54187*
X54983Y79388*
G75*
G02X56297Y79961I1312J-1214*
G01*
X56557*
G75*
G02X56446Y80063I1159J1363*
G01*
X54486Y82035*
Y79428*
X43719*
Y83502*
X53058*
X52204Y84402*
X49103*
G75*
G02X48459Y84522J1787*
G01*
X44089*
Y87857*
X48459*
G75*
G02X49103Y87977I644J-1667*
G01*
X52970*
G75*
G02X53616Y87857I2J-1787*
G01*
X54116*
Y87562*
G75*
G02X54268Y87420I-1143J-1374*
G01*
X56251Y85331*
X57219Y84357*
Y85842*
X53826Y89235*
X48750*
Y90353*
G37*
X64785Y73188D02*
Y60548D01*
X86281*
Y60918*
X90589*
Y79693*
X68841*
G75*
G02X65518Y81323I-1261J1630*
G01*
G75*
G02X68841Y82953I2061*
G01*
X90589*
Y86351*
X69096*
Y85981*
X64785*
Y76763*
X66298*
G75*
G02X69385Y74975I1026J-1787*
G01*
G75*
G02X66298Y73188I-2061*
G01*
X64785*
G36*
Y60548*
X86281*
Y60918*
X90589*
Y79693*
X68841*
G75*
G02X65518Y81323I-1261J1630*
G01*
G75*
G02X68841Y82953I2061*
G01*
X90589*
Y86351*
X69096*
Y85981*
X64785*
Y76763*
X66298*
G75*
G02X69385Y74975I1026J-1787*
G01*
G75*
G02X66298Y73188I-2061*
G01*
X64785*
G37*
X87192Y52611D02*
Y52469D01*
X96764*
G75*
G02X99816Y49818I1261J-1630*
G01*
G75*
G02X102307Y46544I1143J-1715*
G01*
X104004*
Y54014*
X98626*
Y59073*
X104004*
Y59935*
X98996*
Y60796*
X98156*
Y60365*
X91144*
Y52611*
X87192*
G36*
Y52469*
X96764*
G75*
G02X99816Y49818I1261J-1630*
G01*
G75*
G02X102307Y46544I1143J-1715*
G01*
X104004*
Y54014*
X98626*
Y59073*
X104004*
Y59935*
X98996*
Y60796*
X98156*
Y60365*
X91144*
Y52611*
X87192*
G37*
X176638Y93113D02*
X163206D01*
G75*
G02X162904Y92570I-1932J719*
G01*
Y86994*
X164122*
Y82676*
X158425*
Y86994*
X159644*
Y92570*
G75*
G02X159342Y93113I1630J1262*
G01*
X154915*
Y122768*
G75*
G02X149035Y126380I-1831J3613*
G01*
G75*
G02X154915Y129993I4050*
G01*
Y146154*
X40555*
Y169599*
X6104*
Y43850*
G75*
G02X31248Y39865I12256J-3986*
G01*
G75*
G02X22346Y27609I-12888J0*
G01*
X135683*
Y27680*
X135614*
Y56380*
X171494*
X176638Y61524*
Y93113*
X166884Y68870D02*
X173124D01*
Y63024*
X166884*
Y68870*
X167126Y81788D02*
X172823D01*
Y77469*
X171762*
Y74800*
X172754*
Y69693*
X167254*
Y74800*
X168187*
Y77469*
X167126*
Y81788*
X171604Y87339D02*
X172823D01*
Y83020*
X167126*
Y87339*
X168344*
Y89204*
G75*
G02X167913Y90465I1630J1261*
G01*
G75*
G02X172035I2061*
G01*
G75*
G02X171604Y89204I-2061*
G01*
Y87339*
X158409Y68733D02*
X164650D01*
Y62886*
X158409*
Y68733*
X162904Y74662D02*
X164280D01*
Y69556*
X158780*
Y74662*
X159644*
Y77124*
X158425*
Y81443*
X164122*
Y77124*
X162904*
Y74662*
X46500Y110180D02*
X51559D01*
Y103743*
X46500*
Y110180*
X48380Y99475D02*
X54817D01*
Y94416*
X48380*
Y99475*
X52325Y135317D02*
G75*
G02X60085I3880D01*
G01*
G75*
G02X52325I-3880*
G01*
X138553Y95528D02*
X139083D01*
Y87863*
X134764*
Y95528*
X135293*
Y105252*
X102687*
Y78174*
G75*
G02X101646Y76654I-1630*
G01*
X105517*
X114417Y85553*
G75*
G02X115570Y86032I1154J-1151*
G01*
X120293*
Y87863*
X119764*
Y95528*
X124083*
Y87863*
X123553*
Y84402*
G75*
G02X121923Y82772I-1630*
G01*
X116246*
X107346Y73873*
G75*
G02X106193Y73394I-1154J1151*
G01*
X105159*
G75*
G02Y70355I-1392J-1520*
G01*
X105189*
G75*
G02X107878Y70212I1261J-1630*
G01*
Y70968*
G75*
G02X107446Y72230I1630J1261*
G01*
G75*
G02X111569I2061*
G01*
G75*
G02X111137Y70968I-2061*
G01*
Y67079*
G75*
G02X110659Y65925I-1630*
G01*
X109157Y64424*
G75*
G02X108004Y63945I-1154J1151*
G01*
X104693*
Y63727*
X105634*
G75*
G02X107264Y62097J-1630*
G01*
Y53681*
G75*
G02X109929Y55491I3527J-2328*
G01*
Y57916*
G75*
G02X110408Y59070I1630*
G01*
X114152Y62813*
Y74924*
G75*
G02X114630Y76078I1630*
G01*
X119864Y81311*
G75*
G02X121018Y81790I1154J-1151*
G01*
X125293*
Y87863*
X124764*
Y95528*
X129083*
Y87863*
X128553*
Y81910*
G75*
G02X129526Y80160I-1089J-1750*
G01*
G75*
G02X126203Y78530I-2061*
G01*
X121693*
X117411Y74248*
Y62138*
G75*
G02X116933Y60984I-1630*
G01*
X113189Y57241*
Y54833*
G75*
G02X115017Y51353I-2398J-3480*
G01*
G75*
G02X107264Y49025I-4226*
G01*
Y44914*
G75*
G02X105634Y43284I-1630*
G01*
X85551*
Y34846*
G75*
G02X85982Y33585I-1630J-1261*
G01*
G75*
G02X81860I-2061*
G01*
G75*
G02X82291Y34846I2061*
G01*
Y44914*
G75*
G02X83446Y46473I1630*
G01*
X82413*
G75*
G02X80783Y48103J1630*
G01*
Y52981*
X64604*
Y60365*
X61358*
Y56904*
G75*
G02X61632Y55878I-1787J-1026*
G01*
G75*
G02X57510I-2061*
G01*
G75*
G02X57783Y56904I2061*
G01*
Y60365*
X57219*
Y70087*
X53965*
Y69349*
X48268*
Y69878*
X45746*
Y67635*
G75*
G02X45904Y66902I-1630J-733*
G01*
Y58628*
X62503Y42075*
X68193*
G75*
G02X69980Y40288J-1787*
G01*
Y36487*
X70352*
Y35267*
X71134*
G75*
G02X74457Y33637I1261J-1630*
G01*
G75*
G02X71134Y32007I-2061*
G01*
X70352*
Y30790*
X66033*
Y36487*
X66406*
Y38500*
X61764*
G75*
G02X60500Y39024I0J1787*
G01*
X42855Y56619*
G75*
G02X42329Y57886I1261J1267*
G01*
Y65272*
X33290*
G75*
G02X25784Y65479I-3700J2043*
G01*
X25373*
G75*
G02X23906I-733J1630*
G01*
X23397*
G75*
G02X15364Y67315I-3806J1837*
G01*
G75*
G02X22852Y70003I4226*
G01*
Y74628*
G75*
G02X15364Y77315I-3262J2687*
G01*
G75*
G02X22852Y80003I4226*
G01*
Y84628*
G75*
G02X15589Y88676I-3262J2687*
G01*
X12152Y92115*
G75*
G02X11628Y93378I1264J1264*
G01*
Y100393*
G75*
G02Y100395I654J1*
G01*
G75*
G02Y100396I663J0*
G01*
G75*
G02X12151Y101659I1787*
G01*
X14129Y103638*
G75*
G02X15396Y104162I1264J-1264*
G01*
X16246*
G75*
G02X19591Y111912I3344J3154*
G01*
G75*
G02X22935Y104162J-4596*
G01*
X26777*
G75*
G02X29591Y111542I2814J3154*
G01*
G75*
G02X32404Y104162J-4226*
G01*
X35238*
G75*
G02X38325Y102374I1026J-1787*
G01*
G75*
G02X35238Y100587I-2061*
G01*
X32266*
G75*
G02X32117Y93928I-2676J-3272*
G01*
X51599*
G75*
G02X52693Y93554J-1787*
G01*
X54447*
Y93163*
G75*
G02X55461Y92655I-252J-1770*
G01*
X61582Y86534*
X64234*
Y94288*
X66307*
X56482Y104113*
X52421*
Y109809*
X56740*
Y108652*
G75*
G02X57428Y108223I-578J-1691*
G01*
X69691Y95959*
X71017Y94750*
G75*
G02X71175Y94586I-1206J-1320*
G01*
Y95826*
X67086Y99870*
G75*
G02X66553Y101143I1255J1273*
G01*
Y106073*
G75*
G02X66280Y107099I1787J1026*
G01*
G75*
G02X70402I2061*
G01*
G75*
G02X70128Y106073I-2061*
G01*
Y101889*
X73748Y98309*
G75*
G02X73758Y98299I-1301J-1261*
G01*
X74226Y97830*
G75*
G02X74483Y97505I-1264J-1265*
G01*
Y105306*
G75*
G02X77633Y107959I1630J1261*
G01*
Y108692*
G75*
G02X77202Y109953I1630J1261*
G01*
G75*
G02X81324I2061*
G01*
G75*
G02X80893Y108692I-2061*
G01*
Y108639*
G75*
G02X83737Y108621I1413J-1500*
G01*
G75*
G02X83501Y109579I1825J958*
G01*
G75*
G02X87623I2061*
G01*
G75*
G02X87192Y108318I-2061*
G01*
Y101793*
G75*
G02X90176Y98977I1354J-1554*
G01*
Y93918*
X90774*
Y86534*
X92500*
Y102569*
G75*
G02X92226Y103595I1787J1026*
G01*
G75*
G02X96348I2061*
G01*
G75*
G02X96074Y102569I-2061*
G01*
Y86534*
X98156*
Y79804*
X99427*
Y106882*
G75*
G02X101057Y108512I1630*
G01*
X136923*
G75*
G02X138553Y106882J-1630*
G01*
Y95528*
X129394Y95898D02*
X134453D01*
Y87493*
X129394*
Y95898*
X132421Y55253D02*
G75*
G02X135017Y51353I-1630J-3900D01*
G01*
G75*
G02X127677Y48495I-4226*
G01*
Y44211*
G75*
G02X135017Y41353I3114J-2858*
G01*
G75*
G02X126891Y39723I-4226*
G01*
X126047*
G75*
G02X125176Y39976J1630*
G01*
G75*
G02X116194Y41353I-4385J1378*
G01*
G75*
G02X124417Y44178I4596*
G01*
Y48529*
G75*
G02X116194Y51353I-3626J2824*
G01*
G75*
G02X124417Y54178I4596*
G01*
Y59132*
X123888*
Y64829*
X124417*
Y70435*
G75*
G02X124764Y71440I1630*
G01*
Y74268*
X129083*
Y66603*
X127677*
Y64829*
X128207*
Y59132*
X127677*
Y54211*
G75*
G02X129161Y55253I3114J-2858*
G01*
Y61981*
G75*
G02X129439Y62891I1630*
G01*
Y64829*
X129969*
Y66603*
X129764*
Y74268*
X134083*
Y66603*
X133228*
Y64829*
X133758*
Y59132*
X132421*
Y55253*
X145276Y64750D02*
X145805D01*
Y59054*
X141486*
Y64750*
X142016*
Y68806*
X139083*
Y66603*
X134764*
Y74268*
X139083*
Y72065*
X143646*
G75*
G02X145276Y70435J-1630*
G01*
Y64750*
X119764Y74268D02*
X124083D01*
Y66603*
X119764*
Y74268*
X106565Y41353D02*
G75*
G02X115017I4226D01*
G01*
G75*
G02X106565I-4226*
G01*
X47898Y68487D02*
X54335D01*
Y63428*
X47898*
Y68487*
X43587Y36536D02*
X49433D01*
Y30296*
X43587*
Y36536*
X60482Y36487D02*
X64801D01*
Y30790*
X60482*
Y31786*
X55362*
Y30666*
X50256*
Y36166*
X55362*
Y35046*
X60482*
Y36487*
X62325Y135317D02*
G75*
G02X70085I3880D01*
G01*
G75*
G02X62325I-3880*
G01*
X72325D02*
G75*
G02X80085I3880D01*
G01*
G75*
G02X72325I-3880*
G01*
X82325D02*
G75*
G02X90085I3880D01*
G01*
G75*
G02X82325I-3880*
G01*
X91955D02*
G75*
G02X100455I4250D01*
G01*
G75*
G02X91955I-4250*
G01*
X102325D02*
G75*
G02X110085I3880D01*
G01*
G75*
G02X102325I-3880*
G01*
X112325D02*
G75*
G02X120085I3880D01*
G01*
G75*
G02X112325I-3880*
G01*
X122325D02*
G75*
G02X130085I3880D01*
G01*
G75*
G02X122325I-3880*
G01*
X132325D02*
G75*
G02X140085I3880D01*
G01*
G75*
G02X132325I-3880*
G01*
X141955D02*
G75*
G02X150455I4250D01*
G01*
G75*
G02X141955I-4250*
G01*
X146667Y65120D02*
X151726D01*
Y58683*
X146667*
Y65120*
X14994Y117315D02*
G75*
G02X24187I4596D01*
G01*
G75*
G02X14994I-4596*
G01*
Y127315D02*
G75*
G02X24187I4596D01*
G01*
G75*
G02X14994I-4596*
G01*
Y147315D02*
G75*
G02X24187I4596D01*
G01*
G75*
G02X14994I-4596*
G01*
X15364Y137315D02*
G75*
G02X23817I4226D01*
G01*
G75*
G02X15364I-4226*
G01*
X14994Y157315D02*
G75*
G02X24187I4596D01*
G01*
G75*
G02X14994I-4596*
G01*
X25364Y117315D02*
G75*
G02X33817I4226D01*
G01*
G75*
G02X25364I-4226*
G01*
Y127315D02*
G75*
G02X33817I4226D01*
G01*
G75*
G02X25364I-4226*
G01*
Y137315D02*
G75*
G02X33817I4226D01*
G01*
G75*
G02X25364I-4226*
G01*
Y147315D02*
G75*
G02X33817I4226D01*
G01*
G75*
G02X25364I-4226*
G01*
Y157315D02*
G75*
G02X33817I4226D01*
G01*
G75*
G02X25364I-4226*
G01*
X135614Y33416D02*
G36*
X85975D01*
G75*
G02X81867I-2054J169*
G01*
X74445*
G75*
G02X71134Y32007I-2049J221*
G01*
X70352*
Y30790*
X66033*
Y33416*
X64801*
Y30790*
X60482*
Y31786*
X55362*
Y30666*
X50256*
Y33416*
X49433*
Y30296*
X43587*
Y33416*
X29519*
G75*
G02X23046Y27859I-11159J6449*
G01*
X135614*
Y33416*
G37*
X66033D02*
G36*
Y36487D01*
X66406*
Y38500*
X61764*
G75*
G02X60500Y39024I1J1789*
G01*
X58164Y41353*
X31162*
G75*
G02X31248Y39865I-12803J-1488*
G01*
G75*
G02X29519Y33416I-12888*
G01*
X43587*
Y36536*
X49433*
Y33416*
X50256*
Y36166*
X55362*
Y35046*
X60482*
Y36487*
X64801*
Y33416*
X66033*
G37*
X81867D02*
G36*
G75*
G02X81860Y33585I2054J171D01*
G01*
G75*
G02Y33586I2374J0*
G01*
G75*
G02X82291Y34846I2059*
G01*
Y41353*
X69628*
G75*
G02X69980Y40288I-1435J-1066*
G01*
Y36487*
X70352*
Y35267*
X71134*
G75*
G02X74457Y33637I1261J-1630*
G01*
G75*
G02X74445Y33416I-2063J-1*
G01*
X81867*
G37*
X135614Y41353D02*
G36*
X135017D01*
G75*
G02X126891Y39723I-4226J0*
G01*
X126047*
G75*
G02X125176Y39976I-1J1626*
G01*
G75*
G02X116194Y41353I-4385J1378*
G01*
X115017*
G75*
G02X106565I-4226*
G01*
X85551*
Y34846*
G75*
G02X85982Y33586I-1628J-1261*
G01*
G75*
G02Y33585I-2374J0*
G01*
G75*
G02X85975Y33416I-2061J2*
G01*
X135614*
Y41353*
G37*
X58164D02*
G36*
X42855Y56619D01*
G75*
G02X42329Y57885I1260J1266*
G01*
G75*
G02Y57886I1961J0*
G01*
Y61902*
X6354*
Y44550*
G75*
G02X31162Y41353I12006J-4685*
G01*
X58164*
G37*
X57219Y61902D02*
G36*
X45904D01*
Y58628*
X62503Y42075*
X68193*
G75*
G02X69628Y41353I0J-1788*
G01*
X82291*
Y44914*
G75*
G02X83446Y46473I1630*
G01*
X82413*
G75*
G02X80783Y48103J1630*
G01*
Y52981*
X64604*
Y60365*
X61358*
Y56904*
G75*
G02X61632Y55878I-1788J-1026*
G01*
G75*
G02X57510I-2061*
G01*
G75*
G02X57783Y56904I2062J0*
G01*
Y60365*
X57219*
Y61902*
G37*
X113240D02*
G36*
X107264D01*
Y53681*
G75*
G02X109929Y55491I3526J-2328*
G01*
Y57916*
Y57916*
G75*
G02X110408Y59070I1629*
G01*
X113240Y61902*
G37*
X129161D02*
G36*
X128207D01*
Y59132*
X127677*
Y54211*
G75*
G02X129161Y55253I3118J-2864*
G01*
Y61902*
G37*
X116194Y41353D02*
G36*
G75*
G02X124417Y44178I4596D01*
G01*
Y48529*
G75*
G02X116194Y51353I-3626J2824*
G01*
G75*
G02X124417Y54178I4596*
G01*
Y59132*
X123888*
Y61902*
X117394*
G75*
G02X116933Y60984I-1612J235*
G01*
X113189Y57241*
Y54833*
G75*
G02X115017Y51353I-2399J-3481*
G01*
G75*
G02X107264Y49025I-4226J0*
G01*
Y44914*
G75*
G02X105634Y43284I-1630*
G01*
X85551*
Y41353*
X106565*
G75*
G02X115017I4226*
G01*
X116194*
G37*
X176388Y61274D02*
G36*
Y61902D01*
X151726*
Y58683*
X146667*
Y61902*
X145805*
Y59054*
X141486*
Y61902*
X133758*
Y59132*
X132421*
Y55253*
G75*
G02X135017Y51353I-1631J-3900*
G01*
Y51353*
G75*
G02X127677Y48495I-4226*
G01*
Y44211*
G75*
G02X135017Y41354I3114J-2857*
G01*
Y41353*
X135614*
Y56380*
X171494*
X176388Y61274*
G37*
X15592Y65947D02*
G36*
X6354D01*
Y61902*
X42329*
Y65272*
X33290*
G75*
G02X25784Y65479I-3700J2043*
G01*
X25373*
G75*
G02X23906I-733J1630*
G01*
X23397*
G75*
G02X15592Y65947I-3806J1837*
G01*
G37*
X57219D02*
G36*
X54335D01*
Y63428*
X47898*
Y65947*
X45904*
Y61902*
X57219*
Y65947*
G37*
X114152D02*
G36*
X110680D01*
G75*
G02X110659Y65925I-1173J1130*
G01*
X109157Y64424*
G75*
G02X108004Y63945I-1154J1150*
G01*
X104693*
Y63727*
X105634*
G75*
G02X107264Y62097J-1630*
G01*
Y61902*
X113240*
X114152Y62813*
Y65947*
G37*
X123888Y61902D02*
G36*
Y64829D01*
X124417*
Y65947*
X117411*
Y62138*
Y62138*
G75*
G02X117394Y61902I-1630J1*
G01*
X123888*
G37*
X129161D02*
G36*
Y61981D01*
G75*
G02Y61982I1471J1*
G01*
G75*
G02X129439Y62891I1625*
G01*
Y64829*
X129969*
Y65947*
X127677*
Y64829*
X128207*
Y61902*
X129161*
G37*
X141486D02*
G36*
Y64750D01*
X142016*
Y65947*
X133228*
Y64829*
X133758*
Y61902*
X141486*
G37*
X173124Y65947D02*
G36*
Y63024D01*
X166884*
Y65947*
X164650*
Y62886*
X158409*
Y65947*
X145276*
Y64750*
X145805*
Y61902*
X146667*
Y65120*
X151726*
Y61902*
X176388*
Y65947*
X173124*
G37*
X15592D02*
G36*
G75*
G02X15364Y67315I3999J1368D01*
G01*
G75*
G02X16740Y70435I4226*
G01*
X6354*
Y65947*
X15592*
G37*
X22852Y70435D02*
G36*
X22441D01*
G75*
G02X22852Y70003I-2851J-3120*
G01*
Y70435*
G37*
X57219Y65947D02*
G36*
Y70087D01*
X53965*
Y69349*
X48268*
Y69878*
X45746*
Y67635*
G75*
G02X45904Y66903I-1626J-733*
G01*
G75*
G02Y66902I-2148J0*
G01*
Y65947*
X47898*
Y68487*
X54335*
Y65947*
X57219*
G37*
X105301Y70435D02*
G36*
X105242D01*
G75*
G02X105159Y70355I-1475J1442*
G01*
X105189*
G75*
G02X105301Y70435I1261J-1630*
G01*
G37*
X107878D02*
G36*
X107600D01*
G75*
G02X107878Y70212I-1150J-1711*
G01*
Y70435*
G37*
X114152D02*
G36*
X111137D01*
Y67079*
Y67079*
G75*
G02X110680Y65947I-1629*
G01*
X114152*
Y70435*
G37*
X124417D02*
G36*
X124083D01*
Y66603*
X119764*
Y70435*
X117411*
Y65947*
X124417*
Y70435*
G37*
X129764D02*
G36*
X129083D01*
Y66603*
X127677*
Y65947*
X129969*
Y66603*
X129764*
Y70435*
G37*
X134764D02*
G36*
X134083D01*
Y66603*
X133228*
Y65947*
X142016*
Y68806*
X139083*
Y66603*
X134764*
Y70435*
G37*
X172754D02*
G36*
Y69693D01*
X167254*
Y70435*
X164280*
Y69556*
X158780*
Y70435*
X145276*
Y65947*
X158409*
Y68733*
X164650*
Y65947*
X166884*
Y68870*
X173124*
Y65947*
X176388*
Y70435*
X172754*
G37*
X15669Y75741D02*
G36*
X6354D01*
Y70435*
X16740*
G75*
G02X22441I2851J-3120*
G01*
X22852*
Y74628*
G75*
G02X15669Y75741I-3262J2687*
G01*
G37*
X114371D02*
G36*
X109214D01*
X107346Y73873*
G75*
G02X106193Y73394I-1154J1150*
G01*
X105159*
G75*
G02X105828Y71874I-1392J-1520*
G01*
G75*
G02X105242Y70435I-2061J0*
G01*
X105301*
G75*
G02X107600I1150J-1710*
G01*
X107878*
Y70968*
G75*
G02X107446Y72229I1628J1261*
G01*
G75*
G02Y72230I2374J0*
G01*
G75*
G02X111569I2061*
G01*
G75*
G02Y72229I-2374J0*
G01*
G75*
G02X111137Y70968I-2059*
G01*
Y70435*
X114152*
Y74924*
Y74924*
G75*
G02X114371Y75741I1629J0*
G01*
G37*
X158780Y70435D02*
G36*
Y74662D01*
X159644*
Y75741*
X118904*
X117411Y74248*
Y70435*
X119764*
Y74268*
X124083*
Y70435*
X124417*
G75*
G02Y70436I2148J0*
G01*
G75*
G02X124764Y71440I1628*
G01*
Y74268*
X129083*
Y70435*
X129764*
Y74268*
X134083*
Y70435*
X134764*
Y74268*
X139083*
Y72065*
X143646*
G75*
G02X145276Y70435J-1630*
G01*
X158780*
G37*
X167254D02*
G36*
Y74800D01*
X168187*
Y75741*
X162904*
Y74662*
X164280*
Y70435*
X167254*
G37*
X172754D02*
G36*
X176388D01*
Y75741*
X171762*
Y74800*
X172754*
Y70435*
G37*
X15669Y75741D02*
G36*
G75*
G02X15364Y77315I3922J1575D01*
G01*
G75*
G02X22852Y80003I4226*
G01*
Y84628*
G75*
G02X15364Y87315I-3262J2687*
G01*
G75*
G02X15389Y87773I4226J0*
G01*
X6354*
Y75741*
X15669*
G37*
X64234Y87773D02*
G36*
X60343D01*
X61582Y86534*
X64234*
Y87773*
G37*
X92500D02*
G36*
X90774D01*
Y86534*
X92500*
Y87773*
G37*
X99427D02*
G36*
X96074D01*
Y86534*
X98156*
Y79804*
X99427*
Y87773*
G37*
X120293D02*
G36*
X102687D01*
Y78174*
G75*
G02X101646Y76654I-1630*
G01*
X105517*
X114417Y85553*
G75*
G02X115570Y86032I1154J-1150*
G01*
X120293*
Y87773*
G37*
X125293D02*
G36*
X123553D01*
Y84402*
G75*
G02X121923Y82772I-1630*
G01*
X116246*
X109214Y75741*
X114371*
G75*
G02X114630Y76078I1410J-817*
G01*
X119864Y81311*
G75*
G02X121018Y81790I1154J-1150*
G01*
X125293*
Y87773*
G37*
X171762Y75741D02*
G36*
X176388D01*
Y87773*
X171604*
Y87339*
X172823*
Y83020*
X167126*
Y87339*
X168344*
Y87773*
X162904*
Y86994*
X164122*
Y82676*
X158425*
Y86994*
X159644*
Y87773*
X134453*
Y87493*
X129394*
Y87773*
X128553*
Y81910*
G75*
G02X129526Y80160I-1088J-1750*
G01*
Y80160*
G75*
G02X126203Y78530I-2061*
G01*
X121693*
X118904Y75741*
X159644*
Y77124*
X158425*
Y81443*
X164122*
Y77124*
X162904*
Y75741*
X168187*
Y77469*
X167126*
Y81788*
X172823*
Y77469*
X171762*
Y75741*
G37*
X15389Y87773D02*
G36*
G75*
G02X15589Y88676I4202J-458D01*
G01*
X12152Y92115*
G75*
G02X11628Y93378I1265J1265*
G01*
Y96945*
X6354*
Y87773*
X15389*
G37*
X70044Y96945D02*
G36*
X68705D01*
X69691Y95959*
X71017Y94750*
G75*
G02X71175Y94586I-1257J-1370*
G01*
Y95826*
X70044Y96945*
G37*
X64234Y87773D02*
G36*
Y94288D01*
X66307*
X63649Y96945*
X54817*
Y94416*
X48380*
Y96945*
X33800*
G75*
G02X32117Y93928I-4210J370*
G01*
X51599*
G75*
G02X52693Y93554I0J-1788*
G01*
X54447*
Y93163*
G75*
G02X55461Y92655I-251J-1768*
G01*
X60343Y87773*
X64234*
G37*
X92500Y96945D02*
G36*
X90176D01*
Y93918*
X90774*
Y87773*
X92500*
Y96945*
G37*
X99427D02*
G36*
X96074D01*
Y87773*
X99427*
Y96945*
G37*
X154915D02*
G36*
X138553D01*
Y95528*
X139083*
Y87863*
X134764*
Y95528*
X135293*
Y96945*
X102687*
Y87773*
X120293*
Y87863*
X119764*
Y95528*
X124083*
Y87863*
X123553*
Y87773*
X125293*
Y87863*
X124764*
Y95528*
X129083*
Y87863*
X128553*
Y87773*
X129394*
Y95898*
X134453*
Y87773*
X159644*
Y92570*
G75*
G02X159342Y93113I1617J1255*
G01*
X154915*
Y96945*
G37*
X176388Y93113D02*
G36*
X163206D01*
G75*
G02X162904Y92570I-1919J712*
G01*
Y87773*
X168344*
Y89204*
G75*
G02X167913Y90464I1628J1261*
G01*
G75*
G02Y90465I2374J0*
G01*
G75*
G02X172035I2061*
G01*
G75*
G02Y90464I-2374J0*
G01*
G75*
G02X171604Y89204I-2059*
G01*
Y87773*
X176388*
Y93113*
G37*
X11628Y96945D02*
G36*
Y100393D01*
Y100395*
Y100396*
G75*
G02X12151Y101659I1786J1*
G01*
X14129Y103638*
G75*
G02X15396Y104162I1264J-1264*
G01*
X16246*
G75*
G02X15008Y106961I3344J3153*
G01*
X6354*
Y96945*
X11628*
G37*
X25379Y106961D02*
G36*
X24173D01*
G75*
G02X22935Y104162I-4583J354*
G01*
X26777*
G75*
G02X25379Y106961I2814J3154*
G01*
G37*
X63649Y96945D02*
G36*
X56482Y104113D01*
X52421*
Y106961*
X51559*
Y103743*
X46500*
Y106961*
X33802*
G75*
G02X32404Y104162I-4211J354*
G01*
X35238*
G75*
G02X38325Y102374I1026J-1788*
G01*
G75*
G02X35238Y100587I-2061J0*
G01*
X32266*
G75*
G02X33817Y97315I-2676J-3272*
G01*
G75*
G02X33800Y96945I-4226J4*
G01*
X48380*
Y99475*
X54817*
Y96945*
X63649*
G37*
X74091Y106961D02*
G36*
X70397D01*
G75*
G02X70128Y106073I-2057J138*
G01*
Y101889*
X73748Y98309*
G75*
G03X73758Y98299I133J118*
G01*
X74226Y97830*
G75*
G02X74483Y97505I-1266J-1266*
G01*
Y105306*
G75*
G02X74052Y106567I1630J1261*
G01*
G75*
G02X74091Y106961I2061J-1*
G01*
G37*
X70044Y96945D02*
G36*
X67086Y99870D01*
G75*
G02X66553Y101143I1256J1273*
G01*
Y106073*
G75*
G02X66284Y106961I1788J1026*
G01*
X58689*
X68705Y96945*
X70044*
G37*
X99429Y106961D02*
G36*
X87192D01*
Y101793*
G75*
G02X90607Y100239I1354J-1554*
G01*
G75*
G02X90176Y98977I-2061*
G01*
Y96945*
X92500*
Y102569*
G75*
G02X92226Y103595I1788J1026*
G01*
G75*
G02X96348I2061*
G01*
G75*
G02X96074Y102569I-2062J0*
G01*
Y96945*
X99427*
Y106882*
G75*
G02X99429Y106961I1631J-1*
G01*
G37*
X135293Y96945D02*
G36*
Y105252D01*
X102687*
Y96945*
X135293*
G37*
X154915Y106961D02*
G36*
X138551D01*
G75*
G02X138553Y106882I-1629J-80*
G01*
Y96945*
X154915*
Y106961*
G37*
Y117315D02*
G36*
X33817D01*
G75*
G02X25364I-4226*
G01*
X24187*
G75*
G02X14994I-4596*
G01*
X6354*
Y106961*
X15008*
G75*
G02X14994Y107315I4583J356*
G01*
G75*
G02X19591Y111912I4596*
G01*
G75*
G02X24187Y107315J-4596*
G01*
G75*
G02X24173Y106961I-4597J1*
G01*
X25379*
G75*
G02X25364Y107315I4212J355*
G01*
G75*
G02X29591Y111542I4226*
G01*
G75*
G02X33817Y107315J-4226*
G01*
G75*
G02X33802Y106961I-4227J1*
G01*
X46500*
Y110180*
X51559*
Y106961*
X52421*
Y109809*
X56740*
Y108652*
G75*
G02X57428Y108223I-578J-1691*
G01*
X58689Y106961*
X66284*
G75*
G02X66280Y107099I2058J139*
G01*
G75*
G02X70402I2061*
G01*
G75*
G02X70397Y106961I-2063J2*
G01*
X74091*
G75*
G02X77633Y107959I2023J-394*
G01*
Y108692*
G75*
G02X77202Y109952I1628J1261*
G01*
G75*
G02Y109953I2374J0*
G01*
G75*
G02X81324I2061*
G01*
G75*
G02Y109952I-2374J0*
G01*
G75*
G02X80893Y108692I-2059*
G01*
Y108639*
G75*
G02X83737Y108621I1413J-1500*
G01*
G75*
G02X83501Y109579I1824J958*
G01*
Y109579*
G75*
G02X87623I2061*
G01*
G75*
G02Y109578I-2374J0*
G01*
G75*
G02X87192Y108318I-2059*
G01*
Y106961*
X99429*
G75*
G02X101057Y108512I1628J-79*
G01*
X136923*
G75*
G02X138551Y106961I0J-1630*
G01*
X154915*
Y117315*
G37*
X149144Y127315D02*
G36*
X33817D01*
G75*
G02X25364I-4226*
G01*
X24187*
G75*
G02X14994I-4596*
G01*
X6354*
Y117315*
X14994*
G75*
G02X24187I4596*
G01*
X25364*
G75*
G02X33817I4226*
G01*
X154915*
Y122768*
G75*
G02X149035Y126380I-1830J3613*
G01*
G75*
G02X149144Y127315I4050*
G01*
G37*
X154915Y135317D02*
G36*
X150455D01*
G75*
G02X141955I-4250*
G01*
X140085*
G75*
G02X132325I-3880*
G01*
X130085*
G75*
G02X122325I-3880*
G01*
X120085*
G75*
G02X112325I-3880*
G01*
X110085*
G75*
G02X102325I-3880*
G01*
X100455*
G75*
G02X91955I-4250*
G01*
X90085*
G75*
G02X82325I-3880*
G01*
X80085*
G75*
G02X72325I-3880*
G01*
X70085*
G75*
G02X62325I-3880*
G01*
X60085*
G75*
G02X52325I-3880*
G01*
X33315*
G75*
G02X25866I-3724J1998*
G01*
X23315*
G75*
G02X15866I-3724J1998*
G01*
X6354*
Y127315*
X14994*
G75*
G02X24187I4596*
G01*
X25364*
G75*
G02X33817I4226*
G01*
X149144*
G75*
G02X154915Y129993I3941J-935*
G01*
Y135317*
G37*
X40555Y147315D02*
G36*
X33817D01*
G75*
G02X25364I-4226*
G01*
X24187*
G75*
G02X14994I-4596*
G01*
X6354*
Y135317*
X15866*
G75*
G02X15364Y137315I3724J1998*
G01*
G75*
G02X23817I4226*
G01*
G75*
G02X23315Y135317I-4226J0*
G01*
X25866*
G75*
G02X25364Y137315I3724J1998*
G01*
G75*
G02X33817I4226*
G01*
G75*
G02X33315Y135317I-4226J0*
G01*
X52325*
G75*
G02X60085I3880*
G01*
X62325*
G75*
G02X70085I3880*
G01*
X72325*
G75*
G02X80085I3880*
G01*
X82325*
G75*
G02X90085I3880*
G01*
X91955*
G75*
G02X100455I4250*
G01*
X102325*
G75*
G02X110085I3880*
G01*
X112325*
G75*
G02X120085I3880*
G01*
X122325*
G75*
G02X130085I3880*
G01*
X132325*
G75*
G02X140085I3880*
G01*
X141955*
G75*
G02X150455I4250*
G01*
X154915*
Y146154*
X40555*
Y147315*
G37*
Y157315D02*
G36*
X33817D01*
G75*
G02X25364I-4226*
G01*
X24187*
G75*
G02X14994I-4596*
G01*
X6354*
Y147315*
X14994*
G75*
G02X24187I4596*
G01*
X25364*
G75*
G02X33817I4226*
G01*
X40555*
Y157315*
G37*
Y169349D02*
G36*
X6354D01*
Y157315*
X14994*
G75*
G02X24187I4596*
G01*
X25364*
G75*
G02X33817I4226*
G01*
X40555*
Y169349*
G37*
X198370Y224491D02*
X175502D01*
Y219790*
X176031*
Y217946*
G75*
G02X177264Y219743I3392J-1005*
G01*
Y219790*
X177326*
G75*
G02X179423Y220479I2098J-2849*
G01*
X188301*
G75*
G02X191839Y216941J-3537*
G01*
Y196307*
G75*
G02Y193304I-3951J-1501*
G01*
Y164382*
G75*
G02X188301Y160845I-3537*
G01*
X182311*
Y148160*
G75*
G02X183157Y145622I-3380J-2537*
G01*
G75*
G02X174705I-4226*
G01*
G75*
G02X175551Y148160I4226*
G01*
Y160983*
X163562*
G75*
G02X160182Y164363J3380*
G01*
Y194014*
X142797*
G75*
G02X137767Y193981I-2537J3380*
G01*
X116569*
G75*
G02X111943I-2313J3538*
G01*
X91444*
G75*
G02X87089Y194063I-2109J3663*
G01*
X65742*
G75*
G02X59203Y197600I-2313J3537*
G01*
G75*
G02X65742Y201138I4227J0*
G01*
X86957*
G75*
G02X91828Y201056I2378J-3494*
G01*
X111943*
G75*
G02X116569I2313J-3538*
G01*
X138150*
G75*
G02X142797Y200774I2109J-3662*
G01*
X160182*
Y205620*
X140296Y225506*
G75*
G02X140075Y225500I-223J4219*
G01*
G75*
G02X136983Y226846J4226*
G01*
X116400*
G75*
G02X111921Y226471I-2537J3380*
G01*
X91693*
G75*
G02X86618I-2537J3380*
G01*
X65671*
G75*
G02X58907Y229851I-2537J3380*
G01*
G75*
G02X65671Y233231I4226*
G01*
X86618*
G75*
G02X91693I2537J-3380*
G01*
X110891*
G75*
G02X116400Y233606I2971J-3006*
G01*
X138398*
G75*
G02X143952Y231410I1678J-3879*
G01*
X165950Y209412*
G75*
G02X166942Y207020I-2388J-2392*
G01*
Y167743*
X176822*
G75*
G02X177927Y167920I1106J-3361*
G01*
X184764*
Y177660*
G75*
G02X184744Y178024I3360J364*
G01*
Y191981*
G75*
G02X184764Y197652I3144J2825*
G01*
Y213404*
X179423*
G75*
G02X177326Y214093J3538*
G01*
X177264*
Y214140*
G75*
G02X176031Y215937I2159J2802*
G01*
Y214093*
X171713*
Y219790*
X172242*
Y224376*
X165815*
Y223453*
X160315*
Y228559*
X165815*
Y227636*
X170919*
Y250790*
X33124Y250504*
X31982Y250790*
Y173309*
X43134*
Y151016*
X156913*
Y128989*
G75*
G02X163660Y125967I2697J-3022*
G01*
G75*
G02X156913Y122945I-4050*
G01*
Y115829*
X192264*
Y135786*
X188931*
G75*
G02X185551Y139166J3380*
G01*
Y143085*
G75*
G02X184705Y145622I3380J2537*
G01*
G75*
G02X193157I4226*
G01*
G75*
G02X192311Y143085I-4226*
G01*
Y142546*
X195644*
G75*
G02X198370Y141163J-3380*
G01*
Y224491*
X178341Y130061D02*
X191470D01*
Y116931*
X178341*
Y130061*
X164705Y145622D02*
G75*
G02X173157I4226D01*
G01*
G75*
G02X164705I-4226*
G01*
X141955Y171617D02*
G75*
G02X150455I4250D01*
G01*
G75*
G02X141955I-4250*
G01*
X122325D02*
G75*
G02X130085I3880D01*
G01*
G75*
G02X122325I-3880*
G01*
X132325D02*
G75*
G02X140085I3880D01*
G01*
G75*
G02X132325I-3880*
G01*
X112325D02*
G75*
G02X120085I3880D01*
G01*
G75*
G02X112325I-3880*
G01*
X91955D02*
G75*
G02X100455I4250D01*
G01*
G75*
G02X91955I-4250*
G01*
X102325D02*
G75*
G02X110085I3880D01*
G01*
G75*
G02X102325I-3880*
G01*
X72325D02*
G75*
G02X80085I3880D01*
G01*
G75*
G02X72325I-3880*
G01*
X82325D02*
G75*
G02X90085I3880D01*
G01*
G75*
G02X82325I-3880*
G01*
X62325D02*
G75*
G02X70085I3880D01*
G01*
G75*
G02X62325I-3880*
G01*
X136033Y207394D02*
G75*
G02X144486I4226D01*
G01*
G75*
G02X136033I-4226*
G01*
X110030Y207519D02*
G75*
G02X118482I4226D01*
G01*
G75*
G02X110030I-4226*
G01*
X85108Y207644D02*
G75*
G02X93561I4226D01*
G01*
G75*
G02X85108I-4226*
G01*
X59203Y207600D02*
G75*
G02X67656I4226D01*
G01*
G75*
G02X59203I-4226*
G01*
X173449Y194806D02*
G75*
G02X182642I4596D01*
G01*
G75*
G02X173449I-4596*
G01*
X60574Y243215D02*
G75*
G02X67360Y239851I2559J-3363D01*
G01*
G75*
G02X61721Y235868I-4226*
G01*
X52370Y226516*
Y174996*
X54300*
G75*
G02X60085Y171617I1905J-3380*
G01*
G75*
G02X54300Y168237I-3880*
G01*
X48990*
G75*
G02X45610Y171617J3380*
G01*
Y227916*
G75*
G02X46602Y230307I3380*
G01*
X58534Y242241*
G75*
G02X60574Y243215I2392J-2388*
G01*
X84929Y239851D02*
G75*
G02X93382I4226D01*
G01*
G75*
G02X84929I-4226*
G01*
X109636Y240226D02*
G75*
G02X118089I4226D01*
G01*
G75*
G02X109636I-4226*
G01*
X135849Y239726D02*
G75*
G02X144302I4226D01*
G01*
G75*
G02X135849I-4226*
G01*
X159945Y235229D02*
X166185D01*
Y229382*
X159945*
Y235229*
X192264Y123496D02*
G36*
X191470D01*
Y116931*
X178341*
Y123496*
X162820*
G75*
G02X156913Y122945I-3209J2470*
G01*
Y116079*
X192264*
Y123496*
G37*
G36*
Y135786*
X188931*
G75*
G02X185551Y139166J3380*
G01*
Y143085*
G75*
G02X184705Y145622I3382J2538*
G01*
X183157*
G75*
G02X174705I-4226*
G01*
X173157*
G75*
G02X164705I-4226*
G01*
X156913*
Y128989*
G75*
G02X163660Y125967I2697J-3021*
G01*
Y125967*
Y125967*
G75*
G02X162820Y123496I-4050*
G01*
X178341*
Y130061*
X191470*
Y123496*
X192264*
G37*
X198120Y141466D02*
G36*
Y145622D01*
X193157*
G75*
G02X192311Y143085I-4229J1*
G01*
Y142546*
X195644*
G75*
G02X198120Y141466J-3380*
G01*
G37*
X174705Y145622D02*
G36*
G75*
G02X175551Y148160I4229J-1D01*
G01*
Y160983*
X163562*
G75*
G02X160182Y164363J3380*
G01*
Y171617*
X150455*
G75*
G02X141955I-4250*
G01*
X140085*
G75*
G02X132325I-3880*
G01*
X130085*
G75*
G02X122325I-3880*
G01*
X120085*
G75*
G02X112325I-3880*
G01*
X110085*
G75*
G02X102325I-3880*
G01*
X100455*
G75*
G02X91955I-4250*
G01*
X90085*
G75*
G02X82325I-3880*
G01*
X80085*
G75*
G02X72325I-3880*
G01*
X70085*
G75*
G02X62325I-3880*
G01*
X60085*
G75*
G02X54300Y168237I-3880*
G01*
X48990*
G75*
G02X45610Y171617J3380*
G01*
X43134*
Y151016*
X156913*
Y145622*
X164705*
G75*
G02X173157I4226*
G01*
X174705*
G37*
X184764Y171617D02*
G36*
X166942D01*
Y167743*
X176822*
G75*
G02X177927Y167920I1104J-3354*
G01*
X184764*
Y171617*
G37*
X193157Y145622D02*
G36*
X198120D01*
Y171617*
X191839*
Y164382*
G75*
G02X188301Y160845I-3537*
G01*
X182311*
Y148160*
G75*
G02X183157Y145622I-3382J-2538*
G01*
X184705*
G75*
G02X193157I4226*
G01*
G37*
X45610Y171617D02*
G36*
Y194806D01*
X32232*
Y173309*
X43134*
Y171617*
X45610*
G37*
X60259Y194806D02*
G36*
X52370D01*
Y174996*
X54300*
G75*
G02X60085Y171617I1905J-3380*
G01*
X62325*
G75*
G02X70085I3880*
G01*
X72325*
G75*
G02X80085I3880*
G01*
X82325*
G75*
G02X90085I3880*
G01*
X91955*
G75*
G02X100455I4250*
G01*
X102325*
G75*
G02X110085I3880*
G01*
X112325*
G75*
G02X120085I3880*
G01*
X122325*
G75*
G02X130085I3880*
G01*
X132325*
G75*
G02X140085I3880*
G01*
X141955*
G75*
G02X150455I4250*
G01*
X160182*
Y194014*
X142797*
G75*
G02X137767Y193981I-2537J3380*
G01*
X116569*
G75*
G02X111943I-2313J3538*
G01*
X91444*
G75*
G02X87089Y194063I-2109J3663*
G01*
X65742*
G75*
G02X60259Y194806I-2313J3537*
G01*
G37*
X183661D02*
G36*
X182642D01*
G75*
G02X173449I-4596*
G01*
X166942*
Y171617*
X184764*
Y177660*
G75*
G02X184744Y178024I3499J372*
G01*
Y191981*
G75*
G02X183661Y194806I3144J2825*
G01*
G37*
X192114D02*
G36*
G75*
G02X191839Y193304I-4226D01*
G01*
Y171617*
X198120*
Y194806*
X192114*
G37*
X45610Y207394D02*
G36*
X32232D01*
Y194806*
X45610*
Y207394*
G37*
X60259Y194806D02*
G36*
G75*
G02X59203Y197600I3170J2795D01*
G01*
G75*
G02X65742Y201138I4227J0*
G01*
X86957*
G75*
G02X91828Y201056I2378J-3495*
G01*
X111943*
G75*
G02X116569I2313J-3538*
G01*
X138150*
G75*
G02X142797Y200774I2109J-3663*
G01*
X160182*
Y205620*
X158408Y207394*
X144486*
G75*
G02X136033I-4226*
G01*
X118480*
G75*
G02X110031I-4224J125*
G01*
X93554*
G75*
G02X85116I-4219J250*
G01*
X67650*
G75*
G02X59208I-4221J206*
G01*
X52370*
Y194806*
X60259*
G37*
X183661D02*
G36*
G75*
G02X184764Y197652I4226D01*
G01*
Y207394*
X166921*
G75*
G02X166942Y207020I-3361J-375*
G01*
Y194806*
X173449*
G75*
G02X182642I4596*
G01*
X183661*
G37*
X192114D02*
G36*
X198120D01*
Y207394*
X191839*
Y196307*
G75*
G02X192114Y194806I-3951J-1501*
G01*
G37*
X48600Y232306D02*
G36*
X32232D01*
Y207394*
X45610*
Y227916*
G75*
G02X46602Y230307I3381J-1*
G01*
X48600Y232306*
G37*
X158408Y207394D02*
G36*
X140296Y225506D01*
G75*
G02X140075Y225500I-228J4409*
G01*
G75*
G02X136983Y226846I1J4229*
G01*
X116400*
G75*
G02X111921Y226471I-2537J3379*
G01*
X91693*
G75*
G02X86618I-2537J3380*
G01*
X65671*
G75*
G02X58907Y229851I-2537J3380*
G01*
Y229851*
Y229852*
G75*
G02X59693Y232306I4226*
G01*
X58159*
X52370Y226516*
Y207394*
X59208*
G75*
G02X59203Y207600I4222J208*
G01*
G75*
G02X67656I4226*
G01*
G75*
G02X67650Y207394I-4228J2*
G01*
X85116*
G75*
G02X85108Y207644I4220J252*
G01*
G75*
G02X93561I4226*
G01*
G75*
G02X93554Y207394I-4228J2*
G01*
X110031*
G75*
G02X110030Y207519I4225J129*
G01*
G75*
G02X118482I4226*
G01*
G75*
G02X118480Y207394I-4227J4*
G01*
X136033*
G75*
G02X144486I4226*
G01*
X158408*
G37*
X170919Y232306D02*
G36*
X166185D01*
Y229382*
X159945*
Y232306*
X143423*
G75*
G02X143952Y231410I-3348J-2580*
G01*
X165950Y209412*
G75*
G02X166921Y207394I-2390J-2393*
G01*
X184764*
Y213404*
X179423*
G75*
G02X177326Y214093I1J3540*
G01*
X177264*
Y214140*
G75*
G02X176031Y215937I2160J2802*
G01*
Y214093*
X171713*
Y219790*
X172242*
Y224376*
X165815*
Y223453*
X160315*
Y228559*
X165815*
Y227636*
X170919*
Y232306*
G37*
X198120Y224491D02*
G36*
X175502D01*
Y219790*
X176031*
Y217946*
G75*
G02X177264Y219743I3395J-1007*
G01*
Y219790*
X177326*
G75*
G02X179423Y220479I2098J-2851*
G01*
X188301*
G75*
G02X191839Y216941J-3537*
G01*
Y207394*
X198120*
Y224491*
G37*
X56144Y239851D02*
G36*
X32232D01*
Y232306*
X48600*
X56144Y239851*
G37*
X170919D02*
G36*
X144300D01*
G75*
G02X144302Y239726I-4225J-129*
G01*
G75*
G02X135849I-4226*
G01*
G75*
G02X135851Y239851I4227J-4*
G01*
X118072*
G75*
G02X109652I-4210J374*
G01*
X93382*
G75*
G02X84929I-4226*
G01*
X67360*
G75*
G02X61721Y235868I-4226J0*
G01*
X58159Y232306*
X59693*
G75*
G02X65671Y233231I3441J-2454*
G01*
X86618*
G75*
G02X91693I2537J-3380*
G01*
X110891*
G75*
G02X116400Y233606I2971J-3006*
G01*
X138398*
G75*
G02X143423Y232306I1678J-3880*
G01*
X159945*
Y235229*
X166185*
Y232306*
X170919*
Y239851*
G37*
Y250540D02*
G36*
X50230D01*
X33124Y250504*
X32982Y250540*
X32232*
Y239851*
X56144*
X58534Y242241*
G75*
G02X60574Y243215I2392J-2388*
G01*
G75*
G02X67360Y239852I2559J-3363*
G01*
Y239851*
X84929*
G75*
G02X93382I4226*
G01*
X109652*
G75*
G02X109636Y240226I4210J374*
G01*
G75*
G02X118089I4226*
G01*
G75*
G02X118072Y239851I-4227J-1*
G01*
X135851*
G75*
G02X144300I4224J-125*
G01*
X170919*
Y250540*
G37*
X223765Y100587D02*
X219670D01*
G75*
G02X216441Y92719I-3229J-3272*
G01*
G75*
G02X212053Y95946J4596*
G01*
Y94119*
X214915Y91257*
G75*
G02X219703Y90003I1526J-3941*
G01*
Y92140*
G75*
G02X221490Y93928I1787*
G01*
X223914*
G75*
G02X223765Y100587I2527J3388*
G01*
G36*
X219670*
G75*
G02X216441Y92719I-3229J-3272*
G01*
G75*
G02X212053Y95946J4596*
G01*
Y94119*
X214915Y91257*
G75*
G02X219703Y90003I1526J-3941*
G01*
Y92140*
G75*
G02X221490Y93928I1787*
G01*
X223914*
G75*
G02X223765Y100587I2527J3388*
G01*
G37*
X245600Y90353D02*
X229380D01*
G75*
G02X226441Y83089I-2939J-3037*
G01*
G75*
G02X223278Y84513J4226*
G01*
Y80650*
G75*
G02X231037Y77315I3163J-3335*
G01*
G75*
G02X223278Y73981I-4596*
G01*
Y70118*
G75*
G02X230489Y68532I3163J-2803*
G01*
X239337*
Y71508*
G75*
G02X240967Y73138I1630*
G01*
X245118*
Y73668*
X250815*
Y73662*
X254069*
Y76386*
X253926*
X253131Y75526*
G75*
G02X251817Y74953I-1312J1214*
G01*
X245953*
G75*
G02X245309Y75073J1787*
G01*
X240939*
Y78408*
X245309*
G75*
G02X245953Y78528I644J-1667*
G01*
X251038*
X251833Y79388*
G75*
G02X253147Y79961I1312J-1214*
G01*
X253407*
G75*
G02X253297Y80063I1159J1363*
G01*
X251337Y82035*
Y79428*
X240569*
Y83502*
X249908*
X249054Y84402*
X245953*
G75*
G02X245309Y84522J1787*
G01*
X240939*
Y87857*
X245309*
G75*
G02X245953Y87977I644J-1667*
G01*
X249820*
G75*
G02X250466Y87857I2J-1787*
G01*
X250967*
Y87562*
G75*
G02X251119Y87420I-1143J-1374*
G01*
X253101Y85331*
X254069Y84357*
Y85842*
X250676Y89235*
X245600*
Y90353*
G36*
X229380*
G75*
G02X226441Y83089I-2939J-3037*
G01*
G75*
G02X223278Y84513J4226*
G01*
Y80650*
G75*
G02X231037Y77315I3163J-3335*
G01*
G75*
G02X223278Y73981I-4596*
G01*
Y70118*
G75*
G02X230489Y68532I3163J-2803*
G01*
X239337*
Y71508*
G75*
G02X240967Y73138I1630*
G01*
X245118*
Y73668*
X250815*
Y73662*
X254069*
Y76386*
X253926*
X253131Y75526*
G75*
G02X251817Y74953I-1312J1214*
G01*
X245953*
G75*
G02X245309Y75073J1787*
G01*
X240939*
Y78408*
X245309*
G75*
G02X245953Y78528I644J-1667*
G01*
X251038*
X251833Y79388*
G75*
G02X253147Y79961I1312J-1214*
G01*
X253407*
G75*
G02X253297Y80063I1159J1363*
G01*
X251337Y82035*
Y79428*
X240569*
Y83502*
X249908*
X249054Y84402*
X245953*
G75*
G02X245309Y84522J1787*
G01*
X240939*
Y87857*
X245309*
G75*
G02X245953Y87977I644J-1667*
G01*
X249820*
G75*
G02X250466Y87857I2J-1787*
G01*
X250967*
Y87562*
G75*
G02X251119Y87420I-1143J-1374*
G01*
X253101Y85331*
X254069Y84357*
Y85842*
X250676Y89235*
X245600*
Y90353*
G37*
X261636Y73188D02*
Y60548D01*
X283132*
Y60918*
X287439*
Y79693*
X265691*
G75*
G02X262369Y81323I-1261J1630*
G01*
G75*
G02X265691Y82953I2061*
G01*
X287439*
Y86351*
X265947*
Y85981*
X261636*
Y76763*
X263148*
G75*
G02X266235Y74975I1026J-1787*
G01*
G75*
G02X263148Y73188I-2061*
G01*
X261636*
G36*
Y60548*
X283132*
Y60918*
X287439*
Y79693*
X265691*
G75*
G02X262369Y81323I-1261J1630*
G01*
G75*
G02X265691Y82953I2061*
G01*
X287439*
Y86351*
X265947*
Y85981*
X261636*
Y76763*
X263148*
G75*
G02X266235Y74975I1026J-1787*
G01*
G75*
G02X263148Y73188I-2061*
G01*
X261636*
G37*
X284043Y52611D02*
Y52469D01*
X293615*
G75*
G02X296667Y49818I1261J-1630*
G01*
G75*
G02X299157Y46544I1143J-1715*
G01*
X300854*
Y54014*
X295476*
Y59073*
X300854*
Y59935*
X295846*
Y60796*
X295006*
Y60365*
X287994*
Y52611*
X284043*
G36*
Y52469*
X293615*
G75*
G02X296667Y49818I1261J-1630*
G01*
G75*
G02X299157Y46544I1143J-1715*
G01*
X300854*
Y54014*
X295476*
Y59073*
X300854*
Y59935*
X295846*
Y60796*
X295006*
Y60365*
X287994*
Y52611*
X284043*
G37*
X373488Y93113D02*
X360056D01*
G75*
G02X359754Y92570I-1932J719*
G01*
Y86994*
X360972*
Y82676*
X355276*
Y86994*
X356494*
Y92570*
G75*
G02X356192Y93113I1630J1262*
G01*
X351766*
Y122768*
G75*
G02X345885Y126380I-1831J3613*
G01*
G75*
G02X351766Y129993I4050*
G01*
Y146154*
X237406*
Y169599*
X202955*
Y43850*
G75*
G02X228098Y39865I12256J-3986*
G01*
G75*
G02X219196Y27609I-12888J0*
G01*
X332533*
Y27680*
X332465*
Y56380*
X368344*
X373488Y61524*
Y93113*
X363734Y68870D02*
X369974D01*
Y63024*
X363734*
Y68870*
X363976Y81788D02*
X369673D01*
Y77469*
X368612*
Y74800*
X369604*
Y69693*
X364104*
Y74800*
X365037*
Y77469*
X363976*
Y81788*
X368455Y87339D02*
X369673D01*
Y83020*
X363976*
Y87339*
X365195*
Y89204*
G75*
G02X364764Y90465I1630J1261*
G01*
G75*
G02X368886I2061*
G01*
G75*
G02X368455Y89204I-2061*
G01*
Y87339*
X355260Y68733D02*
X361500D01*
Y62886*
X355260*
Y68733*
X359754Y74662D02*
X361130D01*
Y69556*
X355630*
Y74662*
X356494*
Y77124*
X355276*
Y81443*
X360972*
Y77124*
X359754*
Y74662*
X243350Y110180D02*
X248409D01*
Y103743*
X243350*
Y110180*
X245230Y99475D02*
X251667D01*
Y94416*
X245230*
Y99475*
X249175Y135317D02*
G75*
G02X256935I3880D01*
G01*
G75*
G02X249175I-3880*
G01*
X335404Y95528D02*
X335933D01*
Y87863*
X331614*
Y95528*
X332144*
Y105252*
X299537*
Y78174*
G75*
G02X298497Y76654I-1630*
G01*
X302368*
X311267Y85553*
G75*
G02X312421Y86032I1154J-1151*
G01*
X317144*
Y87863*
X316614*
Y95528*
X320933*
Y87863*
X320404*
Y84402*
G75*
G02X318774Y82772I-1630*
G01*
X313096*
X304197Y73873*
G75*
G02X303043Y73394I-1154J1151*
G01*
X302009*
G75*
G02Y70355I-1392J-1520*
G01*
X302040*
G75*
G02X304728Y70212I1261J-1630*
G01*
Y70968*
G75*
G02X304297Y72230I1630J1261*
G01*
G75*
G02X308419I2061*
G01*
G75*
G02X307988Y70968I-2061*
G01*
Y67079*
G75*
G02X307509Y65925I-1630*
G01*
X306008Y64424*
G75*
G02X304854Y63945I-1154J1151*
G01*
X301543*
Y63727*
X302484*
G75*
G02X304114Y62097J-1630*
G01*
Y53681*
G75*
G02X306780Y55491I3527J-2328*
G01*
Y57916*
G75*
G02X307258Y59070I1630*
G01*
X311002Y62813*
Y74924*
G75*
G02X311481Y76078I1630*
G01*
X316714Y81311*
G75*
G02X317868Y81790I1154J-1151*
G01*
X322144*
Y87863*
X321614*
Y95528*
X325933*
Y87863*
X325404*
Y81910*
G75*
G02X326376Y80160I-1089J-1750*
G01*
G75*
G02X323054Y78530I-2061*
G01*
X318543*
X314262Y74248*
Y62138*
G75*
G02X313783Y60984I-1630*
G01*
X310039Y57241*
Y54833*
G75*
G02X311868Y51353I-2398J-3480*
G01*
G75*
G02X304114Y49025I-4226*
G01*
Y44914*
G75*
G02X302484Y43284I-1630*
G01*
X282402*
Y34846*
G75*
G02X282833Y33585I-1630J-1261*
G01*
G75*
G02X278711I-2061*
G01*
G75*
G02X279142Y34846I2061*
G01*
Y44914*
G75*
G02X280296Y46473I1630*
G01*
X279263*
G75*
G02X277633Y48103J1630*
G01*
Y52981*
X261455*
Y60365*
X258209*
Y56904*
G75*
G02X258482Y55878I-1787J-1026*
G01*
G75*
G02X254360I-2061*
G01*
G75*
G02X254634Y56904I2061*
G01*
Y60365*
X254069*
Y70087*
X250815*
Y69349*
X245118*
Y69878*
X242596*
Y67635*
G75*
G02X242754Y66902I-1630J-733*
G01*
Y58628*
X259353Y42075*
X265043*
G75*
G02X266831Y40288J-1787*
G01*
Y36487*
X267203*
Y35267*
X267985*
G75*
G02X271307Y33637I1261J-1630*
G01*
G75*
G02X267985Y32007I-2061*
G01*
X267203*
Y30790*
X262884*
Y36487*
X263256*
Y38500*
X258614*
G75*
G02X257351Y39024I0J1787*
G01*
X239706Y56619*
G75*
G02X239179Y57886I1261J1267*
G01*
Y65272*
X230141*
G75*
G02X222635Y65479I-3700J2043*
G01*
X222224*
G75*
G02X220757I-733J1630*
G01*
X220247*
G75*
G02X212215Y67315I-3806J1837*
G01*
G75*
G02X219703Y70003I4226*
G01*
Y74628*
G75*
G02X212215Y77315I-3262J2687*
G01*
G75*
G02X219703Y80003I4226*
G01*
Y84628*
G75*
G02X212440Y88676I-3262J2687*
G01*
X209002Y92115*
G75*
G02X208478Y93378I1264J1264*
G01*
Y100393*
G75*
G02Y100395I654J1*
G01*
G75*
G02Y100396I663J0*
G01*
G75*
G02X209002Y101659I1787*
G01*
X210980Y103638*
G75*
G02X212247Y104162I1264J-1264*
G01*
X213097*
G75*
G02X216441Y111912I3344J3154*
G01*
G75*
G02X219785Y104162J-4596*
G01*
X223627*
G75*
G02X226441Y111542I2814J3154*
G01*
G75*
G02X229255Y104162J-4226*
G01*
X232088*
G75*
G02X235175Y102374I1026J-1787*
G01*
G75*
G02X232088Y100587I-2061*
G01*
X229117*
G75*
G02X228968Y93928I-2676J-3272*
G01*
X248449*
G75*
G02X249543Y93554J-1787*
G01*
X251297*
Y93163*
G75*
G02X252311Y92655I-252J-1770*
G01*
X258433Y86534*
X261085*
Y94288*
X263157*
X253332Y104113*
X249272*
Y109809*
X253591*
Y108652*
G75*
G02X254278Y108223I-578J-1691*
G01*
X266542Y95959*
X267868Y94750*
G75*
G02X268026Y94586I-1206J-1320*
G01*
Y95826*
X263936Y99870*
G75*
G02X263404Y101143I1255J1273*
G01*
Y106073*
G75*
G02X263130Y107099I1787J1026*
G01*
G75*
G02X267252I2061*
G01*
G75*
G02X266978Y106073I-2061*
G01*
Y101889*
X270599Y98309*
G75*
G02X270609Y98299I-1301J-1261*
G01*
X271077Y97830*
G75*
G02X271334Y97505I-1264J-1265*
G01*
Y105306*
G75*
G02X274483Y107959I1630J1261*
G01*
Y108692*
G75*
G02X274052Y109953I1630J1261*
G01*
G75*
G02X278174I2061*
G01*
G75*
G02X277743Y108692I-2061*
G01*
Y108639*
G75*
G02X280588Y108621I1413J-1500*
G01*
G75*
G02X280352Y109579I1825J958*
G01*
G75*
G02X284474I2061*
G01*
G75*
G02X284043Y108318I-2061*
G01*
Y101793*
G75*
G02X287026Y98977I1354J-1554*
G01*
Y93918*
X287624*
Y86534*
X289350*
Y102569*
G75*
G02X289076Y103595I1787J1026*
G01*
G75*
G02X293198I2061*
G01*
G75*
G02X292925Y102569I-2061*
G01*
Y86534*
X295006*
Y79804*
X296278*
Y106882*
G75*
G02X297907Y108512I1630*
G01*
X333774*
G75*
G02X335404Y106882J-1630*
G01*
Y95528*
X326244Y95898D02*
X331303D01*
Y87493*
X326244*
Y95898*
X329271Y55253D02*
G75*
G02X331868Y51353I-1630J-3900D01*
G01*
G75*
G02X324528Y48495I-4226*
G01*
Y44211*
G75*
G02X331868Y41353I3114J-2858*
G01*
G75*
G02X323742Y39723I-4226*
G01*
X322898*
G75*
G02X322026Y39976J1630*
G01*
G75*
G02X313045Y41353I-4385J1378*
G01*
G75*
G02X321268Y44178I4596*
G01*
Y48529*
G75*
G02X313045Y51353I-3626J2824*
G01*
G75*
G02X321268Y54178I4596*
G01*
Y59132*
X320738*
Y64829*
X321268*
Y70435*
G75*
G02X321614Y71440I1630*
G01*
Y74268*
X325933*
Y66603*
X324528*
Y64829*
X325057*
Y59132*
X324528*
Y54211*
G75*
G02X326011Y55253I3114J-2858*
G01*
Y61981*
G75*
G02X326289Y62891I1630*
G01*
Y64829*
X326819*
Y66603*
X326614*
Y74268*
X330933*
Y66603*
X330079*
Y64829*
X330608*
Y59132*
X329271*
Y55253*
X342126Y64750D02*
X342656D01*
Y59054*
X338337*
Y64750*
X338866*
Y68806*
X335933*
Y66603*
X331614*
Y74268*
X335933*
Y72065*
X340496*
G75*
G02X342126Y70435J-1630*
G01*
Y64750*
X316614Y74268D02*
X320933D01*
Y66603*
X316614*
Y74268*
X303415Y41353D02*
G75*
G02X311868I4226D01*
G01*
G75*
G02X303415I-4226*
G01*
X244748Y68487D02*
X251185D01*
Y63428*
X244748*
Y68487*
X240437Y36536D02*
X246283D01*
Y30296*
X240437*
Y36536*
X257333Y36487D02*
X261652D01*
Y30790*
X257333*
Y31786*
X252213*
Y30666*
X247106*
Y36166*
X252213*
Y35046*
X257333*
Y36487*
X259175Y135317D02*
G75*
G02X266935I3880D01*
G01*
G75*
G02X259175I-3880*
G01*
X269175D02*
G75*
G02X276935I3880D01*
G01*
G75*
G02X269175I-3880*
G01*
X279175D02*
G75*
G02X286935I3880D01*
G01*
G75*
G02X279175I-3880*
G01*
X288805D02*
G75*
G02X297305I4250D01*
G01*
G75*
G02X288805I-4250*
G01*
X299175D02*
G75*
G02X306935I3880D01*
G01*
G75*
G02X299175I-3880*
G01*
X309175D02*
G75*
G02X316935I3880D01*
G01*
G75*
G02X309175I-3880*
G01*
X319175D02*
G75*
G02X326935I3880D01*
G01*
G75*
G02X319175I-3880*
G01*
X329175D02*
G75*
G02X336935I3880D01*
G01*
G75*
G02X329175I-3880*
G01*
X338805D02*
G75*
G02X347305I4250D01*
G01*
G75*
G02X338805I-4250*
G01*
X343518Y65120D02*
X348577D01*
Y58683*
X343518*
Y65120*
X211844Y117315D02*
G75*
G02X221037I4596D01*
G01*
G75*
G02X211844I-4596*
G01*
Y127315D02*
G75*
G02X221037I4596D01*
G01*
G75*
G02X211844I-4596*
G01*
Y147315D02*
G75*
G02X221037I4596D01*
G01*
G75*
G02X211844I-4596*
G01*
X212215Y137315D02*
G75*
G02X220667I4226D01*
G01*
G75*
G02X212215I-4226*
G01*
X211844Y157315D02*
G75*
G02X221037I4596D01*
G01*
G75*
G02X211844I-4596*
G01*
X222215Y117315D02*
G75*
G02X230667I4226D01*
G01*
G75*
G02X222215I-4226*
G01*
Y127315D02*
G75*
G02X230667I4226D01*
G01*
G75*
G02X222215I-4226*
G01*
Y137315D02*
G75*
G02X230667I4226D01*
G01*
G75*
G02X222215I-4226*
G01*
Y147315D02*
G75*
G02X230667I4226D01*
G01*
G75*
G02X222215I-4226*
G01*
Y157315D02*
G75*
G02X230667I4226D01*
G01*
G75*
G02X222215I-4226*
G01*
X332465Y33416D02*
G36*
X282826D01*
G75*
G02X278718I-2054J169*
G01*
X271295*
G75*
G02X267985Y32007I-2049J221*
G01*
X267203*
Y30790*
X262884*
Y33416*
X261652*
Y30790*
X257333*
Y31786*
X252213*
Y30666*
X247106*
Y33416*
X246283*
Y30296*
X240437*
Y33416*
X226369*
G75*
G02X219896Y27859I-11159J6449*
G01*
X332465*
Y33416*
G37*
X262884D02*
G36*
Y36487D01*
X263256*
Y38500*
X258614*
G75*
G02X257351Y39024I1J1789*
G01*
X255015Y41353*
X228012*
G75*
G02X228098Y39865I-12803J-1488*
G01*
G75*
G02X226369Y33416I-12888*
G01*
X240437*
Y36536*
X246283*
Y33416*
X247106*
Y36166*
X252213*
Y35046*
X257333*
Y36487*
X261652*
Y33416*
X262884*
G37*
X278718D02*
G36*
G75*
G02X278711Y33585I2054J171D01*
G01*
G75*
G02Y33586I2374J0*
G01*
G75*
G02X279142Y34846I2059*
G01*
Y41353*
X266478*
G75*
G02X266831Y40288I-1435J-1066*
G01*
Y36487*
X267203*
Y35267*
X267985*
G75*
G02X271307Y33637I1261J-1630*
G01*
G75*
G02X271295Y33416I-2063J-1*
G01*
X278718*
G37*
X332465Y41353D02*
G36*
X331868D01*
G75*
G02X323742Y39723I-4226J0*
G01*
X322898*
G75*
G02X322026Y39976I-1J1626*
G01*
G75*
G02X313045Y41353I-4385J1378*
G01*
X311868*
G75*
G02X303415I-4226*
G01*
X282402*
Y34846*
G75*
G02X282833Y33586I-1628J-1261*
G01*
G75*
G02Y33585I-2374J0*
G01*
G75*
G02X282826Y33416I-2061J2*
G01*
X332465*
Y41353*
G37*
X255015D02*
G36*
X239706Y56619D01*
G75*
G02X239179Y57885I1260J1266*
G01*
G75*
G02Y57886I1961J0*
G01*
Y61902*
X203205*
Y44550*
G75*
G02X228012Y41353I12006J-4685*
G01*
X255015*
G37*
X254069Y61902D02*
G36*
X242754D01*
Y58628*
X259353Y42075*
X265043*
G75*
G02X266478Y41353I0J-1788*
G01*
X279142*
Y44914*
G75*
G02X280296Y46473I1630*
G01*
X279263*
G75*
G02X277633Y48103J1630*
G01*
Y52981*
X261455*
Y60365*
X258209*
Y56904*
G75*
G02X258482Y55878I-1788J-1026*
G01*
G75*
G02X254360I-2061*
G01*
G75*
G02X254634Y56904I2062J0*
G01*
Y60365*
X254069*
Y61902*
G37*
X310091D02*
G36*
X304114D01*
Y53681*
G75*
G02X306780Y55491I3526J-2328*
G01*
Y57916*
Y57916*
G75*
G02X307258Y59070I1629*
G01*
X310091Y61902*
G37*
X326011D02*
G36*
X325057D01*
Y59132*
X324528*
Y54211*
G75*
G02X326011Y55253I3118J-2864*
G01*
Y61902*
G37*
X313045Y41353D02*
G36*
G75*
G02X321268Y44178I4596D01*
G01*
Y48529*
G75*
G02X313045Y51353I-3626J2824*
G01*
G75*
G02X321268Y54178I4596*
G01*
Y59132*
X320738*
Y61902*
X314244*
G75*
G02X313783Y60984I-1612J235*
G01*
X310039Y57241*
Y54833*
G75*
G02X311868Y51353I-2399J-3481*
G01*
G75*
G02X304114Y49025I-4226J0*
G01*
Y44914*
G75*
G02X302484Y43284I-1630*
G01*
X282402*
Y41353*
X303415*
G75*
G02X311868I4226*
G01*
X313045*
G37*
X373238Y61274D02*
G36*
Y61902D01*
X348577*
Y58683*
X343518*
Y61902*
X342656*
Y59054*
X338337*
Y61902*
X330608*
Y59132*
X329271*
Y55253*
G75*
G02X331868Y51353I-1631J-3900*
G01*
Y51353*
G75*
G02X324528Y48495I-4226*
G01*
Y44211*
G75*
G02X331868Y41354I3114J-2857*
G01*
Y41353*
X332465*
Y56380*
X368344*
X373238Y61274*
G37*
X212442Y65947D02*
G36*
X203205D01*
Y61902*
X239179*
Y65272*
X230141*
G75*
G02X222635Y65479I-3700J2043*
G01*
X222224*
G75*
G02X220757I-733J1630*
G01*
X220247*
G75*
G02X212442Y65947I-3806J1837*
G01*
G37*
X254069D02*
G36*
X251185D01*
Y63428*
X244748*
Y65947*
X242754*
Y61902*
X254069*
Y65947*
G37*
X311002D02*
G36*
X307531D01*
G75*
G02X307509Y65925I-1173J1130*
G01*
X306008Y64424*
G75*
G02X304854Y63945I-1154J1150*
G01*
X301543*
Y63727*
X302484*
G75*
G02X304114Y62097J-1630*
G01*
Y61902*
X310091*
X311002Y62813*
Y65947*
G37*
X320738Y61902D02*
G36*
Y64829D01*
X321268*
Y65947*
X314262*
Y62138*
Y62138*
G75*
G02X314244Y61902I-1630J1*
G01*
X320738*
G37*
X326011D02*
G36*
Y61981D01*
G75*
G02Y61982I1471J1*
G01*
G75*
G02X326289Y62891I1625*
G01*
Y64829*
X326819*
Y65947*
X324528*
Y64829*
X325057*
Y61902*
X326011*
G37*
X338337D02*
G36*
Y64750D01*
X338866*
Y65947*
X330079*
Y64829*
X330608*
Y61902*
X338337*
G37*
X369974Y65947D02*
G36*
Y63024D01*
X363734*
Y65947*
X361500*
Y62886*
X355260*
Y65947*
X342126*
Y64750*
X342656*
Y61902*
X343518*
Y65120*
X348577*
Y61902*
X373238*
Y65947*
X369974*
G37*
X212442D02*
G36*
G75*
G02X212215Y67315I3999J1368D01*
G01*
G75*
G02X213590Y70435I4226*
G01*
X203205*
Y65947*
X212442*
G37*
X219703Y70435D02*
G36*
X219292D01*
G75*
G02X219703Y70003I-2851J-3120*
G01*
Y70435*
G37*
X254069Y65947D02*
G36*
Y70087D01*
X250815*
Y69349*
X245118*
Y69878*
X242596*
Y67635*
G75*
G02X242754Y66903I-1626J-733*
G01*
G75*
G02Y66902I-2148J0*
G01*
Y65947*
X244748*
Y68487*
X251185*
Y65947*
X254069*
G37*
X302152Y70435D02*
G36*
X302093D01*
G75*
G02X302009Y70355I-1475J1442*
G01*
X302040*
G75*
G02X302152Y70435I1261J-1630*
G01*
G37*
X304728D02*
G36*
X304451D01*
G75*
G02X304728Y70212I-1150J-1711*
G01*
Y70435*
G37*
X311002D02*
G36*
X307988D01*
Y67079*
Y67079*
G75*
G02X307531Y65947I-1629*
G01*
X311002*
Y70435*
G37*
X321268D02*
G36*
X320933D01*
Y66603*
X316614*
Y70435*
X314262*
Y65947*
X321268*
Y70435*
G37*
X326614D02*
G36*
X325933D01*
Y66603*
X324528*
Y65947*
X326819*
Y66603*
X326614*
Y70435*
G37*
X331614D02*
G36*
X330933D01*
Y66603*
X330079*
Y65947*
X338866*
Y68806*
X335933*
Y66603*
X331614*
Y70435*
G37*
X369604D02*
G36*
Y69693D01*
X364104*
Y70435*
X361130*
Y69556*
X355630*
Y70435*
X342126*
Y65947*
X355260*
Y68733*
X361500*
Y65947*
X363734*
Y68870*
X369974*
Y65947*
X373238*
Y70435*
X369604*
G37*
X212519Y75741D02*
G36*
X203205D01*
Y70435*
X213590*
G75*
G02X219292I2851J-3120*
G01*
X219703*
Y74628*
G75*
G02X212519Y75741I-3262J2687*
G01*
G37*
X311221D02*
G36*
X306065D01*
X304197Y73873*
G75*
G02X303043Y73394I-1154J1150*
G01*
X302009*
G75*
G02X302678Y71874I-1392J-1520*
G01*
G75*
G02X302093Y70435I-2061J0*
G01*
X302152*
G75*
G02X304451I1150J-1710*
G01*
X304728*
Y70968*
G75*
G02X304297Y72229I1628J1261*
G01*
G75*
G02Y72230I2374J0*
G01*
G75*
G02X308419I2061*
G01*
G75*
G02Y72229I-2374J0*
G01*
G75*
G02X307988Y70968I-2059*
G01*
Y70435*
X311002*
Y74924*
Y74924*
G75*
G02X311221Y75741I1629J0*
G01*
G37*
X355630Y70435D02*
G36*
Y74662D01*
X356494*
Y75741*
X315754*
X314262Y74248*
Y70435*
X316614*
Y74268*
X320933*
Y70435*
X321268*
G75*
G02Y70436I2148J0*
G01*
G75*
G02X321614Y71440I1628*
G01*
Y74268*
X325933*
Y70435*
X326614*
Y74268*
X330933*
Y70435*
X331614*
Y74268*
X335933*
Y72065*
X340496*
G75*
G02X342126Y70435J-1630*
G01*
X355630*
G37*
X364104D02*
G36*
Y74800D01*
X365037*
Y75741*
X359754*
Y74662*
X361130*
Y70435*
X364104*
G37*
X369604D02*
G36*
X373238D01*
Y75741*
X368612*
Y74800*
X369604*
Y70435*
G37*
X212519Y75741D02*
G36*
G75*
G02X212215Y77315I3922J1575D01*
G01*
G75*
G02X219703Y80003I4226*
G01*
Y84628*
G75*
G02X212215Y87315I-3262J2687*
G01*
G75*
G02X212239Y87773I4226J0*
G01*
X203205*
Y75741*
X212519*
G37*
X261085Y87773D02*
G36*
X257194D01*
X258433Y86534*
X261085*
Y87773*
G37*
X289350D02*
G36*
X287624D01*
Y86534*
X289350*
Y87773*
G37*
X296278D02*
G36*
X292925D01*
Y86534*
X295006*
Y79804*
X296278*
Y87773*
G37*
X317144D02*
G36*
X299537D01*
Y78174*
G75*
G02X298497Y76654I-1630*
G01*
X302368*
X311267Y85553*
G75*
G02X312421Y86032I1154J-1150*
G01*
X317144*
Y87773*
G37*
X322144D02*
G36*
X320404D01*
Y84402*
G75*
G02X318774Y82772I-1630*
G01*
X313096*
X306065Y75741*
X311221*
G75*
G02X311481Y76078I1410J-817*
G01*
X316714Y81311*
G75*
G02X317868Y81790I1154J-1150*
G01*
X322144*
Y87773*
G37*
X368612Y75741D02*
G36*
X373238D01*
Y87773*
X368455*
Y87339*
X369673*
Y83020*
X363976*
Y87339*
X365195*
Y87773*
X359754*
Y86994*
X360972*
Y82676*
X355276*
Y86994*
X356494*
Y87773*
X331303*
Y87493*
X326244*
Y87773*
X325404*
Y81910*
G75*
G02X326376Y80160I-1088J-1750*
G01*
Y80160*
G75*
G02X323054Y78530I-2061*
G01*
X318543*
X315754Y75741*
X356494*
Y77124*
X355276*
Y81443*
X360972*
Y77124*
X359754*
Y75741*
X365037*
Y77469*
X363976*
Y81788*
X369673*
Y77469*
X368612*
Y75741*
G37*
X212239Y87773D02*
G36*
G75*
G02X212440Y88676I4202J-458D01*
G01*
X209002Y92115*
G75*
G02X208478Y93378I1265J1265*
G01*
Y96945*
X203205*
Y87773*
X212239*
G37*
X266894Y96945D02*
G36*
X265556D01*
X266542Y95959*
X267868Y94750*
G75*
G02X268026Y94586I-1257J-1370*
G01*
Y95826*
X266894Y96945*
G37*
X261085Y87773D02*
G36*
Y94288D01*
X263157*
X260500Y96945*
X251667*
Y94416*
X245230*
Y96945*
X230651*
G75*
G02X228968Y93928I-4210J370*
G01*
X248449*
G75*
G02X249543Y93554I0J-1788*
G01*
X251297*
Y93163*
G75*
G02X252311Y92655I-251J-1768*
G01*
X257194Y87773*
X261085*
G37*
X289350Y96945D02*
G36*
X287026D01*
Y93918*
X287624*
Y87773*
X289350*
Y96945*
G37*
X296278D02*
G36*
X292925D01*
Y87773*
X296278*
Y96945*
G37*
X351766D02*
G36*
X335404D01*
Y95528*
X335933*
Y87863*
X331614*
Y95528*
X332144*
Y96945*
X299537*
Y87773*
X317144*
Y87863*
X316614*
Y95528*
X320933*
Y87863*
X320404*
Y87773*
X322144*
Y87863*
X321614*
Y95528*
X325933*
Y87863*
X325404*
Y87773*
X326244*
Y95898*
X331303*
Y87773*
X356494*
Y92570*
G75*
G02X356192Y93113I1617J1255*
G01*
X351766*
Y96945*
G37*
X373238Y93113D02*
G36*
X360056D01*
G75*
G02X359754Y92570I-1919J712*
G01*
Y87773*
X365195*
Y89204*
G75*
G02X364764Y90464I1628J1261*
G01*
G75*
G02Y90465I2374J0*
G01*
G75*
G02X368886I2061*
G01*
G75*
G02Y90464I-2374J0*
G01*
G75*
G02X368455Y89204I-2059*
G01*
Y87773*
X373238*
Y93113*
G37*
X208478Y96945D02*
G36*
Y100393D01*
Y100395*
Y100396*
G75*
G02X209002Y101659I1786J1*
G01*
X210980Y103638*
G75*
G02X212247Y104162I1264J-1264*
G01*
X213097*
G75*
G02X211858Y106961I3344J3153*
G01*
X203205*
Y96945*
X208478*
G37*
X222230Y106961D02*
G36*
X221024D01*
G75*
G02X219785Y104162I-4583J354*
G01*
X223627*
G75*
G02X222230Y106961I2814J3154*
G01*
G37*
X260500Y96945D02*
G36*
X253332Y104113D01*
X249272*
Y106961*
X248409*
Y103743*
X243350*
Y106961*
X230652*
G75*
G02X229255Y104162I-4211J354*
G01*
X232088*
G75*
G02X235175Y102374I1026J-1788*
G01*
G75*
G02X232088Y100587I-2061J0*
G01*
X229117*
G75*
G02X230667Y97315I-2676J-3272*
G01*
G75*
G02X230651Y96945I-4226J4*
G01*
X245230*
Y99475*
X251667*
Y96945*
X260500*
G37*
X270941Y106961D02*
G36*
X267247D01*
G75*
G02X266978Y106073I-2057J138*
G01*
Y101889*
X270599Y98309*
G75*
G03X270609Y98299I133J118*
G01*
X271077Y97830*
G75*
G02X271334Y97505I-1266J-1266*
G01*
Y105306*
G75*
G02X270903Y106567I1630J1261*
G01*
G75*
G02X270941Y106961I2061J-1*
G01*
G37*
X266894Y96945D02*
G36*
X263936Y99870D01*
G75*
G02X263404Y101143I1256J1273*
G01*
Y106073*
G75*
G02X263135Y106961I1788J1026*
G01*
X255540*
X265556Y96945*
X266894*
G37*
X296280Y106961D02*
G36*
X284043D01*
Y101793*
G75*
G02X287457Y100239I1354J-1554*
G01*
G75*
G02X287026Y98977I-2061*
G01*
Y96945*
X289350*
Y102569*
G75*
G02X289076Y103595I1788J1026*
G01*
G75*
G02X293198I2061*
G01*
G75*
G02X292925Y102569I-2062J0*
G01*
Y96945*
X296278*
Y106882*
G75*
G02X296280Y106961I1631J-1*
G01*
G37*
X332144Y96945D02*
G36*
Y105252D01*
X299537*
Y96945*
X332144*
G37*
X351766Y106961D02*
G36*
X335402D01*
G75*
G02X335404Y106882I-1629J-80*
G01*
Y96945*
X351766*
Y106961*
G37*
Y117315D02*
G36*
X230667D01*
G75*
G02X222215I-4226*
G01*
X221037*
G75*
G02X211844I-4596*
G01*
X203205*
Y106961*
X211858*
G75*
G02X211844Y107315I4583J356*
G01*
G75*
G02X216441Y111912I4596*
G01*
G75*
G02X221037Y107315J-4596*
G01*
G75*
G02X221024Y106961I-4597J1*
G01*
X222230*
G75*
G02X222215Y107315I4212J355*
G01*
G75*
G02X226441Y111542I4226*
G01*
G75*
G02X230667Y107315J-4226*
G01*
G75*
G02X230652Y106961I-4227J1*
G01*
X243350*
Y110180*
X248409*
Y106961*
X249272*
Y109809*
X253591*
Y108652*
G75*
G02X254278Y108223I-578J-1691*
G01*
X255540Y106961*
X263135*
G75*
G02X263130Y107099I2058J139*
G01*
G75*
G02X267252I2061*
G01*
G75*
G02X267247Y106961I-2063J2*
G01*
X270941*
G75*
G02X274483Y107959I2023J-394*
G01*
Y108692*
G75*
G02X274052Y109952I1628J1261*
G01*
G75*
G02Y109953I2374J0*
G01*
G75*
G02X278174I2061*
G01*
G75*
G02Y109952I-2374J0*
G01*
G75*
G02X277743Y108692I-2059*
G01*
Y108639*
G75*
G02X280588Y108621I1413J-1500*
G01*
G75*
G02X280352Y109579I1824J958*
G01*
Y109579*
G75*
G02X284474I2061*
G01*
G75*
G02Y109578I-2374J0*
G01*
G75*
G02X284043Y108318I-2059*
G01*
Y106961*
X296280*
G75*
G02X297907Y108512I1628J-79*
G01*
X333774*
G75*
G02X335402Y106961I0J-1630*
G01*
X351766*
Y117315*
G37*
X345994Y127315D02*
G36*
X230667D01*
G75*
G02X222215I-4226*
G01*
X221037*
G75*
G02X211844I-4596*
G01*
X203205*
Y117315*
X211844*
G75*
G02X221037I4596*
G01*
X222215*
G75*
G02X230667I4226*
G01*
X351766*
Y122768*
G75*
G02X345885Y126380I-1830J3613*
G01*
G75*
G02X345994Y127315I4050*
G01*
G37*
X351766Y135317D02*
G36*
X347305D01*
G75*
G02X338805I-4250*
G01*
X336935*
G75*
G02X329175I-3880*
G01*
X326935*
G75*
G02X319175I-3880*
G01*
X316935*
G75*
G02X309175I-3880*
G01*
X306935*
G75*
G02X299175I-3880*
G01*
X297305*
G75*
G02X288805I-4250*
G01*
X286935*
G75*
G02X279175I-3880*
G01*
X276935*
G75*
G02X269175I-3880*
G01*
X266935*
G75*
G02X259175I-3880*
G01*
X256935*
G75*
G02X249175I-3880*
G01*
X230165*
G75*
G02X222717I-3724J1998*
G01*
X220165*
G75*
G02X212717I-3724J1998*
G01*
X203205*
Y127315*
X211844*
G75*
G02X221037I4596*
G01*
X222215*
G75*
G02X230667I4226*
G01*
X345994*
G75*
G02X351766Y129993I3941J-935*
G01*
Y135317*
G37*
X237406Y147315D02*
G36*
X230667D01*
G75*
G02X222215I-4226*
G01*
X221037*
G75*
G02X211844I-4596*
G01*
X203205*
Y135317*
X212717*
G75*
G02X212215Y137315I3724J1998*
G01*
G75*
G02X220667I4226*
G01*
G75*
G02X220165Y135317I-4226J0*
G01*
X222717*
G75*
G02X222215Y137315I3724J1998*
G01*
G75*
G02X230667I4226*
G01*
G75*
G02X230165Y135317I-4226J0*
G01*
X249175*
G75*
G02X256935I3880*
G01*
X259175*
G75*
G02X266935I3880*
G01*
X269175*
G75*
G02X276935I3880*
G01*
X279175*
G75*
G02X286935I3880*
G01*
X288805*
G75*
G02X297305I4250*
G01*
X299175*
G75*
G02X306935I3880*
G01*
X309175*
G75*
G02X316935I3880*
G01*
X319175*
G75*
G02X326935I3880*
G01*
X329175*
G75*
G02X336935I3880*
G01*
X338805*
G75*
G02X347305I4250*
G01*
X351766*
Y146154*
X237406*
Y147315*
G37*
Y157315D02*
G36*
X230667D01*
G75*
G02X222215I-4226*
G01*
X221037*
G75*
G02X211844I-4596*
G01*
X203205*
Y147315*
X211844*
G75*
G02X221037I4596*
G01*
X222215*
G75*
G02X230667I4226*
G01*
X237406*
Y157315*
G37*
Y169349D02*
G36*
X203205D01*
Y157315*
X211844*
G75*
G02X221037I4596*
G01*
X222215*
G75*
G02X230667I4226*
G01*
X237406*
Y169349*
G37*
X395220Y224491D02*
X372352D01*
Y219790*
X372882*
Y217946*
G75*
G02X374114Y219743I3392J-1005*
G01*
Y219790*
X374176*
G75*
G02X376274Y220479I2098J-2849*
G01*
X385152*
G75*
G02X388689Y216941J-3537*
G01*
Y196307*
G75*
G02Y193304I-3951J-1501*
G01*
Y164382*
G75*
G02X385152Y160845I-3537*
G01*
X379161*
Y148160*
G75*
G02X380008Y145622I-3380J-2537*
G01*
G75*
G02X371555I-4226*
G01*
G75*
G02X372402Y148160I4226*
G01*
Y160983*
X360412*
G75*
G02X357032Y164363J3380*
G01*
Y194014*
X339648*
G75*
G02X334617Y193981I-2537J3380*
G01*
X313419*
G75*
G02X308793I-2313J3538*
G01*
X288294*
G75*
G02X283940Y194063I-2109J3663*
G01*
X262593*
G75*
G02X256053Y197600I-2313J3537*
G01*
G75*
G02X262593Y201138I4227J0*
G01*
X283807*
G75*
G02X288678Y201056I2378J-3494*
G01*
X308793*
G75*
G02X313419I2313J-3538*
G01*
X335001*
G75*
G02X339648Y200774I2109J-3662*
G01*
X357032*
Y205620*
X337146Y225506*
G75*
G02X336926Y225500I-223J4219*
G01*
G75*
G02X333833Y226846J4226*
G01*
X313250*
G75*
G02X308772Y226471I-2537J3380*
G01*
X288543*
G75*
G02X283469I-2537J3380*
G01*
X262522*
G75*
G02X255758Y229851I-2537J3380*
G01*
G75*
G02X262522Y233231I4226*
G01*
X283469*
G75*
G02X288543I2537J-3380*
G01*
X307741*
G75*
G02X313250Y233606I2971J-3006*
G01*
X335248*
G75*
G02X340802Y231410I1678J-3879*
G01*
X362800Y209412*
G75*
G02X363792Y207020I-2388J-2392*
G01*
Y167743*
X373672*
G75*
G02X374778Y167920I1106J-3361*
G01*
X381614*
Y177660*
G75*
G02X381594Y178024I3360J364*
G01*
Y191981*
G75*
G02X381614Y197652I3144J2825*
G01*
Y213404*
X376274*
G75*
G02X374176Y214093J3538*
G01*
X374114*
Y214140*
G75*
G02X372882Y215937I2159J2802*
G01*
Y214093*
X368563*
Y219790*
X369093*
Y224376*
X362665*
Y223453*
X357165*
Y228559*
X362665*
Y227636*
X367770*
Y250790*
X229974Y250504*
X228833Y250790*
Y173309*
X239984*
Y151016*
X353764*
Y128989*
G75*
G02X360511Y125967I2697J-3022*
G01*
G75*
G02X353764Y122945I-4050*
G01*
Y115829*
X389114*
Y135786*
X385781*
G75*
G02X382402Y139166J3380*
G01*
Y143085*
G75*
G02X381555Y145622I3380J2537*
G01*
G75*
G02X390008I4226*
G01*
G75*
G02X389161Y143085I-4226*
G01*
Y142546*
X392494*
G75*
G02X395220Y141163J-3380*
G01*
Y224491*
X375191Y130061D02*
X388321D01*
Y116931*
X375191*
Y130061*
X361555Y145622D02*
G75*
G02X370008I4226D01*
G01*
G75*
G02X361555I-4226*
G01*
X338805Y171617D02*
G75*
G02X347305I4250D01*
G01*
G75*
G02X338805I-4250*
G01*
X319175D02*
G75*
G02X326935I3880D01*
G01*
G75*
G02X319175I-3880*
G01*
X329175D02*
G75*
G02X336935I3880D01*
G01*
G75*
G02X329175I-3880*
G01*
X309175D02*
G75*
G02X316935I3880D01*
G01*
G75*
G02X309175I-3880*
G01*
X288805D02*
G75*
G02X297305I4250D01*
G01*
G75*
G02X288805I-4250*
G01*
X299175D02*
G75*
G02X306935I3880D01*
G01*
G75*
G02X299175I-3880*
G01*
X269175D02*
G75*
G02X276935I3880D01*
G01*
G75*
G02X269175I-3880*
G01*
X279175D02*
G75*
G02X286935I3880D01*
G01*
G75*
G02X279175I-3880*
G01*
X259175D02*
G75*
G02X266935I3880D01*
G01*
G75*
G02X259175I-3880*
G01*
X332884Y207394D02*
G75*
G02X341337I4226D01*
G01*
G75*
G02X332884I-4226*
G01*
X306880Y207519D02*
G75*
G02X315333I4226D01*
G01*
G75*
G02X306880I-4226*
G01*
X281959Y207644D02*
G75*
G02X290411I4226D01*
G01*
G75*
G02X281959I-4226*
G01*
X256053Y207600D02*
G75*
G02X264506I4226D01*
G01*
G75*
G02X256053I-4226*
G01*
X370299Y194806D02*
G75*
G02X379492I4596D01*
G01*
G75*
G02X370299I-4596*
G01*
X257425Y243215D02*
G75*
G02X264211Y239851I2559J-3363D01*
G01*
G75*
G02X258571Y235868I-4226*
G01*
X249220Y226516*
Y174996*
X251150*
G75*
G02X256935Y171617I1905J-3380*
G01*
G75*
G02X251150Y168237I-3880*
G01*
X245841*
G75*
G02X242461Y171617J3380*
G01*
Y227916*
G75*
G02X243452Y230307I3380*
G01*
X255384Y242241*
G75*
G02X257425Y243215I2392J-2388*
G01*
X281780Y239851D02*
G75*
G02X290232I4226D01*
G01*
G75*
G02X281780I-4226*
G01*
X306486Y240226D02*
G75*
G02X314939I4226D01*
G01*
G75*
G02X306486I-4226*
G01*
X332699Y239726D02*
G75*
G02X341152I4226D01*
G01*
G75*
G02X332699I-4226*
G01*
X356795Y235229D02*
X363035D01*
Y229382*
X356795*
Y235229*
X389114Y123496D02*
G36*
X388321D01*
Y116931*
X375191*
Y123496*
X359670*
G75*
G02X353764Y122945I-3209J2470*
G01*
Y116079*
X389114*
Y123496*
G37*
G36*
Y135786*
X385781*
G75*
G02X382402Y139166J3380*
G01*
Y143085*
G75*
G02X381555Y145622I3382J2538*
G01*
X380008*
G75*
G02X371555I-4226*
G01*
X370008*
G75*
G02X361555I-4226*
G01*
X353764*
Y128989*
G75*
G02X360511Y125967I2697J-3021*
G01*
Y125967*
Y125967*
G75*
G02X359670Y123496I-4050*
G01*
X375191*
Y130061*
X388321*
Y123496*
X389114*
G37*
X394970Y141466D02*
G36*
Y145622D01*
X390008*
G75*
G02X389161Y143085I-4229J1*
G01*
Y142546*
X392494*
G75*
G02X394970Y141466J-3380*
G01*
G37*
X371555Y145622D02*
G36*
G75*
G02X372402Y148160I4229J-1D01*
G01*
Y160983*
X360412*
G75*
G02X357032Y164363J3380*
G01*
Y171617*
X347305*
G75*
G02X338805I-4250*
G01*
X336935*
G75*
G02X329175I-3880*
G01*
X326935*
G75*
G02X319175I-3880*
G01*
X316935*
G75*
G02X309175I-3880*
G01*
X306935*
G75*
G02X299175I-3880*
G01*
X297305*
G75*
G02X288805I-4250*
G01*
X286935*
G75*
G02X279175I-3880*
G01*
X276935*
G75*
G02X269175I-3880*
G01*
X266935*
G75*
G02X259175I-3880*
G01*
X256935*
G75*
G02X251150Y168237I-3880*
G01*
X245841*
G75*
G02X242461Y171617J3380*
G01*
X239984*
Y151016*
X353764*
Y145622*
X361555*
G75*
G02X370008I4226*
G01*
X371555*
G37*
X381614Y171617D02*
G36*
X363792D01*
Y167743*
X373672*
G75*
G02X374778Y167920I1104J-3354*
G01*
X381614*
Y171617*
G37*
X390008Y145622D02*
G36*
X394970D01*
Y171617*
X388689*
Y164382*
G75*
G02X385152Y160845I-3537*
G01*
X379161*
Y148160*
G75*
G02X380008Y145622I-3382J-2538*
G01*
X381555*
G75*
G02X390008I4226*
G01*
G37*
X242461Y171617D02*
G36*
Y194806D01*
X229083*
Y173309*
X239984*
Y171617*
X242461*
G37*
X257109Y194806D02*
G36*
X249220D01*
Y174996*
X251150*
G75*
G02X256935Y171617I1905J-3380*
G01*
X259175*
G75*
G02X266935I3880*
G01*
X269175*
G75*
G02X276935I3880*
G01*
X279175*
G75*
G02X286935I3880*
G01*
X288805*
G75*
G02X297305I4250*
G01*
X299175*
G75*
G02X306935I3880*
G01*
X309175*
G75*
G02X316935I3880*
G01*
X319175*
G75*
G02X326935I3880*
G01*
X329175*
G75*
G02X336935I3880*
G01*
X338805*
G75*
G02X347305I4250*
G01*
X357032*
Y194014*
X339648*
G75*
G02X334617Y193981I-2537J3380*
G01*
X313419*
G75*
G02X308793I-2313J3538*
G01*
X288294*
G75*
G02X283940Y194063I-2109J3663*
G01*
X262593*
G75*
G02X257109Y194806I-2313J3537*
G01*
G37*
X380512D02*
G36*
X379492D01*
G75*
G02X370299I-4596*
G01*
X363792*
Y171617*
X381614*
Y177660*
G75*
G02X381594Y178024I3499J372*
G01*
Y191981*
G75*
G02X380512Y194806I3144J2825*
G01*
G37*
X388965D02*
G36*
G75*
G02X388689Y193304I-4226D01*
G01*
Y171617*
X394970*
Y194806*
X388965*
G37*
X242461Y207394D02*
G36*
X229083D01*
Y194806*
X242461*
Y207394*
G37*
X257109Y194806D02*
G36*
G75*
G02X256053Y197600I3170J2795D01*
G01*
G75*
G02X262593Y201138I4227J0*
G01*
X283807*
G75*
G02X288678Y201056I2378J-3495*
G01*
X308793*
G75*
G02X313419I2313J-3538*
G01*
X335001*
G75*
G02X339648Y200774I2109J-3663*
G01*
X357032*
Y205620*
X355258Y207394*
X341337*
G75*
G02X332884I-4226*
G01*
X315331*
G75*
G02X306882I-4224J125*
G01*
X290404*
G75*
G02X281966I-4219J250*
G01*
X264501*
G75*
G02X256058I-4221J206*
G01*
X249220*
Y194806*
X257109*
G37*
X380512D02*
G36*
G75*
G02X381614Y197652I4226D01*
G01*
Y207394*
X363771*
G75*
G02X363792Y207020I-3361J-375*
G01*
Y194806*
X370299*
G75*
G02X379492I4596*
G01*
X380512*
G37*
X388965D02*
G36*
X394970D01*
Y207394*
X388689*
Y196307*
G75*
G02X388965Y194806I-3951J-1501*
G01*
G37*
X245450Y232306D02*
G36*
X229083D01*
Y207394*
X242461*
Y227916*
G75*
G02X243452Y230307I3381J-1*
G01*
X245450Y232306*
G37*
X355258Y207394D02*
G36*
X337146Y225506D01*
G75*
G02X336926Y225500I-228J4409*
G01*
G75*
G02X333833Y226846I1J4229*
G01*
X313250*
G75*
G02X308772Y226471I-2537J3379*
G01*
X288543*
G75*
G02X283469I-2537J3380*
G01*
X262522*
G75*
G02X255758Y229851I-2537J3380*
G01*
Y229851*
Y229852*
G75*
G02X256543Y232306I4226*
G01*
X255009*
X249220Y226516*
Y207394*
X256058*
G75*
G02X256053Y207600I4222J208*
G01*
G75*
G02X264506I4226*
G01*
G75*
G02X264501Y207394I-4228J2*
G01*
X281966*
G75*
G02X281959Y207644I4220J252*
G01*
G75*
G02X290411I4226*
G01*
G75*
G02X290404Y207394I-4228J2*
G01*
X306882*
G75*
G02X306880Y207519I4225J129*
G01*
G75*
G02X315333I4226*
G01*
G75*
G02X315331Y207394I-4227J4*
G01*
X332884*
G75*
G02X341337I4226*
G01*
X355258*
G37*
X367770Y232306D02*
G36*
X363035D01*
Y229382*
X356795*
Y232306*
X340274*
G75*
G02X340802Y231410I-3348J-2580*
G01*
X362800Y209412*
G75*
G02X363771Y207394I-2390J-2393*
G01*
X381614*
Y213404*
X376274*
G75*
G02X374176Y214093I1J3540*
G01*
X374114*
Y214140*
G75*
G02X372882Y215937I2160J2802*
G01*
Y214093*
X368563*
Y219790*
X369093*
Y224376*
X362665*
Y223453*
X357165*
Y228559*
X362665*
Y227636*
X367770*
Y232306*
G37*
X394970Y224491D02*
G36*
X372352D01*
Y219790*
X372882*
Y217946*
G75*
G02X374114Y219743I3395J-1007*
G01*
Y219790*
X374176*
G75*
G02X376274Y220479I2098J-2851*
G01*
X385152*
G75*
G02X388689Y216941J-3537*
G01*
Y207394*
X394970*
Y224491*
G37*
X252995Y239851D02*
G36*
X229083D01*
Y232306*
X245450*
X252995Y239851*
G37*
X367770D02*
G36*
X341150D01*
G75*
G02X341152Y239726I-4225J-129*
G01*
G75*
G02X332699I-4226*
G01*
G75*
G02X332701Y239851I4227J-4*
G01*
X314922*
G75*
G02X306503I-4210J374*
G01*
X290232*
G75*
G02X281780I-4226*
G01*
X264211*
G75*
G02X258571Y235868I-4226J0*
G01*
X255009Y232306*
X256543*
G75*
G02X262522Y233231I3441J-2454*
G01*
X283469*
G75*
G02X288543I2537J-3380*
G01*
X307741*
G75*
G02X313250Y233606I2971J-3006*
G01*
X335248*
G75*
G02X340274Y232306I1678J-3880*
G01*
X356795*
Y235229*
X363035*
Y232306*
X367770*
Y239851*
G37*
Y250540D02*
G36*
X247080D01*
X229974Y250504*
X229833Y250540*
X229083*
Y239851*
X252995*
X255384Y242241*
G75*
G02X257425Y243215I2392J-2388*
G01*
G75*
G02X264211Y239852I2559J-3363*
G01*
Y239851*
X281780*
G75*
G02X290232I4226*
G01*
X306503*
G75*
G02X306486Y240226I4210J374*
G01*
G75*
G02X314939I4226*
G01*
G75*
G02X314922Y239851I-4227J-1*
G01*
X332701*
G75*
G02X341150I4224J-125*
G01*
X367770*
Y250540*
G37*
D02*
D11*
X16744Y107315D02*
X14744D01*
X16744Y117315D02*
X14744D01*
X16744Y127315D02*
X14744D01*
X16744Y147315D02*
X14744D01*
X16744Y157315D02*
X14744D01*
X19591Y94469D02*
Y92469D01*
Y110162D02*
Y112162D01*
Y114469D02*
Y112469D01*
Y120162D02*
Y122162D01*
Y124469D02*
Y122469D01*
Y130162D02*
Y132162D01*
Y144469D02*
Y142469D01*
Y150162D02*
Y152162D01*
Y154469D02*
Y152469D01*
Y160162D02*
Y162162D01*
X22437Y97315D02*
X24437D01*
X22437Y107315D02*
X24437D01*
X22437Y117315D02*
X24437D01*
X22437Y127315D02*
X24437D01*
X22437Y147315D02*
X24437D01*
X22437Y157315D02*
X24437D01*
X29591Y74469D02*
Y72469D01*
Y80162D02*
Y82162D01*
X32437Y77315D02*
X34437D01*
X45337Y33416D02*
X43337D01*
X46510Y32046D02*
Y30046D01*
Y34786D02*
Y36786D01*
X47683Y33416D02*
X49683D01*
X48250Y106961D02*
X46250D01*
X48669Y81031D02*
X46815Y79178D01*
X48669Y81899D02*
X46815Y83752D01*
X49030Y105493D02*
Y103493D01*
Y108430D02*
Y110430D01*
X49537Y81031D02*
X51390Y79178D01*
X49537Y81899D02*
X51390Y83752D01*
X49648Y65957D02*
X47648D01*
X49809Y106961D02*
X51809D01*
X50130Y96944D02*
X48132D01*
X51116Y65178D02*
Y63178D01*
Y66737D02*
Y68737D01*
X51599Y97724D02*
Y99723D01*
X52585Y65957D02*
X54585D01*
X53067Y96944D02*
X55069D01*
X65983Y90134D02*
X63982D01*
X66665Y87731D02*
Y85731D01*
X88712Y59168D02*
Y61168D01*
X89393Y56764D02*
X91392D01*
X93705Y135317D02*
X91705D01*
X93705Y171617D02*
X91705D01*
X96205Y132817D02*
Y130817D01*
Y137817D02*
Y139817D01*
Y169117D02*
Y167117D01*
Y174117D02*
Y176117D01*
X98705Y135317D02*
X100705D01*
X98705Y171617D02*
X100705D01*
X100376Y56545D02*
X98376D01*
X101844Y55765D02*
Y53766D01*
Y57324D02*
Y59325D01*
X117944Y41353D02*
X115944D01*
X117944Y51353D02*
X115944D01*
X120791Y38507D02*
Y36507D01*
Y44200D02*
Y46200D01*
Y48507D02*
Y46507D01*
Y54200D02*
Y56200D01*
X131923Y89243D02*
Y87243D01*
Y94148D02*
Y96148D01*
X143705Y135317D02*
X141705D01*
X143705Y171617D02*
X141705D01*
X146205Y132817D02*
Y130817D01*
Y137817D02*
Y139817D01*
Y169117D02*
Y167117D01*
Y174117D02*
Y176117D01*
X148417Y61902D02*
X146417D01*
X148705Y135317D02*
X150705D01*
X148705Y171617D02*
X150705D01*
X149197Y60433D02*
Y58433D01*
Y63370D02*
Y65370D01*
X149976Y61902D02*
X151976D01*
X150785Y126380D02*
X148785D01*
X153085Y124080D02*
Y122080D01*
Y128680D02*
Y130680D01*
X159610Y123667D02*
Y121667D01*
Y128267D02*
Y130267D01*
X160159Y65809D02*
X158159D01*
X161530Y64636D02*
Y62636D01*
Y66983D02*
Y68983D01*
X161695Y232306D02*
X159695D01*
X161910Y125967D02*
X163910D01*
X162900Y65809D02*
X164900D01*
X163065Y231132D02*
Y229132D01*
Y233479D02*
Y235479D01*
X164435Y232306D02*
X166435D01*
X168634Y65947D02*
X166634D01*
X170004Y64774D02*
Y62774D01*
Y67120D02*
Y69120D01*
X171374Y65947D02*
X173374D01*
X175199Y194806D02*
X173199D01*
X178045Y191959D02*
Y189959D01*
Y197652D02*
Y199652D01*
X180091Y123496D02*
X178091D01*
X180892Y194806D02*
X182892D01*
X184906Y118681D02*
Y116681D01*
Y128311D02*
Y130311D01*
X189720Y123496D02*
X191720D01*
X213594Y107315D02*
X211594D01*
X213594Y117315D02*
X211594D01*
X213594Y127315D02*
X211594D01*
X213594Y147315D02*
X211594D01*
X213594Y157315D02*
X211594D01*
X216441Y94469D02*
Y92469D01*
Y110162D02*
Y112162D01*
Y114469D02*
Y112469D01*
Y120162D02*
Y122162D01*
Y124469D02*
Y122469D01*
Y130162D02*
Y132162D01*
Y144469D02*
Y142469D01*
Y150162D02*
Y152162D01*
Y154469D02*
Y152469D01*
Y160162D02*
Y162162D01*
X219287Y97315D02*
X221287D01*
X219287Y107315D02*
X221287D01*
X219287Y117315D02*
X221287D01*
X219287Y127315D02*
X221287D01*
X219287Y147315D02*
X221287D01*
X219287Y157315D02*
X221287D01*
X226441Y74469D02*
Y72469D01*
Y80162D02*
Y82162D01*
X229287Y77315D02*
X231287D01*
X242187Y33416D02*
X240187D01*
X243360Y32046D02*
Y30046D01*
Y34786D02*
Y36786D01*
X244533Y33416D02*
X246533D01*
X245100Y106961D02*
X243100D01*
X245519Y81031D02*
X243666Y79178D01*
X245519Y81899D02*
X243666Y83752D01*
X245880Y105493D02*
Y103493D01*
Y108430D02*
Y110430D01*
X246387Y81031D02*
X248241Y79178D01*
X246387Y81899D02*
X248241Y83752D01*
X246498Y65957D02*
X244498D01*
X246659Y106961D02*
X248659D01*
X246981Y96944D02*
X244982D01*
X247967Y65178D02*
Y63178D01*
Y66737D02*
Y68737D01*
X248449Y97724D02*
Y99723D01*
X249435Y65957D02*
X251435D01*
X249918Y96944D02*
X251919D01*
X262834Y90134D02*
X260833D01*
X263515Y87731D02*
Y85731D01*
X285562Y59168D02*
Y61168D01*
X286243Y56764D02*
X288242D01*
X290555Y135317D02*
X288555D01*
X290555Y171617D02*
X288555D01*
X293055Y132817D02*
Y130817D01*
Y137817D02*
Y139817D01*
Y169117D02*
Y167117D01*
Y174117D02*
Y176117D01*
X295555Y135317D02*
X297555D01*
X295555Y171617D02*
X297555D01*
X297226Y56545D02*
X295226D01*
X298695Y55765D02*
Y53766D01*
Y57324D02*
Y59325D01*
X314795Y41353D02*
X312795D01*
X314795Y51353D02*
X312795D01*
X317641Y38507D02*
Y36507D01*
Y44200D02*
Y46200D01*
Y48507D02*
Y46507D01*
Y54200D02*
Y56200D01*
X328774Y89243D02*
Y87243D01*
Y94148D02*
Y96148D01*
X340555Y135317D02*
X338555D01*
X340555Y171617D02*
X338555D01*
X343055Y132817D02*
Y130817D01*
Y137817D02*
Y139817D01*
Y169117D02*
Y167117D01*
Y174117D02*
Y176117D01*
X345268Y61902D02*
X343268D01*
X345555Y135317D02*
X347555D01*
X345555Y171617D02*
X347555D01*
X346047Y60433D02*
Y58433D01*
Y63370D02*
Y65370D01*
X346827Y61902D02*
X348827D01*
X347635Y126380D02*
X345635D01*
X349935Y124080D02*
Y122080D01*
Y128680D02*
Y130680D01*
X356461Y123667D02*
Y121667D01*
Y128267D02*
Y130267D01*
X357010Y65809D02*
X355010D01*
X358380Y64636D02*
Y62636D01*
Y66983D02*
Y68983D01*
X358545Y232306D02*
X356545D01*
X358761Y125967D02*
X360761D01*
X359750Y65809D02*
X361750D01*
X359915Y231132D02*
Y229132D01*
Y233479D02*
Y235479D01*
X361285Y232306D02*
X363285D01*
X365484Y65947D02*
X363484D01*
X366854Y64774D02*
Y62774D01*
Y67120D02*
Y69120D01*
X368224Y65947D02*
X370224D01*
X372049Y194806D02*
X370049D01*
X374896Y191959D02*
Y189959D01*
Y197652D02*
Y199652D01*
X376941Y123496D02*
X374941D01*
X377742Y194806D02*
X379742D01*
X381756Y118681D02*
Y116681D01*
Y128311D02*
Y130311D01*
X386571Y123496D02*
X388571D01*
D02*
D12*
X18360Y39865D03*
Y239865D03*
X187691Y39865D03*
Y239865D03*
X215211Y39865D03*
Y239865D03*
X384541Y39865D03*
Y239865D03*
D02*
D13*
X19591Y67315D03*
Y77315D03*
Y87315D03*
Y97315D03*
Y107315D03*
Y117315D03*
Y127315D03*
Y137315D03*
Y147315D03*
Y157315D03*
X29591Y67315D03*
Y77315D03*
Y87315D03*
Y97315D03*
Y107315D03*
Y117315D03*
Y127315D03*
Y137315D03*
Y147315D03*
Y157315D03*
X63134Y229851D03*
Y239851D03*
X63429Y197600D03*
Y207600D03*
X89156Y229851D03*
Y239851D03*
X89335Y197644D03*
Y207644D03*
X110791Y41353D03*
Y51353D03*
X113862Y230226D03*
Y240226D03*
X114256Y197519D03*
Y207519D03*
X120791Y41353D03*
Y51353D03*
X130791Y41353D03*
Y51353D03*
X140075Y229726D03*
Y239726D03*
X140260Y197394D03*
Y207394D03*
X140791Y41353D03*
Y51353D03*
X150791Y41353D03*
Y51353D03*
X168931Y145622D03*
X178045Y194806D03*
X178931Y145622D03*
X187888Y194806D03*
X188931Y145622D03*
X216441Y67315D03*
Y77315D03*
Y87315D03*
Y97315D03*
Y107315D03*
Y117315D03*
Y127315D03*
Y137315D03*
Y147315D03*
Y157315D03*
X226441Y67315D03*
Y77315D03*
Y87315D03*
Y97315D03*
Y107315D03*
Y117315D03*
Y127315D03*
Y137315D03*
Y147315D03*
Y157315D03*
X259984Y229851D03*
Y239851D03*
X260280Y197600D03*
Y207600D03*
X286006Y229851D03*
Y239851D03*
X286185Y197644D03*
Y207644D03*
X307641Y41353D03*
Y51353D03*
X310713Y230226D03*
Y240226D03*
X311106Y197519D03*
Y207519D03*
X317641Y41353D03*
Y51353D03*
X327641Y41353D03*
Y51353D03*
X336926Y229726D03*
Y239726D03*
X337110Y197394D03*
Y207394D03*
X337641Y41353D03*
Y51353D03*
X347641Y41353D03*
Y51353D03*
X365781Y145622D03*
X374896Y194806D03*
X375781Y145622D03*
X384738Y194806D03*
X385781Y145622D03*
D02*
D14*
X51116Y65957D03*
Y71508D03*
X51599Y91393D03*
Y96944D03*
X101844Y56545D03*
Y62096D03*
X161274Y79284D03*
Y84835D03*
X169974Y79628D03*
Y85180D03*
X247967Y65957D03*
Y71508D03*
X248449Y91393D03*
Y96944D03*
X298695Y56545D03*
Y62096D03*
X358124Y79284D03*
Y84835D03*
X366825Y79628D03*
Y85180D03*
D02*
D15*
X184906Y123496D03*
X381756D03*
D02*
D16*
X184906Y107906D03*
X381756D03*
D02*
D18*
X56205Y135317D03*
Y171617D03*
X66205Y135317D03*
Y171617D03*
X76205Y135317D03*
Y171617D03*
X86205Y135317D03*
Y171617D03*
X96205Y135317D03*
Y171617D03*
X106205Y135317D03*
Y171617D03*
X116205Y135317D03*
Y171617D03*
X126205Y135317D03*
Y171617D03*
X136205Y135317D03*
Y171617D03*
X146205Y135317D03*
Y171617D03*
X253055Y135317D03*
Y171617D03*
X263055Y135317D03*
Y171617D03*
X273055Y135317D03*
Y171617D03*
X283055Y135317D03*
Y171617D03*
X293055Y135317D03*
Y171617D03*
X303055Y135317D03*
Y171617D03*
X313055Y135317D03*
Y171617D03*
X323055Y135317D03*
Y171617D03*
X333055Y135317D03*
Y171617D03*
X343055Y135317D03*
Y171617D03*
D02*
D23*
X153085Y126380D03*
X159610Y125967D03*
X349935Y126380D03*
X356461Y125967D03*
D02*
D24*
X56205Y171617D02*
X48990D01*
Y227916*
X60926Y239851*
X63134*
Y229851D02*
X89156D01*
X63429Y197600D02*
Y197644D01*
X89335*
X89156Y229851D02*
X113862D01*
Y230226*
X140075*
Y229726*
X114256Y197519D02*
X89335D01*
Y197644*
X114256Y197519D02*
X140260D01*
Y197394*
X139826Y197519D02*
Y197453D01*
X140260*
Y197394*
X140075Y229726D02*
X140856D01*
X163562Y207020*
Y197394*
X140075Y230226D02*
Y229726D01*
X150791Y41353D02*
Y51353D01*
X171246*
X195644Y75750*
Y139166*
X188931*
Y145622*
X153085Y126380D02*
X160024D01*
Y125967*
X159610*
X163562Y197394D02*
X140260D01*
X177927Y164363D02*
X163562D01*
Y197394*
X178931Y145622D02*
Y164363D01*
X177927*
X179423Y216941D02*
X188301D01*
Y164382*
X183026*
Y164363*
X177927*
X188370Y178024D02*
X188124D01*
Y194806*
X187888*
X253055Y171617D02*
X245841D01*
Y227916*
X257776Y239851*
X259984*
Y229851D02*
X286006D01*
X260280Y197600D02*
Y197644D01*
X286185*
X286006Y229851D02*
X310713D01*
Y230226*
X336926*
Y229726*
X311106Y197519D02*
X286185D01*
Y197644*
X311106Y197519D02*
X337110D01*
Y197394*
X336676Y197519D02*
Y197453D01*
X337110*
Y197394*
X336926Y229726D02*
X337706D01*
X360412Y207020*
Y197394*
X336926Y230226D02*
Y229726D01*
X347641Y41353D02*
Y51353D01*
X368097*
X392494Y75750*
Y139166*
X385781*
Y145622*
X349935Y126380D02*
X356874D01*
Y125967*
X356461*
X360412Y197394D02*
X337110D01*
X374778Y164363D02*
X360412D01*
Y197394*
X375781Y145622D02*
Y164363D01*
X374778*
X376274Y216941D02*
X385152D01*
Y164382*
X379876*
Y164363*
X374778*
X385220Y178024D02*
X384974D01*
Y194806*
X384738*
D02*
D25*
X19591Y67315D02*
X22145D01*
Y67109*
X24640*
Y92140*
X37371*
Y92069*
X51599*
Y91393*
X24640Y67109D02*
X27137D01*
Y67315*
X29591*
X36264Y102374D02*
X15393D01*
X13415Y100396*
Y93378*
X19478Y87315*
X19591*
X44116Y66902D02*
X29591D01*
Y67315*
X44116Y66902D02*
Y57886D01*
X44165*
X61764Y40288*
X68193*
Y33637*
X49103Y76741D02*
X54969D01*
Y76847*
X56295Y78174*
X61003*
X49103Y86189D02*
Y86083D01*
X52972*
X54969Y84086*
Y84069*
X57714Y81323*
X61003*
X51116Y71508D02*
X44116D01*
Y66902*
X51599Y91393D02*
X54195D01*
X61003Y84585*
Y84473*
X54581Y106961D02*
X56161D01*
X68457Y94666*
X68578*
X69814Y93429*
Y90134*
X59571Y55878D02*
Y62454D01*
X61003*
Y62426*
Y71874D02*
Y71833D01*
X51116*
Y71508*
X61003Y84501D02*
Y84473D01*
X62642Y33637D02*
Y33416D01*
X52809*
X67324Y74975D02*
Y75024D01*
X61003*
X68193Y33637D02*
X72396D01*
X72964Y90134D02*
Y96566D01*
X72493Y97037*
X72446*
X68341Y101143*
Y107099*
X76113Y90134D02*
Y106567D01*
X79263Y90134D02*
Y109953D01*
X82306Y107138D02*
X82413D01*
Y90134*
Y56764D02*
Y48103D01*
X100959*
X83921Y33585D02*
Y44914D01*
X105634*
Y62096*
X101844*
X85562Y56764D02*
Y50839D01*
X98026*
X85562Y109579D02*
Y90134D01*
X88546Y100239D02*
Y90134D01*
X88712*
X94287Y103595D02*
X94373D01*
Y84473*
Y65575D02*
X108004D01*
X109507Y67079*
Y72230*
X94373Y68725D02*
X106451D01*
X94373Y71874D02*
X103767D01*
X94373Y75024D02*
X106193D01*
X115570Y84402*
X121923*
Y91695*
X94373Y78174D02*
X101057D01*
Y106882*
X136923*
Y91695*
X94373Y81323D02*
X67579D01*
X101844Y62096D02*
Y62426D01*
X94373*
X110791Y51353D02*
X111559D01*
Y57916*
X115781Y62138*
Y74924*
X121018Y80160*
X127465*
X126047Y61981D02*
Y41353D01*
X130791*
X126047Y61981D02*
Y70435D01*
X126923*
X127465Y80160D02*
X126923D01*
Y91695*
X131598Y61981D02*
X130791D01*
Y51353*
X131598Y61981D02*
Y70435D01*
X131923*
X136923D02*
X143646D01*
Y61902*
X161274Y79284D02*
Y72109D01*
X161530*
X161274Y93831D02*
Y84835D01*
X169974Y79628D02*
X170004D01*
Y72246*
X169974Y90465D02*
Y85180D01*
X173872Y216941D02*
Y226006D01*
X163065*
X216441Y67315D02*
X218996D01*
Y67109*
X221490*
Y92140*
X234222*
Y92069*
X248449*
Y91393*
X221490Y67109D02*
X223988D01*
Y67315*
X226441*
X233114Y102374D02*
X212244D01*
X210265Y100396*
Y93378*
X216328Y87315*
X216441*
X240967Y66902D02*
X226441D01*
Y67315*
X240967Y66902D02*
Y57886D01*
X241016*
X258614Y40288*
X265043*
Y33637*
X245953Y76741D02*
X251819D01*
Y76847*
X253145Y78174*
X257854*
X245953Y86189D02*
Y86083D01*
X249822*
X251819Y84086*
Y84069*
X254565Y81323*
X257854*
X247967Y71508D02*
X240967D01*
Y66902*
X248449Y91393D02*
X251045D01*
X257854Y84585*
Y84473*
X251431Y106961D02*
X253012D01*
X265307Y94666*
X265428*
X266665Y93429*
Y90134*
X256421Y55878D02*
Y62454D01*
X257854*
Y62426*
Y71874D02*
Y71833D01*
X247967*
Y71508*
X257854Y84501D02*
Y84473D01*
X259492Y33637D02*
Y33416D01*
X249659*
X264174Y74975D02*
Y75024D01*
X257854*
X265043Y33637D02*
X269246D01*
X269814Y90134D02*
Y96566D01*
X269343Y97037*
X269297*
X265191Y101143*
Y107099*
X272964Y90134D02*
Y106567D01*
X276113Y90134D02*
Y109953D01*
X279156Y107138D02*
X279263D01*
Y90134*
Y56764D02*
Y48103D01*
X297809*
X280772Y33585D02*
Y44914D01*
X302484*
Y62096*
X298695*
X282413Y56764D02*
Y50839D01*
X294876*
X282413Y109579D02*
Y90134D01*
X285396Y100239D02*
Y90134D01*
X285562*
X291137Y103595D02*
X291224D01*
Y84473*
Y65575D02*
X304854D01*
X306358Y67079*
Y72230*
X291224Y68725D02*
X303301D01*
X291224Y71874D02*
X300617D01*
X291224Y75024D02*
X303043D01*
X312421Y84402*
X318774*
Y91695*
X291224Y78174D02*
X297907D01*
Y106882*
X333774*
Y91695*
X291224Y81323D02*
X264430D01*
X298695Y62096D02*
Y62426D01*
X291224*
X307641Y51353D02*
X308409D01*
Y57916*
X312632Y62138*
Y74924*
X317868Y80160*
X324315*
X322898Y61981D02*
Y41353D01*
X327641*
X322898Y61981D02*
Y70435D01*
X323774*
X324315Y80160D02*
X323774D01*
Y91695*
X328449Y61981D02*
X327641D01*
Y51353*
X328449Y61981D02*
Y70435D01*
X328774*
X333774D02*
X340496D01*
Y61902*
X358124Y79284D02*
Y72109D01*
X358380*
X358124Y93831D02*
Y84835D01*
X366825Y79628D02*
X366854D01*
Y72246*
X366825Y90465D02*
Y85180D01*
X370722Y216941D02*
Y226006D01*
X359915*
D02*
D92*
X49030Y106961D03*
X54581D03*
X62642Y33637D03*
X68193D03*
X126047Y61981D03*
X131598D03*
X143646Y61902D03*
X149197D03*
X173872Y216941D03*
X179423D03*
X245880Y106961D03*
X251431D03*
X259492Y33637D03*
X265043D03*
X322898Y61981D03*
X328449D03*
X340496Y61902D03*
X346047D03*
X370722Y216941D03*
X376274D03*
D02*
D93*
X46510Y33416D03*
X52809D03*
X243360D03*
X249659D03*
D02*
D101*
X49103Y76741D03*
Y81465D03*
Y86189D03*
X245953Y76741D03*
Y81465D03*
Y86189D03*
D02*
D102*
X121923Y70435D03*
Y91695D03*
X126923Y70435D03*
Y91695D03*
X131923Y70435D03*
Y91695D03*
X136923Y70435D03*
Y91695D03*
X318774Y70435D03*
Y91695D03*
X323774Y70435D03*
Y91695D03*
X328774Y70435D03*
Y91695D03*
X333774Y70435D03*
Y91695D03*
D02*
D104*
X11972Y147660D03*
X36264Y102374D03*
X39157Y33319D03*
X43902Y121095D03*
X48537Y113349D03*
X51136Y59520D03*
X59571Y55878D03*
X67324Y74975D03*
X67579Y81323D03*
X68341Y107099D03*
X71323Y71203D03*
Y76320D03*
X71573Y65961D03*
X72396Y33637D03*
X75567Y71328D03*
Y76444D03*
X75816Y66086D03*
X76113Y106567D03*
X76982Y44008D03*
X79263Y109953D03*
X79810Y71328D03*
Y76444D03*
X80059Y66086D03*
X82306Y107138D03*
X83921Y33585D03*
X84303Y71328D03*
Y76444D03*
X84552Y66086D03*
X85562Y109579D03*
X87937Y37620D03*
X88546Y100239D03*
X91539Y41203D03*
X94287Y103595D03*
X96274Y141567D03*
X98026Y50839D03*
X100959Y48103D03*
X103767Y71874D03*
X103892Y39451D03*
X106451Y68725D03*
X109507Y72230D03*
X127465Y80160D03*
X131933Y100888D03*
X150663Y70583D03*
X154640Y61882D03*
X161274Y93831D03*
X166490Y58949D03*
X169974Y90465D03*
X173774Y201095D03*
X208823Y147660D03*
X233114Y102374D03*
X236008Y33319D03*
X240752Y121095D03*
X245388Y113349D03*
X247986Y59520D03*
X256421Y55878D03*
X264174Y74975D03*
X264430Y81323D03*
X265191Y107099D03*
X268174Y71203D03*
Y76320D03*
X268423Y65961D03*
X269246Y33637D03*
X272417Y71328D03*
Y76444D03*
X272667Y66086D03*
X272964Y106567D03*
X273833Y44008D03*
X276113Y109953D03*
X276660Y71328D03*
Y76444D03*
X276910Y66086D03*
X279156Y107138D03*
X280772Y33585D03*
X281153Y71328D03*
Y76444D03*
X281403Y66086D03*
X282413Y109579D03*
X284787Y37620D03*
X285396Y100239D03*
X288390Y41203D03*
X291137Y103595D03*
X293124Y141567D03*
X294876Y50839D03*
X297809Y48103D03*
X300617Y71874D03*
X300742Y39451D03*
X303301Y68725D03*
X306358Y72230D03*
X324315Y80160D03*
X328783Y100888D03*
X347514Y70583D03*
X351490Y61882D03*
X358124Y93831D03*
X363341Y58949D03*
X366825Y90465D03*
X370624Y201095D03*
D02*
D118*
X61003Y62426D03*
Y65575D03*
Y68725D03*
Y71874D03*
Y75024D03*
Y78174D03*
Y81323D03*
Y84473D03*
X94373Y62426D03*
Y65575D03*
Y68725D03*
Y71874D03*
Y75024D03*
Y78174D03*
Y81323D03*
Y84473D03*
X257854Y62426D03*
Y65575D03*
Y68725D03*
Y71874D03*
Y75024D03*
Y78174D03*
Y81323D03*
Y84473D03*
X291224Y62426D03*
Y65575D03*
Y68725D03*
Y71874D03*
Y75024D03*
Y78174D03*
Y81323D03*
Y84473D03*
D02*
D119*
X66665Y56764D03*
Y90134D03*
X69814Y56764D03*
Y90134D03*
X72964Y56764D03*
Y90134D03*
X76113Y56764D03*
Y90134D03*
X79263Y56764D03*
Y90134D03*
X82413Y56764D03*
Y90134D03*
X85562Y56764D03*
Y90134D03*
X88712Y56764D03*
Y90134D03*
X263515Y56764D03*
Y90134D03*
X266665Y56764D03*
Y90134D03*
X269814Y56764D03*
Y90134D03*
X272964Y56764D03*
Y90134D03*
X276113Y56764D03*
Y90134D03*
X279263Y56764D03*
Y90134D03*
X282413Y56764D03*
Y90134D03*
X285562Y56764D03*
Y90134D03*
D02*
D120*
X161530Y65809D03*
Y72109D03*
X163065Y226006D03*
Y232306D03*
X170004Y65947D03*
Y72246D03*
X358380Y65809D03*
Y72109D03*
X359915Y226006D03*
Y232306D03*
X366854Y65947D03*
Y72246D03*
X0Y0D02*
M02*
